M48
; DRILL file {KiCad 8.0.1-8.0.1-1~ubuntu22.04.1} date 2024-04-24T17:25:39+0200
; FORMAT={-:-/ absolute / metric / decimal}
; #@! TF.CreationDate,2024-04-24T17:25:39+02:00
; #@! TF.GenerationSoftware,Kicad,Pcbnew,8.0.1-8.0.1-1~ubuntu22.04.1
; #@! TF.FileFunction,Plated,1,4,PTH
FMAT,2
METRIC
; #@! TA.AperFunction,Plated,PTH,ComponentDrill
T1C0.200
; #@! TA.AperFunction,Plated,PTH,ViaDrill
T2C0.300
; #@! TA.AperFunction,Plated,PTH,ComponentDrill
T3C0.300
; #@! TA.AperFunction,Plated,PTH,ComponentDrill
T4C0.550
; #@! TA.AperFunction,Plated,PTH,ComponentDrill
T5C0.600
; #@! TA.AperFunction,Plated,PTH,ComponentDrill
T6C0.950
; #@! TA.AperFunction,Plated,PTH,ComponentDrill
T7C1.000
; #@! TA.AperFunction,Plated,PTH,ComponentDrill
T8C1.020
; #@! TA.AperFunction,Plated,PTH,ComponentDrill
T9C3.200
; #@! TA.AperFunction,Plated,PTH,ComponentDrill
T10C4.000
%
G90
G05
T1
X119.888Y-40.002
X119.888Y-40.702
X119.888Y-41.402
X119.888Y-42.102
X120.588Y-40.002
X120.588Y-40.702
X120.588Y-41.402
X120.588Y-42.102
X121.288Y-40.002
X121.288Y-40.702
X121.288Y-41.402
X121.288Y-42.102
X121.988Y-40.002
X121.988Y-40.702
X121.988Y-41.402
X121.988Y-42.102
T2
X21.3Y-37.6
X22.016Y-37.242
X22.3Y-34.6
X24.5Y-28.4
X27.5Y-23.3
X28.947Y-64.141
X29.2Y-64.9
X61.2Y-32.0
X61.534Y-41.775
X61.9Y-30.2
X62.1Y-42.4
X62.834Y-35.866
X63.0Y-27.4
X63.4Y-35.3
X65.534Y-44.334
X66.1Y-44.9
X66.5Y-54.175
X67.0Y-54.8
X67.149Y-68.025
X67.938Y-68.162
X68.94Y-68.16
X69.1Y-53.06
X69.7Y-53.65
X70.465Y-67.803
X70.7Y-34.4
X70.8Y-33.3
X70.913Y-22.721
X71.031Y-68.369
X71.534Y-49.766
X71.583Y-45.189
X72.1Y-33.3
X72.1Y-45.8
X72.1Y-47.5
X72.1Y-49.2
X72.3Y-30.3
X73.8Y-66.1
X74.8Y-66.0
X75.113Y-23.621
X75.5Y-28.1
X75.81Y-39.429
X75.826Y-26.875
X76.6Y-39.3
X78.5Y-23.2
X78.7Y-47.2
X78.845Y-46.413
X78.886Y-43.525
X79.41Y-65.075
X79.8Y-43.525
X80.0Y-65.7
X80.1Y-47.2
X80.6Y-43.3
X80.6Y-47.9
X81.474Y-43.337
X82.2Y-43.0
X83.0Y-58.9
X83.818Y-58.8
X84.602Y-59.0
X85.118Y-58.389
X85.2Y-56.7
X85.4Y-48.4
X85.8Y-56.0
X85.9Y-57.266
X85.9Y-58.1
X86.1Y-48.9
X86.3Y-48.1
X86.6Y-55.6
X86.9Y-48.7
X87.6Y-49.4
X87.704Y-48.413
X88.388Y-49.575
X89.188Y-49.575
X90.052Y-49.595
X91.14Y-54.31
X91.98Y-54.31
X94.7Y-54.3
X96.1Y-45.3
X97.1Y-52.9
X97.315Y-44.2
X98.5Y-47.0
X99.4Y-43.9
X100.4Y-38.1
X101.4Y-50.2
X101.4Y-51.0
X101.9Y-31.9
X102.4Y-52.1
X104.8Y-42.064
X105.2Y-34.4
X105.2Y-36.7
X105.323Y-42.7
X105.562Y-41.821
X105.79Y-36.0
X105.8Y-49.7
X105.843Y-33.924
X105.875Y-47.625
X106.0Y-52.1
X106.4Y-41.8
X106.988Y-46.945
X107.155Y-42.195
X107.72Y-41.629
X108.3Y-42.2
X108.9Y-39.325
X109.21Y-40.062
X109.253Y-33.122
X110.05Y-33.05
X114.0Y-35.7
X114.9Y-35.7
X115.7Y-35.7
X116.6Y-37.8
X116.6Y-45.0
X117.2Y-44.4
X117.9Y-42.7
X117.9Y-43.5
X117.978Y-39.427
X118.1Y-53.725
X118.2Y-35.6
X118.202Y-38.659
X118.6Y-36.3
X118.6Y-53.1
X119.0Y-38.7
X119.501Y-55.248
X120.3Y-55.28
X120.332Y-37.762
X120.4Y-61.669
X120.966Y-62.234
X121.234Y-60.834
X121.454Y-46.217
X121.766Y-55.311
X121.8Y-61.4
X122.037Y-23.035
X122.1Y-66.5
X122.3Y-35.8
X122.5Y-65.7
X122.6Y-55.31
X123.1Y-43.805
X123.4Y-37.8
X123.6Y-54.6
X123.8Y-37.1
X123.9Y-45.4
X124.5Y-54.7
X124.556Y-40.266
X124.6Y-42.1
X125.0Y-39.6
X125.3Y-66.6
X125.711Y-53.768
X126.2Y-44.854
X126.337Y-22.835
X126.5Y-53.9
X126.6Y-51.5
X127.1Y-52.3
X127.12Y-42.24
X127.2Y-27.3
X127.6Y-41.6
X127.8Y-43.9
X128.625Y-44.854
X129.6Y-23.2
X130.2Y-51.9
X131.179Y-52.231
X131.4Y-53.0
X133.7Y-56.466
X133.775Y-57.262
X134.747Y-49.925
X134.747Y-51.61
X135.6Y-51.61
X135.613Y-50.021
X137.0Y-47.3
X137.3Y-52.3
X137.3Y-53.1
X138.3Y-48.6
X139.2Y-55.6
X139.873Y-51.527
X140.0Y-55.51
X140.789Y-51.568
X140.942Y-55.116
X141.3Y-54.4
X141.324Y-50.734
X141.805Y-50.095
X142.622Y-50.078
X143.819Y-50.168
X144.617Y-50.117
X144.911Y-49.373
X145.7Y-49.6
X146.3Y-56.0
X146.325Y-49.1
X146.597Y-56.743
X146.663Y-48.375
X148.131Y-48.22
X148.5Y-43.0
X149.0Y-42.375
X149.1Y-48.4
X153.4Y-32.1
X155.954Y-42.279
X156.1Y-40.8
X156.3Y-43.0
X156.4Y-34.5
X157.062Y-34.051
X161.1Y-45.3
X161.32Y-46.069
X161.711Y-60.432
X161.8Y-55.88
X161.8Y-56.68
X162.5Y-60.3
X162.8Y-34.5
X163.76Y-55.321
X164.7Y-61.4
X164.902Y-60.626
X164.975Y-55.0
X164.978Y-50.589
X165.288Y-54.264
X165.568Y-51.31
X165.6Y-33.3
X165.6Y-35.7
X165.6Y-55.5
X166.1Y-50.6
X166.1Y-54.31
X166.666Y-59.166
X166.768Y-53.511
X166.8Y-51.4
X166.9Y-54.3
X167.09Y-59.844
X167.167Y-50.59
X168.035Y-53.768
X168.4Y-34.5
X168.5Y-49.5
X168.834Y-53.713
X169.841Y-41.853
X169.958Y-53.609
X169.99Y-46.117
X170.3Y-49.01
X170.427Y-47.606
X170.6Y-45.6
X170.6Y-54.31
X170.641Y-41.825
X170.741Y-53.447
X170.91Y-49.65
X171.2Y-47.4
X171.3Y-42.3
X171.5Y-53.7
X171.6Y-62.4
X171.7Y-43.0
X172.25Y-53.35
X172.265Y-54.31
X172.285Y-55.91
X172.5Y-59.197
X172.7Y-63.6
X172.9Y-39.0
X172.9Y-59.9
X172.934Y-64.834
X173.0Y-23.31
X173.0Y-54.9
X173.0Y-56.5
X173.1Y-55.7
X173.11Y-54.108
X173.12Y-38.231
X173.347Y-64.146
X173.5Y-65.4
X173.8Y-62.6
X173.91Y-63.392
X174.1Y-64.69
X174.11Y-66.829
X174.29Y-55.699
X174.3Y-54.1
X174.322Y-54.9
X174.9Y-66.7
X175.0Y-43.6
X175.088Y-53.386
X175.5Y-52.7
X175.7Y-46.4
X175.859Y-43.575
X176.5Y-46.4
X177.603Y-53.222
X177.7Y-27.7
X177.8Y-23.01
X178.403Y-53.224
X179.281Y-53.014
X179.313Y-53.813
X179.4Y-47.4
X179.45Y-46.55
X180.1Y-65.9
X180.7Y-23.1
X180.7Y-52.6
X180.7Y-65.275
X181.459Y-52.853
X183.3Y-45.6
X184.1Y-45.5
X187.0Y-49.8
X187.02Y-52.46
X187.5Y-53.1
X187.737Y-49.489
X188.7Y-49.5
X189.31Y-48.9
X189.419Y-56.689
X189.927Y-57.307
X190.6Y-56.8
X190.7Y-64.9
X191.0Y-56.1
X191.156Y-49.49
X191.55Y-65.1
X191.6Y-48.8
X192.0Y-54.5
X192.149Y-64.339
X192.157Y-53.716
X192.6Y-65.0
X193.7Y-50.2
X194.3Y-49.6
X194.925Y-51.775
X195.515Y-50.9
X195.515Y-52.326
X196.15Y-51.7
X196.79Y-50.7
X197.362Y-50.141
X197.974Y-49.625
X198.667Y-50.024
X199.373Y-50.401
X199.484Y-64.958
X199.955Y-49.851
X200.2Y-64.6
X200.2Y-69.058
X200.553Y-50.387
X200.916Y-64.958
X201.1Y-69.058
X201.225Y-49.8
X201.888Y-50.248
X202.378Y-49.616
X202.6Y-36.3
X203.044Y-37.1
X203.215Y-50.288
X203.4Y-35.6
X203.629Y-49.603
X203.862Y-38.9
X204.465Y-50.267
X204.504Y-38.423
X204.825Y-60.85
X204.9Y-29.8
X205.025Y-49.65
X205.34Y-48.913
X205.616Y-60.529
X205.873Y-49.51
X206.5Y-28.4
X206.515Y-50.079
X206.81Y-49.335
X206.9Y-61.59
X207.6Y-42.4
X207.6Y-43.4
X207.6Y-44.4
X207.69Y-61.718
X207.695Y-51.0
X208.475Y-51.25
X208.48Y-65.15
X208.8Y-38.29
X209.009Y-50.654
X209.2Y-42.4
X209.2Y-43.4
X209.2Y-44.4
X209.28Y-65.136
X209.655Y-51.125
X210.6Y-42.4
X210.6Y-44.4
X210.6Y-43.4
X211.7Y-61.575
X212.275Y-53.825
X212.4Y-40.4
X212.568Y-53.033
X212.7Y-61.6
X212.983Y-45.517
X212.992Y-42.61
X213.073Y-53.764
X213.2Y-38.31
X213.344Y-52.836
X213.369Y-41.72
X213.435Y-61.285
X213.9Y-50.954
X213.962Y-51.751
X214.0Y-38.29
X214.1Y-52.575
X214.171Y-49.59
X214.425Y-50.35
X214.5Y-61.21
X215.2Y-41.8
X215.4Y-68.94
X216.2Y-64.8
X216.2Y-68.94
X216.4Y-43.97
X216.4Y-60.6
X216.7Y-50.0
X216.95Y-65.275
X216.958Y-64.092
X217.047Y-68.952
X217.1Y-33.2
X217.1Y-45.6
X217.199Y-44.004
X217.2Y-42.6
X217.2Y-60.3
X217.5Y-50.0
X217.6Y-64.69
X217.72Y-43.38
X217.79Y-42.01
X217.92Y-68.94
X218.164Y-44.046
X218.6Y-27.6
X218.684Y-54.484
X219.25Y-55.05
X220.525Y-59.775
X220.614Y-53.412
X220.69Y-58.985
X221.0Y-27.3
X221.3Y-46.5
X221.3Y-47.3
X221.3Y-53.0
X225.0Y-53.5
X225.4Y-34.2
X225.5Y-52.8
X226.4Y-54.6
X226.953Y-39.947
X227.09Y-54.01
X227.155Y-52.444
X227.173Y-51.627
X227.3Y-29.2
X227.77Y-39.93
X228.3Y-44.9
X228.5Y-64.9
X228.611Y-44.163
X228.683Y-40.717
X228.8Y-27.9
X228.9Y-38.475
X228.9Y-52.21
X229.372Y-64.79
X229.45Y-51.535
X229.49Y-39.041
X229.7Y-40.8
X229.95Y-52.7
X230.334Y-39.41
X230.8Y-52.5
X231.0Y-40.0
X231.531Y-66.68
X231.8Y-23.1
X232.3Y-66.9
X232.761Y-54.456
X233.516Y-54.19
X234.3Y-54.9
X234.9Y-52.5
X235.1Y-54.8
X235.258Y-53.216
X237.3Y-59.6
X237.4Y-54.0
X237.504Y-49.165
X237.8Y-64.6
X241.1Y-61.9
X241.257Y-61.116
X241.4Y-64.3
X241.8Y-49.6
X242.189Y-64.432
X242.4Y-51.0
X245.3Y-55.4
X245.3Y-56.6
X245.3Y-60.9
X245.3Y-62.2
X245.5Y-44.9
X245.6Y-63.8
X246.012Y-64.486
X246.017Y-44.29
X251.4Y-48.425
X252.259Y-48.424
X253.5Y-49.4
X254.09Y-48.725
X255.3Y-52.0
X256.1Y-52.0
X256.3Y-29.7
X258.4Y-47.4
X259.187Y-47.545
X260.22Y-61.46
X260.7Y-62.1
X264.2Y-61.0
X264.612Y-60.314
X267.6Y-48.3
X267.6Y-66.0
X268.4Y-47.975
X268.4Y-66.1
X268.517Y-30.983
X268.685Y-64.617
X268.844Y-65.434
X268.985Y-63.212
X269.0Y-27.0
X269.212Y-64.015
X269.285Y-61.935
X269.6Y-61.2
X269.6Y-62.7
X269.873Y-47.673
X270.7Y-47.675
X271.685Y-42.735
X272.154Y-42.087
X273.3Y-59.0
X273.5Y-59.9
X275.808Y-62.1
X276.1Y-56.8
X276.3Y-50.6
X276.4Y-34.1
X276.7Y-56.1
X276.7Y-62.1
X277.069Y-50.38
X277.2Y-55.3
X277.4Y-40.5
X277.4Y-42.4
X277.5Y-49.6
X277.6Y-52.71
X277.715Y-39.765
X277.8Y-43.1
X278.0Y-54.79
X278.25Y-49.25
X278.3Y-29.2
X278.4Y-52.71
X279.9Y-28.0
X279.9Y-46.1
X280.2Y-38.7
X280.3Y-42.4
X280.4Y-43.7
X280.529Y-46.594
X280.866Y-39.144
X281.0Y-44.525
X281.1Y-42.1
X281.135Y-43.385
X282.2Y-42.3
X282.9Y-23.2
X282.966Y-42.53
X282.983Y-48.317
X283.0Y-47.5
X284.304Y-54.889
X285.0Y-55.4
X285.7Y-62.925
X285.78Y-55.6
X286.084Y-64.142
X286.352Y-63.389
X286.37Y-56.233
X286.791Y-55.553
X287.0Y-64.5
X287.172Y-45.918
X287.59Y-55.6
X287.666Y-65.51
X287.814Y-64.724
X287.969Y-45.854
X288.017Y-56.802
X288.6Y-65.5
X288.6Y-66.3
X288.817Y-56.783
X288.9Y-55.9
X289.5Y-46.625
X289.5Y-55.3
X289.6Y-66.2
X290.166Y-66.766
X290.2Y-50.99
X290.2Y-51.79
X290.4Y-46.6
X290.45Y-55.85
X290.8Y-55.1
X291.411Y-62.968
X291.8Y-55.3
X292.2Y-63.1
X293.0Y-60.51
X293.2Y-56.7
X293.79Y-57.3
X293.8Y-60.499
X294.2Y-54.913
X294.356Y-51.866
X294.8Y-51.2
X295.0Y-54.9
X295.1Y-46.625
X295.441Y-45.901
X296.3Y-54.1
X296.3Y-54.9
X296.8Y-57.4
X297.092Y-54.79
X297.6Y-57.4
X297.958Y-54.59
X298.4Y-45.9
X298.4Y-57.8
X298.6Y-59.1
X299.008Y-54.792
X299.083Y-57.281
X299.113Y-59.713
X299.234Y-45.9
X301.0Y-49.9
X301.157Y-50.684
X301.4Y-54.6
X301.5Y-57.4
X302.2Y-54.6
X302.2Y-61.5
X302.3Y-57.4
X306.134Y-42.51
X306.7Y-43.1
X307.3Y-29.7
X309.3Y-49.2
X309.3Y-50.0
X311.195Y-47.972
X312.1Y-48.2
X312.4Y-56.2
X312.428Y-47.471
X312.9Y-38.2
X312.9Y-46.15
X313.229Y-47.51
X313.681Y-46.525
X313.7Y-38.2
X314.8Y-46.3
X315.2Y-62.2
X315.5Y-46.86
X316.017Y-62.217
X316.1Y-46.3
X316.911Y-46.568
X316.941Y-41.947
X317.005Y-61.592
X317.7Y-42.2
X317.7Y-46.7
X317.8Y-61.5
X318.3Y-63.7
X318.579Y-42.51
X318.6Y-46.4
X318.74Y-65.961
X318.85Y-62.941
X319.0Y-33.8
X319.0Y-36.1
X319.3Y-54.9
X319.3Y-65.39
X319.4Y-42.5
X319.4Y-46.6
X319.4Y-49.0
X319.4Y-49.8
X319.444Y-33.134
X319.7Y-62.1
X319.8Y-36.1
X320.1Y-27.1
X320.192Y-46.487
X320.4Y-61.7
X320.564Y-66.564
X320.779Y-67.335
X322.1Y-46.6
X322.9Y-46.6
X323.2Y-39.5
X323.6Y-56.8
X323.7Y-38.875
X323.9Y-46.7
X324.5Y-38.2
X324.807Y-46.691
X325.017Y-38.81
X325.6Y-46.8
X325.9Y-61.375
X325.912Y-62.175
X326.808Y-43.087
X327.6Y-34.9
X327.6Y-43.2
X328.1Y-44.7
X328.1Y-62.3
X328.1Y-63.1
X328.89Y-44.571
X329.5Y-29.1
X330.393Y-45.44
X330.488Y-46.234
X330.8Y-38.4
X331.0Y-27.9
X331.2Y-46.6
X331.4Y-50.6
X331.466Y-38.844
X331.849Y-51.262
X331.9Y-46.01
X332.7Y-47.9
X332.9Y-50.0
X333.0Y-49.2
X333.333Y-52.167
X333.617Y-47.883
X333.7Y-52.9
X333.9Y-23.3
X334.2Y-67.2
X334.4Y-51.19
X334.828Y-52.912
X335.155Y-51.454
X335.693Y-52.81
X336.267Y-47.833
X337.083Y-48.22
X337.194Y-45.82
X337.243Y-57.516
X337.4Y-58.3
X337.6Y-46.51
X337.8Y-56.917
X339.2Y-61.7
X341.1Y-64.0
X341.8Y-55.7
X341.9Y-63.375
X345.0Y-53.1
X345.1Y-51.51
X345.6Y-55.7
X345.8Y-53.0
X345.9Y-51.5
X346.369Y-55.31
X346.588Y-62.286
X347.0Y-61.6
X347.8Y-54.675
X348.3Y-55.3
X348.561Y-52.69
X349.188Y-53.186
X349.5Y-55.3
X349.815Y-52.688
X350.012Y-54.685
X350.1Y-60.1
X350.511Y-55.311
X351.5Y-43.1
X351.5Y-56.11
X351.944Y-42.434
X352.0Y-49.2
X352.4Y-56.0
X352.5Y-53.3
X352.8Y-49.2
X352.833Y-55.289
X353.2Y-56.0
X353.45Y-53.35
X353.6Y-49.2
X353.61Y-59.0
X354.2Y-58.4
X354.3Y-53.2
X354.4Y-49.293
X354.406Y-42.424
X354.6Y-43.2
X355.2Y-49.2
X355.4Y-43.2
X355.799Y-56.501
X355.9Y-49.883
X356.326Y-55.9
X356.417Y-49.272
X356.9Y-42.2
X356.941Y-42.999
X357.153Y-41.441
X360.4Y-55.9
X361.4Y-52.69
X361.72Y-51.451
X362.187Y-52.101
X362.3Y-50.9
X362.5Y-39.3
X362.972Y-56.162
X363.259Y-39.553
X363.284Y-56.899
X363.971Y-55.959
X363.99Y-55.144
X364.583Y-56.475
X364.6Y-54.49
X366.6Y-56.4
X367.4Y-56.6
X369.9Y-28.2
X370.115Y-56.91
X370.3Y-33.0
X370.7Y-51.8
X370.7Y-53.9
X370.913Y-56.7
X371.5Y-53.6
X371.7Y-52.0
X373.0Y-45.3
X373.4Y-42.0
X373.6Y-36.1
X373.6Y-45.9
X373.665Y-44.378
X373.789Y-45.168
X373.8Y-42.9
X374.0Y-36.8
X374.2Y-41.7
X374.3Y-33.4
X374.378Y-43.514
X374.578Y-44.289
X374.8Y-27.3
X375.0Y-33.9
X375.0Y-38.1
X375.05Y-41.75
X375.7Y-41.2
X375.8Y-34.5
X376.577Y-34.857
X377.0Y-56.9
X377.1Y-20.8
X377.4Y-31.3
X377.5Y-68.565
X377.571Y-36.899
X377.6Y-36.1
X378.2Y-56.5
X378.3Y-69.04
X378.327Y-46.906
X378.6Y-51.92
X378.7Y-43.0
X378.731Y-39.12
X378.9Y-44.5
X379.1Y-22.7
X379.1Y-46.7
X379.5Y-38.9
X379.5Y-43.0
X379.5Y-43.8
X379.7Y-47.2
X380.083Y-49.81
X380.385Y-45.2
X380.385Y-46.7
X380.6Y-49.2
X381.2Y-45.3
X381.4Y-46.7
X381.6Y-51.5
X381.7Y-52.8
X381.7Y-53.6
X381.99Y-38.933
X382.1Y-27.8
X382.2Y-45.2
X382.2Y-46.7
X382.5Y-31.2
X382.791Y-39.311
X382.904Y-42.096
X383.0Y-45.2
X383.056Y-40.066
X383.1Y-41.3
X383.2Y-43.7
X383.7Y-43.0
X383.7Y-51.8
X383.7Y-52.6
X383.832Y-42.211
X384.05Y-40.71
X385.0Y-23.4
X385.1Y-46.2
X385.7Y-50.2
X385.92Y-49.431
X386.3Y-64.2
X387.1Y-64.3
X388.6Y-54.4
X389.29Y-54.987
X389.417Y-63.817
X390.1Y-63.4
X390.795Y-63.82
X391.508Y-63.458
X391.52Y-65.2
X392.13Y-64.683
X392.306Y-67.931
X392.6Y-68.675
X393.316Y-69.033
X403.2Y-42.2
X403.916Y-41.842
X405.68Y-44.631
X405.9Y-45.4
X411.3Y-31.4
X411.408Y-41.187
X411.43Y-44.07
X412.2Y-41.3
X412.25Y-43.28
X412.7Y-50.0
X412.9Y-51.9
X413.26Y-45.92
X413.7Y-50.0
X413.7Y-51.9
X414.07Y-45.09
X414.6Y-41.4
X415.286Y-40.988
X415.4Y-35.6
X415.4Y-36.4
X415.4Y-37.2
X415.76Y-46.767
X415.91Y-45.89
X416.009Y-44.025
X416.4Y-47.5
X417.7Y-47.4
X418.4Y-46.0
X418.5Y-43.6
X418.5Y-44.4
X418.5Y-45.2
X418.8Y-47.25
X419.365Y-43.545
X419.472Y-49.589
X420.3Y-49.5
X420.4Y-46.7
X420.7Y-57.5
X421.2Y-58.125
X421.8Y-50.1
X422.0Y-42.5
X422.0Y-43.2
X422.4Y-27.4
X423.8Y-62.1
X424.243Y-42.7
X424.243Y-43.593
X424.6Y-62.1
X425.09Y-22.8
X426.8Y-43.5
X426.8Y-45.5
X427.5Y-54.1
X427.5Y-54.9
T3
X101.443Y-45.69
X101.443Y-46.99
X101.443Y-48.29
X102.743Y-45.69
X102.743Y-46.99
X102.743Y-48.29
X368.35Y-47.49
X368.35Y-48.89
X369.05Y-46.79
X369.05Y-48.19
X369.05Y-49.59
X369.75Y-47.49
X369.75Y-48.89
X370.45Y-46.79
X370.45Y-48.19
X370.45Y-49.59
X371.15Y-47.49
X371.15Y-48.89
T6
X70.0Y-41.25
X70.0Y-43.75
X70.0Y-46.25
X70.0Y-48.75
X70.0Y-55.0
X70.0Y-57.5
X70.0Y-60.0
X70.0Y-62.5
X173.0Y-45.0
X173.0Y-47.5
X173.0Y-50.0
X223.0Y-46.5
X223.0Y-49.0
X223.0Y-51.5
X223.0Y-54.0
X223.0Y-56.5
X223.0Y-59.0
X223.0Y-61.5
X223.0Y-64.0
X274.4Y-47.6
X274.4Y-50.1
T7
X76.19Y-46.73
X76.19Y-49.27
X83.81Y-46.73
X83.81Y-49.27
X256.34Y-39.86
X256.34Y-42.4
X258.88Y-39.86
X258.88Y-42.4
X261.42Y-39.86
X261.42Y-42.4
X263.96Y-39.86
X263.96Y-42.4
X266.5Y-39.86
X266.5Y-42.4
X330.36Y-65.4
X330.36Y-67.94
X332.9Y-65.4
X332.9Y-67.94
X335.44Y-65.4
X335.44Y-67.94
X380.86Y-65.66
X380.86Y-68.2
X383.4Y-65.66
X383.4Y-68.2
X385.94Y-65.66
X385.94Y-68.2
X388.48Y-65.66
X388.48Y-68.2
X417.4Y-51.9
X417.4Y-54.44
T8
X54.0Y-34.0
X57.0Y-34.0
X60.0Y-34.0
X108.458Y-31.496
X108.458Y-34.496
X108.458Y-37.496
X159.59Y-31.5
X159.59Y-34.5
X159.59Y-37.5
X207.27Y-34.0
X210.27Y-34.0
X213.27Y-34.0
X258.36Y-34.0
X261.36Y-34.0
X264.36Y-34.0
X309.45Y-34.0
X312.45Y-34.0
X315.45Y-34.0
X359.8Y-33.1
X362.8Y-33.1
X365.8Y-33.1
X411.63Y-34.0
X414.63Y-34.0
X417.63Y-34.0
T9
X25.67Y-59.0
X37.47Y-39.47
X64.01Y-23.7
X76.76Y-59.0
X88.56Y-39.47
X115.1Y-23.7
X127.85Y-59.0
X139.65Y-39.47
X166.19Y-23.7
X178.94Y-59.0
X190.74Y-39.47
X217.28Y-23.7
X230.03Y-59.0
X241.83Y-39.47
X268.37Y-23.7
X281.12Y-59.0
X292.92Y-39.47
X319.46Y-23.7
X332.21Y-59.0
X344.01Y-39.47
X370.55Y-23.7
X383.3Y-59.0
X395.1Y-39.47
X421.64Y-23.7
T10
X30.97Y-36.26
X43.97Y-36.26
X82.06Y-36.26
X95.06Y-36.26
X133.15Y-36.26
X146.15Y-36.26
X184.24Y-36.26
X197.24Y-36.26
X235.33Y-36.26
X248.33Y-36.26
X286.42Y-36.26
X299.42Y-36.26
X337.51Y-36.26
X350.51Y-36.26
X388.6Y-36.26
X401.6Y-36.26
T4
X425.425Y-41.0G85X426.075Y-41.0
G05
X425.425Y-48.05G85X426.075Y-48.05
G05
T5
X423.05Y-42.175G85X423.05Y-41.875
G05
X423.05Y-47.175G85X423.05Y-46.875
G05
M30
