%TF.GenerationSoftware,KiCad,Pcbnew,8.0.1-8.0.1-1~ubuntu22.04.1*%
%TF.CreationDate,2024-04-25T17:15:55+02:00*%
%TF.ProjectId,Partial_Drawer_Controller_v1,50617274-6961-46c5-9f44-72617765725f,rev?*%
%TF.SameCoordinates,Original*%
%TF.FileFunction,Paste,Top*%
%TF.FilePolarity,Positive*%
%FSLAX46Y46*%
G04 Gerber Fmt 4.6, Leading zero omitted, Abs format (unit mm)*
G04 Created by KiCad (PCBNEW 8.0.1-8.0.1-1~ubuntu22.04.1) date 2024-04-25 17:15:55*
%MOMM*%
%LPD*%
G01*
G04 APERTURE LIST*
G04 Aperture macros list*
%AMRoundRect*
0 Rectangle with rounded corners*
0 $1 Rounding radius*
0 $2 $3 $4 $5 $6 $7 $8 $9 X,Y pos of 4 corners*
0 Add a 4 corners polygon primitive as box body*
4,1,4,$2,$3,$4,$5,$6,$7,$8,$9,$2,$3,0*
0 Add four circle primitives for the rounded corners*
1,1,$1+$1,$2,$3*
1,1,$1+$1,$4,$5*
1,1,$1+$1,$6,$7*
1,1,$1+$1,$8,$9*
0 Add four rect primitives between the rounded corners*
20,1,$1+$1,$2,$3,$4,$5,0*
20,1,$1+$1,$4,$5,$6,$7,0*
20,1,$1+$1,$6,$7,$8,$9,0*
20,1,$1+$1,$8,$9,$2,$3,0*%
%AMFreePoly0*
4,1,5,0.625000,-0.750000,-0.625000,-0.750000,-0.625000,0.750000,0.625000,0.750000,0.625000,-0.750000,0.625000,-0.750000,$1*%
G04 Aperture macros list end*
%ADD10C,0.010000*%
%ADD11RoundRect,0.135000X-0.135000X-0.185000X0.135000X-0.185000X0.135000X0.185000X-0.135000X0.185000X0*%
%ADD12RoundRect,0.225000X-0.225000X-0.250000X0.225000X-0.250000X0.225000X0.250000X-0.225000X0.250000X0*%
%ADD13RoundRect,0.250000X-0.650000X0.325000X-0.650000X-0.325000X0.650000X-0.325000X0.650000X0.325000X0*%
%ADD14RoundRect,0.250000X-0.325000X-0.650000X0.325000X-0.650000X0.325000X0.650000X-0.325000X0.650000X0*%
%ADD15RoundRect,0.100000X0.100000X-0.637500X0.100000X0.637500X-0.100000X0.637500X-0.100000X-0.637500X0*%
%ADD16RoundRect,0.150000X-0.150000X0.587500X-0.150000X-0.587500X0.150000X-0.587500X0.150000X0.587500X0*%
%ADD17RoundRect,0.250000X0.325000X0.650000X-0.325000X0.650000X-0.325000X-0.650000X0.325000X-0.650000X0*%
%ADD18RoundRect,0.135000X0.185000X-0.135000X0.185000X0.135000X-0.185000X0.135000X-0.185000X-0.135000X0*%
%ADD19RoundRect,0.135000X-0.185000X0.135000X-0.185000X-0.135000X0.185000X-0.135000X0.185000X0.135000X0*%
%ADD20RoundRect,0.250000X0.650000X-0.325000X0.650000X0.325000X-0.650000X0.325000X-0.650000X-0.325000X0*%
%ADD21RoundRect,0.150000X0.587500X0.150000X-0.587500X0.150000X-0.587500X-0.150000X0.587500X-0.150000X0*%
%ADD22RoundRect,0.140000X0.140000X0.170000X-0.140000X0.170000X-0.140000X-0.170000X0.140000X-0.170000X0*%
%ADD23RoundRect,0.100000X0.100000X-0.155000X0.100000X0.155000X-0.100000X0.155000X-0.100000X-0.155000X0*%
%ADD24RoundRect,0.140000X-0.170000X0.140000X-0.170000X-0.140000X0.170000X-0.140000X0.170000X0.140000X0*%
%ADD25RoundRect,0.150000X0.200000X-0.150000X0.200000X0.150000X-0.200000X0.150000X-0.200000X-0.150000X0*%
%ADD26RoundRect,0.140000X-0.140000X-0.170000X0.140000X-0.170000X0.140000X0.170000X-0.140000X0.170000X0*%
%ADD27R,3.100000X1.700000*%
%ADD28RoundRect,0.243750X-0.456250X0.243750X-0.456250X-0.243750X0.456250X-0.243750X0.456250X0.243750X0*%
%ADD29RoundRect,0.150000X0.825000X0.150000X-0.825000X0.150000X-0.825000X-0.150000X0.825000X-0.150000X0*%
%ADD30R,1.350000X0.400000*%
%ADD31FreePoly0,90.000000*%
%ADD32R,1.550000X1.500000*%
%ADD33RoundRect,0.222500X-0.297500X-0.222500X0.297500X-0.222500X0.297500X0.222500X-0.297500X0.222500X0*%
%ADD34RoundRect,0.150000X-0.737500X-0.150000X0.737500X-0.150000X0.737500X0.150000X-0.737500X0.150000X0*%
%ADD35RoundRect,0.135000X0.135000X0.185000X-0.135000X0.185000X-0.135000X-0.185000X0.135000X-0.185000X0*%
%ADD36RoundRect,0.250000X0.650000X-1.000000X0.650000X1.000000X-0.650000X1.000000X-0.650000X-1.000000X0*%
%ADD37RoundRect,0.150000X-0.587500X-0.150000X0.587500X-0.150000X0.587500X0.150000X-0.587500X0.150000X0*%
%ADD38RoundRect,0.140000X0.170000X-0.140000X0.170000X0.140000X-0.170000X0.140000X-0.170000X-0.140000X0*%
%ADD39RoundRect,0.100000X-0.100000X0.155000X-0.100000X-0.155000X0.100000X-0.155000X0.100000X0.155000X0*%
%ADD40RoundRect,0.200000X-0.200000X-0.275000X0.200000X-0.275000X0.200000X0.275000X-0.200000X0.275000X0*%
%ADD41R,1.000000X0.750000*%
%ADD42RoundRect,0.218750X0.218750X0.256250X-0.218750X0.256250X-0.218750X-0.256250X0.218750X-0.256250X0*%
%ADD43RoundRect,0.250000X-0.475000X0.250000X-0.475000X-0.250000X0.475000X-0.250000X0.475000X0.250000X0*%
%ADD44RoundRect,0.200000X-0.275000X0.200000X-0.275000X-0.200000X0.275000X-0.200000X0.275000X0.200000X0*%
%ADD45RoundRect,0.725000X0.725000X-1.975000X0.725000X1.975000X-0.725000X1.975000X-0.725000X-1.975000X0*%
%ADD46RoundRect,0.350000X-1.950000X-0.350000X1.950000X-0.350000X1.950000X0.350000X-1.950000X0.350000X0*%
%ADD47RoundRect,0.250000X0.475000X-0.250000X0.475000X0.250000X-0.475000X0.250000X-0.475000X-0.250000X0*%
%ADD48RoundRect,0.250000X-0.300000X0.300000X-0.300000X-0.300000X0.300000X-0.300000X0.300000X0.300000X0*%
%ADD49RoundRect,0.375000X-0.375000X0.625000X-0.375000X-0.625000X0.375000X-0.625000X0.375000X0.625000X0*%
%ADD50RoundRect,0.500000X-1.400000X0.500000X-1.400000X-0.500000X1.400000X-0.500000X1.400000X0.500000X0*%
%ADD51RoundRect,0.225000X-0.250000X0.225000X-0.250000X-0.225000X0.250000X-0.225000X0.250000X0.225000X0*%
%ADD52R,3.810000X4.241800*%
%ADD53RoundRect,0.200000X0.275000X-0.200000X0.275000X0.200000X-0.275000X0.200000X-0.275000X-0.200000X0*%
%ADD54RoundRect,0.150000X-0.200000X0.150000X-0.200000X-0.150000X0.200000X-0.150000X0.200000X0.150000X0*%
%ADD55RoundRect,0.200000X0.200000X0.275000X-0.200000X0.275000X-0.200000X-0.275000X0.200000X-0.275000X0*%
%ADD56R,1.500000X0.900000*%
%ADD57R,0.900000X1.500000*%
%ADD58R,0.900000X0.900000*%
%ADD59RoundRect,0.218750X-0.218750X-0.256250X0.218750X-0.256250X0.218750X0.256250X-0.218750X0.256250X0*%
G04 APERTURE END LIST*
D10*
%TO.C,X1*%
X426051000Y-40581000D02*
X426077000Y-40583000D01*
X426103000Y-40586000D01*
X426129000Y-40591000D01*
X426154000Y-40597000D01*
X426180000Y-40604000D01*
X426204000Y-40613000D01*
X426228000Y-40623000D01*
X426252000Y-40634000D01*
X426275000Y-40647000D01*
X426297000Y-40661000D01*
X426319000Y-40675000D01*
X426340000Y-40691000D01*
X426360000Y-40708000D01*
X426379000Y-40726000D01*
X426397000Y-40745000D01*
X426414000Y-40765000D01*
X426430000Y-40786000D01*
X426444000Y-40808000D01*
X426458000Y-40830000D01*
X426471000Y-40853000D01*
X426482000Y-40877000D01*
X426492000Y-40901000D01*
X426501000Y-40925000D01*
X426508000Y-40951000D01*
X426514000Y-40976000D01*
X426519000Y-41002000D01*
X426522000Y-41028000D01*
X426524000Y-41054000D01*
X426525000Y-41080000D01*
X426525000Y-42225000D01*
X424975000Y-42225000D01*
X424975000Y-41080000D01*
X424976000Y-41054000D01*
X424978000Y-41028000D01*
X424981000Y-41002000D01*
X424986000Y-40976000D01*
X424992000Y-40951000D01*
X424999000Y-40925000D01*
X425008000Y-40901000D01*
X425018000Y-40877000D01*
X425029000Y-40853000D01*
X425042000Y-40830000D01*
X425056000Y-40808000D01*
X425070000Y-40786000D01*
X425086000Y-40765000D01*
X425103000Y-40745000D01*
X425121000Y-40726000D01*
X425140000Y-40708000D01*
X425160000Y-40691000D01*
X425181000Y-40675000D01*
X425203000Y-40661000D01*
X425225000Y-40647000D01*
X425248000Y-40634000D01*
X425272000Y-40623000D01*
X425296000Y-40613000D01*
X425320000Y-40604000D01*
X425346000Y-40597000D01*
X425371000Y-40591000D01*
X425397000Y-40586000D01*
X425423000Y-40583000D01*
X425449000Y-40581000D01*
X425475000Y-40580000D01*
X426025000Y-40580000D01*
X426051000Y-40581000D01*
G36*
X426051000Y-40581000D02*
G01*
X426077000Y-40583000D01*
X426103000Y-40586000D01*
X426129000Y-40591000D01*
X426154000Y-40597000D01*
X426180000Y-40604000D01*
X426204000Y-40613000D01*
X426228000Y-40623000D01*
X426252000Y-40634000D01*
X426275000Y-40647000D01*
X426297000Y-40661000D01*
X426319000Y-40675000D01*
X426340000Y-40691000D01*
X426360000Y-40708000D01*
X426379000Y-40726000D01*
X426397000Y-40745000D01*
X426414000Y-40765000D01*
X426430000Y-40786000D01*
X426444000Y-40808000D01*
X426458000Y-40830000D01*
X426471000Y-40853000D01*
X426482000Y-40877000D01*
X426492000Y-40901000D01*
X426501000Y-40925000D01*
X426508000Y-40951000D01*
X426514000Y-40976000D01*
X426519000Y-41002000D01*
X426522000Y-41028000D01*
X426524000Y-41054000D01*
X426525000Y-41080000D01*
X426525000Y-42225000D01*
X424975000Y-42225000D01*
X424975000Y-41080000D01*
X424976000Y-41054000D01*
X424978000Y-41028000D01*
X424981000Y-41002000D01*
X424986000Y-40976000D01*
X424992000Y-40951000D01*
X424999000Y-40925000D01*
X425008000Y-40901000D01*
X425018000Y-40877000D01*
X425029000Y-40853000D01*
X425042000Y-40830000D01*
X425056000Y-40808000D01*
X425070000Y-40786000D01*
X425086000Y-40765000D01*
X425103000Y-40745000D01*
X425121000Y-40726000D01*
X425140000Y-40708000D01*
X425160000Y-40691000D01*
X425181000Y-40675000D01*
X425203000Y-40661000D01*
X425225000Y-40647000D01*
X425248000Y-40634000D01*
X425272000Y-40623000D01*
X425296000Y-40613000D01*
X425320000Y-40604000D01*
X425346000Y-40597000D01*
X425371000Y-40591000D01*
X425397000Y-40586000D01*
X425423000Y-40583000D01*
X425449000Y-40581000D01*
X425475000Y-40580000D01*
X426025000Y-40580000D01*
X426051000Y-40581000D01*
G37*
X426525000Y-47970000D02*
X426524000Y-47996000D01*
X426522000Y-48022000D01*
X426519000Y-48048000D01*
X426514000Y-48074000D01*
X426508000Y-48099000D01*
X426501000Y-48125000D01*
X426492000Y-48149000D01*
X426482000Y-48173000D01*
X426471000Y-48197000D01*
X426458000Y-48220000D01*
X426444000Y-48242000D01*
X426430000Y-48264000D01*
X426414000Y-48285000D01*
X426397000Y-48305000D01*
X426379000Y-48324000D01*
X426360000Y-48342000D01*
X426340000Y-48359000D01*
X426319000Y-48375000D01*
X426297000Y-48389000D01*
X426275000Y-48403000D01*
X426252000Y-48416000D01*
X426228000Y-48427000D01*
X426204000Y-48437000D01*
X426180000Y-48446000D01*
X426154000Y-48453000D01*
X426129000Y-48459000D01*
X426103000Y-48464000D01*
X426077000Y-48467000D01*
X426051000Y-48469000D01*
X426025000Y-48470000D01*
X425475000Y-48470000D01*
X425449000Y-48469000D01*
X425423000Y-48467000D01*
X425397000Y-48464000D01*
X425371000Y-48459000D01*
X425346000Y-48453000D01*
X425320000Y-48446000D01*
X425296000Y-48437000D01*
X425272000Y-48427000D01*
X425248000Y-48416000D01*
X425225000Y-48403000D01*
X425203000Y-48389000D01*
X425181000Y-48375000D01*
X425160000Y-48359000D01*
X425140000Y-48342000D01*
X425121000Y-48324000D01*
X425103000Y-48305000D01*
X425086000Y-48285000D01*
X425070000Y-48264000D01*
X425056000Y-48242000D01*
X425042000Y-48220000D01*
X425029000Y-48197000D01*
X425018000Y-48173000D01*
X425008000Y-48149000D01*
X424999000Y-48125000D01*
X424992000Y-48099000D01*
X424986000Y-48074000D01*
X424981000Y-48048000D01*
X424978000Y-48022000D01*
X424976000Y-47996000D01*
X424975000Y-47970000D01*
X424975000Y-46825000D01*
X426525000Y-46825000D01*
X426525000Y-47970000D01*
G36*
X426525000Y-47970000D02*
G01*
X426524000Y-47996000D01*
X426522000Y-48022000D01*
X426519000Y-48048000D01*
X426514000Y-48074000D01*
X426508000Y-48099000D01*
X426501000Y-48125000D01*
X426492000Y-48149000D01*
X426482000Y-48173000D01*
X426471000Y-48197000D01*
X426458000Y-48220000D01*
X426444000Y-48242000D01*
X426430000Y-48264000D01*
X426414000Y-48285000D01*
X426397000Y-48305000D01*
X426379000Y-48324000D01*
X426360000Y-48342000D01*
X426340000Y-48359000D01*
X426319000Y-48375000D01*
X426297000Y-48389000D01*
X426275000Y-48403000D01*
X426252000Y-48416000D01*
X426228000Y-48427000D01*
X426204000Y-48437000D01*
X426180000Y-48446000D01*
X426154000Y-48453000D01*
X426129000Y-48459000D01*
X426103000Y-48464000D01*
X426077000Y-48467000D01*
X426051000Y-48469000D01*
X426025000Y-48470000D01*
X425475000Y-48470000D01*
X425449000Y-48469000D01*
X425423000Y-48467000D01*
X425397000Y-48464000D01*
X425371000Y-48459000D01*
X425346000Y-48453000D01*
X425320000Y-48446000D01*
X425296000Y-48437000D01*
X425272000Y-48427000D01*
X425248000Y-48416000D01*
X425225000Y-48403000D01*
X425203000Y-48389000D01*
X425181000Y-48375000D01*
X425160000Y-48359000D01*
X425140000Y-48342000D01*
X425121000Y-48324000D01*
X425103000Y-48305000D01*
X425086000Y-48285000D01*
X425070000Y-48264000D01*
X425056000Y-48242000D01*
X425042000Y-48220000D01*
X425029000Y-48197000D01*
X425018000Y-48173000D01*
X425008000Y-48149000D01*
X424999000Y-48125000D01*
X424992000Y-48099000D01*
X424986000Y-48074000D01*
X424981000Y-48048000D01*
X424978000Y-48022000D01*
X424976000Y-47996000D01*
X424975000Y-47970000D01*
X424975000Y-46825000D01*
X426525000Y-46825000D01*
X426525000Y-47970000D01*
G37*
%TD*%
D11*
%TO.C,R62*%
X323880000Y-33400000D03*
X324900000Y-33400000D03*
%TD*%
D12*
%TO.C,C2*%
X135496000Y-46482000D03*
X137046000Y-46482000D03*
%TD*%
D13*
%TO.C,C58*%
X126619000Y-40181000D03*
X126619000Y-43131000D03*
%TD*%
D14*
%TO.C,C14*%
X68210000Y-21521000D03*
X71160000Y-21521000D03*
%TD*%
D15*
%TO.C,U5*%
X311400000Y-54925000D03*
X312050000Y-54925000D03*
X312700000Y-54925000D03*
X313350000Y-54925000D03*
X314000000Y-54925000D03*
X314650000Y-54925000D03*
X315300000Y-54925000D03*
X315950000Y-54925000D03*
X316600000Y-54925000D03*
X317250000Y-54925000D03*
X317900000Y-54925000D03*
X318550000Y-54925000D03*
X318550000Y-49200000D03*
X317900000Y-49200000D03*
X317250000Y-49200000D03*
X316600000Y-49200000D03*
X315950000Y-49200000D03*
X315300000Y-49200000D03*
X314650000Y-49200000D03*
X314000000Y-49200000D03*
X313350000Y-49200000D03*
X312700000Y-49200000D03*
X312050000Y-49200000D03*
X311400000Y-49200000D03*
%TD*%
D13*
%TO.C,C4*%
X97100000Y-48925000D03*
X97100000Y-51875000D03*
%TD*%
D16*
%TO.C,Q36*%
X417150000Y-28025000D03*
X415250000Y-28025000D03*
X416200000Y-29900000D03*
%TD*%
D17*
%TO.C,C42*%
X323250000Y-31700000D03*
X320300000Y-31700000D03*
%TD*%
D18*
%TO.C,R85*%
X227525000Y-31250000D03*
X227525000Y-30230000D03*
%TD*%
D16*
%TO.C,Q29*%
X382050000Y-22725000D03*
X380150000Y-22725000D03*
X381100000Y-24600000D03*
%TD*%
D19*
%TO.C,R11*%
X74000000Y-45980000D03*
X74000000Y-47000000D03*
%TD*%
D20*
%TO.C,C8*%
X124968000Y-47830000D03*
X124968000Y-44880000D03*
%TD*%
D21*
%TO.C,Q32*%
X364037500Y-29250000D03*
X364037500Y-27350000D03*
X362162500Y-28300000D03*
%TD*%
D22*
%TO.C,C48*%
X342180000Y-56700000D03*
X341220000Y-56700000D03*
%TD*%
D20*
%TO.C,C38*%
X221000000Y-31375000D03*
X221000000Y-28425000D03*
%TD*%
D18*
%TO.C,R97*%
X209300000Y-39810000D03*
X209300000Y-38790000D03*
%TD*%
D21*
%TO.C,Q35*%
X420875000Y-29800000D03*
X420875000Y-27900000D03*
X419000000Y-28850000D03*
%TD*%
D14*
%TO.C,C16*%
X119515500Y-21579000D03*
X122465500Y-21579000D03*
%TD*%
D19*
%TO.C,R38*%
X123837500Y-21225000D03*
X123837500Y-22245000D03*
%TD*%
D12*
%TO.C,C50*%
X214025000Y-42700000D03*
X215575000Y-42700000D03*
%TD*%
D21*
%TO.C,Q27*%
X318800000Y-29700000D03*
X318800000Y-27800000D03*
X316925000Y-28750000D03*
%TD*%
D14*
%TO.C,C37*%
X151925000Y-40750000D03*
X154875000Y-40750000D03*
%TD*%
D23*
%TO.C,Q2*%
X419800000Y-43010000D03*
X418800000Y-43010000D03*
X419300000Y-44300000D03*
%TD*%
D21*
%TO.C,Q21*%
X275225000Y-35925000D03*
X275225000Y-34025000D03*
X273350000Y-34975000D03*
%TD*%
D24*
%TO.C,C20*%
X370300000Y-33640000D03*
X370300000Y-34600000D03*
%TD*%
D11*
%TO.C,R29*%
X22223000Y-30734000D03*
X23243000Y-30734000D03*
%TD*%
D25*
%TO.C,F11*%
X177800000Y-28500000D03*
X177800000Y-29900000D03*
%TD*%
D26*
%TO.C,C32*%
X176620000Y-27000000D03*
X177580000Y-27000000D03*
%TD*%
D21*
%TO.C,Q14*%
X172300000Y-26810000D03*
X172300000Y-24910000D03*
X170425000Y-25860000D03*
%TD*%
D27*
%TO.C,S10*%
X385030000Y-30200000D03*
X385030000Y-24800000D03*
%TD*%
D21*
%TO.C,Q34*%
X424437500Y-34050000D03*
X424437500Y-32150000D03*
X422562500Y-33100000D03*
%TD*%
D24*
%TO.C,C65*%
X236982000Y-57912000D03*
X236982000Y-58872000D03*
%TD*%
D15*
%TO.C,U19*%
X163700000Y-62400000D03*
X164350000Y-62400000D03*
X165000000Y-62400000D03*
X165650000Y-62400000D03*
X166300000Y-62400000D03*
X166950000Y-62400000D03*
X167600000Y-62400000D03*
X168250000Y-62400000D03*
X168900000Y-62400000D03*
X169550000Y-62400000D03*
X170200000Y-62400000D03*
X170850000Y-62400000D03*
X170850000Y-56675000D03*
X170200000Y-56675000D03*
X169550000Y-56675000D03*
X168900000Y-56675000D03*
X168250000Y-56675000D03*
X167600000Y-56675000D03*
X166950000Y-56675000D03*
X166300000Y-56675000D03*
X165650000Y-56675000D03*
X165000000Y-56675000D03*
X164350000Y-56675000D03*
X163700000Y-56675000D03*
%TD*%
D16*
%TO.C,Q31*%
X372650000Y-28162500D03*
X370750000Y-28162500D03*
X371700000Y-30037500D03*
%TD*%
D21*
%TO.C,Q26*%
X322375000Y-35650000D03*
X322375000Y-33750000D03*
X320500000Y-34700000D03*
%TD*%
D16*
%TO.C,Q24*%
X264000000Y-28037500D03*
X262100000Y-28037500D03*
X263050000Y-29912500D03*
%TD*%
D11*
%TO.C,R74*%
X425890000Y-27100000D03*
X426910000Y-27100000D03*
%TD*%
D20*
%TO.C,C44*%
X377100000Y-24775000D03*
X377100000Y-21825000D03*
%TD*%
D21*
%TO.C,Q1*%
X408200000Y-43500000D03*
X408200000Y-41600000D03*
X406325000Y-42550000D03*
%TD*%
D11*
%TO.C,R53*%
X211550000Y-26500000D03*
X212570000Y-26500000D03*
%TD*%
%TO.C,R42*%
X174690000Y-27000000D03*
X175710000Y-27000000D03*
%TD*%
D21*
%TO.C,Q23*%
X267700000Y-29700000D03*
X267700000Y-27800000D03*
X265825000Y-28750000D03*
%TD*%
D28*
%TO.C,D2*%
X132080000Y-43825000D03*
X132080000Y-45700000D03*
%TD*%
D19*
%TO.C,R72*%
X427400000Y-21100000D03*
X427400000Y-22120000D03*
%TD*%
D29*
%TO.C,U13*%
X243800000Y-63500000D03*
X243800000Y-62230000D03*
X243800000Y-60960000D03*
X243800000Y-59690000D03*
X238850000Y-59690000D03*
X238850000Y-60960000D03*
X238850000Y-62230000D03*
X238850000Y-63500000D03*
%TD*%
D30*
%TO.C,X1*%
X423075000Y-45825000D03*
X423075000Y-45175000D03*
X423075000Y-44525000D03*
X423075000Y-43875000D03*
X423075000Y-43225000D03*
D31*
X425750000Y-47445000D03*
D32*
X425750000Y-45525000D03*
X425750000Y-43525000D03*
D31*
X425750000Y-41605000D03*
%TD*%
D11*
%TO.C,R35*%
X57273000Y-26416000D03*
X58293000Y-26416000D03*
%TD*%
D33*
%TO.C,U2*%
X101493000Y-45960000D03*
X101493000Y-46990000D03*
X101493000Y-48020000D03*
X102693000Y-45960000D03*
X102693000Y-46990000D03*
X102693000Y-48020000D03*
D34*
X99530500Y-45085000D03*
X99530500Y-46355000D03*
X99530500Y-47625000D03*
X99530500Y-48895000D03*
X104655500Y-48895000D03*
X104655500Y-47625000D03*
X104655500Y-46355000D03*
X104655500Y-45085000D03*
%TD*%
D20*
%TO.C,C3*%
X94700000Y-48675000D03*
X94700000Y-45725000D03*
%TD*%
D21*
%TO.C,Q38*%
X207700000Y-40600000D03*
X207700000Y-38700000D03*
X205825000Y-39650000D03*
%TD*%
D35*
%TO.C,R73*%
X426390000Y-22100000D03*
X425370000Y-22100000D03*
%TD*%
D36*
%TO.C,D7*%
X424900000Y-54500000D03*
X424900000Y-50500000D03*
%TD*%
D16*
%TO.C,Q39*%
X206050000Y-42425000D03*
X204150000Y-42425000D03*
X205100000Y-44300000D03*
%TD*%
D11*
%TO.C,R215*%
X210290000Y-38800000D03*
X211310000Y-38800000D03*
%TD*%
D16*
%TO.C,Q15*%
X154800000Y-33100000D03*
X152900000Y-33100000D03*
X153850000Y-34975000D03*
%TD*%
D35*
%TO.C,R46*%
X154920000Y-31500000D03*
X153900000Y-31500000D03*
%TD*%
D19*
%TO.C,R220*%
X310285000Y-53926000D03*
X310285000Y-54946000D03*
%TD*%
D37*
%TO.C,Q16*%
X152750000Y-36800000D03*
X152750000Y-38700000D03*
X154625000Y-37750000D03*
%TD*%
D26*
%TO.C,C31*%
X125603000Y-26797000D03*
X126563000Y-26797000D03*
%TD*%
D11*
%TO.C,R65*%
X313600000Y-26400000D03*
X314620000Y-26400000D03*
%TD*%
D18*
%TO.C,R54*%
X277825000Y-36960000D03*
X277825000Y-35940000D03*
%TD*%
D19*
%TO.C,R39*%
X103632000Y-29591000D03*
X103632000Y-30611000D03*
%TD*%
%TO.C,R13*%
X72900000Y-48240000D03*
X72900000Y-49260000D03*
%TD*%
D11*
%TO.C,R77*%
X415490000Y-26500000D03*
X416510000Y-26500000D03*
%TD*%
D19*
%TO.C,R32*%
X72606000Y-21228000D03*
X72606000Y-22248000D03*
%TD*%
D27*
%TO.C,S9*%
X333940000Y-30200000D03*
X333940000Y-24800000D03*
%TD*%
D35*
%TO.C,R40*%
X103759000Y-31623000D03*
X102739000Y-31623000D03*
%TD*%
D19*
%TO.C,R45*%
X154900000Y-29480000D03*
X154900000Y-30500000D03*
%TD*%
D35*
%TO.C,R96*%
X211310000Y-39800000D03*
X210290000Y-39800000D03*
%TD*%
D18*
%TO.C,R55*%
X276775000Y-35935000D03*
X276775000Y-34915000D03*
%TD*%
D24*
%TO.C,C24*%
X385300000Y-46920000D03*
X385300000Y-47880000D03*
%TD*%
D18*
%TO.C,R64*%
X320400000Y-28900000D03*
X320400000Y-27880000D03*
%TD*%
D20*
%TO.C,C26*%
X380280000Y-54775000D03*
X380280000Y-51825000D03*
%TD*%
D26*
%TO.C,C36*%
X380820000Y-31200000D03*
X381780000Y-31200000D03*
%TD*%
D37*
%TO.C,Q12*%
X101503000Y-36896000D03*
X101503000Y-38796000D03*
X103378000Y-37846000D03*
%TD*%
D19*
%TO.C,R16*%
X409800000Y-43590000D03*
X409800000Y-44610000D03*
%TD*%
D38*
%TO.C,C19*%
X350700000Y-59380000D03*
X350700000Y-58420000D03*
%TD*%
D26*
%TO.C,C23*%
X418840000Y-47800000D03*
X419800000Y-47800000D03*
%TD*%
D15*
%TO.C,U9*%
X294325000Y-61875000D03*
X294975000Y-61875000D03*
X295625000Y-61875000D03*
X296275000Y-61875000D03*
X296925000Y-61875000D03*
X297575000Y-61875000D03*
X298225000Y-61875000D03*
X298875000Y-61875000D03*
X299525000Y-61875000D03*
X300175000Y-61875000D03*
X300825000Y-61875000D03*
X301475000Y-61875000D03*
X301475000Y-56150000D03*
X300825000Y-56150000D03*
X300175000Y-56150000D03*
X299525000Y-56150000D03*
X298875000Y-56150000D03*
X298225000Y-56150000D03*
X297575000Y-56150000D03*
X296925000Y-56150000D03*
X296275000Y-56150000D03*
X295625000Y-56150000D03*
X294975000Y-56150000D03*
X294325000Y-56150000D03*
%TD*%
D18*
%TO.C,R43*%
X177800000Y-24820000D03*
X177800000Y-23800000D03*
%TD*%
D37*
%TO.C,Q37*%
X339700000Y-59000000D03*
X339700000Y-60900000D03*
X341575000Y-59950000D03*
%TD*%
D39*
%TO.C,Q3*%
X418800000Y-46690000D03*
X419800000Y-46690000D03*
X419300000Y-45400000D03*
%TD*%
D16*
%TO.C,Q10*%
X121366500Y-24373000D03*
X119466500Y-24373000D03*
X120416500Y-26248000D03*
%TD*%
D11*
%TO.C,R56*%
X272790000Y-32725000D03*
X273810000Y-32725000D03*
%TD*%
D20*
%TO.C,C10*%
X129794000Y-47830000D03*
X129794000Y-44880000D03*
%TD*%
D21*
%TO.C,Q13*%
X176200000Y-25710000D03*
X176200000Y-23810000D03*
X174325000Y-24760000D03*
%TD*%
D35*
%TO.C,R57*%
X271235000Y-28800000D03*
X270215000Y-28800000D03*
%TD*%
D11*
%TO.C,R22*%
X378480000Y-42100000D03*
X379500000Y-42100000D03*
%TD*%
D38*
%TO.C,C53*%
X293210000Y-56136000D03*
X293210000Y-55176000D03*
%TD*%
D18*
%TO.C,R81*%
X126492000Y-31500000D03*
X126492000Y-30480000D03*
%TD*%
D40*
%TO.C,R228*%
X128524000Y-41656000D03*
X130174000Y-41656000D03*
%TD*%
D18*
%TO.C,R20*%
X378570000Y-53700000D03*
X378570000Y-52680000D03*
%TD*%
D20*
%TO.C,C46*%
X424200000Y-30475000D03*
X424200000Y-27525000D03*
%TD*%
D18*
%TO.C,R60*%
X329000000Y-37700000D03*
X329000000Y-36680000D03*
%TD*%
D41*
%TO.C,S2*%
X378900000Y-45300000D03*
X384900000Y-45300000D03*
X378900000Y-49050000D03*
X384900000Y-49050000D03*
%TD*%
D42*
%TO.C,D1*%
X130099000Y-52705000D03*
X128524000Y-52705000D03*
%TD*%
D43*
%TO.C,C12*%
X106934000Y-47945000D03*
X106934000Y-49845000D03*
%TD*%
D24*
%TO.C,C27*%
X378610000Y-54660000D03*
X378610000Y-55620000D03*
%TD*%
D27*
%TO.C,S6*%
X180670000Y-30200000D03*
X180670000Y-24800000D03*
%TD*%
D18*
%TO.C,R52*%
X217800000Y-28600000D03*
X217800000Y-27580000D03*
%TD*%
D24*
%TO.C,C66*%
X236982000Y-52352000D03*
X236982000Y-53312000D03*
%TD*%
D44*
%TO.C,R1*%
X128524000Y-49531000D03*
X128524000Y-51181000D03*
%TD*%
D45*
%TO.C,L2*%
X109604000Y-47879000D03*
X119504000Y-47879000D03*
%TD*%
D46*
%TO.C,C62*%
X123626000Y-34500000D03*
X114626000Y-34500000D03*
%TD*%
D19*
%TO.C,R82*%
X176500000Y-27990000D03*
X176500000Y-29010000D03*
%TD*%
D27*
%TO.C,S5*%
X129580000Y-30200000D03*
X129580000Y-24800000D03*
%TD*%
D25*
%TO.C,F13*%
X279900000Y-28800000D03*
X279900000Y-30200000D03*
%TD*%
D47*
%TO.C,C13*%
X97282000Y-47244000D03*
X97282000Y-45344000D03*
%TD*%
D18*
%TO.C,R89*%
X329700000Y-31200000D03*
X329700000Y-30180000D03*
%TD*%
D20*
%TO.C,C9*%
X127381000Y-47830000D03*
X127381000Y-44880000D03*
%TD*%
D38*
%TO.C,C72*%
X162600000Y-56680000D03*
X162600000Y-55720000D03*
%TD*%
D18*
%TO.C,R51*%
X217800000Y-30610000D03*
X217800000Y-29590000D03*
%TD*%
D19*
%TO.C,R12*%
X74000000Y-48240000D03*
X74000000Y-49260000D03*
%TD*%
D11*
%TO.C,R30*%
X72116500Y-26875000D03*
X73136500Y-26875000D03*
%TD*%
D44*
%TO.C,R4*%
X103505000Y-50483000D03*
X103505000Y-52133000D03*
%TD*%
D17*
%TO.C,C40*%
X272550000Y-31025000D03*
X269600000Y-31025000D03*
%TD*%
D48*
%TO.C,F2*%
X72136000Y-34414000D03*
X72136000Y-37214000D03*
%TD*%
D21*
%TO.C,Q19*%
X216250000Y-29500000D03*
X216250000Y-27600000D03*
X214375000Y-28550000D03*
%TD*%
D29*
%TO.C,U15*%
X243775000Y-52305000D03*
X243775000Y-51035000D03*
X243775000Y-49765000D03*
X243775000Y-48495000D03*
X238825000Y-48495000D03*
X238825000Y-49765000D03*
X238825000Y-51035000D03*
X238825000Y-52305000D03*
%TD*%
D49*
%TO.C,U1*%
X137047000Y-48666000D03*
X134747000Y-48666000D03*
D50*
X134747000Y-54966000D03*
D49*
X132447000Y-48666000D03*
%TD*%
D46*
%TO.C,C64*%
X174590000Y-34500000D03*
X165590000Y-34500000D03*
%TD*%
D14*
%TO.C,C18*%
X170225000Y-21810000D03*
X173175000Y-21810000D03*
%TD*%
D35*
%TO.C,R238*%
X281180000Y-47371000D03*
X280160000Y-47371000D03*
%TD*%
D18*
%TO.C,R76*%
X422400000Y-28920000D03*
X422400000Y-27900000D03*
%TD*%
D51*
%TO.C,C7*%
X352000000Y-58325000D03*
X352000000Y-59875000D03*
%TD*%
D18*
%TO.C,R70*%
X374100000Y-28300000D03*
X374100000Y-27280000D03*
%TD*%
D19*
%TO.C,R237*%
X279019000Y-46353000D03*
X279019000Y-47373000D03*
%TD*%
D11*
%TO.C,R23*%
X418790000Y-48800000D03*
X419810000Y-48800000D03*
%TD*%
D24*
%TO.C,C21*%
X422600000Y-49400000D03*
X422600000Y-50360000D03*
%TD*%
D29*
%TO.C,U8*%
X348875000Y-60805000D03*
X348875000Y-59535000D03*
X348875000Y-58265000D03*
X348875000Y-56995000D03*
X343925000Y-56995000D03*
X343925000Y-58265000D03*
X343925000Y-59535000D03*
X343925000Y-60805000D03*
%TD*%
D19*
%TO.C,R224*%
X310300000Y-50090000D03*
X310300000Y-51110000D03*
%TD*%
D11*
%TO.C,R59*%
X262965000Y-26500000D03*
X263985000Y-26500000D03*
%TD*%
D17*
%TO.C,C43*%
X311400000Y-29700000D03*
X308450000Y-29700000D03*
%TD*%
%TO.C,C15*%
X55626000Y-29718000D03*
X52676000Y-29718000D03*
%TD*%
D11*
%TO.C,R66*%
X381090000Y-26200000D03*
X382110000Y-26200000D03*
%TD*%
D25*
%TO.C,F9*%
X75565000Y-28829000D03*
X75565000Y-30229000D03*
%TD*%
D29*
%TO.C,U14*%
X243800000Y-57900000D03*
X243800000Y-56630000D03*
X243800000Y-55360000D03*
X243800000Y-54090000D03*
X238850000Y-54090000D03*
X238850000Y-55360000D03*
X238850000Y-56630000D03*
X238850000Y-57900000D03*
%TD*%
D18*
%TO.C,R61*%
X327900000Y-36620000D03*
X327900000Y-35600000D03*
%TD*%
D52*
%TO.C,F1*%
X68072000Y-35587700D03*
X68072000Y-29212300D03*
%TD*%
D16*
%TO.C,Q30*%
X378850000Y-26725000D03*
X376950000Y-26725000D03*
X377900000Y-28600000D03*
%TD*%
D53*
%TO.C,R2*%
X133858000Y-46545000D03*
X133858000Y-44895000D03*
%TD*%
D21*
%TO.C,Q22*%
X271250000Y-34950000D03*
X271250000Y-33050000D03*
X269375000Y-34000000D03*
%TD*%
D13*
%TO.C,C29*%
X417000000Y-45975000D03*
X417000000Y-48925000D03*
%TD*%
D26*
%TO.C,C33*%
X225520000Y-29225000D03*
X226480000Y-29225000D03*
%TD*%
D19*
%TO.C,R91*%
X380800000Y-29100000D03*
X380800000Y-30120000D03*
%TD*%
D11*
%TO.C,R84*%
X225515000Y-30275000D03*
X226535000Y-30275000D03*
%TD*%
D18*
%TO.C,R58*%
X269250000Y-28820000D03*
X269250000Y-27800000D03*
%TD*%
%TO.C,R28*%
X23241000Y-32770000D03*
X23241000Y-31750000D03*
%TD*%
D16*
%TO.C,Q11*%
X103759000Y-33177000D03*
X101859000Y-33177000D03*
X102809000Y-35052000D03*
%TD*%
D19*
%TO.C,R9*%
X338100000Y-58990000D03*
X338100000Y-60010000D03*
%TD*%
%TO.C,R10*%
X72900000Y-45980000D03*
X72900000Y-47000000D03*
%TD*%
D16*
%TO.C,Q28*%
X315050000Y-28000000D03*
X313150000Y-28000000D03*
X314100000Y-29875000D03*
%TD*%
D25*
%TO.C,F14*%
X331000000Y-28800000D03*
X331000000Y-30200000D03*
%TD*%
D21*
%TO.C,Q9*%
X125181500Y-25450000D03*
X125181500Y-23550000D03*
X123306500Y-24500000D03*
%TD*%
%TO.C,Q18*%
X220175000Y-35050000D03*
X220175000Y-33150000D03*
X218300000Y-34100000D03*
%TD*%
%TO.C,Q25*%
X326300000Y-36600000D03*
X326300000Y-34700000D03*
X324425000Y-35650000D03*
%TD*%
D54*
%TO.C,F7*%
X421200000Y-46800000D03*
X421200000Y-45400000D03*
%TD*%
D38*
%TO.C,C11*%
X106426000Y-46299000D03*
X106426000Y-45339000D03*
%TD*%
D11*
%TO.C,R67*%
X383380000Y-22800000D03*
X384400000Y-22800000D03*
%TD*%
D19*
%TO.C,R241*%
X162500000Y-61390000D03*
X162500000Y-62410000D03*
%TD*%
D38*
%TO.C,C52*%
X310285000Y-49126000D03*
X310285000Y-48166000D03*
%TD*%
D18*
%TO.C,R83*%
X177600000Y-32020000D03*
X177600000Y-31000000D03*
%TD*%
D25*
%TO.C,F8*%
X24511000Y-29272000D03*
X24511000Y-30672000D03*
%TD*%
D11*
%TO.C,R88*%
X327700000Y-30200000D03*
X328720000Y-30200000D03*
%TD*%
D19*
%TO.C,R71*%
X374000000Y-29290000D03*
X374000000Y-30310000D03*
%TD*%
D35*
%TO.C,R7*%
X100610000Y-50300000D03*
X99590000Y-50300000D03*
%TD*%
D14*
%TO.C,C45*%
X366025000Y-28300000D03*
X368975000Y-28300000D03*
%TD*%
D17*
%TO.C,C41*%
X260400000Y-29725000D03*
X257450000Y-29725000D03*
%TD*%
D19*
%TO.C,R41*%
X101000000Y-30690000D03*
X101000000Y-31710000D03*
%TD*%
D24*
%TO.C,C69*%
X282194000Y-47427000D03*
X282194000Y-48387000D03*
%TD*%
D21*
%TO.C,Q17*%
X224137500Y-36062500D03*
X224137500Y-34162500D03*
X222262500Y-35112500D03*
%TD*%
%TO.C,Q5*%
X408200000Y-47000000D03*
X408200000Y-45100000D03*
X406325000Y-46050000D03*
%TD*%
D18*
%TO.C,R48*%
X226750000Y-37060000D03*
X226750000Y-36040000D03*
%TD*%
D25*
%TO.C,F12*%
X228800000Y-28800000D03*
X228800000Y-30200000D03*
%TD*%
D22*
%TO.C,C30*%
X73280000Y-31100000D03*
X72320000Y-31100000D03*
%TD*%
D53*
%TO.C,R222*%
X357600000Y-50850000D03*
X357600000Y-49200000D03*
%TD*%
D18*
%TO.C,R37*%
X126705500Y-24629000D03*
X126705500Y-23609000D03*
%TD*%
D54*
%TO.C,F3*%
X277241000Y-48771000D03*
X277241000Y-47371000D03*
%TD*%
D18*
%TO.C,R223*%
X293210000Y-62486000D03*
X293210000Y-61466000D03*
%TD*%
D11*
%TO.C,R225*%
X293890000Y-63800000D03*
X294910000Y-63800000D03*
%TD*%
D13*
%TO.C,C5*%
X94700000Y-50425000D03*
X94700000Y-53375000D03*
%TD*%
D19*
%TO.C,R47*%
X152600000Y-30600000D03*
X152600000Y-31620000D03*
%TD*%
%TO.C,R44*%
X174600000Y-21510000D03*
X174600000Y-22530000D03*
%TD*%
D18*
%TO.C,R79*%
X74295000Y-31244000D03*
X74295000Y-30224000D03*
%TD*%
D35*
%TO.C,R63*%
X322400000Y-28900000D03*
X321380000Y-28900000D03*
%TD*%
D55*
%TO.C,R5*%
X341825000Y-62400000D03*
X340175000Y-62400000D03*
%TD*%
D22*
%TO.C,C28*%
X23241000Y-33782000D03*
X22281000Y-33782000D03*
%TD*%
D11*
%TO.C,R8*%
X338290000Y-57700000D03*
X339310000Y-57700000D03*
%TD*%
D35*
%TO.C,R6*%
X107444000Y-51308000D03*
X106424000Y-51308000D03*
%TD*%
D27*
%TO.C,S4*%
X78490000Y-30200000D03*
X78490000Y-24800000D03*
%TD*%
D11*
%TO.C,R36*%
X123590000Y-26800000D03*
X124610000Y-26800000D03*
%TD*%
D56*
%TO.C,U7*%
X377000000Y-55910000D03*
X377000000Y-54640000D03*
X377000000Y-53370000D03*
X377000000Y-52100000D03*
X377000000Y-50830000D03*
X377000000Y-49560000D03*
X377000000Y-48290000D03*
X377000000Y-47020000D03*
X377000000Y-45750000D03*
X377000000Y-44480000D03*
X377000000Y-43210000D03*
X377000000Y-41940000D03*
X377000000Y-40670000D03*
X377000000Y-39400000D03*
D57*
X373965000Y-38150000D03*
X372695000Y-38150000D03*
X371425000Y-38150000D03*
X370155000Y-38150000D03*
X368885000Y-38150000D03*
X367615000Y-38150000D03*
X366345000Y-38150000D03*
X365075000Y-38150000D03*
X363805000Y-38150000D03*
X362535000Y-38150000D03*
D56*
X359500000Y-39400000D03*
X359500000Y-40670000D03*
X359500000Y-41940000D03*
X359500000Y-43210000D03*
X359500000Y-44480000D03*
X359500000Y-45750000D03*
X359500000Y-47020000D03*
X359500000Y-48290000D03*
X359500000Y-49560000D03*
X359500000Y-50830000D03*
X359500000Y-52100000D03*
X359500000Y-53370000D03*
X359500000Y-54640000D03*
X359500000Y-55910000D03*
D58*
X371150000Y-49590000D03*
X371150000Y-48190000D03*
X371150000Y-46790000D03*
X369750000Y-49590000D03*
X369750000Y-48190000D03*
X369750000Y-46790000D03*
X368350000Y-49590000D03*
X368350000Y-48190000D03*
X368350000Y-46790000D03*
%TD*%
D27*
%TO.C,S7*%
X231760000Y-30200000D03*
X231760000Y-24800000D03*
%TD*%
D21*
%TO.C,Q7*%
X63040500Y-30033000D03*
X63040500Y-28133000D03*
X61165500Y-29083000D03*
%TD*%
D20*
%TO.C,C6*%
X122555000Y-47830000D03*
X122555000Y-44880000D03*
%TD*%
D16*
%TO.C,Q8*%
X59309000Y-27940000D03*
X57409000Y-27940000D03*
X58359000Y-29815000D03*
%TD*%
D17*
%TO.C,C39*%
X208975000Y-29775000D03*
X206025000Y-29775000D03*
%TD*%
D25*
%TO.C,F6*%
X421200000Y-42800000D03*
X421200000Y-44200000D03*
%TD*%
D35*
%TO.C,R15*%
X408810000Y-40300000D03*
X407790000Y-40300000D03*
%TD*%
D18*
%TO.C,R98*%
X204300000Y-40910000D03*
X204300000Y-39890000D03*
%TD*%
D59*
%TO.C,D244*%
X128625500Y-43180000D03*
X130200500Y-43180000D03*
%TD*%
D53*
%TO.C,R24*%
X357600000Y-39425000D03*
X357600000Y-37775000D03*
%TD*%
D18*
%TO.C,R49*%
X225700000Y-36035000D03*
X225700000Y-35015000D03*
%TD*%
D19*
%TO.C,R80*%
X125222000Y-27813000D03*
X125222000Y-28833000D03*
%TD*%
%TO.C,R231*%
X357759000Y-42160000D03*
X357759000Y-43180000D03*
%TD*%
D41*
%TO.C,S1*%
X370837500Y-32225000D03*
X376837500Y-32225000D03*
X370837500Y-35975000D03*
X376837500Y-35975000D03*
%TD*%
D44*
%TO.C,R221*%
X357600000Y-52275000D03*
X357600000Y-53925000D03*
%TD*%
D18*
%TO.C,R75*%
X422400000Y-30900000D03*
X422400000Y-29880000D03*
%TD*%
%TO.C,R68*%
X378800000Y-25210000D03*
X378800000Y-24190000D03*
%TD*%
D21*
%TO.C,Q4*%
X73846000Y-25482000D03*
X73846000Y-23582000D03*
X71971000Y-24532000D03*
%TD*%
D18*
%TO.C,R87*%
X278600000Y-31310000D03*
X278600000Y-30290000D03*
%TD*%
D24*
%TO.C,C68*%
X236982000Y-63528000D03*
X236982000Y-64488000D03*
%TD*%
D25*
%TO.C,F10*%
X126619000Y-28002000D03*
X126619000Y-29402000D03*
%TD*%
D18*
%TO.C,R69*%
X375200000Y-29310000D03*
X375200000Y-28290000D03*
%TD*%
D26*
%TO.C,C34*%
X276600000Y-29200000D03*
X277560000Y-29200000D03*
%TD*%
D16*
%TO.C,Q33*%
X427590000Y-23700000D03*
X425690000Y-23700000D03*
X426640000Y-25575000D03*
%TD*%
D18*
%TO.C,R78*%
X73279000Y-30103000D03*
X73279000Y-29083000D03*
%TD*%
D17*
%TO.C,C17*%
X103202000Y-40767000D03*
X100252000Y-40767000D03*
%TD*%
D27*
%TO.C,S3*%
X27400000Y-30200000D03*
X27400000Y-24800000D03*
%TD*%
%TO.C,S8*%
X282850000Y-30200000D03*
X282850000Y-24800000D03*
%TD*%
D16*
%TO.C,Q20*%
X212550000Y-28075000D03*
X210650000Y-28075000D03*
X211600000Y-29950000D03*
%TD*%
D25*
%TO.C,F15*%
X382100000Y-28700000D03*
X382100000Y-30100000D03*
%TD*%
D44*
%TO.C,R3*%
X105029000Y-50483000D03*
X105029000Y-52133000D03*
%TD*%
D11*
%TO.C,R31*%
X74116500Y-26875000D03*
X75136500Y-26875000D03*
%TD*%
%TO.C,R50*%
X221705000Y-32825000D03*
X222725000Y-32825000D03*
%TD*%
D17*
%TO.C,C47*%
X413575000Y-29700000D03*
X410625000Y-29700000D03*
%TD*%
D18*
%TO.C,R90*%
X379800000Y-31210000D03*
X379800000Y-30190000D03*
%TD*%
D54*
%TO.C,F5*%
X421300000Y-49500000D03*
X421300000Y-48100000D03*
%TD*%
D51*
%TO.C,C1*%
X130175000Y-49517000D03*
X130175000Y-51067000D03*
%TD*%
D11*
%TO.C,R86*%
X276600000Y-30300000D03*
X277620000Y-30300000D03*
%TD*%
D26*
%TO.C,C35*%
X327740000Y-29100000D03*
X328700000Y-29100000D03*
%TD*%
D16*
%TO.C,Q6*%
X70000000Y-23800000D03*
X68100000Y-23800000D03*
X69050000Y-25675000D03*
%TD*%
M02*
