%TF.GenerationSoftware,KiCad,Pcbnew,8.0.2-8.0.2-0~ubuntu22.04.1*%
%TF.CreationDate,2024-04-30T16:19:59+02:00*%
%TF.ProjectId,Partial_Drawer_Controller_v1,50617274-6961-46c5-9f44-72617765725f,rev?*%
%TF.SameCoordinates,Original*%
%TF.FileFunction,Soldermask,Top*%
%TF.FilePolarity,Negative*%
%FSLAX46Y46*%
G04 Gerber Fmt 4.6, Leading zero omitted, Abs format (unit mm)*
G04 Created by KiCad (PCBNEW 8.0.2-8.0.2-0~ubuntu22.04.1) date 2024-04-30 16:19:59*
%MOMM*%
%LPD*%
G01*
G04 APERTURE LIST*
G04 Aperture macros list*
%AMRoundRect*
0 Rectangle with rounded corners*
0 $1 Rounding radius*
0 $2 $3 $4 $5 $6 $7 $8 $9 X,Y pos of 4 corners*
0 Add a 4 corners polygon primitive as box body*
4,1,4,$2,$3,$4,$5,$6,$7,$8,$9,$2,$3,0*
0 Add four circle primitives for the rounded corners*
1,1,$1+$1,$2,$3*
1,1,$1+$1,$4,$5*
1,1,$1+$1,$6,$7*
1,1,$1+$1,$8,$9*
0 Add four rect primitives between the rounded corners*
20,1,$1+$1,$2,$3,$4,$5,0*
20,1,$1+$1,$4,$5,$6,$7,0*
20,1,$1+$1,$6,$7,$8,$9,0*
20,1,$1+$1,$8,$9,$2,$3,0*%
%AMFreePoly0*
4,1,17,0.684954,0.832520,0.722008,0.781520,0.727000,0.750000,0.727000,-0.750000,0.707520,-0.809954,0.656520,-0.847008,0.625000,-0.852000,-0.625000,-0.852000,-0.684954,-0.832520,-0.722008,-0.781520,-0.727000,-0.750000,-0.727000,0.750000,-0.707520,0.809954,-0.656520,0.847008,-0.625000,0.852000,0.625000,0.852000,0.684954,0.832520,0.684954,0.832520,$1*%
G04 Aperture macros list end*
%ADD10C,0.010000*%
%ADD11RoundRect,0.135000X-0.135000X-0.185000X0.135000X-0.185000X0.135000X0.185000X-0.135000X0.185000X0*%
%ADD12RoundRect,0.225000X-0.225000X-0.250000X0.225000X-0.250000X0.225000X0.250000X-0.225000X0.250000X0*%
%ADD13RoundRect,0.250000X-0.650000X0.325000X-0.650000X-0.325000X0.650000X-0.325000X0.650000X0.325000X0*%
%ADD14C,3.600000*%
%ADD15C,5.600000*%
%ADD16C,2.600000*%
%ADD17C,3.800000*%
%ADD18RoundRect,0.250000X-0.325000X-0.650000X0.325000X-0.650000X0.325000X0.650000X-0.325000X0.650000X0*%
%ADD19RoundRect,0.100000X0.100000X-0.637500X0.100000X0.637500X-0.100000X0.637500X-0.100000X-0.637500X0*%
%ADD20RoundRect,0.150000X-0.150000X0.587500X-0.150000X-0.587500X0.150000X-0.587500X0.150000X0.587500X0*%
%ADD21RoundRect,0.250000X0.325000X0.650000X-0.325000X0.650000X-0.325000X-0.650000X0.325000X-0.650000X0*%
%ADD22RoundRect,0.135000X0.185000X-0.135000X0.185000X0.135000X-0.185000X0.135000X-0.185000X-0.135000X0*%
%ADD23RoundRect,0.135000X-0.185000X0.135000X-0.185000X-0.135000X0.185000X-0.135000X0.185000X0.135000X0*%
%ADD24RoundRect,0.250000X0.650000X-0.325000X0.650000X0.325000X-0.650000X0.325000X-0.650000X-0.325000X0*%
%ADD25RoundRect,0.150000X0.587500X0.150000X-0.587500X0.150000X-0.587500X-0.150000X0.587500X-0.150000X0*%
%ADD26RoundRect,0.140000X0.140000X0.170000X-0.140000X0.170000X-0.140000X-0.170000X0.140000X-0.170000X0*%
%ADD27C,4.400000*%
%ADD28C,6.150000*%
%ADD29C,6.400000*%
%ADD30R,1.700000X1.700000*%
%ADD31O,1.700000X1.700000*%
%ADD32RoundRect,0.100000X0.100000X-0.155000X0.100000X0.155000X-0.100000X0.155000X-0.100000X-0.155000X0*%
%ADD33RoundRect,0.140000X-0.170000X0.140000X-0.170000X-0.140000X0.170000X-0.140000X0.170000X0.140000X0*%
%ADD34RoundRect,0.150000X0.200000X-0.150000X0.200000X0.150000X-0.200000X0.150000X-0.200000X-0.150000X0*%
%ADD35RoundRect,0.140000X-0.140000X-0.170000X0.140000X-0.170000X0.140000X0.170000X-0.140000X0.170000X0*%
%ADD36R,3.100000X1.700000*%
%ADD37RoundRect,0.243750X-0.456250X0.243750X-0.456250X-0.243750X0.456250X-0.243750X0.456250X0.243750X0*%
%ADD38RoundRect,0.150000X0.825000X0.150000X-0.825000X0.150000X-0.825000X-0.150000X0.825000X-0.150000X0*%
%ADD39RoundRect,0.102000X0.675000X-0.200000X0.675000X0.200000X-0.675000X0.200000X-0.675000X-0.200000X0*%
%ADD40O,1.704000X0.954000*%
%ADD41FreePoly0,90.000000*%
%ADD42O,1.004000X1.784000*%
%ADD43RoundRect,0.102000X0.775000X-0.750000X0.775000X0.750000X-0.775000X0.750000X-0.775000X-0.750000X0*%
%ADD44R,2.400000X3.100000*%
%ADD45RoundRect,0.150000X-0.737500X-0.150000X0.737500X-0.150000X0.737500X0.150000X-0.737500X0.150000X0*%
%ADD46RoundRect,0.135000X0.135000X0.185000X-0.135000X0.185000X-0.135000X-0.185000X0.135000X-0.185000X0*%
%ADD47RoundRect,0.250000X0.650000X-1.000000X0.650000X1.000000X-0.650000X1.000000X-0.650000X-1.000000X0*%
%ADD48O,2.000000X2.800000*%
%ADD49RoundRect,0.250000X-0.725000X0.600000X-0.725000X-0.600000X0.725000X-0.600000X0.725000X0.600000X0*%
%ADD50O,1.950000X1.700000*%
%ADD51RoundRect,0.150000X-0.587500X-0.150000X0.587500X-0.150000X0.587500X0.150000X-0.587500X0.150000X0*%
%ADD52C,1.270000*%
%ADD53RoundRect,0.250001X-0.499999X-0.759999X0.499999X-0.759999X0.499999X0.759999X-0.499999X0.759999X0*%
%ADD54O,1.500000X2.020000*%
%ADD55RoundRect,0.140000X0.170000X-0.140000X0.170000X0.140000X-0.170000X0.140000X-0.170000X-0.140000X0*%
%ADD56RoundRect,0.100000X-0.100000X0.155000X-0.100000X-0.155000X0.100000X-0.155000X0.100000X0.155000X0*%
%ADD57RoundRect,0.200000X-0.200000X-0.275000X0.200000X-0.275000X0.200000X0.275000X-0.200000X0.275000X0*%
%ADD58R,1.000000X0.750000*%
%ADD59RoundRect,0.218750X0.218750X0.256250X-0.218750X0.256250X-0.218750X-0.256250X0.218750X-0.256250X0*%
%ADD60RoundRect,0.250000X-0.475000X0.250000X-0.475000X-0.250000X0.475000X-0.250000X0.475000X0.250000X0*%
%ADD61RoundRect,0.200000X-0.275000X0.200000X-0.275000X-0.200000X0.275000X-0.200000X0.275000X0.200000X0*%
%ADD62RoundRect,0.725000X0.725000X-1.975000X0.725000X1.975000X-0.725000X1.975000X-0.725000X-1.975000X0*%
%ADD63RoundRect,0.350000X-1.950000X-0.350000X1.950000X-0.350000X1.950000X0.350000X-1.950000X0.350000X0*%
%ADD64RoundRect,0.250000X0.475000X-0.250000X0.475000X0.250000X-0.475000X0.250000X-0.475000X-0.250000X0*%
%ADD65RoundRect,0.250000X-0.300000X0.300000X-0.300000X-0.300000X0.300000X-0.300000X0.300000X0.300000X0*%
%ADD66RoundRect,0.375000X-0.375000X0.625000X-0.375000X-0.625000X0.375000X-0.625000X0.375000X0.625000X0*%
%ADD67RoundRect,0.500000X-1.400000X0.500000X-1.400000X-0.500000X1.400000X-0.500000X1.400000X0.500000X0*%
%ADD68RoundRect,0.225000X-0.250000X0.225000X-0.250000X-0.225000X0.250000X-0.225000X0.250000X0.225000X0*%
%ADD69R,3.810000X4.241800*%
%ADD70RoundRect,0.200000X0.275000X-0.200000X0.275000X0.200000X-0.275000X0.200000X-0.275000X-0.200000X0*%
%ADD71RoundRect,0.150000X-0.200000X0.150000X-0.200000X-0.150000X0.200000X-0.150000X0.200000X0.150000X0*%
%ADD72RoundRect,0.250001X-0.759999X0.499999X-0.759999X-0.499999X0.759999X-0.499999X0.759999X0.499999X0*%
%ADD73O,2.020000X1.500000*%
%ADD74RoundRect,0.200000X0.200000X0.275000X-0.200000X0.275000X-0.200000X-0.275000X0.200000X-0.275000X0*%
%ADD75R,1.500000X0.900000*%
%ADD76R,0.900000X1.500000*%
%ADD77R,0.900000X0.900000*%
%ADD78RoundRect,0.218750X-0.218750X-0.256250X0.218750X-0.256250X0.218750X0.256250X-0.218750X0.256250X0*%
%ADD79C,2.000000*%
%ADD80C,0.600000*%
G04 APERTURE END LIST*
D10*
%TO.C,X14*%
X426151000Y-40481000D02*
X426177000Y-40483000D01*
X426203000Y-40486000D01*
X426229000Y-40491000D01*
X426254000Y-40497000D01*
X426280000Y-40504000D01*
X426304000Y-40513000D01*
X426328000Y-40523000D01*
X426352000Y-40534000D01*
X426375000Y-40547000D01*
X426397000Y-40561000D01*
X426419000Y-40575000D01*
X426440000Y-40591000D01*
X426460000Y-40608000D01*
X426479000Y-40626000D01*
X426497000Y-40645000D01*
X426514000Y-40665000D01*
X426530000Y-40686000D01*
X426544000Y-40708000D01*
X426558000Y-40730000D01*
X426571000Y-40753000D01*
X426582000Y-40777000D01*
X426592000Y-40801000D01*
X426601000Y-40825000D01*
X426608000Y-40851000D01*
X426614000Y-40876000D01*
X426619000Y-40902000D01*
X426622000Y-40928000D01*
X426624000Y-40954000D01*
X426625000Y-40980000D01*
X426625000Y-42325000D01*
X424875000Y-42325000D01*
X424875000Y-40980000D01*
X424876000Y-40954000D01*
X424878000Y-40928000D01*
X424881000Y-40902000D01*
X424886000Y-40876000D01*
X424892000Y-40851000D01*
X424899000Y-40825000D01*
X424908000Y-40801000D01*
X424918000Y-40777000D01*
X424929000Y-40753000D01*
X424942000Y-40730000D01*
X424956000Y-40708000D01*
X424970000Y-40686000D01*
X424986000Y-40665000D01*
X425003000Y-40645000D01*
X425021000Y-40626000D01*
X425040000Y-40608000D01*
X425060000Y-40591000D01*
X425081000Y-40575000D01*
X425103000Y-40561000D01*
X425125000Y-40547000D01*
X425148000Y-40534000D01*
X425172000Y-40523000D01*
X425196000Y-40513000D01*
X425220000Y-40504000D01*
X425246000Y-40497000D01*
X425271000Y-40491000D01*
X425297000Y-40486000D01*
X425323000Y-40483000D01*
X425349000Y-40481000D01*
X425375000Y-40480000D01*
X426125000Y-40480000D01*
X426151000Y-40481000D01*
G36*
X426151000Y-40481000D02*
G01*
X426177000Y-40483000D01*
X426203000Y-40486000D01*
X426229000Y-40491000D01*
X426254000Y-40497000D01*
X426280000Y-40504000D01*
X426304000Y-40513000D01*
X426328000Y-40523000D01*
X426352000Y-40534000D01*
X426375000Y-40547000D01*
X426397000Y-40561000D01*
X426419000Y-40575000D01*
X426440000Y-40591000D01*
X426460000Y-40608000D01*
X426479000Y-40626000D01*
X426497000Y-40645000D01*
X426514000Y-40665000D01*
X426530000Y-40686000D01*
X426544000Y-40708000D01*
X426558000Y-40730000D01*
X426571000Y-40753000D01*
X426582000Y-40777000D01*
X426592000Y-40801000D01*
X426601000Y-40825000D01*
X426608000Y-40851000D01*
X426614000Y-40876000D01*
X426619000Y-40902000D01*
X426622000Y-40928000D01*
X426624000Y-40954000D01*
X426625000Y-40980000D01*
X426625000Y-42325000D01*
X424875000Y-42325000D01*
X424875000Y-40980000D01*
X424876000Y-40954000D01*
X424878000Y-40928000D01*
X424881000Y-40902000D01*
X424886000Y-40876000D01*
X424892000Y-40851000D01*
X424899000Y-40825000D01*
X424908000Y-40801000D01*
X424918000Y-40777000D01*
X424929000Y-40753000D01*
X424942000Y-40730000D01*
X424956000Y-40708000D01*
X424970000Y-40686000D01*
X424986000Y-40665000D01*
X425003000Y-40645000D01*
X425021000Y-40626000D01*
X425040000Y-40608000D01*
X425060000Y-40591000D01*
X425081000Y-40575000D01*
X425103000Y-40561000D01*
X425125000Y-40547000D01*
X425148000Y-40534000D01*
X425172000Y-40523000D01*
X425196000Y-40513000D01*
X425220000Y-40504000D01*
X425246000Y-40497000D01*
X425271000Y-40491000D01*
X425297000Y-40486000D01*
X425323000Y-40483000D01*
X425349000Y-40481000D01*
X425375000Y-40480000D01*
X426125000Y-40480000D01*
X426151000Y-40481000D01*
G37*
X426625000Y-48070000D02*
X426624000Y-48096000D01*
X426622000Y-48122000D01*
X426619000Y-48148000D01*
X426614000Y-48174000D01*
X426608000Y-48199000D01*
X426601000Y-48225000D01*
X426592000Y-48249000D01*
X426582000Y-48273000D01*
X426571000Y-48297000D01*
X426558000Y-48320000D01*
X426544000Y-48342000D01*
X426530000Y-48364000D01*
X426514000Y-48385000D01*
X426497000Y-48405000D01*
X426479000Y-48424000D01*
X426460000Y-48442000D01*
X426440000Y-48459000D01*
X426419000Y-48475000D01*
X426397000Y-48489000D01*
X426375000Y-48503000D01*
X426352000Y-48516000D01*
X426328000Y-48527000D01*
X426304000Y-48537000D01*
X426280000Y-48546000D01*
X426254000Y-48553000D01*
X426229000Y-48559000D01*
X426203000Y-48564000D01*
X426177000Y-48567000D01*
X426151000Y-48569000D01*
X426125000Y-48570000D01*
X425375000Y-48570000D01*
X425349000Y-48569000D01*
X425323000Y-48567000D01*
X425297000Y-48564000D01*
X425271000Y-48559000D01*
X425246000Y-48553000D01*
X425220000Y-48546000D01*
X425196000Y-48537000D01*
X425172000Y-48527000D01*
X425148000Y-48516000D01*
X425125000Y-48503000D01*
X425103000Y-48489000D01*
X425081000Y-48475000D01*
X425060000Y-48459000D01*
X425040000Y-48442000D01*
X425021000Y-48424000D01*
X425003000Y-48405000D01*
X424986000Y-48385000D01*
X424970000Y-48364000D01*
X424956000Y-48342000D01*
X424942000Y-48320000D01*
X424929000Y-48297000D01*
X424918000Y-48273000D01*
X424908000Y-48249000D01*
X424899000Y-48225000D01*
X424892000Y-48199000D01*
X424886000Y-48174000D01*
X424881000Y-48148000D01*
X424878000Y-48122000D01*
X424876000Y-48096000D01*
X424875000Y-48070000D01*
X424875000Y-46725000D01*
X426625000Y-46725000D01*
X426625000Y-48070000D01*
G36*
X426625000Y-48070000D02*
G01*
X426624000Y-48096000D01*
X426622000Y-48122000D01*
X426619000Y-48148000D01*
X426614000Y-48174000D01*
X426608000Y-48199000D01*
X426601000Y-48225000D01*
X426592000Y-48249000D01*
X426582000Y-48273000D01*
X426571000Y-48297000D01*
X426558000Y-48320000D01*
X426544000Y-48342000D01*
X426530000Y-48364000D01*
X426514000Y-48385000D01*
X426497000Y-48405000D01*
X426479000Y-48424000D01*
X426460000Y-48442000D01*
X426440000Y-48459000D01*
X426419000Y-48475000D01*
X426397000Y-48489000D01*
X426375000Y-48503000D01*
X426352000Y-48516000D01*
X426328000Y-48527000D01*
X426304000Y-48537000D01*
X426280000Y-48546000D01*
X426254000Y-48553000D01*
X426229000Y-48559000D01*
X426203000Y-48564000D01*
X426177000Y-48567000D01*
X426151000Y-48569000D01*
X426125000Y-48570000D01*
X425375000Y-48570000D01*
X425349000Y-48569000D01*
X425323000Y-48567000D01*
X425297000Y-48564000D01*
X425271000Y-48559000D01*
X425246000Y-48553000D01*
X425220000Y-48546000D01*
X425196000Y-48537000D01*
X425172000Y-48527000D01*
X425148000Y-48516000D01*
X425125000Y-48503000D01*
X425103000Y-48489000D01*
X425081000Y-48475000D01*
X425060000Y-48459000D01*
X425040000Y-48442000D01*
X425021000Y-48424000D01*
X425003000Y-48405000D01*
X424986000Y-48385000D01*
X424970000Y-48364000D01*
X424956000Y-48342000D01*
X424942000Y-48320000D01*
X424929000Y-48297000D01*
X424918000Y-48273000D01*
X424908000Y-48249000D01*
X424899000Y-48225000D01*
X424892000Y-48199000D01*
X424886000Y-48174000D01*
X424881000Y-48148000D01*
X424878000Y-48122000D01*
X424876000Y-48096000D01*
X424875000Y-48070000D01*
X424875000Y-46725000D01*
X426625000Y-46725000D01*
X426625000Y-48070000D01*
G37*
%TD*%
D11*
%TO.C,R81*%
X323880000Y-33400000D03*
X324900000Y-33400000D03*
%TD*%
D12*
%TO.C,C3*%
X135496000Y-46482000D03*
X137046000Y-46482000D03*
%TD*%
D13*
%TO.C,C58*%
X126619000Y-40181000D03*
X126619000Y-43131000D03*
%TD*%
D14*
%TO.C,H4*%
X115100000Y-23700000D03*
D15*
X115100000Y-23700000D03*
%TD*%
D16*
%TO.C,H46*%
X42000000Y-46300000D03*
D17*
X42000000Y-46300000D03*
%TD*%
D18*
%TO.C,C26*%
X68210000Y-21521000D03*
X71160000Y-21521000D03*
%TD*%
D19*
%TO.C,U8*%
X311400000Y-54925000D03*
X312050000Y-54925000D03*
X312700000Y-54925000D03*
X313350000Y-54925000D03*
X314000000Y-54925000D03*
X314650000Y-54925000D03*
X315300000Y-54925000D03*
X315950000Y-54925000D03*
X316600000Y-54925000D03*
X317250000Y-54925000D03*
X317900000Y-54925000D03*
X318550000Y-54925000D03*
X318550000Y-49200000D03*
X317900000Y-49200000D03*
X317250000Y-49200000D03*
X316600000Y-49200000D03*
X315950000Y-49200000D03*
X315300000Y-49200000D03*
X314650000Y-49200000D03*
X314000000Y-49200000D03*
X313350000Y-49200000D03*
X312700000Y-49200000D03*
X312050000Y-49200000D03*
X311400000Y-49200000D03*
%TD*%
D13*
%TO.C,C5*%
X97100000Y-48925000D03*
X97100000Y-51875000D03*
%TD*%
D20*
%TO.C,Q37*%
X417150000Y-28025000D03*
X415250000Y-28025000D03*
X416200000Y-29900000D03*
%TD*%
D21*
%TO.C,C37*%
X323250000Y-31700000D03*
X320300000Y-31700000D03*
%TD*%
D22*
%TO.C,R104*%
X227525000Y-31250000D03*
X227525000Y-30230000D03*
%TD*%
D20*
%TO.C,Q30*%
X382050000Y-22725000D03*
X380150000Y-22725000D03*
X381100000Y-24600000D03*
%TD*%
D23*
%TO.C,R15*%
X74000000Y-45980000D03*
X74000000Y-47000000D03*
%TD*%
D24*
%TO.C,C10*%
X124968000Y-47830000D03*
X124968000Y-44880000D03*
%TD*%
D25*
%TO.C,Q33*%
X364037500Y-29250000D03*
X364037500Y-27350000D03*
X362162500Y-28300000D03*
%TD*%
D26*
%TO.C,C16*%
X342180000Y-56700000D03*
X341220000Y-56700000D03*
%TD*%
D24*
%TO.C,C33*%
X221000000Y-31375000D03*
X221000000Y-28425000D03*
%TD*%
D22*
%TO.C,R108*%
X209300000Y-39810000D03*
X209300000Y-38790000D03*
%TD*%
D25*
%TO.C,Q36*%
X420875000Y-29800000D03*
X420875000Y-27900000D03*
X419000000Y-28850000D03*
%TD*%
D27*
%TO.C,H31*%
X388600000Y-36260000D03*
D28*
X388600000Y-36260000D03*
%TD*%
D14*
%TO.C,H7*%
X190740000Y-39470000D03*
D15*
X190740000Y-39470000D03*
%TD*%
D14*
%TO.C,H39*%
X383300000Y-59000000D03*
D29*
X383300000Y-59000000D03*
%TD*%
D18*
%TO.C,C28*%
X119515500Y-21579000D03*
X122465500Y-21579000D03*
%TD*%
D23*
%TO.C,R55*%
X123837500Y-21225000D03*
X123837500Y-22245000D03*
%TD*%
D12*
%TO.C,C48*%
X214025000Y-42700000D03*
X215575000Y-42700000D03*
%TD*%
D30*
%TO.C,J3*%
X256340000Y-39860000D03*
D31*
X256340000Y-42400000D03*
X258880000Y-39860000D03*
X258880000Y-42400000D03*
X261420000Y-39860000D03*
X261420000Y-42400000D03*
X263960000Y-39860000D03*
X263960000Y-42400000D03*
X266500000Y-39860000D03*
X266500000Y-42400000D03*
%TD*%
D25*
%TO.C,Q28*%
X318800000Y-29700000D03*
X318800000Y-27800000D03*
X316925000Y-28750000D03*
%TD*%
D18*
%TO.C,C32*%
X151925000Y-40750000D03*
X154875000Y-40750000D03*
%TD*%
D32*
%TO.C,Q5*%
X419800000Y-43010000D03*
X418800000Y-43010000D03*
X419300000Y-44300000D03*
%TD*%
D25*
%TO.C,Q22*%
X275225000Y-35925000D03*
X275225000Y-34025000D03*
X273350000Y-34975000D03*
%TD*%
D33*
%TO.C,C17*%
X370300000Y-33640000D03*
X370300000Y-34600000D03*
%TD*%
D11*
%TO.C,R60*%
X22223000Y-30734000D03*
X23243000Y-30734000D03*
%TD*%
D34*
%TO.C,F9*%
X177800000Y-28500000D03*
X177800000Y-29900000D03*
%TD*%
D35*
%TO.C,C45*%
X176620000Y-27000000D03*
X177580000Y-27000000D03*
%TD*%
D25*
%TO.C,Q15*%
X172300000Y-26810000D03*
X172300000Y-24910000D03*
X170425000Y-25860000D03*
%TD*%
D36*
%TO.C,S11*%
X385030000Y-30200000D03*
X385030000Y-24800000D03*
%TD*%
D25*
%TO.C,Q35*%
X424437500Y-34050000D03*
X424437500Y-32150000D03*
X422562500Y-33100000D03*
%TD*%
D33*
%TO.C,C65*%
X236982000Y-57912000D03*
X236982000Y-58872000D03*
%TD*%
D19*
%TO.C,U10*%
X163700000Y-62400000D03*
X164350000Y-62400000D03*
X165000000Y-62400000D03*
X165650000Y-62400000D03*
X166300000Y-62400000D03*
X166950000Y-62400000D03*
X167600000Y-62400000D03*
X168250000Y-62400000D03*
X168900000Y-62400000D03*
X169550000Y-62400000D03*
X170200000Y-62400000D03*
X170850000Y-62400000D03*
X170850000Y-56675000D03*
X170200000Y-56675000D03*
X169550000Y-56675000D03*
X168900000Y-56675000D03*
X168250000Y-56675000D03*
X167600000Y-56675000D03*
X166950000Y-56675000D03*
X166300000Y-56675000D03*
X165650000Y-56675000D03*
X165000000Y-56675000D03*
X164350000Y-56675000D03*
X163700000Y-56675000D03*
%TD*%
D14*
%TO.C,H35*%
X178940000Y-59000000D03*
D29*
X178940000Y-59000000D03*
%TD*%
D20*
%TO.C,Q32*%
X372650000Y-28162500D03*
X370750000Y-28162500D03*
X371700000Y-30037500D03*
%TD*%
D27*
%TO.C,H19*%
X82060000Y-36260000D03*
D28*
X82060000Y-36260000D03*
%TD*%
D25*
%TO.C,Q27*%
X322375000Y-35650000D03*
X322375000Y-33750000D03*
X320500000Y-34700000D03*
%TD*%
D20*
%TO.C,Q25*%
X264000000Y-28037500D03*
X262100000Y-28037500D03*
X263050000Y-29912500D03*
%TD*%
D11*
%TO.C,R93*%
X425890000Y-27100000D03*
X426910000Y-27100000D03*
%TD*%
D24*
%TO.C,C39*%
X377100000Y-24775000D03*
X377100000Y-21825000D03*
%TD*%
D30*
%TO.C,J2*%
X388480000Y-68200000D03*
D31*
X388480000Y-65660000D03*
X385940000Y-68200000D03*
X385940000Y-65660000D03*
X383400000Y-68200000D03*
X383400000Y-65660000D03*
X380860000Y-68200000D03*
X380860000Y-65660000D03*
%TD*%
D25*
%TO.C,Q3*%
X408200000Y-43500000D03*
X408200000Y-41600000D03*
X406325000Y-42550000D03*
%TD*%
D11*
%TO.C,R72*%
X211550000Y-26500000D03*
X212570000Y-26500000D03*
%TD*%
%TO.C,R61*%
X174690000Y-27000000D03*
X175710000Y-27000000D03*
%TD*%
D25*
%TO.C,Q24*%
X267700000Y-29700000D03*
X267700000Y-27800000D03*
X265825000Y-28750000D03*
%TD*%
D37*
%TO.C,D2*%
X132080000Y-43825000D03*
X132080000Y-45700000D03*
%TD*%
D23*
%TO.C,R91*%
X427400000Y-21100000D03*
X427400000Y-22120000D03*
%TD*%
D38*
%TO.C,U12*%
X243800000Y-63500000D03*
X243800000Y-62230000D03*
X243800000Y-60960000D03*
X243800000Y-59690000D03*
X238850000Y-59690000D03*
X238850000Y-60960000D03*
X238850000Y-62230000D03*
X238850000Y-63500000D03*
%TD*%
D39*
%TO.C,X14*%
X423075000Y-45825000D03*
X423075000Y-45175000D03*
X423075000Y-44525000D03*
X423075000Y-43875000D03*
X423075000Y-43225000D03*
D40*
X425750000Y-48050000D03*
D41*
X425750000Y-47445000D03*
D42*
X423050000Y-47025000D03*
D43*
X425750000Y-45525000D03*
X425750000Y-43525000D03*
D42*
X423050000Y-42025000D03*
D41*
X425750000Y-41605000D03*
D40*
X425750000Y-41000000D03*
%TD*%
D11*
%TO.C,R52*%
X57273000Y-26416000D03*
X58293000Y-26416000D03*
%TD*%
D44*
%TO.C,U3*%
X102093000Y-46990000D03*
D45*
X99530500Y-45085000D03*
X99530500Y-46355000D03*
X99530500Y-47625000D03*
X99530500Y-48895000D03*
X104655500Y-48895000D03*
X104655500Y-47625000D03*
X104655500Y-46355000D03*
X104655500Y-45085000D03*
%TD*%
D16*
%TO.C,H45*%
X106600000Y-55800000D03*
D17*
X106600000Y-55800000D03*
%TD*%
D27*
%TO.C,H17*%
X30970000Y-36260000D03*
D28*
X30970000Y-36260000D03*
%TD*%
D24*
%TO.C,C4*%
X94700000Y-48675000D03*
X94700000Y-45725000D03*
%TD*%
D25*
%TO.C,Q38*%
X207700000Y-40600000D03*
X207700000Y-38700000D03*
X205825000Y-39650000D03*
%TD*%
D46*
%TO.C,R92*%
X426390000Y-22100000D03*
X425370000Y-22100000D03*
%TD*%
D47*
%TO.C,D27*%
X424900000Y-54500000D03*
X424900000Y-50500000D03*
%TD*%
D20*
%TO.C,Q39*%
X206050000Y-42425000D03*
X204150000Y-42425000D03*
X205100000Y-44300000D03*
%TD*%
D11*
%TO.C,R112*%
X210290000Y-38800000D03*
X211310000Y-38800000D03*
%TD*%
D20*
%TO.C,Q16*%
X154800000Y-33100000D03*
X152900000Y-33100000D03*
X153850000Y-34975000D03*
%TD*%
D46*
%TO.C,R65*%
X154920000Y-31500000D03*
X153900000Y-31500000D03*
%TD*%
D23*
%TO.C,R201*%
X310285000Y-53926000D03*
X310285000Y-54946000D03*
%TD*%
D48*
%TO.C,X12*%
X63500000Y-58750000D03*
D49*
X70000000Y-55000000D03*
D50*
X70000000Y-57500000D03*
X70000000Y-60000000D03*
X70000000Y-62500000D03*
%TD*%
D51*
%TO.C,Q17*%
X152750000Y-36800000D03*
X152750000Y-38700000D03*
X154625000Y-37750000D03*
%TD*%
D35*
%TO.C,C44*%
X125603000Y-26797000D03*
X126563000Y-26797000D03*
%TD*%
D48*
%TO.C,X1*%
X63500000Y-45000000D03*
D49*
X70000000Y-41250000D03*
D50*
X70000000Y-43750000D03*
X70000000Y-46250000D03*
X70000000Y-48750000D03*
%TD*%
D11*
%TO.C,R84*%
X313600000Y-26400000D03*
X314620000Y-26400000D03*
%TD*%
D22*
%TO.C,R73*%
X277825000Y-36960000D03*
X277825000Y-35940000D03*
%TD*%
D23*
%TO.C,R56*%
X103632000Y-29591000D03*
X103632000Y-30611000D03*
%TD*%
%TO.C,R16*%
X72900000Y-48240000D03*
X72900000Y-49260000D03*
%TD*%
D11*
%TO.C,R96*%
X415490000Y-26500000D03*
X416510000Y-26500000D03*
%TD*%
D23*
%TO.C,R49*%
X72606000Y-21228000D03*
X72606000Y-22248000D03*
%TD*%
D16*
%TO.C,H42*%
X42000000Y-62600000D03*
D17*
X42000000Y-62600000D03*
%TD*%
D36*
%TO.C,S10*%
X333940000Y-30200000D03*
X333940000Y-24800000D03*
%TD*%
D46*
%TO.C,R57*%
X103759000Y-31623000D03*
X102739000Y-31623000D03*
%TD*%
D23*
%TO.C,R64*%
X154900000Y-29480000D03*
X154900000Y-30500000D03*
%TD*%
D46*
%TO.C,R107*%
X211310000Y-39800000D03*
X210290000Y-39800000D03*
%TD*%
D22*
%TO.C,R74*%
X276775000Y-35935000D03*
X276775000Y-34915000D03*
%TD*%
D33*
%TO.C,C20*%
X385300000Y-46920000D03*
X385300000Y-47880000D03*
%TD*%
D22*
%TO.C,R83*%
X320400000Y-28900000D03*
X320400000Y-27880000D03*
%TD*%
D14*
%TO.C,H3*%
X88560000Y-39470000D03*
D15*
X88560000Y-39470000D03*
%TD*%
D24*
%TO.C,C25*%
X380280000Y-54775000D03*
X380280000Y-51825000D03*
%TD*%
D35*
%TO.C,C52*%
X380820000Y-31200000D03*
X381780000Y-31200000D03*
%TD*%
D51*
%TO.C,Q13*%
X101503000Y-36896000D03*
X101503000Y-38796000D03*
X103378000Y-37846000D03*
%TD*%
D23*
%TO.C,R32*%
X409800000Y-43590000D03*
X409800000Y-44610000D03*
%TD*%
D52*
%TO.C,X9*%
X306450000Y-32040000D03*
X318450000Y-32040000D03*
D53*
X309450000Y-34000000D03*
D54*
X312450000Y-34000000D03*
X315450000Y-34000000D03*
%TD*%
D55*
%TO.C,C15*%
X350700000Y-59380000D03*
X350700000Y-58420000D03*
%TD*%
D35*
%TO.C,C22*%
X418840000Y-47800000D03*
X419800000Y-47800000D03*
%TD*%
D19*
%TO.C,U9*%
X294325000Y-61875000D03*
X294975000Y-61875000D03*
X295625000Y-61875000D03*
X296275000Y-61875000D03*
X296925000Y-61875000D03*
X297575000Y-61875000D03*
X298225000Y-61875000D03*
X298875000Y-61875000D03*
X299525000Y-61875000D03*
X300175000Y-61875000D03*
X300825000Y-61875000D03*
X301475000Y-61875000D03*
X301475000Y-56150000D03*
X300825000Y-56150000D03*
X300175000Y-56150000D03*
X299525000Y-56150000D03*
X298875000Y-56150000D03*
X298225000Y-56150000D03*
X297575000Y-56150000D03*
X296925000Y-56150000D03*
X296275000Y-56150000D03*
X295625000Y-56150000D03*
X294975000Y-56150000D03*
X294325000Y-56150000D03*
%TD*%
D22*
%TO.C,R62*%
X177800000Y-24820000D03*
X177800000Y-23800000D03*
%TD*%
D52*
%TO.C,X11*%
X408630000Y-32040000D03*
X420630000Y-32040000D03*
D53*
X411630000Y-34000000D03*
D54*
X414630000Y-34000000D03*
X417630000Y-34000000D03*
%TD*%
D51*
%TO.C,Q1*%
X339700000Y-59000000D03*
X339700000Y-60900000D03*
X341575000Y-59950000D03*
%TD*%
D56*
%TO.C,Q4*%
X418800000Y-46690000D03*
X419800000Y-46690000D03*
X419300000Y-45400000D03*
%TD*%
D20*
%TO.C,Q11*%
X121366500Y-24373000D03*
X119466500Y-24373000D03*
X120416500Y-26248000D03*
%TD*%
D11*
%TO.C,R75*%
X272790000Y-32725000D03*
X273810000Y-32725000D03*
%TD*%
D24*
%TO.C,C13*%
X129794000Y-47830000D03*
X129794000Y-44880000D03*
%TD*%
D25*
%TO.C,Q14*%
X176200000Y-25710000D03*
X176200000Y-23810000D03*
X174325000Y-24760000D03*
%TD*%
D14*
%TO.C,H15*%
X395100000Y-39470000D03*
D15*
X395100000Y-39470000D03*
%TD*%
D14*
%TO.C,H16*%
X421640000Y-23700000D03*
D15*
X421640000Y-23700000D03*
%TD*%
D27*
%TO.C,H20*%
X95060000Y-36260000D03*
D28*
X95060000Y-36260000D03*
%TD*%
D46*
%TO.C,R76*%
X271235000Y-28800000D03*
X270215000Y-28800000D03*
%TD*%
D11*
%TO.C,R38*%
X378480000Y-42100000D03*
X379500000Y-42100000D03*
%TD*%
D55*
%TO.C,C54*%
X293210000Y-56136000D03*
X293210000Y-55176000D03*
%TD*%
D22*
%TO.C,R100*%
X126492000Y-31500000D03*
X126492000Y-30480000D03*
%TD*%
D57*
%TO.C,R205*%
X128524000Y-41656000D03*
X130174000Y-41656000D03*
%TD*%
D22*
%TO.C,R42*%
X378570000Y-53700000D03*
X378570000Y-52680000D03*
%TD*%
D14*
%TO.C,H36*%
X230030000Y-59000000D03*
D29*
X230030000Y-59000000D03*
%TD*%
D14*
%TO.C,H33*%
X76760000Y-59000000D03*
D29*
X76760000Y-59000000D03*
%TD*%
D24*
%TO.C,C41*%
X424200000Y-30475000D03*
X424200000Y-27525000D03*
%TD*%
D22*
%TO.C,R79*%
X329000000Y-37700000D03*
X329000000Y-36680000D03*
%TD*%
D58*
%TO.C,S3*%
X378900000Y-45300000D03*
X384900000Y-45300000D03*
X378900000Y-49050000D03*
X384900000Y-49050000D03*
%TD*%
D59*
%TO.C,D1*%
X130099000Y-52705000D03*
X128524000Y-52705000D03*
%TD*%
D60*
%TO.C,C11*%
X106934000Y-47945000D03*
X106934000Y-49845000D03*
%TD*%
D33*
%TO.C,C24*%
X378610000Y-54660000D03*
X378610000Y-55620000D03*
%TD*%
D36*
%TO.C,S7*%
X180670000Y-30200000D03*
X180670000Y-24800000D03*
%TD*%
D22*
%TO.C,R71*%
X217800000Y-28600000D03*
X217800000Y-27580000D03*
%TD*%
D14*
%TO.C,H11*%
X292920000Y-39470000D03*
D15*
X292920000Y-39470000D03*
%TD*%
D14*
%TO.C,H2*%
X64010000Y-23700000D03*
D15*
X64010000Y-23700000D03*
%TD*%
D27*
%TO.C,H29*%
X337510000Y-36260000D03*
D28*
X337510000Y-36260000D03*
%TD*%
D33*
%TO.C,C66*%
X236982000Y-52352000D03*
X236982000Y-53312000D03*
%TD*%
D61*
%TO.C,R4*%
X128524000Y-49531000D03*
X128524000Y-51181000D03*
%TD*%
D62*
%TO.C,L1*%
X109604000Y-47879000D03*
X119504000Y-47879000D03*
%TD*%
D63*
%TO.C,C63*%
X123626000Y-34500000D03*
X114626000Y-34500000D03*
%TD*%
D23*
%TO.C,R101*%
X176500000Y-27990000D03*
X176500000Y-29010000D03*
%TD*%
D36*
%TO.C,S6*%
X129580000Y-30200000D03*
X129580000Y-24800000D03*
%TD*%
D27*
%TO.C,H18*%
X43970000Y-36260000D03*
D28*
X43970000Y-36260000D03*
%TD*%
D34*
%TO.C,F11*%
X279900000Y-28800000D03*
X279900000Y-30200000D03*
%TD*%
D64*
%TO.C,C8*%
X97282000Y-47244000D03*
X97282000Y-45344000D03*
%TD*%
D22*
%TO.C,R114*%
X329700000Y-31200000D03*
X329700000Y-30180000D03*
%TD*%
D52*
%TO.C,X8*%
X255360000Y-32040000D03*
X267360000Y-32040000D03*
D53*
X258360000Y-34000000D03*
D54*
X261360000Y-34000000D03*
X264360000Y-34000000D03*
%TD*%
D24*
%TO.C,C12*%
X127381000Y-47830000D03*
X127381000Y-44880000D03*
%TD*%
D55*
%TO.C,C55*%
X162600000Y-56680000D03*
X162600000Y-55720000D03*
%TD*%
D14*
%TO.C,H34*%
X127850000Y-59000000D03*
D29*
X127850000Y-59000000D03*
%TD*%
D52*
%TO.C,X7*%
X204270000Y-32040000D03*
X216270000Y-32040000D03*
D53*
X207270000Y-34000000D03*
D54*
X210270000Y-34000000D03*
X213270000Y-34000000D03*
%TD*%
D22*
%TO.C,R70*%
X217800000Y-30610000D03*
X217800000Y-29590000D03*
%TD*%
D23*
%TO.C,R14*%
X74000000Y-48240000D03*
X74000000Y-49260000D03*
%TD*%
D11*
%TO.C,R47*%
X72116500Y-26875000D03*
X73136500Y-26875000D03*
%TD*%
D27*
%TO.C,H22*%
X146150000Y-36260000D03*
D28*
X146150000Y-36260000D03*
%TD*%
D27*
%TO.C,H28*%
X299420000Y-36260000D03*
D28*
X299420000Y-36260000D03*
%TD*%
D61*
%TO.C,R8*%
X103505000Y-50483000D03*
X103505000Y-52133000D03*
%TD*%
D30*
%TO.C,JP1*%
X417400000Y-51900000D03*
D31*
X417400000Y-54440000D03*
%TD*%
D27*
%TO.C,H24*%
X197240000Y-36260000D03*
D28*
X197240000Y-36260000D03*
%TD*%
D21*
%TO.C,C35*%
X272550000Y-31025000D03*
X269600000Y-31025000D03*
%TD*%
D65*
%TO.C,F1*%
X72136000Y-34414000D03*
X72136000Y-37214000D03*
%TD*%
D25*
%TO.C,Q20*%
X216250000Y-29500000D03*
X216250000Y-27600000D03*
X214375000Y-28550000D03*
%TD*%
D38*
%TO.C,U14*%
X243775000Y-52305000D03*
X243775000Y-51035000D03*
X243775000Y-49765000D03*
X243775000Y-48495000D03*
X238825000Y-48495000D03*
X238825000Y-49765000D03*
X238825000Y-51035000D03*
X238825000Y-52305000D03*
%TD*%
D14*
%TO.C,H38*%
X332210000Y-59000000D03*
D29*
X332210000Y-59000000D03*
%TD*%
D66*
%TO.C,U2*%
X137047000Y-48666000D03*
X134747000Y-48666000D03*
D67*
X134747000Y-54966000D03*
D66*
X132447000Y-48666000D03*
%TD*%
D63*
%TO.C,C1*%
X174590000Y-34500000D03*
X165590000Y-34500000D03*
%TD*%
D18*
%TO.C,C31*%
X170225000Y-21810000D03*
X173175000Y-21810000D03*
%TD*%
D27*
%TO.C,H23*%
X184240000Y-36260000D03*
D28*
X184240000Y-36260000D03*
%TD*%
D46*
%TO.C,R208*%
X281180000Y-47371000D03*
X280160000Y-47371000D03*
%TD*%
D22*
%TO.C,R95*%
X422400000Y-28920000D03*
X422400000Y-27900000D03*
%TD*%
D68*
%TO.C,C14*%
X352000000Y-58325000D03*
X352000000Y-59875000D03*
%TD*%
D22*
%TO.C,R89*%
X374100000Y-28300000D03*
X374100000Y-27280000D03*
%TD*%
D23*
%TO.C,R209*%
X279019000Y-46353000D03*
X279019000Y-47373000D03*
%TD*%
D11*
%TO.C,R39*%
X418790000Y-48800000D03*
X419810000Y-48800000D03*
%TD*%
D33*
%TO.C,C19*%
X422600000Y-49400000D03*
X422600000Y-50360000D03*
%TD*%
D38*
%TO.C,U4*%
X348875000Y-60805000D03*
X348875000Y-59535000D03*
X348875000Y-58265000D03*
X348875000Y-56995000D03*
X343925000Y-56995000D03*
X343925000Y-58265000D03*
X343925000Y-59535000D03*
X343925000Y-60805000D03*
%TD*%
D23*
%TO.C,R41*%
X310300000Y-50090000D03*
X310300000Y-51110000D03*
%TD*%
D11*
%TO.C,R78*%
X262965000Y-26500000D03*
X263985000Y-26500000D03*
%TD*%
D21*
%TO.C,C38*%
X311400000Y-29700000D03*
X308450000Y-29700000D03*
%TD*%
%TO.C,C27*%
X55626000Y-29718000D03*
X52676000Y-29718000D03*
%TD*%
D11*
%TO.C,R85*%
X381090000Y-26200000D03*
X382110000Y-26200000D03*
%TD*%
D14*
%TO.C,H14*%
X370550000Y-23700000D03*
D15*
X370550000Y-23700000D03*
%TD*%
D34*
%TO.C,F7*%
X75565000Y-28829000D03*
X75565000Y-30229000D03*
%TD*%
D38*
%TO.C,U13*%
X243800000Y-57900000D03*
X243800000Y-56630000D03*
X243800000Y-55360000D03*
X243800000Y-54090000D03*
X238850000Y-54090000D03*
X238850000Y-55360000D03*
X238850000Y-56630000D03*
X238850000Y-57900000D03*
%TD*%
D22*
%TO.C,R80*%
X327900000Y-36620000D03*
X327900000Y-35600000D03*
%TD*%
D69*
%TO.C,F2*%
X68072000Y-35587700D03*
X68072000Y-29212300D03*
%TD*%
D20*
%TO.C,Q31*%
X378850000Y-26725000D03*
X376950000Y-26725000D03*
X377900000Y-28600000D03*
%TD*%
D70*
%TO.C,R5*%
X133858000Y-46545000D03*
X133858000Y-44895000D03*
%TD*%
D25*
%TO.C,Q23*%
X271250000Y-34950000D03*
X271250000Y-33050000D03*
X269375000Y-34000000D03*
%TD*%
D13*
%TO.C,C21*%
X417000000Y-45975000D03*
X417000000Y-48925000D03*
%TD*%
D35*
%TO.C,C46*%
X225520000Y-29225000D03*
X226480000Y-29225000D03*
%TD*%
D14*
%TO.C,H37*%
X281120000Y-59000000D03*
D29*
X281120000Y-59000000D03*
%TD*%
D23*
%TO.C,R120*%
X380800000Y-29100000D03*
X380800000Y-30120000D03*
%TD*%
D14*
%TO.C,H6*%
X166190000Y-23700000D03*
D15*
X166190000Y-23700000D03*
%TD*%
D11*
%TO.C,R103*%
X225515000Y-30275000D03*
X226535000Y-30275000D03*
%TD*%
D22*
%TO.C,R77*%
X269250000Y-28820000D03*
X269250000Y-27800000D03*
%TD*%
%TO.C,R59*%
X23241000Y-32770000D03*
X23241000Y-31750000D03*
%TD*%
D20*
%TO.C,Q12*%
X103759000Y-33177000D03*
X101859000Y-33177000D03*
X102809000Y-35052000D03*
%TD*%
D23*
%TO.C,R11*%
X338100000Y-58990000D03*
X338100000Y-60010000D03*
%TD*%
%TO.C,R13*%
X72900000Y-45980000D03*
X72900000Y-47000000D03*
%TD*%
D16*
%TO.C,H43*%
X196100000Y-62600000D03*
D17*
X196100000Y-62600000D03*
%TD*%
D20*
%TO.C,Q29*%
X315050000Y-28000000D03*
X313150000Y-28000000D03*
X314100000Y-29875000D03*
%TD*%
D34*
%TO.C,F12*%
X331000000Y-28800000D03*
X331000000Y-30200000D03*
%TD*%
D25*
%TO.C,Q10*%
X125181500Y-25450000D03*
X125181500Y-23550000D03*
X123306500Y-24500000D03*
%TD*%
%TO.C,Q19*%
X220175000Y-35050000D03*
X220175000Y-33150000D03*
X218300000Y-34100000D03*
%TD*%
%TO.C,Q26*%
X326300000Y-36600000D03*
X326300000Y-34700000D03*
X324425000Y-35650000D03*
%TD*%
D27*
%TO.C,H25*%
X235330000Y-36260000D03*
D28*
X235330000Y-36260000D03*
%TD*%
D71*
%TO.C,F3*%
X421200000Y-46800000D03*
X421200000Y-45400000D03*
%TD*%
D55*
%TO.C,C7*%
X106426000Y-46299000D03*
X106426000Y-45339000D03*
%TD*%
D11*
%TO.C,R86*%
X383380000Y-22800000D03*
X384400000Y-22800000D03*
%TD*%
D52*
%TO.C,X10*%
X356800000Y-31140000D03*
X368800000Y-31140000D03*
D53*
X359800000Y-33100000D03*
D54*
X362800000Y-33100000D03*
X365800000Y-33100000D03*
%TD*%
D23*
%TO.C,R203*%
X162500000Y-61390000D03*
X162500000Y-62410000D03*
%TD*%
D55*
%TO.C,C53*%
X310285000Y-49126000D03*
X310285000Y-48166000D03*
%TD*%
D22*
%TO.C,R102*%
X177600000Y-32020000D03*
X177600000Y-31000000D03*
%TD*%
D48*
%TO.C,X13*%
X166500000Y-47500000D03*
D49*
X173000000Y-45000000D03*
D50*
X173000000Y-47500000D03*
X173000000Y-50000000D03*
%TD*%
D34*
%TO.C,F6*%
X24511000Y-29272000D03*
X24511000Y-30672000D03*
%TD*%
D11*
%TO.C,R113*%
X327700000Y-30200000D03*
X328720000Y-30200000D03*
%TD*%
D23*
%TO.C,R90*%
X374000000Y-29290000D03*
X374000000Y-30310000D03*
%TD*%
D52*
%TO.C,X5*%
X110418000Y-28496000D03*
X110418000Y-40496000D03*
D72*
X108458000Y-31496000D03*
D73*
X108458000Y-34496000D03*
X108458000Y-37496000D03*
%TD*%
D46*
%TO.C,R9*%
X100610000Y-50300000D03*
X99590000Y-50300000D03*
%TD*%
D18*
%TO.C,C40*%
X366025000Y-28300000D03*
X368975000Y-28300000D03*
%TD*%
D21*
%TO.C,C36*%
X260400000Y-29725000D03*
X257450000Y-29725000D03*
%TD*%
D23*
%TO.C,R58*%
X101000000Y-30690000D03*
X101000000Y-31710000D03*
%TD*%
D33*
%TO.C,C67*%
X282194000Y-47427000D03*
X282194000Y-48387000D03*
%TD*%
D25*
%TO.C,Q18*%
X224137500Y-36062500D03*
X224137500Y-34162500D03*
X222262500Y-35112500D03*
%TD*%
%TO.C,Q2*%
X408200000Y-47000000D03*
X408200000Y-45100000D03*
X406325000Y-46050000D03*
%TD*%
D27*
%TO.C,H27*%
X286420000Y-36260000D03*
D28*
X286420000Y-36260000D03*
%TD*%
D22*
%TO.C,R67*%
X226750000Y-37060000D03*
X226750000Y-36040000D03*
%TD*%
D34*
%TO.C,F10*%
X228800000Y-28800000D03*
X228800000Y-30200000D03*
%TD*%
D26*
%TO.C,C43*%
X73280000Y-31100000D03*
X72320000Y-31100000D03*
%TD*%
D70*
%TO.C,R43*%
X357600000Y-50850000D03*
X357600000Y-49200000D03*
%TD*%
D22*
%TO.C,R54*%
X126705500Y-24629000D03*
X126705500Y-23609000D03*
%TD*%
D71*
%TO.C,F14*%
X277241000Y-48771000D03*
X277241000Y-47371000D03*
%TD*%
D22*
%TO.C,R202*%
X293210000Y-62486000D03*
X293210000Y-61466000D03*
%TD*%
D11*
%TO.C,R45*%
X293890000Y-63800000D03*
X294910000Y-63800000D03*
%TD*%
D13*
%TO.C,C6*%
X94700000Y-50425000D03*
X94700000Y-53375000D03*
%TD*%
D23*
%TO.C,R66*%
X152600000Y-30600000D03*
X152600000Y-31620000D03*
%TD*%
%TO.C,R63*%
X174600000Y-21510000D03*
X174600000Y-22530000D03*
%TD*%
D22*
%TO.C,R98*%
X74295000Y-31244000D03*
X74295000Y-30224000D03*
%TD*%
D46*
%TO.C,R82*%
X322400000Y-28900000D03*
X321380000Y-28900000D03*
%TD*%
D74*
%TO.C,R12*%
X341825000Y-62400000D03*
X340175000Y-62400000D03*
%TD*%
D27*
%TO.C,H21*%
X133150000Y-36260000D03*
D28*
X133150000Y-36260000D03*
%TD*%
D26*
%TO.C,C30*%
X23241000Y-33782000D03*
X22281000Y-33782000D03*
%TD*%
D14*
%TO.C,H13*%
X344010000Y-39470000D03*
D15*
X344010000Y-39470000D03*
%TD*%
D11*
%TO.C,R10*%
X338290000Y-57700000D03*
X339310000Y-57700000D03*
%TD*%
D46*
%TO.C,R7*%
X107444000Y-51308000D03*
X106424000Y-51308000D03*
%TD*%
D36*
%TO.C,S5*%
X78490000Y-30200000D03*
X78490000Y-24800000D03*
%TD*%
D11*
%TO.C,R53*%
X123590000Y-26800000D03*
X124610000Y-26800000D03*
%TD*%
D75*
%TO.C,U6*%
X377000000Y-55910000D03*
X377000000Y-54640000D03*
X377000000Y-53370000D03*
X377000000Y-52100000D03*
X377000000Y-50830000D03*
X377000000Y-49560000D03*
X377000000Y-48290000D03*
X377000000Y-47020000D03*
X377000000Y-45750000D03*
X377000000Y-44480000D03*
X377000000Y-43210000D03*
X377000000Y-41940000D03*
X377000000Y-40670000D03*
X377000000Y-39400000D03*
D76*
X373965000Y-38150000D03*
X372695000Y-38150000D03*
X371425000Y-38150000D03*
X370155000Y-38150000D03*
X368885000Y-38150000D03*
X367615000Y-38150000D03*
X366345000Y-38150000D03*
X365075000Y-38150000D03*
X363805000Y-38150000D03*
X362535000Y-38150000D03*
D75*
X359500000Y-39400000D03*
X359500000Y-40670000D03*
X359500000Y-41940000D03*
X359500000Y-43210000D03*
X359500000Y-44480000D03*
X359500000Y-45750000D03*
X359500000Y-47020000D03*
X359500000Y-48290000D03*
X359500000Y-49560000D03*
X359500000Y-50830000D03*
X359500000Y-52100000D03*
X359500000Y-53370000D03*
X359500000Y-54640000D03*
X359500000Y-55910000D03*
D77*
X371150000Y-49590000D03*
X371150000Y-48190000D03*
X371150000Y-46790000D03*
X369750000Y-49590000D03*
X369750000Y-48190000D03*
X369750000Y-46790000D03*
X368350000Y-49590000D03*
X368350000Y-48190000D03*
X368350000Y-46790000D03*
%TD*%
D36*
%TO.C,S8*%
X231760000Y-30200000D03*
X231760000Y-24800000D03*
%TD*%
D25*
%TO.C,Q8*%
X63040500Y-30033000D03*
X63040500Y-28133000D03*
X61165500Y-29083000D03*
%TD*%
D14*
%TO.C,H40*%
X25670000Y-59000000D03*
D29*
X25670000Y-59000000D03*
%TD*%
D24*
%TO.C,C9*%
X122555000Y-47830000D03*
X122555000Y-44880000D03*
%TD*%
D20*
%TO.C,Q9*%
X59309000Y-27940000D03*
X57409000Y-27940000D03*
X58359000Y-29815000D03*
%TD*%
D21*
%TO.C,C34*%
X208975000Y-29775000D03*
X206025000Y-29775000D03*
%TD*%
D27*
%TO.C,H32*%
X401600000Y-36260000D03*
D28*
X401600000Y-36260000D03*
%TD*%
D34*
%TO.C,F4*%
X421200000Y-42800000D03*
X421200000Y-44200000D03*
%TD*%
D46*
%TO.C,R31*%
X408810000Y-40300000D03*
X407790000Y-40300000D03*
%TD*%
D22*
%TO.C,R109*%
X204300000Y-40910000D03*
X204300000Y-39890000D03*
%TD*%
D49*
%TO.C,X2*%
X274400000Y-47600000D03*
D50*
X274400000Y-50100000D03*
%TD*%
D14*
%TO.C,H10*%
X268370000Y-23700000D03*
D15*
X268370000Y-23700000D03*
%TD*%
D78*
%TO.C,D196*%
X128625500Y-43180000D03*
X130200500Y-43180000D03*
%TD*%
D52*
%TO.C,X6*%
X161550000Y-28500000D03*
X161550000Y-40500000D03*
D72*
X159590000Y-31500000D03*
D73*
X159590000Y-34500000D03*
X159590000Y-37500000D03*
%TD*%
D16*
%TO.C,H44*%
X42000000Y-55600000D03*
D17*
X42000000Y-55600000D03*
%TD*%
D70*
%TO.C,R46*%
X357600000Y-39425000D03*
X357600000Y-37775000D03*
%TD*%
D22*
%TO.C,R68*%
X225700000Y-36035000D03*
X225700000Y-35015000D03*
%TD*%
D23*
%TO.C,R99*%
X125222000Y-27813000D03*
X125222000Y-28833000D03*
%TD*%
D79*
%TO.C,S1*%
X76190000Y-46730000D03*
X76190000Y-49270000D03*
X83810000Y-46730000D03*
X83810000Y-49270000D03*
%TD*%
D23*
%TO.C,R2*%
X357759000Y-42160000D03*
X357759000Y-43180000D03*
%TD*%
D58*
%TO.C,S2*%
X370837500Y-32225000D03*
X376837500Y-32225000D03*
X370837500Y-35975000D03*
X376837500Y-35975000D03*
%TD*%
D14*
%TO.C,H5*%
X139650000Y-39470000D03*
D15*
X139650000Y-39470000D03*
%TD*%
D61*
%TO.C,R44*%
X357600000Y-52275000D03*
X357600000Y-53925000D03*
%TD*%
D22*
%TO.C,R94*%
X422400000Y-30900000D03*
X422400000Y-29880000D03*
%TD*%
%TO.C,R87*%
X378800000Y-25210000D03*
X378800000Y-24190000D03*
%TD*%
D25*
%TO.C,Q6*%
X73846000Y-25482000D03*
X73846000Y-23582000D03*
X71971000Y-24532000D03*
%TD*%
D27*
%TO.C,H30*%
X350510000Y-36260000D03*
D28*
X350510000Y-36260000D03*
%TD*%
D30*
%TO.C,J1*%
X330360000Y-65400000D03*
D31*
X330360000Y-67940000D03*
X332900000Y-65400000D03*
X332900000Y-67940000D03*
X335440000Y-65400000D03*
X335440000Y-67940000D03*
%TD*%
D22*
%TO.C,R106*%
X278600000Y-31310000D03*
X278600000Y-30290000D03*
%TD*%
D33*
%TO.C,C64*%
X236982000Y-63528000D03*
X236982000Y-64488000D03*
%TD*%
D34*
%TO.C,F8*%
X126619000Y-28002000D03*
X126619000Y-29402000D03*
%TD*%
D22*
%TO.C,R88*%
X375200000Y-29310000D03*
X375200000Y-28290000D03*
%TD*%
D35*
%TO.C,C47*%
X276600000Y-29200000D03*
X277560000Y-29200000D03*
%TD*%
D16*
%TO.C,H41*%
X106600000Y-62700000D03*
D17*
X106600000Y-62700000D03*
%TD*%
D20*
%TO.C,Q34*%
X427590000Y-23700000D03*
X425690000Y-23700000D03*
X426640000Y-25575000D03*
%TD*%
D22*
%TO.C,R97*%
X73279000Y-30103000D03*
X73279000Y-29083000D03*
%TD*%
D21*
%TO.C,C29*%
X103202000Y-40767000D03*
X100252000Y-40767000D03*
%TD*%
D36*
%TO.C,S4*%
X27400000Y-30200000D03*
X27400000Y-24800000D03*
%TD*%
D27*
%TO.C,H26*%
X248330000Y-36260000D03*
D28*
X248330000Y-36260000D03*
%TD*%
D36*
%TO.C,S9*%
X282850000Y-30200000D03*
X282850000Y-24800000D03*
%TD*%
D20*
%TO.C,Q21*%
X212550000Y-28075000D03*
X210650000Y-28075000D03*
X211600000Y-29950000D03*
%TD*%
D34*
%TO.C,F13*%
X382100000Y-28700000D03*
X382100000Y-30100000D03*
%TD*%
D61*
%TO.C,R6*%
X105029000Y-50483000D03*
X105029000Y-52133000D03*
%TD*%
D14*
%TO.C,H12*%
X319460000Y-23700000D03*
D15*
X319460000Y-23700000D03*
%TD*%
D52*
%TO.C,X4*%
X51000000Y-32040000D03*
X63000000Y-32040000D03*
D53*
X54000000Y-34000000D03*
D54*
X57000000Y-34000000D03*
X60000000Y-34000000D03*
%TD*%
D14*
%TO.C,H8*%
X217280000Y-23700000D03*
D15*
X217280000Y-23700000D03*
%TD*%
D11*
%TO.C,R48*%
X74116500Y-26875000D03*
X75136500Y-26875000D03*
%TD*%
%TO.C,R69*%
X221705000Y-32825000D03*
X222725000Y-32825000D03*
%TD*%
D21*
%TO.C,C42*%
X413575000Y-29700000D03*
X410625000Y-29700000D03*
%TD*%
D22*
%TO.C,R119*%
X379800000Y-31210000D03*
X379800000Y-30190000D03*
%TD*%
D71*
%TO.C,F5*%
X421300000Y-49500000D03*
X421300000Y-48100000D03*
%TD*%
D14*
%TO.C,H9*%
X241830000Y-39470000D03*
D15*
X241830000Y-39470000D03*
%TD*%
D14*
%TO.C,H1*%
X37470000Y-39470000D03*
D15*
X37470000Y-39470000D03*
%TD*%
D48*
%TO.C,X3*%
X216500000Y-55250000D03*
D49*
X223000000Y-46500000D03*
D50*
X223000000Y-49000000D03*
X223000000Y-51500000D03*
X223000000Y-54000000D03*
X223000000Y-56500000D03*
X223000000Y-59000000D03*
X223000000Y-61500000D03*
X223000000Y-64000000D03*
%TD*%
D68*
%TO.C,C2*%
X130175000Y-49517000D03*
X130175000Y-51067000D03*
%TD*%
D11*
%TO.C,R105*%
X276600000Y-30300000D03*
X277620000Y-30300000D03*
%TD*%
D35*
%TO.C,C51*%
X327740000Y-29100000D03*
X328700000Y-29100000D03*
%TD*%
D20*
%TO.C,Q7*%
X70000000Y-23800000D03*
X68100000Y-23800000D03*
X69050000Y-25675000D03*
%TD*%
D80*
X241950003Y-63750000D03*
X161710883Y-60431520D03*
X289500000Y-46625000D03*
X195515000Y-50900000D03*
X155953814Y-42278780D03*
X168833618Y-53712794D03*
X374800000Y-27300000D03*
X72300000Y-30300000D03*
X237400000Y-54000000D03*
X149000000Y-42375000D03*
X85117785Y-58388928D03*
X245300000Y-60900000D03*
X426800000Y-45500000D03*
X377571016Y-36899477D03*
X390794523Y-63820066D03*
X424243198Y-43592800D03*
X27400000Y-23150000D03*
X218400000Y-44000000D03*
X173100000Y-55700003D03*
X296300000Y-54900000D03*
X79410000Y-65075000D03*
X383000003Y-45200000D03*
X212400000Y-40400000D03*
X352800000Y-49200000D03*
X254090000Y-48600000D03*
X121766375Y-55310763D03*
X282200000Y-42300000D03*
X106988444Y-46945000D03*
X237800000Y-64600000D03*
X215200000Y-41800000D03*
X170426982Y-47606027D03*
X353600000Y-49200000D03*
X415400000Y-37200003D03*
X373789117Y-45168480D03*
X381200000Y-45300000D03*
X377100000Y-20800000D03*
X290800000Y-55100000D03*
X275808058Y-62100000D03*
X167090023Y-59843878D03*
X213050000Y-38290000D03*
X172500000Y-59197500D03*
X168400000Y-34500000D03*
X173110000Y-54108054D03*
X382500000Y-31200000D03*
X328889531Y-44570986D03*
X269000000Y-27000000D03*
X166800000Y-51400000D03*
X165600000Y-55500000D03*
X411408038Y-41186863D03*
X105790000Y-36000000D03*
X345100000Y-51510000D03*
X318579144Y-42510000D03*
X220690000Y-58985469D03*
X102400000Y-52100000D03*
X363258949Y-39552983D03*
X220614004Y-53411598D03*
X418400000Y-46000000D03*
X137000000Y-47300000D03*
X374578105Y-44288693D03*
X203215000Y-50287844D03*
X204503923Y-38422757D03*
X71534313Y-49765687D03*
X116600000Y-37800000D03*
X422400000Y-27400000D03*
X269212149Y-64014579D03*
X363990429Y-55143958D03*
X337243106Y-57515533D03*
X174289539Y-55699333D03*
X87703560Y-48412556D03*
X421200000Y-58125000D03*
X124600000Y-42100000D03*
X209279883Y-65136209D03*
X351943761Y-42434358D03*
X105900000Y-34000000D03*
X173910219Y-63392374D03*
X411430000Y-44070000D03*
X232300000Y-66900000D03*
X78844549Y-46413164D03*
X115700000Y-35700000D03*
X252258522Y-48424134D03*
X205340000Y-48913224D03*
X174100000Y-64690000D03*
X375948281Y-35286137D03*
X309300000Y-49199997D03*
X379700000Y-47200000D03*
X415760221Y-46767082D03*
X348560753Y-52689950D03*
X199484456Y-64957772D03*
X383831520Y-42210883D03*
X105800000Y-49700000D03*
X322099997Y-46600000D03*
X206515000Y-50078944D03*
X294200068Y-54912728D03*
X378730778Y-39119778D03*
X361400000Y-52690000D03*
X213369088Y-41719999D03*
X163760000Y-55320698D03*
X80600000Y-47900000D03*
X209200000Y-42400000D03*
X140789117Y-51568480D03*
X371650000Y-52050000D03*
X288600000Y-66300000D03*
X420300000Y-49500000D03*
X245300000Y-55400000D03*
X126337500Y-22835000D03*
X214100000Y-52575000D03*
X22300000Y-34600000D03*
X352833226Y-55289028D03*
X203400000Y-35600000D03*
X335155089Y-51454281D03*
X187737270Y-49489457D03*
X370115031Y-56910000D03*
X75550000Y-27900000D03*
X190600000Y-56800000D03*
X72100000Y-47500000D03*
X123200000Y-65600000D03*
X382904423Y-42096417D03*
X341900000Y-63375000D03*
X97100000Y-52900000D03*
X323699758Y-38875303D03*
X329500000Y-29100000D03*
X120331862Y-37762469D03*
X66199997Y-54900000D03*
X70700000Y-34400000D03*
X191550000Y-65100000D03*
X427500000Y-54900003D03*
X286370000Y-56232806D03*
X378900000Y-44500000D03*
X61200000Y-32000000D03*
X389290000Y-54987011D03*
X287000000Y-64500000D03*
X302300003Y-57400000D03*
X318850000Y-62941051D03*
X392306381Y-67930828D03*
X383200000Y-43700000D03*
X259186836Y-47544549D03*
X367400000Y-56600000D03*
X101400000Y-51000003D03*
X229372205Y-64790000D03*
X106400000Y-41800000D03*
X357152983Y-41441051D03*
X328100000Y-62299997D03*
X219249997Y-55050000D03*
X315500000Y-46860000D03*
X289500000Y-55300000D03*
X277200000Y-55300000D03*
X117200000Y-44400000D03*
X378200000Y-56500000D03*
X172264682Y-54310000D03*
X200915544Y-64957772D03*
X214170558Y-49590000D03*
X287665613Y-65510000D03*
X332900000Y-50000000D03*
X121453999Y-46216874D03*
X118005363Y-53635173D03*
X69100000Y-53060000D03*
X104799927Y-42063520D03*
X385700000Y-50200000D03*
X285000000Y-55400000D03*
X416400000Y-47500000D03*
X172250000Y-53350000D03*
X225000000Y-53500000D03*
X333617194Y-47882806D03*
X142622194Y-50077806D03*
X148130778Y-48219778D03*
X227172702Y-51627298D03*
X246011598Y-64485996D03*
X192156894Y-53715533D03*
X119900221Y-55972951D03*
X362972206Y-56162182D03*
X290200000Y-50990000D03*
X181458949Y-52852983D03*
X63200000Y-27350000D03*
X411300000Y-31400000D03*
X228682806Y-40717194D03*
X130200000Y-51900000D03*
X316017195Y-62217192D03*
X71583490Y-45189082D03*
X296799997Y-57400000D03*
X331000000Y-27800000D03*
X320191962Y-46486863D03*
X138300000Y-48600000D03*
X381700000Y-52799997D03*
X346369222Y-55310000D03*
X416009058Y-44024999D03*
X73800000Y-66100000D03*
X348300000Y-55300000D03*
X94700000Y-54300000D03*
X170910000Y-49650000D03*
X376700000Y-56800000D03*
X327600000Y-43200000D03*
X380082781Y-49810318D03*
X422000000Y-42500000D03*
X156100000Y-40800000D03*
X276300000Y-50600000D03*
X355400000Y-43200000D03*
X210600003Y-43400000D03*
X268516623Y-30983377D03*
X140942228Y-55115544D03*
X312400000Y-56200000D03*
X364582806Y-56475246D03*
X424243198Y-42700000D03*
X384050000Y-40710000D03*
X199373333Y-50400769D03*
X306134313Y-42510000D03*
X86300000Y-48100000D03*
X165600000Y-33300000D03*
X122037500Y-23035000D03*
X412700000Y-50000000D03*
X346588402Y-62285996D03*
X325911584Y-62174919D03*
X210600000Y-44400000D03*
X353610000Y-59000000D03*
X423799997Y-62100000D03*
X282982808Y-48317195D03*
X277400000Y-40500000D03*
X242400000Y-51000000D03*
X180700000Y-23100000D03*
X123400000Y-37800000D03*
X204900000Y-29800000D03*
X389417108Y-63816730D03*
X173000000Y-23310000D03*
X323900000Y-46700000D03*
X75810469Y-39429014D03*
X75826500Y-26875000D03*
X293799921Y-60498573D03*
X192149136Y-64339148D03*
X165288314Y-54264016D03*
X175088402Y-53385996D03*
X161319778Y-46069222D03*
X200553333Y-50386642D03*
X377500000Y-68565000D03*
X233515509Y-54190000D03*
X133775000Y-57262271D03*
X128625500Y-44854500D03*
X177800000Y-23010000D03*
X217100000Y-45600000D03*
X125710883Y-53768480D03*
X352500000Y-53300000D03*
X207600000Y-44400000D03*
X209655000Y-51125000D03*
X195515000Y-52326001D03*
X387100000Y-64300000D03*
X126600000Y-51500000D03*
X200895024Y-69454164D03*
X209200000Y-43400000D03*
X227770309Y-39929691D03*
X180700000Y-65275000D03*
X280865642Y-39143761D03*
X403915544Y-41842228D03*
X209200000Y-44400000D03*
X229490000Y-39040687D03*
X235257772Y-53215544D03*
X361720402Y-51450861D03*
X22015544Y-37242228D03*
X225400000Y-34200000D03*
X294356239Y-51865642D03*
X245300000Y-62200000D03*
X153400000Y-32100000D03*
X184100000Y-45500000D03*
X331848928Y-51262169D03*
X276400000Y-34100000D03*
X354300000Y-53200000D03*
X107720000Y-41628979D03*
X318600000Y-46400000D03*
X179281004Y-53014079D03*
X67149463Y-68024658D03*
X356940834Y-42998960D03*
X331900000Y-46010000D03*
X90051813Y-49594869D03*
X316910883Y-46568480D03*
X135613449Y-50020904D03*
X298400000Y-57800000D03*
X217046877Y-68952489D03*
X350100000Y-60100000D03*
X85800000Y-56000000D03*
X188700000Y-49500000D03*
X135600000Y-51610000D03*
X255299997Y-52000000D03*
X268843761Y-65434358D03*
X280529433Y-46593779D03*
X320778951Y-67334782D03*
X350511061Y-55310794D03*
X213072646Y-53763642D03*
X277609998Y-49730002D03*
X144910662Y-49372962D03*
X204465000Y-50267037D03*
X336267193Y-47832807D03*
X312900000Y-46150000D03*
X204825000Y-60850000D03*
X114000000Y-35700000D03*
X302200000Y-54600000D03*
X272153981Y-42087295D03*
X96100000Y-45300000D03*
X70800000Y-33300000D03*
X206500000Y-28400000D03*
X370300000Y-33000000D03*
X422000000Y-43200000D03*
X216950000Y-65275000D03*
X312428441Y-47470527D03*
X206900000Y-61590000D03*
X421800000Y-50100000D03*
X349500000Y-55300000D03*
X280300000Y-42400000D03*
X226400000Y-54600000D03*
X385100000Y-46200000D03*
X237504322Y-49165000D03*
X288817194Y-56782806D03*
X161800000Y-55879997D03*
X179450000Y-46550000D03*
X70913000Y-22721000D03*
X260219998Y-61459998D03*
X127200000Y-27300000D03*
X207600000Y-43400000D03*
X123900000Y-45400000D03*
X100400000Y-38100000D03*
X267600000Y-66000000D03*
X228900000Y-52210000D03*
X231800000Y-23100000D03*
X331465642Y-38843761D03*
X83817896Y-58800000D03*
X333950000Y-23100000D03*
X287171826Y-45918174D03*
X165600000Y-35700000D03*
X316941051Y-41947017D03*
X341800000Y-55700000D03*
X412250000Y-43280000D03*
X291410883Y-62968480D03*
X109253283Y-33122429D03*
X203043761Y-37100000D03*
X373600000Y-45900000D03*
X335693478Y-52810000D03*
X339200000Y-61700000D03*
X174110469Y-66829014D03*
X118201550Y-38658897D03*
X189418526Y-56689028D03*
X65300000Y-44650000D03*
X178403341Y-53223822D03*
X70465480Y-67803144D03*
X375000000Y-33900000D03*
X374000000Y-37050000D03*
X282900000Y-23200000D03*
X354405970Y-42423884D03*
X208475000Y-51250000D03*
X333700000Y-52900000D03*
X175699997Y-46400000D03*
X172700000Y-63600000D03*
X360400000Y-55900000D03*
X117900000Y-43500003D03*
X171600000Y-62400000D03*
X371500000Y-53600000D03*
X256300000Y-29700000D03*
X237300000Y-59600000D03*
X116600000Y-45000000D03*
X146662766Y-48375181D03*
X325600000Y-46800000D03*
X374950000Y-38300000D03*
X405680222Y-44630778D03*
X345800000Y-53000000D03*
X75113000Y-23621000D03*
X228800000Y-27800000D03*
X145700000Y-49600000D03*
X143818811Y-50168086D03*
X208800000Y-38290000D03*
X385000000Y-23400000D03*
X381600000Y-51500000D03*
X207600000Y-42400000D03*
X213435318Y-61284864D03*
X298600000Y-59100000D03*
X379100000Y-46700000D03*
X412899997Y-51900000D03*
X72000000Y-33200000D03*
X221000000Y-27300000D03*
X318739941Y-65961260D03*
X99400000Y-43900000D03*
X295440639Y-45901143D03*
X246017219Y-44289682D03*
X172934313Y-64834313D03*
X197973965Y-49625448D03*
X356326419Y-55900000D03*
X325017219Y-38810318D03*
X319800003Y-36100000D03*
X293790000Y-57300000D03*
X124556239Y-40265642D03*
X319700000Y-62100000D03*
X280400000Y-43700000D03*
X165567862Y-51310000D03*
X276100000Y-56800000D03*
X114900000Y-35700000D03*
X215400000Y-68940000D03*
X373800000Y-42900000D03*
X97315000Y-44200000D03*
X228611345Y-44163068D03*
X377400000Y-31300000D03*
X229950000Y-52700000D03*
X216400000Y-60600000D03*
X162850000Y-34100000D03*
X425090000Y-22800000D03*
X123600000Y-54600000D03*
X126200000Y-44854500D03*
X140000003Y-55510000D03*
X286351995Y-63388581D03*
X227300000Y-29200000D03*
X379100000Y-22700000D03*
X196790000Y-50700000D03*
X426800000Y-43500000D03*
X177700000Y-27700000D03*
X379500000Y-43800003D03*
X413260000Y-45920000D03*
X299234387Y-45900000D03*
X279900000Y-27850000D03*
X166900000Y-54300000D03*
X301000000Y-49900000D03*
X269600000Y-61200000D03*
X101900000Y-31900000D03*
X81474391Y-43336890D03*
X230334358Y-39410000D03*
X330488464Y-46234321D03*
X268400000Y-47975000D03*
X217199269Y-44004254D03*
X337194383Y-45820451D03*
X355200000Y-49200000D03*
X172285421Y-55910000D03*
X129600000Y-23200000D03*
X415285996Y-40988402D03*
X213900106Y-50953730D03*
X392946186Y-69396220D03*
X79800000Y-43525000D03*
X374200000Y-41700000D03*
X68939794Y-68160206D03*
X121234313Y-60834313D03*
X356417219Y-49272488D03*
X311195019Y-47971634D03*
X187019998Y-52459998D03*
X127119998Y-42240002D03*
X273300000Y-59000000D03*
X78500000Y-23200000D03*
X349814735Y-52688291D03*
X146597113Y-56742784D03*
X124600000Y-66900000D03*
X137300000Y-53100003D03*
X131178711Y-52231212D03*
X352400000Y-56000000D03*
X287590000Y-55600000D03*
X417700000Y-47400000D03*
X319300000Y-54900000D03*
X269600000Y-62700000D03*
X109210447Y-40062311D03*
X194300000Y-49600000D03*
X327600000Y-34900000D03*
X312900000Y-38200000D03*
X307300000Y-29700000D03*
X383700000Y-52600000D03*
X418500000Y-43599997D03*
X212568396Y-53033041D03*
X319443761Y-33134358D03*
X221400000Y-47350000D03*
X88387795Y-49575000D03*
X297957806Y-54590000D03*
X174300000Y-54100308D03*
X264611598Y-60314004D03*
X219200000Y-44200000D03*
X91980000Y-54310000D03*
X141323737Y-50734054D03*
X414070000Y-45090000D03*
X86100000Y-48900000D03*
X302200000Y-61500000D03*
X245300000Y-56600000D03*
X173119778Y-38230778D03*
X118600000Y-36300000D03*
X191156239Y-49490000D03*
X170600000Y-54300000D03*
X217500003Y-50000000D03*
X420400000Y-46700000D03*
X85900000Y-57265612D03*
X211700000Y-61575000D03*
X269872702Y-47672702D03*
X382550000Y-27750000D03*
X106000000Y-52100000D03*
X392130318Y-64682781D03*
X317005277Y-61591757D03*
X127800000Y-43900000D03*
X290165687Y-66765687D03*
X334200000Y-67200000D03*
X278400003Y-52710000D03*
X375700000Y-41200000D03*
X61534313Y-41775000D03*
X120399926Y-61668700D03*
X382790795Y-39310876D03*
X415400000Y-35599997D03*
X241256893Y-61115533D03*
X320100000Y-27100000D03*
X28947017Y-64141051D03*
X170741051Y-53447017D03*
X381400000Y-46700000D03*
X169989682Y-46117219D03*
X218400000Y-26950000D03*
X24500000Y-28200000D03*
X216957806Y-64092194D03*
X169841051Y-41852983D03*
X157062169Y-34051072D03*
X369900000Y-28000000D03*
X175859136Y-43575252D03*
X201887501Y-50248309D03*
X234300000Y-54900000D03*
X164700000Y-61400000D03*
X171300000Y-42300000D03*
X212982806Y-45517194D03*
X319400000Y-48999997D03*
X210600000Y-42400000D03*
X62834313Y-35865687D03*
X277400000Y-42400000D03*
X278300000Y-29200000D03*
X378699997Y-43000000D03*
X217790000Y-42010000D03*
X382200000Y-46700000D03*
X427500000Y-54100000D03*
X383700000Y-51800000D03*
X217100000Y-33200000D03*
X270700000Y-47675000D03*
X319000000Y-36100000D03*
X82200000Y-43000000D03*
X415400000Y-36400000D03*
X62100000Y-42400000D03*
X319000000Y-33800000D03*
X253500000Y-49400000D03*
X221450000Y-46500000D03*
X202600000Y-36300000D03*
X390100000Y-63400000D03*
X241800000Y-49600000D03*
X229450000Y-51535000D03*
X382200000Y-45200000D03*
X176500000Y-46400000D03*
X370912992Y-56700000D03*
X80600000Y-43300000D03*
X161800000Y-56680000D03*
X309300000Y-50000000D03*
X131400000Y-53000000D03*
X381700000Y-53600000D03*
X413700000Y-51900000D03*
X415910000Y-45890000D03*
X347000000Y-61600000D03*
X334827663Y-52911820D03*
X228900000Y-38475000D03*
X293000000Y-60510000D03*
X306700000Y-43100000D03*
X212991607Y-42610000D03*
X175000000Y-43600000D03*
X148500000Y-43000000D03*
X146300000Y-56000000D03*
X413700000Y-50000000D03*
X134747000Y-49925000D03*
X162500000Y-60300000D03*
X123100000Y-43805000D03*
X139200000Y-55600000D03*
X351500000Y-56110000D03*
X214000000Y-38290000D03*
X345600000Y-55700000D03*
X267600000Y-48300000D03*
X326808038Y-43086863D03*
X388600000Y-54400000D03*
X228300000Y-44900000D03*
X345000000Y-53100000D03*
X293200000Y-56700000D03*
X134747000Y-51610000D03*
X345900000Y-51500000D03*
X279900000Y-46100000D03*
X21300000Y-37600000D03*
X280200000Y-38700000D03*
X330800000Y-38400000D03*
X127100000Y-52300000D03*
X86600000Y-55600000D03*
X171700000Y-43000000D03*
X298400000Y-45900000D03*
X76600000Y-39300000D03*
X156300000Y-43000000D03*
X122300000Y-35800000D03*
X105322960Y-42700000D03*
X203861854Y-38899990D03*
X117977892Y-39427000D03*
X98500000Y-47000000D03*
X117900000Y-42700000D03*
X105875000Y-47625000D03*
X101400000Y-50200000D03*
X377600000Y-36100000D03*
X373600000Y-36100000D03*
X403200000Y-42200000D03*
X419471613Y-49588912D03*
X383700000Y-43000000D03*
X419364871Y-43545000D03*
X379500000Y-43000000D03*
X418800000Y-47250000D03*
X378600000Y-51920000D03*
X405900000Y-45400000D03*
X380600000Y-49200000D03*
X370700000Y-51800000D03*
X353200000Y-56000000D03*
X370700000Y-53900000D03*
X385919778Y-49430778D03*
X83000000Y-58900000D03*
X66100000Y-44900000D03*
X85200000Y-56700000D03*
X78886109Y-43525000D03*
X108300000Y-42200000D03*
X124500000Y-54700000D03*
X189310000Y-48900000D03*
X271684864Y-42735318D03*
X191600000Y-48800000D03*
X299082871Y-57280511D03*
X245500000Y-44900000D03*
X172900000Y-39000000D03*
X277800000Y-43100000D03*
X183300000Y-45600000D03*
X231000000Y-40000000D03*
X285780000Y-55600000D03*
X295100000Y-46625000D03*
X301500000Y-57400000D03*
X323200000Y-39500000D03*
X316100000Y-46300000D03*
X379500000Y-38900000D03*
X381990000Y-38933470D03*
X380384931Y-46700000D03*
X380384931Y-45200000D03*
X319300000Y-65390000D03*
X69700000Y-53650000D03*
X67000000Y-54900000D03*
X320564155Y-66564155D03*
X192000000Y-54500000D03*
X141300000Y-54400000D03*
X330392779Y-45440061D03*
X373400000Y-42000000D03*
X227090000Y-54010000D03*
X173000000Y-56500000D03*
X137217681Y-52304247D03*
X187500000Y-53100000D03*
X177603339Y-53222416D03*
X256100000Y-52000000D03*
X225500000Y-52800000D03*
X125000000Y-39599999D03*
X288017415Y-56801714D03*
X283000000Y-47500000D03*
X201225000Y-49800000D03*
X192600000Y-65000000D03*
X200200000Y-64600000D03*
X202377618Y-49616020D03*
X67937500Y-68162500D03*
X200200000Y-69058000D03*
X199954590Y-49851093D03*
X190700000Y-64900000D03*
X173347000Y-64145988D03*
X197361869Y-50140563D03*
X196150000Y-51700000D03*
X173800000Y-62600000D03*
X194925000Y-51775000D03*
X118600000Y-53100000D03*
X173500000Y-65400000D03*
X198667397Y-50024392D03*
X193700000Y-50200000D03*
X172900000Y-59900000D03*
X187000000Y-49800000D03*
X179400000Y-47400000D03*
X208480000Y-65150000D03*
X203628847Y-49603202D03*
X220525000Y-59775000D03*
X213961685Y-51751359D03*
X241100000Y-61900000D03*
X232761481Y-54455979D03*
X241150000Y-63750000D03*
X221300000Y-53000000D03*
X235100000Y-54800000D03*
X227155334Y-52444317D03*
X230800000Y-52500000D03*
X234900000Y-52500000D03*
X214425000Y-50350000D03*
X289600000Y-66200000D03*
X228500000Y-64900000D03*
X231530778Y-66680222D03*
X217200000Y-60300000D03*
X213343700Y-52835793D03*
X294800000Y-51200000D03*
X301156894Y-50684467D03*
X290200000Y-51790003D03*
X251400000Y-48425000D03*
X205873073Y-49509745D03*
X207689719Y-61717859D03*
X212700000Y-61600000D03*
X209008640Y-50653986D03*
X328100000Y-63100000D03*
X214500000Y-61210000D03*
X212275000Y-53825000D03*
X337400000Y-58300000D03*
X391520000Y-65200000D03*
X391507806Y-63457806D03*
X205616252Y-60529393D03*
X205025000Y-49650000D03*
X418500000Y-44400000D03*
X418500000Y-45200000D03*
X364600000Y-54490000D03*
X363971399Y-55959315D03*
X366600000Y-56400000D03*
X354200000Y-58400000D03*
X355798809Y-56501358D03*
X363284216Y-56898832D03*
X282966314Y-42529712D03*
X297600000Y-57400000D03*
X301400000Y-54600000D03*
X277715136Y-39764682D03*
X414600000Y-41400000D03*
X412200000Y-41300000D03*
X61900000Y-30200000D03*
X110050000Y-33050000D03*
X374300000Y-33400000D03*
X216700000Y-50000000D03*
X71031168Y-68368832D03*
X121800000Y-61400000D03*
X122500000Y-66100000D03*
X80000000Y-65700000D03*
X91140000Y-54310000D03*
X325900000Y-61375000D03*
X420700000Y-57500000D03*
X74800000Y-66000000D03*
X341100000Y-64000000D03*
X218684313Y-54484313D03*
X180100000Y-65900000D03*
X273500000Y-59900000D03*
X120965613Y-62234387D03*
X29200000Y-64900000D03*
X125200000Y-66300000D03*
X276700000Y-62100000D03*
X386300000Y-64200000D03*
X323600000Y-56800000D03*
X424600000Y-62100000D03*
X337800000Y-56916821D03*
X319400000Y-49800000D03*
X72100000Y-45800000D03*
X72100000Y-49200000D03*
X362300000Y-50900000D03*
X362186600Y-52100987D03*
X80100000Y-47200000D03*
X85900000Y-58100000D03*
X78700000Y-47200000D03*
X84601787Y-59000279D03*
X63400000Y-35300000D03*
X122600000Y-55310000D03*
X107154842Y-42195195D03*
X105200000Y-34400000D03*
X105562423Y-41821438D03*
X120300000Y-55280000D03*
X105200000Y-36700000D03*
X170600000Y-45600000D03*
X170640510Y-41825000D03*
X171500000Y-53700000D03*
X171200000Y-47400000D03*
X161100000Y-45300000D03*
X156400000Y-34500000D03*
X170300000Y-49010000D03*
X169957570Y-53608759D03*
X284304324Y-54889026D03*
X229700000Y-40800000D03*
X288900000Y-55900000D03*
X226953115Y-39946885D03*
X258400000Y-47400000D03*
X281000000Y-44525000D03*
X287969246Y-45853948D03*
X297092367Y-54789733D03*
X299007806Y-54792194D03*
X290400000Y-46600000D03*
X314800000Y-46300000D03*
X324500000Y-38200000D03*
X313700000Y-38200000D03*
X313681394Y-46525015D03*
X351500000Y-43100000D03*
X317700000Y-42200000D03*
X375800000Y-34500000D03*
X317700000Y-46700000D03*
X319400000Y-42500000D03*
X319400000Y-46600000D03*
X383100000Y-41300000D03*
X324807485Y-46690806D03*
X322900000Y-46600000D03*
X383055542Y-40065802D03*
X277600000Y-52710000D03*
X216400000Y-43970000D03*
X278000000Y-54790000D03*
X331200000Y-46600000D03*
X374377804Y-43514172D03*
X295000000Y-54900000D03*
X312100000Y-48200000D03*
X175500000Y-52700000D03*
X333332806Y-52167194D03*
X296300000Y-54099997D03*
X219100000Y-43400000D03*
X173000000Y-54900000D03*
X313229318Y-47510000D03*
X331400000Y-50600000D03*
X164975303Y-55000242D03*
X174322278Y-54900000D03*
X217200000Y-42600000D03*
X332700000Y-47900000D03*
X292200000Y-63100000D03*
X373665219Y-44378130D03*
X317800000Y-61500000D03*
X180700000Y-52600000D03*
X123800000Y-37100000D03*
X118200000Y-35600000D03*
X168500000Y-49500000D03*
X179313433Y-53813424D03*
X166768480Y-53510883D03*
X146324697Y-49100242D03*
X127600000Y-41600000D03*
X166100000Y-50600000D03*
X278250000Y-49250000D03*
X356900000Y-42200000D03*
X354600000Y-43200000D03*
X191000000Y-56100000D03*
X141805000Y-50095000D03*
X174900000Y-66700000D03*
X328100000Y-44700000D03*
X277069222Y-50380222D03*
X355900000Y-49882806D03*
X378327009Y-46906131D03*
X333000000Y-49200000D03*
X276700000Y-56100000D03*
X164902387Y-60626021D03*
X373000000Y-45300000D03*
X287814394Y-64723954D03*
X189926610Y-57306972D03*
X166665687Y-59165687D03*
X334400000Y-51190000D03*
X318300000Y-63700000D03*
X268685399Y-64616690D03*
X288600000Y-65500000D03*
X375050000Y-41750000D03*
X320400000Y-61700000D03*
X268400000Y-66100000D03*
X245600000Y-63800000D03*
X337082781Y-48220318D03*
X353450000Y-53350000D03*
X347800242Y-54675303D03*
X354400000Y-49292806D03*
X350012149Y-54685421D03*
X352000000Y-49200000D03*
X349188402Y-53185996D03*
X337600000Y-46510000D03*
X315200000Y-62200000D03*
X260700000Y-62100000D03*
X268985421Y-63212149D03*
X286084456Y-64142228D03*
X362500000Y-39300000D03*
X149100000Y-48400000D03*
X168035493Y-53767559D03*
X167166606Y-50590000D03*
X166100000Y-54310000D03*
X144617194Y-50117194D03*
X164977862Y-50589185D03*
X133700000Y-56466000D03*
X139872771Y-51527229D03*
X269284864Y-61935318D03*
X299113364Y-59713366D03*
X285700000Y-62925000D03*
X264200000Y-61000000D03*
X126500000Y-53900000D03*
X89187798Y-49575000D03*
X119000000Y-38700000D03*
X108900000Y-39325000D03*
X86900000Y-48700000D03*
X85499997Y-48100000D03*
X87600000Y-49400000D03*
X206810201Y-49335398D03*
X216200000Y-64800000D03*
X392600000Y-68675000D03*
X216200000Y-68940000D03*
X207695000Y-51000000D03*
X378300000Y-69040000D03*
X217920000Y-68940000D03*
X217600000Y-64690000D03*
X281100000Y-42100000D03*
X291800000Y-55300000D03*
X286791240Y-55552687D03*
X281135318Y-43384864D03*
X290450000Y-55850000D03*
M02*
