%TF.GenerationSoftware,KiCad,Pcbnew,8.0.1-8.0.1-1~ubuntu22.04.1*%
%TF.CreationDate,2024-04-25T17:15:55+02:00*%
%TF.ProjectId,Partial_Drawer_Controller_v1,50617274-6961-46c5-9f44-72617765725f,rev?*%
%TF.SameCoordinates,Original*%
%TF.FileFunction,Soldermask,Bot*%
%TF.FilePolarity,Negative*%
%FSLAX46Y46*%
G04 Gerber Fmt 4.6, Leading zero omitted, Abs format (unit mm)*
G04 Created by KiCad (PCBNEW 8.0.1-8.0.1-1~ubuntu22.04.1) date 2024-04-25 17:15:55*
%MOMM*%
%LPD*%
G01*
G04 APERTURE LIST*
G04 Aperture macros list*
%AMRoundRect*
0 Rectangle with rounded corners*
0 $1 Rounding radius*
0 $2 $3 $4 $5 $6 $7 $8 $9 X,Y pos of 4 corners*
0 Add a 4 corners polygon primitive as box body*
4,1,4,$2,$3,$4,$5,$6,$7,$8,$9,$2,$3,0*
0 Add four circle primitives for the rounded corners*
1,1,$1+$1,$2,$3*
1,1,$1+$1,$4,$5*
1,1,$1+$1,$6,$7*
1,1,$1+$1,$8,$9*
0 Add four rect primitives between the rounded corners*
20,1,$1+$1,$2,$3,$4,$5,0*
20,1,$1+$1,$4,$5,$6,$7,0*
20,1,$1+$1,$6,$7,$8,$9,0*
20,1,$1+$1,$8,$9,$2,$3,0*%
G04 Aperture macros list end*
%ADD10C,3.600000*%
%ADD11C,5.600000*%
%ADD12C,2.600000*%
%ADD13C,3.800000*%
%ADD14C,4.400000*%
%ADD15C,9.400000*%
%ADD16R,1.700000X1.700000*%
%ADD17O,1.700000X1.700000*%
%ADD18O,1.704000X0.954000*%
%ADD19O,1.004000X1.784000*%
%ADD20O,2.000000X2.800000*%
%ADD21RoundRect,0.250000X-0.725000X0.600000X-0.725000X-0.600000X0.725000X-0.600000X0.725000X0.600000X0*%
%ADD22O,1.950000X1.700000*%
%ADD23C,1.270000*%
%ADD24RoundRect,0.250001X-0.499999X-0.759999X0.499999X-0.759999X0.499999X0.759999X-0.499999X0.759999X0*%
%ADD25O,1.500000X2.020000*%
%ADD26RoundRect,0.250001X-0.759999X0.499999X-0.759999X-0.499999X0.759999X-0.499999X0.759999X0.499999X0*%
%ADD27O,2.020000X1.500000*%
%ADD28C,2.000000*%
%ADD29RoundRect,0.218750X0.256250X-0.218750X0.256250X0.218750X-0.256250X0.218750X-0.256250X-0.218750X0*%
%ADD30RoundRect,0.218750X-0.256250X0.218750X-0.256250X-0.218750X0.256250X-0.218750X0.256250X0.218750X0*%
%ADD31RoundRect,0.200000X-0.200000X-0.275000X0.200000X-0.275000X0.200000X0.275000X-0.200000X0.275000X0*%
%ADD32RoundRect,0.200000X0.275000X-0.200000X0.275000X0.200000X-0.275000X0.200000X-0.275000X-0.200000X0*%
%ADD33RoundRect,0.135000X0.185000X-0.135000X0.185000X0.135000X-0.185000X0.135000X-0.185000X-0.135000X0*%
%ADD34RoundRect,0.135000X-0.135000X-0.185000X0.135000X-0.185000X0.135000X0.185000X-0.135000X0.185000X0*%
%ADD35RoundRect,0.250000X1.075000X-0.312500X1.075000X0.312500X-1.075000X0.312500X-1.075000X-0.312500X0*%
%ADD36RoundRect,0.140000X-0.140000X-0.170000X0.140000X-0.170000X0.140000X0.170000X-0.140000X0.170000X0*%
%ADD37RoundRect,0.200000X0.200000X0.275000X-0.200000X0.275000X-0.200000X-0.275000X0.200000X-0.275000X0*%
%ADD38RoundRect,0.200000X-0.275000X0.200000X-0.275000X-0.200000X0.275000X-0.200000X0.275000X0.200000X0*%
%ADD39RoundRect,0.135000X-0.185000X0.135000X-0.185000X-0.135000X0.185000X-0.135000X0.185000X0.135000X0*%
%ADD40RoundRect,0.135000X0.135000X0.185000X-0.135000X0.185000X-0.135000X-0.185000X0.135000X-0.185000X0*%
%ADD41RoundRect,0.055580X-0.676420X-0.341420X0.676420X-0.341420X0.676420X0.341420X-0.676420X0.341420X0*%
%ADD42RoundRect,0.250000X-1.075000X0.312500X-1.075000X-0.312500X1.075000X-0.312500X1.075000X0.312500X0*%
%ADD43RoundRect,0.062500X0.337500X0.062500X-0.337500X0.062500X-0.337500X-0.062500X0.337500X-0.062500X0*%
%ADD44RoundRect,0.062500X0.062500X0.337500X-0.062500X0.337500X-0.062500X-0.337500X0.062500X-0.337500X0*%
%ADD45R,3.350000X3.350000*%
%ADD46RoundRect,0.140000X0.170000X-0.140000X0.170000X0.140000X-0.170000X0.140000X-0.170000X-0.140000X0*%
%ADD47RoundRect,0.062500X-0.062500X0.412500X-0.062500X-0.412500X0.062500X-0.412500X0.062500X0.412500X0*%
%ADD48RoundRect,0.062500X-0.412500X0.062500X-0.412500X-0.062500X0.412500X-0.062500X0.412500X0.062500X0*%
%ADD49R,3.100000X3.100000*%
%ADD50RoundRect,0.140000X-0.170000X0.140000X-0.170000X-0.140000X0.170000X-0.140000X0.170000X0.140000X0*%
%ADD51RoundRect,0.250000X-0.250000X-0.475000X0.250000X-0.475000X0.250000X0.475000X-0.250000X0.475000X0*%
%ADD52RoundRect,0.140000X0.140000X0.170000X-0.140000X0.170000X-0.140000X-0.170000X0.140000X-0.170000X0*%
%ADD53RoundRect,0.050000X0.050000X-0.362500X0.050000X0.362500X-0.050000X0.362500X-0.050000X-0.362500X0*%
%ADD54RoundRect,0.050000X0.362500X-0.050000X0.362500X0.050000X-0.362500X0.050000X-0.362500X-0.050000X0*%
%ADD55R,3.800000X2.800000*%
%ADD56C,0.600000*%
G04 APERTURE END LIST*
D10*
%TO.C,H4*%
X115100000Y-23700000D03*
D11*
X115100000Y-23700000D03*
%TD*%
D12*
%TO.C,H46*%
X42000000Y-46300000D03*
D13*
X42000000Y-46300000D03*
%TD*%
D14*
%TO.C,H31*%
X388600000Y-36260000D03*
%TD*%
D10*
%TO.C,H7*%
X190740000Y-39470000D03*
D11*
X190740000Y-39470000D03*
%TD*%
D10*
%TO.C,H39*%
X383300000Y-59000000D03*
D15*
X383300000Y-59000000D03*
%TD*%
D16*
%TO.C,J4*%
X256340000Y-39860000D03*
D17*
X256340000Y-42400000D03*
X258880000Y-39860000D03*
X258880000Y-42400000D03*
X261420000Y-39860000D03*
X261420000Y-42400000D03*
X263960000Y-39860000D03*
X263960000Y-42400000D03*
X266500000Y-39860000D03*
X266500000Y-42400000D03*
%TD*%
D10*
%TO.C,H35*%
X178940000Y-59000000D03*
D15*
X178940000Y-59000000D03*
%TD*%
D14*
%TO.C,H19*%
X82060000Y-36260000D03*
%TD*%
D16*
%TO.C,J1*%
X388480000Y-68200000D03*
D17*
X388480000Y-65660000D03*
X385940000Y-68200000D03*
X385940000Y-65660000D03*
X383400000Y-68200000D03*
X383400000Y-65660000D03*
X380860000Y-68200000D03*
X380860000Y-65660000D03*
%TD*%
D18*
%TO.C,X1*%
X425750000Y-48050000D03*
D19*
X423050000Y-47025000D03*
X423050000Y-42025000D03*
D18*
X425750000Y-41000000D03*
%TD*%
D12*
%TO.C,H45*%
X106600000Y-55800000D03*
D13*
X106600000Y-55800000D03*
%TD*%
D14*
%TO.C,H17*%
X30970000Y-36260000D03*
%TD*%
D20*
%TO.C,X3*%
X63500000Y-58750000D03*
D21*
X70000000Y-55000000D03*
D22*
X70000000Y-57500000D03*
X70000000Y-60000000D03*
X70000000Y-62500000D03*
%TD*%
D20*
%TO.C,X2*%
X63500000Y-45000000D03*
D21*
X70000000Y-41250000D03*
D22*
X70000000Y-43750000D03*
X70000000Y-46250000D03*
X70000000Y-48750000D03*
%TD*%
D12*
%TO.C,H42*%
X42000000Y-62600000D03*
D13*
X42000000Y-62600000D03*
%TD*%
D10*
%TO.C,H3*%
X88560000Y-39470000D03*
D11*
X88560000Y-39470000D03*
%TD*%
D23*
%TO.C,X9*%
X306450000Y-32040000D03*
X318450000Y-32040000D03*
D24*
X309450000Y-34000000D03*
D25*
X312450000Y-34000000D03*
X315450000Y-34000000D03*
%TD*%
D23*
%TO.C,X11*%
X408630000Y-32040000D03*
X420630000Y-32040000D03*
D24*
X411630000Y-34000000D03*
D25*
X414630000Y-34000000D03*
X417630000Y-34000000D03*
%TD*%
D10*
%TO.C,H15*%
X395100000Y-39470000D03*
D11*
X395100000Y-39470000D03*
%TD*%
D10*
%TO.C,H16*%
X421640000Y-23700000D03*
D11*
X421640000Y-23700000D03*
%TD*%
D14*
%TO.C,H20*%
X95060000Y-36260000D03*
%TD*%
D10*
%TO.C,H36*%
X230030000Y-59000000D03*
D15*
X230030000Y-59000000D03*
%TD*%
D10*
%TO.C,H33*%
X76760000Y-59000000D03*
D15*
X76760000Y-59000000D03*
%TD*%
D10*
%TO.C,H11*%
X292920000Y-39470000D03*
D11*
X292920000Y-39470000D03*
%TD*%
D10*
%TO.C,H2*%
X64010000Y-23700000D03*
D11*
X64010000Y-23700000D03*
%TD*%
D14*
%TO.C,H29*%
X337510000Y-36260000D03*
%TD*%
%TO.C,H18*%
X43970000Y-36260000D03*
%TD*%
D23*
%TO.C,X8*%
X255360000Y-32040000D03*
X267360000Y-32040000D03*
D24*
X258360000Y-34000000D03*
D25*
X261360000Y-34000000D03*
X264360000Y-34000000D03*
%TD*%
D10*
%TO.C,H34*%
X127850000Y-59000000D03*
D15*
X127850000Y-59000000D03*
%TD*%
D23*
%TO.C,X7*%
X204270000Y-32040000D03*
X216270000Y-32040000D03*
D24*
X207270000Y-34000000D03*
D25*
X210270000Y-34000000D03*
X213270000Y-34000000D03*
%TD*%
D14*
%TO.C,H22*%
X146150000Y-36260000D03*
%TD*%
%TO.C,H28*%
X299420000Y-36260000D03*
%TD*%
D16*
%TO.C,JP1*%
X417400000Y-51900000D03*
D17*
X417400000Y-54440000D03*
%TD*%
D14*
%TO.C,H24*%
X197240000Y-36260000D03*
%TD*%
D10*
%TO.C,H38*%
X332210000Y-59000000D03*
D15*
X332210000Y-59000000D03*
%TD*%
D14*
%TO.C,H23*%
X184240000Y-36260000D03*
%TD*%
D10*
%TO.C,H14*%
X370550000Y-23700000D03*
D11*
X370550000Y-23700000D03*
%TD*%
D10*
%TO.C,H37*%
X281120000Y-59000000D03*
D15*
X281120000Y-59000000D03*
%TD*%
D10*
%TO.C,H6*%
X166190000Y-23700000D03*
D11*
X166190000Y-23700000D03*
%TD*%
D12*
%TO.C,H43*%
X196100000Y-62600000D03*
D13*
X196100000Y-62600000D03*
%TD*%
D14*
%TO.C,H25*%
X235330000Y-36260000D03*
%TD*%
D23*
%TO.C,X10*%
X356800000Y-31140000D03*
X368800000Y-31140000D03*
D24*
X359800000Y-33100000D03*
D25*
X362800000Y-33100000D03*
X365800000Y-33100000D03*
%TD*%
D20*
%TO.C,X12*%
X166500000Y-47500000D03*
D21*
X173000000Y-45000000D03*
D22*
X173000000Y-47500000D03*
X173000000Y-50000000D03*
%TD*%
D23*
%TO.C,X5*%
X110418000Y-28496000D03*
X110418000Y-40496000D03*
D26*
X108458000Y-31496000D03*
D27*
X108458000Y-34496000D03*
X108458000Y-37496000D03*
%TD*%
D14*
%TO.C,H27*%
X286420000Y-36260000D03*
%TD*%
%TO.C,H21*%
X133150000Y-36260000D03*
%TD*%
D10*
%TO.C,H13*%
X344010000Y-39470000D03*
D11*
X344010000Y-39470000D03*
%TD*%
D10*
%TO.C,H40*%
X25670000Y-59000000D03*
D15*
X25670000Y-59000000D03*
%TD*%
D14*
%TO.C,H32*%
X401600000Y-36260000D03*
%TD*%
D21*
%TO.C,X14*%
X274400000Y-47600000D03*
D22*
X274400000Y-50100000D03*
%TD*%
D10*
%TO.C,H10*%
X268370000Y-23700000D03*
D11*
X268370000Y-23700000D03*
%TD*%
D23*
%TO.C,X6*%
X161550000Y-28500000D03*
X161550000Y-40500000D03*
D26*
X159590000Y-31500000D03*
D27*
X159590000Y-34500000D03*
X159590000Y-37500000D03*
%TD*%
D12*
%TO.C,H44*%
X42000000Y-55600000D03*
D13*
X42000000Y-55600000D03*
%TD*%
D28*
%TO.C,S11*%
X76190000Y-46730000D03*
X76190000Y-49270000D03*
X83810000Y-46730000D03*
X83810000Y-49270000D03*
%TD*%
D10*
%TO.C,H5*%
X139650000Y-39470000D03*
D11*
X139650000Y-39470000D03*
%TD*%
D14*
%TO.C,H30*%
X350510000Y-36260000D03*
%TD*%
D16*
%TO.C,J2*%
X330360000Y-65400000D03*
D17*
X330360000Y-67940000D03*
X332900000Y-65400000D03*
X332900000Y-67940000D03*
X335440000Y-65400000D03*
X335440000Y-67940000D03*
%TD*%
D12*
%TO.C,H41*%
X106600000Y-62700000D03*
D13*
X106600000Y-62700000D03*
%TD*%
D14*
%TO.C,H26*%
X248330000Y-36260000D03*
%TD*%
D10*
%TO.C,H12*%
X319460000Y-23700000D03*
D11*
X319460000Y-23700000D03*
%TD*%
D23*
%TO.C,X4*%
X51000000Y-32040000D03*
X63000000Y-32040000D03*
D24*
X54000000Y-34000000D03*
D25*
X57000000Y-34000000D03*
X60000000Y-34000000D03*
%TD*%
D10*
%TO.C,H8*%
X217280000Y-23700000D03*
D11*
X217280000Y-23700000D03*
%TD*%
D10*
%TO.C,H9*%
X241830000Y-39470000D03*
D11*
X241830000Y-39470000D03*
%TD*%
D10*
%TO.C,H1*%
X37470000Y-39470000D03*
D11*
X37470000Y-39470000D03*
%TD*%
D20*
%TO.C,X13*%
X216500000Y-55250000D03*
D21*
X223000000Y-46500000D03*
D22*
X223000000Y-49000000D03*
X223000000Y-51500000D03*
X223000000Y-54000000D03*
X223000000Y-56500000D03*
X223000000Y-59000000D03*
X223000000Y-61500000D03*
X223000000Y-64000000D03*
%TD*%
D29*
%TO.C,D164*%
X372782500Y-52787500D03*
X372782500Y-51212500D03*
%TD*%
D30*
%TO.C,D167*%
X359897500Y-51212500D03*
X359897500Y-52787500D03*
%TD*%
D31*
%TO.C,R92*%
X32975000Y-66800000D03*
X34625000Y-66800000D03*
%TD*%
D30*
%TO.C,D62*%
X146947500Y-58212500D03*
X146947500Y-59787500D03*
%TD*%
%TO.C,D52*%
X138357500Y-65212500D03*
X138357500Y-66787500D03*
%TD*%
D32*
%TO.C,R117*%
X84100000Y-52800000D03*
X84100000Y-51150000D03*
%TD*%
D33*
%TO.C,R227*%
X119380000Y-37371000D03*
X119380000Y-36351000D03*
%TD*%
D29*
%TO.C,D102*%
X262012500Y-66787500D03*
X262012500Y-65212500D03*
%TD*%
D34*
%TO.C,R18*%
X414680000Y-48300000D03*
X415700000Y-48300000D03*
%TD*%
D29*
%TO.C,D136*%
X304512500Y-59787500D03*
X304512500Y-58212500D03*
%TD*%
D31*
%TO.C,R135*%
X182975000Y-64500000D03*
X184625000Y-64500000D03*
%TD*%
D29*
%TO.C,D39*%
X100152500Y-59787500D03*
X100152500Y-58212500D03*
%TD*%
%TO.C,D63*%
X151242500Y-59787500D03*
X151242500Y-58212500D03*
%TD*%
D30*
%TO.C,D64*%
X155537500Y-58212500D03*
X155537500Y-59787500D03*
%TD*%
%TO.C,D173*%
X419577500Y-65212500D03*
X419577500Y-66787500D03*
%TD*%
D35*
%TO.C,R230*%
X114961000Y-39762500D03*
X114961000Y-36837500D03*
%TD*%
D29*
%TO.C,D168*%
X355602500Y-52787500D03*
X355602500Y-51212500D03*
%TD*%
%TO.C,D79*%
X202332500Y-66787500D03*
X202332500Y-65212500D03*
%TD*%
%TO.C,D174*%
X415282500Y-66787500D03*
X415282500Y-65212500D03*
%TD*%
%TO.C,D144*%
X304512500Y-52787500D03*
X304512500Y-51212500D03*
%TD*%
D30*
%TO.C,D171*%
X342717500Y-51212500D03*
X342717500Y-52787500D03*
%TD*%
%TO.C,D139*%
X291627500Y-58212500D03*
X291627500Y-59787500D03*
%TD*%
%TO.C,D175*%
X410987500Y-65212500D03*
X410987500Y-66787500D03*
%TD*%
D29*
%TO.C,D21*%
X40472500Y-52787500D03*
X40472500Y-51212500D03*
%TD*%
D30*
%TO.C,D18*%
X61250000Y-58212500D03*
X61250000Y-59787500D03*
%TD*%
%TO.C,D103*%
X257717500Y-65212500D03*
X257717500Y-66787500D03*
%TD*%
%TO.C,D169*%
X351307500Y-51212500D03*
X351307500Y-52787500D03*
%TD*%
D29*
%TO.C,D31*%
X100152500Y-66787500D03*
X100152500Y-65212500D03*
%TD*%
D34*
%TO.C,R216*%
X214090000Y-44800000D03*
X215110000Y-44800000D03*
%TD*%
D29*
%TO.C,D65*%
X159832500Y-59787500D03*
X159832500Y-58212500D03*
%TD*%
D36*
%TO.C,C61*%
X122835000Y-44735000D03*
X123795000Y-44735000D03*
%TD*%
D32*
%TO.C,R150*%
X272190000Y-59860000D03*
X272190000Y-58210000D03*
%TD*%
D37*
%TO.C,R115*%
X90300000Y-54290000D03*
X88650000Y-54290000D03*
%TD*%
D32*
%TO.C,R174*%
X374380000Y-59835000D03*
X374380000Y-58185000D03*
%TD*%
D29*
%TO.C,D89*%
X210922500Y-59787500D03*
X210922500Y-58212500D03*
%TD*%
D38*
%TO.C,R134*%
X187900000Y-65175000D03*
X187900000Y-66825000D03*
%TD*%
D30*
%TO.C,D113*%
X249127500Y-58212500D03*
X249127500Y-59787500D03*
%TD*%
D29*
%TO.C,D57*%
X159832500Y-66787500D03*
X159832500Y-65212500D03*
%TD*%
%TO.C,D83*%
X219512500Y-66787500D03*
X219512500Y-65212500D03*
%TD*%
D31*
%TO.C,R173*%
X372809000Y-61468000D03*
X374459000Y-61468000D03*
%TD*%
D39*
%TO.C,R17*%
X413700000Y-48280000D03*
X413700000Y-49300000D03*
%TD*%
D30*
%TO.C,D119*%
X257717500Y-51212500D03*
X257717500Y-52787500D03*
%TD*%
D29*
%TO.C,D17*%
X57652500Y-59787500D03*
X57652500Y-58212500D03*
%TD*%
%TO.C,D71*%
X151242500Y-52787500D03*
X151242500Y-51212500D03*
%TD*%
D40*
%TO.C,R26*%
X415720000Y-49400000D03*
X414700000Y-49400000D03*
%TD*%
D29*
%TO.C,D186*%
X398102500Y-59787500D03*
X398102500Y-58212500D03*
%TD*%
D32*
%TO.C,R183*%
X425577000Y-62102000D03*
X425577000Y-60452000D03*
%TD*%
%TO.C,R162*%
X323260000Y-59835000D03*
X323260000Y-58185000D03*
%TD*%
%TO.C,R103*%
X32600000Y-60525000D03*
X32600000Y-58875000D03*
%TD*%
D31*
%TO.C,R101*%
X34675000Y-62900000D03*
X36325000Y-62900000D03*
%TD*%
D30*
%TO.C,D20*%
X36177500Y-51212500D03*
X36177500Y-52787500D03*
%TD*%
%TO.C,D84*%
X189447500Y-58212500D03*
X189447500Y-59787500D03*
%TD*%
%TO.C,D131*%
X291627500Y-65212500D03*
X291627500Y-66787500D03*
%TD*%
D38*
%TO.C,R125*%
X136750000Y-58975000D03*
X136750000Y-60625000D03*
%TD*%
D29*
%TO.C,D100*%
X270602500Y-66787500D03*
X270602500Y-65212500D03*
%TD*%
%TO.C,D150*%
X364192500Y-66787500D03*
X364192500Y-65212500D03*
%TD*%
%TO.C,D6*%
X49062500Y-66787500D03*
X49062500Y-65212500D03*
%TD*%
D30*
%TO.C,D137*%
X300217500Y-58212500D03*
X300217500Y-59787500D03*
%TD*%
D29*
%TO.C,D53*%
X142652500Y-66787500D03*
X142652500Y-65212500D03*
%TD*%
%TO.C,D47*%
X100152500Y-52787500D03*
X100152500Y-51212500D03*
%TD*%
D32*
%TO.C,R133*%
X186300000Y-66825000D03*
X186300000Y-65175000D03*
%TD*%
D29*
%TO.C,D132*%
X321692500Y-59787500D03*
X321692500Y-58212500D03*
%TD*%
D30*
%TO.C,D86*%
X198037500Y-58212500D03*
X198037500Y-59787500D03*
%TD*%
D29*
%TO.C,D128*%
X304512500Y-66787500D03*
X304512500Y-65212500D03*
%TD*%
%TO.C,D154*%
X347012500Y-66787500D03*
X347012500Y-65212500D03*
%TD*%
D30*
%TO.C,D117*%
X266307500Y-51212500D03*
X266307500Y-52787500D03*
%TD*%
%TO.C,D153*%
X351307500Y-65212500D03*
X351307500Y-66787500D03*
%TD*%
D41*
%TO.C,U3*%
X72340000Y-48450000D03*
X72340000Y-46550000D03*
X74300000Y-47500000D03*
%TD*%
D42*
%TO.C,R229*%
X114961000Y-42337500D03*
X114961000Y-45262500D03*
%TD*%
D30*
%TO.C,D46*%
X95857500Y-51212500D03*
X95857500Y-52787500D03*
%TD*%
D31*
%TO.C,R138*%
X189180000Y-61300000D03*
X190830000Y-61300000D03*
%TD*%
D30*
%TO.C,D165*%
X368487500Y-51212500D03*
X368487500Y-52787500D03*
%TD*%
D29*
%TO.C,D152*%
X355602500Y-66787500D03*
X355602500Y-65212500D03*
%TD*%
%TO.C,D45*%
X91562500Y-52787500D03*
X91562500Y-51212500D03*
%TD*%
D30*
%TO.C,D155*%
X342717500Y-65212500D03*
X342717500Y-66787500D03*
%TD*%
D40*
%TO.C,R219*%
X214320000Y-40900000D03*
X213300000Y-40900000D03*
%TD*%
D30*
%TO.C,D36*%
X87267500Y-58212500D03*
X87267500Y-59787500D03*
%TD*%
%TO.C,D88*%
X206627500Y-58212500D03*
X206627500Y-59787500D03*
%TD*%
%TO.C,D70*%
X146947500Y-51212500D03*
X146947500Y-52787500D03*
%TD*%
D31*
%TO.C,R109*%
X80975000Y-66800000D03*
X82625000Y-66800000D03*
%TD*%
D33*
%TO.C,R33*%
X60057000Y-31244000D03*
X60057000Y-30224000D03*
%TD*%
D30*
%TO.C,D125*%
X317397500Y-65212500D03*
X317397500Y-66787500D03*
%TD*%
D29*
%TO.C,D25*%
X57652500Y-52787500D03*
X57652500Y-51212500D03*
%TD*%
D30*
%TO.C,D135*%
X308807500Y-58212500D03*
X308807500Y-59787500D03*
%TD*%
D29*
%TO.C,D73*%
X159832500Y-52787500D03*
X159832500Y-51212500D03*
%TD*%
D31*
%TO.C,R142*%
X188350000Y-54300000D03*
X190000000Y-54300000D03*
%TD*%
D29*
%TO.C,D4*%
X40472500Y-66787500D03*
X40472500Y-65212500D03*
%TD*%
%TO.C,D172*%
X423872500Y-66787500D03*
X423872500Y-65212500D03*
%TD*%
%TO.C,D184*%
X406692500Y-59787500D03*
X406692500Y-58212500D03*
%TD*%
D30*
%TO.C,D141*%
X317397500Y-51212500D03*
X317397500Y-52787500D03*
%TD*%
%TO.C,D129*%
X300217500Y-65212500D03*
X300217500Y-66787500D03*
%TD*%
D29*
%TO.C,D124*%
X321692500Y-66787500D03*
X321692500Y-65212500D03*
%TD*%
%TO.C,D59*%
X168422500Y-66787500D03*
X168422500Y-65212500D03*
%TD*%
%TO.C,D23*%
X49062500Y-52787500D03*
X49062500Y-51212500D03*
%TD*%
D30*
%TO.C,D151*%
X359897500Y-65212500D03*
X359897500Y-66787500D03*
%TD*%
%TO.C,D161*%
X351307500Y-58212500D03*
X351307500Y-59787500D03*
%TD*%
%TO.C,D42*%
X113037500Y-58212500D03*
X113037500Y-59787500D03*
%TD*%
D31*
%TO.C,R136*%
X185050000Y-62900000D03*
X186700000Y-62900000D03*
%TD*%
D29*
%TO.C,D156*%
X372782500Y-59787500D03*
X372782500Y-58212500D03*
%TD*%
D31*
%TO.C,R111*%
X80875000Y-64500000D03*
X82525000Y-64500000D03*
%TD*%
D30*
%TO.C,D50*%
X113037500Y-51212500D03*
X113037500Y-52787500D03*
%TD*%
D29*
%TO.C,D190*%
X415282500Y-52787500D03*
X415282500Y-51212500D03*
%TD*%
D37*
%TO.C,R95*%
X28450000Y-65200000D03*
X26800000Y-65200000D03*
%TD*%
D30*
%TO.C,D98*%
X215217500Y-51212500D03*
X215217500Y-52787500D03*
%TD*%
D31*
%TO.C,R105*%
X32965000Y-54320000D03*
X34615000Y-54320000D03*
%TD*%
D39*
%TO.C,R27*%
X412700000Y-48280000D03*
X412700000Y-49300000D03*
%TD*%
D31*
%TO.C,R25*%
X410575000Y-40100000D03*
X412225000Y-40100000D03*
%TD*%
D29*
%TO.C,D162*%
X347012500Y-59787500D03*
X347012500Y-58212500D03*
%TD*%
%TO.C,D41*%
X108742500Y-59787500D03*
X108742500Y-58212500D03*
%TD*%
D30*
%TO.C,D60*%
X138357500Y-58212500D03*
X138357500Y-59787500D03*
%TD*%
D43*
%TO.C,U6*%
X415200000Y-43100000D03*
X415200000Y-43600000D03*
X415200000Y-44100000D03*
X415200000Y-44600000D03*
X415200000Y-45100000D03*
X415200000Y-45600000D03*
X415200000Y-46100000D03*
D44*
X414250000Y-47050000D03*
X413750000Y-47050000D03*
X413250000Y-47050000D03*
X412750000Y-47050000D03*
X412250000Y-47050000D03*
X411750000Y-47050000D03*
X411250000Y-47050000D03*
D43*
X410300000Y-46100000D03*
X410300000Y-45600000D03*
X410300000Y-45100000D03*
X410300000Y-44600000D03*
X410300000Y-44100000D03*
X410300000Y-43600000D03*
X410300000Y-43100000D03*
D44*
X411250000Y-42150000D03*
X411750000Y-42150000D03*
X412250000Y-42150000D03*
X412750000Y-42150000D03*
X413250000Y-42150000D03*
X413750000Y-42150000D03*
X414250000Y-42150000D03*
D45*
X412750000Y-44600000D03*
%TD*%
D39*
%TO.C,R34*%
X61200000Y-30222000D03*
X61200000Y-31242000D03*
%TD*%
D29*
%TO.C,D51*%
X117332500Y-52787500D03*
X117332500Y-51212500D03*
%TD*%
D32*
%TO.C,R163*%
X323290000Y-55905000D03*
X323290000Y-54255000D03*
%TD*%
D31*
%TO.C,R108*%
X77900000Y-66800000D03*
X79550000Y-66800000D03*
%TD*%
D29*
%TO.C,D37*%
X91562500Y-59787500D03*
X91562500Y-58212500D03*
%TD*%
D38*
%TO.C,R155*%
X326700000Y-61375000D03*
X326700000Y-63025000D03*
%TD*%
D30*
%TO.C,D133*%
X317397500Y-58212500D03*
X317397500Y-59787500D03*
%TD*%
%TO.C,D90*%
X215217500Y-58212500D03*
X215217500Y-59787500D03*
%TD*%
D31*
%TO.C,R123*%
X134075000Y-62100000D03*
X135725000Y-62100000D03*
%TD*%
D30*
%TO.C,D40*%
X104447500Y-58212500D03*
X104447500Y-59787500D03*
%TD*%
D32*
%TO.C,R175*%
X374396000Y-55943000D03*
X374396000Y-54293000D03*
%TD*%
D29*
%TO.C,D33*%
X108742500Y-66787500D03*
X108742500Y-65212500D03*
%TD*%
%TO.C,D116*%
X270602500Y-52787500D03*
X270602500Y-51212500D03*
%TD*%
D46*
%TO.C,C60*%
X117247000Y-39401000D03*
X117247000Y-38441000D03*
%TD*%
D30*
%TO.C,D48*%
X104447500Y-51212500D03*
X104447500Y-52787500D03*
%TD*%
D38*
%TO.C,R167*%
X377698000Y-63501000D03*
X377698000Y-65151000D03*
%TD*%
D32*
%TO.C,R158*%
X323270000Y-66835000D03*
X323270000Y-65185000D03*
%TD*%
D29*
%TO.C,D118*%
X262012500Y-52787500D03*
X262012500Y-51212500D03*
%TD*%
D47*
%TO.C,U11*%
X119438000Y-38677000D03*
X119938000Y-38677000D03*
X120438000Y-38677000D03*
X120938000Y-38677000D03*
X121438000Y-38677000D03*
X121938000Y-38677000D03*
X122438000Y-38677000D03*
D48*
X123313000Y-39552000D03*
X123313000Y-40052000D03*
X123313000Y-40552000D03*
X123313000Y-41052000D03*
X123313000Y-41552000D03*
X123313000Y-42052000D03*
X123313000Y-42552000D03*
D47*
X122438000Y-43427000D03*
X121938000Y-43427000D03*
X121438000Y-43427000D03*
X120938000Y-43427000D03*
X120438000Y-43427000D03*
X119938000Y-43427000D03*
X119438000Y-43427000D03*
D48*
X118563000Y-42552000D03*
X118563000Y-42052000D03*
X118563000Y-41552000D03*
X118563000Y-41052000D03*
X118563000Y-40552000D03*
X118563000Y-40052000D03*
X118563000Y-39552000D03*
D49*
X120938000Y-41052000D03*
%TD*%
D29*
%TO.C,D61*%
X142652500Y-59787500D03*
X142652500Y-58212500D03*
%TD*%
D30*
%TO.C,D111*%
X257718310Y-58212500D03*
X257718310Y-59787500D03*
%TD*%
D29*
%TO.C,D182*%
X415282500Y-59787500D03*
X415282500Y-58212500D03*
%TD*%
D31*
%TO.C,R113*%
X83990000Y-61320000D03*
X85640000Y-61320000D03*
%TD*%
%TO.C,R141*%
X185165000Y-54260000D03*
X186815000Y-54260000D03*
%TD*%
%TO.C,R126*%
X138275000Y-61300000D03*
X139925000Y-61300000D03*
%TD*%
D30*
%TO.C,D22*%
X44767500Y-51212500D03*
X44767500Y-52787500D03*
%TD*%
D50*
%TO.C,C59*%
X117247000Y-42759000D03*
X117247000Y-43719000D03*
%TD*%
D29*
%TO.C,D122*%
X244832500Y-52787500D03*
X244832500Y-51212500D03*
%TD*%
D31*
%TO.C,R139*%
X184750000Y-58900000D03*
X186400000Y-58900000D03*
%TD*%
D29*
%TO.C,D81*%
X210922500Y-66787500D03*
X210922500Y-65212500D03*
%TD*%
%TO.C,D146*%
X295922500Y-52787500D03*
X295922500Y-51212500D03*
%TD*%
D32*
%TO.C,R187*%
X420700000Y-56750000D03*
X420700000Y-55100000D03*
%TD*%
D29*
%TO.C,D19*%
X66242500Y-59787500D03*
X66242500Y-58212500D03*
%TD*%
D31*
%TO.C,R189*%
X423775000Y-54300000D03*
X425425000Y-54300000D03*
%TD*%
D50*
%TO.C,C22*%
X416400000Y-45890000D03*
X416400000Y-46850000D03*
%TD*%
D30*
%TO.C,D80*%
X206627500Y-65212500D03*
X206627500Y-66787500D03*
%TD*%
%TO.C,D191*%
X410987500Y-51212500D03*
X410987500Y-52787500D03*
%TD*%
D29*
%TO.C,D158*%
X364192500Y-59787500D03*
X364192500Y-58212500D03*
%TD*%
%TO.C,D134*%
X313102500Y-59787500D03*
X313102500Y-58212500D03*
%TD*%
D32*
%TO.C,R178*%
X374396000Y-52831000D03*
X374396000Y-51181000D03*
%TD*%
D30*
%TO.C,D32*%
X104447500Y-65212500D03*
X104447500Y-66787500D03*
%TD*%
%TO.C,D157*%
X368487500Y-58212500D03*
X368487500Y-59787500D03*
%TD*%
D32*
%TO.C,R154*%
X272210000Y-52845000D03*
X272210000Y-51195000D03*
%TD*%
D30*
%TO.C,D74*%
X164127500Y-51212500D03*
X164127500Y-52787500D03*
%TD*%
D37*
%TO.C,R148*%
X272290000Y-63000000D03*
X270640000Y-63000000D03*
%TD*%
D29*
%TO.C,D91*%
X219512500Y-59787500D03*
X219512500Y-58212500D03*
%TD*%
%TO.C,D9*%
X57652500Y-66787500D03*
X57652500Y-65212500D03*
%TD*%
D31*
%TO.C,R112*%
X82575000Y-62900000D03*
X84225000Y-62900000D03*
%TD*%
D29*
%TO.C,D160*%
X355602500Y-59787500D03*
X355602500Y-58212500D03*
%TD*%
D30*
%TO.C,D123*%
X240537500Y-51212500D03*
X240537500Y-52787500D03*
%TD*%
D31*
%TO.C,R107*%
X74800000Y-66800000D03*
X76450000Y-66800000D03*
%TD*%
%TO.C,R110*%
X84100000Y-66800000D03*
X85750000Y-66800000D03*
%TD*%
D30*
%TO.C,D127*%
X308807500Y-65212500D03*
X308807500Y-66787500D03*
%TD*%
D31*
%TO.C,R152*%
X273750000Y-54300000D03*
X275400000Y-54300000D03*
%TD*%
D30*
%TO.C,D34*%
X113037500Y-65212500D03*
X113037500Y-66787500D03*
%TD*%
D31*
%TO.C,R129*%
X135040000Y-54300000D03*
X136690000Y-54300000D03*
%TD*%
D51*
%TO.C,C25*%
X378850000Y-51000000D03*
X380750000Y-51000000D03*
%TD*%
D30*
%TO.C,D181*%
X419577500Y-58212500D03*
X419577500Y-59787500D03*
%TD*%
%TO.C,D24*%
X53357500Y-51212500D03*
X53357500Y-52787500D03*
%TD*%
D34*
%TO.C,R217*%
X216100000Y-44800000D03*
X217120000Y-44800000D03*
%TD*%
D29*
%TO.C,D29*%
X91562500Y-66787500D03*
X91562500Y-65212500D03*
%TD*%
D32*
%TO.C,R170*%
X374396000Y-66801000D03*
X374396000Y-65151000D03*
%TD*%
D29*
%TO.C,D85*%
X193742500Y-59787500D03*
X193742500Y-58212500D03*
%TD*%
D38*
%TO.C,R118*%
X85700000Y-51175000D03*
X85700000Y-52825000D03*
%TD*%
D31*
%TO.C,R99*%
X29975000Y-64500000D03*
X31625000Y-64500000D03*
%TD*%
D29*
%TO.C,D108*%
X270602500Y-59787500D03*
X270602500Y-58212500D03*
%TD*%
%TO.C,D75*%
X168422500Y-52787500D03*
X168422500Y-51212500D03*
%TD*%
D32*
%TO.C,R140*%
X185700000Y-57350000D03*
X185700000Y-55700000D03*
%TD*%
D29*
%TO.C,D69*%
X142652500Y-52787500D03*
X142652500Y-51212500D03*
%TD*%
D31*
%TO.C,R137*%
X186130000Y-61300000D03*
X187780000Y-61300000D03*
%TD*%
D29*
%TO.C,D43*%
X117332500Y-59787500D03*
X117332500Y-58212500D03*
%TD*%
%TO.C,D13*%
X40472500Y-59787500D03*
X40472500Y-58212500D03*
%TD*%
%TO.C,D49*%
X108742500Y-52787500D03*
X108742500Y-51212500D03*
%TD*%
D38*
%TO.C,R143*%
X277000000Y-65175000D03*
X277000000Y-66825000D03*
%TD*%
D29*
%TO.C,D99*%
X219512500Y-52787500D03*
X219512500Y-51212500D03*
%TD*%
D30*
%TO.C,D94*%
X198037500Y-51212500D03*
X198037500Y-52787500D03*
%TD*%
D32*
%TO.C,R166*%
X323290000Y-52835000D03*
X323290000Y-51185000D03*
%TD*%
D30*
%TO.C,D177*%
X402397500Y-65212500D03*
X402397500Y-66787500D03*
%TD*%
%TO.C,D163*%
X342717500Y-58212500D03*
X342717500Y-59787500D03*
%TD*%
%TO.C,D183*%
X410987500Y-58212500D03*
X410987500Y-59787500D03*
%TD*%
%TO.C,D143*%
X308807500Y-51212500D03*
X308807500Y-52787500D03*
%TD*%
%TO.C,D10*%
X61947500Y-65212500D03*
X61947500Y-66787500D03*
%TD*%
%TO.C,D189*%
X419577500Y-51212500D03*
X419577500Y-52787500D03*
%TD*%
%TO.C,D195*%
X393807500Y-51212500D03*
X393807500Y-52787500D03*
%TD*%
D29*
%TO.C,D140*%
X321692500Y-52787500D03*
X321692500Y-51212500D03*
%TD*%
D30*
%TO.C,D26*%
X61947500Y-51212500D03*
X61947500Y-52787500D03*
%TD*%
D29*
%TO.C,D15*%
X49062500Y-59787500D03*
X49062500Y-58212500D03*
%TD*%
D30*
%TO.C,D38*%
X95857500Y-58212500D03*
X95857500Y-59787500D03*
%TD*%
D31*
%TO.C,R179*%
X425704000Y-63627000D03*
X427354000Y-63627000D03*
%TD*%
%TO.C,R122*%
X135125000Y-66800000D03*
X136775000Y-66800000D03*
%TD*%
D29*
%TO.C,D112*%
X253422500Y-59787500D03*
X253422500Y-58212500D03*
%TD*%
D37*
%TO.C,R181*%
X427101000Y-68326000D03*
X425451000Y-68326000D03*
%TD*%
D52*
%TO.C,C56*%
X121356000Y-36500000D03*
X120396000Y-36500000D03*
%TD*%
D50*
%TO.C,C57*%
X122301000Y-36477000D03*
X122301000Y-37437000D03*
%TD*%
D30*
%TO.C,D68*%
X138357500Y-51212500D03*
X138357500Y-52787500D03*
%TD*%
D38*
%TO.C,R180*%
X427228000Y-65152000D03*
X427228000Y-66802000D03*
%TD*%
D30*
%TO.C,D56*%
X155537500Y-65212500D03*
X155537500Y-66787500D03*
%TD*%
%TO.C,D30*%
X95857500Y-65212500D03*
X95857500Y-66787500D03*
%TD*%
D31*
%TO.C,R100*%
X31575000Y-62900000D03*
X33225000Y-62900000D03*
%TD*%
%TO.C,R114*%
X87050000Y-61310000D03*
X88700000Y-61310000D03*
%TD*%
D30*
%TO.C,D28*%
X87267500Y-65212500D03*
X87267500Y-66787500D03*
%TD*%
%TO.C,D54*%
X146947500Y-65212500D03*
X146947500Y-66787500D03*
%TD*%
D29*
%TO.C,D97*%
X210922500Y-52787500D03*
X210922500Y-51212500D03*
%TD*%
%TO.C,D192*%
X406692500Y-52787500D03*
X406692500Y-51212500D03*
%TD*%
D37*
%TO.C,R165*%
X326516000Y-52705000D03*
X324866000Y-52705000D03*
%TD*%
%TO.C,R169*%
X376115000Y-68300000D03*
X374465000Y-68300000D03*
%TD*%
D29*
%TO.C,D110*%
X262012500Y-59787500D03*
X262012500Y-58212500D03*
%TD*%
D37*
%TO.C,R177*%
X377570000Y-52832000D03*
X375920000Y-52832000D03*
%TD*%
D31*
%TO.C,R106*%
X36015000Y-54310000D03*
X37665000Y-54310000D03*
%TD*%
D30*
%TO.C,D82*%
X215217500Y-65212500D03*
X215217500Y-66787500D03*
%TD*%
%TO.C,D16*%
X53357500Y-58212500D03*
X53357500Y-59787500D03*
%TD*%
%TO.C,D92*%
X189447500Y-51212500D03*
X189447500Y-52787500D03*
%TD*%
D37*
%TO.C,R128*%
X136710000Y-55940000D03*
X135060000Y-55940000D03*
%TD*%
D29*
%TO.C,D138*%
X295922500Y-59787500D03*
X295922500Y-58212500D03*
%TD*%
D30*
%TO.C,D187*%
X393807500Y-58212500D03*
X393807500Y-59787500D03*
%TD*%
%TO.C,D159*%
X359897500Y-58212500D03*
X359897500Y-59787500D03*
%TD*%
D38*
%TO.C,R157*%
X325000000Y-65175000D03*
X325000000Y-66825000D03*
%TD*%
D51*
%TO.C,C49*%
X214250000Y-46400000D03*
X216150000Y-46400000D03*
%TD*%
D38*
%TO.C,R171*%
X376047000Y-61596000D03*
X376047000Y-63246000D03*
%TD*%
D30*
%TO.C,D8*%
X53357500Y-65212500D03*
X53357500Y-66787500D03*
%TD*%
D29*
%TO.C,D35*%
X117332500Y-66787500D03*
X117332500Y-65212500D03*
%TD*%
%TO.C,D95*%
X202332500Y-52787500D03*
X202332500Y-51212500D03*
%TD*%
D38*
%TO.C,R168*%
X376047000Y-65151000D03*
X376047000Y-66801000D03*
%TD*%
D32*
%TO.C,R190*%
X425500000Y-52825000D03*
X425500000Y-51175000D03*
%TD*%
D30*
%TO.C,D109*%
X266307500Y-58212500D03*
X266307500Y-59787500D03*
%TD*%
D32*
%TO.C,R185*%
X427101000Y-57911000D03*
X427101000Y-56261000D03*
%TD*%
D29*
%TO.C,D180*%
X423872500Y-59787500D03*
X423872500Y-58212500D03*
%TD*%
%TO.C,D67*%
X168422500Y-59787500D03*
X168422500Y-58212500D03*
%TD*%
D38*
%TO.C,R14*%
X413700000Y-38775000D03*
X413700000Y-40425000D03*
%TD*%
D31*
%TO.C,R93*%
X29875000Y-66800000D03*
X31525000Y-66800000D03*
%TD*%
D29*
%TO.C,D106*%
X244832500Y-66787500D03*
X244832500Y-65212500D03*
%TD*%
D30*
%TO.C,D58*%
X164127500Y-65212500D03*
X164127500Y-66787500D03*
%TD*%
%TO.C,D107*%
X240537500Y-65212500D03*
X240537500Y-66787500D03*
%TD*%
D31*
%TO.C,R131*%
X180100000Y-66800000D03*
X181750000Y-66800000D03*
%TD*%
D30*
%TO.C,D12*%
X36177500Y-58212500D03*
X36177500Y-59787500D03*
%TD*%
%TO.C,D76*%
X189447500Y-65212500D03*
X189447500Y-66787500D03*
%TD*%
%TO.C,D96*%
X206627500Y-51212500D03*
X206627500Y-52787500D03*
%TD*%
%TO.C,D149*%
X368487500Y-65212500D03*
X368487500Y-66787500D03*
%TD*%
%TO.C,D185*%
X402397500Y-58212500D03*
X402397500Y-59787500D03*
%TD*%
D29*
%TO.C,D142*%
X313102500Y-52787500D03*
X313102500Y-51212500D03*
%TD*%
D30*
%TO.C,D5*%
X44767500Y-65212500D03*
X44767500Y-66787500D03*
%TD*%
D32*
%TO.C,R184*%
X427101000Y-60959000D03*
X427101000Y-59309000D03*
%TD*%
D37*
%TO.C,R153*%
X275450000Y-52700000D03*
X273800000Y-52700000D03*
%TD*%
D31*
%TO.C,R127*%
X135050000Y-57480000D03*
X136700000Y-57480000D03*
%TD*%
D30*
%TO.C,D14*%
X44767500Y-58212500D03*
X44767500Y-59787500D03*
%TD*%
%TO.C,D105*%
X249127500Y-65212500D03*
X249127500Y-66787500D03*
%TD*%
D37*
%TO.C,R172*%
X374459000Y-63119000D03*
X372809000Y-63119000D03*
%TD*%
D29*
%TO.C,D120*%
X253422500Y-52787500D03*
X253422500Y-51212500D03*
%TD*%
D32*
%TO.C,R124*%
X135100000Y-60625000D03*
X135100000Y-58975000D03*
%TD*%
%TO.C,R146*%
X272200000Y-66800000D03*
X272200000Y-65150000D03*
%TD*%
D29*
%TO.C,D176*%
X406692500Y-66787500D03*
X406692500Y-65212500D03*
%TD*%
D30*
%TO.C,D179*%
X393807500Y-65212500D03*
X393807500Y-66787500D03*
%TD*%
D29*
%TO.C,D11*%
X66242500Y-66787500D03*
X66242500Y-65212500D03*
%TD*%
%TO.C,D87*%
X202332500Y-59787500D03*
X202332500Y-58212500D03*
%TD*%
D30*
%TO.C,D72*%
X155537500Y-51212500D03*
X155537500Y-52787500D03*
%TD*%
D34*
%TO.C,R19*%
X416700000Y-48300000D03*
X417720000Y-48300000D03*
%TD*%
D31*
%TO.C,R161*%
X321715000Y-61400000D03*
X323365000Y-61400000D03*
%TD*%
D29*
%TO.C,D55*%
X151242500Y-66787500D03*
X151242500Y-65212500D03*
%TD*%
D37*
%TO.C,R116*%
X87245000Y-54300000D03*
X85595000Y-54300000D03*
%TD*%
D30*
%TO.C,D147*%
X291627500Y-51212500D03*
X291627500Y-52787500D03*
%TD*%
D38*
%TO.C,R145*%
X273800000Y-65145000D03*
X273800000Y-66795000D03*
%TD*%
D31*
%TO.C,R120*%
X129025000Y-66800000D03*
X130675000Y-66800000D03*
%TD*%
D30*
%TO.C,D115*%
X240537500Y-58212500D03*
X240537500Y-59787500D03*
%TD*%
D40*
%TO.C,R21*%
X417720000Y-49400000D03*
X416700000Y-49400000D03*
%TD*%
D30*
%TO.C,D145*%
X300217500Y-51212500D03*
X300217500Y-52787500D03*
%TD*%
D52*
%TO.C,C51*%
X214860000Y-42600000D03*
X213900000Y-42600000D03*
%TD*%
D31*
%TO.C,R102*%
X35675000Y-61300000D03*
X37325000Y-61300000D03*
%TD*%
D32*
%TO.C,R144*%
X275400000Y-66825000D03*
X275400000Y-65175000D03*
%TD*%
D31*
%TO.C,R130*%
X138095000Y-54290000D03*
X139745000Y-54290000D03*
%TD*%
D29*
%TO.C,D170*%
X347012500Y-52787500D03*
X347012500Y-51212500D03*
%TD*%
%TO.C,D188*%
X423872500Y-52787500D03*
X423872500Y-51212500D03*
%TD*%
%TO.C,D148*%
X372782500Y-66787500D03*
X372782500Y-65212500D03*
%TD*%
D31*
%TO.C,R94*%
X26775000Y-66800000D03*
X28425000Y-66800000D03*
%TD*%
%TO.C,R164*%
X324866000Y-54356000D03*
X326516000Y-54356000D03*
%TD*%
D30*
%TO.C,D121*%
X249127500Y-51212500D03*
X249127500Y-52787500D03*
%TD*%
D31*
%TO.C,R132*%
X183175000Y-66800000D03*
X184825000Y-66800000D03*
%TD*%
D37*
%TO.C,R160*%
X323355000Y-62960000D03*
X321705000Y-62960000D03*
%TD*%
D38*
%TO.C,R159*%
X325120000Y-61375000D03*
X325120000Y-63025000D03*
%TD*%
D53*
%TO.C,U4*%
X211500000Y-45862500D03*
X211100000Y-45862500D03*
X210700000Y-45862500D03*
X210300000Y-45862500D03*
X209900000Y-45862500D03*
X209500000Y-45862500D03*
X209100000Y-45862500D03*
X208700000Y-45862500D03*
X208300000Y-45862500D03*
X207900000Y-45862500D03*
X207500000Y-45862500D03*
X207100000Y-45862500D03*
X206700000Y-45862500D03*
D54*
X206137500Y-45200000D03*
X206137500Y-44800000D03*
X206137500Y-44400000D03*
X206137500Y-44000000D03*
X206137500Y-43600000D03*
X206137500Y-43200000D03*
X206137500Y-42800000D03*
X206137500Y-42400000D03*
X206137500Y-42000000D03*
X206137500Y-41600000D03*
D53*
X206700000Y-40937500D03*
X207100000Y-40937500D03*
X207500000Y-40937500D03*
X207900000Y-40937500D03*
X208300000Y-40937500D03*
X208700000Y-40937500D03*
X209100000Y-40937500D03*
X209500000Y-40937500D03*
X209900000Y-40937500D03*
X210300000Y-40937500D03*
X210700000Y-40937500D03*
X211100000Y-40937500D03*
X211500000Y-40937500D03*
D54*
X212062500Y-41600000D03*
X212062500Y-42000000D03*
X212062500Y-42400000D03*
X212062500Y-42800000D03*
X212062500Y-43200000D03*
X212062500Y-43600000D03*
X212062500Y-44000000D03*
X212062500Y-44400000D03*
X212062500Y-44800000D03*
X212062500Y-45200000D03*
D55*
X209100000Y-43400000D03*
%TD*%
D31*
%TO.C,R176*%
X375921000Y-54483000D03*
X377571000Y-54483000D03*
%TD*%
D30*
%TO.C,D101*%
X266307500Y-65212500D03*
X266307500Y-66787500D03*
%TD*%
D29*
%TO.C,D77*%
X193742500Y-66787500D03*
X193742500Y-65212500D03*
%TD*%
D32*
%TO.C,R188*%
X422300000Y-55850000D03*
X422300000Y-54200000D03*
%TD*%
D30*
%TO.C,D193*%
X402397500Y-51212500D03*
X402397500Y-52787500D03*
%TD*%
D32*
%TO.C,R104*%
X32600000Y-57450000D03*
X32600000Y-55800000D03*
%TD*%
%TO.C,R182*%
X425460000Y-66815000D03*
X425460000Y-65165000D03*
%TD*%
D29*
%TO.C,D194*%
X398102500Y-52787500D03*
X398102500Y-51212500D03*
%TD*%
%TO.C,D93*%
X193742500Y-52787500D03*
X193742500Y-51212500D03*
%TD*%
D30*
%TO.C,D3*%
X36177500Y-65212500D03*
X36177500Y-66787500D03*
%TD*%
%TO.C,D66*%
X164127500Y-58212500D03*
X164127500Y-59787500D03*
%TD*%
D52*
%TO.C,C55*%
X121537000Y-44735000D03*
X120577000Y-44735000D03*
%TD*%
D29*
%TO.C,D104*%
X253422500Y-66787500D03*
X253422500Y-65212500D03*
%TD*%
D31*
%TO.C,R149*%
X270625000Y-61400000D03*
X272275000Y-61400000D03*
%TD*%
D29*
%TO.C,D27*%
X66242500Y-52787500D03*
X66242500Y-51212500D03*
%TD*%
%TO.C,D126*%
X313102500Y-66787500D03*
X313102500Y-65212500D03*
%TD*%
%TO.C,D178*%
X398102500Y-66787500D03*
X398102500Y-65212500D03*
%TD*%
D39*
%TO.C,R235*%
X173700000Y-51990000D03*
X173700000Y-53010000D03*
%TD*%
D29*
%TO.C,D166*%
X364192500Y-52787500D03*
X364192500Y-51212500D03*
%TD*%
D30*
%TO.C,D78*%
X198037500Y-65212500D03*
X198037500Y-66787500D03*
%TD*%
D38*
%TO.C,R186*%
X425450000Y-56262000D03*
X425450000Y-57912000D03*
%TD*%
D29*
%TO.C,D114*%
X244832500Y-59787500D03*
X244832500Y-58212500D03*
%TD*%
D31*
%TO.C,R119*%
X125950000Y-66800000D03*
X127600000Y-66800000D03*
%TD*%
D30*
%TO.C,D44*%
X87267500Y-51212500D03*
X87267500Y-52787500D03*
%TD*%
D38*
%TO.C,R156*%
X326700000Y-64400000D03*
X326700000Y-66050000D03*
%TD*%
D29*
%TO.C,D130*%
X295922500Y-66787500D03*
X295922500Y-65212500D03*
%TD*%
D38*
%TO.C,R147*%
X274000000Y-61475000D03*
X274000000Y-63125000D03*
%TD*%
D37*
%TO.C,R151*%
X275325000Y-55900000D03*
X273675000Y-55900000D03*
%TD*%
D31*
%TO.C,R121*%
X132050000Y-66800000D03*
X133700000Y-66800000D03*
%TD*%
D56*
X242189117Y-64431520D03*
X161710883Y-60431520D03*
X289500000Y-46625000D03*
X195515000Y-50900000D03*
X155953814Y-42278780D03*
X168833618Y-53712794D03*
X374800000Y-27300000D03*
X72300000Y-30300000D03*
X237400000Y-54000000D03*
X149000000Y-42375000D03*
X85117785Y-58388928D03*
X245300000Y-60900000D03*
X426800000Y-45500000D03*
X377571016Y-36899477D03*
X390794523Y-63820066D03*
X424243198Y-43592800D03*
X27500000Y-23300000D03*
X218400000Y-44000000D03*
X173100000Y-55700003D03*
X296300000Y-54900000D03*
X79410000Y-65075000D03*
X383000003Y-45200000D03*
X212400000Y-40400000D03*
X352800000Y-49200000D03*
X254090000Y-48725000D03*
X121766375Y-55310763D03*
X282200000Y-42300000D03*
X106988444Y-46945000D03*
X237800000Y-64600000D03*
X215200000Y-41800000D03*
X170426982Y-47606027D03*
X353600000Y-49200000D03*
X415400000Y-37200003D03*
X373789117Y-45168480D03*
X381200000Y-45300000D03*
X377100000Y-20800000D03*
X290800000Y-55100000D03*
X275808058Y-62100000D03*
X167090023Y-59843878D03*
X213200000Y-38310000D03*
X172500000Y-59197500D03*
X168400000Y-34500000D03*
X173110000Y-54108054D03*
X382500000Y-31200000D03*
X328889531Y-44570986D03*
X269000000Y-27000000D03*
X166800000Y-51400000D03*
X165600000Y-55500000D03*
X411408038Y-41186863D03*
X105790000Y-36000000D03*
X345100000Y-51510000D03*
X318579144Y-42510000D03*
X220690000Y-58985469D03*
X102400000Y-52100000D03*
X363258949Y-39552983D03*
X220614004Y-53411598D03*
X418400000Y-46000000D03*
X137000000Y-47300000D03*
X374578105Y-44288693D03*
X203215000Y-50287844D03*
X204503923Y-38422757D03*
X71534313Y-49765687D03*
X116600000Y-37800000D03*
X422400000Y-27400000D03*
X269212149Y-64014579D03*
X363990429Y-55143958D03*
X337243106Y-57515533D03*
X174289539Y-55699333D03*
X87703560Y-48412556D03*
X421200000Y-58125000D03*
X124600000Y-42100000D03*
X209279883Y-65136209D03*
X351943761Y-42434358D03*
X105842717Y-33923640D03*
X173910219Y-63392374D03*
X411430000Y-44070000D03*
X232300000Y-66900000D03*
X78844549Y-46413164D03*
X115700000Y-35700000D03*
X252258522Y-48424134D03*
X205340000Y-48913224D03*
X174100000Y-64690000D03*
X376577285Y-34857103D03*
X309300000Y-49199997D03*
X379700000Y-47200000D03*
X415760221Y-46767082D03*
X348560753Y-52689950D03*
X199484456Y-64957772D03*
X383831520Y-42210883D03*
X105800000Y-49700000D03*
X322099997Y-46600000D03*
X206515000Y-50078944D03*
X294200068Y-54912728D03*
X378730778Y-39119778D03*
X361400000Y-52690000D03*
X213369088Y-41719999D03*
X163760000Y-55320698D03*
X80600000Y-47900000D03*
X209200000Y-42400000D03*
X140789117Y-51568480D03*
X371700000Y-52000000D03*
X288600000Y-66300000D03*
X420300000Y-49500000D03*
X245300000Y-55400000D03*
X126337500Y-22835000D03*
X214100000Y-52575000D03*
X22300000Y-34600000D03*
X352833226Y-55289028D03*
X203400000Y-35600000D03*
X335155089Y-51454281D03*
X187737270Y-49489457D03*
X370115031Y-56910000D03*
X75500000Y-28100000D03*
X190600000Y-56800000D03*
X72100000Y-47500000D03*
X123200000Y-65600000D03*
X382904423Y-42096417D03*
X341900000Y-63375000D03*
X97100000Y-52900000D03*
X323699758Y-38875303D03*
X329500000Y-29100000D03*
X120331862Y-37762469D03*
X66500242Y-54175303D03*
X70700000Y-34400000D03*
X191550000Y-65100000D03*
X427500000Y-54900003D03*
X286370000Y-56232806D03*
X378900000Y-44500000D03*
X61200000Y-32000000D03*
X389290000Y-54987011D03*
X287000000Y-64500000D03*
X302300003Y-57400000D03*
X318850000Y-62941051D03*
X392306381Y-67930828D03*
X383200000Y-43700000D03*
X259186836Y-47544549D03*
X367400000Y-56600000D03*
X101400000Y-51000003D03*
X229372205Y-64790000D03*
X106400000Y-41800000D03*
X357152983Y-41441051D03*
X328100000Y-62299997D03*
X219250000Y-55050000D03*
X315500000Y-46860000D03*
X289500000Y-55300000D03*
X277200000Y-55300000D03*
X117200000Y-44400000D03*
X378200000Y-56500000D03*
X172264682Y-54310000D03*
X200915544Y-64957772D03*
X214170558Y-49590000D03*
X287665613Y-65510000D03*
X332900000Y-50000000D03*
X121453999Y-46216874D03*
X118100242Y-53724697D03*
X69100000Y-53060000D03*
X104799927Y-42063520D03*
X385700000Y-50200000D03*
X285000000Y-55400000D03*
X416400000Y-47500000D03*
X172250000Y-53350000D03*
X225000000Y-53500000D03*
X333617194Y-47882806D03*
X142622194Y-50077806D03*
X148130778Y-48219778D03*
X227172702Y-51627298D03*
X246011598Y-64485996D03*
X192156894Y-53715533D03*
X119500631Y-55248171D03*
X362972206Y-56162182D03*
X290200000Y-50990000D03*
X181458949Y-52852983D03*
X63000000Y-27400000D03*
X411300000Y-31400000D03*
X228682806Y-40717194D03*
X130200000Y-51900000D03*
X316017195Y-62217192D03*
X71583490Y-45189082D03*
X296799997Y-57400000D03*
X331000000Y-27900000D03*
X320191962Y-46486863D03*
X138300000Y-48600000D03*
X381700000Y-52799997D03*
X346369222Y-55310000D03*
X416009058Y-44024999D03*
X73800000Y-66100000D03*
X348300000Y-55300000D03*
X94700000Y-54300000D03*
X170910000Y-49650000D03*
X377000000Y-56900000D03*
X327600000Y-43200000D03*
X380082781Y-49810318D03*
X422000000Y-42500000D03*
X156100000Y-40800000D03*
X276300000Y-50600000D03*
X355400000Y-43200000D03*
X210600003Y-43400000D03*
X268516623Y-30983377D03*
X140942228Y-55115544D03*
X312400000Y-56200000D03*
X364582806Y-56475246D03*
X424243198Y-42700000D03*
X384050000Y-40710000D03*
X199373333Y-50400769D03*
X306134313Y-42510000D03*
X86300000Y-48100000D03*
X165600000Y-33300000D03*
X122037500Y-23035000D03*
X412700000Y-50000000D03*
X346588402Y-62285996D03*
X325911584Y-62174919D03*
X210600000Y-44400000D03*
X353610000Y-59000000D03*
X423799997Y-62100000D03*
X282982808Y-48317195D03*
X277400000Y-40500000D03*
X242400000Y-51000000D03*
X180700000Y-23100000D03*
X123400000Y-37800000D03*
X204900000Y-29800000D03*
X389417108Y-63816730D03*
X173000000Y-23310000D03*
X323900000Y-46700000D03*
X75810469Y-39429014D03*
X75826500Y-26875000D03*
X293799921Y-60498573D03*
X192149136Y-64339148D03*
X165288314Y-54264016D03*
X175088402Y-53385996D03*
X161319778Y-46069222D03*
X200553333Y-50386642D03*
X377500000Y-68565000D03*
X233515509Y-54190000D03*
X133775000Y-57262271D03*
X128625500Y-44854500D03*
X177800000Y-23010000D03*
X217100000Y-45600000D03*
X125710883Y-53768480D03*
X352500000Y-53300000D03*
X207600000Y-44400000D03*
X209655000Y-51125000D03*
X195515000Y-52326001D03*
X387100000Y-64300000D03*
X126600000Y-51500000D03*
X201100000Y-69058000D03*
X209200000Y-43400000D03*
X227770309Y-39929691D03*
X180700000Y-65275000D03*
X280865642Y-39143761D03*
X403915544Y-41842228D03*
X209200000Y-44400000D03*
X229490000Y-39040687D03*
X235257772Y-53215544D03*
X361720402Y-51450861D03*
X22015544Y-37242228D03*
X225400000Y-34200000D03*
X294356239Y-51865642D03*
X245300000Y-62200000D03*
X153400000Y-32100000D03*
X184100000Y-45500000D03*
X331848928Y-51262169D03*
X276400000Y-34100000D03*
X354300000Y-53200000D03*
X107720000Y-41628979D03*
X318600000Y-46400000D03*
X179281004Y-53014079D03*
X67149463Y-68024658D03*
X356940834Y-42998960D03*
X331900000Y-46010000D03*
X90051813Y-49594869D03*
X316910883Y-46568480D03*
X135613449Y-50020904D03*
X298400000Y-57800000D03*
X217046877Y-68952489D03*
X350100000Y-60100000D03*
X85800000Y-56000000D03*
X188700000Y-49500000D03*
X135600000Y-51610000D03*
X255299997Y-52000000D03*
X268843761Y-65434358D03*
X280529433Y-46593779D03*
X320778951Y-67334782D03*
X350511061Y-55310794D03*
X213072646Y-53763642D03*
X277500000Y-49600000D03*
X144910662Y-49372962D03*
X204465000Y-50267037D03*
X336267193Y-47832807D03*
X312900000Y-46150000D03*
X204825000Y-60850000D03*
X114000000Y-35700000D03*
X302200000Y-54600000D03*
X272153981Y-42087295D03*
X96100000Y-45300000D03*
X70800000Y-33300000D03*
X206500000Y-28400000D03*
X370300000Y-33000000D03*
X422000000Y-43200000D03*
X216950000Y-65275000D03*
X312428441Y-47470527D03*
X206900000Y-61590000D03*
X421800000Y-50100000D03*
X349500000Y-55300000D03*
X280300000Y-42400000D03*
X226400000Y-54600000D03*
X385100000Y-46200000D03*
X237504322Y-49165000D03*
X288817194Y-56782806D03*
X161800000Y-55879997D03*
X179450000Y-46550000D03*
X70913000Y-22721000D03*
X260219998Y-61459998D03*
X127200000Y-27300000D03*
X207600000Y-43400000D03*
X123900000Y-45400000D03*
X100400000Y-38100000D03*
X267600000Y-66000000D03*
X228900000Y-52210000D03*
X231800000Y-23100000D03*
X331465642Y-38843761D03*
X83817896Y-58800000D03*
X333900000Y-23300000D03*
X287171826Y-45918174D03*
X165600000Y-35700000D03*
X316941051Y-41947017D03*
X341800000Y-55700000D03*
X412250000Y-43280000D03*
X291410883Y-62968480D03*
X109253283Y-33122429D03*
X203043761Y-37100000D03*
X373600000Y-45900000D03*
X335693478Y-52810000D03*
X339200000Y-61700000D03*
X174110469Y-66829014D03*
X118201550Y-38658897D03*
X189418526Y-56689028D03*
X65534313Y-44334313D03*
X178403341Y-53223822D03*
X70465480Y-67803144D03*
X375000000Y-33900000D03*
X374000000Y-36800000D03*
X282900000Y-23200000D03*
X354405970Y-42423884D03*
X208475000Y-51250000D03*
X333700000Y-52900000D03*
X175699997Y-46400000D03*
X172700000Y-63600000D03*
X360400000Y-55900000D03*
X117900000Y-43500003D03*
X171600000Y-62400000D03*
X371500000Y-53600000D03*
X256300000Y-29700000D03*
X237300000Y-59600000D03*
X116600000Y-45000000D03*
X146662766Y-48375181D03*
X325600000Y-46800000D03*
X375000000Y-38100000D03*
X405680222Y-44630778D03*
X345800000Y-53000000D03*
X75113000Y-23621000D03*
X228800000Y-27900000D03*
X145700000Y-49600000D03*
X143818811Y-50168086D03*
X208800000Y-38290000D03*
X385000000Y-23400000D03*
X381600000Y-51500000D03*
X207600000Y-42400000D03*
X213435318Y-61284864D03*
X298600000Y-59100000D03*
X379100000Y-46700000D03*
X412899997Y-51900000D03*
X72100000Y-33300000D03*
X221000000Y-27300000D03*
X318739941Y-65961260D03*
X99400000Y-43900000D03*
X295440639Y-45901143D03*
X246017219Y-44289682D03*
X172934313Y-64834313D03*
X197973965Y-49625448D03*
X356326419Y-55900000D03*
X325017219Y-38810318D03*
X319800003Y-36100000D03*
X293790000Y-57300000D03*
X124556239Y-40265642D03*
X319700000Y-62100000D03*
X280400000Y-43700000D03*
X165567862Y-51310000D03*
X276100000Y-56800000D03*
X114900000Y-35700000D03*
X215400000Y-68940000D03*
X373800000Y-42900000D03*
X97315000Y-44200000D03*
X228611345Y-44163068D03*
X377400000Y-31300000D03*
X229950000Y-52700000D03*
X216400000Y-60600000D03*
X162800000Y-34500000D03*
X425090000Y-22800000D03*
X123600000Y-54600000D03*
X126200000Y-44854500D03*
X140000003Y-55510000D03*
X286351995Y-63388581D03*
X227300000Y-29200000D03*
X379100000Y-22700000D03*
X196790000Y-50700000D03*
X426800000Y-43500000D03*
X177700000Y-27700000D03*
X379500000Y-43800003D03*
X413260000Y-45920000D03*
X299234387Y-45900000D03*
X279900000Y-28000000D03*
X166900000Y-54300000D03*
X301000000Y-49900000D03*
X269600000Y-61200000D03*
X101900000Y-31900000D03*
X81474391Y-43336890D03*
X230334358Y-39410000D03*
X330488464Y-46234321D03*
X268400000Y-47975000D03*
X217199269Y-44004254D03*
X337194383Y-45820451D03*
X355200000Y-49200000D03*
X172285421Y-55910000D03*
X129600000Y-23200000D03*
X415285996Y-40988402D03*
X213900106Y-50953730D03*
X393315544Y-69032772D03*
X79800000Y-43525000D03*
X374200000Y-41700000D03*
X68939794Y-68160206D03*
X121234313Y-60834313D03*
X356417219Y-49272488D03*
X311195019Y-47971634D03*
X187019998Y-52459998D03*
X127119998Y-42240002D03*
X273300000Y-59000000D03*
X78500000Y-23200000D03*
X349814735Y-52688291D03*
X146597113Y-56742784D03*
X124600000Y-66900000D03*
X137300000Y-53100003D03*
X131178711Y-52231212D03*
X352400000Y-56000000D03*
X287590000Y-55600000D03*
X417700000Y-47400000D03*
X319300000Y-54900000D03*
X269600000Y-62700000D03*
X109210447Y-40062311D03*
X194300000Y-49600000D03*
X327600000Y-34900000D03*
X312900000Y-38200000D03*
X307300000Y-29700000D03*
X383700000Y-52600000D03*
X418500000Y-43599997D03*
X212568396Y-53033041D03*
X319443761Y-33134358D03*
X221300000Y-47300000D03*
X88387795Y-49575000D03*
X297957806Y-54590000D03*
X174300000Y-54100308D03*
X264611598Y-60314004D03*
X219200000Y-44200000D03*
X91980000Y-54310000D03*
X141323737Y-50734054D03*
X414070000Y-45090000D03*
X86100000Y-48900000D03*
X302200000Y-61500000D03*
X245300000Y-56600000D03*
X173119778Y-38230778D03*
X118600000Y-36300000D03*
X191156239Y-49490000D03*
X170600000Y-54310000D03*
X217500003Y-50000000D03*
X420400000Y-46700000D03*
X85900000Y-57265612D03*
X211700000Y-61575000D03*
X269872702Y-47672702D03*
X382100000Y-27800000D03*
X106000000Y-52100000D03*
X392130318Y-64682781D03*
X317005277Y-61591757D03*
X127800000Y-43900000D03*
X290165687Y-66765687D03*
X334200000Y-67200000D03*
X278400003Y-52710000D03*
X375700000Y-41200000D03*
X61534313Y-41775000D03*
X120399926Y-61668700D03*
X382790795Y-39310876D03*
X415400000Y-35599997D03*
X241256893Y-61115533D03*
X320100000Y-27100000D03*
X28947017Y-64141051D03*
X170741051Y-53447017D03*
X381400000Y-46700000D03*
X169989682Y-46117219D03*
X218600000Y-27600000D03*
X24500000Y-28400000D03*
X216957806Y-64092194D03*
X169841051Y-41852983D03*
X157062169Y-34051072D03*
X369900000Y-28200000D03*
X175859136Y-43575252D03*
X201887501Y-50248309D03*
X234300000Y-54900000D03*
X164700000Y-61400000D03*
X171300000Y-42300000D03*
X212982806Y-45517194D03*
X319400000Y-48999997D03*
X210600000Y-42400000D03*
X62834313Y-35865687D03*
X277400000Y-42400000D03*
X278300000Y-29200000D03*
X378699997Y-43000000D03*
X217790000Y-42010000D03*
X382200000Y-46700000D03*
X427500000Y-54100000D03*
X383700000Y-51800000D03*
X217100000Y-33200000D03*
X270700000Y-47675000D03*
X319000000Y-36100000D03*
X82200000Y-43000000D03*
X415400000Y-36400000D03*
X62100000Y-42400000D03*
X319000000Y-33800000D03*
X253500000Y-49400000D03*
X221300000Y-46500000D03*
X202600000Y-36300000D03*
X390100000Y-63400000D03*
X241800000Y-49600000D03*
X229450000Y-51535000D03*
X382200000Y-45200000D03*
X176500000Y-46400000D03*
X370912992Y-56700000D03*
X80600000Y-43300000D03*
X161800000Y-56680000D03*
X309300000Y-50000000D03*
X131400000Y-53000000D03*
X381700000Y-53600000D03*
X413700000Y-51900000D03*
X415910000Y-45890000D03*
X347000000Y-61600000D03*
X334827663Y-52911820D03*
X228900000Y-38475000D03*
X293000000Y-60510000D03*
X306700000Y-43100000D03*
X212991607Y-42610000D03*
X175000000Y-43600000D03*
X148500000Y-43000000D03*
X146300000Y-56000000D03*
X413700000Y-50000000D03*
X134747000Y-49925000D03*
X162500000Y-60300000D03*
X123100000Y-43805000D03*
X139200000Y-55600000D03*
X351500000Y-56110000D03*
X214000000Y-38290000D03*
X345600000Y-55700000D03*
X267600000Y-48300000D03*
X326808038Y-43086863D03*
X388600000Y-54400000D03*
X228300000Y-44900000D03*
X345000000Y-53100000D03*
X293200000Y-56700000D03*
X134747000Y-51610000D03*
X345900000Y-51500000D03*
X279900000Y-46100000D03*
X21300000Y-37600000D03*
X280200000Y-38700000D03*
X330800000Y-38400000D03*
X127100000Y-52300000D03*
X86600000Y-55600000D03*
X171700000Y-43000000D03*
X298400000Y-45900000D03*
X76600000Y-39300000D03*
X156300000Y-43000000D03*
X122300000Y-35800000D03*
X105322960Y-42700000D03*
X203861854Y-38899990D03*
X117977892Y-39427000D03*
X98500000Y-47000000D03*
X117900000Y-42700000D03*
X105875000Y-47625000D03*
X101400000Y-50200000D03*
X377600000Y-36100000D03*
X373600000Y-36100000D03*
X403200000Y-42200000D03*
X419471613Y-49588912D03*
X383700000Y-43000000D03*
X419364871Y-43545000D03*
X379500000Y-43000000D03*
X418800000Y-47250000D03*
X378600000Y-51920000D03*
X405900000Y-45400000D03*
X380600000Y-49200000D03*
X370700000Y-51800000D03*
X353200000Y-56000000D03*
X370700000Y-53900000D03*
X385919778Y-49430778D03*
X83000000Y-58900000D03*
X66100000Y-44900000D03*
X85200000Y-56700000D03*
X78886109Y-43525000D03*
X108300000Y-42200000D03*
X124500000Y-54700000D03*
X189310000Y-48900000D03*
X271684864Y-42735318D03*
X191600000Y-48800000D03*
X299082871Y-57280511D03*
X245500000Y-44900000D03*
X172900000Y-39000000D03*
X277800000Y-43100000D03*
X183300000Y-45600000D03*
X231000000Y-40000000D03*
X285780000Y-55600000D03*
X295100000Y-46625000D03*
X301500000Y-57400000D03*
X323200000Y-39500000D03*
X316100000Y-46300000D03*
X379500000Y-38900000D03*
X381990000Y-38933470D03*
X380384931Y-46700000D03*
X380384931Y-45200000D03*
X319300000Y-65390000D03*
X69700000Y-53650000D03*
X67000000Y-54800000D03*
X320564155Y-66564155D03*
X192000000Y-54500000D03*
X141300000Y-54400000D03*
X330392779Y-45440061D03*
X373400000Y-42000000D03*
X227090000Y-54010000D03*
X173000000Y-56500000D03*
X137300000Y-52300000D03*
X187500000Y-53100000D03*
X177603339Y-53222416D03*
X256100000Y-52000000D03*
X225500000Y-52800000D03*
X125000000Y-39599999D03*
X288017415Y-56801714D03*
X283000000Y-47500000D03*
X201225000Y-49800000D03*
X192600000Y-65000000D03*
X200200000Y-64600000D03*
X202377618Y-49616020D03*
X67937500Y-68162500D03*
X200200000Y-69058000D03*
X199954590Y-49851093D03*
X190700000Y-64900000D03*
X173347000Y-64145988D03*
X197361869Y-50140563D03*
X196150000Y-51700000D03*
X173800000Y-62600000D03*
X194925000Y-51775000D03*
X118600000Y-53100000D03*
X173500000Y-65400000D03*
X198667397Y-50024392D03*
X193700000Y-50200000D03*
X172900000Y-59900000D03*
X187000000Y-49800000D03*
X179400000Y-47400000D03*
X208480000Y-65150000D03*
X203628847Y-49603202D03*
X220525000Y-59775000D03*
X213961685Y-51751359D03*
X241100000Y-61900000D03*
X232761481Y-54455979D03*
X241400000Y-64300000D03*
X221300000Y-53000000D03*
X235100000Y-54800000D03*
X227155334Y-52444317D03*
X230800000Y-52500000D03*
X234900000Y-52500000D03*
X214425000Y-50350000D03*
X289600000Y-66200000D03*
X228500000Y-64900000D03*
X231530778Y-66680222D03*
X217200000Y-60300000D03*
X213343700Y-52835793D03*
X294800000Y-51200000D03*
X301156894Y-50684467D03*
X290200000Y-51790003D03*
X251400000Y-48425000D03*
X205873073Y-49509745D03*
X207689719Y-61717859D03*
X212700000Y-61600000D03*
X209008640Y-50653986D03*
X328100000Y-63100000D03*
X214500000Y-61210000D03*
X212275000Y-53825000D03*
X337400000Y-58300000D03*
X391520000Y-65200000D03*
X391507806Y-63457806D03*
X205616252Y-60529393D03*
X205025000Y-49650000D03*
X418500000Y-44400000D03*
X418500000Y-45200000D03*
X364600000Y-54490000D03*
X363971399Y-55959315D03*
X366600000Y-56400000D03*
X354200000Y-58400000D03*
X355798809Y-56501358D03*
X363284216Y-56898832D03*
X282966314Y-42529712D03*
X297600000Y-57400000D03*
X301400000Y-54600000D03*
X277715136Y-39764682D03*
X414600000Y-41400000D03*
X412200000Y-41300000D03*
X61900000Y-30200000D03*
X110050000Y-33050000D03*
X374300000Y-33400000D03*
X216700000Y-50000000D03*
X71031168Y-68368832D03*
X121800000Y-61400000D03*
X122500000Y-66100000D03*
X80000000Y-65700000D03*
X91140000Y-54310000D03*
X325900000Y-61375000D03*
X420700000Y-57500000D03*
X74800000Y-66000000D03*
X341100000Y-64000000D03*
X218684313Y-54484313D03*
X180100000Y-65900000D03*
X273500000Y-59900000D03*
X120965613Y-62234387D03*
X29200000Y-64900000D03*
X125200000Y-66300000D03*
X276700000Y-62100000D03*
X386300000Y-64200000D03*
X323600000Y-56800000D03*
X424600000Y-62100000D03*
X337800000Y-56916821D03*
X319400000Y-49800000D03*
X72100000Y-45800000D03*
X72100000Y-49200000D03*
X362300000Y-50900000D03*
X362186600Y-52100987D03*
X80100000Y-47200000D03*
X85900000Y-58100000D03*
X78700000Y-47200000D03*
X84601787Y-59000279D03*
X63400000Y-35300000D03*
X122600000Y-55310000D03*
X107154842Y-42195195D03*
X105200000Y-34400000D03*
X105562423Y-41821438D03*
X120300000Y-55280000D03*
X105200000Y-36700000D03*
X170600000Y-45600000D03*
X170640510Y-41825000D03*
X171500000Y-53700000D03*
X171200000Y-47400000D03*
X161100000Y-45300000D03*
X156400000Y-34500000D03*
X170300000Y-49010000D03*
X169957570Y-53608759D03*
X284304324Y-54889026D03*
X229700000Y-40800000D03*
X288900000Y-55900000D03*
X226953115Y-39946885D03*
X258400000Y-47400000D03*
X281000000Y-44525000D03*
X287969246Y-45853948D03*
X297092367Y-54789733D03*
X299007806Y-54792194D03*
X290400000Y-46600000D03*
X314800000Y-46300000D03*
X324500000Y-38200000D03*
X313700000Y-38200000D03*
X313681394Y-46525015D03*
X351500000Y-43100000D03*
X317700000Y-42200000D03*
X375800000Y-34500000D03*
X317700000Y-46700000D03*
X319400000Y-42500000D03*
X319400000Y-46600000D03*
X383100000Y-41300000D03*
X324807485Y-46690806D03*
X322900000Y-46600000D03*
X383055542Y-40065802D03*
X277600000Y-52710000D03*
X216400000Y-43970000D03*
X278000000Y-54790000D03*
X331200000Y-46600000D03*
X374377804Y-43514172D03*
X295000000Y-54900000D03*
X312100000Y-48200000D03*
X175500000Y-52700000D03*
X333332806Y-52167194D03*
X296300000Y-54099997D03*
X219100000Y-43400000D03*
X173000000Y-54900000D03*
X313229318Y-47510000D03*
X331400000Y-50600000D03*
X164975303Y-55000242D03*
X174322278Y-54900000D03*
X217200000Y-42600000D03*
X332700000Y-47900000D03*
X292200000Y-63100000D03*
X373665219Y-44378130D03*
X317800000Y-61500000D03*
X180700000Y-52600000D03*
X123800000Y-37100000D03*
X118200000Y-35600000D03*
X168500000Y-49500000D03*
X179313433Y-53813424D03*
X166768480Y-53510883D03*
X146324697Y-49100242D03*
X127600000Y-41600000D03*
X166100000Y-50600000D03*
X278250000Y-49250000D03*
X356900000Y-42200000D03*
X354600000Y-43200000D03*
X191000000Y-56100000D03*
X141805000Y-50095000D03*
X174900000Y-66700000D03*
X328100000Y-44700000D03*
X277069222Y-50380222D03*
X355900000Y-49882806D03*
X378327009Y-46906131D03*
X333000000Y-49200000D03*
X276700000Y-56100000D03*
X164902387Y-60626021D03*
X373000000Y-45300000D03*
X287814394Y-64723954D03*
X189926610Y-57306972D03*
X166665687Y-59165687D03*
X334400000Y-51190000D03*
X318300000Y-63700000D03*
X268685399Y-64616690D03*
X288600000Y-65500000D03*
X375050000Y-41750000D03*
X320400000Y-61700000D03*
X268400000Y-66100000D03*
X245600000Y-63800000D03*
X337082781Y-48220318D03*
X353450000Y-53350000D03*
X347800242Y-54675303D03*
X354400000Y-49292806D03*
X350012149Y-54685421D03*
X352000000Y-49200000D03*
X349188402Y-53185996D03*
X337600000Y-46510000D03*
X315200000Y-62200000D03*
X260700000Y-62100000D03*
X268985421Y-63212149D03*
X286084456Y-64142228D03*
X362500000Y-39300000D03*
X149100000Y-48400000D03*
X168035493Y-53767559D03*
X167166606Y-50590000D03*
X166100000Y-54310000D03*
X144617194Y-50117194D03*
X164977862Y-50589185D03*
X133700000Y-56466000D03*
X139872771Y-51527229D03*
X269284864Y-61935318D03*
X299113364Y-59713366D03*
X285700000Y-62925000D03*
X264200000Y-61000000D03*
X126500000Y-53900000D03*
X89187798Y-49575000D03*
X119000000Y-38700000D03*
X108900000Y-39325000D03*
X86900000Y-48700000D03*
X85499997Y-48100000D03*
X87600000Y-49400000D03*
X206810201Y-49335398D03*
X216200000Y-64800000D03*
X392600000Y-68675000D03*
X216200000Y-68940000D03*
X207695000Y-51000000D03*
X378300000Y-69040000D03*
X217920000Y-68940000D03*
X217600000Y-64690000D03*
X281100000Y-42100000D03*
X291800000Y-55300000D03*
X286791240Y-55552687D03*
X281135318Y-43384864D03*
X290450000Y-55850000D03*
M02*
