%TF.GenerationSoftware,KiCad,Pcbnew,8.0.1-8.0.1-1~ubuntu22.04.1*%
%TF.CreationDate,2024-04-24T17:25:44+02:00*%
%TF.ProjectId,Partial_Drawer_Controller_v1,50617274-6961-46c5-9f44-72617765725f,rev?*%
%TF.SameCoordinates,Original*%
%TF.FileFunction,Profile,NP*%
%FSLAX46Y46*%
G04 Gerber Fmt 4.6, Leading zero omitted, Abs format (unit mm)*
G04 Created by KiCad (PCBNEW 8.0.1-8.0.1-1~ubuntu22.04.1) date 2024-04-24 17:25:44*
%MOMM*%
%LPD*%
G01*
G04 APERTURE LIST*
%TA.AperFunction,Profile*%
%ADD10C,0.100000*%
%TD*%
G04 APERTURE END LIST*
D10*
X315909999Y-20000000D02*
G75*
G02*
X284560000Y-31739999I-23834789J15919560D01*
G01*
X111549999Y-20000000D02*
G75*
G02*
X80200000Y-31739999I-23834789J15919560D01*
G01*
X233470000Y-22000000D02*
X233470000Y-31740000D01*
X20000000Y-22000000D02*
G75*
G02*
X22000000Y-20000000I2000000J0D01*
G01*
X27110000Y-20000000D02*
G75*
G02*
X29110000Y-22000000I0J-2000000D01*
G01*
X428720000Y-22000000D02*
X428720000Y-68000000D01*
X131290000Y-22000000D02*
X131290000Y-31740000D01*
X129290000Y-20000000D02*
G75*
G02*
X131290000Y-22000000I0J-2000000D01*
G01*
X20000000Y-22000000D02*
X20000000Y-68000000D01*
X213730000Y-20000000D02*
X231470000Y-20000000D01*
X418090000Y-20000000D02*
X426720000Y-20000000D01*
X22000000Y-70000000D02*
G75*
G02*
X20000000Y-68000000I0J2000000D01*
G01*
X180380000Y-20000000D02*
G75*
G02*
X182380000Y-22000000I0J-2000000D01*
G01*
X22000000Y-70000000D02*
X426720000Y-70000000D01*
X213730000Y-20000000D02*
G75*
G02*
X182380001Y-31739995I-23834790J15919570D01*
G01*
X333650000Y-20000000D02*
G75*
G02*
X335650000Y-22000000I0J-2000000D01*
G01*
X60460000Y-20000000D02*
X78200000Y-20000000D01*
X111550000Y-20000000D02*
X129290000Y-20000000D01*
X315910000Y-20000000D02*
X333650000Y-20000000D01*
X27110000Y-20000000D02*
X22000000Y-20000000D01*
X162639999Y-20000000D02*
G75*
G02*
X131290000Y-31739999I-23834789J15919560D01*
G01*
X386740000Y-22000000D02*
X386740000Y-31740000D01*
X78200000Y-20000000D02*
G75*
G02*
X80200000Y-22000000I0J-2000000D01*
G01*
X426720000Y-20000000D02*
G75*
G02*
X428720000Y-22000000I0J-2000000D01*
G01*
X80200000Y-22000000D02*
X80200000Y-31740000D01*
X284560000Y-22000000D02*
X284560000Y-31740000D01*
X29110000Y-22000000D02*
X29110000Y-31740000D01*
X264819999Y-20000000D02*
G75*
G02*
X233470000Y-31739999I-23834789J15919560D01*
G01*
X162640000Y-20000000D02*
X180380000Y-20000000D01*
X418090000Y-20000000D02*
G75*
G02*
X386740002Y-31739994I-23834800J15919600D01*
G01*
X282560000Y-20000000D02*
G75*
G02*
X284560000Y-22000000I0J-2000000D01*
G01*
X182380000Y-22000000D02*
X182380000Y-31740000D01*
X428720000Y-68000000D02*
G75*
G02*
X426720000Y-70000000I-2000000J0D01*
G01*
X367000000Y-20000000D02*
X384740000Y-20000000D01*
X60459999Y-20000000D02*
G75*
G02*
X29110000Y-31739999I-23834789J15919560D01*
G01*
X335650000Y-22000000D02*
X335650000Y-31740000D01*
X231470000Y-20000000D02*
G75*
G02*
X233470000Y-22000000I0J-2000000D01*
G01*
X367000000Y-20000000D02*
G75*
G02*
X335650002Y-31739994I-23834800J15919600D01*
G01*
X264820000Y-20000000D02*
X282560000Y-20000000D01*
X384740000Y-20000000D02*
G75*
G02*
X386740000Y-22000000I0J-2000000D01*
G01*
M02*
