%TF.GenerationSoftware,KiCad,Pcbnew,8.0.1-8.0.1-1~ubuntu22.04.1*%
%TF.CreationDate,2024-04-25T17:06:52+02:00*%
%TF.ProjectId,Partial_Drawer_Controller_v1,50617274-6961-46c5-9f44-72617765725f,rev?*%
%TF.SameCoordinates,Original*%
%TF.FileFunction,Paste,Bot*%
%TF.FilePolarity,Positive*%
%FSLAX46Y46*%
G04 Gerber Fmt 4.6, Leading zero omitted, Abs format (unit mm)*
G04 Created by KiCad (PCBNEW 8.0.1-8.0.1-1~ubuntu22.04.1) date 2024-04-25 17:06:52*
%MOMM*%
%LPD*%
G01*
G04 APERTURE LIST*
G04 Aperture macros list*
%AMRoundRect*
0 Rectangle with rounded corners*
0 $1 Rounding radius*
0 $2 $3 $4 $5 $6 $7 $8 $9 X,Y pos of 4 corners*
0 Add a 4 corners polygon primitive as box body*
4,1,4,$2,$3,$4,$5,$6,$7,$8,$9,$2,$3,0*
0 Add four circle primitives for the rounded corners*
1,1,$1+$1,$2,$3*
1,1,$1+$1,$4,$5*
1,1,$1+$1,$6,$7*
1,1,$1+$1,$8,$9*
0 Add four rect primitives between the rounded corners*
20,1,$1+$1,$2,$3,$4,$5,0*
20,1,$1+$1,$4,$5,$6,$7,0*
20,1,$1+$1,$6,$7,$8,$9,0*
20,1,$1+$1,$8,$9,$2,$3,0*%
%AMFreePoly0*
4,1,19,0.160014,0.182309,0.196624,0.131920,0.201556,0.100778,0.201556,0.026143,0.182309,-0.033093,0.172039,-0.045118,0.045118,-0.172039,-0.010378,-0.200315,-0.026143,-0.201556,-0.100778,-0.201556,-0.160014,-0.182309,-0.196624,-0.131920,-0.201556,-0.100778,-0.201556,0.100778,-0.182309,0.160014,-0.131920,0.196624,-0.100778,0.201556,0.100778,0.201556,0.160014,0.182309,0.160014,0.182309,
$1*%
%AMFreePoly1*
4,1,21,0.052471,0.262932,0.064496,0.252661,0.172039,0.145117,0.200315,0.089622,0.201556,0.073857,0.201556,-0.073857,0.182309,-0.133093,0.172039,-0.145117,0.064496,-0.252661,0.009001,-0.280938,-0.006765,-0.282179,-0.100778,-0.282179,-0.160014,-0.262932,-0.196624,-0.212543,-0.201556,-0.181401,-0.201556,0.181401,-0.182309,0.240637,-0.131920,0.277247,-0.100778,0.282179,-0.006765,0.282179,
0.052471,0.262932,0.052471,0.262932,$1*%
%AMFreePoly2*
4,1,19,0.033093,0.182309,0.045118,0.172039,0.172039,0.045118,0.200315,-0.010378,0.201556,-0.026143,0.201556,-0.100778,0.182309,-0.160014,0.131920,-0.196624,0.100778,-0.201556,-0.100778,-0.201556,-0.160014,-0.182309,-0.196624,-0.131920,-0.201556,-0.100778,-0.201556,0.100778,-0.182309,0.160014,-0.131920,0.196624,-0.100778,0.201556,-0.026143,0.201556,0.033093,0.182309,0.033093,0.182309,
$1*%
%AMFreePoly3*
4,1,21,0.240637,0.182309,0.277247,0.131920,0.282179,0.100778,0.282179,0.006765,0.262932,-0.052471,0.252661,-0.064496,0.145117,-0.172039,0.089622,-0.200315,0.073857,-0.201556,-0.073857,-0.201556,-0.133093,-0.182309,-0.145117,-0.172039,-0.252661,-0.064496,-0.280938,-0.009001,-0.282179,0.006765,-0.282179,0.100778,-0.262932,0.160014,-0.212543,0.196624,-0.181401,0.201556,0.181401,0.201556,
0.240637,0.182309,0.240637,0.182309,$1*%
%AMFreePoly4*
4,1,25,0.153044,0.262299,0.165464,0.251692,0.251692,0.165464,0.280897,0.108147,0.282178,0.091864,0.282178,-0.091864,0.262299,-0.153044,0.251692,-0.165464,0.165464,-0.251692,0.108147,-0.280897,0.091864,-0.282178,-0.091864,-0.282178,-0.153044,-0.262299,-0.165464,-0.251692,-0.251692,-0.165464,-0.280897,-0.108147,-0.282178,-0.091864,-0.282178,0.091864,-0.262299,0.153044,-0.251692,0.165464,
-0.165464,0.251692,-0.108147,0.280897,-0.091864,0.282178,0.091864,0.282178,0.153044,0.262299,0.153044,0.262299,$1*%
%AMFreePoly5*
4,1,21,0.133093,0.182309,0.145117,0.172039,0.252661,0.064496,0.280938,0.009001,0.282179,-0.006765,0.282179,-0.100778,0.262932,-0.160014,0.212543,-0.196624,0.181401,-0.201556,-0.181401,-0.201556,-0.240637,-0.182309,-0.277247,-0.131920,-0.282179,-0.100778,-0.282179,-0.006765,-0.262932,0.052471,-0.252661,0.064496,-0.145117,0.172039,-0.089622,0.200315,-0.073857,0.201556,0.073857,0.201556,
0.133093,0.182309,0.133093,0.182309,$1*%
%AMFreePoly6*
4,1,19,0.160014,0.182309,0.196624,0.131920,0.201556,0.100778,0.201556,-0.100778,0.182309,-0.160014,0.131920,-0.196624,0.100778,-0.201556,0.026143,-0.201556,-0.033093,-0.182309,-0.045118,-0.172039,-0.172039,-0.045118,-0.200315,0.010378,-0.201556,0.026143,-0.201556,0.100778,-0.182309,0.160014,-0.131920,0.196624,-0.100778,0.201556,0.100778,0.201556,0.160014,0.182309,0.160014,0.182309,
$1*%
%AMFreePoly7*
4,1,21,0.160014,0.262932,0.196624,0.212543,0.201556,0.181401,0.201556,-0.181401,0.182309,-0.240637,0.131920,-0.277247,0.100778,-0.282179,0.006765,-0.282179,-0.052471,-0.262932,-0.064496,-0.252661,-0.172039,-0.145117,-0.200315,-0.089622,-0.201556,-0.073857,-0.201556,0.073857,-0.182309,0.133093,-0.172039,0.145117,-0.064496,0.252661,-0.009001,0.280938,0.006765,0.282179,0.100778,0.282179,
0.160014,0.262932,0.160014,0.262932,$1*%
%AMFreePoly8*
4,1,19,0.160014,0.182309,0.196624,0.131920,0.201556,0.100778,0.201556,-0.100778,0.182309,-0.160014,0.131920,-0.196624,0.100778,-0.201556,-0.100778,-0.201556,-0.160014,-0.182309,-0.196624,-0.131920,-0.201556,-0.100778,-0.201556,-0.026143,-0.182309,0.033093,-0.172039,0.045118,-0.045118,0.172039,0.010378,0.200315,0.026143,0.201556,0.100778,0.201556,0.160014,0.182309,0.160014,0.182309,
$1*%
G04 Aperture macros list end*
%ADD10RoundRect,0.218750X0.256250X-0.218750X0.256250X0.218750X-0.256250X0.218750X-0.256250X-0.218750X0*%
%ADD11RoundRect,0.218750X-0.256250X0.218750X-0.256250X-0.218750X0.256250X-0.218750X0.256250X0.218750X0*%
%ADD12RoundRect,0.200000X-0.200000X-0.275000X0.200000X-0.275000X0.200000X0.275000X-0.200000X0.275000X0*%
%ADD13RoundRect,0.200000X0.275000X-0.200000X0.275000X0.200000X-0.275000X0.200000X-0.275000X-0.200000X0*%
%ADD14RoundRect,0.135000X0.185000X-0.135000X0.185000X0.135000X-0.185000X0.135000X-0.185000X-0.135000X0*%
%ADD15RoundRect,0.135000X-0.135000X-0.185000X0.135000X-0.185000X0.135000X0.185000X-0.135000X0.185000X0*%
%ADD16RoundRect,0.250000X1.075000X-0.312500X1.075000X0.312500X-1.075000X0.312500X-1.075000X-0.312500X0*%
%ADD17RoundRect,0.140000X-0.140000X-0.170000X0.140000X-0.170000X0.140000X0.170000X-0.140000X0.170000X0*%
%ADD18RoundRect,0.200000X0.200000X0.275000X-0.200000X0.275000X-0.200000X-0.275000X0.200000X-0.275000X0*%
%ADD19RoundRect,0.200000X-0.275000X0.200000X-0.275000X-0.200000X0.275000X-0.200000X0.275000X0.200000X0*%
%ADD20RoundRect,0.135000X-0.185000X0.135000X-0.185000X-0.135000X0.185000X-0.135000X0.185000X0.135000X0*%
%ADD21RoundRect,0.135000X0.135000X0.185000X-0.135000X0.185000X-0.135000X-0.185000X0.135000X-0.185000X0*%
%ADD22RoundRect,0.041300X-0.588700X-0.253700X0.588700X-0.253700X0.588700X0.253700X-0.588700X0.253700X0*%
%ADD23RoundRect,0.250000X-1.075000X0.312500X-1.075000X-0.312500X1.075000X-0.312500X1.075000X0.312500X0*%
%ADD24RoundRect,0.225000X0.225000X0.225000X-0.225000X0.225000X-0.225000X-0.225000X0.225000X-0.225000X0*%
%ADD25RoundRect,0.062500X0.337500X0.062500X-0.337500X0.062500X-0.337500X-0.062500X0.337500X-0.062500X0*%
%ADD26RoundRect,0.062500X0.062500X0.337500X-0.062500X0.337500X-0.062500X-0.337500X0.062500X-0.337500X0*%
%ADD27RoundRect,0.140000X0.170000X-0.140000X0.170000X0.140000X-0.170000X0.140000X-0.170000X-0.140000X0*%
%ADD28FreePoly0,270.000000*%
%ADD29FreePoly1,270.000000*%
%ADD30FreePoly2,270.000000*%
%ADD31FreePoly3,270.000000*%
%ADD32FreePoly4,270.000000*%
%ADD33FreePoly5,270.000000*%
%ADD34FreePoly6,270.000000*%
%ADD35FreePoly7,270.000000*%
%ADD36FreePoly8,270.000000*%
%ADD37RoundRect,0.062500X-0.062500X0.412500X-0.062500X-0.412500X0.062500X-0.412500X0.062500X0.412500X0*%
%ADD38RoundRect,0.062500X-0.412500X0.062500X-0.412500X-0.062500X0.412500X-0.062500X0.412500X0.062500X0*%
%ADD39RoundRect,0.140000X-0.170000X0.140000X-0.170000X-0.140000X0.170000X-0.140000X0.170000X0.140000X0*%
%ADD40RoundRect,0.250000X-0.250000X-0.475000X0.250000X-0.475000X0.250000X0.475000X-0.250000X0.475000X0*%
%ADD41RoundRect,0.140000X0.140000X0.170000X-0.140000X0.170000X-0.140000X-0.170000X0.140000X-0.170000X0*%
%ADD42RoundRect,0.250000X0.260000X-0.315000X0.260000X0.315000X-0.260000X0.315000X-0.260000X-0.315000X0*%
%ADD43RoundRect,0.050000X0.050000X-0.362500X0.050000X0.362500X-0.050000X0.362500X-0.050000X-0.362500X0*%
%ADD44RoundRect,0.050000X0.362500X-0.050000X0.362500X0.050000X-0.362500X0.050000X-0.362500X-0.050000X0*%
G04 APERTURE END LIST*
D10*
%TO.C,D164*%
X372782500Y-52787500D03*
X372782500Y-51212500D03*
%TD*%
D11*
%TO.C,D167*%
X359897500Y-51212500D03*
X359897500Y-52787500D03*
%TD*%
D12*
%TO.C,R92*%
X32975000Y-66800000D03*
X34625000Y-66800000D03*
%TD*%
D11*
%TO.C,D62*%
X146947500Y-58212500D03*
X146947500Y-59787500D03*
%TD*%
%TO.C,D52*%
X138357500Y-65212500D03*
X138357500Y-66787500D03*
%TD*%
D13*
%TO.C,R117*%
X84100000Y-52800000D03*
X84100000Y-51150000D03*
%TD*%
D14*
%TO.C,R227*%
X119380000Y-37371000D03*
X119380000Y-36351000D03*
%TD*%
D10*
%TO.C,D102*%
X262012500Y-66787500D03*
X262012500Y-65212500D03*
%TD*%
D15*
%TO.C,R18*%
X414680000Y-48300000D03*
X415700000Y-48300000D03*
%TD*%
D10*
%TO.C,D136*%
X304512500Y-59787500D03*
X304512500Y-58212500D03*
%TD*%
D12*
%TO.C,R135*%
X182975000Y-64500000D03*
X184625000Y-64500000D03*
%TD*%
D10*
%TO.C,D39*%
X100152500Y-59787500D03*
X100152500Y-58212500D03*
%TD*%
%TO.C,D63*%
X151242500Y-59787500D03*
X151242500Y-58212500D03*
%TD*%
D11*
%TO.C,D64*%
X155537500Y-58212500D03*
X155537500Y-59787500D03*
%TD*%
%TO.C,D173*%
X419577500Y-65212500D03*
X419577500Y-66787500D03*
%TD*%
D16*
%TO.C,R230*%
X114961000Y-39762500D03*
X114961000Y-36837500D03*
%TD*%
D10*
%TO.C,D168*%
X355602500Y-52787500D03*
X355602500Y-51212500D03*
%TD*%
%TO.C,D79*%
X202332500Y-66787500D03*
X202332500Y-65212500D03*
%TD*%
%TO.C,D174*%
X415282500Y-66787500D03*
X415282500Y-65212500D03*
%TD*%
%TO.C,D144*%
X304512500Y-52787500D03*
X304512500Y-51212500D03*
%TD*%
D11*
%TO.C,D171*%
X342717500Y-51212500D03*
X342717500Y-52787500D03*
%TD*%
%TO.C,D139*%
X291627500Y-58212500D03*
X291627500Y-59787500D03*
%TD*%
%TO.C,D175*%
X410987500Y-65212500D03*
X410987500Y-66787500D03*
%TD*%
D10*
%TO.C,D21*%
X40472500Y-52787500D03*
X40472500Y-51212500D03*
%TD*%
D11*
%TO.C,D18*%
X61250000Y-58212500D03*
X61250000Y-59787500D03*
%TD*%
%TO.C,D103*%
X257717500Y-65212500D03*
X257717500Y-66787500D03*
%TD*%
%TO.C,D169*%
X351307500Y-51212500D03*
X351307500Y-52787500D03*
%TD*%
D10*
%TO.C,D31*%
X100152500Y-66787500D03*
X100152500Y-65212500D03*
%TD*%
D15*
%TO.C,R216*%
X214090000Y-44800000D03*
X215110000Y-44800000D03*
%TD*%
D10*
%TO.C,D65*%
X159832500Y-59787500D03*
X159832500Y-58212500D03*
%TD*%
D17*
%TO.C,C61*%
X122835000Y-44735000D03*
X123795000Y-44735000D03*
%TD*%
D13*
%TO.C,R150*%
X272190000Y-59860000D03*
X272190000Y-58210000D03*
%TD*%
D18*
%TO.C,R115*%
X90300000Y-54290000D03*
X88650000Y-54290000D03*
%TD*%
D13*
%TO.C,R174*%
X374380000Y-59835000D03*
X374380000Y-58185000D03*
%TD*%
D10*
%TO.C,D89*%
X210922500Y-59787500D03*
X210922500Y-58212500D03*
%TD*%
D19*
%TO.C,R134*%
X187900000Y-65175000D03*
X187900000Y-66825000D03*
%TD*%
D11*
%TO.C,D113*%
X249127500Y-58212500D03*
X249127500Y-59787500D03*
%TD*%
D10*
%TO.C,D57*%
X159832500Y-66787500D03*
X159832500Y-65212500D03*
%TD*%
%TO.C,D83*%
X219512500Y-66787500D03*
X219512500Y-65212500D03*
%TD*%
D12*
%TO.C,R173*%
X372809000Y-61468000D03*
X374459000Y-61468000D03*
%TD*%
D20*
%TO.C,R17*%
X413700000Y-48280000D03*
X413700000Y-49300000D03*
%TD*%
D11*
%TO.C,D119*%
X257717500Y-51212500D03*
X257717500Y-52787500D03*
%TD*%
D10*
%TO.C,D17*%
X57652500Y-59787500D03*
X57652500Y-58212500D03*
%TD*%
%TO.C,D71*%
X151242500Y-52787500D03*
X151242500Y-51212500D03*
%TD*%
D21*
%TO.C,R26*%
X415720000Y-49400000D03*
X414700000Y-49400000D03*
%TD*%
D10*
%TO.C,D186*%
X398102500Y-59787500D03*
X398102500Y-58212500D03*
%TD*%
D13*
%TO.C,R183*%
X425577000Y-62102000D03*
X425577000Y-60452000D03*
%TD*%
%TO.C,R162*%
X323260000Y-59835000D03*
X323260000Y-58185000D03*
%TD*%
%TO.C,R103*%
X32600000Y-60525000D03*
X32600000Y-58875000D03*
%TD*%
D12*
%TO.C,R101*%
X34675000Y-62900000D03*
X36325000Y-62900000D03*
%TD*%
D11*
%TO.C,D20*%
X36177500Y-51212500D03*
X36177500Y-52787500D03*
%TD*%
%TO.C,D84*%
X189447500Y-58212500D03*
X189447500Y-59787500D03*
%TD*%
%TO.C,D131*%
X291627500Y-65212500D03*
X291627500Y-66787500D03*
%TD*%
D19*
%TO.C,R125*%
X136750000Y-58975000D03*
X136750000Y-60625000D03*
%TD*%
D10*
%TO.C,D100*%
X270602500Y-66787500D03*
X270602500Y-65212500D03*
%TD*%
%TO.C,D150*%
X364192500Y-66787500D03*
X364192500Y-65212500D03*
%TD*%
%TO.C,D6*%
X49062500Y-66787500D03*
X49062500Y-65212500D03*
%TD*%
D11*
%TO.C,D137*%
X300217500Y-58212500D03*
X300217500Y-59787500D03*
%TD*%
D10*
%TO.C,D53*%
X142652500Y-66787500D03*
X142652500Y-65212500D03*
%TD*%
%TO.C,D47*%
X100152500Y-52787500D03*
X100152500Y-51212500D03*
%TD*%
D13*
%TO.C,R133*%
X186300000Y-66825000D03*
X186300000Y-65175000D03*
%TD*%
D10*
%TO.C,D132*%
X321692500Y-59787500D03*
X321692500Y-58212500D03*
%TD*%
D11*
%TO.C,D86*%
X198037500Y-58212500D03*
X198037500Y-59787500D03*
%TD*%
D10*
%TO.C,D128*%
X304512500Y-66787500D03*
X304512500Y-65212500D03*
%TD*%
%TO.C,D154*%
X347012500Y-66787500D03*
X347012500Y-65212500D03*
%TD*%
D11*
%TO.C,D117*%
X266307500Y-51212500D03*
X266307500Y-52787500D03*
%TD*%
%TO.C,D153*%
X351307500Y-65212500D03*
X351307500Y-66787500D03*
%TD*%
D22*
%TO.C,U3*%
X72340000Y-48450000D03*
X72340000Y-46550000D03*
X74300000Y-47500000D03*
%TD*%
D23*
%TO.C,R229*%
X114961000Y-42337500D03*
X114961000Y-45262500D03*
%TD*%
D11*
%TO.C,D46*%
X95857500Y-51212500D03*
X95857500Y-52787500D03*
%TD*%
D12*
%TO.C,R138*%
X189180000Y-61300000D03*
X190830000Y-61300000D03*
%TD*%
D11*
%TO.C,D165*%
X368487500Y-51212500D03*
X368487500Y-52787500D03*
%TD*%
D10*
%TO.C,D152*%
X355602500Y-66787500D03*
X355602500Y-65212500D03*
%TD*%
%TO.C,D45*%
X91562500Y-52787500D03*
X91562500Y-51212500D03*
%TD*%
D11*
%TO.C,D155*%
X342717500Y-65212500D03*
X342717500Y-66787500D03*
%TD*%
D21*
%TO.C,R219*%
X214320000Y-40900000D03*
X213300000Y-40900000D03*
%TD*%
D11*
%TO.C,D36*%
X87267500Y-58212500D03*
X87267500Y-59787500D03*
%TD*%
%TO.C,D88*%
X206627500Y-58212500D03*
X206627500Y-59787500D03*
%TD*%
%TO.C,D70*%
X146947500Y-51212500D03*
X146947500Y-52787500D03*
%TD*%
D12*
%TO.C,R109*%
X80975000Y-66800000D03*
X82625000Y-66800000D03*
%TD*%
D14*
%TO.C,R33*%
X60057000Y-31244000D03*
X60057000Y-30224000D03*
%TD*%
D11*
%TO.C,D125*%
X317397500Y-65212500D03*
X317397500Y-66787500D03*
%TD*%
D10*
%TO.C,D25*%
X57652500Y-52787500D03*
X57652500Y-51212500D03*
%TD*%
D11*
%TO.C,D135*%
X308807500Y-58212500D03*
X308807500Y-59787500D03*
%TD*%
D10*
%TO.C,D73*%
X159832500Y-52787500D03*
X159832500Y-51212500D03*
%TD*%
D12*
%TO.C,R142*%
X188350000Y-54300000D03*
X190000000Y-54300000D03*
%TD*%
D10*
%TO.C,D4*%
X40472500Y-66787500D03*
X40472500Y-65212500D03*
%TD*%
%TO.C,D172*%
X423872500Y-66787500D03*
X423872500Y-65212500D03*
%TD*%
%TO.C,D184*%
X406692500Y-59787500D03*
X406692500Y-58212500D03*
%TD*%
D11*
%TO.C,D141*%
X317397500Y-51212500D03*
X317397500Y-52787500D03*
%TD*%
%TO.C,D129*%
X300217500Y-65212500D03*
X300217500Y-66787500D03*
%TD*%
D10*
%TO.C,D124*%
X321692500Y-66787500D03*
X321692500Y-65212500D03*
%TD*%
%TO.C,D59*%
X168422500Y-66787500D03*
X168422500Y-65212500D03*
%TD*%
%TO.C,D23*%
X49062500Y-52787500D03*
X49062500Y-51212500D03*
%TD*%
D11*
%TO.C,D151*%
X359897500Y-65212500D03*
X359897500Y-66787500D03*
%TD*%
%TO.C,D161*%
X351307500Y-58212500D03*
X351307500Y-59787500D03*
%TD*%
%TO.C,D42*%
X113037500Y-58212500D03*
X113037500Y-59787500D03*
%TD*%
D12*
%TO.C,R136*%
X185050000Y-62900000D03*
X186700000Y-62900000D03*
%TD*%
D10*
%TO.C,D156*%
X372782500Y-59787500D03*
X372782500Y-58212500D03*
%TD*%
D12*
%TO.C,R111*%
X80875000Y-64500000D03*
X82525000Y-64500000D03*
%TD*%
D11*
%TO.C,D50*%
X113037500Y-51212500D03*
X113037500Y-52787500D03*
%TD*%
D10*
%TO.C,D190*%
X415282500Y-52787500D03*
X415282500Y-51212500D03*
%TD*%
D18*
%TO.C,R95*%
X28450000Y-65200000D03*
X26800000Y-65200000D03*
%TD*%
D11*
%TO.C,D98*%
X215217500Y-51212500D03*
X215217500Y-52787500D03*
%TD*%
D12*
%TO.C,R105*%
X32965000Y-54320000D03*
X34615000Y-54320000D03*
%TD*%
D20*
%TO.C,R27*%
X412700000Y-48280000D03*
X412700000Y-49300000D03*
%TD*%
D12*
%TO.C,R25*%
X410575000Y-40100000D03*
X412225000Y-40100000D03*
%TD*%
D10*
%TO.C,D162*%
X347012500Y-59787500D03*
X347012500Y-58212500D03*
%TD*%
%TO.C,D41*%
X108742500Y-59787500D03*
X108742500Y-58212500D03*
%TD*%
D11*
%TO.C,D60*%
X138357500Y-58212500D03*
X138357500Y-59787500D03*
%TD*%
D24*
%TO.C,U6*%
X413870000Y-45720000D03*
X413870000Y-44600000D03*
X413870000Y-43480000D03*
X412750000Y-45720000D03*
X412750000Y-44600000D03*
X412750000Y-43480000D03*
X411630000Y-45720000D03*
X411630000Y-44600000D03*
X411630000Y-43480000D03*
D25*
X415200000Y-43100000D03*
X415200000Y-43600000D03*
X415200000Y-44100000D03*
X415200000Y-44600000D03*
X415200000Y-45100000D03*
X415200000Y-45600000D03*
X415200000Y-46100000D03*
D26*
X414250000Y-47050000D03*
X413750000Y-47050000D03*
X413250000Y-47050000D03*
X412750000Y-47050000D03*
X412250000Y-47050000D03*
X411750000Y-47050000D03*
X411250000Y-47050000D03*
D25*
X410300000Y-46100000D03*
X410300000Y-45600000D03*
X410300000Y-45100000D03*
X410300000Y-44600000D03*
X410300000Y-44100000D03*
X410300000Y-43600000D03*
X410300000Y-43100000D03*
D26*
X411250000Y-42150000D03*
X411750000Y-42150000D03*
X412250000Y-42150000D03*
X412750000Y-42150000D03*
X413250000Y-42150000D03*
X413750000Y-42150000D03*
X414250000Y-42150000D03*
%TD*%
D20*
%TO.C,R34*%
X61200000Y-30222000D03*
X61200000Y-31242000D03*
%TD*%
D10*
%TO.C,D51*%
X117332500Y-52787500D03*
X117332500Y-51212500D03*
%TD*%
D13*
%TO.C,R163*%
X323290000Y-55905000D03*
X323290000Y-54255000D03*
%TD*%
D12*
%TO.C,R108*%
X77900000Y-66800000D03*
X79550000Y-66800000D03*
%TD*%
D10*
%TO.C,D37*%
X91562500Y-59787500D03*
X91562500Y-58212500D03*
%TD*%
D19*
%TO.C,R155*%
X326700000Y-61375000D03*
X326700000Y-63025000D03*
%TD*%
D11*
%TO.C,D133*%
X317397500Y-58212500D03*
X317397500Y-59787500D03*
%TD*%
%TO.C,D90*%
X215217500Y-58212500D03*
X215217500Y-59787500D03*
%TD*%
D12*
%TO.C,R123*%
X134075000Y-62100000D03*
X135725000Y-62100000D03*
%TD*%
D11*
%TO.C,D40*%
X104447500Y-58212500D03*
X104447500Y-59787500D03*
%TD*%
D13*
%TO.C,R175*%
X374396000Y-55943000D03*
X374396000Y-54293000D03*
%TD*%
D10*
%TO.C,D33*%
X108742500Y-66787500D03*
X108742500Y-65212500D03*
%TD*%
%TO.C,D116*%
X270602500Y-52787500D03*
X270602500Y-51212500D03*
%TD*%
D27*
%TO.C,C60*%
X117247000Y-39401000D03*
X117247000Y-38441000D03*
%TD*%
D11*
%TO.C,D48*%
X104447500Y-51212500D03*
X104447500Y-52787500D03*
%TD*%
D19*
%TO.C,R167*%
X377698000Y-63501000D03*
X377698000Y-65151000D03*
%TD*%
D13*
%TO.C,R158*%
X323270000Y-66835000D03*
X323270000Y-65185000D03*
%TD*%
D10*
%TO.C,D118*%
X262012500Y-52787500D03*
X262012500Y-51212500D03*
%TD*%
D28*
%TO.C,U11*%
X122238000Y-39752000D03*
D29*
X121638000Y-39752000D03*
X120938000Y-39752000D03*
X120238000Y-39752000D03*
D30*
X119638000Y-39752000D03*
D31*
X122238000Y-40352000D03*
D32*
X121638000Y-40352000D03*
X120938000Y-40352000D03*
X120238000Y-40352000D03*
D33*
X119638000Y-40352000D03*
D31*
X122238000Y-41052000D03*
D32*
X121638000Y-41052000D03*
X120938000Y-41052000D03*
X120238000Y-41052000D03*
D33*
X119638000Y-41052000D03*
D31*
X122238000Y-41752000D03*
D32*
X121638000Y-41752000D03*
X120938000Y-41752000D03*
X120238000Y-41752000D03*
D33*
X119638000Y-41752000D03*
D34*
X122238000Y-42352000D03*
D35*
X121638000Y-42352000D03*
X120938000Y-42352000D03*
X120238000Y-42352000D03*
D36*
X119638000Y-42352000D03*
D37*
X119438000Y-38677000D03*
X119938000Y-38677000D03*
X120438000Y-38677000D03*
X120938000Y-38677000D03*
X121438000Y-38677000D03*
X121938000Y-38677000D03*
X122438000Y-38677000D03*
D38*
X123313000Y-39552000D03*
X123313000Y-40052000D03*
X123313000Y-40552000D03*
X123313000Y-41052000D03*
X123313000Y-41552000D03*
X123313000Y-42052000D03*
X123313000Y-42552000D03*
D37*
X122438000Y-43427000D03*
X121938000Y-43427000D03*
X121438000Y-43427000D03*
X120938000Y-43427000D03*
X120438000Y-43427000D03*
X119938000Y-43427000D03*
X119438000Y-43427000D03*
D38*
X118563000Y-42552000D03*
X118563000Y-42052000D03*
X118563000Y-41552000D03*
X118563000Y-41052000D03*
X118563000Y-40552000D03*
X118563000Y-40052000D03*
X118563000Y-39552000D03*
%TD*%
D10*
%TO.C,D61*%
X142652500Y-59787500D03*
X142652500Y-58212500D03*
%TD*%
D11*
%TO.C,D111*%
X257718310Y-58212500D03*
X257718310Y-59787500D03*
%TD*%
D10*
%TO.C,D182*%
X415282500Y-59787500D03*
X415282500Y-58212500D03*
%TD*%
D12*
%TO.C,R113*%
X83990000Y-61320000D03*
X85640000Y-61320000D03*
%TD*%
%TO.C,R141*%
X185165000Y-54260000D03*
X186815000Y-54260000D03*
%TD*%
%TO.C,R126*%
X138275000Y-61300000D03*
X139925000Y-61300000D03*
%TD*%
D11*
%TO.C,D22*%
X44767500Y-51212500D03*
X44767500Y-52787500D03*
%TD*%
D39*
%TO.C,C59*%
X117247000Y-42759000D03*
X117247000Y-43719000D03*
%TD*%
D10*
%TO.C,D122*%
X244832500Y-52787500D03*
X244832500Y-51212500D03*
%TD*%
D12*
%TO.C,R139*%
X184750000Y-58900000D03*
X186400000Y-58900000D03*
%TD*%
D10*
%TO.C,D81*%
X210922500Y-66787500D03*
X210922500Y-65212500D03*
%TD*%
%TO.C,D146*%
X295922500Y-52787500D03*
X295922500Y-51212500D03*
%TD*%
D13*
%TO.C,R187*%
X420700000Y-56750000D03*
X420700000Y-55100000D03*
%TD*%
D10*
%TO.C,D19*%
X66242500Y-59787500D03*
X66242500Y-58212500D03*
%TD*%
D12*
%TO.C,R189*%
X423775000Y-54300000D03*
X425425000Y-54300000D03*
%TD*%
D39*
%TO.C,C22*%
X416400000Y-45890000D03*
X416400000Y-46850000D03*
%TD*%
D11*
%TO.C,D80*%
X206627500Y-65212500D03*
X206627500Y-66787500D03*
%TD*%
%TO.C,D191*%
X410987500Y-51212500D03*
X410987500Y-52787500D03*
%TD*%
D10*
%TO.C,D158*%
X364192500Y-59787500D03*
X364192500Y-58212500D03*
%TD*%
%TO.C,D134*%
X313102500Y-59787500D03*
X313102500Y-58212500D03*
%TD*%
D13*
%TO.C,R178*%
X374396000Y-52831000D03*
X374396000Y-51181000D03*
%TD*%
D11*
%TO.C,D32*%
X104447500Y-65212500D03*
X104447500Y-66787500D03*
%TD*%
%TO.C,D157*%
X368487500Y-58212500D03*
X368487500Y-59787500D03*
%TD*%
D13*
%TO.C,R154*%
X272210000Y-52845000D03*
X272210000Y-51195000D03*
%TD*%
D11*
%TO.C,D74*%
X164127500Y-51212500D03*
X164127500Y-52787500D03*
%TD*%
D18*
%TO.C,R148*%
X272290000Y-63000000D03*
X270640000Y-63000000D03*
%TD*%
D10*
%TO.C,D91*%
X219512500Y-59787500D03*
X219512500Y-58212500D03*
%TD*%
%TO.C,D9*%
X57652500Y-66787500D03*
X57652500Y-65212500D03*
%TD*%
D12*
%TO.C,R112*%
X82575000Y-62900000D03*
X84225000Y-62900000D03*
%TD*%
D10*
%TO.C,D160*%
X355602500Y-59787500D03*
X355602500Y-58212500D03*
%TD*%
D11*
%TO.C,D123*%
X240537500Y-51212500D03*
X240537500Y-52787500D03*
%TD*%
D12*
%TO.C,R107*%
X74800000Y-66800000D03*
X76450000Y-66800000D03*
%TD*%
%TO.C,R110*%
X84100000Y-66800000D03*
X85750000Y-66800000D03*
%TD*%
D11*
%TO.C,D127*%
X308807500Y-65212500D03*
X308807500Y-66787500D03*
%TD*%
D12*
%TO.C,R152*%
X273750000Y-54300000D03*
X275400000Y-54300000D03*
%TD*%
D11*
%TO.C,D34*%
X113037500Y-65212500D03*
X113037500Y-66787500D03*
%TD*%
D12*
%TO.C,R129*%
X135040000Y-54300000D03*
X136690000Y-54300000D03*
%TD*%
D40*
%TO.C,C25*%
X378850000Y-51000000D03*
X380750000Y-51000000D03*
%TD*%
D11*
%TO.C,D181*%
X419577500Y-58212500D03*
X419577500Y-59787500D03*
%TD*%
%TO.C,D24*%
X53357500Y-51212500D03*
X53357500Y-52787500D03*
%TD*%
D15*
%TO.C,R217*%
X216100000Y-44800000D03*
X217120000Y-44800000D03*
%TD*%
D10*
%TO.C,D29*%
X91562500Y-66787500D03*
X91562500Y-65212500D03*
%TD*%
D13*
%TO.C,R170*%
X374396000Y-66801000D03*
X374396000Y-65151000D03*
%TD*%
D10*
%TO.C,D85*%
X193742500Y-59787500D03*
X193742500Y-58212500D03*
%TD*%
D19*
%TO.C,R118*%
X85700000Y-51175000D03*
X85700000Y-52825000D03*
%TD*%
D12*
%TO.C,R99*%
X29975000Y-64500000D03*
X31625000Y-64500000D03*
%TD*%
D10*
%TO.C,D108*%
X270602500Y-59787500D03*
X270602500Y-58212500D03*
%TD*%
%TO.C,D75*%
X168422500Y-52787500D03*
X168422500Y-51212500D03*
%TD*%
D13*
%TO.C,R140*%
X185700000Y-57350000D03*
X185700000Y-55700000D03*
%TD*%
D10*
%TO.C,D69*%
X142652500Y-52787500D03*
X142652500Y-51212500D03*
%TD*%
D12*
%TO.C,R137*%
X186130000Y-61300000D03*
X187780000Y-61300000D03*
%TD*%
D10*
%TO.C,D43*%
X117332500Y-59787500D03*
X117332500Y-58212500D03*
%TD*%
%TO.C,D13*%
X40472500Y-59787500D03*
X40472500Y-58212500D03*
%TD*%
%TO.C,D49*%
X108742500Y-52787500D03*
X108742500Y-51212500D03*
%TD*%
D19*
%TO.C,R143*%
X277000000Y-65175000D03*
X277000000Y-66825000D03*
%TD*%
D10*
%TO.C,D99*%
X219512500Y-52787500D03*
X219512500Y-51212500D03*
%TD*%
D11*
%TO.C,D94*%
X198037500Y-51212500D03*
X198037500Y-52787500D03*
%TD*%
D13*
%TO.C,R166*%
X323290000Y-52835000D03*
X323290000Y-51185000D03*
%TD*%
D11*
%TO.C,D177*%
X402397500Y-65212500D03*
X402397500Y-66787500D03*
%TD*%
%TO.C,D163*%
X342717500Y-58212500D03*
X342717500Y-59787500D03*
%TD*%
%TO.C,D183*%
X410987500Y-58212500D03*
X410987500Y-59787500D03*
%TD*%
%TO.C,D143*%
X308807500Y-51212500D03*
X308807500Y-52787500D03*
%TD*%
%TO.C,D10*%
X61947500Y-65212500D03*
X61947500Y-66787500D03*
%TD*%
%TO.C,D189*%
X419577500Y-51212500D03*
X419577500Y-52787500D03*
%TD*%
%TO.C,D195*%
X393807500Y-51212500D03*
X393807500Y-52787500D03*
%TD*%
D10*
%TO.C,D140*%
X321692500Y-52787500D03*
X321692500Y-51212500D03*
%TD*%
D11*
%TO.C,D26*%
X61947500Y-51212500D03*
X61947500Y-52787500D03*
%TD*%
D10*
%TO.C,D15*%
X49062500Y-59787500D03*
X49062500Y-58212500D03*
%TD*%
D11*
%TO.C,D38*%
X95857500Y-58212500D03*
X95857500Y-59787500D03*
%TD*%
D12*
%TO.C,R179*%
X425704000Y-63627000D03*
X427354000Y-63627000D03*
%TD*%
%TO.C,R122*%
X135125000Y-66800000D03*
X136775000Y-66800000D03*
%TD*%
D10*
%TO.C,D112*%
X253422500Y-59787500D03*
X253422500Y-58212500D03*
%TD*%
D18*
%TO.C,R181*%
X427101000Y-68326000D03*
X425451000Y-68326000D03*
%TD*%
D41*
%TO.C,C56*%
X121356000Y-36500000D03*
X120396000Y-36500000D03*
%TD*%
D39*
%TO.C,C57*%
X122301000Y-36477000D03*
X122301000Y-37437000D03*
%TD*%
D11*
%TO.C,D68*%
X138357500Y-51212500D03*
X138357500Y-52787500D03*
%TD*%
D19*
%TO.C,R180*%
X427228000Y-65152000D03*
X427228000Y-66802000D03*
%TD*%
D11*
%TO.C,D56*%
X155537500Y-65212500D03*
X155537500Y-66787500D03*
%TD*%
%TO.C,D30*%
X95857500Y-65212500D03*
X95857500Y-66787500D03*
%TD*%
D12*
%TO.C,R100*%
X31575000Y-62900000D03*
X33225000Y-62900000D03*
%TD*%
%TO.C,R114*%
X87050000Y-61310000D03*
X88700000Y-61310000D03*
%TD*%
D11*
%TO.C,D28*%
X87267500Y-65212500D03*
X87267500Y-66787500D03*
%TD*%
%TO.C,D54*%
X146947500Y-65212500D03*
X146947500Y-66787500D03*
%TD*%
D10*
%TO.C,D97*%
X210922500Y-52787500D03*
X210922500Y-51212500D03*
%TD*%
%TO.C,D192*%
X406692500Y-52787500D03*
X406692500Y-51212500D03*
%TD*%
D18*
%TO.C,R165*%
X326516000Y-52705000D03*
X324866000Y-52705000D03*
%TD*%
%TO.C,R169*%
X376115000Y-68300000D03*
X374465000Y-68300000D03*
%TD*%
D10*
%TO.C,D110*%
X262012500Y-59787500D03*
X262012500Y-58212500D03*
%TD*%
D18*
%TO.C,R177*%
X377570000Y-52832000D03*
X375920000Y-52832000D03*
%TD*%
D12*
%TO.C,R106*%
X36015000Y-54310000D03*
X37665000Y-54310000D03*
%TD*%
D11*
%TO.C,D82*%
X215217500Y-65212500D03*
X215217500Y-66787500D03*
%TD*%
%TO.C,D16*%
X53357500Y-58212500D03*
X53357500Y-59787500D03*
%TD*%
%TO.C,D92*%
X189447500Y-51212500D03*
X189447500Y-52787500D03*
%TD*%
D18*
%TO.C,R128*%
X136710000Y-55940000D03*
X135060000Y-55940000D03*
%TD*%
D10*
%TO.C,D138*%
X295922500Y-59787500D03*
X295922500Y-58212500D03*
%TD*%
D11*
%TO.C,D187*%
X393807500Y-58212500D03*
X393807500Y-59787500D03*
%TD*%
%TO.C,D159*%
X359897500Y-58212500D03*
X359897500Y-59787500D03*
%TD*%
D19*
%TO.C,R157*%
X325000000Y-65175000D03*
X325000000Y-66825000D03*
%TD*%
D40*
%TO.C,C49*%
X214250000Y-46400000D03*
X216150000Y-46400000D03*
%TD*%
D19*
%TO.C,R171*%
X376047000Y-61596000D03*
X376047000Y-63246000D03*
%TD*%
D11*
%TO.C,D8*%
X53357500Y-65212500D03*
X53357500Y-66787500D03*
%TD*%
D10*
%TO.C,D35*%
X117332500Y-66787500D03*
X117332500Y-65212500D03*
%TD*%
%TO.C,D95*%
X202332500Y-52787500D03*
X202332500Y-51212500D03*
%TD*%
D19*
%TO.C,R168*%
X376047000Y-65151000D03*
X376047000Y-66801000D03*
%TD*%
D13*
%TO.C,R190*%
X425500000Y-52825000D03*
X425500000Y-51175000D03*
%TD*%
D11*
%TO.C,D109*%
X266307500Y-58212500D03*
X266307500Y-59787500D03*
%TD*%
D13*
%TO.C,R185*%
X427101000Y-57911000D03*
X427101000Y-56261000D03*
%TD*%
D10*
%TO.C,D180*%
X423872500Y-59787500D03*
X423872500Y-58212500D03*
%TD*%
%TO.C,D67*%
X168422500Y-59787500D03*
X168422500Y-58212500D03*
%TD*%
D19*
%TO.C,R14*%
X413700000Y-38775000D03*
X413700000Y-40425000D03*
%TD*%
D12*
%TO.C,R93*%
X29875000Y-66800000D03*
X31525000Y-66800000D03*
%TD*%
D10*
%TO.C,D106*%
X244832500Y-66787500D03*
X244832500Y-65212500D03*
%TD*%
D11*
%TO.C,D58*%
X164127500Y-65212500D03*
X164127500Y-66787500D03*
%TD*%
%TO.C,D107*%
X240537500Y-65212500D03*
X240537500Y-66787500D03*
%TD*%
D12*
%TO.C,R131*%
X180100000Y-66800000D03*
X181750000Y-66800000D03*
%TD*%
D11*
%TO.C,D12*%
X36177500Y-58212500D03*
X36177500Y-59787500D03*
%TD*%
%TO.C,D76*%
X189447500Y-65212500D03*
X189447500Y-66787500D03*
%TD*%
%TO.C,D96*%
X206627500Y-51212500D03*
X206627500Y-52787500D03*
%TD*%
%TO.C,D149*%
X368487500Y-65212500D03*
X368487500Y-66787500D03*
%TD*%
%TO.C,D185*%
X402397500Y-58212500D03*
X402397500Y-59787500D03*
%TD*%
D10*
%TO.C,D142*%
X313102500Y-52787500D03*
X313102500Y-51212500D03*
%TD*%
D11*
%TO.C,D5*%
X44767500Y-65212500D03*
X44767500Y-66787500D03*
%TD*%
D13*
%TO.C,R184*%
X427101000Y-60959000D03*
X427101000Y-59309000D03*
%TD*%
D18*
%TO.C,R153*%
X275450000Y-52700000D03*
X273800000Y-52700000D03*
%TD*%
D12*
%TO.C,R127*%
X135050000Y-57480000D03*
X136700000Y-57480000D03*
%TD*%
D11*
%TO.C,D14*%
X44767500Y-58212500D03*
X44767500Y-59787500D03*
%TD*%
%TO.C,D105*%
X249127500Y-65212500D03*
X249127500Y-66787500D03*
%TD*%
D18*
%TO.C,R172*%
X374459000Y-63119000D03*
X372809000Y-63119000D03*
%TD*%
D10*
%TO.C,D120*%
X253422500Y-52787500D03*
X253422500Y-51212500D03*
%TD*%
D13*
%TO.C,R124*%
X135100000Y-60625000D03*
X135100000Y-58975000D03*
%TD*%
%TO.C,R146*%
X272200000Y-66800000D03*
X272200000Y-65150000D03*
%TD*%
D10*
%TO.C,D176*%
X406692500Y-66787500D03*
X406692500Y-65212500D03*
%TD*%
D11*
%TO.C,D179*%
X393807500Y-65212500D03*
X393807500Y-66787500D03*
%TD*%
D10*
%TO.C,D11*%
X66242500Y-66787500D03*
X66242500Y-65212500D03*
%TD*%
%TO.C,D87*%
X202332500Y-59787500D03*
X202332500Y-58212500D03*
%TD*%
D11*
%TO.C,D72*%
X155537500Y-51212500D03*
X155537500Y-52787500D03*
%TD*%
D15*
%TO.C,R19*%
X416700000Y-48300000D03*
X417720000Y-48300000D03*
%TD*%
D12*
%TO.C,R161*%
X321715000Y-61400000D03*
X323365000Y-61400000D03*
%TD*%
D10*
%TO.C,D55*%
X151242500Y-66787500D03*
X151242500Y-65212500D03*
%TD*%
D18*
%TO.C,R116*%
X87245000Y-54300000D03*
X85595000Y-54300000D03*
%TD*%
D11*
%TO.C,D147*%
X291627500Y-51212500D03*
X291627500Y-52787500D03*
%TD*%
D19*
%TO.C,R145*%
X273800000Y-65145000D03*
X273800000Y-66795000D03*
%TD*%
D12*
%TO.C,R120*%
X129025000Y-66800000D03*
X130675000Y-66800000D03*
%TD*%
D11*
%TO.C,D115*%
X240537500Y-58212500D03*
X240537500Y-59787500D03*
%TD*%
D21*
%TO.C,R21*%
X417720000Y-49400000D03*
X416700000Y-49400000D03*
%TD*%
D11*
%TO.C,D145*%
X300217500Y-51212500D03*
X300217500Y-52787500D03*
%TD*%
D41*
%TO.C,C51*%
X214860000Y-42600000D03*
X213900000Y-42600000D03*
%TD*%
D12*
%TO.C,R102*%
X35675000Y-61300000D03*
X37325000Y-61300000D03*
%TD*%
D13*
%TO.C,R144*%
X275400000Y-66825000D03*
X275400000Y-65175000D03*
%TD*%
D12*
%TO.C,R130*%
X138095000Y-54290000D03*
X139745000Y-54290000D03*
%TD*%
D10*
%TO.C,D170*%
X347012500Y-52787500D03*
X347012500Y-51212500D03*
%TD*%
%TO.C,D188*%
X423872500Y-52787500D03*
X423872500Y-51212500D03*
%TD*%
%TO.C,D148*%
X372782500Y-66787500D03*
X372782500Y-65212500D03*
%TD*%
D12*
%TO.C,R94*%
X26775000Y-66800000D03*
X28425000Y-66800000D03*
%TD*%
%TO.C,R164*%
X324866000Y-54356000D03*
X326516000Y-54356000D03*
%TD*%
D11*
%TO.C,D121*%
X249127500Y-51212500D03*
X249127500Y-52787500D03*
%TD*%
D12*
%TO.C,R132*%
X183175000Y-66800000D03*
X184825000Y-66800000D03*
%TD*%
D18*
%TO.C,R160*%
X323355000Y-62960000D03*
X321705000Y-62960000D03*
%TD*%
D19*
%TO.C,R159*%
X325120000Y-61375000D03*
X325120000Y-63025000D03*
%TD*%
D42*
%TO.C,U4*%
X207830000Y-44100000D03*
X209100000Y-44100000D03*
X210370000Y-44100000D03*
X207830000Y-42700000D03*
X209100000Y-42700000D03*
X210370000Y-42700000D03*
D43*
X211500000Y-45862500D03*
X211100000Y-45862500D03*
X210700000Y-45862500D03*
X210300000Y-45862500D03*
X209900000Y-45862500D03*
X209500000Y-45862500D03*
X209100000Y-45862500D03*
X208700000Y-45862500D03*
X208300000Y-45862500D03*
X207900000Y-45862500D03*
X207500000Y-45862500D03*
X207100000Y-45862500D03*
X206700000Y-45862500D03*
D44*
X206137500Y-45200000D03*
X206137500Y-44800000D03*
X206137500Y-44400000D03*
X206137500Y-44000000D03*
X206137500Y-43600000D03*
X206137500Y-43200000D03*
X206137500Y-42800000D03*
X206137500Y-42400000D03*
X206137500Y-42000000D03*
X206137500Y-41600000D03*
D43*
X206700000Y-40937500D03*
X207100000Y-40937500D03*
X207500000Y-40937500D03*
X207900000Y-40937500D03*
X208300000Y-40937500D03*
X208700000Y-40937500D03*
X209100000Y-40937500D03*
X209500000Y-40937500D03*
X209900000Y-40937500D03*
X210300000Y-40937500D03*
X210700000Y-40937500D03*
X211100000Y-40937500D03*
X211500000Y-40937500D03*
D44*
X212062500Y-41600000D03*
X212062500Y-42000000D03*
X212062500Y-42400000D03*
X212062500Y-42800000D03*
X212062500Y-43200000D03*
X212062500Y-43600000D03*
X212062500Y-44000000D03*
X212062500Y-44400000D03*
X212062500Y-44800000D03*
X212062500Y-45200000D03*
%TD*%
D12*
%TO.C,R176*%
X375921000Y-54483000D03*
X377571000Y-54483000D03*
%TD*%
D11*
%TO.C,D101*%
X266307500Y-65212500D03*
X266307500Y-66787500D03*
%TD*%
D10*
%TO.C,D77*%
X193742500Y-66787500D03*
X193742500Y-65212500D03*
%TD*%
D13*
%TO.C,R188*%
X422300000Y-55850000D03*
X422300000Y-54200000D03*
%TD*%
D11*
%TO.C,D193*%
X402397500Y-51212500D03*
X402397500Y-52787500D03*
%TD*%
D13*
%TO.C,R104*%
X32600000Y-57450000D03*
X32600000Y-55800000D03*
%TD*%
%TO.C,R182*%
X425460000Y-66815000D03*
X425460000Y-65165000D03*
%TD*%
D10*
%TO.C,D194*%
X398102500Y-52787500D03*
X398102500Y-51212500D03*
%TD*%
%TO.C,D93*%
X193742500Y-52787500D03*
X193742500Y-51212500D03*
%TD*%
D11*
%TO.C,D3*%
X36177500Y-65212500D03*
X36177500Y-66787500D03*
%TD*%
%TO.C,D66*%
X164127500Y-58212500D03*
X164127500Y-59787500D03*
%TD*%
D41*
%TO.C,C55*%
X121537000Y-44735000D03*
X120577000Y-44735000D03*
%TD*%
D10*
%TO.C,D104*%
X253422500Y-66787500D03*
X253422500Y-65212500D03*
%TD*%
D12*
%TO.C,R149*%
X270625000Y-61400000D03*
X272275000Y-61400000D03*
%TD*%
D10*
%TO.C,D27*%
X66242500Y-52787500D03*
X66242500Y-51212500D03*
%TD*%
%TO.C,D126*%
X313102500Y-66787500D03*
X313102500Y-65212500D03*
%TD*%
%TO.C,D178*%
X398102500Y-66787500D03*
X398102500Y-65212500D03*
%TD*%
D20*
%TO.C,R235*%
X173700000Y-51990000D03*
X173700000Y-53010000D03*
%TD*%
D10*
%TO.C,D166*%
X364192500Y-52787500D03*
X364192500Y-51212500D03*
%TD*%
D11*
%TO.C,D78*%
X198037500Y-65212500D03*
X198037500Y-66787500D03*
%TD*%
D19*
%TO.C,R186*%
X425450000Y-56262000D03*
X425450000Y-57912000D03*
%TD*%
D10*
%TO.C,D114*%
X244832500Y-59787500D03*
X244832500Y-58212500D03*
%TD*%
D12*
%TO.C,R119*%
X125950000Y-66800000D03*
X127600000Y-66800000D03*
%TD*%
D11*
%TO.C,D44*%
X87267500Y-51212500D03*
X87267500Y-52787500D03*
%TD*%
D19*
%TO.C,R156*%
X326700000Y-64400000D03*
X326700000Y-66050000D03*
%TD*%
D10*
%TO.C,D130*%
X295922500Y-66787500D03*
X295922500Y-65212500D03*
%TD*%
D19*
%TO.C,R147*%
X274000000Y-61475000D03*
X274000000Y-63125000D03*
%TD*%
D18*
%TO.C,R151*%
X275325000Y-55900000D03*
X273675000Y-55900000D03*
%TD*%
D12*
%TO.C,R121*%
X132050000Y-66800000D03*
X133700000Y-66800000D03*
%TD*%
M02*
