M48
; DRILL file {KiCad 8.0.2-8.0.2-0~ubuntu22.04.1} date 2024-04-30T16:20:02+0200
; FORMAT={-:-/ absolute / metric / decimal}
; #@! TF.CreationDate,2024-04-30T16:20:02+02:00
; #@! TF.GenerationSoftware,Kicad,Pcbnew,8.0.2-8.0.2-0~ubuntu22.04.1
; #@! TF.FileFunction,NonPlated,1,4,NPTH
FMAT,2
METRIC
; #@! TA.AperFunction,NonPlated,NPTH,ComponentDrill
T1C1.270
; #@! TA.AperFunction,NonPlated,NPTH,ComponentDrill
T2C2.000
%
G90
G05
T1
X51.0Y-32.04
X63.0Y-32.04
X110.418Y-28.496
X110.418Y-40.496
X161.55Y-28.5
X161.55Y-40.5
X204.27Y-32.04
X216.27Y-32.04
X255.36Y-32.04
X267.36Y-32.04
X306.45Y-32.04
X318.45Y-32.04
X356.8Y-31.14
X368.8Y-31.14
X408.63Y-32.04
X420.63Y-32.04
T2
X63.5Y-44.6G85X63.5Y-45.4
G05
X63.5Y-58.35G85X63.5Y-59.15
G05
X166.5Y-47.1G85X166.5Y-47.9
G05
X216.5Y-54.85G85X216.5Y-55.65
G05
M30
