G04 #@! TF.GenerationSoftware,KiCad,Pcbnew,7.0.2*
G04 #@! TF.CreationDate,2023-06-02T10:52:13+02:00*
G04 #@! TF.ProjectId,Drawer_Controller_Distribution_v1,44726177-6572-45f4-936f-6e74726f6c6c,rev?*
G04 #@! TF.SameCoordinates,Original*
G04 #@! TF.FileFunction,Copper,L2,Inr*
G04 #@! TF.FilePolarity,Positive*
%FSLAX46Y46*%
G04 Gerber Fmt 4.6, Leading zero omitted, Abs format (unit mm)*
G04 Created by KiCad (PCBNEW 7.0.2) date 2023-06-02 10:52:13*
%MOMM*%
%LPD*%
G01*
G04 APERTURE LIST*
G04 Aperture macros list*
%AMRoundRect*
0 Rectangle with rounded corners*
0 $1 Rounding radius*
0 $2 $3 $4 $5 $6 $7 $8 $9 X,Y pos of 4 corners*
0 Add a 4 corners polygon primitive as box body*
4,1,4,$2,$3,$4,$5,$6,$7,$8,$9,$2,$3,0*
0 Add four circle primitives for the rounded corners*
1,1,$1+$1,$2,$3*
1,1,$1+$1,$4,$5*
1,1,$1+$1,$6,$7*
1,1,$1+$1,$8,$9*
0 Add four rect primitives between the rounded corners*
20,1,$1+$1,$2,$3,$4,$5,0*
20,1,$1+$1,$4,$5,$6,$7,0*
20,1,$1+$1,$6,$7,$8,$9,0*
20,1,$1+$1,$8,$9,$2,$3,0*%
G04 Aperture macros list end*
G04 #@! TA.AperFunction,ComponentPad*
%ADD10RoundRect,0.250000X0.650000X1.550000X-0.650000X1.550000X-0.650000X-1.550000X0.650000X-1.550000X0*%
G04 #@! TD*
G04 #@! TA.AperFunction,ComponentPad*
%ADD11O,1.800000X3.600000*%
G04 #@! TD*
G04 #@! TA.AperFunction,ComponentPad*
%ADD12RoundRect,0.250000X-0.650000X-1.550000X0.650000X-1.550000X0.650000X1.550000X-0.650000X1.550000X0*%
G04 #@! TD*
G04 #@! TA.AperFunction,ComponentPad*
%ADD13O,2.500000X3.600000*%
G04 #@! TD*
G04 #@! TA.AperFunction,ComponentPad*
%ADD14RoundRect,0.249999X-0.790001X-1.550001X0.790001X-1.550001X0.790001X1.550001X-0.790001X1.550001X0*%
G04 #@! TD*
G04 #@! TA.AperFunction,ComponentPad*
%ADD15O,2.080000X3.600000*%
G04 #@! TD*
G04 #@! TA.AperFunction,ComponentPad*
%ADD16RoundRect,0.249999X-1.550001X0.790001X-1.550001X-0.790001X1.550001X-0.790001X1.550001X0.790001X0*%
G04 #@! TD*
G04 #@! TA.AperFunction,ComponentPad*
%ADD17O,3.600000X2.080000*%
G04 #@! TD*
G04 #@! TA.AperFunction,ComponentPad*
%ADD18R,1.700000X1.700000*%
G04 #@! TD*
G04 #@! TA.AperFunction,ComponentPad*
%ADD19O,1.700000X1.700000*%
G04 #@! TD*
G04 #@! TA.AperFunction,ComponentPad*
%ADD20RoundRect,0.250000X-1.550000X0.650000X-1.550000X-0.650000X1.550000X-0.650000X1.550000X0.650000X0*%
G04 #@! TD*
G04 #@! TA.AperFunction,ComponentPad*
%ADD21O,3.600000X1.800000*%
G04 #@! TD*
G04 #@! TA.AperFunction,ViaPad*
%ADD22C,0.800000*%
G04 #@! TD*
G04 APERTURE END LIST*
D10*
X227695000Y-134500000D03*
D11*
X224195000Y-134500000D03*
X339295000Y-134632500D03*
D10*
X342795000Y-134632500D03*
X325945000Y-134632500D03*
D11*
X322445000Y-134632500D03*
X276500000Y-134532500D03*
D10*
X280000000Y-134532500D03*
X392045000Y-134782500D03*
D11*
X388545000Y-134782500D03*
D10*
X374900000Y-134800000D03*
D11*
X371400000Y-134800000D03*
D12*
X272805000Y-144567500D03*
D11*
X276305000Y-144567500D03*
D13*
X65150000Y-131000000D03*
X68850000Y-131000000D03*
X73150000Y-131000000D03*
X76850000Y-131000000D03*
X51650000Y-151000000D03*
X55350000Y-151000000D03*
X59650000Y-151000000D03*
X63350000Y-151000000D03*
X85300000Y-146000000D03*
X89000000Y-146000000D03*
X93300000Y-146000000D03*
X97000000Y-146000000D03*
X400300000Y-146000000D03*
X404000000Y-146000000D03*
X408300000Y-146000000D03*
X412000000Y-146000000D03*
X216550000Y-139500000D03*
X220250000Y-139500000D03*
X224550000Y-139500000D03*
X228250000Y-139500000D03*
D12*
X367405000Y-144867500D03*
D11*
X370905000Y-144867500D03*
X387905000Y-144867500D03*
D12*
X384405000Y-144867500D03*
D14*
X69460000Y-136722500D03*
D15*
X74540000Y-136722500D03*
D13*
X314400000Y-139600000D03*
X318100000Y-139600000D03*
X322400000Y-139600000D03*
X326100000Y-139600000D03*
D12*
X220555000Y-144567500D03*
D11*
X224055000Y-144567500D03*
D12*
X318405000Y-144635000D03*
D11*
X321905000Y-144635000D03*
D16*
X46277500Y-144460000D03*
D17*
X46277500Y-149540000D03*
D13*
X363450000Y-139800000D03*
X367150000Y-139800000D03*
X371450000Y-139800000D03*
X375150000Y-139800000D03*
D18*
X31700000Y-145060000D03*
D19*
X29160000Y-145060000D03*
X31700000Y-142520000D03*
X29160000Y-142520000D03*
X31700000Y-139980000D03*
X29160000Y-139980000D03*
X31700000Y-137440000D03*
X29160000Y-137440000D03*
X31700000Y-134900000D03*
X29160000Y-134900000D03*
D13*
X331400000Y-139600000D03*
X335100000Y-139600000D03*
X339400000Y-139600000D03*
X343100000Y-139600000D03*
D12*
X335405000Y-144635000D03*
D11*
X338905000Y-144635000D03*
D20*
X45432500Y-129555000D03*
D21*
X45432500Y-133055000D03*
X45432500Y-136555000D03*
D18*
X421000000Y-145160000D03*
D19*
X423540000Y-145160000D03*
X421000000Y-142620000D03*
X423540000Y-142620000D03*
X421000000Y-140080000D03*
X423540000Y-140080000D03*
X421000000Y-137540000D03*
X423540000Y-137540000D03*
X421000000Y-135000000D03*
X423540000Y-135000000D03*
D13*
X294800000Y-146000000D03*
X298500000Y-146000000D03*
X302800000Y-146000000D03*
X306500000Y-146000000D03*
X190300000Y-146000000D03*
X194000000Y-146000000D03*
X198300000Y-146000000D03*
X202000000Y-146000000D03*
X268750000Y-139500000D03*
X272450000Y-139500000D03*
X276750000Y-139500000D03*
X280450000Y-139500000D03*
X392150000Y-139800000D03*
X388450000Y-139800000D03*
X384150000Y-139800000D03*
X380450000Y-139800000D03*
D22*
X418950000Y-143500000D03*
X418925000Y-141825000D03*
X414960000Y-131730000D03*
X414950000Y-129130000D03*
X397160000Y-131680000D03*
X397150000Y-129270000D03*
X99990000Y-131660000D03*
X99940000Y-129210000D03*
X82110000Y-131640000D03*
X82080000Y-129200000D03*
X187110000Y-131630000D03*
X187120000Y-129200000D03*
X204990000Y-131650000D03*
X204870000Y-129120000D03*
X309980000Y-131710000D03*
X309910000Y-129120000D03*
X292090000Y-129150000D03*
X292090000Y-131840000D03*
X408550000Y-138420000D03*
X407550000Y-138430000D03*
X407524000Y-140734500D03*
X404490000Y-138465500D03*
X405510000Y-139200000D03*
X406540000Y-140000000D03*
X303550000Y-138390000D03*
X302540000Y-138400000D03*
X302524000Y-140834500D03*
X299500000Y-138565500D03*
X300530000Y-139290000D03*
X301520000Y-140100000D03*
X194480000Y-138465500D03*
X198550000Y-138410000D03*
X197520000Y-138420000D03*
X197524000Y-140734500D03*
X195500000Y-139200000D03*
X196540000Y-140000000D03*
X93590000Y-138340000D03*
X92550000Y-138330000D03*
X89510000Y-138640000D03*
X92574303Y-141334500D03*
X90472500Y-139807500D03*
X91551000Y-140592500D03*
X416400000Y-139700000D03*
X416400000Y-137900000D03*
G04 #@! TA.AperFunction,Conductor*
G36*
X31240507Y-142310156D02*
G01*
X31200000Y-142448111D01*
X31200000Y-142591889D01*
X31240507Y-142729844D01*
X31266314Y-142770000D01*
X29593686Y-142770000D01*
X29619493Y-142729844D01*
X29660000Y-142591889D01*
X29660000Y-142448111D01*
X29619493Y-142310156D01*
X29593686Y-142270000D01*
X31266314Y-142270000D01*
X31240507Y-142310156D01*
G37*
G04 #@! TD.AperFunction*
G04 #@! TA.AperFunction,Conductor*
G36*
X29410000Y-142084498D02*
G01*
X29302315Y-142035320D01*
X29195763Y-142020000D01*
X29124237Y-142020000D01*
X29017685Y-142035320D01*
X28910000Y-142084498D01*
X28910000Y-140415501D01*
X29017685Y-140464680D01*
X29124237Y-140480000D01*
X29195763Y-140480000D01*
X29302315Y-140464680D01*
X29410000Y-140415501D01*
X29410000Y-142084498D01*
G37*
G04 #@! TD.AperFunction*
G04 #@! TA.AperFunction,Conductor*
G36*
X29410000Y-139544498D02*
G01*
X29302315Y-139495320D01*
X29195763Y-139480000D01*
X29124237Y-139480000D01*
X29017685Y-139495320D01*
X28910000Y-139544498D01*
X28910000Y-137875501D01*
X29017685Y-137924680D01*
X29124237Y-137940000D01*
X29195763Y-137940000D01*
X29302315Y-137924680D01*
X29410000Y-137875501D01*
X29410000Y-139544498D01*
G37*
G04 #@! TD.AperFunction*
G04 #@! TA.AperFunction,Conductor*
G36*
X424942539Y-125020185D02*
G01*
X424988294Y-125072989D01*
X424999500Y-125124500D01*
X424999500Y-134375024D01*
X424979815Y-134442063D01*
X424927011Y-134487818D01*
X424857853Y-134497762D01*
X424794297Y-134468737D01*
X424763118Y-134427429D01*
X424742167Y-134382500D01*
X424714035Y-134322171D01*
X424578495Y-134128599D01*
X424411401Y-133961505D01*
X424217830Y-133825965D01*
X424003663Y-133726097D01*
X423942502Y-133709709D01*
X423775407Y-133664936D01*
X423540000Y-133644340D01*
X423304592Y-133664936D01*
X423076336Y-133726097D01*
X422862170Y-133825965D01*
X422668598Y-133961505D01*
X422501505Y-134128598D01*
X422371575Y-134314159D01*
X422316998Y-134357784D01*
X422247500Y-134364978D01*
X422185145Y-134333455D01*
X422168425Y-134314159D01*
X422128951Y-134257784D01*
X422038495Y-134128599D01*
X421871401Y-133961505D01*
X421677830Y-133825965D01*
X421463663Y-133726097D01*
X421402502Y-133709709D01*
X421235407Y-133664936D01*
X421000000Y-133644340D01*
X420764592Y-133664936D01*
X420536336Y-133726097D01*
X420322170Y-133825965D01*
X420128598Y-133961505D01*
X419961505Y-134128598D01*
X419825965Y-134322170D01*
X419726097Y-134536336D01*
X419664936Y-134764592D01*
X419644340Y-135000000D01*
X419664936Y-135235407D01*
X419701545Y-135372032D01*
X419726097Y-135463663D01*
X419825965Y-135677830D01*
X419961505Y-135871401D01*
X420128599Y-136038495D01*
X420314160Y-136168426D01*
X420357783Y-136223002D01*
X420364976Y-136292501D01*
X420333454Y-136354855D01*
X420314158Y-136371575D01*
X420137390Y-136495350D01*
X420128595Y-136501508D01*
X419961505Y-136668598D01*
X419825965Y-136862170D01*
X419726097Y-137076336D01*
X419664936Y-137304592D01*
X419644340Y-137539999D01*
X419664936Y-137775407D01*
X419702397Y-137915211D01*
X419726097Y-138003663D01*
X419825965Y-138217830D01*
X419961505Y-138411401D01*
X420128599Y-138578495D01*
X420314160Y-138708426D01*
X420357783Y-138763002D01*
X420364976Y-138832501D01*
X420333454Y-138894855D01*
X420314158Y-138911575D01*
X420144962Y-139030048D01*
X420128595Y-139041508D01*
X419961505Y-139208598D01*
X419825965Y-139402170D01*
X419726097Y-139616336D01*
X419664936Y-139844592D01*
X419644340Y-140080000D01*
X419664936Y-140315407D01*
X419705900Y-140468285D01*
X419726097Y-140543663D01*
X419825965Y-140757830D01*
X419961505Y-140951401D01*
X420128599Y-141118495D01*
X420314596Y-141248732D01*
X420358219Y-141303307D01*
X420365412Y-141372806D01*
X420333890Y-141435160D01*
X420314595Y-141451880D01*
X420128919Y-141581892D01*
X419961890Y-141748921D01*
X419826400Y-141942421D01*
X419726569Y-142156507D01*
X419669364Y-142369999D01*
X419669364Y-142370000D01*
X420566314Y-142370000D01*
X420540507Y-142410156D01*
X420500000Y-142548111D01*
X420500000Y-142691889D01*
X420540507Y-142829844D01*
X420566314Y-142870000D01*
X419669364Y-142870000D01*
X419726569Y-143083492D01*
X419826399Y-143297576D01*
X419961893Y-143491081D01*
X420083946Y-143613134D01*
X420117431Y-143674457D01*
X420112447Y-143744149D01*
X420070575Y-143800082D01*
X420039599Y-143816997D01*
X419907669Y-143866204D01*
X419792454Y-143952454D01*
X419706204Y-144067668D01*
X419664519Y-144179433D01*
X419655909Y-144202517D01*
X419649500Y-144262127D01*
X419649500Y-144265448D01*
X419649500Y-144265449D01*
X419649500Y-146054560D01*
X419649500Y-146054578D01*
X419649501Y-146057872D01*
X419649853Y-146061152D01*
X419649854Y-146061159D01*
X419655909Y-146117484D01*
X419657470Y-146121668D01*
X419706204Y-146252331D01*
X419792454Y-146367546D01*
X419907669Y-146453796D01*
X420042517Y-146504091D01*
X420102127Y-146510500D01*
X421897872Y-146510499D01*
X421957483Y-146504091D01*
X422092331Y-146453796D01*
X422207546Y-146367546D01*
X422293796Y-146252331D01*
X422342810Y-146120916D01*
X422384681Y-146064983D01*
X422450146Y-146040566D01*
X422518419Y-146055418D01*
X422546673Y-146076569D01*
X422668599Y-146198495D01*
X422862170Y-146334035D01*
X423076337Y-146433903D01*
X423304592Y-146495063D01*
X423540000Y-146515659D01*
X423775408Y-146495063D01*
X424003663Y-146433903D01*
X424217830Y-146334035D01*
X424411401Y-146198495D01*
X424578495Y-146031401D01*
X424714035Y-145837830D01*
X424763118Y-145732570D01*
X424809290Y-145680131D01*
X424876483Y-145660979D01*
X424943365Y-145681195D01*
X424988699Y-145734360D01*
X424999500Y-145784975D01*
X424999500Y-154875500D01*
X424979815Y-154942539D01*
X424927011Y-154988294D01*
X424875500Y-154999500D01*
X25124500Y-154999500D01*
X25057461Y-154979815D01*
X25011706Y-154927011D01*
X25000500Y-154875500D01*
X25000500Y-151067764D01*
X27145787Y-151067764D01*
X27175413Y-151337016D01*
X27175414Y-151337018D01*
X27243928Y-151599088D01*
X27334249Y-151811630D01*
X27349871Y-151848392D01*
X27490982Y-152079611D01*
X27580253Y-152186881D01*
X27664255Y-152287820D01*
X27865998Y-152468582D01*
X28091910Y-152618044D01*
X28198211Y-152667876D01*
X28337177Y-152733021D01*
X28596562Y-152811058D01*
X28596569Y-152811060D01*
X28864561Y-152850500D01*
X28864564Y-152850500D01*
X29065369Y-152850500D01*
X29067631Y-152850500D01*
X29270156Y-152835677D01*
X29534553Y-152776780D01*
X29787558Y-152680014D01*
X30023777Y-152547441D01*
X30238177Y-152381888D01*
X30426186Y-152186881D01*
X30583799Y-151966579D01*
X30707656Y-151725675D01*
X30745245Y-151615494D01*
X49899500Y-151615494D01*
X49899672Y-151617797D01*
X49899673Y-151617808D01*
X49914197Y-151811627D01*
X49972580Y-152067418D01*
X50068431Y-152311641D01*
X50199613Y-152538856D01*
X50240509Y-152590138D01*
X50363195Y-152743981D01*
X50363197Y-152743983D01*
X50363198Y-152743984D01*
X50555514Y-152922428D01*
X50555520Y-152922432D01*
X50555521Y-152922433D01*
X50772296Y-153070228D01*
X51008677Y-153184063D01*
X51259385Y-153261396D01*
X51518818Y-153300500D01*
X51781182Y-153300500D01*
X52040615Y-153261396D01*
X52291323Y-153184063D01*
X52527704Y-153070228D01*
X52744479Y-152922433D01*
X52744482Y-152922429D01*
X52744485Y-152922428D01*
X52864513Y-152811058D01*
X52936805Y-152743981D01*
X53100386Y-152538857D01*
X53231568Y-152311643D01*
X53327420Y-152067416D01*
X53379109Y-151840951D01*
X53413217Y-151779975D01*
X53474878Y-151747117D01*
X53544515Y-151752812D01*
X53600019Y-151795252D01*
X53620890Y-151840953D01*
X53672580Y-152067418D01*
X53768431Y-152311641D01*
X53899613Y-152538856D01*
X53940509Y-152590138D01*
X54063195Y-152743981D01*
X54063197Y-152743983D01*
X54063198Y-152743984D01*
X54255514Y-152922428D01*
X54255520Y-152922432D01*
X54255521Y-152922433D01*
X54472296Y-153070228D01*
X54708677Y-153184063D01*
X54959385Y-153261396D01*
X55218818Y-153300500D01*
X55481182Y-153300500D01*
X55740615Y-153261396D01*
X55991323Y-153184063D01*
X56227704Y-153070228D01*
X56444479Y-152922433D01*
X56444482Y-152922429D01*
X56444485Y-152922428D01*
X56564513Y-152811058D01*
X56636805Y-152743981D01*
X56800386Y-152538857D01*
X56931568Y-152311643D01*
X57027420Y-152067416D01*
X57085802Y-151811630D01*
X57100500Y-151615494D01*
X57899500Y-151615494D01*
X57899672Y-151617797D01*
X57899673Y-151617808D01*
X57914197Y-151811627D01*
X57972580Y-152067418D01*
X58068431Y-152311641D01*
X58199613Y-152538856D01*
X58240509Y-152590138D01*
X58363195Y-152743981D01*
X58363197Y-152743983D01*
X58363198Y-152743984D01*
X58555514Y-152922428D01*
X58555520Y-152922432D01*
X58555521Y-152922433D01*
X58772296Y-153070228D01*
X59008677Y-153184063D01*
X59259385Y-153261396D01*
X59518818Y-153300500D01*
X59781182Y-153300500D01*
X60040615Y-153261396D01*
X60291323Y-153184063D01*
X60527704Y-153070228D01*
X60744479Y-152922433D01*
X60744482Y-152922429D01*
X60744485Y-152922428D01*
X60864513Y-152811058D01*
X60936805Y-152743981D01*
X61100386Y-152538857D01*
X61231568Y-152311643D01*
X61327420Y-152067416D01*
X61379109Y-151840951D01*
X61413217Y-151779975D01*
X61474878Y-151747117D01*
X61544515Y-151752812D01*
X61600019Y-151795252D01*
X61620890Y-151840953D01*
X61672580Y-152067418D01*
X61768431Y-152311641D01*
X61899613Y-152538856D01*
X61940509Y-152590138D01*
X62063195Y-152743981D01*
X62063197Y-152743983D01*
X62063198Y-152743984D01*
X62255514Y-152922428D01*
X62255520Y-152922432D01*
X62255521Y-152922433D01*
X62472296Y-153070228D01*
X62708677Y-153184063D01*
X62959385Y-153261396D01*
X63218818Y-153300500D01*
X63481182Y-153300500D01*
X63740615Y-153261396D01*
X63991323Y-153184063D01*
X64227704Y-153070228D01*
X64444479Y-152922433D01*
X64444482Y-152922429D01*
X64444485Y-152922428D01*
X64564513Y-152811058D01*
X64636805Y-152743981D01*
X64800386Y-152538857D01*
X64931568Y-152311643D01*
X65027420Y-152067416D01*
X65085802Y-151811630D01*
X65100500Y-151615494D01*
X65100500Y-151067764D01*
X419145787Y-151067764D01*
X419175413Y-151337016D01*
X419175414Y-151337018D01*
X419243928Y-151599088D01*
X419334249Y-151811630D01*
X419349871Y-151848392D01*
X419490982Y-152079611D01*
X419580253Y-152186881D01*
X419664255Y-152287820D01*
X419865998Y-152468582D01*
X420091910Y-152618044D01*
X420198211Y-152667876D01*
X420337177Y-152733021D01*
X420596562Y-152811058D01*
X420596569Y-152811060D01*
X420864561Y-152850500D01*
X420864564Y-152850500D01*
X421065369Y-152850500D01*
X421067631Y-152850500D01*
X421270156Y-152835677D01*
X421534553Y-152776780D01*
X421787558Y-152680014D01*
X422023777Y-152547441D01*
X422238177Y-152381888D01*
X422426186Y-152186881D01*
X422583799Y-151966579D01*
X422707656Y-151725675D01*
X422795118Y-151469305D01*
X422844319Y-151202933D01*
X422854212Y-150932235D01*
X422824586Y-150662982D01*
X422756072Y-150400912D01*
X422650130Y-150151610D01*
X422516458Y-149932581D01*
X422509017Y-149920388D01*
X422335746Y-149712181D01*
X422230759Y-149618112D01*
X422134002Y-149531418D01*
X421908090Y-149381956D01*
X421908086Y-149381954D01*
X421662822Y-149266978D01*
X421403437Y-149188941D01*
X421403431Y-149188940D01*
X421135439Y-149149500D01*
X420932369Y-149149500D01*
X420930120Y-149149664D01*
X420930109Y-149149665D01*
X420729843Y-149164322D01*
X420465449Y-149223219D01*
X420212441Y-149319986D01*
X419976223Y-149452559D01*
X419761825Y-149618109D01*
X419573813Y-149813120D01*
X419416201Y-150033420D01*
X419292342Y-150274329D01*
X419204881Y-150530695D01*
X419155680Y-150797066D01*
X419145787Y-151067764D01*
X65100500Y-151067764D01*
X65100500Y-150384506D01*
X65085802Y-150188370D01*
X65027420Y-149932584D01*
X65027418Y-149932580D01*
X64940918Y-149712181D01*
X64931568Y-149688357D01*
X64800386Y-149461143D01*
X64636805Y-149256019D01*
X64609685Y-149230855D01*
X64444485Y-149077571D01*
X64427170Y-149065766D01*
X64227704Y-148929772D01*
X63991323Y-148815937D01*
X63740615Y-148738604D01*
X63481182Y-148699500D01*
X63218818Y-148699500D01*
X62959385Y-148738604D01*
X62708677Y-148815937D01*
X62472296Y-148929772D01*
X62402922Y-148977070D01*
X62255514Y-149077571D01*
X62063198Y-149256015D01*
X61899613Y-149461143D01*
X61768431Y-149688358D01*
X61672581Y-149932580D01*
X61620890Y-150159047D01*
X61586781Y-150220025D01*
X61525119Y-150252882D01*
X61455482Y-150247186D01*
X61399979Y-150204746D01*
X61379109Y-150159050D01*
X61327420Y-149932584D01*
X61327418Y-149932580D01*
X61240918Y-149712181D01*
X61231568Y-149688357D01*
X61100386Y-149461143D01*
X60936805Y-149256019D01*
X60909685Y-149230855D01*
X60744485Y-149077571D01*
X60727170Y-149065766D01*
X60527704Y-148929772D01*
X60291323Y-148815937D01*
X60040615Y-148738604D01*
X59781182Y-148699500D01*
X59518818Y-148699500D01*
X59259385Y-148738604D01*
X59008677Y-148815937D01*
X58772296Y-148929772D01*
X58702922Y-148977070D01*
X58555514Y-149077571D01*
X58363198Y-149256015D01*
X58199613Y-149461143D01*
X58068431Y-149688358D01*
X57972580Y-149932581D01*
X57914197Y-150188372D01*
X57899673Y-150382191D01*
X57899500Y-150384506D01*
X57899500Y-151615494D01*
X57100500Y-151615494D01*
X57100500Y-150384506D01*
X57085802Y-150188370D01*
X57027420Y-149932584D01*
X57027418Y-149932580D01*
X56940918Y-149712181D01*
X56931568Y-149688357D01*
X56800386Y-149461143D01*
X56636805Y-149256019D01*
X56609685Y-149230855D01*
X56444485Y-149077571D01*
X56427170Y-149065766D01*
X56227704Y-148929772D01*
X55991323Y-148815937D01*
X55740615Y-148738604D01*
X55481182Y-148699500D01*
X55218818Y-148699500D01*
X54959385Y-148738604D01*
X54708677Y-148815937D01*
X54472296Y-148929772D01*
X54402922Y-148977070D01*
X54255514Y-149077571D01*
X54063198Y-149256015D01*
X53899613Y-149461143D01*
X53768431Y-149688358D01*
X53672581Y-149932580D01*
X53620890Y-150159047D01*
X53586781Y-150220025D01*
X53525119Y-150252882D01*
X53455482Y-150247186D01*
X53399979Y-150204746D01*
X53379109Y-150159050D01*
X53327420Y-149932584D01*
X53327418Y-149932580D01*
X53240918Y-149712181D01*
X53231568Y-149688357D01*
X53100386Y-149461143D01*
X52936805Y-149256019D01*
X52909685Y-149230855D01*
X52744485Y-149077571D01*
X52727170Y-149065766D01*
X52527704Y-148929772D01*
X52291323Y-148815937D01*
X52040615Y-148738604D01*
X51781182Y-148699500D01*
X51518818Y-148699500D01*
X51259385Y-148738604D01*
X51008677Y-148815937D01*
X50772296Y-148929772D01*
X50702922Y-148977070D01*
X50555514Y-149077571D01*
X50363198Y-149256015D01*
X50199613Y-149461143D01*
X50068431Y-149688358D01*
X49972580Y-149932581D01*
X49914197Y-150188372D01*
X49899673Y-150382191D01*
X49899500Y-150384506D01*
X49899500Y-151615494D01*
X30745245Y-151615494D01*
X30795118Y-151469305D01*
X30844319Y-151202933D01*
X30854212Y-150932235D01*
X30824586Y-150662982D01*
X30756072Y-150400912D01*
X30650130Y-150151610D01*
X30516458Y-149932581D01*
X30509017Y-149920388D01*
X30335746Y-149712181D01*
X30230759Y-149618112D01*
X30213030Y-149602227D01*
X43973240Y-149602227D01*
X44003222Y-149849144D01*
X44023859Y-149920390D01*
X44072421Y-150088046D01*
X44179047Y-150312756D01*
X44320339Y-150517452D01*
X44492636Y-150696832D01*
X44691477Y-150846251D01*
X44691479Y-150846252D01*
X44911706Y-150961837D01*
X44911709Y-150961838D01*
X44911711Y-150961839D01*
X45147635Y-151040602D01*
X45344037Y-151072520D01*
X45393137Y-151080500D01*
X45393138Y-151080500D01*
X47097100Y-151080500D01*
X47099585Y-151080500D01*
X47285418Y-151065498D01*
X47526914Y-151005974D01*
X47755735Y-150908483D01*
X47965954Y-150775548D01*
X48152127Y-150610614D01*
X48309431Y-150417951D01*
X48433793Y-150202549D01*
X48521992Y-149969988D01*
X48571743Y-149726291D01*
X48581759Y-149477769D01*
X48551778Y-149230858D01*
X48482579Y-148991954D01*
X48375953Y-148767244D01*
X48234661Y-148562548D01*
X48062364Y-148383168D01*
X47863523Y-148233749D01*
X47863521Y-148233748D01*
X47863520Y-148233747D01*
X47643293Y-148118162D01*
X47564527Y-148091866D01*
X47407365Y-148039398D01*
X47407361Y-148039397D01*
X47407360Y-148039397D01*
X47161863Y-147999500D01*
X47161862Y-147999500D01*
X45455415Y-147999500D01*
X45452960Y-147999698D01*
X45452939Y-147999699D01*
X45269582Y-148014502D01*
X45028087Y-148074025D01*
X44799260Y-148171519D01*
X44589049Y-148304449D01*
X44402870Y-148469388D01*
X44245569Y-148662048D01*
X44121207Y-148877450D01*
X44033007Y-149110012D01*
X43983256Y-149353711D01*
X43973240Y-149602227D01*
X30213030Y-149602227D01*
X30134002Y-149531418D01*
X29908090Y-149381956D01*
X29908086Y-149381954D01*
X29662822Y-149266978D01*
X29403437Y-149188941D01*
X29403431Y-149188940D01*
X29135439Y-149149500D01*
X28932369Y-149149500D01*
X28930120Y-149149664D01*
X28930109Y-149149665D01*
X28729843Y-149164322D01*
X28465449Y-149223219D01*
X28212441Y-149319986D01*
X27976223Y-149452559D01*
X27761825Y-149618109D01*
X27573813Y-149813120D01*
X27416201Y-150033420D01*
X27292342Y-150274329D01*
X27204881Y-150530695D01*
X27155680Y-150797066D01*
X27145787Y-151067764D01*
X25000500Y-151067764D01*
X25000500Y-146615494D01*
X83549500Y-146615494D01*
X83549672Y-146617797D01*
X83549673Y-146617808D01*
X83564197Y-146811627D01*
X83622580Y-147067418D01*
X83718431Y-147311641D01*
X83718432Y-147311643D01*
X83849614Y-147538857D01*
X84013195Y-147743981D01*
X84013197Y-147743983D01*
X84013198Y-147743984D01*
X84205514Y-147922428D01*
X84205520Y-147922432D01*
X84205521Y-147922433D01*
X84422296Y-148070228D01*
X84658677Y-148184063D01*
X84909385Y-148261396D01*
X85168818Y-148300500D01*
X85431182Y-148300500D01*
X85690615Y-148261396D01*
X85941323Y-148184063D01*
X86177704Y-148070228D01*
X86394479Y-147922433D01*
X86394482Y-147922429D01*
X86394485Y-147922428D01*
X86479792Y-147843273D01*
X86586805Y-147743981D01*
X86750386Y-147538857D01*
X86881568Y-147311643D01*
X86977420Y-147067416D01*
X87029109Y-146840952D01*
X87063218Y-146779975D01*
X87124879Y-146747117D01*
X87194517Y-146752812D01*
X87250020Y-146795252D01*
X87270890Y-146840952D01*
X87274555Y-146857006D01*
X87322580Y-147067418D01*
X87418431Y-147311641D01*
X87418432Y-147311643D01*
X87549614Y-147538857D01*
X87713195Y-147743981D01*
X87713197Y-147743983D01*
X87713198Y-147743984D01*
X87905514Y-147922428D01*
X87905520Y-147922432D01*
X87905521Y-147922433D01*
X88122296Y-148070228D01*
X88358677Y-148184063D01*
X88609385Y-148261396D01*
X88868818Y-148300500D01*
X89131182Y-148300500D01*
X89390615Y-148261396D01*
X89641323Y-148184063D01*
X89877704Y-148070228D01*
X90094479Y-147922433D01*
X90094482Y-147922429D01*
X90094485Y-147922428D01*
X90179792Y-147843273D01*
X90286805Y-147743981D01*
X90450386Y-147538857D01*
X90581568Y-147311643D01*
X90677420Y-147067416D01*
X90735802Y-146811630D01*
X90750500Y-146615494D01*
X91549500Y-146615494D01*
X91549672Y-146617797D01*
X91549673Y-146617808D01*
X91564197Y-146811627D01*
X91622580Y-147067418D01*
X91718431Y-147311641D01*
X91718432Y-147311643D01*
X91849614Y-147538857D01*
X92013195Y-147743981D01*
X92013197Y-147743983D01*
X92013198Y-147743984D01*
X92205514Y-147922428D01*
X92205520Y-147922432D01*
X92205521Y-147922433D01*
X92422296Y-148070228D01*
X92658677Y-148184063D01*
X92909385Y-148261396D01*
X93168818Y-148300500D01*
X93431182Y-148300500D01*
X93690615Y-148261396D01*
X93941323Y-148184063D01*
X94177704Y-148070228D01*
X94394479Y-147922433D01*
X94394482Y-147922429D01*
X94394485Y-147922428D01*
X94479792Y-147843273D01*
X94586805Y-147743981D01*
X94750386Y-147538857D01*
X94881568Y-147311643D01*
X94977420Y-147067416D01*
X95029109Y-146840952D01*
X95063218Y-146779975D01*
X95124879Y-146747117D01*
X95194517Y-146752812D01*
X95250020Y-146795252D01*
X95270890Y-146840952D01*
X95274555Y-146857006D01*
X95322580Y-147067418D01*
X95418431Y-147311641D01*
X95418432Y-147311643D01*
X95549614Y-147538857D01*
X95713195Y-147743981D01*
X95713197Y-147743983D01*
X95713198Y-147743984D01*
X95905514Y-147922428D01*
X95905520Y-147922432D01*
X95905521Y-147922433D01*
X96122296Y-148070228D01*
X96358677Y-148184063D01*
X96609385Y-148261396D01*
X96868818Y-148300500D01*
X97131182Y-148300500D01*
X97390615Y-148261396D01*
X97641323Y-148184063D01*
X97877704Y-148070228D01*
X98094479Y-147922433D01*
X98094482Y-147922429D01*
X98094485Y-147922428D01*
X98179792Y-147843273D01*
X98286805Y-147743981D01*
X98450386Y-147538857D01*
X98581568Y-147311643D01*
X98677420Y-147067416D01*
X98735802Y-146811630D01*
X98750500Y-146615494D01*
X188549500Y-146615494D01*
X188549672Y-146617797D01*
X188549673Y-146617808D01*
X188564197Y-146811627D01*
X188622580Y-147067418D01*
X188718431Y-147311641D01*
X188718432Y-147311643D01*
X188849614Y-147538857D01*
X189013195Y-147743981D01*
X189013197Y-147743983D01*
X189013198Y-147743984D01*
X189205514Y-147922428D01*
X189205520Y-147922432D01*
X189205521Y-147922433D01*
X189422296Y-148070228D01*
X189658677Y-148184063D01*
X189909385Y-148261396D01*
X190168818Y-148300500D01*
X190431182Y-148300500D01*
X190690615Y-148261396D01*
X190941323Y-148184063D01*
X191177704Y-148070228D01*
X191394479Y-147922433D01*
X191394482Y-147922429D01*
X191394485Y-147922428D01*
X191479792Y-147843273D01*
X191586805Y-147743981D01*
X191750386Y-147538857D01*
X191881568Y-147311643D01*
X191977420Y-147067416D01*
X192029109Y-146840952D01*
X192063218Y-146779975D01*
X192124879Y-146747117D01*
X192194517Y-146752812D01*
X192250020Y-146795252D01*
X192270890Y-146840952D01*
X192274555Y-146857006D01*
X192322580Y-147067418D01*
X192418431Y-147311641D01*
X192418432Y-147311643D01*
X192549614Y-147538857D01*
X192713195Y-147743981D01*
X192713197Y-147743983D01*
X192713198Y-147743984D01*
X192905514Y-147922428D01*
X192905520Y-147922432D01*
X192905521Y-147922433D01*
X193122296Y-148070228D01*
X193358677Y-148184063D01*
X193609385Y-148261396D01*
X193868818Y-148300500D01*
X194131182Y-148300500D01*
X194390615Y-148261396D01*
X194641323Y-148184063D01*
X194877704Y-148070228D01*
X195094479Y-147922433D01*
X195094482Y-147922429D01*
X195094485Y-147922428D01*
X195179792Y-147843273D01*
X195286805Y-147743981D01*
X195450386Y-147538857D01*
X195581568Y-147311643D01*
X195677420Y-147067416D01*
X195735802Y-146811630D01*
X195750500Y-146615494D01*
X196549500Y-146615494D01*
X196549672Y-146617797D01*
X196549673Y-146617808D01*
X196564197Y-146811627D01*
X196622580Y-147067418D01*
X196718431Y-147311641D01*
X196718432Y-147311643D01*
X196849614Y-147538857D01*
X197013195Y-147743981D01*
X197013197Y-147743983D01*
X197013198Y-147743984D01*
X197205514Y-147922428D01*
X197205520Y-147922432D01*
X197205521Y-147922433D01*
X197422296Y-148070228D01*
X197658677Y-148184063D01*
X197909385Y-148261396D01*
X198168818Y-148300500D01*
X198431182Y-148300500D01*
X198690615Y-148261396D01*
X198941323Y-148184063D01*
X199177704Y-148070228D01*
X199394479Y-147922433D01*
X199394482Y-147922429D01*
X199394485Y-147922428D01*
X199479792Y-147843273D01*
X199586805Y-147743981D01*
X199750386Y-147538857D01*
X199881568Y-147311643D01*
X199977420Y-147067416D01*
X200029109Y-146840952D01*
X200063218Y-146779975D01*
X200124879Y-146747117D01*
X200194517Y-146752812D01*
X200250020Y-146795252D01*
X200270890Y-146840952D01*
X200274555Y-146857006D01*
X200322580Y-147067418D01*
X200418431Y-147311641D01*
X200418432Y-147311643D01*
X200549614Y-147538857D01*
X200713195Y-147743981D01*
X200713197Y-147743983D01*
X200713198Y-147743984D01*
X200905514Y-147922428D01*
X200905520Y-147922432D01*
X200905521Y-147922433D01*
X201122296Y-148070228D01*
X201358677Y-148184063D01*
X201609385Y-148261396D01*
X201868818Y-148300500D01*
X202131182Y-148300500D01*
X202390615Y-148261396D01*
X202641323Y-148184063D01*
X202877704Y-148070228D01*
X203094479Y-147922433D01*
X203094482Y-147922429D01*
X203094485Y-147922428D01*
X203179792Y-147843273D01*
X203286805Y-147743981D01*
X203450386Y-147538857D01*
X203581568Y-147311643D01*
X203677420Y-147067416D01*
X203735802Y-146811630D01*
X203750500Y-146615494D01*
X203750500Y-145384506D01*
X203735802Y-145188370D01*
X203677420Y-144932584D01*
X203674283Y-144924592D01*
X203581568Y-144688358D01*
X203581568Y-144688357D01*
X203450386Y-144461143D01*
X203335834Y-144317499D01*
X219154999Y-144317499D01*
X219155000Y-144317500D01*
X220009118Y-144317500D01*
X219970444Y-144410869D01*
X219949823Y-144567500D01*
X219970444Y-144724131D01*
X220009118Y-144817500D01*
X219155001Y-144817500D01*
X219155001Y-146164329D01*
X219155321Y-146170611D01*
X219165493Y-146270195D01*
X219220642Y-146436622D01*
X219312683Y-146585845D01*
X219436654Y-146709816D01*
X219585877Y-146801857D01*
X219752303Y-146857006D01*
X219851890Y-146867180D01*
X219858168Y-146867499D01*
X220304999Y-146867499D01*
X220305000Y-146867498D01*
X220305000Y-145113381D01*
X220398369Y-145152056D01*
X220515677Y-145167500D01*
X220594323Y-145167500D01*
X220711631Y-145152056D01*
X220805000Y-145113381D01*
X220805000Y-146867499D01*
X221251829Y-146867499D01*
X221258111Y-146867178D01*
X221357695Y-146857006D01*
X221524122Y-146801857D01*
X221673345Y-146709816D01*
X221797316Y-146585845D01*
X221889357Y-146436622D01*
X221944506Y-146270196D01*
X221954680Y-146170609D01*
X221955000Y-146164331D01*
X221955000Y-144817500D01*
X221100882Y-144817500D01*
X221139556Y-144724131D01*
X221160177Y-144567500D01*
X221139556Y-144410869D01*
X221100882Y-144317500D01*
X221954999Y-144317500D01*
X221954999Y-143548297D01*
X222654499Y-143548297D01*
X222654500Y-144544995D01*
X222654500Y-145526997D01*
X222654722Y-145529613D01*
X222654723Y-145529621D01*
X222669653Y-145705039D01*
X222729724Y-145935750D01*
X222827922Y-146152985D01*
X222950291Y-146334035D01*
X222961421Y-146350503D01*
X223126379Y-146522618D01*
X223318053Y-146664379D01*
X223530926Y-146771707D01*
X223758877Y-146841516D01*
X223995346Y-146871798D01*
X224233532Y-146861680D01*
X224466581Y-146811454D01*
X224687790Y-146722564D01*
X224890795Y-146597569D01*
X225069755Y-146440064D01*
X225219523Y-146254580D01*
X225335790Y-146046454D01*
X225415211Y-145821671D01*
X225418128Y-145804664D01*
X225455500Y-145586702D01*
X225455500Y-144317500D01*
X271405000Y-144317500D01*
X272259118Y-144317500D01*
X272220444Y-144410869D01*
X272199823Y-144567500D01*
X272220444Y-144724131D01*
X272259118Y-144817500D01*
X271405001Y-144817500D01*
X271405001Y-146164329D01*
X271405321Y-146170611D01*
X271415493Y-146270195D01*
X271470642Y-146436622D01*
X271562683Y-146585845D01*
X271686654Y-146709816D01*
X271835877Y-146801857D01*
X272002303Y-146857006D01*
X272101890Y-146867180D01*
X272108168Y-146867499D01*
X272554999Y-146867499D01*
X272555000Y-146867498D01*
X272555000Y-145113381D01*
X272648369Y-145152056D01*
X272765677Y-145167500D01*
X272844323Y-145167500D01*
X272961631Y-145152056D01*
X273055000Y-145113381D01*
X273055000Y-146867499D01*
X273501829Y-146867499D01*
X273508111Y-146867178D01*
X273607695Y-146857006D01*
X273774122Y-146801857D01*
X273923345Y-146709816D01*
X274047316Y-146585845D01*
X274139357Y-146436622D01*
X274194506Y-146270196D01*
X274204680Y-146170609D01*
X274205000Y-146164331D01*
X274205000Y-145526997D01*
X274904500Y-145526997D01*
X274904722Y-145529613D01*
X274904723Y-145529621D01*
X274919653Y-145705039D01*
X274979724Y-145935750D01*
X275077922Y-146152985D01*
X275200291Y-146334035D01*
X275211421Y-146350503D01*
X275376379Y-146522618D01*
X275568053Y-146664379D01*
X275780926Y-146771707D01*
X276008877Y-146841516D01*
X276245346Y-146871798D01*
X276483532Y-146861680D01*
X276716581Y-146811454D01*
X276937790Y-146722564D01*
X277111683Y-146615494D01*
X293049500Y-146615494D01*
X293049672Y-146617797D01*
X293049673Y-146617808D01*
X293064197Y-146811627D01*
X293122580Y-147067418D01*
X293218431Y-147311641D01*
X293218432Y-147311643D01*
X293349614Y-147538857D01*
X293513195Y-147743981D01*
X293513197Y-147743983D01*
X293513198Y-147743984D01*
X293705514Y-147922428D01*
X293705520Y-147922432D01*
X293705521Y-147922433D01*
X293922296Y-148070228D01*
X294158677Y-148184063D01*
X294409385Y-148261396D01*
X294668818Y-148300500D01*
X294931182Y-148300500D01*
X295190615Y-148261396D01*
X295441323Y-148184063D01*
X295677704Y-148070228D01*
X295894479Y-147922433D01*
X295894482Y-147922429D01*
X295894485Y-147922428D01*
X295979792Y-147843273D01*
X296086805Y-147743981D01*
X296250386Y-147538857D01*
X296381568Y-147311643D01*
X296477420Y-147067416D01*
X296529109Y-146840952D01*
X296563218Y-146779975D01*
X296624879Y-146747117D01*
X296694517Y-146752812D01*
X296750020Y-146795252D01*
X296770890Y-146840952D01*
X296774555Y-146857006D01*
X296822580Y-147067418D01*
X296918431Y-147311641D01*
X296918432Y-147311643D01*
X297049614Y-147538857D01*
X297213195Y-147743981D01*
X297213197Y-147743983D01*
X297213198Y-147743984D01*
X297405514Y-147922428D01*
X297405520Y-147922432D01*
X297405521Y-147922433D01*
X297622296Y-148070228D01*
X297858677Y-148184063D01*
X298109385Y-148261396D01*
X298368818Y-148300500D01*
X298631182Y-148300500D01*
X298890615Y-148261396D01*
X299141323Y-148184063D01*
X299377704Y-148070228D01*
X299594479Y-147922433D01*
X299594482Y-147922429D01*
X299594485Y-147922428D01*
X299679792Y-147843273D01*
X299786805Y-147743981D01*
X299950386Y-147538857D01*
X300081568Y-147311643D01*
X300177420Y-147067416D01*
X300235802Y-146811630D01*
X300250500Y-146615494D01*
X301049500Y-146615494D01*
X301049672Y-146617797D01*
X301049673Y-146617808D01*
X301064197Y-146811627D01*
X301122580Y-147067418D01*
X301218431Y-147311641D01*
X301218432Y-147311643D01*
X301349614Y-147538857D01*
X301513195Y-147743981D01*
X301513197Y-147743983D01*
X301513198Y-147743984D01*
X301705514Y-147922428D01*
X301705520Y-147922432D01*
X301705521Y-147922433D01*
X301922296Y-148070228D01*
X302158677Y-148184063D01*
X302409385Y-148261396D01*
X302668818Y-148300500D01*
X302931182Y-148300500D01*
X303190615Y-148261396D01*
X303441323Y-148184063D01*
X303677704Y-148070228D01*
X303894479Y-147922433D01*
X303894482Y-147922429D01*
X303894485Y-147922428D01*
X303979792Y-147843273D01*
X304086805Y-147743981D01*
X304250386Y-147538857D01*
X304381568Y-147311643D01*
X304477420Y-147067416D01*
X304529109Y-146840952D01*
X304563218Y-146779975D01*
X304624879Y-146747117D01*
X304694517Y-146752812D01*
X304750020Y-146795252D01*
X304770890Y-146840952D01*
X304774555Y-146857006D01*
X304822580Y-147067418D01*
X304918431Y-147311641D01*
X304918432Y-147311643D01*
X305049614Y-147538857D01*
X305213195Y-147743981D01*
X305213197Y-147743983D01*
X305213198Y-147743984D01*
X305405514Y-147922428D01*
X305405520Y-147922432D01*
X305405521Y-147922433D01*
X305622296Y-148070228D01*
X305858677Y-148184063D01*
X306109385Y-148261396D01*
X306368818Y-148300500D01*
X306631182Y-148300500D01*
X306890615Y-148261396D01*
X307141323Y-148184063D01*
X307377704Y-148070228D01*
X307594479Y-147922433D01*
X307594482Y-147922429D01*
X307594485Y-147922428D01*
X307679792Y-147843273D01*
X307786805Y-147743981D01*
X307950386Y-147538857D01*
X308081568Y-147311643D01*
X308177420Y-147067416D01*
X308235802Y-146811630D01*
X308250500Y-146615494D01*
X308250500Y-145384506D01*
X308235802Y-145188370D01*
X308177420Y-144932584D01*
X308174283Y-144924592D01*
X308081568Y-144688358D01*
X308081568Y-144688357D01*
X307950386Y-144461143D01*
X307889664Y-144385000D01*
X317005000Y-144385000D01*
X317859118Y-144385000D01*
X317820444Y-144478369D01*
X317799823Y-144635000D01*
X317820444Y-144791631D01*
X317859118Y-144885000D01*
X317005001Y-144885000D01*
X317005001Y-146231829D01*
X317005321Y-146238111D01*
X317015493Y-146337695D01*
X317070642Y-146504122D01*
X317162683Y-146653345D01*
X317286654Y-146777316D01*
X317435877Y-146869357D01*
X317602303Y-146924506D01*
X317701890Y-146934680D01*
X317708168Y-146934999D01*
X318154999Y-146934999D01*
X318155000Y-146934998D01*
X318155000Y-145180881D01*
X318248369Y-145219556D01*
X318365677Y-145235000D01*
X318444323Y-145235000D01*
X318561631Y-145219556D01*
X318655000Y-145180881D01*
X318655000Y-146934999D01*
X319101829Y-146934999D01*
X319108111Y-146934678D01*
X319207695Y-146924506D01*
X319374122Y-146869357D01*
X319523345Y-146777316D01*
X319647316Y-146653345D01*
X319739357Y-146504122D01*
X319794506Y-146337696D01*
X319804680Y-146238109D01*
X319805000Y-146231831D01*
X319805000Y-145594497D01*
X320504500Y-145594497D01*
X320504722Y-145597113D01*
X320504723Y-145597121D01*
X320519653Y-145772539D01*
X320579724Y-146003250D01*
X320677922Y-146220485D01*
X320811420Y-146418002D01*
X320861841Y-146470611D01*
X320976379Y-146590118D01*
X321168053Y-146731879D01*
X321380926Y-146839207D01*
X321608877Y-146909016D01*
X321845346Y-146939298D01*
X322083532Y-146929180D01*
X322316581Y-146878954D01*
X322537790Y-146790064D01*
X322740795Y-146665069D01*
X322919755Y-146507564D01*
X323069523Y-146322080D01*
X323185790Y-146113954D01*
X323265211Y-145889171D01*
X323265635Y-145886702D01*
X323305500Y-145654202D01*
X323305500Y-144385000D01*
X334005000Y-144385000D01*
X334859118Y-144385000D01*
X334820444Y-144478369D01*
X334799823Y-144635000D01*
X334820444Y-144791631D01*
X334859118Y-144885000D01*
X334005001Y-144885000D01*
X334005001Y-146231829D01*
X334005321Y-146238111D01*
X334015493Y-146337695D01*
X334070642Y-146504122D01*
X334162683Y-146653345D01*
X334286654Y-146777316D01*
X334435877Y-146869357D01*
X334602303Y-146924506D01*
X334701890Y-146934680D01*
X334708168Y-146934999D01*
X335154999Y-146934999D01*
X335155000Y-146934998D01*
X335155000Y-145180881D01*
X335248369Y-145219556D01*
X335365677Y-145235000D01*
X335444323Y-145235000D01*
X335561631Y-145219556D01*
X335655000Y-145180881D01*
X335655000Y-146934999D01*
X336101829Y-146934999D01*
X336108111Y-146934678D01*
X336207695Y-146924506D01*
X336374122Y-146869357D01*
X336523345Y-146777316D01*
X336647316Y-146653345D01*
X336739357Y-146504122D01*
X336794506Y-146337696D01*
X336804680Y-146238109D01*
X336805000Y-146231831D01*
X336805000Y-145594497D01*
X337504500Y-145594497D01*
X337504722Y-145597113D01*
X337504723Y-145597121D01*
X337519653Y-145772539D01*
X337579724Y-146003250D01*
X337677922Y-146220485D01*
X337811420Y-146418002D01*
X337861841Y-146470611D01*
X337976379Y-146590118D01*
X338168053Y-146731879D01*
X338380926Y-146839207D01*
X338608877Y-146909016D01*
X338845346Y-146939298D01*
X339083532Y-146929180D01*
X339316581Y-146878954D01*
X339537790Y-146790064D01*
X339740795Y-146665069D01*
X339919755Y-146507564D01*
X340069523Y-146322080D01*
X340185790Y-146113954D01*
X340265211Y-145889171D01*
X340265635Y-145886702D01*
X340305500Y-145654202D01*
X340305500Y-144617500D01*
X366005000Y-144617500D01*
X366859118Y-144617500D01*
X366820444Y-144710869D01*
X366799823Y-144867500D01*
X366820444Y-145024131D01*
X366859118Y-145117500D01*
X366005001Y-145117500D01*
X366005001Y-146464329D01*
X366005321Y-146470611D01*
X366015493Y-146570195D01*
X366070642Y-146736622D01*
X366162683Y-146885845D01*
X366286654Y-147009816D01*
X366435877Y-147101857D01*
X366602303Y-147157006D01*
X366701890Y-147167180D01*
X366708168Y-147167499D01*
X367154999Y-147167499D01*
X367155000Y-147167498D01*
X367155000Y-145413381D01*
X367248369Y-145452056D01*
X367365677Y-145467500D01*
X367444323Y-145467500D01*
X367561631Y-145452056D01*
X367655000Y-145413381D01*
X367655000Y-147167499D01*
X368101829Y-147167499D01*
X368108111Y-147167178D01*
X368207695Y-147157006D01*
X368374122Y-147101857D01*
X368523345Y-147009816D01*
X368647316Y-146885845D01*
X368739357Y-146736622D01*
X368794506Y-146570196D01*
X368804680Y-146470609D01*
X368805000Y-146464331D01*
X368805000Y-145826997D01*
X369504500Y-145826997D01*
X369504722Y-145829613D01*
X369504723Y-145829621D01*
X369519653Y-146005039D01*
X369579724Y-146235750D01*
X369677922Y-146452985D01*
X369811420Y-146650502D01*
X369889412Y-146731878D01*
X369976379Y-146822618D01*
X370168053Y-146964379D01*
X370380926Y-147071707D01*
X370608877Y-147141516D01*
X370845346Y-147171798D01*
X371083532Y-147161680D01*
X371316581Y-147111454D01*
X371537790Y-147022564D01*
X371740795Y-146897569D01*
X371919755Y-146740064D01*
X372069523Y-146554580D01*
X372185790Y-146346454D01*
X372265211Y-146121671D01*
X372265341Y-146120917D01*
X372305500Y-145886702D01*
X372305500Y-144617500D01*
X383005000Y-144617500D01*
X383859118Y-144617500D01*
X383820444Y-144710869D01*
X383799823Y-144867500D01*
X383820444Y-145024131D01*
X383859118Y-145117500D01*
X383005001Y-145117500D01*
X383005001Y-146464329D01*
X383005321Y-146470611D01*
X383015493Y-146570195D01*
X383070642Y-146736622D01*
X383162683Y-146885845D01*
X383286654Y-147009816D01*
X383435877Y-147101857D01*
X383602303Y-147157006D01*
X383701890Y-147167180D01*
X383708168Y-147167499D01*
X384154999Y-147167499D01*
X384155000Y-147167498D01*
X384155000Y-145413381D01*
X384248369Y-145452056D01*
X384365677Y-145467500D01*
X384444323Y-145467500D01*
X384561631Y-145452056D01*
X384655000Y-145413381D01*
X384655000Y-147167499D01*
X385101829Y-147167499D01*
X385108111Y-147167178D01*
X385207695Y-147157006D01*
X385374122Y-147101857D01*
X385523345Y-147009816D01*
X385647316Y-146885845D01*
X385739357Y-146736622D01*
X385794506Y-146570196D01*
X385804680Y-146470609D01*
X385805000Y-146464331D01*
X385805000Y-145826997D01*
X386504500Y-145826997D01*
X386504722Y-145829613D01*
X386504723Y-145829621D01*
X386519653Y-146005039D01*
X386579724Y-146235750D01*
X386677922Y-146452985D01*
X386811420Y-146650502D01*
X386889412Y-146731878D01*
X386976379Y-146822618D01*
X387168053Y-146964379D01*
X387380926Y-147071707D01*
X387608877Y-147141516D01*
X387845346Y-147171798D01*
X388083532Y-147161680D01*
X388316581Y-147111454D01*
X388537790Y-147022564D01*
X388740795Y-146897569D01*
X388919755Y-146740064D01*
X389020338Y-146615494D01*
X398549500Y-146615494D01*
X398549672Y-146617797D01*
X398549673Y-146617808D01*
X398564197Y-146811627D01*
X398622580Y-147067418D01*
X398718431Y-147311641D01*
X398718432Y-147311643D01*
X398849614Y-147538857D01*
X399013195Y-147743981D01*
X399013197Y-147743983D01*
X399013198Y-147743984D01*
X399205514Y-147922428D01*
X399205520Y-147922432D01*
X399205521Y-147922433D01*
X399422296Y-148070228D01*
X399658677Y-148184063D01*
X399909385Y-148261396D01*
X400168818Y-148300500D01*
X400431182Y-148300500D01*
X400690615Y-148261396D01*
X400941323Y-148184063D01*
X401177704Y-148070228D01*
X401394479Y-147922433D01*
X401394482Y-147922429D01*
X401394485Y-147922428D01*
X401479792Y-147843273D01*
X401586805Y-147743981D01*
X401750386Y-147538857D01*
X401881568Y-147311643D01*
X401977420Y-147067416D01*
X402029109Y-146840952D01*
X402063218Y-146779975D01*
X402124879Y-146747117D01*
X402194517Y-146752812D01*
X402250020Y-146795252D01*
X402270890Y-146840952D01*
X402274555Y-146857006D01*
X402322580Y-147067418D01*
X402418431Y-147311641D01*
X402418432Y-147311643D01*
X402549614Y-147538857D01*
X402713195Y-147743981D01*
X402713197Y-147743983D01*
X402713198Y-147743984D01*
X402905514Y-147922428D01*
X402905520Y-147922432D01*
X402905521Y-147922433D01*
X403122296Y-148070228D01*
X403358677Y-148184063D01*
X403609385Y-148261396D01*
X403868818Y-148300500D01*
X404131182Y-148300500D01*
X404390615Y-148261396D01*
X404641323Y-148184063D01*
X404877704Y-148070228D01*
X405094479Y-147922433D01*
X405094482Y-147922429D01*
X405094485Y-147922428D01*
X405179792Y-147843273D01*
X405286805Y-147743981D01*
X405450386Y-147538857D01*
X405581568Y-147311643D01*
X405677420Y-147067416D01*
X405735802Y-146811630D01*
X405750500Y-146615494D01*
X406549500Y-146615494D01*
X406549672Y-146617797D01*
X406549673Y-146617808D01*
X406564197Y-146811627D01*
X406622580Y-147067418D01*
X406718431Y-147311641D01*
X406718432Y-147311643D01*
X406849614Y-147538857D01*
X407013195Y-147743981D01*
X407013197Y-147743983D01*
X407013198Y-147743984D01*
X407205514Y-147922428D01*
X407205520Y-147922432D01*
X407205521Y-147922433D01*
X407422296Y-148070228D01*
X407658677Y-148184063D01*
X407909385Y-148261396D01*
X408168818Y-148300500D01*
X408431182Y-148300500D01*
X408690615Y-148261396D01*
X408941323Y-148184063D01*
X409177704Y-148070228D01*
X409394479Y-147922433D01*
X409394482Y-147922429D01*
X409394485Y-147922428D01*
X409479792Y-147843273D01*
X409586805Y-147743981D01*
X409750386Y-147538857D01*
X409881568Y-147311643D01*
X409977420Y-147067416D01*
X410029109Y-146840952D01*
X410063218Y-146779975D01*
X410124879Y-146747117D01*
X410194517Y-146752812D01*
X410250020Y-146795252D01*
X410270890Y-146840952D01*
X410274555Y-146857006D01*
X410322580Y-147067418D01*
X410418431Y-147311641D01*
X410418432Y-147311643D01*
X410549614Y-147538857D01*
X410713195Y-147743981D01*
X410713197Y-147743983D01*
X410713198Y-147743984D01*
X410905514Y-147922428D01*
X410905520Y-147922432D01*
X410905521Y-147922433D01*
X411122296Y-148070228D01*
X411358677Y-148184063D01*
X411609385Y-148261396D01*
X411868818Y-148300500D01*
X412131182Y-148300500D01*
X412390615Y-148261396D01*
X412641323Y-148184063D01*
X412877704Y-148070228D01*
X413094479Y-147922433D01*
X413094482Y-147922429D01*
X413094485Y-147922428D01*
X413179792Y-147843273D01*
X413286805Y-147743981D01*
X413450386Y-147538857D01*
X413581568Y-147311643D01*
X413677420Y-147067416D01*
X413735802Y-146811630D01*
X413750500Y-146615494D01*
X413750500Y-145384506D01*
X413735802Y-145188370D01*
X413677420Y-144932584D01*
X413674283Y-144924592D01*
X413581568Y-144688358D01*
X413581568Y-144688357D01*
X413450386Y-144461143D01*
X413286805Y-144256019D01*
X413286801Y-144256015D01*
X413094485Y-144077571D01*
X413044367Y-144043401D01*
X412877704Y-143929772D01*
X412641323Y-143815937D01*
X412390615Y-143738604D01*
X412131182Y-143699500D01*
X411868818Y-143699500D01*
X411609385Y-143738604D01*
X411358677Y-143815937D01*
X411122296Y-143929772D01*
X411056620Y-143974549D01*
X410905514Y-144077571D01*
X410713198Y-144256015D01*
X410549613Y-144461143D01*
X410418431Y-144688358D01*
X410322580Y-144932581D01*
X410270891Y-145159046D01*
X410236782Y-145220024D01*
X410175120Y-145252882D01*
X410105483Y-145247187D01*
X410049980Y-145204747D01*
X410029109Y-145159046D01*
X409977419Y-144932581D01*
X409881568Y-144688358D01*
X409881568Y-144688357D01*
X409750386Y-144461143D01*
X409586805Y-144256019D01*
X409586801Y-144256015D01*
X409394485Y-144077571D01*
X409344367Y-144043401D01*
X409177704Y-143929772D01*
X408941323Y-143815937D01*
X408690615Y-143738604D01*
X408431182Y-143699500D01*
X408168818Y-143699500D01*
X407909385Y-143738604D01*
X407658677Y-143815937D01*
X407422296Y-143929772D01*
X407356620Y-143974549D01*
X407205514Y-144077571D01*
X407013198Y-144256015D01*
X406849613Y-144461143D01*
X406718431Y-144688358D01*
X406622580Y-144932581D01*
X406564197Y-145188372D01*
X406549673Y-145382191D01*
X406549500Y-145384506D01*
X406549500Y-146615494D01*
X405750500Y-146615494D01*
X405750500Y-145384506D01*
X405735802Y-145188370D01*
X405677420Y-144932584D01*
X405674283Y-144924592D01*
X405581568Y-144688358D01*
X405581568Y-144688357D01*
X405450386Y-144461143D01*
X405286805Y-144256019D01*
X405286801Y-144256015D01*
X405094485Y-144077571D01*
X405044367Y-144043401D01*
X404877704Y-143929772D01*
X404641323Y-143815937D01*
X404390615Y-143738604D01*
X404131182Y-143699500D01*
X403868818Y-143699500D01*
X403609385Y-143738604D01*
X403358677Y-143815937D01*
X403122296Y-143929772D01*
X403056620Y-143974549D01*
X402905514Y-144077571D01*
X402713198Y-144256015D01*
X402549613Y-144461143D01*
X402418431Y-144688358D01*
X402322580Y-144932581D01*
X402270891Y-145159046D01*
X402236782Y-145220024D01*
X402175120Y-145252882D01*
X402105483Y-145247187D01*
X402049980Y-145204747D01*
X402029109Y-145159046D01*
X401977419Y-144932581D01*
X401881568Y-144688358D01*
X401881568Y-144688357D01*
X401750386Y-144461143D01*
X401586805Y-144256019D01*
X401586801Y-144256015D01*
X401394485Y-144077571D01*
X401344367Y-144043401D01*
X401177704Y-143929772D01*
X400941323Y-143815937D01*
X400690615Y-143738604D01*
X400431182Y-143699500D01*
X400168818Y-143699500D01*
X399909385Y-143738604D01*
X399658677Y-143815937D01*
X399422296Y-143929772D01*
X399356620Y-143974549D01*
X399205514Y-144077571D01*
X399013198Y-144256015D01*
X398849613Y-144461143D01*
X398718431Y-144688358D01*
X398622580Y-144932581D01*
X398564197Y-145188372D01*
X398549673Y-145382191D01*
X398549500Y-145384506D01*
X398549500Y-146615494D01*
X389020338Y-146615494D01*
X389069523Y-146554580D01*
X389185790Y-146346454D01*
X389265211Y-146121671D01*
X389265341Y-146120917D01*
X389305500Y-145886702D01*
X389305500Y-143910634D01*
X389305500Y-143910633D01*
X389305500Y-143908003D01*
X389290346Y-143729959D01*
X389262540Y-143623168D01*
X389230275Y-143499249D01*
X389132077Y-143282014D01*
X388998579Y-143084497D01*
X388901774Y-142983492D01*
X388833621Y-142912382D01*
X388790405Y-142880420D01*
X388641947Y-142770621D01*
X388429074Y-142663293D01*
X388201123Y-142593484D01*
X388188668Y-142591889D01*
X387964654Y-142563202D01*
X387964650Y-142563202D01*
X387964649Y-142563202D01*
X387726470Y-142573319D01*
X387493418Y-142623546D01*
X387272211Y-142712435D01*
X387069203Y-142837432D01*
X386890243Y-142994937D01*
X386740480Y-143180414D01*
X386624208Y-143388548D01*
X386544787Y-143613331D01*
X386504500Y-143848297D01*
X386504500Y-143848299D01*
X386504500Y-143848300D01*
X386504500Y-145826997D01*
X385805000Y-145826997D01*
X385805000Y-145117500D01*
X384950882Y-145117500D01*
X384989556Y-145024131D01*
X385010177Y-144867500D01*
X384989556Y-144710869D01*
X384950882Y-144617500D01*
X385804999Y-144617500D01*
X385804999Y-143270670D01*
X385804678Y-143264388D01*
X385794506Y-143164804D01*
X385739357Y-142998377D01*
X385647316Y-142849154D01*
X385523345Y-142725183D01*
X385374122Y-142633142D01*
X385207696Y-142577993D01*
X385108109Y-142567819D01*
X385101832Y-142567500D01*
X384655000Y-142567500D01*
X384655000Y-144321618D01*
X384561631Y-144282944D01*
X384444323Y-144267500D01*
X384365677Y-144267500D01*
X384248369Y-144282944D01*
X384155000Y-144321618D01*
X384155000Y-142567500D01*
X383708171Y-142567500D01*
X383701888Y-142567821D01*
X383602304Y-142577993D01*
X383435877Y-142633142D01*
X383286654Y-142725183D01*
X383162683Y-142849154D01*
X383070642Y-142998377D01*
X383015493Y-143164803D01*
X383005319Y-143264390D01*
X383005000Y-143270668D01*
X383005000Y-144617500D01*
X372305500Y-144617500D01*
X372305500Y-143910634D01*
X372305500Y-143910633D01*
X372305500Y-143908003D01*
X372290346Y-143729959D01*
X372262540Y-143623168D01*
X372230275Y-143499249D01*
X372132077Y-143282014D01*
X371998579Y-143084497D01*
X371901774Y-142983492D01*
X371833621Y-142912382D01*
X371790405Y-142880420D01*
X371641947Y-142770621D01*
X371429074Y-142663293D01*
X371201123Y-142593484D01*
X371188668Y-142591889D01*
X370964654Y-142563202D01*
X370964650Y-142563202D01*
X370964649Y-142563202D01*
X370726470Y-142573319D01*
X370493418Y-142623546D01*
X370272211Y-142712435D01*
X370069203Y-142837432D01*
X369890243Y-142994937D01*
X369740480Y-143180414D01*
X369624208Y-143388548D01*
X369544787Y-143613331D01*
X369504500Y-143848297D01*
X369504500Y-143848300D01*
X369504500Y-145826997D01*
X368805000Y-145826997D01*
X368805000Y-145117500D01*
X367950882Y-145117500D01*
X367989556Y-145024131D01*
X368010177Y-144867500D01*
X367989556Y-144710869D01*
X367950882Y-144617500D01*
X368804999Y-144617500D01*
X368804999Y-143270670D01*
X368804678Y-143264388D01*
X368794506Y-143164804D01*
X368739357Y-142998377D01*
X368647316Y-142849154D01*
X368523345Y-142725183D01*
X368374122Y-142633142D01*
X368207696Y-142577993D01*
X368108109Y-142567819D01*
X368101832Y-142567500D01*
X367655000Y-142567500D01*
X367655000Y-144321618D01*
X367561631Y-144282944D01*
X367444323Y-144267500D01*
X367365677Y-144267500D01*
X367248369Y-144282944D01*
X367155000Y-144321618D01*
X367155000Y-142567500D01*
X366708171Y-142567500D01*
X366701888Y-142567821D01*
X366602304Y-142577993D01*
X366435877Y-142633142D01*
X366286654Y-142725183D01*
X366162683Y-142849154D01*
X366070642Y-142998377D01*
X366015493Y-143164803D01*
X366005319Y-143264390D01*
X366005000Y-143270668D01*
X366005000Y-144617500D01*
X340305500Y-144617500D01*
X340305500Y-143678134D01*
X340305500Y-143675503D01*
X340290346Y-143497459D01*
X340252180Y-143350879D01*
X340230275Y-143266749D01*
X340132077Y-143049514D01*
X339998579Y-142851997D01*
X339833620Y-142679881D01*
X339641947Y-142538121D01*
X339429074Y-142430793D01*
X339201123Y-142360984D01*
X339201122Y-142360983D01*
X338964654Y-142330702D01*
X338964650Y-142330702D01*
X338964649Y-142330702D01*
X338726470Y-142340819D01*
X338493418Y-142391046D01*
X338272211Y-142479935D01*
X338069203Y-142604932D01*
X337890243Y-142762437D01*
X337740480Y-142947914D01*
X337624208Y-143156048D01*
X337544787Y-143380831D01*
X337504500Y-143615797D01*
X337504500Y-143615799D01*
X337504500Y-143615800D01*
X337504500Y-145594497D01*
X336805000Y-145594497D01*
X336805000Y-144885000D01*
X335950882Y-144885000D01*
X335989556Y-144791631D01*
X336010177Y-144635000D01*
X335989556Y-144478369D01*
X335950882Y-144385000D01*
X336804999Y-144385000D01*
X336804999Y-143038170D01*
X336804678Y-143031888D01*
X336794506Y-142932304D01*
X336739357Y-142765877D01*
X336647316Y-142616654D01*
X336523345Y-142492683D01*
X336374122Y-142400642D01*
X336207696Y-142345493D01*
X336108109Y-142335319D01*
X336101832Y-142335000D01*
X335655000Y-142335000D01*
X335655000Y-144089118D01*
X335561631Y-144050444D01*
X335444323Y-144035000D01*
X335365677Y-144035000D01*
X335248369Y-144050444D01*
X335155000Y-144089118D01*
X335155000Y-142335000D01*
X334708171Y-142335000D01*
X334701888Y-142335321D01*
X334602304Y-142345493D01*
X334435877Y-142400642D01*
X334286654Y-142492683D01*
X334162683Y-142616654D01*
X334070642Y-142765877D01*
X334015493Y-142932303D01*
X334005319Y-143031890D01*
X334005000Y-143038168D01*
X334005000Y-144385000D01*
X323305500Y-144385000D01*
X323305500Y-143678134D01*
X323305500Y-143675503D01*
X323290346Y-143497459D01*
X323252180Y-143350879D01*
X323230275Y-143266749D01*
X323132077Y-143049514D01*
X322998579Y-142851997D01*
X322833620Y-142679881D01*
X322641947Y-142538121D01*
X322429074Y-142430793D01*
X322201123Y-142360984D01*
X322201122Y-142360983D01*
X321964654Y-142330702D01*
X321964650Y-142330702D01*
X321964649Y-142330702D01*
X321726470Y-142340819D01*
X321493418Y-142391046D01*
X321272211Y-142479935D01*
X321069203Y-142604932D01*
X320890243Y-142762437D01*
X320740480Y-142947914D01*
X320624208Y-143156048D01*
X320544787Y-143380831D01*
X320504500Y-143615797D01*
X320504500Y-143615800D01*
X320504500Y-145594497D01*
X319805000Y-145594497D01*
X319805000Y-144885000D01*
X318950882Y-144885000D01*
X318989556Y-144791631D01*
X319010177Y-144635000D01*
X318989556Y-144478369D01*
X318950882Y-144385000D01*
X319804999Y-144385000D01*
X319804999Y-143038170D01*
X319804678Y-143031888D01*
X319794506Y-142932304D01*
X319739357Y-142765877D01*
X319647316Y-142616654D01*
X319523345Y-142492683D01*
X319374122Y-142400642D01*
X319207696Y-142345493D01*
X319108109Y-142335319D01*
X319101832Y-142335000D01*
X318655000Y-142335000D01*
X318655000Y-144089118D01*
X318561631Y-144050444D01*
X318444323Y-144035000D01*
X318365677Y-144035000D01*
X318248369Y-144050444D01*
X318155000Y-144089118D01*
X318155000Y-142335000D01*
X317708171Y-142335000D01*
X317701888Y-142335321D01*
X317602304Y-142345493D01*
X317435877Y-142400642D01*
X317286654Y-142492683D01*
X317162683Y-142616654D01*
X317070642Y-142765877D01*
X317015493Y-142932303D01*
X317005319Y-143031890D01*
X317005000Y-143038168D01*
X317005000Y-144385000D01*
X307889664Y-144385000D01*
X307786805Y-144256019D01*
X307786801Y-144256015D01*
X307594485Y-144077571D01*
X307544367Y-144043401D01*
X307377704Y-143929772D01*
X307141323Y-143815937D01*
X306890615Y-143738604D01*
X306631182Y-143699500D01*
X306368818Y-143699500D01*
X306109385Y-143738604D01*
X305858677Y-143815937D01*
X305622296Y-143929772D01*
X305556620Y-143974549D01*
X305405514Y-144077571D01*
X305213198Y-144256015D01*
X305049613Y-144461143D01*
X304918431Y-144688358D01*
X304822580Y-144932581D01*
X304770891Y-145159046D01*
X304736782Y-145220024D01*
X304675120Y-145252882D01*
X304605483Y-145247187D01*
X304549980Y-145204747D01*
X304529109Y-145159046D01*
X304477419Y-144932581D01*
X304381568Y-144688358D01*
X304381568Y-144688357D01*
X304250386Y-144461143D01*
X304086805Y-144256019D01*
X304086801Y-144256015D01*
X303894485Y-144077571D01*
X303844367Y-144043401D01*
X303677704Y-143929772D01*
X303441323Y-143815937D01*
X303190615Y-143738604D01*
X302931182Y-143699500D01*
X302668818Y-143699500D01*
X302409385Y-143738604D01*
X302158677Y-143815937D01*
X301922296Y-143929772D01*
X301856620Y-143974549D01*
X301705514Y-144077571D01*
X301513198Y-144256015D01*
X301349613Y-144461143D01*
X301218431Y-144688358D01*
X301122580Y-144932581D01*
X301064197Y-145188372D01*
X301049673Y-145382191D01*
X301049500Y-145384506D01*
X301049500Y-146615494D01*
X300250500Y-146615494D01*
X300250500Y-145384506D01*
X300235802Y-145188370D01*
X300177420Y-144932584D01*
X300174283Y-144924592D01*
X300081568Y-144688358D01*
X300081568Y-144688357D01*
X299950386Y-144461143D01*
X299786805Y-144256019D01*
X299786801Y-144256015D01*
X299594485Y-144077571D01*
X299544367Y-144043401D01*
X299377704Y-143929772D01*
X299141323Y-143815937D01*
X298890615Y-143738604D01*
X298631182Y-143699500D01*
X298368818Y-143699500D01*
X298109385Y-143738604D01*
X297858677Y-143815937D01*
X297622296Y-143929772D01*
X297556620Y-143974549D01*
X297405514Y-144077571D01*
X297213198Y-144256015D01*
X297049613Y-144461143D01*
X296918431Y-144688358D01*
X296822580Y-144932581D01*
X296770891Y-145159046D01*
X296736782Y-145220024D01*
X296675120Y-145252882D01*
X296605483Y-145247187D01*
X296549980Y-145204747D01*
X296529109Y-145159046D01*
X296477419Y-144932581D01*
X296381568Y-144688358D01*
X296381568Y-144688357D01*
X296250386Y-144461143D01*
X296086805Y-144256019D01*
X296086801Y-144256015D01*
X295894485Y-144077571D01*
X295844367Y-144043401D01*
X295677704Y-143929772D01*
X295441323Y-143815937D01*
X295190615Y-143738604D01*
X294931182Y-143699500D01*
X294668818Y-143699500D01*
X294409385Y-143738604D01*
X294158677Y-143815937D01*
X293922296Y-143929772D01*
X293856620Y-143974549D01*
X293705514Y-144077571D01*
X293513198Y-144256015D01*
X293349613Y-144461143D01*
X293218431Y-144688358D01*
X293122580Y-144932581D01*
X293064197Y-145188372D01*
X293049673Y-145382191D01*
X293049500Y-145384506D01*
X293049500Y-146615494D01*
X277111683Y-146615494D01*
X277140795Y-146597569D01*
X277319755Y-146440064D01*
X277469523Y-146254580D01*
X277585790Y-146046454D01*
X277665211Y-145821671D01*
X277668128Y-145804664D01*
X277705500Y-145586702D01*
X277705500Y-143610634D01*
X277705500Y-143610633D01*
X277705500Y-143608003D01*
X277690346Y-143429959D01*
X277655877Y-143297576D01*
X277630275Y-143199249D01*
X277532077Y-142982014D01*
X277398579Y-142784497D01*
X277233620Y-142612381D01*
X277041947Y-142470621D01*
X276829074Y-142363293D01*
X276601123Y-142293484D01*
X276567685Y-142289202D01*
X276364654Y-142263202D01*
X276364650Y-142263202D01*
X276364649Y-142263202D01*
X276126470Y-142273319D01*
X275893418Y-142323546D01*
X275672211Y-142412435D01*
X275469203Y-142537432D01*
X275290243Y-142694937D01*
X275140480Y-142880414D01*
X275024208Y-143088548D01*
X274944787Y-143313331D01*
X274904500Y-143548297D01*
X274904500Y-143548299D01*
X274904500Y-143548300D01*
X274904500Y-145526997D01*
X274205000Y-145526997D01*
X274205000Y-144817500D01*
X273350882Y-144817500D01*
X273389556Y-144724131D01*
X273410177Y-144567500D01*
X273389556Y-144410869D01*
X273350882Y-144317500D01*
X274204999Y-144317500D01*
X274204999Y-142970670D01*
X274204678Y-142964388D01*
X274194506Y-142864804D01*
X274139357Y-142698377D01*
X274047316Y-142549154D01*
X273923345Y-142425183D01*
X273774122Y-142333142D01*
X273607696Y-142277993D01*
X273508109Y-142267819D01*
X273501832Y-142267500D01*
X273055000Y-142267500D01*
X273055000Y-144021618D01*
X272961631Y-143982944D01*
X272844323Y-143967500D01*
X272765677Y-143967500D01*
X272648369Y-143982944D01*
X272555000Y-144021618D01*
X272555000Y-142267500D01*
X272108171Y-142267500D01*
X272101888Y-142267821D01*
X272002304Y-142277993D01*
X271835877Y-142333142D01*
X271686654Y-142425183D01*
X271562683Y-142549154D01*
X271470642Y-142698377D01*
X271415493Y-142864803D01*
X271405319Y-142964390D01*
X271405000Y-142970668D01*
X271405000Y-144317500D01*
X225455500Y-144317500D01*
X225455500Y-143610634D01*
X225455500Y-143608003D01*
X225440346Y-143429959D01*
X225405877Y-143297576D01*
X225380275Y-143199249D01*
X225282077Y-142982014D01*
X225148579Y-142784497D01*
X224983620Y-142612381D01*
X224791947Y-142470621D01*
X224579074Y-142363293D01*
X224351123Y-142293484D01*
X224317685Y-142289202D01*
X224114654Y-142263202D01*
X224114650Y-142263202D01*
X224114649Y-142263202D01*
X223876470Y-142273319D01*
X223643418Y-142323546D01*
X223422211Y-142412435D01*
X223219203Y-142537432D01*
X223040243Y-142694937D01*
X222890480Y-142880414D01*
X222774208Y-143088548D01*
X222694787Y-143313331D01*
X222654499Y-143548297D01*
X221954999Y-143548297D01*
X221954999Y-142970670D01*
X221954678Y-142964388D01*
X221944506Y-142864804D01*
X221889357Y-142698377D01*
X221797316Y-142549154D01*
X221673345Y-142425183D01*
X221524122Y-142333142D01*
X221357696Y-142277993D01*
X221258109Y-142267819D01*
X221251832Y-142267500D01*
X220805000Y-142267500D01*
X220805000Y-144021618D01*
X220711631Y-143982944D01*
X220594323Y-143967500D01*
X220515677Y-143967500D01*
X220398369Y-143982944D01*
X220305000Y-144021618D01*
X220305000Y-142267500D01*
X219858171Y-142267500D01*
X219851888Y-142267821D01*
X219752304Y-142277993D01*
X219585877Y-142333142D01*
X219436654Y-142425183D01*
X219312683Y-142549154D01*
X219220642Y-142698377D01*
X219165493Y-142864803D01*
X219155319Y-142964390D01*
X219155000Y-142970668D01*
X219154999Y-144317499D01*
X203335834Y-144317499D01*
X203286805Y-144256019D01*
X203286801Y-144256015D01*
X203094485Y-144077571D01*
X203044367Y-144043401D01*
X202877704Y-143929772D01*
X202641323Y-143815937D01*
X202390615Y-143738604D01*
X202131182Y-143699500D01*
X201868818Y-143699500D01*
X201609385Y-143738604D01*
X201358677Y-143815937D01*
X201122296Y-143929772D01*
X201056620Y-143974549D01*
X200905514Y-144077571D01*
X200713198Y-144256015D01*
X200549613Y-144461143D01*
X200418431Y-144688358D01*
X200322580Y-144932581D01*
X200270891Y-145159046D01*
X200236782Y-145220024D01*
X200175120Y-145252882D01*
X200105483Y-145247187D01*
X200049980Y-145204747D01*
X200029109Y-145159046D01*
X199977419Y-144932581D01*
X199881568Y-144688358D01*
X199881568Y-144688357D01*
X199750386Y-144461143D01*
X199586805Y-144256019D01*
X199586801Y-144256015D01*
X199394485Y-144077571D01*
X199344367Y-144043401D01*
X199177704Y-143929772D01*
X198941323Y-143815937D01*
X198690615Y-143738604D01*
X198431182Y-143699500D01*
X198168818Y-143699500D01*
X197909385Y-143738604D01*
X197658677Y-143815937D01*
X197422296Y-143929772D01*
X197356620Y-143974549D01*
X197205514Y-144077571D01*
X197013198Y-144256015D01*
X196849613Y-144461143D01*
X196718431Y-144688358D01*
X196622580Y-144932581D01*
X196564197Y-145188372D01*
X196549673Y-145382191D01*
X196549500Y-145384506D01*
X196549500Y-146615494D01*
X195750500Y-146615494D01*
X195750500Y-145384506D01*
X195735802Y-145188370D01*
X195677420Y-144932584D01*
X195674283Y-144924592D01*
X195581568Y-144688358D01*
X195581568Y-144688357D01*
X195450386Y-144461143D01*
X195286805Y-144256019D01*
X195286801Y-144256015D01*
X195094485Y-144077571D01*
X195044367Y-144043401D01*
X194877704Y-143929772D01*
X194641323Y-143815937D01*
X194390615Y-143738604D01*
X194131182Y-143699500D01*
X193868818Y-143699500D01*
X193609385Y-143738604D01*
X193358677Y-143815937D01*
X193122296Y-143929772D01*
X193056620Y-143974549D01*
X192905514Y-144077571D01*
X192713198Y-144256015D01*
X192549613Y-144461143D01*
X192418431Y-144688358D01*
X192322580Y-144932581D01*
X192270891Y-145159046D01*
X192236782Y-145220024D01*
X192175120Y-145252882D01*
X192105483Y-145247187D01*
X192049980Y-145204747D01*
X192029109Y-145159046D01*
X191977419Y-144932581D01*
X191881568Y-144688358D01*
X191881568Y-144688357D01*
X191750386Y-144461143D01*
X191586805Y-144256019D01*
X191586801Y-144256015D01*
X191394485Y-144077571D01*
X191344367Y-144043401D01*
X191177704Y-143929772D01*
X190941323Y-143815937D01*
X190690615Y-143738604D01*
X190431182Y-143699500D01*
X190168818Y-143699500D01*
X189909385Y-143738604D01*
X189658677Y-143815937D01*
X189422296Y-143929772D01*
X189356620Y-143974549D01*
X189205514Y-144077571D01*
X189013198Y-144256015D01*
X188849613Y-144461143D01*
X188718431Y-144688358D01*
X188622580Y-144932581D01*
X188564197Y-145188372D01*
X188549673Y-145382191D01*
X188549500Y-145384506D01*
X188549500Y-146615494D01*
X98750500Y-146615494D01*
X98750500Y-145384506D01*
X98735802Y-145188370D01*
X98677420Y-144932584D01*
X98674283Y-144924592D01*
X98581568Y-144688358D01*
X98581568Y-144688357D01*
X98450386Y-144461143D01*
X98286805Y-144256019D01*
X98286801Y-144256015D01*
X98094485Y-144077571D01*
X98044367Y-144043401D01*
X97877704Y-143929772D01*
X97641323Y-143815937D01*
X97390615Y-143738604D01*
X97131182Y-143699500D01*
X96868818Y-143699500D01*
X96609385Y-143738604D01*
X96358677Y-143815937D01*
X96122296Y-143929772D01*
X96056620Y-143974549D01*
X95905514Y-144077571D01*
X95713198Y-144256015D01*
X95549613Y-144461143D01*
X95418431Y-144688358D01*
X95322580Y-144932581D01*
X95270891Y-145159046D01*
X95236782Y-145220024D01*
X95175120Y-145252882D01*
X95105483Y-145247187D01*
X95049980Y-145204747D01*
X95029109Y-145159046D01*
X94977419Y-144932581D01*
X94881568Y-144688358D01*
X94881568Y-144688357D01*
X94750386Y-144461143D01*
X94586805Y-144256019D01*
X94586801Y-144256015D01*
X94394485Y-144077571D01*
X94344367Y-144043401D01*
X94177704Y-143929772D01*
X93941323Y-143815937D01*
X93690615Y-143738604D01*
X93431182Y-143699500D01*
X93168818Y-143699500D01*
X92909385Y-143738604D01*
X92658677Y-143815937D01*
X92422296Y-143929772D01*
X92356620Y-143974549D01*
X92205514Y-144077571D01*
X92013198Y-144256015D01*
X91849613Y-144461143D01*
X91718431Y-144688358D01*
X91622580Y-144932581D01*
X91564197Y-145188372D01*
X91549673Y-145382191D01*
X91549500Y-145384506D01*
X91549500Y-146615494D01*
X90750500Y-146615494D01*
X90750500Y-145384506D01*
X90735802Y-145188370D01*
X90677420Y-144932584D01*
X90674283Y-144924592D01*
X90581568Y-144688358D01*
X90581568Y-144688357D01*
X90450386Y-144461143D01*
X90286805Y-144256019D01*
X90286801Y-144256015D01*
X90094485Y-144077571D01*
X90044367Y-144043401D01*
X89877704Y-143929772D01*
X89641323Y-143815937D01*
X89390615Y-143738604D01*
X89131182Y-143699500D01*
X88868818Y-143699500D01*
X88609385Y-143738604D01*
X88358677Y-143815937D01*
X88122296Y-143929772D01*
X88056620Y-143974549D01*
X87905514Y-144077571D01*
X87713198Y-144256015D01*
X87549613Y-144461143D01*
X87418431Y-144688358D01*
X87322580Y-144932581D01*
X87270891Y-145159046D01*
X87236782Y-145220024D01*
X87175120Y-145252882D01*
X87105483Y-145247187D01*
X87049980Y-145204747D01*
X87029109Y-145159046D01*
X86977419Y-144932581D01*
X86881568Y-144688358D01*
X86881568Y-144688357D01*
X86750386Y-144461143D01*
X86586805Y-144256019D01*
X86586801Y-144256015D01*
X86394485Y-144077571D01*
X86344367Y-144043401D01*
X86177704Y-143929772D01*
X85941323Y-143815937D01*
X85690615Y-143738604D01*
X85431182Y-143699500D01*
X85168818Y-143699500D01*
X84909385Y-143738604D01*
X84658677Y-143815937D01*
X84422296Y-143929772D01*
X84356620Y-143974549D01*
X84205514Y-144077571D01*
X84013198Y-144256015D01*
X83849613Y-144461143D01*
X83718431Y-144688358D01*
X83622580Y-144932581D01*
X83564197Y-145188372D01*
X83549673Y-145382191D01*
X83549500Y-145384506D01*
X83549500Y-146615494D01*
X25000500Y-146615494D01*
X25000500Y-145060000D01*
X27804340Y-145060000D01*
X27824936Y-145295407D01*
X27853684Y-145402695D01*
X27886097Y-145523663D01*
X27985965Y-145737830D01*
X28121505Y-145931401D01*
X28288599Y-146098495D01*
X28482170Y-146234035D01*
X28696337Y-146333903D01*
X28924592Y-146395062D01*
X28924592Y-146395063D01*
X29159999Y-146415659D01*
X29159999Y-146415658D01*
X29160000Y-146415659D01*
X29395408Y-146395063D01*
X29623663Y-146333903D01*
X29837830Y-146234035D01*
X30031401Y-146098495D01*
X30153329Y-145976566D01*
X30214648Y-145943084D01*
X30284340Y-145948068D01*
X30340274Y-145989939D01*
X30357189Y-146020916D01*
X30406204Y-146152331D01*
X30492454Y-146267546D01*
X30607669Y-146353796D01*
X30742517Y-146404091D01*
X30802127Y-146410500D01*
X32597872Y-146410499D01*
X32657483Y-146404091D01*
X32792331Y-146353796D01*
X32907546Y-146267546D01*
X32993796Y-146152331D01*
X33044091Y-146017483D01*
X33050500Y-145957873D01*
X33050499Y-144210000D01*
X43977500Y-144210000D01*
X45618171Y-144210000D01*
X45577500Y-144375005D01*
X45577500Y-144544995D01*
X45618171Y-144710000D01*
X43977501Y-144710000D01*
X43977501Y-145296829D01*
X43977821Y-145303111D01*
X43987993Y-145402695D01*
X44043140Y-145569120D01*
X44135184Y-145718346D01*
X44259153Y-145842315D01*
X44408379Y-145934359D01*
X44574804Y-145989506D01*
X44674390Y-145999680D01*
X44680668Y-145999999D01*
X46027499Y-145999999D01*
X46027500Y-145999998D01*
X46027499Y-145113837D01*
X46108749Y-145144651D01*
X46235160Y-145160000D01*
X46319840Y-145160000D01*
X46446251Y-145144651D01*
X46527500Y-145113837D01*
X46527500Y-145999999D01*
X47874329Y-145999999D01*
X47880611Y-145999678D01*
X47980195Y-145989506D01*
X48146620Y-145934359D01*
X48295846Y-145842315D01*
X48419815Y-145718346D01*
X48511859Y-145569120D01*
X48567006Y-145402695D01*
X48577180Y-145303109D01*
X48577500Y-145296831D01*
X48577500Y-144710000D01*
X46936829Y-144710000D01*
X46977500Y-144544995D01*
X46977500Y-144375005D01*
X46936829Y-144210000D01*
X48577499Y-144210000D01*
X48577499Y-143623170D01*
X48577178Y-143616888D01*
X48567006Y-143517304D01*
X48511859Y-143350879D01*
X48419815Y-143201653D01*
X48295846Y-143077684D01*
X48146620Y-142985640D01*
X47980195Y-142930493D01*
X47880609Y-142920319D01*
X47874332Y-142920000D01*
X46527500Y-142920000D01*
X46527500Y-143806162D01*
X46446251Y-143775349D01*
X46319840Y-143760000D01*
X46235160Y-143760000D01*
X46108749Y-143775349D01*
X46027500Y-143806162D01*
X46027500Y-142920000D01*
X44680670Y-142920000D01*
X44674388Y-142920321D01*
X44574804Y-142930493D01*
X44408379Y-142985640D01*
X44259153Y-143077684D01*
X44135184Y-143201653D01*
X44043140Y-143350879D01*
X43987993Y-143517304D01*
X43977819Y-143616890D01*
X43977500Y-143623168D01*
X43977500Y-144210000D01*
X33050499Y-144210000D01*
X33050499Y-144162128D01*
X33044091Y-144102517D01*
X32993796Y-143967669D01*
X32907546Y-143852454D01*
X32792331Y-143766204D01*
X32660399Y-143716996D01*
X32604467Y-143675125D01*
X32580050Y-143609661D01*
X32594902Y-143541388D01*
X32616053Y-143513133D01*
X32738109Y-143391077D01*
X32873600Y-143197576D01*
X32973430Y-142983492D01*
X33030636Y-142770000D01*
X32133686Y-142770000D01*
X32159493Y-142729844D01*
X32200000Y-142591889D01*
X32200000Y-142448111D01*
X32159493Y-142310156D01*
X32133686Y-142270000D01*
X33030636Y-142270000D01*
X33030635Y-142269999D01*
X32973430Y-142056507D01*
X32873599Y-141842421D01*
X32738109Y-141648921D01*
X32571081Y-141481893D01*
X32385404Y-141351880D01*
X32341780Y-141297303D01*
X32334587Y-141227804D01*
X32366109Y-141165450D01*
X32385399Y-141148734D01*
X32571401Y-141018495D01*
X32738495Y-140851401D01*
X32874035Y-140657830D01*
X32973903Y-140443663D01*
X33035063Y-140215408D01*
X33055659Y-139980000D01*
X33050663Y-139922902D01*
X54595794Y-139922902D01*
X54595921Y-139926868D01*
X54595921Y-139926874D01*
X54605456Y-140224215D01*
X54605673Y-140230978D01*
X54606307Y-140234905D01*
X54606308Y-140234906D01*
X54640030Y-140443492D01*
X54654867Y-140535261D01*
X54664411Y-140567416D01*
X54736895Y-140811641D01*
X54742569Y-140830756D01*
X54744178Y-140834391D01*
X54744180Y-140834396D01*
X54865725Y-141108969D01*
X54865729Y-141108977D01*
X54867337Y-141112609D01*
X54869393Y-141116002D01*
X54869397Y-141116008D01*
X55024885Y-141372501D01*
X55027123Y-141376193D01*
X55219304Y-141617181D01*
X55440724Y-141831614D01*
X55445304Y-141835032D01*
X55566088Y-141925176D01*
X55687747Y-142015972D01*
X55691213Y-142017924D01*
X55937281Y-142156507D01*
X55956318Y-142167228D01*
X55960002Y-142168719D01*
X55960001Y-142168719D01*
X56238339Y-142281407D01*
X56238343Y-142281408D01*
X56242025Y-142282899D01*
X56540179Y-142361084D01*
X56845883Y-142400500D01*
X56849855Y-142400500D01*
X57074990Y-142400500D01*
X57076974Y-142400500D01*
X57307601Y-142385693D01*
X57610151Y-142326772D01*
X57902683Y-142229644D01*
X58180393Y-142095907D01*
X58438720Y-141927754D01*
X58673424Y-141727948D01*
X58880650Y-141499769D01*
X59056996Y-141246963D01*
X59199567Y-140973683D01*
X59306020Y-140684415D01*
X59374609Y-140383908D01*
X59404206Y-140077098D01*
X59395561Y-139807500D01*
X89567040Y-139807500D01*
X89586826Y-139995757D01*
X89645320Y-140175784D01*
X89739966Y-140339716D01*
X89866629Y-140480389D01*
X90019769Y-140591651D01*
X90192697Y-140668644D01*
X90377852Y-140708000D01*
X90551595Y-140708000D01*
X90618634Y-140727685D01*
X90664389Y-140780489D01*
X90669526Y-140793682D01*
X90723820Y-140960784D01*
X90818466Y-141124716D01*
X90945129Y-141265389D01*
X91098269Y-141376651D01*
X91271197Y-141453644D01*
X91456352Y-141493000D01*
X91456354Y-141493000D01*
X91645648Y-141493000D01*
X91769084Y-141466762D01*
X91830803Y-141453644D01*
X92003730Y-141376651D01*
X92035040Y-141353903D01*
X92156870Y-141265389D01*
X92190987Y-141227499D01*
X92283533Y-141124716D01*
X92378179Y-140960784D01*
X92436674Y-140780756D01*
X92456460Y-140592500D01*
X92436674Y-140404244D01*
X92390777Y-140262989D01*
X92378179Y-140224215D01*
X92283533Y-140060283D01*
X92159834Y-139922902D01*
X141095794Y-139922902D01*
X141095921Y-139926868D01*
X141095921Y-139926874D01*
X141105456Y-140224215D01*
X141105673Y-140230978D01*
X141106307Y-140234905D01*
X141106308Y-140234906D01*
X141140030Y-140443492D01*
X141154867Y-140535261D01*
X141164411Y-140567416D01*
X141236895Y-140811641D01*
X141242569Y-140830756D01*
X141244178Y-140834391D01*
X141244180Y-140834396D01*
X141365725Y-141108969D01*
X141365729Y-141108977D01*
X141367337Y-141112609D01*
X141369393Y-141116002D01*
X141369397Y-141116008D01*
X141524885Y-141372501D01*
X141527123Y-141376193D01*
X141719304Y-141617181D01*
X141940724Y-141831614D01*
X141945304Y-141835032D01*
X142066088Y-141925176D01*
X142187747Y-142015972D01*
X142191213Y-142017924D01*
X142437281Y-142156507D01*
X142456318Y-142167228D01*
X142460002Y-142168719D01*
X142460001Y-142168719D01*
X142738339Y-142281407D01*
X142738343Y-142281408D01*
X142742025Y-142282899D01*
X143040179Y-142361084D01*
X143345883Y-142400500D01*
X143349855Y-142400500D01*
X143574990Y-142400500D01*
X143576974Y-142400500D01*
X143807601Y-142385693D01*
X144110151Y-142326772D01*
X144402683Y-142229644D01*
X144680393Y-142095907D01*
X144938720Y-141927754D01*
X145173424Y-141727948D01*
X145380650Y-141499769D01*
X145556996Y-141246963D01*
X145699567Y-140973683D01*
X145806020Y-140684415D01*
X145874609Y-140383908D01*
X145904206Y-140077098D01*
X145894327Y-139769022D01*
X145845133Y-139464739D01*
X145766559Y-139200000D01*
X194594540Y-139200000D01*
X194614326Y-139388257D01*
X194672820Y-139568284D01*
X194767466Y-139732216D01*
X194894129Y-139872889D01*
X195047269Y-139984151D01*
X195220197Y-140061144D01*
X195405352Y-140100500D01*
X195535721Y-140100500D01*
X195602760Y-140120185D01*
X195648515Y-140172989D01*
X195653652Y-140186182D01*
X195712820Y-140368284D01*
X195807466Y-140532216D01*
X195934129Y-140672889D01*
X196087269Y-140784151D01*
X196260197Y-140861144D01*
X196445352Y-140900500D01*
X196445354Y-140900500D01*
X196634648Y-140900500D01*
X196758083Y-140874262D01*
X196819803Y-140861144D01*
X196992730Y-140784151D01*
X197028962Y-140757827D01*
X197145870Y-140672889D01*
X197198367Y-140614586D01*
X197272533Y-140532216D01*
X197367179Y-140368284D01*
X197425674Y-140188256D01*
X197433321Y-140115494D01*
X214799500Y-140115494D01*
X214799672Y-140117797D01*
X214799673Y-140117808D01*
X214814197Y-140311627D01*
X214872580Y-140567418D01*
X214956310Y-140780757D01*
X214968432Y-140811643D01*
X214991200Y-140851078D01*
X215087855Y-141018491D01*
X215099614Y-141038857D01*
X215263195Y-141243981D01*
X215263197Y-141243983D01*
X215263198Y-141243984D01*
X215455514Y-141422428D01*
X215455520Y-141422432D01*
X215455521Y-141422433D01*
X215672296Y-141570228D01*
X215908677Y-141684063D01*
X216159385Y-141761396D01*
X216418818Y-141800500D01*
X216681182Y-141800500D01*
X216940615Y-141761396D01*
X217191323Y-141684063D01*
X217427704Y-141570228D01*
X217644479Y-141422433D01*
X217644482Y-141422429D01*
X217644485Y-141422428D01*
X217746794Y-141327499D01*
X217836805Y-141243981D01*
X218000386Y-141038857D01*
X218131568Y-140811643D01*
X218227420Y-140567416D01*
X218279109Y-140340952D01*
X218313218Y-140279975D01*
X218374879Y-140247117D01*
X218444517Y-140252812D01*
X218500020Y-140295252D01*
X218520891Y-140340953D01*
X218572580Y-140567418D01*
X218656310Y-140780757D01*
X218668432Y-140811643D01*
X218691200Y-140851078D01*
X218787855Y-141018491D01*
X218799614Y-141038857D01*
X218963195Y-141243981D01*
X218963197Y-141243983D01*
X218963198Y-141243984D01*
X219155514Y-141422428D01*
X219155520Y-141422432D01*
X219155521Y-141422433D01*
X219372296Y-141570228D01*
X219608677Y-141684063D01*
X219859385Y-141761396D01*
X220118818Y-141800500D01*
X220381182Y-141800500D01*
X220640615Y-141761396D01*
X220891323Y-141684063D01*
X221127704Y-141570228D01*
X221344479Y-141422433D01*
X221344482Y-141422429D01*
X221344485Y-141422428D01*
X221446794Y-141327499D01*
X221536805Y-141243981D01*
X221700386Y-141038857D01*
X221831568Y-140811643D01*
X221927420Y-140567416D01*
X221985802Y-140311630D01*
X222000500Y-140115494D01*
X222799500Y-140115494D01*
X222799672Y-140117797D01*
X222799673Y-140117808D01*
X222814197Y-140311627D01*
X222872580Y-140567418D01*
X222956310Y-140780757D01*
X222968432Y-140811643D01*
X222991200Y-140851078D01*
X223087855Y-141018491D01*
X223099614Y-141038857D01*
X223263195Y-141243981D01*
X223263197Y-141243983D01*
X223263198Y-141243984D01*
X223455514Y-141422428D01*
X223455520Y-141422432D01*
X223455521Y-141422433D01*
X223672296Y-141570228D01*
X223908677Y-141684063D01*
X224159385Y-141761396D01*
X224418818Y-141800500D01*
X224681182Y-141800500D01*
X224940615Y-141761396D01*
X225191323Y-141684063D01*
X225427704Y-141570228D01*
X225644479Y-141422433D01*
X225644482Y-141422429D01*
X225644485Y-141422428D01*
X225746794Y-141327499D01*
X225836805Y-141243981D01*
X226000386Y-141038857D01*
X226131568Y-140811643D01*
X226227420Y-140567416D01*
X226279109Y-140340952D01*
X226313218Y-140279975D01*
X226374879Y-140247117D01*
X226444517Y-140252812D01*
X226500020Y-140295252D01*
X226520891Y-140340953D01*
X226572580Y-140567418D01*
X226656310Y-140780757D01*
X226668432Y-140811643D01*
X226691200Y-140851078D01*
X226787855Y-141018491D01*
X226799614Y-141038857D01*
X226963195Y-141243981D01*
X226963197Y-141243983D01*
X226963198Y-141243984D01*
X227155514Y-141422428D01*
X227155520Y-141422432D01*
X227155521Y-141422433D01*
X227372296Y-141570228D01*
X227608677Y-141684063D01*
X227859385Y-141761396D01*
X228118818Y-141800500D01*
X228381182Y-141800500D01*
X228640615Y-141761396D01*
X228891323Y-141684063D01*
X229127704Y-141570228D01*
X229344479Y-141422433D01*
X229344482Y-141422429D01*
X229344485Y-141422428D01*
X229446794Y-141327499D01*
X229536805Y-141243981D01*
X229700386Y-141038857D01*
X229831568Y-140811643D01*
X229927420Y-140567416D01*
X229985802Y-140311630D01*
X230000500Y-140115494D01*
X230000500Y-139922902D01*
X246095794Y-139922902D01*
X246095921Y-139926868D01*
X246095921Y-139926874D01*
X246105456Y-140224215D01*
X246105673Y-140230978D01*
X246106307Y-140234905D01*
X246106308Y-140234906D01*
X246140030Y-140443492D01*
X246154867Y-140535261D01*
X246164411Y-140567416D01*
X246236895Y-140811641D01*
X246242569Y-140830756D01*
X246244178Y-140834391D01*
X246244180Y-140834396D01*
X246365725Y-141108969D01*
X246365729Y-141108977D01*
X246367337Y-141112609D01*
X246369393Y-141116002D01*
X246369397Y-141116008D01*
X246524885Y-141372501D01*
X246527123Y-141376193D01*
X246719304Y-141617181D01*
X246940724Y-141831614D01*
X246945304Y-141835032D01*
X247066088Y-141925176D01*
X247187747Y-142015972D01*
X247191213Y-142017924D01*
X247437281Y-142156507D01*
X247456318Y-142167228D01*
X247460002Y-142168719D01*
X247460001Y-142168719D01*
X247738339Y-142281407D01*
X247738343Y-142281408D01*
X247742025Y-142282899D01*
X248040179Y-142361084D01*
X248345883Y-142400500D01*
X248349855Y-142400500D01*
X248574990Y-142400500D01*
X248576974Y-142400500D01*
X248807601Y-142385693D01*
X249110151Y-142326772D01*
X249402683Y-142229644D01*
X249680393Y-142095907D01*
X249938720Y-141927754D01*
X250173424Y-141727948D01*
X250380650Y-141499769D01*
X250556996Y-141246963D01*
X250699567Y-140973683D01*
X250806020Y-140684415D01*
X250874609Y-140383908D01*
X250900502Y-140115494D01*
X266999500Y-140115494D01*
X266999672Y-140117797D01*
X266999673Y-140117808D01*
X267014197Y-140311627D01*
X267072580Y-140567418D01*
X267156310Y-140780757D01*
X267168432Y-140811643D01*
X267191200Y-140851078D01*
X267287855Y-141018491D01*
X267299614Y-141038857D01*
X267463195Y-141243981D01*
X267463197Y-141243983D01*
X267463198Y-141243984D01*
X267655514Y-141422428D01*
X267655520Y-141422432D01*
X267655521Y-141422433D01*
X267872296Y-141570228D01*
X268108677Y-141684063D01*
X268359385Y-141761396D01*
X268618818Y-141800500D01*
X268881182Y-141800500D01*
X269140615Y-141761396D01*
X269391323Y-141684063D01*
X269627704Y-141570228D01*
X269844479Y-141422433D01*
X269844482Y-141422429D01*
X269844485Y-141422428D01*
X269946794Y-141327499D01*
X270036805Y-141243981D01*
X270200386Y-141038857D01*
X270331568Y-140811643D01*
X270427420Y-140567416D01*
X270479109Y-140340952D01*
X270513218Y-140279975D01*
X270574879Y-140247117D01*
X270644517Y-140252812D01*
X270700020Y-140295252D01*
X270720891Y-140340953D01*
X270772580Y-140567418D01*
X270856310Y-140780757D01*
X270868432Y-140811643D01*
X270891200Y-140851078D01*
X270987855Y-141018491D01*
X270999614Y-141038857D01*
X271163195Y-141243981D01*
X271163197Y-141243983D01*
X271163198Y-141243984D01*
X271355514Y-141422428D01*
X271355520Y-141422432D01*
X271355521Y-141422433D01*
X271572296Y-141570228D01*
X271808677Y-141684063D01*
X272059385Y-141761396D01*
X272318818Y-141800500D01*
X272581182Y-141800500D01*
X272840615Y-141761396D01*
X273091323Y-141684063D01*
X273327704Y-141570228D01*
X273544479Y-141422433D01*
X273544482Y-141422429D01*
X273544485Y-141422428D01*
X273646794Y-141327499D01*
X273736805Y-141243981D01*
X273900386Y-141038857D01*
X274031568Y-140811643D01*
X274127420Y-140567416D01*
X274185802Y-140311630D01*
X274200500Y-140115494D01*
X274999500Y-140115494D01*
X274999672Y-140117797D01*
X274999673Y-140117808D01*
X275014197Y-140311627D01*
X275072580Y-140567418D01*
X275156310Y-140780757D01*
X275168432Y-140811643D01*
X275191200Y-140851078D01*
X275287855Y-141018491D01*
X275299614Y-141038857D01*
X275463195Y-141243981D01*
X275463197Y-141243983D01*
X275463198Y-141243984D01*
X275655514Y-141422428D01*
X275655520Y-141422432D01*
X275655521Y-141422433D01*
X275872296Y-141570228D01*
X276108677Y-141684063D01*
X276359385Y-141761396D01*
X276618818Y-141800500D01*
X276881182Y-141800500D01*
X277140615Y-141761396D01*
X277391323Y-141684063D01*
X277627704Y-141570228D01*
X277844479Y-141422433D01*
X277844482Y-141422429D01*
X277844485Y-141422428D01*
X277946794Y-141327499D01*
X278036805Y-141243981D01*
X278200386Y-141038857D01*
X278331568Y-140811643D01*
X278427420Y-140567416D01*
X278479109Y-140340952D01*
X278513218Y-140279975D01*
X278574879Y-140247117D01*
X278644517Y-140252812D01*
X278700020Y-140295252D01*
X278720891Y-140340953D01*
X278772580Y-140567418D01*
X278856310Y-140780757D01*
X278868432Y-140811643D01*
X278891200Y-140851078D01*
X278987855Y-141018491D01*
X278999614Y-141038857D01*
X279163195Y-141243981D01*
X279163197Y-141243983D01*
X279163198Y-141243984D01*
X279355514Y-141422428D01*
X279355520Y-141422432D01*
X279355521Y-141422433D01*
X279572296Y-141570228D01*
X279808677Y-141684063D01*
X280059385Y-141761396D01*
X280318818Y-141800500D01*
X280581182Y-141800500D01*
X280840615Y-141761396D01*
X281091323Y-141684063D01*
X281327704Y-141570228D01*
X281544479Y-141422433D01*
X281544482Y-141422429D01*
X281544485Y-141422428D01*
X281646794Y-141327499D01*
X281736805Y-141243981D01*
X281900386Y-141038857D01*
X282031568Y-140811643D01*
X282127420Y-140567416D01*
X282185802Y-140311630D01*
X282200500Y-140115494D01*
X282200500Y-139290000D01*
X299624540Y-139290000D01*
X299626837Y-139311856D01*
X299644326Y-139478257D01*
X299702820Y-139658284D01*
X299797466Y-139822216D01*
X299924129Y-139962889D01*
X300077269Y-140074151D01*
X300250197Y-140151144D01*
X300435352Y-140190500D01*
X300435354Y-140190500D01*
X300512471Y-140190500D01*
X300579510Y-140210185D01*
X300625265Y-140262989D01*
X300630402Y-140276181D01*
X300692821Y-140468285D01*
X300787466Y-140632216D01*
X300914129Y-140772889D01*
X301067269Y-140884151D01*
X301240197Y-140961144D01*
X301425352Y-141000500D01*
X301425354Y-141000500D01*
X301614648Y-141000500D01*
X301758369Y-140969951D01*
X301799803Y-140961144D01*
X301972730Y-140884151D01*
X301995761Y-140867418D01*
X302125870Y-140772889D01*
X302178367Y-140714586D01*
X302252533Y-140632216D01*
X302347179Y-140468284D01*
X302405674Y-140288256D01*
X302413321Y-140215494D01*
X312649500Y-140215494D01*
X312649672Y-140217797D01*
X312649673Y-140217808D01*
X312664197Y-140411627D01*
X312722580Y-140667418D01*
X312818431Y-140911641D01*
X312941449Y-141124716D01*
X312949614Y-141138857D01*
X313113195Y-141343981D01*
X313113197Y-141343983D01*
X313113198Y-141343984D01*
X313305514Y-141522428D01*
X313305520Y-141522432D01*
X313305521Y-141522433D01*
X313522296Y-141670228D01*
X313758677Y-141784063D01*
X314009385Y-141861396D01*
X314268818Y-141900500D01*
X314531182Y-141900500D01*
X314790615Y-141861396D01*
X315041323Y-141784063D01*
X315277704Y-141670228D01*
X315494479Y-141522433D01*
X315494482Y-141522429D01*
X315494485Y-141522428D01*
X315588866Y-141434855D01*
X315686805Y-141343981D01*
X315850386Y-141138857D01*
X315981568Y-140911643D01*
X316077420Y-140667416D01*
X316129109Y-140440951D01*
X316163217Y-140379975D01*
X316224878Y-140347117D01*
X316294515Y-140352812D01*
X316350019Y-140395252D01*
X316370890Y-140440953D01*
X316422580Y-140667418D01*
X316518431Y-140911641D01*
X316641449Y-141124716D01*
X316649614Y-141138857D01*
X316813195Y-141343981D01*
X316813197Y-141343983D01*
X316813198Y-141343984D01*
X317005514Y-141522428D01*
X317005520Y-141522432D01*
X317005521Y-141522433D01*
X317222296Y-141670228D01*
X317458677Y-141784063D01*
X317709385Y-141861396D01*
X317968818Y-141900500D01*
X318231182Y-141900500D01*
X318490615Y-141861396D01*
X318741323Y-141784063D01*
X318977704Y-141670228D01*
X319194479Y-141522433D01*
X319194482Y-141522429D01*
X319194485Y-141522428D01*
X319288866Y-141434855D01*
X319386805Y-141343981D01*
X319550386Y-141138857D01*
X319681568Y-140911643D01*
X319777420Y-140667416D01*
X319835802Y-140411630D01*
X319850500Y-140215494D01*
X320649500Y-140215494D01*
X320649672Y-140217797D01*
X320649673Y-140217808D01*
X320664197Y-140411627D01*
X320722580Y-140667418D01*
X320818431Y-140911641D01*
X320941449Y-141124716D01*
X320949614Y-141138857D01*
X321113195Y-141343981D01*
X321113197Y-141343983D01*
X321113198Y-141343984D01*
X321305514Y-141522428D01*
X321305520Y-141522432D01*
X321305521Y-141522433D01*
X321522296Y-141670228D01*
X321758677Y-141784063D01*
X322009385Y-141861396D01*
X322268818Y-141900500D01*
X322531182Y-141900500D01*
X322790615Y-141861396D01*
X323041323Y-141784063D01*
X323277704Y-141670228D01*
X323494479Y-141522433D01*
X323494482Y-141522429D01*
X323494485Y-141522428D01*
X323588866Y-141434855D01*
X323686805Y-141343981D01*
X323850386Y-141138857D01*
X323981568Y-140911643D01*
X324077420Y-140667416D01*
X324129109Y-140440952D01*
X324163218Y-140379975D01*
X324224879Y-140347117D01*
X324294517Y-140352812D01*
X324350020Y-140395252D01*
X324370890Y-140440952D01*
X324377129Y-140468284D01*
X324422580Y-140667418D01*
X324518431Y-140911641D01*
X324641449Y-141124716D01*
X324649614Y-141138857D01*
X324813195Y-141343981D01*
X324813197Y-141343983D01*
X324813198Y-141343984D01*
X325005514Y-141522428D01*
X325005520Y-141522432D01*
X325005521Y-141522433D01*
X325222296Y-141670228D01*
X325458677Y-141784063D01*
X325709385Y-141861396D01*
X325968818Y-141900500D01*
X326231182Y-141900500D01*
X326490615Y-141861396D01*
X326741323Y-141784063D01*
X326977704Y-141670228D01*
X327194479Y-141522433D01*
X327194482Y-141522429D01*
X327194485Y-141522428D01*
X327288866Y-141434855D01*
X327386805Y-141343981D01*
X327550386Y-141138857D01*
X327681568Y-140911643D01*
X327777420Y-140667416D01*
X327835802Y-140411630D01*
X327850500Y-140215494D01*
X329649500Y-140215494D01*
X329649672Y-140217797D01*
X329649673Y-140217808D01*
X329664197Y-140411627D01*
X329722580Y-140667418D01*
X329818431Y-140911641D01*
X329941449Y-141124716D01*
X329949614Y-141138857D01*
X330113195Y-141343981D01*
X330113197Y-141343983D01*
X330113198Y-141343984D01*
X330305514Y-141522428D01*
X330305520Y-141522432D01*
X330305521Y-141522433D01*
X330522296Y-141670228D01*
X330758677Y-141784063D01*
X331009385Y-141861396D01*
X331268818Y-141900500D01*
X331531182Y-141900500D01*
X331790615Y-141861396D01*
X332041323Y-141784063D01*
X332277704Y-141670228D01*
X332494479Y-141522433D01*
X332494482Y-141522429D01*
X332494485Y-141522428D01*
X332588866Y-141434855D01*
X332686805Y-141343981D01*
X332850386Y-141138857D01*
X332981568Y-140911643D01*
X333077420Y-140667416D01*
X333129109Y-140440952D01*
X333163218Y-140379975D01*
X333224879Y-140347117D01*
X333294517Y-140352812D01*
X333350020Y-140395252D01*
X333370890Y-140440952D01*
X333377129Y-140468284D01*
X333422580Y-140667418D01*
X333518431Y-140911641D01*
X333641449Y-141124716D01*
X333649614Y-141138857D01*
X333813195Y-141343981D01*
X333813197Y-141343983D01*
X333813198Y-141343984D01*
X334005514Y-141522428D01*
X334005520Y-141522432D01*
X334005521Y-141522433D01*
X334222296Y-141670228D01*
X334458677Y-141784063D01*
X334709385Y-141861396D01*
X334968818Y-141900500D01*
X335231182Y-141900500D01*
X335490615Y-141861396D01*
X335741323Y-141784063D01*
X335977704Y-141670228D01*
X336194479Y-141522433D01*
X336194482Y-141522429D01*
X336194485Y-141522428D01*
X336288866Y-141434855D01*
X336386805Y-141343981D01*
X336550386Y-141138857D01*
X336681568Y-140911643D01*
X336777420Y-140667416D01*
X336835802Y-140411630D01*
X336850500Y-140215494D01*
X337649500Y-140215494D01*
X337649672Y-140217797D01*
X337649673Y-140217808D01*
X337664197Y-140411627D01*
X337722580Y-140667418D01*
X337818431Y-140911641D01*
X337941449Y-141124716D01*
X337949614Y-141138857D01*
X338113195Y-141343981D01*
X338113197Y-141343983D01*
X338113198Y-141343984D01*
X338305514Y-141522428D01*
X338305520Y-141522432D01*
X338305521Y-141522433D01*
X338522296Y-141670228D01*
X338758677Y-141784063D01*
X339009385Y-141861396D01*
X339268818Y-141900500D01*
X339531182Y-141900500D01*
X339790615Y-141861396D01*
X340041323Y-141784063D01*
X340277704Y-141670228D01*
X340494479Y-141522433D01*
X340494482Y-141522429D01*
X340494485Y-141522428D01*
X340588866Y-141434855D01*
X340686805Y-141343981D01*
X340850386Y-141138857D01*
X340981568Y-140911643D01*
X341077420Y-140667416D01*
X341129109Y-140440952D01*
X341163218Y-140379975D01*
X341224879Y-140347117D01*
X341294517Y-140352812D01*
X341350020Y-140395252D01*
X341370890Y-140440952D01*
X341377129Y-140468284D01*
X341422580Y-140667418D01*
X341518431Y-140911641D01*
X341641449Y-141124716D01*
X341649614Y-141138857D01*
X341813195Y-141343981D01*
X341813197Y-141343983D01*
X341813198Y-141343984D01*
X342005514Y-141522428D01*
X342005520Y-141522432D01*
X342005521Y-141522433D01*
X342222296Y-141670228D01*
X342458677Y-141784063D01*
X342709385Y-141861396D01*
X342968818Y-141900500D01*
X343231182Y-141900500D01*
X343490615Y-141861396D01*
X343741323Y-141784063D01*
X343977704Y-141670228D01*
X344194479Y-141522433D01*
X344194482Y-141522429D01*
X344194485Y-141522428D01*
X344288866Y-141434855D01*
X344386805Y-141343981D01*
X344550386Y-141138857D01*
X344681568Y-140911643D01*
X344777420Y-140667416D01*
X344835802Y-140411630D01*
X344850500Y-140215494D01*
X344850500Y-139922902D01*
X350845794Y-139922902D01*
X350845921Y-139926868D01*
X350845921Y-139926874D01*
X350855456Y-140224215D01*
X350855673Y-140230978D01*
X350856307Y-140234905D01*
X350856308Y-140234906D01*
X350890030Y-140443492D01*
X350904867Y-140535261D01*
X350914411Y-140567416D01*
X350986895Y-140811641D01*
X350992569Y-140830756D01*
X350994178Y-140834391D01*
X350994180Y-140834396D01*
X351115725Y-141108969D01*
X351115729Y-141108977D01*
X351117337Y-141112609D01*
X351119393Y-141116002D01*
X351119397Y-141116008D01*
X351274885Y-141372501D01*
X351277123Y-141376193D01*
X351469304Y-141617181D01*
X351690724Y-141831614D01*
X351695304Y-141835032D01*
X351816088Y-141925176D01*
X351937747Y-142015972D01*
X351941213Y-142017924D01*
X352187281Y-142156507D01*
X352206318Y-142167228D01*
X352210002Y-142168719D01*
X352210001Y-142168719D01*
X352488339Y-142281407D01*
X352488343Y-142281408D01*
X352492025Y-142282899D01*
X352790179Y-142361084D01*
X353095883Y-142400500D01*
X353099855Y-142400500D01*
X353324990Y-142400500D01*
X353326974Y-142400500D01*
X353557601Y-142385693D01*
X353860151Y-142326772D01*
X354152683Y-142229644D01*
X354430393Y-142095907D01*
X354688720Y-141927754D01*
X354923424Y-141727948D01*
X355130650Y-141499769D01*
X355306996Y-141246963D01*
X355449567Y-140973683D01*
X355556020Y-140684415D01*
X355617400Y-140415494D01*
X361699500Y-140415494D01*
X361699672Y-140417797D01*
X361699673Y-140417808D01*
X361714197Y-140611627D01*
X361772580Y-140867418D01*
X361868431Y-141111641D01*
X361868432Y-141111643D01*
X361884144Y-141138857D01*
X361999613Y-141338856D01*
X362011613Y-141353903D01*
X362163195Y-141543981D01*
X362163197Y-141543983D01*
X362163198Y-141543984D01*
X362355514Y-141722428D01*
X362355520Y-141722432D01*
X362355521Y-141722433D01*
X362572296Y-141870228D01*
X362808677Y-141984063D01*
X363059385Y-142061396D01*
X363318818Y-142100500D01*
X363581182Y-142100500D01*
X363840615Y-142061396D01*
X364091323Y-141984063D01*
X364327704Y-141870228D01*
X364544479Y-141722433D01*
X364544482Y-141722429D01*
X364544485Y-141722428D01*
X364695945Y-141581893D01*
X364736805Y-141543981D01*
X364900386Y-141338857D01*
X365031568Y-141111643D01*
X365127420Y-140867416D01*
X365179109Y-140640952D01*
X365213218Y-140579975D01*
X365274879Y-140547117D01*
X365344517Y-140552812D01*
X365400020Y-140595252D01*
X365420891Y-140640953D01*
X365472580Y-140867418D01*
X365568431Y-141111641D01*
X365568432Y-141111643D01*
X365584144Y-141138857D01*
X365699613Y-141338856D01*
X365711613Y-141353903D01*
X365863195Y-141543981D01*
X365863197Y-141543983D01*
X365863198Y-141543984D01*
X366055514Y-141722428D01*
X366055520Y-141722432D01*
X366055521Y-141722433D01*
X366272296Y-141870228D01*
X366508677Y-141984063D01*
X366759385Y-142061396D01*
X367018818Y-142100500D01*
X367281182Y-142100500D01*
X367540615Y-142061396D01*
X367791323Y-141984063D01*
X368027704Y-141870228D01*
X368244479Y-141722433D01*
X368244482Y-141722429D01*
X368244485Y-141722428D01*
X368395945Y-141581893D01*
X368436805Y-141543981D01*
X368600386Y-141338857D01*
X368731568Y-141111643D01*
X368827420Y-140867416D01*
X368885802Y-140611630D01*
X368900500Y-140415494D01*
X369699500Y-140415494D01*
X369699672Y-140417797D01*
X369699673Y-140417808D01*
X369714197Y-140611627D01*
X369772580Y-140867418D01*
X369868431Y-141111641D01*
X369868432Y-141111643D01*
X369884144Y-141138857D01*
X369999613Y-141338856D01*
X370011613Y-141353903D01*
X370163195Y-141543981D01*
X370163197Y-141543983D01*
X370163198Y-141543984D01*
X370355514Y-141722428D01*
X370355520Y-141722432D01*
X370355521Y-141722433D01*
X370572296Y-141870228D01*
X370808677Y-141984063D01*
X371059385Y-142061396D01*
X371318818Y-142100500D01*
X371581182Y-142100500D01*
X371840615Y-142061396D01*
X372091323Y-141984063D01*
X372327704Y-141870228D01*
X372544479Y-141722433D01*
X372544482Y-141722429D01*
X372544485Y-141722428D01*
X372695945Y-141581893D01*
X372736805Y-141543981D01*
X372900386Y-141338857D01*
X373031568Y-141111643D01*
X373127420Y-140867416D01*
X373179109Y-140640952D01*
X373213218Y-140579975D01*
X373274879Y-140547117D01*
X373344517Y-140552812D01*
X373400020Y-140595252D01*
X373420891Y-140640953D01*
X373472580Y-140867418D01*
X373568431Y-141111641D01*
X373568432Y-141111643D01*
X373584144Y-141138857D01*
X373699613Y-141338856D01*
X373711613Y-141353903D01*
X373863195Y-141543981D01*
X373863197Y-141543983D01*
X373863198Y-141543984D01*
X374055514Y-141722428D01*
X374055520Y-141722432D01*
X374055521Y-141722433D01*
X374272296Y-141870228D01*
X374508677Y-141984063D01*
X374759385Y-142061396D01*
X375018818Y-142100500D01*
X375281182Y-142100500D01*
X375540615Y-142061396D01*
X375791323Y-141984063D01*
X376027704Y-141870228D01*
X376244479Y-141722433D01*
X376244482Y-141722429D01*
X376244485Y-141722428D01*
X376395945Y-141581893D01*
X376436805Y-141543981D01*
X376600386Y-141338857D01*
X376731568Y-141111643D01*
X376827420Y-140867416D01*
X376885802Y-140611630D01*
X376900500Y-140415494D01*
X378699500Y-140415494D01*
X378699672Y-140417797D01*
X378699673Y-140417808D01*
X378714197Y-140611627D01*
X378772580Y-140867418D01*
X378868431Y-141111641D01*
X378868432Y-141111643D01*
X378884144Y-141138857D01*
X378999613Y-141338856D01*
X379011613Y-141353903D01*
X379163195Y-141543981D01*
X379163197Y-141543983D01*
X379163198Y-141543984D01*
X379355514Y-141722428D01*
X379355520Y-141722432D01*
X379355521Y-141722433D01*
X379572296Y-141870228D01*
X379808677Y-141984063D01*
X380059385Y-142061396D01*
X380318818Y-142100500D01*
X380581182Y-142100500D01*
X380840615Y-142061396D01*
X381091323Y-141984063D01*
X381327704Y-141870228D01*
X381544479Y-141722433D01*
X381544482Y-141722429D01*
X381544485Y-141722428D01*
X381695945Y-141581893D01*
X381736805Y-141543981D01*
X381900386Y-141338857D01*
X382031568Y-141111643D01*
X382127420Y-140867416D01*
X382179109Y-140640951D01*
X382213217Y-140579975D01*
X382274878Y-140547117D01*
X382344515Y-140552812D01*
X382400019Y-140595252D01*
X382420890Y-140640953D01*
X382472580Y-140867418D01*
X382568431Y-141111641D01*
X382568432Y-141111643D01*
X382584144Y-141138857D01*
X382699613Y-141338856D01*
X382711613Y-141353903D01*
X382863195Y-141543981D01*
X382863197Y-141543983D01*
X382863198Y-141543984D01*
X383055514Y-141722428D01*
X383055520Y-141722432D01*
X383055521Y-141722433D01*
X383272296Y-141870228D01*
X383508677Y-141984063D01*
X383759385Y-142061396D01*
X384018818Y-142100500D01*
X384281182Y-142100500D01*
X384540615Y-142061396D01*
X384791323Y-141984063D01*
X385027704Y-141870228D01*
X385244479Y-141722433D01*
X385244482Y-141722429D01*
X385244485Y-141722428D01*
X385395945Y-141581893D01*
X385436805Y-141543981D01*
X385600386Y-141338857D01*
X385731568Y-141111643D01*
X385827420Y-140867416D01*
X385885802Y-140611630D01*
X385900500Y-140415494D01*
X386699500Y-140415494D01*
X386699672Y-140417797D01*
X386699673Y-140417808D01*
X386714197Y-140611627D01*
X386772580Y-140867418D01*
X386868431Y-141111641D01*
X386868432Y-141111643D01*
X386884144Y-141138857D01*
X386999613Y-141338856D01*
X387011613Y-141353903D01*
X387163195Y-141543981D01*
X387163197Y-141543983D01*
X387163198Y-141543984D01*
X387355514Y-141722428D01*
X387355520Y-141722432D01*
X387355521Y-141722433D01*
X387572296Y-141870228D01*
X387808677Y-141984063D01*
X388059385Y-142061396D01*
X388318818Y-142100500D01*
X388581182Y-142100500D01*
X388840615Y-142061396D01*
X389091323Y-141984063D01*
X389327704Y-141870228D01*
X389544479Y-141722433D01*
X389544482Y-141722429D01*
X389544485Y-141722428D01*
X389695945Y-141581893D01*
X389736805Y-141543981D01*
X389900386Y-141338857D01*
X390031568Y-141111643D01*
X390127420Y-140867416D01*
X390179109Y-140640952D01*
X390213218Y-140579975D01*
X390274879Y-140547117D01*
X390344517Y-140552812D01*
X390400020Y-140595252D01*
X390420891Y-140640953D01*
X390472580Y-140867418D01*
X390568431Y-141111641D01*
X390568432Y-141111643D01*
X390584144Y-141138857D01*
X390699613Y-141338856D01*
X390711613Y-141353903D01*
X390863195Y-141543981D01*
X390863197Y-141543983D01*
X390863198Y-141543984D01*
X391055514Y-141722428D01*
X391055520Y-141722432D01*
X391055521Y-141722433D01*
X391272296Y-141870228D01*
X391508677Y-141984063D01*
X391759385Y-142061396D01*
X392018818Y-142100500D01*
X392281182Y-142100500D01*
X392540615Y-142061396D01*
X392791323Y-141984063D01*
X393027704Y-141870228D01*
X393244479Y-141722433D01*
X393244482Y-141722429D01*
X393244485Y-141722428D01*
X393395945Y-141581893D01*
X393436805Y-141543981D01*
X393600386Y-141338857D01*
X393731568Y-141111643D01*
X393827420Y-140867416D01*
X393885802Y-140611630D01*
X393900500Y-140415494D01*
X393900500Y-139200000D01*
X404604540Y-139200000D01*
X404624326Y-139388257D01*
X404682820Y-139568284D01*
X404777466Y-139732216D01*
X404904129Y-139872889D01*
X405057269Y-139984151D01*
X405230197Y-140061144D01*
X405415352Y-140100500D01*
X405535721Y-140100500D01*
X405602760Y-140120185D01*
X405648515Y-140172989D01*
X405653652Y-140186182D01*
X405712820Y-140368284D01*
X405807466Y-140532216D01*
X405934129Y-140672889D01*
X406087269Y-140784151D01*
X406260197Y-140861144D01*
X406445352Y-140900500D01*
X406445354Y-140900500D01*
X406634648Y-140900500D01*
X406758084Y-140874262D01*
X406819803Y-140861144D01*
X406992730Y-140784151D01*
X407028962Y-140757827D01*
X407145870Y-140672889D01*
X407198367Y-140614586D01*
X407272533Y-140532216D01*
X407367179Y-140368284D01*
X407425674Y-140188256D01*
X407445460Y-140000000D01*
X407425674Y-139811744D01*
X407389366Y-139700000D01*
X415494540Y-139700000D01*
X415497836Y-139731356D01*
X415514326Y-139888257D01*
X415572820Y-140068284D01*
X415667466Y-140232216D01*
X415794129Y-140372889D01*
X415947269Y-140484151D01*
X416120197Y-140561144D01*
X416305352Y-140600500D01*
X416305354Y-140600500D01*
X416494648Y-140600500D01*
X416618083Y-140574262D01*
X416679803Y-140561144D01*
X416852730Y-140484151D01*
X416962716Y-140404242D01*
X417005870Y-140372889D01*
X417023948Y-140352812D01*
X417132533Y-140232216D01*
X417227179Y-140068284D01*
X417285674Y-139888256D01*
X417305460Y-139700000D01*
X417285674Y-139511744D01*
X417247610Y-139394595D01*
X417227179Y-139331715D01*
X417132533Y-139167783D01*
X417005870Y-139027110D01*
X416852731Y-138915849D01*
X416846961Y-138913280D01*
X416793723Y-138868031D01*
X416773401Y-138801182D01*
X416792445Y-138733958D01*
X416844810Y-138687702D01*
X416846961Y-138686720D01*
X416849527Y-138685576D01*
X416852730Y-138684151D01*
X416956958Y-138608425D01*
X417005870Y-138572889D01*
X417132533Y-138432216D01*
X417227179Y-138268284D01*
X417241111Y-138225405D01*
X417285674Y-138088256D01*
X417305460Y-137900000D01*
X417285674Y-137711744D01*
X417249245Y-137599627D01*
X417227179Y-137531715D01*
X417132533Y-137367783D01*
X417005870Y-137227110D01*
X416852730Y-137115848D01*
X416679802Y-137038855D01*
X416494648Y-136999500D01*
X416494646Y-136999500D01*
X416305354Y-136999500D01*
X416305352Y-136999500D01*
X416120197Y-137038855D01*
X415947269Y-137115848D01*
X415794129Y-137227110D01*
X415667466Y-137367783D01*
X415572820Y-137531715D01*
X415514326Y-137711742D01*
X415494540Y-137900000D01*
X415514326Y-138088257D01*
X415572820Y-138268284D01*
X415667466Y-138432216D01*
X415794129Y-138572889D01*
X415947269Y-138684151D01*
X415953040Y-138686721D01*
X416006277Y-138731971D01*
X416026598Y-138798820D01*
X416007552Y-138866044D01*
X415955186Y-138912299D01*
X415953040Y-138913279D01*
X415947269Y-138915848D01*
X415794129Y-139027110D01*
X415667466Y-139167783D01*
X415572820Y-139331715D01*
X415514326Y-139511742D01*
X415498924Y-139658284D01*
X415494540Y-139700000D01*
X407389366Y-139700000D01*
X407386767Y-139692000D01*
X407367179Y-139631715D01*
X407272533Y-139467783D01*
X407145870Y-139327110D01*
X406992730Y-139215848D01*
X406819802Y-139138855D01*
X406634648Y-139099500D01*
X406634646Y-139099500D01*
X406514279Y-139099500D01*
X406447240Y-139079815D01*
X406401485Y-139027011D01*
X406396348Y-139013818D01*
X406337179Y-138831715D01*
X406242533Y-138667783D01*
X406115870Y-138527110D01*
X405962730Y-138415848D01*
X405789802Y-138338855D01*
X405604648Y-138299500D01*
X405604646Y-138299500D01*
X405415354Y-138299500D01*
X405415352Y-138299500D01*
X405230197Y-138338855D01*
X405057269Y-138415848D01*
X404904129Y-138527110D01*
X404777466Y-138667783D01*
X404682820Y-138831715D01*
X404624326Y-139011742D01*
X404604540Y-139200000D01*
X393900500Y-139200000D01*
X393900500Y-139184506D01*
X393885802Y-138988370D01*
X393827420Y-138732584D01*
X393827387Y-138732501D01*
X393778691Y-138608425D01*
X393731568Y-138488357D01*
X393600386Y-138261143D01*
X393436805Y-138056019D01*
X393380379Y-138003663D01*
X393244485Y-137877571D01*
X393183205Y-137835791D01*
X393027704Y-137729772D01*
X392791323Y-137615937D01*
X392540615Y-137538604D01*
X392281182Y-137499500D01*
X392018818Y-137499500D01*
X391759385Y-137538604D01*
X391508677Y-137615937D01*
X391295512Y-137718592D01*
X391272296Y-137729772D01*
X391271469Y-137730336D01*
X391055514Y-137877571D01*
X390863198Y-138056015D01*
X390699613Y-138261143D01*
X390568431Y-138488358D01*
X390472580Y-138732581D01*
X390420891Y-138959046D01*
X390386782Y-139020024D01*
X390325120Y-139052882D01*
X390255483Y-139047187D01*
X390199980Y-139004747D01*
X390179109Y-138959046D01*
X390162624Y-138886822D01*
X390127420Y-138732584D01*
X390127387Y-138732501D01*
X390078691Y-138608425D01*
X390031568Y-138488357D01*
X389900386Y-138261143D01*
X389736805Y-138056019D01*
X389680379Y-138003663D01*
X389544485Y-137877571D01*
X389483205Y-137835791D01*
X389327704Y-137729772D01*
X389091323Y-137615937D01*
X388840615Y-137538604D01*
X388581182Y-137499500D01*
X388318818Y-137499500D01*
X388059385Y-137538604D01*
X387808677Y-137615937D01*
X387595512Y-137718592D01*
X387572296Y-137729772D01*
X387571469Y-137730336D01*
X387355514Y-137877571D01*
X387163198Y-138056015D01*
X386999613Y-138261143D01*
X386868431Y-138488358D01*
X386772580Y-138732581D01*
X386714197Y-138988372D01*
X386699673Y-139182191D01*
X386699500Y-139184506D01*
X386699500Y-140415494D01*
X385900500Y-140415494D01*
X385900500Y-139184506D01*
X385885802Y-138988370D01*
X385827420Y-138732584D01*
X385827387Y-138732501D01*
X385778691Y-138608425D01*
X385731568Y-138488357D01*
X385600386Y-138261143D01*
X385436805Y-138056019D01*
X385380379Y-138003663D01*
X385244485Y-137877571D01*
X385183205Y-137835791D01*
X385027704Y-137729772D01*
X384791323Y-137615937D01*
X384540615Y-137538604D01*
X384281182Y-137499500D01*
X384018818Y-137499500D01*
X383759385Y-137538604D01*
X383508677Y-137615937D01*
X383295512Y-137718592D01*
X383272296Y-137729772D01*
X383271469Y-137730336D01*
X383055514Y-137877571D01*
X382863198Y-138056015D01*
X382699613Y-138261143D01*
X382568431Y-138488358D01*
X382472580Y-138732581D01*
X382420891Y-138959046D01*
X382386782Y-139020024D01*
X382325120Y-139052882D01*
X382255483Y-139047187D01*
X382199980Y-139004747D01*
X382179109Y-138959046D01*
X382162624Y-138886822D01*
X382127420Y-138732584D01*
X382127387Y-138732501D01*
X382078691Y-138608425D01*
X382031568Y-138488357D01*
X381900386Y-138261143D01*
X381736805Y-138056019D01*
X381680379Y-138003663D01*
X381544485Y-137877571D01*
X381483205Y-137835791D01*
X381327704Y-137729772D01*
X381091323Y-137615937D01*
X380840615Y-137538604D01*
X380581182Y-137499500D01*
X380318818Y-137499500D01*
X380059385Y-137538604D01*
X379808677Y-137615937D01*
X379595512Y-137718592D01*
X379572296Y-137729772D01*
X379571469Y-137730336D01*
X379355514Y-137877571D01*
X379163198Y-138056015D01*
X378999613Y-138261143D01*
X378868431Y-138488358D01*
X378772580Y-138732581D01*
X378714197Y-138988372D01*
X378699673Y-139182191D01*
X378699500Y-139184506D01*
X378699500Y-140415494D01*
X376900500Y-140415494D01*
X376900500Y-139184506D01*
X376885802Y-138988370D01*
X376827420Y-138732584D01*
X376827387Y-138732501D01*
X376778691Y-138608425D01*
X376731568Y-138488357D01*
X376600386Y-138261143D01*
X376436805Y-138056019D01*
X376380379Y-138003663D01*
X376244485Y-137877571D01*
X376183205Y-137835791D01*
X376027704Y-137729772D01*
X375791323Y-137615937D01*
X375540615Y-137538604D01*
X375281182Y-137499500D01*
X375018818Y-137499500D01*
X374759385Y-137538604D01*
X374508677Y-137615937D01*
X374295512Y-137718592D01*
X374272296Y-137729772D01*
X374271469Y-137730336D01*
X374055514Y-137877571D01*
X373863198Y-138056015D01*
X373699613Y-138261143D01*
X373568431Y-138488358D01*
X373472580Y-138732581D01*
X373420891Y-138959046D01*
X373386782Y-139020024D01*
X373325120Y-139052882D01*
X373255483Y-139047187D01*
X373199980Y-139004747D01*
X373179109Y-138959046D01*
X373162624Y-138886822D01*
X373127420Y-138732584D01*
X373127387Y-138732501D01*
X373078691Y-138608425D01*
X373031568Y-138488357D01*
X372900386Y-138261143D01*
X372736805Y-138056019D01*
X372680379Y-138003663D01*
X372544485Y-137877571D01*
X372483205Y-137835791D01*
X372327704Y-137729772D01*
X372091323Y-137615937D01*
X371840615Y-137538604D01*
X371581182Y-137499500D01*
X371318818Y-137499500D01*
X371059385Y-137538604D01*
X370808677Y-137615937D01*
X370595512Y-137718592D01*
X370572296Y-137729772D01*
X370571469Y-137730336D01*
X370355514Y-137877571D01*
X370163198Y-138056015D01*
X369999613Y-138261143D01*
X369868431Y-138488358D01*
X369772580Y-138732581D01*
X369714197Y-138988372D01*
X369699673Y-139182191D01*
X369699500Y-139184506D01*
X369699500Y-140415494D01*
X368900500Y-140415494D01*
X368900500Y-139184506D01*
X368885802Y-138988370D01*
X368827420Y-138732584D01*
X368827387Y-138732501D01*
X368778691Y-138608425D01*
X368731568Y-138488357D01*
X368600386Y-138261143D01*
X368436805Y-138056019D01*
X368380379Y-138003663D01*
X368244485Y-137877571D01*
X368183205Y-137835791D01*
X368027704Y-137729772D01*
X367791323Y-137615937D01*
X367540615Y-137538604D01*
X367281182Y-137499500D01*
X367018818Y-137499500D01*
X366759385Y-137538604D01*
X366508677Y-137615937D01*
X366295512Y-137718592D01*
X366272296Y-137729772D01*
X366271469Y-137730336D01*
X366055514Y-137877571D01*
X365863198Y-138056015D01*
X365699613Y-138261143D01*
X365568431Y-138488358D01*
X365472580Y-138732581D01*
X365420891Y-138959046D01*
X365386782Y-139020024D01*
X365325120Y-139052882D01*
X365255483Y-139047187D01*
X365199980Y-139004747D01*
X365179109Y-138959046D01*
X365162624Y-138886822D01*
X365127420Y-138732584D01*
X365127387Y-138732501D01*
X365078691Y-138608425D01*
X365031568Y-138488357D01*
X364900386Y-138261143D01*
X364736805Y-138056019D01*
X364680379Y-138003663D01*
X364544485Y-137877571D01*
X364483205Y-137835791D01*
X364327704Y-137729772D01*
X364091323Y-137615937D01*
X363840615Y-137538604D01*
X363581182Y-137499500D01*
X363318818Y-137499500D01*
X363059385Y-137538604D01*
X362808677Y-137615937D01*
X362595512Y-137718592D01*
X362572296Y-137729772D01*
X362571469Y-137730336D01*
X362355514Y-137877571D01*
X362163198Y-138056015D01*
X361999613Y-138261143D01*
X361868431Y-138488358D01*
X361772580Y-138732581D01*
X361714197Y-138988372D01*
X361699673Y-139182191D01*
X361699500Y-139184506D01*
X361699500Y-140415494D01*
X355617400Y-140415494D01*
X355624609Y-140383908D01*
X355654206Y-140077098D01*
X355644327Y-139769022D01*
X355595133Y-139464739D01*
X355507431Y-139169244D01*
X355382663Y-138887391D01*
X355361743Y-138852882D01*
X355224938Y-138627207D01*
X355222877Y-138623807D01*
X355030696Y-138382819D01*
X354985299Y-138338855D01*
X354812127Y-138171147D01*
X354812126Y-138171146D01*
X354809276Y-138168386D01*
X354806094Y-138166011D01*
X354565444Y-137986409D01*
X354565438Y-137986405D01*
X354562253Y-137984028D01*
X354558790Y-137982078D01*
X354558786Y-137982075D01*
X354297142Y-137834720D01*
X354297134Y-137834716D01*
X354293682Y-137832772D01*
X354290004Y-137831283D01*
X354289998Y-137831280D01*
X354011660Y-137718592D01*
X354011647Y-137718587D01*
X354007975Y-137717101D01*
X354004135Y-137716094D01*
X354004129Y-137716092D01*
X353713664Y-137639923D01*
X353713652Y-137639920D01*
X353709821Y-137638916D01*
X353705884Y-137638408D01*
X353705877Y-137638407D01*
X353408055Y-137600007D01*
X353408043Y-137600006D01*
X353404117Y-137599500D01*
X353173026Y-137599500D01*
X353171053Y-137599626D01*
X353171042Y-137599627D01*
X352946376Y-137614051D01*
X352946365Y-137614052D01*
X352942399Y-137614307D01*
X352938488Y-137615068D01*
X352938485Y-137615069D01*
X352643758Y-137672466D01*
X352643747Y-137672468D01*
X352639849Y-137673228D01*
X352636079Y-137674479D01*
X352636074Y-137674481D01*
X352351093Y-137769102D01*
X352351089Y-137769103D01*
X352347317Y-137770356D01*
X352343737Y-137772079D01*
X352343727Y-137772084D01*
X352073200Y-137902362D01*
X352073191Y-137902366D01*
X352069607Y-137904093D01*
X352066278Y-137906259D01*
X352066269Y-137906265D01*
X351814606Y-138070080D01*
X351814595Y-138070087D01*
X351811280Y-138072246D01*
X351808259Y-138074817D01*
X351808252Y-138074823D01*
X351579609Y-138269469D01*
X351579600Y-138269477D01*
X351576576Y-138272052D01*
X351573910Y-138274986D01*
X351573896Y-138275001D01*
X351372030Y-138497279D01*
X351372023Y-138497287D01*
X351369350Y-138500231D01*
X351367074Y-138503493D01*
X351367069Y-138503500D01*
X351195280Y-138749773D01*
X351195274Y-138749781D01*
X351193004Y-138753037D01*
X351191171Y-138756550D01*
X351191164Y-138756562D01*
X351052272Y-139022791D01*
X351052269Y-139022797D01*
X351050433Y-139026317D01*
X351049064Y-139030035D01*
X351049059Y-139030048D01*
X350958811Y-139275283D01*
X350943980Y-139315585D01*
X350943098Y-139319449D01*
X350943096Y-139319456D01*
X350880132Y-139595320D01*
X350875391Y-139616092D01*
X350875009Y-139620044D01*
X350875008Y-139620055D01*
X350846870Y-139911744D01*
X350845794Y-139922902D01*
X344850500Y-139922902D01*
X344850500Y-138984506D01*
X344835802Y-138788370D01*
X344777420Y-138532584D01*
X344777418Y-138532580D01*
X344731605Y-138415849D01*
X344681568Y-138288357D01*
X344550386Y-138061143D01*
X344386805Y-137856019D01*
X344386801Y-137856015D01*
X344194485Y-137677571D01*
X344153817Y-137649844D01*
X343977704Y-137529772D01*
X343741323Y-137415937D01*
X343490615Y-137338604D01*
X343231182Y-137299500D01*
X342968818Y-137299500D01*
X342709385Y-137338604D01*
X342458677Y-137415937D01*
X342285157Y-137499500D01*
X342222296Y-137529772D01*
X342163652Y-137569755D01*
X342005514Y-137677571D01*
X341813198Y-137856015D01*
X341649613Y-138061143D01*
X341518431Y-138288358D01*
X341422580Y-138532581D01*
X341370891Y-138759046D01*
X341336782Y-138820024D01*
X341275120Y-138852882D01*
X341205483Y-138847187D01*
X341149980Y-138804747D01*
X341129109Y-138759046D01*
X341108279Y-138667784D01*
X341077420Y-138532584D01*
X341077418Y-138532580D01*
X341031605Y-138415849D01*
X340981568Y-138288357D01*
X340850386Y-138061143D01*
X340686805Y-137856019D01*
X340686801Y-137856015D01*
X340494485Y-137677571D01*
X340453817Y-137649844D01*
X340277704Y-137529772D01*
X340041323Y-137415937D01*
X339790615Y-137338604D01*
X339531182Y-137299500D01*
X339268818Y-137299500D01*
X339009385Y-137338604D01*
X338758677Y-137415937D01*
X338585157Y-137499500D01*
X338522296Y-137529772D01*
X338463652Y-137569755D01*
X338305514Y-137677571D01*
X338113198Y-137856015D01*
X337949613Y-138061143D01*
X337818431Y-138288358D01*
X337722580Y-138532581D01*
X337664197Y-138788372D01*
X337649673Y-138982191D01*
X337649500Y-138984506D01*
X337649500Y-140215494D01*
X336850500Y-140215494D01*
X336850500Y-138984506D01*
X336835802Y-138788370D01*
X336777420Y-138532584D01*
X336777418Y-138532580D01*
X336731605Y-138415849D01*
X336681568Y-138288357D01*
X336550386Y-138061143D01*
X336386805Y-137856019D01*
X336386801Y-137856015D01*
X336194485Y-137677571D01*
X336153817Y-137649844D01*
X335977704Y-137529772D01*
X335741323Y-137415937D01*
X335490615Y-137338604D01*
X335231182Y-137299500D01*
X334968818Y-137299500D01*
X334709385Y-137338604D01*
X334458677Y-137415937D01*
X334285157Y-137499500D01*
X334222296Y-137529772D01*
X334163652Y-137569755D01*
X334005514Y-137677571D01*
X333813198Y-137856015D01*
X333649613Y-138061143D01*
X333518431Y-138288358D01*
X333422580Y-138532581D01*
X333370891Y-138759046D01*
X333336782Y-138820024D01*
X333275120Y-138852882D01*
X333205483Y-138847187D01*
X333149980Y-138804747D01*
X333129109Y-138759046D01*
X333108279Y-138667784D01*
X333077420Y-138532584D01*
X333077418Y-138532580D01*
X333031605Y-138415849D01*
X332981568Y-138288357D01*
X332850386Y-138061143D01*
X332686805Y-137856019D01*
X332686801Y-137856015D01*
X332494485Y-137677571D01*
X332453817Y-137649844D01*
X332277704Y-137529772D01*
X332041323Y-137415937D01*
X331790615Y-137338604D01*
X331531182Y-137299500D01*
X331268818Y-137299500D01*
X331009385Y-137338604D01*
X330758677Y-137415937D01*
X330585157Y-137499500D01*
X330522296Y-137529772D01*
X330463652Y-137569755D01*
X330305514Y-137677571D01*
X330113198Y-137856015D01*
X329949613Y-138061143D01*
X329818431Y-138288358D01*
X329722580Y-138532581D01*
X329664197Y-138788372D01*
X329649673Y-138982191D01*
X329649500Y-138984506D01*
X329649500Y-140215494D01*
X327850500Y-140215494D01*
X327850500Y-138984506D01*
X327835802Y-138788370D01*
X327777420Y-138532584D01*
X327777418Y-138532580D01*
X327731605Y-138415849D01*
X327681568Y-138288357D01*
X327550386Y-138061143D01*
X327386805Y-137856019D01*
X327386801Y-137856015D01*
X327194485Y-137677571D01*
X327153817Y-137649844D01*
X326977704Y-137529772D01*
X326741323Y-137415937D01*
X326490615Y-137338604D01*
X326231182Y-137299500D01*
X325968818Y-137299500D01*
X325709385Y-137338604D01*
X325458677Y-137415937D01*
X325285157Y-137499500D01*
X325222296Y-137529772D01*
X325163652Y-137569755D01*
X325005514Y-137677571D01*
X324813198Y-137856015D01*
X324649613Y-138061143D01*
X324518431Y-138288358D01*
X324422580Y-138532581D01*
X324370891Y-138759046D01*
X324336782Y-138820024D01*
X324275120Y-138852882D01*
X324205483Y-138847187D01*
X324149980Y-138804747D01*
X324129109Y-138759046D01*
X324108279Y-138667784D01*
X324077420Y-138532584D01*
X324077418Y-138532580D01*
X324031605Y-138415849D01*
X323981568Y-138288357D01*
X323850386Y-138061143D01*
X323686805Y-137856019D01*
X323686801Y-137856015D01*
X323494485Y-137677571D01*
X323453817Y-137649844D01*
X323277704Y-137529772D01*
X323041323Y-137415937D01*
X322790615Y-137338604D01*
X322531182Y-137299500D01*
X322268818Y-137299500D01*
X322009385Y-137338604D01*
X321758677Y-137415937D01*
X321585157Y-137499500D01*
X321522296Y-137529772D01*
X321463652Y-137569755D01*
X321305514Y-137677571D01*
X321113198Y-137856015D01*
X320949613Y-138061143D01*
X320818431Y-138288358D01*
X320722580Y-138532581D01*
X320664197Y-138788372D01*
X320649673Y-138982191D01*
X320649500Y-138984506D01*
X320649500Y-140215494D01*
X319850500Y-140215494D01*
X319850500Y-138984506D01*
X319835802Y-138788370D01*
X319777420Y-138532584D01*
X319777418Y-138532580D01*
X319731605Y-138415849D01*
X319681568Y-138288357D01*
X319550386Y-138061143D01*
X319386805Y-137856019D01*
X319386801Y-137856015D01*
X319194485Y-137677571D01*
X319153817Y-137649844D01*
X318977704Y-137529772D01*
X318741323Y-137415937D01*
X318490615Y-137338604D01*
X318231182Y-137299500D01*
X317968818Y-137299500D01*
X317709385Y-137338604D01*
X317458677Y-137415937D01*
X317285157Y-137499500D01*
X317222296Y-137529772D01*
X317163652Y-137569755D01*
X317005514Y-137677571D01*
X316813198Y-137856015D01*
X316649613Y-138061143D01*
X316518431Y-138288358D01*
X316422581Y-138532580D01*
X316370890Y-138759047D01*
X316336781Y-138820025D01*
X316275119Y-138852882D01*
X316205482Y-138847186D01*
X316149979Y-138804746D01*
X316129109Y-138759050D01*
X316077420Y-138532584D01*
X316077418Y-138532580D01*
X316031605Y-138415849D01*
X315981568Y-138288357D01*
X315850386Y-138061143D01*
X315686805Y-137856019D01*
X315686801Y-137856015D01*
X315494485Y-137677571D01*
X315453817Y-137649844D01*
X315277704Y-137529772D01*
X315041323Y-137415937D01*
X314790615Y-137338604D01*
X314531182Y-137299500D01*
X314268818Y-137299500D01*
X314009385Y-137338604D01*
X313758677Y-137415937D01*
X313585157Y-137499500D01*
X313522296Y-137529772D01*
X313463652Y-137569755D01*
X313305514Y-137677571D01*
X313113198Y-137856015D01*
X312949613Y-138061143D01*
X312818431Y-138288358D01*
X312722580Y-138532581D01*
X312664197Y-138788372D01*
X312649673Y-138982191D01*
X312649500Y-138984506D01*
X312649500Y-140215494D01*
X302413321Y-140215494D01*
X302425460Y-140100000D01*
X302405674Y-139911744D01*
X302351363Y-139744592D01*
X302347179Y-139731715D01*
X302252533Y-139567783D01*
X302125870Y-139427110D01*
X301972730Y-139315848D01*
X301799802Y-139238855D01*
X301614648Y-139199500D01*
X301614646Y-139199500D01*
X301537529Y-139199500D01*
X301470490Y-139179815D01*
X301424735Y-139127011D01*
X301419598Y-139113819D01*
X301376829Y-138982191D01*
X301357179Y-138921716D01*
X301353791Y-138915848D01*
X301262533Y-138757783D01*
X301135870Y-138617110D01*
X300982730Y-138505848D01*
X300809802Y-138428855D01*
X300624648Y-138389500D01*
X300624646Y-138389500D01*
X300435354Y-138389500D01*
X300435352Y-138389500D01*
X300250197Y-138428855D01*
X300077269Y-138505848D01*
X299924129Y-138617110D01*
X299797466Y-138757783D01*
X299702820Y-138921715D01*
X299644326Y-139101742D01*
X299632333Y-139215848D01*
X299624540Y-139290000D01*
X282200500Y-139290000D01*
X282200500Y-138884506D01*
X282185802Y-138688370D01*
X282127420Y-138432584D01*
X282125956Y-138428855D01*
X282079859Y-138311401D01*
X282031568Y-138188357D01*
X281900386Y-137961143D01*
X281736805Y-137756019D01*
X281730150Y-137749844D01*
X281544485Y-137577571D01*
X281477228Y-137531716D01*
X281327704Y-137429772D01*
X281091323Y-137315937D01*
X280840615Y-137238604D01*
X280581182Y-137199500D01*
X280318818Y-137199500D01*
X280059385Y-137238604D01*
X279808677Y-137315937D01*
X279701016Y-137367784D01*
X279572296Y-137429772D01*
X279516063Y-137468111D01*
X279355514Y-137577571D01*
X279163198Y-137756015D01*
X278999613Y-137961143D01*
X278868431Y-138188358D01*
X278772580Y-138432581D01*
X278720891Y-138659046D01*
X278686782Y-138720024D01*
X278625120Y-138752882D01*
X278555483Y-138747187D01*
X278499980Y-138704747D01*
X278479109Y-138659046D01*
X278463768Y-138591835D01*
X278427420Y-138432584D01*
X278425956Y-138428855D01*
X278379859Y-138311401D01*
X278331568Y-138188357D01*
X278200386Y-137961143D01*
X278036805Y-137756019D01*
X278030150Y-137749844D01*
X277844485Y-137577571D01*
X277777228Y-137531716D01*
X277627704Y-137429772D01*
X277391323Y-137315937D01*
X277140615Y-137238604D01*
X276881182Y-137199500D01*
X276618818Y-137199500D01*
X276359385Y-137238604D01*
X276108677Y-137315937D01*
X276001016Y-137367784D01*
X275872296Y-137429772D01*
X275816063Y-137468111D01*
X275655514Y-137577571D01*
X275463198Y-137756015D01*
X275299613Y-137961143D01*
X275168431Y-138188358D01*
X275072580Y-138432581D01*
X275014197Y-138688372D01*
X274999962Y-138878339D01*
X274999500Y-138884506D01*
X274999500Y-140115494D01*
X274200500Y-140115494D01*
X274200500Y-138884506D01*
X274185802Y-138688370D01*
X274127420Y-138432584D01*
X274125956Y-138428855D01*
X274079859Y-138311401D01*
X274031568Y-138188357D01*
X273900386Y-137961143D01*
X273736805Y-137756019D01*
X273730150Y-137749844D01*
X273544485Y-137577571D01*
X273477228Y-137531716D01*
X273327704Y-137429772D01*
X273091323Y-137315937D01*
X272840615Y-137238604D01*
X272581182Y-137199500D01*
X272318818Y-137199500D01*
X272059385Y-137238604D01*
X271808677Y-137315937D01*
X271701016Y-137367784D01*
X271572296Y-137429772D01*
X271516063Y-137468111D01*
X271355514Y-137577571D01*
X271163198Y-137756015D01*
X270999613Y-137961143D01*
X270868431Y-138188358D01*
X270772580Y-138432581D01*
X270720891Y-138659046D01*
X270686782Y-138720024D01*
X270625120Y-138752882D01*
X270555483Y-138747187D01*
X270499980Y-138704747D01*
X270479109Y-138659046D01*
X270463768Y-138591835D01*
X270427420Y-138432584D01*
X270425956Y-138428855D01*
X270379859Y-138311401D01*
X270331568Y-138188357D01*
X270200386Y-137961143D01*
X270036805Y-137756019D01*
X270030150Y-137749844D01*
X269844485Y-137577571D01*
X269777228Y-137531716D01*
X269627704Y-137429772D01*
X269391323Y-137315937D01*
X269140615Y-137238604D01*
X268881182Y-137199500D01*
X268618818Y-137199500D01*
X268359385Y-137238604D01*
X268108677Y-137315937D01*
X268001016Y-137367784D01*
X267872296Y-137429772D01*
X267816063Y-137468111D01*
X267655514Y-137577571D01*
X267463198Y-137756015D01*
X267299613Y-137961143D01*
X267168431Y-138188358D01*
X267072580Y-138432581D01*
X267014197Y-138688372D01*
X266999962Y-138878339D01*
X266999500Y-138884506D01*
X266999500Y-140115494D01*
X250900502Y-140115494D01*
X250904206Y-140077098D01*
X250894327Y-139769022D01*
X250845133Y-139464739D01*
X250757431Y-139169244D01*
X250632663Y-138887391D01*
X250611743Y-138852882D01*
X250474938Y-138627207D01*
X250472877Y-138623807D01*
X250280696Y-138382819D01*
X250235299Y-138338855D01*
X250062127Y-138171147D01*
X250062126Y-138171146D01*
X250059276Y-138168386D01*
X250056094Y-138166011D01*
X249815444Y-137986409D01*
X249815438Y-137986405D01*
X249812253Y-137984028D01*
X249808790Y-137982078D01*
X249808786Y-137982075D01*
X249547142Y-137834720D01*
X249547134Y-137834716D01*
X249543682Y-137832772D01*
X249540004Y-137831283D01*
X249539998Y-137831280D01*
X249261660Y-137718592D01*
X249261647Y-137718587D01*
X249257975Y-137717101D01*
X249254135Y-137716094D01*
X249254129Y-137716092D01*
X248963664Y-137639923D01*
X248963652Y-137639920D01*
X248959821Y-137638916D01*
X248955884Y-137638408D01*
X248955877Y-137638407D01*
X248658055Y-137600007D01*
X248658043Y-137600006D01*
X248654117Y-137599500D01*
X248423026Y-137599500D01*
X248421053Y-137599626D01*
X248421042Y-137599627D01*
X248196376Y-137614051D01*
X248196365Y-137614052D01*
X248192399Y-137614307D01*
X248188488Y-137615068D01*
X248188485Y-137615069D01*
X247893758Y-137672466D01*
X247893747Y-137672468D01*
X247889849Y-137673228D01*
X247886079Y-137674479D01*
X247886074Y-137674481D01*
X247601093Y-137769102D01*
X247601089Y-137769103D01*
X247597317Y-137770356D01*
X247593737Y-137772079D01*
X247593727Y-137772084D01*
X247323200Y-137902362D01*
X247323191Y-137902366D01*
X247319607Y-137904093D01*
X247316278Y-137906259D01*
X247316269Y-137906265D01*
X247064606Y-138070080D01*
X247064595Y-138070087D01*
X247061280Y-138072246D01*
X247058259Y-138074817D01*
X247058252Y-138074823D01*
X246829609Y-138269469D01*
X246829600Y-138269477D01*
X246826576Y-138272052D01*
X246823910Y-138274986D01*
X246823896Y-138275001D01*
X246622030Y-138497279D01*
X246622023Y-138497287D01*
X246619350Y-138500231D01*
X246617074Y-138503493D01*
X246617069Y-138503500D01*
X246445280Y-138749773D01*
X246445274Y-138749781D01*
X246443004Y-138753037D01*
X246441171Y-138756550D01*
X246441164Y-138756562D01*
X246302272Y-139022791D01*
X246302269Y-139022797D01*
X246300433Y-139026317D01*
X246299064Y-139030035D01*
X246299059Y-139030048D01*
X246208811Y-139275283D01*
X246193980Y-139315585D01*
X246193098Y-139319449D01*
X246193096Y-139319456D01*
X246130132Y-139595320D01*
X246125391Y-139616092D01*
X246125009Y-139620044D01*
X246125008Y-139620055D01*
X246096870Y-139911744D01*
X246095794Y-139922902D01*
X230000500Y-139922902D01*
X230000500Y-138884506D01*
X229985802Y-138688370D01*
X229927420Y-138432584D01*
X229925956Y-138428855D01*
X229879859Y-138311401D01*
X229831568Y-138188357D01*
X229700386Y-137961143D01*
X229536805Y-137756019D01*
X229530150Y-137749844D01*
X229344485Y-137577571D01*
X229277228Y-137531716D01*
X229127704Y-137429772D01*
X228891323Y-137315937D01*
X228640615Y-137238604D01*
X228381182Y-137199500D01*
X228118818Y-137199500D01*
X227859385Y-137238604D01*
X227608677Y-137315937D01*
X227501016Y-137367784D01*
X227372296Y-137429772D01*
X227316063Y-137468111D01*
X227155514Y-137577571D01*
X226963198Y-137756015D01*
X226799613Y-137961143D01*
X226668431Y-138188358D01*
X226572580Y-138432581D01*
X226520891Y-138659046D01*
X226486782Y-138720024D01*
X226425120Y-138752882D01*
X226355483Y-138747187D01*
X226299980Y-138704747D01*
X226279109Y-138659046D01*
X226263768Y-138591835D01*
X226227420Y-138432584D01*
X226225956Y-138428855D01*
X226179859Y-138311401D01*
X226131568Y-138188357D01*
X226000386Y-137961143D01*
X225836805Y-137756019D01*
X225830150Y-137749844D01*
X225644485Y-137577571D01*
X225577228Y-137531716D01*
X225427704Y-137429772D01*
X225191323Y-137315937D01*
X224940615Y-137238604D01*
X224681182Y-137199500D01*
X224418818Y-137199500D01*
X224159385Y-137238604D01*
X223908677Y-137315937D01*
X223801016Y-137367784D01*
X223672296Y-137429772D01*
X223616063Y-137468111D01*
X223455514Y-137577571D01*
X223263198Y-137756015D01*
X223099613Y-137961143D01*
X222968431Y-138188358D01*
X222872580Y-138432581D01*
X222814197Y-138688372D01*
X222799962Y-138878339D01*
X222799500Y-138884506D01*
X222799500Y-140115494D01*
X222000500Y-140115494D01*
X222000500Y-138884506D01*
X221985802Y-138688370D01*
X221927420Y-138432584D01*
X221925956Y-138428855D01*
X221879859Y-138311401D01*
X221831568Y-138188357D01*
X221700386Y-137961143D01*
X221536805Y-137756019D01*
X221530150Y-137749844D01*
X221344485Y-137577571D01*
X221277228Y-137531716D01*
X221127704Y-137429772D01*
X220891323Y-137315937D01*
X220640615Y-137238604D01*
X220381182Y-137199500D01*
X220118818Y-137199500D01*
X219859385Y-137238604D01*
X219608677Y-137315937D01*
X219501016Y-137367784D01*
X219372296Y-137429772D01*
X219316063Y-137468111D01*
X219155514Y-137577571D01*
X218963198Y-137756015D01*
X218799613Y-137961143D01*
X218668431Y-138188358D01*
X218572580Y-138432581D01*
X218520891Y-138659046D01*
X218486782Y-138720024D01*
X218425120Y-138752882D01*
X218355483Y-138747187D01*
X218299980Y-138704747D01*
X218279109Y-138659046D01*
X218263768Y-138591835D01*
X218227420Y-138432584D01*
X218225956Y-138428855D01*
X218179859Y-138311401D01*
X218131568Y-138188357D01*
X218000386Y-137961143D01*
X217836805Y-137756019D01*
X217830150Y-137749844D01*
X217644485Y-137577571D01*
X217577228Y-137531716D01*
X217427704Y-137429772D01*
X217191323Y-137315937D01*
X216940615Y-137238604D01*
X216681182Y-137199500D01*
X216418818Y-137199500D01*
X216159385Y-137238604D01*
X215908677Y-137315937D01*
X215801016Y-137367784D01*
X215672296Y-137429772D01*
X215616063Y-137468111D01*
X215455514Y-137577571D01*
X215263198Y-137756015D01*
X215099613Y-137961143D01*
X214968431Y-138188358D01*
X214872580Y-138432581D01*
X214814197Y-138688372D01*
X214799962Y-138878339D01*
X214799500Y-138884506D01*
X214799500Y-140115494D01*
X197433321Y-140115494D01*
X197445460Y-140000000D01*
X197425674Y-139811744D01*
X197386767Y-139692000D01*
X197367179Y-139631715D01*
X197272533Y-139467783D01*
X197145870Y-139327110D01*
X196992730Y-139215848D01*
X196819802Y-139138855D01*
X196634648Y-139099500D01*
X196634646Y-139099500D01*
X196504279Y-139099500D01*
X196437240Y-139079815D01*
X196391485Y-139027011D01*
X196386348Y-139013818D01*
X196327179Y-138831715D01*
X196232533Y-138667783D01*
X196105870Y-138527110D01*
X195952730Y-138415848D01*
X195779802Y-138338855D01*
X195594648Y-138299500D01*
X195594646Y-138299500D01*
X195405354Y-138299500D01*
X195405352Y-138299500D01*
X195220197Y-138338855D01*
X195047269Y-138415848D01*
X194894129Y-138527110D01*
X194767466Y-138667783D01*
X194672820Y-138831715D01*
X194614326Y-139011742D01*
X194594540Y-139200000D01*
X145766559Y-139200000D01*
X145757431Y-139169244D01*
X145632663Y-138887391D01*
X145611743Y-138852882D01*
X145474938Y-138627207D01*
X145472877Y-138623807D01*
X145280696Y-138382819D01*
X145235299Y-138338855D01*
X145062127Y-138171147D01*
X145062126Y-138171146D01*
X145059276Y-138168386D01*
X145056094Y-138166011D01*
X144815444Y-137986409D01*
X144815438Y-137986405D01*
X144812253Y-137984028D01*
X144808790Y-137982078D01*
X144808786Y-137982075D01*
X144547142Y-137834720D01*
X144547134Y-137834716D01*
X144543682Y-137832772D01*
X144540004Y-137831283D01*
X144539998Y-137831280D01*
X144261660Y-137718592D01*
X144261647Y-137718587D01*
X144257975Y-137717101D01*
X144254135Y-137716094D01*
X144254129Y-137716092D01*
X143963664Y-137639923D01*
X143963652Y-137639920D01*
X143959821Y-137638916D01*
X143955884Y-137638408D01*
X143955877Y-137638407D01*
X143658055Y-137600007D01*
X143658043Y-137600006D01*
X143654117Y-137599500D01*
X143423026Y-137599500D01*
X143421053Y-137599626D01*
X143421042Y-137599627D01*
X143196376Y-137614051D01*
X143196365Y-137614052D01*
X143192399Y-137614307D01*
X143188488Y-137615068D01*
X143188485Y-137615069D01*
X142893758Y-137672466D01*
X142893747Y-137672468D01*
X142889849Y-137673228D01*
X142886079Y-137674479D01*
X142886074Y-137674481D01*
X142601093Y-137769102D01*
X142601089Y-137769103D01*
X142597317Y-137770356D01*
X142593737Y-137772079D01*
X142593727Y-137772084D01*
X142323200Y-137902362D01*
X142323191Y-137902366D01*
X142319607Y-137904093D01*
X142316278Y-137906259D01*
X142316269Y-137906265D01*
X142064606Y-138070080D01*
X142064595Y-138070087D01*
X142061280Y-138072246D01*
X142058259Y-138074817D01*
X142058252Y-138074823D01*
X141829609Y-138269469D01*
X141829600Y-138269477D01*
X141826576Y-138272052D01*
X141823910Y-138274986D01*
X141823896Y-138275001D01*
X141622030Y-138497279D01*
X141622023Y-138497287D01*
X141619350Y-138500231D01*
X141617074Y-138503493D01*
X141617069Y-138503500D01*
X141445280Y-138749773D01*
X141445274Y-138749781D01*
X141443004Y-138753037D01*
X141441171Y-138756550D01*
X141441164Y-138756562D01*
X141302272Y-139022791D01*
X141302269Y-139022797D01*
X141300433Y-139026317D01*
X141299064Y-139030035D01*
X141299059Y-139030048D01*
X141208811Y-139275283D01*
X141193980Y-139315585D01*
X141193098Y-139319449D01*
X141193096Y-139319456D01*
X141130132Y-139595320D01*
X141125391Y-139616092D01*
X141125009Y-139620044D01*
X141125008Y-139620055D01*
X141096870Y-139911744D01*
X141095794Y-139922902D01*
X92159834Y-139922902D01*
X92156870Y-139919610D01*
X92003730Y-139808348D01*
X91830802Y-139731355D01*
X91645648Y-139692000D01*
X91645646Y-139692000D01*
X91471905Y-139692000D01*
X91404866Y-139672315D01*
X91359111Y-139619511D01*
X91353974Y-139606318D01*
X91299679Y-139439215D01*
X91205033Y-139275283D01*
X91078370Y-139134610D01*
X90925230Y-139023348D01*
X90752302Y-138946355D01*
X90567148Y-138907000D01*
X90567146Y-138907000D01*
X90377854Y-138907000D01*
X90377852Y-138907000D01*
X90192697Y-138946355D01*
X90019769Y-139023348D01*
X89866629Y-139134610D01*
X89739966Y-139275283D01*
X89645320Y-139439215D01*
X89586826Y-139619242D01*
X89567040Y-139807500D01*
X59395561Y-139807500D01*
X59394327Y-139769022D01*
X59345133Y-139464739D01*
X59257431Y-139169244D01*
X59132663Y-138887391D01*
X59111743Y-138852882D01*
X58974938Y-138627207D01*
X58972877Y-138623807D01*
X58780696Y-138382819D01*
X58735299Y-138338855D01*
X58718421Y-138322510D01*
X67919500Y-138322510D01*
X67919818Y-138325623D01*
X67919819Y-138325642D01*
X67930000Y-138425298D01*
X67985186Y-138591835D01*
X68077288Y-138741157D01*
X68201342Y-138865211D01*
X68236379Y-138886822D01*
X68350665Y-138957314D01*
X68425739Y-138982191D01*
X68517201Y-139012499D01*
X68616857Y-139022680D01*
X68616858Y-139022680D01*
X68619990Y-139023000D01*
X68623139Y-139023000D01*
X70296861Y-139023000D01*
X70300010Y-139023000D01*
X70402798Y-139012499D01*
X70569335Y-138957314D01*
X70718656Y-138865212D01*
X70842712Y-138741156D01*
X70934814Y-138591835D01*
X70989999Y-138425298D01*
X71000500Y-138322510D01*
X71000500Y-137542075D01*
X73000000Y-137542075D01*
X73000199Y-137547036D01*
X73014997Y-137730336D01*
X73074503Y-137971758D01*
X73171961Y-138200501D01*
X73304853Y-138410652D01*
X73469733Y-138596764D01*
X73662333Y-138754018D01*
X73877665Y-138878339D01*
X74110151Y-138966510D01*
X74290000Y-139003225D01*
X74290000Y-137376337D01*
X74371249Y-137407151D01*
X74497660Y-137422500D01*
X74582340Y-137422500D01*
X74708751Y-137407151D01*
X74790000Y-137376337D01*
X74790000Y-139003454D01*
X74849044Y-138996285D01*
X75087868Y-138927108D01*
X75312500Y-138820520D01*
X75517135Y-138679269D01*
X75696456Y-138507030D01*
X75845825Y-138308257D01*
X75961377Y-138088091D01*
X76040115Y-137852240D01*
X76080000Y-137606823D01*
X76080000Y-136972500D01*
X75199329Y-136972500D01*
X75240000Y-136807495D01*
X75240000Y-136637505D01*
X75199329Y-136472500D01*
X76080000Y-136472500D01*
X76080000Y-135902924D01*
X76079800Y-135897963D01*
X76065002Y-135714663D01*
X76005496Y-135473241D01*
X75908038Y-135244498D01*
X75775146Y-135034347D01*
X75610266Y-134848235D01*
X75417666Y-134690981D01*
X75202334Y-134566660D01*
X74969848Y-134478489D01*
X74790000Y-134441773D01*
X74790000Y-136068662D01*
X74708751Y-136037849D01*
X74582340Y-136022500D01*
X74497660Y-136022500D01*
X74371249Y-136037849D01*
X74290000Y-136068662D01*
X74290000Y-134441544D01*
X74230954Y-134448714D01*
X73992131Y-134517891D01*
X73767499Y-134624479D01*
X73562864Y-134765730D01*
X73383543Y-134937969D01*
X73234174Y-135136742D01*
X73118622Y-135356908D01*
X73039884Y-135592759D01*
X73000000Y-135838176D01*
X73000000Y-136472500D01*
X73880671Y-136472500D01*
X73840000Y-136637505D01*
X73840000Y-136807495D01*
X73880671Y-136972500D01*
X73000000Y-136972500D01*
X73000000Y-137542075D01*
X71000500Y-137542075D01*
X71000500Y-135122490D01*
X70994159Y-135060425D01*
X70989999Y-135019701D01*
X70971712Y-134964515D01*
X70934814Y-134853165D01*
X70842712Y-134703844D01*
X70842711Y-134703842D01*
X70718657Y-134579788D01*
X70569335Y-134487686D01*
X70402798Y-134432500D01*
X70303142Y-134422319D01*
X70303123Y-134422318D01*
X70300010Y-134422000D01*
X68619990Y-134422000D01*
X68616877Y-134422317D01*
X68616857Y-134422319D01*
X68517201Y-134432500D01*
X68350664Y-134487686D01*
X68201342Y-134579788D01*
X68077288Y-134703842D01*
X67985186Y-134853164D01*
X67930000Y-135019701D01*
X67919819Y-135119357D01*
X67919817Y-135119377D01*
X67919500Y-135122490D01*
X67919500Y-138322510D01*
X58718421Y-138322510D01*
X58562127Y-138171147D01*
X58562126Y-138171146D01*
X58559276Y-138168386D01*
X58556094Y-138166011D01*
X58315444Y-137986409D01*
X58315438Y-137986405D01*
X58312253Y-137984028D01*
X58308790Y-137982078D01*
X58308786Y-137982075D01*
X58047142Y-137834720D01*
X58047134Y-137834716D01*
X58043682Y-137832772D01*
X58040004Y-137831283D01*
X58039998Y-137831280D01*
X57761660Y-137718592D01*
X57761647Y-137718587D01*
X57757975Y-137717101D01*
X57754135Y-137716094D01*
X57754129Y-137716092D01*
X57463664Y-137639923D01*
X57463652Y-137639920D01*
X57459821Y-137638916D01*
X57455884Y-137638408D01*
X57455877Y-137638407D01*
X57158055Y-137600007D01*
X57158043Y-137600006D01*
X57154117Y-137599500D01*
X56923026Y-137599500D01*
X56921053Y-137599626D01*
X56921042Y-137599627D01*
X56696376Y-137614051D01*
X56696365Y-137614052D01*
X56692399Y-137614307D01*
X56688488Y-137615068D01*
X56688485Y-137615069D01*
X56393758Y-137672466D01*
X56393747Y-137672468D01*
X56389849Y-137673228D01*
X56386079Y-137674479D01*
X56386074Y-137674481D01*
X56101093Y-137769102D01*
X56101089Y-137769103D01*
X56097317Y-137770356D01*
X56093737Y-137772079D01*
X56093727Y-137772084D01*
X55823200Y-137902362D01*
X55823191Y-137902366D01*
X55819607Y-137904093D01*
X55816278Y-137906259D01*
X55816269Y-137906265D01*
X55564606Y-138070080D01*
X55564595Y-138070087D01*
X55561280Y-138072246D01*
X55558259Y-138074817D01*
X55558252Y-138074823D01*
X55329609Y-138269469D01*
X55329600Y-138269477D01*
X55326576Y-138272052D01*
X55323910Y-138274986D01*
X55323896Y-138275001D01*
X55122030Y-138497279D01*
X55122023Y-138497287D01*
X55119350Y-138500231D01*
X55117074Y-138503493D01*
X55117069Y-138503500D01*
X54945280Y-138749773D01*
X54945274Y-138749781D01*
X54943004Y-138753037D01*
X54941171Y-138756550D01*
X54941164Y-138756562D01*
X54802272Y-139022791D01*
X54802269Y-139022797D01*
X54800433Y-139026317D01*
X54799064Y-139030035D01*
X54799059Y-139030048D01*
X54708811Y-139275283D01*
X54693980Y-139315585D01*
X54693098Y-139319449D01*
X54693096Y-139319456D01*
X54630132Y-139595320D01*
X54625391Y-139616092D01*
X54625009Y-139620044D01*
X54625008Y-139620055D01*
X54596870Y-139911744D01*
X54595794Y-139922902D01*
X33050663Y-139922902D01*
X33035063Y-139744592D01*
X33020971Y-139692000D01*
X32973903Y-139516337D01*
X32874035Y-139302171D01*
X32738495Y-139108599D01*
X32571401Y-138941505D01*
X32385839Y-138811573D01*
X32342216Y-138756998D01*
X32335022Y-138687500D01*
X32366545Y-138625145D01*
X32385837Y-138608428D01*
X32571401Y-138478495D01*
X32738495Y-138311401D01*
X32874035Y-138117830D01*
X32973903Y-137903663D01*
X33035063Y-137675408D01*
X33055659Y-137440000D01*
X33035063Y-137204592D01*
X32973903Y-136976337D01*
X32874035Y-136762171D01*
X32738495Y-136568599D01*
X32665246Y-136495350D01*
X43128202Y-136495350D01*
X43138319Y-136733529D01*
X43188546Y-136966581D01*
X43248205Y-137115048D01*
X43277436Y-137187790D01*
X43402431Y-137390795D01*
X43535575Y-137542075D01*
X43559937Y-137569756D01*
X43745414Y-137719519D01*
X43745417Y-137719520D01*
X43745420Y-137719523D01*
X43945473Y-137831280D01*
X43953548Y-137835791D01*
X44178331Y-137915212D01*
X44413297Y-137955500D01*
X44413300Y-137955500D01*
X46389366Y-137955500D01*
X46391997Y-137955500D01*
X46570041Y-137940346D01*
X46724993Y-137900000D01*
X46800750Y-137880275D01*
X46909367Y-137831176D01*
X47017986Y-137782077D01*
X47215503Y-137648579D01*
X47387618Y-137483621D01*
X47529379Y-137291947D01*
X47636707Y-137079074D01*
X47706516Y-136851123D01*
X47736798Y-136614654D01*
X47726680Y-136376468D01*
X47676454Y-136143419D01*
X47587564Y-135922210D01*
X47462569Y-135719205D01*
X47305064Y-135540245D01*
X47305062Y-135540243D01*
X47119585Y-135390480D01*
X47105300Y-135382500D01*
X46969433Y-135306599D01*
X46911451Y-135274208D01*
X46686668Y-135194787D01*
X46451703Y-135154500D01*
X46451700Y-135154500D01*
X44473003Y-135154500D01*
X44470387Y-135154722D01*
X44470378Y-135154723D01*
X44294960Y-135169653D01*
X44064249Y-135229724D01*
X43847014Y-135327922D01*
X43649497Y-135461420D01*
X43477381Y-135626379D01*
X43335621Y-135818052D01*
X43228293Y-136030925D01*
X43159716Y-136254855D01*
X43158484Y-136258877D01*
X43128202Y-136495346D01*
X43128202Y-136495349D01*
X43128202Y-136495350D01*
X32665246Y-136495350D01*
X32571401Y-136401505D01*
X32385839Y-136271573D01*
X32342216Y-136216998D01*
X32335022Y-136147500D01*
X32366545Y-136085145D01*
X32385837Y-136068428D01*
X32571401Y-135938495D01*
X32738495Y-135771401D01*
X32874035Y-135577830D01*
X32973903Y-135363663D01*
X33035063Y-135135408D01*
X33055659Y-134900000D01*
X33035063Y-134664592D01*
X32973903Y-134436337D01*
X32874035Y-134222171D01*
X32738495Y-134028599D01*
X32571401Y-133861505D01*
X32377830Y-133725965D01*
X32163663Y-133626097D01*
X32102501Y-133609709D01*
X31935407Y-133564936D01*
X31699999Y-133544340D01*
X31464592Y-133564936D01*
X31236336Y-133626097D01*
X31022170Y-133725965D01*
X30828598Y-133861505D01*
X30661505Y-134028598D01*
X30531575Y-134214159D01*
X30476998Y-134257784D01*
X30407500Y-134264978D01*
X30345145Y-134233455D01*
X30328425Y-134214159D01*
X30306257Y-134182500D01*
X30198495Y-134028599D01*
X30031401Y-133861505D01*
X29837830Y-133725965D01*
X29623663Y-133626097D01*
X29562501Y-133609709D01*
X29395407Y-133564936D01*
X29159999Y-133544340D01*
X28924592Y-133564936D01*
X28696336Y-133626097D01*
X28482170Y-133725965D01*
X28288598Y-133861505D01*
X28121505Y-134028598D01*
X27985965Y-134222170D01*
X27886097Y-134436336D01*
X27824936Y-134664592D01*
X27804340Y-134900000D01*
X27824936Y-135135407D01*
X27854167Y-135244498D01*
X27886097Y-135363663D01*
X27985965Y-135577830D01*
X28121505Y-135771401D01*
X28288599Y-135938495D01*
X28474596Y-136068732D01*
X28518219Y-136123307D01*
X28525412Y-136192806D01*
X28493890Y-136255160D01*
X28474595Y-136271880D01*
X28288919Y-136401892D01*
X28121890Y-136568921D01*
X27986400Y-136762421D01*
X27886569Y-136976507D01*
X27829364Y-137189999D01*
X27829364Y-137190000D01*
X28726314Y-137190000D01*
X28700507Y-137230156D01*
X28660000Y-137368111D01*
X28660000Y-137511889D01*
X28700507Y-137649844D01*
X28726314Y-137690000D01*
X27829364Y-137690000D01*
X27886569Y-137903492D01*
X27986399Y-138117576D01*
X28121893Y-138311081D01*
X28288918Y-138478106D01*
X28475031Y-138608425D01*
X28518656Y-138663002D01*
X28525848Y-138732501D01*
X28494326Y-138794855D01*
X28475031Y-138811575D01*
X28288918Y-138941893D01*
X28121890Y-139108921D01*
X27986400Y-139302421D01*
X27886569Y-139516507D01*
X27829364Y-139729999D01*
X27829364Y-139730000D01*
X28726314Y-139730000D01*
X28700507Y-139770156D01*
X28660000Y-139908111D01*
X28660000Y-140051889D01*
X28700507Y-140189844D01*
X28726314Y-140230000D01*
X27829364Y-140230000D01*
X27886569Y-140443492D01*
X27986399Y-140657576D01*
X28121893Y-140851081D01*
X28288918Y-141018106D01*
X28475031Y-141148425D01*
X28518656Y-141203002D01*
X28525848Y-141272501D01*
X28494326Y-141334855D01*
X28475031Y-141351575D01*
X28288918Y-141481893D01*
X28121890Y-141648921D01*
X27986400Y-141842421D01*
X27886569Y-142056507D01*
X27829364Y-142269999D01*
X27829364Y-142270000D01*
X28726314Y-142270000D01*
X28700507Y-142310156D01*
X28660000Y-142448111D01*
X28660000Y-142591889D01*
X28700507Y-142729844D01*
X28726314Y-142770000D01*
X27829364Y-142770000D01*
X27886569Y-142983492D01*
X27986399Y-143197576D01*
X28121893Y-143391081D01*
X28288918Y-143558106D01*
X28474595Y-143688119D01*
X28518219Y-143742696D01*
X28525412Y-143812195D01*
X28493890Y-143874549D01*
X28474595Y-143891269D01*
X28288595Y-144021508D01*
X28121505Y-144188598D01*
X27985965Y-144382170D01*
X27886097Y-144596336D01*
X27824936Y-144824592D01*
X27804340Y-145060000D01*
X25000500Y-145060000D01*
X25000500Y-132995350D01*
X43128202Y-132995350D01*
X43138319Y-133233529D01*
X43188546Y-133466581D01*
X43259976Y-133644341D01*
X43277436Y-133687790D01*
X43402431Y-133890795D01*
X43527148Y-134032500D01*
X43559937Y-134069756D01*
X43745414Y-134219519D01*
X43745417Y-134219520D01*
X43745420Y-134219523D01*
X43929167Y-134322171D01*
X43953548Y-134335791D01*
X44178331Y-134415212D01*
X44413297Y-134455500D01*
X44413300Y-134455500D01*
X46389366Y-134455500D01*
X46391997Y-134455500D01*
X46570041Y-134440346D01*
X46723846Y-134400298D01*
X46800750Y-134380275D01*
X46912166Y-134329911D01*
X47017986Y-134282077D01*
X47215503Y-134148579D01*
X47387618Y-133983621D01*
X47529379Y-133791947D01*
X47636707Y-133579074D01*
X47666804Y-133480797D01*
X222794499Y-133480797D01*
X222794500Y-134475869D01*
X222794500Y-135459497D01*
X222794722Y-135462113D01*
X222794723Y-135462121D01*
X222809653Y-135637539D01*
X222869724Y-135868250D01*
X222967922Y-136085485D01*
X223101420Y-136283002D01*
X223215366Y-136401892D01*
X223266379Y-136455118D01*
X223458053Y-136596879D01*
X223670926Y-136704207D01*
X223898877Y-136774016D01*
X224135346Y-136804298D01*
X224373532Y-136794180D01*
X224606581Y-136743954D01*
X224827790Y-136655064D01*
X225030795Y-136530069D01*
X225209755Y-136372564D01*
X225359523Y-136187080D01*
X225475790Y-135978954D01*
X225555211Y-135754171D01*
X225556849Y-135744621D01*
X225595500Y-135519202D01*
X225595500Y-134250000D01*
X226295000Y-134250000D01*
X227149118Y-134250000D01*
X227110444Y-134343369D01*
X227089823Y-134500000D01*
X227110444Y-134656631D01*
X227149118Y-134750000D01*
X226295001Y-134750000D01*
X226295001Y-136096829D01*
X226295321Y-136103111D01*
X226305493Y-136202695D01*
X226360642Y-136369122D01*
X226452683Y-136518345D01*
X226576654Y-136642316D01*
X226725877Y-136734357D01*
X226892303Y-136789506D01*
X226991890Y-136799680D01*
X226998168Y-136799999D01*
X227444999Y-136799999D01*
X227445000Y-136799998D01*
X227445000Y-135045881D01*
X227538369Y-135084556D01*
X227655677Y-135100000D01*
X227734323Y-135100000D01*
X227851631Y-135084556D01*
X227945000Y-135045881D01*
X227945000Y-136799999D01*
X228391829Y-136799999D01*
X228398111Y-136799678D01*
X228497695Y-136789506D01*
X228664122Y-136734357D01*
X228813345Y-136642316D01*
X228937316Y-136518345D01*
X229029357Y-136369122D01*
X229084506Y-136202696D01*
X229094680Y-136103109D01*
X229095000Y-136096831D01*
X229095000Y-135491997D01*
X275099500Y-135491997D01*
X275099722Y-135494613D01*
X275099723Y-135494621D01*
X275114653Y-135670039D01*
X275174724Y-135900750D01*
X275272922Y-136117985D01*
X275391081Y-136292806D01*
X275406421Y-136315503D01*
X275571379Y-136487618D01*
X275763053Y-136629379D01*
X275975926Y-136736707D01*
X276203877Y-136806516D01*
X276440346Y-136836798D01*
X276678532Y-136826680D01*
X276911581Y-136776454D01*
X277132790Y-136687564D01*
X277335795Y-136562569D01*
X277514755Y-136405064D01*
X277664523Y-136219580D01*
X277780790Y-136011454D01*
X277860211Y-135786671D01*
X277862830Y-135771401D01*
X277900500Y-135551702D01*
X277900500Y-134282500D01*
X278600000Y-134282500D01*
X279454118Y-134282500D01*
X279415444Y-134375869D01*
X279394823Y-134532500D01*
X279415444Y-134689131D01*
X279454118Y-134782500D01*
X278600001Y-134782500D01*
X278600001Y-136129329D01*
X278600321Y-136135611D01*
X278610493Y-136235195D01*
X278665642Y-136401622D01*
X278757683Y-136550845D01*
X278881654Y-136674816D01*
X279030877Y-136766857D01*
X279197303Y-136822006D01*
X279296890Y-136832180D01*
X279303168Y-136832499D01*
X279749999Y-136832499D01*
X279750000Y-136832498D01*
X279750000Y-135078381D01*
X279843369Y-135117056D01*
X279960677Y-135132500D01*
X280039323Y-135132500D01*
X280156631Y-135117056D01*
X280250000Y-135078381D01*
X280250000Y-136832499D01*
X280696829Y-136832499D01*
X280703111Y-136832178D01*
X280802695Y-136822006D01*
X280969122Y-136766857D01*
X281118345Y-136674816D01*
X281242316Y-136550845D01*
X281334357Y-136401622D01*
X281389506Y-136235196D01*
X281399680Y-136135609D01*
X281400000Y-136129331D01*
X281400000Y-135591997D01*
X321044500Y-135591997D01*
X321044722Y-135594613D01*
X321044723Y-135594621D01*
X321059653Y-135770039D01*
X321119724Y-136000750D01*
X321217922Y-136217985D01*
X321342222Y-136401892D01*
X321351421Y-136415503D01*
X321516379Y-136587618D01*
X321708053Y-136729379D01*
X321920926Y-136836707D01*
X322148877Y-136906516D01*
X322385346Y-136936798D01*
X322623532Y-136926680D01*
X322856581Y-136876454D01*
X323077790Y-136787564D01*
X323280795Y-136662569D01*
X323459755Y-136505064D01*
X323609523Y-136319580D01*
X323725790Y-136111454D01*
X323805211Y-135886671D01*
X323807830Y-135871401D01*
X323845500Y-135651702D01*
X323845500Y-134382500D01*
X324545000Y-134382500D01*
X325399118Y-134382500D01*
X325360444Y-134475869D01*
X325339823Y-134632500D01*
X325360444Y-134789131D01*
X325399118Y-134882500D01*
X324545001Y-134882500D01*
X324545001Y-136229329D01*
X324545321Y-136235611D01*
X324555493Y-136335195D01*
X324610642Y-136501622D01*
X324702683Y-136650845D01*
X324826654Y-136774816D01*
X324975877Y-136866857D01*
X325142303Y-136922006D01*
X325241890Y-136932180D01*
X325248168Y-136932499D01*
X325694999Y-136932499D01*
X325695000Y-136932498D01*
X325695000Y-135178381D01*
X325788369Y-135217056D01*
X325905677Y-135232500D01*
X325984323Y-135232500D01*
X326101631Y-135217056D01*
X326195000Y-135178381D01*
X326195000Y-136932499D01*
X326641829Y-136932499D01*
X326648111Y-136932178D01*
X326747695Y-136922006D01*
X326914122Y-136866857D01*
X327063345Y-136774816D01*
X327187316Y-136650845D01*
X327279357Y-136501622D01*
X327334506Y-136335196D01*
X327344680Y-136235609D01*
X327345000Y-136229331D01*
X327345000Y-135591997D01*
X337894500Y-135591997D01*
X337894722Y-135594613D01*
X337894723Y-135594621D01*
X337909653Y-135770039D01*
X337969724Y-136000750D01*
X338067922Y-136217985D01*
X338192222Y-136401892D01*
X338201421Y-136415503D01*
X338366379Y-136587618D01*
X338558053Y-136729379D01*
X338770926Y-136836707D01*
X338998877Y-136906516D01*
X339235346Y-136936798D01*
X339473532Y-136926680D01*
X339706581Y-136876454D01*
X339927790Y-136787564D01*
X340130795Y-136662569D01*
X340309755Y-136505064D01*
X340459523Y-136319580D01*
X340575790Y-136111454D01*
X340655211Y-135886671D01*
X340657830Y-135871401D01*
X340695500Y-135651702D01*
X340695500Y-134664592D01*
X340695500Y-134382500D01*
X341395000Y-134382500D01*
X342249118Y-134382500D01*
X342210444Y-134475869D01*
X342189823Y-134632500D01*
X342210444Y-134789131D01*
X342249118Y-134882500D01*
X341395001Y-134882500D01*
X341395001Y-136229329D01*
X341395321Y-136235611D01*
X341405493Y-136335195D01*
X341460642Y-136501622D01*
X341552683Y-136650845D01*
X341676654Y-136774816D01*
X341825877Y-136866857D01*
X341992303Y-136922006D01*
X342091890Y-136932180D01*
X342098168Y-136932499D01*
X342544999Y-136932499D01*
X342545000Y-136932498D01*
X342545000Y-135178381D01*
X342638369Y-135217056D01*
X342755677Y-135232500D01*
X342834323Y-135232500D01*
X342951631Y-135217056D01*
X343045000Y-135178381D01*
X343045000Y-136932499D01*
X343491829Y-136932499D01*
X343498111Y-136932178D01*
X343597695Y-136922006D01*
X343764122Y-136866857D01*
X343913345Y-136774816D01*
X344037316Y-136650845D01*
X344129357Y-136501622D01*
X344184506Y-136335196D01*
X344194680Y-136235609D01*
X344195000Y-136229331D01*
X344195000Y-135756865D01*
X369999499Y-135756865D01*
X369999500Y-135756888D01*
X369999500Y-135759497D01*
X369999722Y-135762113D01*
X369999723Y-135762121D01*
X370014653Y-135937539D01*
X370074724Y-136168250D01*
X370172922Y-136385485D01*
X370306420Y-136583002D01*
X370382678Y-136662569D01*
X370471379Y-136755118D01*
X370663053Y-136896879D01*
X370875926Y-137004207D01*
X371103877Y-137074016D01*
X371340346Y-137104298D01*
X371578532Y-137094180D01*
X371811581Y-137043954D01*
X372032790Y-136955064D01*
X372235795Y-136830069D01*
X372414755Y-136672564D01*
X372564523Y-136487080D01*
X372680790Y-136278954D01*
X372760211Y-136054171D01*
X372762900Y-136038494D01*
X372800500Y-135819202D01*
X372800500Y-134550000D01*
X373500000Y-134550000D01*
X374354118Y-134550000D01*
X374315444Y-134643369D01*
X374294823Y-134800000D01*
X374315444Y-134956631D01*
X374354118Y-135050000D01*
X373500001Y-135050000D01*
X373500001Y-136396829D01*
X373500321Y-136403111D01*
X373510493Y-136502695D01*
X373565642Y-136669122D01*
X373657683Y-136818345D01*
X373781654Y-136942316D01*
X373930877Y-137034357D01*
X374097303Y-137089506D01*
X374196890Y-137099680D01*
X374203168Y-137099999D01*
X374649999Y-137099999D01*
X374650000Y-137099998D01*
X374650000Y-135345881D01*
X374743369Y-135384556D01*
X374860677Y-135400000D01*
X374939323Y-135400000D01*
X375056631Y-135384556D01*
X375150000Y-135345881D01*
X375150000Y-137099999D01*
X375596829Y-137099999D01*
X375603111Y-137099678D01*
X375702695Y-137089506D01*
X375869122Y-137034357D01*
X376018345Y-136942316D01*
X376142316Y-136818345D01*
X376234357Y-136669122D01*
X376289506Y-136502696D01*
X376299680Y-136403109D01*
X376300000Y-136396831D01*
X376300000Y-135741997D01*
X387144500Y-135741997D01*
X387144722Y-135744613D01*
X387144723Y-135744621D01*
X387159653Y-135920039D01*
X387219724Y-136150750D01*
X387317922Y-136367985D01*
X387449437Y-136562567D01*
X387451421Y-136565503D01*
X387616379Y-136737618D01*
X387808053Y-136879379D01*
X388020926Y-136986707D01*
X388248877Y-137056516D01*
X388485346Y-137086798D01*
X388723532Y-137076680D01*
X388956581Y-137026454D01*
X389177790Y-136937564D01*
X389380795Y-136812569D01*
X389559755Y-136655064D01*
X389709523Y-136469580D01*
X389825790Y-136261454D01*
X389905211Y-136036671D01*
X389906197Y-136030926D01*
X389945500Y-135801702D01*
X389945500Y-134532500D01*
X390645000Y-134532500D01*
X391499118Y-134532500D01*
X391460444Y-134625869D01*
X391439823Y-134782500D01*
X391460444Y-134939131D01*
X391499118Y-135032500D01*
X390645001Y-135032500D01*
X390645001Y-136379329D01*
X390645321Y-136385611D01*
X390655493Y-136485195D01*
X390710642Y-136651622D01*
X390802683Y-136800845D01*
X390926654Y-136924816D01*
X391075877Y-137016857D01*
X391242303Y-137072006D01*
X391341890Y-137082180D01*
X391348168Y-137082499D01*
X391794999Y-137082499D01*
X391795000Y-137082498D01*
X391795000Y-135328381D01*
X391888369Y-135367056D01*
X392005677Y-135382500D01*
X392084323Y-135382500D01*
X392201631Y-135367056D01*
X392295000Y-135328381D01*
X392295000Y-137082499D01*
X392741829Y-137082499D01*
X392748111Y-137082178D01*
X392847695Y-137072006D01*
X393014122Y-137016857D01*
X393163345Y-136924816D01*
X393287316Y-136800845D01*
X393379357Y-136651622D01*
X393434506Y-136485196D01*
X393444680Y-136385609D01*
X393445000Y-136379331D01*
X393445000Y-135032500D01*
X392590882Y-135032500D01*
X392629556Y-134939131D01*
X392650177Y-134782500D01*
X392629556Y-134625869D01*
X392590882Y-134532500D01*
X393444998Y-134532500D01*
X393444999Y-133185670D01*
X393444678Y-133179388D01*
X393434506Y-133079804D01*
X393379357Y-132913377D01*
X393287316Y-132764154D01*
X393163345Y-132640183D01*
X393014122Y-132548142D01*
X392847696Y-132492993D01*
X392748109Y-132482819D01*
X392741832Y-132482500D01*
X392295000Y-132482500D01*
X392295000Y-134236618D01*
X392201631Y-134197944D01*
X392084323Y-134182500D01*
X392005677Y-134182500D01*
X391888369Y-134197944D01*
X391795000Y-134236618D01*
X391795000Y-132482500D01*
X391348171Y-132482500D01*
X391341888Y-132482821D01*
X391242304Y-132492993D01*
X391075877Y-132548142D01*
X390926654Y-132640183D01*
X390802683Y-132764154D01*
X390710642Y-132913377D01*
X390655493Y-133079803D01*
X390645319Y-133179390D01*
X390645000Y-133185668D01*
X390645000Y-134532500D01*
X389945500Y-134532500D01*
X389945500Y-133825634D01*
X389945500Y-133823003D01*
X389930346Y-133644959D01*
X389891290Y-133494960D01*
X389870275Y-133414249D01*
X389772077Y-133197014D01*
X389638579Y-132999497D01*
X389473620Y-132827381D01*
X389281947Y-132685621D01*
X389069074Y-132578293D01*
X388841123Y-132508484D01*
X388820312Y-132505819D01*
X388604654Y-132478202D01*
X388604650Y-132478202D01*
X388604649Y-132478202D01*
X388366470Y-132488319D01*
X388133418Y-132538546D01*
X387912211Y-132627435D01*
X387709203Y-132752432D01*
X387530243Y-132909937D01*
X387380480Y-133095414D01*
X387264208Y-133303548D01*
X387184787Y-133528331D01*
X387144500Y-133763297D01*
X387144500Y-133763299D01*
X387144500Y-133763300D01*
X387144500Y-135741997D01*
X376300000Y-135741997D01*
X376300000Y-135050000D01*
X375445882Y-135050000D01*
X375484556Y-134956631D01*
X375505177Y-134800000D01*
X375484556Y-134643369D01*
X375445882Y-134550000D01*
X376299999Y-134550000D01*
X376299999Y-133203170D01*
X376299678Y-133196888D01*
X376289506Y-133097304D01*
X376234357Y-132930877D01*
X376142316Y-132781654D01*
X376018345Y-132657683D01*
X375869122Y-132565642D01*
X375702696Y-132510493D01*
X375603109Y-132500319D01*
X375596832Y-132500000D01*
X375150000Y-132500000D01*
X375150000Y-134254118D01*
X375056631Y-134215444D01*
X374939323Y-134200000D01*
X374860677Y-134200000D01*
X374743369Y-134215444D01*
X374650000Y-134254118D01*
X374650000Y-132500000D01*
X374203171Y-132500000D01*
X374196888Y-132500321D01*
X374097304Y-132510493D01*
X373930877Y-132565642D01*
X373781654Y-132657683D01*
X373657683Y-132781654D01*
X373565642Y-132930877D01*
X373510493Y-133097303D01*
X373500319Y-133196890D01*
X373500000Y-133203168D01*
X373500000Y-134550000D01*
X372800500Y-134550000D01*
X372800500Y-133843134D01*
X372800500Y-133843133D01*
X372800500Y-133840503D01*
X372785346Y-133662459D01*
X372765322Y-133585556D01*
X372725275Y-133431749D01*
X372627077Y-133214514D01*
X372493579Y-133016997D01*
X372402942Y-132922428D01*
X372328621Y-132844882D01*
X372304959Y-132827382D01*
X372136947Y-132703121D01*
X371924074Y-132595793D01*
X371696123Y-132525984D01*
X371696122Y-132525984D01*
X371459654Y-132495702D01*
X371459650Y-132495702D01*
X371459649Y-132495702D01*
X371221470Y-132505819D01*
X370988418Y-132556046D01*
X370767211Y-132644935D01*
X370564203Y-132769932D01*
X370385243Y-132927437D01*
X370235480Y-133112914D01*
X370119208Y-133321048D01*
X370039787Y-133545831D01*
X369999500Y-133780797D01*
X369999499Y-135756865D01*
X344195000Y-135756865D01*
X344195000Y-134882500D01*
X343340882Y-134882500D01*
X343379556Y-134789131D01*
X343400177Y-134632500D01*
X343379556Y-134475869D01*
X343340882Y-134382500D01*
X344194999Y-134382500D01*
X344194999Y-133035670D01*
X344194678Y-133029388D01*
X344184506Y-132929804D01*
X344129357Y-132763377D01*
X344037316Y-132614154D01*
X343913345Y-132490183D01*
X343764122Y-132398142D01*
X343597696Y-132342993D01*
X343498109Y-132332819D01*
X343491832Y-132332500D01*
X343045000Y-132332500D01*
X343045000Y-134086618D01*
X342951631Y-134047944D01*
X342834323Y-134032500D01*
X342755677Y-134032500D01*
X342638369Y-134047944D01*
X342545000Y-134086618D01*
X342545000Y-132332500D01*
X342098171Y-132332500D01*
X342091888Y-132332821D01*
X341992304Y-132342993D01*
X341825877Y-132398142D01*
X341676654Y-132490183D01*
X341552683Y-132614154D01*
X341460642Y-132763377D01*
X341405493Y-132929803D01*
X341395319Y-133029390D01*
X341395000Y-133035668D01*
X341395000Y-134382500D01*
X340695500Y-134382500D01*
X340695500Y-133673003D01*
X340680346Y-133494959D01*
X340649978Y-133378329D01*
X340620275Y-133264249D01*
X340522077Y-133047014D01*
X340388579Y-132849497D01*
X340292737Y-132749497D01*
X340223621Y-132677382D01*
X340200032Y-132659936D01*
X340031947Y-132535621D01*
X339819074Y-132428293D01*
X339591123Y-132358484D01*
X339584868Y-132357683D01*
X339354654Y-132328202D01*
X339354650Y-132328202D01*
X339354649Y-132328202D01*
X339116470Y-132338319D01*
X338883418Y-132388546D01*
X338662211Y-132477435D01*
X338459203Y-132602432D01*
X338280243Y-132759937D01*
X338130480Y-132945414D01*
X338014208Y-133153548D01*
X337934787Y-133378331D01*
X337894500Y-133613297D01*
X337894500Y-133613299D01*
X337894500Y-133613300D01*
X337894500Y-135591997D01*
X327345000Y-135591997D01*
X327345000Y-134882500D01*
X326490882Y-134882500D01*
X326529556Y-134789131D01*
X326550177Y-134632500D01*
X326529556Y-134475869D01*
X326490882Y-134382500D01*
X327344999Y-134382500D01*
X327344999Y-133035670D01*
X327344678Y-133029388D01*
X327334506Y-132929804D01*
X327279357Y-132763377D01*
X327187316Y-132614154D01*
X327063345Y-132490183D01*
X326914122Y-132398142D01*
X326747696Y-132342993D01*
X326648109Y-132332819D01*
X326641832Y-132332500D01*
X326195000Y-132332500D01*
X326195000Y-134086618D01*
X326101631Y-134047944D01*
X325984323Y-134032500D01*
X325905677Y-134032500D01*
X325788369Y-134047944D01*
X325695000Y-134086618D01*
X325695000Y-132332500D01*
X325248171Y-132332500D01*
X325241888Y-132332821D01*
X325142304Y-132342993D01*
X324975877Y-132398142D01*
X324826654Y-132490183D01*
X324702683Y-132614154D01*
X324610642Y-132763377D01*
X324555493Y-132929803D01*
X324545319Y-133029390D01*
X324545000Y-133035668D01*
X324545000Y-134382500D01*
X323845500Y-134382500D01*
X323845500Y-133675634D01*
X323845500Y-133675633D01*
X323845500Y-133673003D01*
X323830346Y-133494959D01*
X323799978Y-133378329D01*
X323770275Y-133264249D01*
X323672077Y-133047014D01*
X323538579Y-132849497D01*
X323442737Y-132749497D01*
X323373621Y-132677382D01*
X323350032Y-132659936D01*
X323181947Y-132535621D01*
X322969074Y-132428293D01*
X322741123Y-132358484D01*
X322734868Y-132357683D01*
X322504654Y-132328202D01*
X322504650Y-132328202D01*
X322504649Y-132328202D01*
X322266470Y-132338319D01*
X322033418Y-132388546D01*
X321812211Y-132477435D01*
X321609203Y-132602432D01*
X321430243Y-132759937D01*
X321280480Y-132945414D01*
X321164208Y-133153548D01*
X321084787Y-133378331D01*
X321044500Y-133613297D01*
X321044500Y-133613300D01*
X321044500Y-135591997D01*
X281400000Y-135591997D01*
X281400000Y-134782500D01*
X280545882Y-134782500D01*
X280584556Y-134689131D01*
X280605177Y-134532500D01*
X280584556Y-134375869D01*
X280545882Y-134282500D01*
X281399999Y-134282500D01*
X281399999Y-132935670D01*
X281399678Y-132929388D01*
X281389506Y-132829804D01*
X281334357Y-132663377D01*
X281242316Y-132514154D01*
X281118345Y-132390183D01*
X280969122Y-132298142D01*
X280802696Y-132242993D01*
X280703109Y-132232819D01*
X280696832Y-132232500D01*
X280250000Y-132232500D01*
X280250000Y-133986618D01*
X280156631Y-133947944D01*
X280039323Y-133932500D01*
X279960677Y-133932500D01*
X279843369Y-133947944D01*
X279750000Y-133986618D01*
X279750000Y-132232500D01*
X279303171Y-132232500D01*
X279296888Y-132232821D01*
X279197304Y-132242993D01*
X279030877Y-132298142D01*
X278881654Y-132390183D01*
X278757683Y-132514154D01*
X278665642Y-132663377D01*
X278610493Y-132829803D01*
X278600319Y-132929390D01*
X278600000Y-132935668D01*
X278600000Y-134282500D01*
X277900500Y-134282500D01*
X277900500Y-133575634D01*
X277900500Y-133573003D01*
X277885346Y-133394959D01*
X277843314Y-133233532D01*
X277825275Y-133164249D01*
X277727077Y-132947014D01*
X277593579Y-132749497D01*
X277428620Y-132577381D01*
X277236947Y-132435621D01*
X277024074Y-132328293D01*
X276796123Y-132258484D01*
X276777085Y-132256046D01*
X276559654Y-132228202D01*
X276559650Y-132228202D01*
X276559649Y-132228202D01*
X276321470Y-132238319D01*
X276088418Y-132288546D01*
X275867211Y-132377435D01*
X275664203Y-132502432D01*
X275485243Y-132659937D01*
X275335480Y-132845414D01*
X275219208Y-133053548D01*
X275139787Y-133278331D01*
X275099500Y-133513297D01*
X275099500Y-133513299D01*
X275099500Y-133513300D01*
X275099500Y-135491997D01*
X229095000Y-135491997D01*
X229095000Y-134750000D01*
X228240882Y-134750000D01*
X228279556Y-134656631D01*
X228300177Y-134500000D01*
X228279556Y-134343369D01*
X228240882Y-134250000D01*
X229094999Y-134250000D01*
X229094999Y-132903170D01*
X229094678Y-132896888D01*
X229084506Y-132797304D01*
X229029357Y-132630877D01*
X228937316Y-132481654D01*
X228813345Y-132357683D01*
X228664122Y-132265642D01*
X228497696Y-132210493D01*
X228398109Y-132200319D01*
X228391832Y-132200000D01*
X227945000Y-132200000D01*
X227945000Y-133954118D01*
X227851631Y-133915444D01*
X227734323Y-133900000D01*
X227655677Y-133900000D01*
X227538369Y-133915444D01*
X227445000Y-133954118D01*
X227445000Y-132200000D01*
X226998171Y-132200000D01*
X226991888Y-132200321D01*
X226892304Y-132210493D01*
X226725877Y-132265642D01*
X226576654Y-132357683D01*
X226452683Y-132481654D01*
X226360642Y-132630877D01*
X226305493Y-132797303D01*
X226295319Y-132896890D01*
X226295000Y-132903168D01*
X226295000Y-134250000D01*
X225595500Y-134250000D01*
X225595500Y-133543134D01*
X225595500Y-133543133D01*
X225595500Y-133540503D01*
X225580346Y-133362459D01*
X225549978Y-133245829D01*
X225520275Y-133131749D01*
X225422077Y-132914514D01*
X225288579Y-132716997D01*
X225123620Y-132544881D01*
X224931947Y-132403121D01*
X224719074Y-132295793D01*
X224491123Y-132225984D01*
X224491122Y-132225984D01*
X224254654Y-132195702D01*
X224254650Y-132195702D01*
X224254649Y-132195702D01*
X224016470Y-132205819D01*
X223783418Y-132256046D01*
X223562211Y-132344935D01*
X223359203Y-132469932D01*
X223180243Y-132627437D01*
X223030480Y-132812914D01*
X222914208Y-133021048D01*
X222834787Y-133245831D01*
X222794499Y-133480797D01*
X47666804Y-133480797D01*
X47706516Y-133351123D01*
X47736798Y-133114654D01*
X47726680Y-132876468D01*
X47676454Y-132643419D01*
X47587564Y-132422210D01*
X47462569Y-132219205D01*
X47305064Y-132040245D01*
X47305062Y-132040243D01*
X47119585Y-131890480D01*
X47097345Y-131878056D01*
X47007602Y-131827922D01*
X46911451Y-131774208D01*
X46686668Y-131694787D01*
X46451703Y-131654500D01*
X46451700Y-131654500D01*
X44473003Y-131654500D01*
X44470387Y-131654722D01*
X44470378Y-131654723D01*
X44294960Y-131669653D01*
X44064249Y-131729724D01*
X43847014Y-131827922D01*
X43649497Y-131961420D01*
X43477381Y-132126379D01*
X43335621Y-132318052D01*
X43228293Y-132530925D01*
X43160458Y-132752432D01*
X43158484Y-132758877D01*
X43128202Y-132995346D01*
X43128202Y-132995349D01*
X43128202Y-132995350D01*
X25000500Y-132995350D01*
X25000500Y-131615494D01*
X63399500Y-131615494D01*
X63399672Y-131617797D01*
X63399673Y-131617808D01*
X63414197Y-131811627D01*
X63472580Y-132067418D01*
X63559367Y-132288546D01*
X63568432Y-132311643D01*
X63595013Y-132357683D01*
X63699613Y-132538856D01*
X63713322Y-132556046D01*
X63863195Y-132743981D01*
X63863197Y-132743983D01*
X63863198Y-132743984D01*
X64055514Y-132922428D01*
X64055520Y-132922432D01*
X64055521Y-132922433D01*
X64272296Y-133070228D01*
X64508677Y-133184063D01*
X64759385Y-133261396D01*
X65018818Y-133300500D01*
X65281182Y-133300500D01*
X65540615Y-133261396D01*
X65791323Y-133184063D01*
X66027704Y-133070228D01*
X66244479Y-132922433D01*
X66244482Y-132922429D01*
X66244485Y-132922428D01*
X66329792Y-132843273D01*
X66436805Y-132743981D01*
X66600386Y-132538857D01*
X66731568Y-132311643D01*
X66827420Y-132067416D01*
X66879109Y-131840952D01*
X66913218Y-131779975D01*
X66974879Y-131747117D01*
X67044517Y-131752812D01*
X67100020Y-131795252D01*
X67120891Y-131840953D01*
X67172580Y-132067418D01*
X67259367Y-132288546D01*
X67268432Y-132311643D01*
X67295013Y-132357683D01*
X67399613Y-132538856D01*
X67413322Y-132556046D01*
X67563195Y-132743981D01*
X67563197Y-132743983D01*
X67563198Y-132743984D01*
X67755514Y-132922428D01*
X67755520Y-132922432D01*
X67755521Y-132922433D01*
X67972296Y-133070228D01*
X68208677Y-133184063D01*
X68459385Y-133261396D01*
X68718818Y-133300500D01*
X68981182Y-133300500D01*
X69240615Y-133261396D01*
X69491323Y-133184063D01*
X69727704Y-133070228D01*
X69944479Y-132922433D01*
X69944482Y-132922429D01*
X69944485Y-132922428D01*
X70029792Y-132843273D01*
X70136805Y-132743981D01*
X70300386Y-132538857D01*
X70431568Y-132311643D01*
X70527420Y-132067416D01*
X70585802Y-131811630D01*
X70600500Y-131615494D01*
X71399500Y-131615494D01*
X71399672Y-131617797D01*
X71399673Y-131617808D01*
X71414197Y-131811627D01*
X71472580Y-132067418D01*
X71559367Y-132288546D01*
X71568432Y-132311643D01*
X71595013Y-132357683D01*
X71699613Y-132538856D01*
X71713322Y-132556046D01*
X71863195Y-132743981D01*
X71863197Y-132743983D01*
X71863198Y-132743984D01*
X72055514Y-132922428D01*
X72055520Y-132922432D01*
X72055521Y-132922433D01*
X72272296Y-133070228D01*
X72508677Y-133184063D01*
X72759385Y-133261396D01*
X73018818Y-133300500D01*
X73281182Y-133300500D01*
X73540615Y-133261396D01*
X73791323Y-133184063D01*
X74027704Y-133070228D01*
X74244479Y-132922433D01*
X74244482Y-132922429D01*
X74244485Y-132922428D01*
X74329792Y-132843273D01*
X74436805Y-132743981D01*
X74600386Y-132538857D01*
X74731568Y-132311643D01*
X74827420Y-132067416D01*
X74879109Y-131840952D01*
X74913218Y-131779975D01*
X74974879Y-131747117D01*
X75044517Y-131752812D01*
X75100020Y-131795252D01*
X75120891Y-131840953D01*
X75172580Y-132067418D01*
X75259367Y-132288546D01*
X75268432Y-132311643D01*
X75295013Y-132357683D01*
X75399613Y-132538856D01*
X75413322Y-132556046D01*
X75563195Y-132743981D01*
X75563197Y-132743983D01*
X75563198Y-132743984D01*
X75755514Y-132922428D01*
X75755520Y-132922432D01*
X75755521Y-132922433D01*
X75972296Y-133070228D01*
X76208677Y-133184063D01*
X76459385Y-133261396D01*
X76718818Y-133300500D01*
X76981182Y-133300500D01*
X77240615Y-133261396D01*
X77491323Y-133184063D01*
X77727704Y-133070228D01*
X77944479Y-132922433D01*
X77944482Y-132922429D01*
X77944485Y-132922428D01*
X78029792Y-132843273D01*
X78136805Y-132743981D01*
X78300386Y-132538857D01*
X78431568Y-132311643D01*
X78527420Y-132067416D01*
X78585802Y-131811630D01*
X78600500Y-131615494D01*
X78600500Y-130546178D01*
X82770737Y-130546178D01*
X82800763Y-130819069D01*
X82870204Y-131084681D01*
X82977577Y-131337352D01*
X83050680Y-131457137D01*
X83120595Y-131571696D01*
X83296209Y-131782718D01*
X83500677Y-131965923D01*
X83729641Y-132117404D01*
X83978221Y-132233933D01*
X84241119Y-132313027D01*
X84512731Y-132353000D01*
X84512734Y-132353000D01*
X84716285Y-132353000D01*
X84718547Y-132353000D01*
X84923805Y-132337977D01*
X85191775Y-132278284D01*
X85448198Y-132180211D01*
X85687609Y-132045847D01*
X85904904Y-131878057D01*
X86095454Y-131680416D01*
X86255196Y-131457137D01*
X86380727Y-131212979D01*
X86468738Y-130954999D01*
X86469370Y-130953147D01*
X86519236Y-130683174D01*
X86524242Y-130546178D01*
X95470737Y-130546178D01*
X95500763Y-130819069D01*
X95570204Y-131084681D01*
X95677577Y-131337352D01*
X95750680Y-131457137D01*
X95820595Y-131571696D01*
X95996209Y-131782718D01*
X96200677Y-131965923D01*
X96429641Y-132117404D01*
X96678221Y-132233933D01*
X96941119Y-132313027D01*
X97212731Y-132353000D01*
X97212734Y-132353000D01*
X97416285Y-132353000D01*
X97418547Y-132353000D01*
X97623805Y-132337977D01*
X97891775Y-132278284D01*
X98148198Y-132180211D01*
X98387609Y-132045847D01*
X98604904Y-131878057D01*
X98795454Y-131680416D01*
X98955196Y-131457137D01*
X99080727Y-131212979D01*
X99168738Y-130954999D01*
X99169370Y-130953147D01*
X99219236Y-130683174D01*
X99224242Y-130546178D01*
X187770737Y-130546178D01*
X187800763Y-130819069D01*
X187870204Y-131084681D01*
X187977577Y-131337352D01*
X188050680Y-131457137D01*
X188120595Y-131571696D01*
X188296209Y-131782718D01*
X188500677Y-131965923D01*
X188729641Y-132117404D01*
X188978221Y-132233933D01*
X189241119Y-132313027D01*
X189512731Y-132353000D01*
X189512734Y-132353000D01*
X189716285Y-132353000D01*
X189718547Y-132353000D01*
X189923805Y-132337977D01*
X190191775Y-132278284D01*
X190448198Y-132180211D01*
X190687609Y-132045847D01*
X190904904Y-131878057D01*
X191095454Y-131680416D01*
X191255196Y-131457137D01*
X191380727Y-131212979D01*
X191468738Y-130954999D01*
X191469370Y-130953147D01*
X191519236Y-130683174D01*
X191524242Y-130546178D01*
X200470737Y-130546178D01*
X200500763Y-130819069D01*
X200570204Y-131084681D01*
X200677577Y-131337352D01*
X200750680Y-131457137D01*
X200820595Y-131571696D01*
X200996209Y-131782718D01*
X201200677Y-131965923D01*
X201429641Y-132117404D01*
X201678221Y-132233933D01*
X201941119Y-132313027D01*
X202212731Y-132353000D01*
X202212734Y-132353000D01*
X202416285Y-132353000D01*
X202418547Y-132353000D01*
X202623805Y-132337977D01*
X202891775Y-132278284D01*
X203148198Y-132180211D01*
X203387609Y-132045847D01*
X203604904Y-131878057D01*
X203795454Y-131680416D01*
X203955196Y-131457137D01*
X204080727Y-131212979D01*
X204168738Y-130954999D01*
X204169370Y-130953147D01*
X204219236Y-130683174D01*
X204224242Y-130546178D01*
X292770737Y-130546178D01*
X292800763Y-130819069D01*
X292870204Y-131084681D01*
X292977577Y-131337352D01*
X293050680Y-131457137D01*
X293120595Y-131571696D01*
X293296209Y-131782718D01*
X293500677Y-131965923D01*
X293729641Y-132117404D01*
X293978221Y-132233933D01*
X294241119Y-132313027D01*
X294512731Y-132353000D01*
X294512734Y-132353000D01*
X294716285Y-132353000D01*
X294718547Y-132353000D01*
X294923805Y-132337977D01*
X295191775Y-132278284D01*
X295448198Y-132180211D01*
X295687609Y-132045847D01*
X295904904Y-131878057D01*
X296095454Y-131680416D01*
X296255196Y-131457137D01*
X296380727Y-131212979D01*
X296468738Y-130954999D01*
X296469370Y-130953147D01*
X296519236Y-130683174D01*
X296524242Y-130546178D01*
X305470737Y-130546178D01*
X305500763Y-130819069D01*
X305570204Y-131084681D01*
X305677577Y-131337352D01*
X305750680Y-131457137D01*
X305820595Y-131571696D01*
X305996209Y-131782718D01*
X306200677Y-131965923D01*
X306429641Y-132117404D01*
X306678221Y-132233933D01*
X306941119Y-132313027D01*
X307212731Y-132353000D01*
X307212734Y-132353000D01*
X307416285Y-132353000D01*
X307418547Y-132353000D01*
X307623805Y-132337977D01*
X307891775Y-132278284D01*
X308148198Y-132180211D01*
X308387609Y-132045847D01*
X308604904Y-131878057D01*
X308795454Y-131680416D01*
X308955196Y-131457137D01*
X309080727Y-131212979D01*
X309168738Y-130954999D01*
X309169370Y-130953147D01*
X309219236Y-130683174D01*
X309224242Y-130546178D01*
X397770737Y-130546178D01*
X397800763Y-130819069D01*
X397870204Y-131084681D01*
X397977577Y-131337352D01*
X398050680Y-131457137D01*
X398120595Y-131571696D01*
X398296209Y-131782718D01*
X398500677Y-131965923D01*
X398729641Y-132117404D01*
X398978221Y-132233933D01*
X399241119Y-132313027D01*
X399512731Y-132353000D01*
X399512734Y-132353000D01*
X399716285Y-132353000D01*
X399718547Y-132353000D01*
X399923805Y-132337977D01*
X400191775Y-132278284D01*
X400448198Y-132180211D01*
X400687609Y-132045847D01*
X400904904Y-131878057D01*
X401095454Y-131680416D01*
X401255196Y-131457137D01*
X401380727Y-131212979D01*
X401468738Y-130954999D01*
X401469370Y-130953147D01*
X401519236Y-130683174D01*
X401524242Y-130546178D01*
X410470737Y-130546178D01*
X410500763Y-130819069D01*
X410570204Y-131084681D01*
X410677577Y-131337352D01*
X410750680Y-131457137D01*
X410820595Y-131571696D01*
X410996209Y-131782718D01*
X411200677Y-131965923D01*
X411429641Y-132117404D01*
X411678221Y-132233933D01*
X411941119Y-132313027D01*
X412212731Y-132353000D01*
X412212734Y-132353000D01*
X412416285Y-132353000D01*
X412418547Y-132353000D01*
X412623805Y-132337977D01*
X412891775Y-132278284D01*
X413148198Y-132180211D01*
X413387609Y-132045847D01*
X413604904Y-131878057D01*
X413795454Y-131680416D01*
X413955196Y-131457137D01*
X414080727Y-131212979D01*
X414168738Y-130954999D01*
X414169370Y-130953147D01*
X414219236Y-130683174D01*
X414229262Y-130408821D01*
X414226842Y-130386822D01*
X414199236Y-130135929D01*
X414129796Y-129870318D01*
X414022423Y-129617648D01*
X413879405Y-129383304D01*
X413703791Y-129172282D01*
X413587143Y-129067764D01*
X419145787Y-129067764D01*
X419175413Y-129337016D01*
X419191453Y-129398369D01*
X419243928Y-129599088D01*
X419281864Y-129688358D01*
X419349871Y-129848392D01*
X419490982Y-130079611D01*
X419664253Y-130287818D01*
X419664255Y-130287820D01*
X419865998Y-130468582D01*
X420091910Y-130618044D01*
X420198211Y-130667876D01*
X420337177Y-130733021D01*
X420596562Y-130811058D01*
X420596569Y-130811060D01*
X420864561Y-130850500D01*
X420864564Y-130850500D01*
X421065369Y-130850500D01*
X421067631Y-130850500D01*
X421270156Y-130835677D01*
X421534553Y-130776780D01*
X421787558Y-130680014D01*
X422023777Y-130547441D01*
X422238177Y-130381888D01*
X422426186Y-130186881D01*
X422583799Y-129966579D01*
X422707656Y-129725675D01*
X422795118Y-129469305D01*
X422844319Y-129202933D01*
X422854212Y-128932235D01*
X422824586Y-128662982D01*
X422756072Y-128400912D01*
X422650130Y-128151610D01*
X422509018Y-127920390D01*
X422509017Y-127920388D01*
X422335746Y-127712181D01*
X422230759Y-127618112D01*
X422134002Y-127531418D01*
X421908090Y-127381956D01*
X421908086Y-127381954D01*
X421662822Y-127266978D01*
X421403437Y-127188941D01*
X421403431Y-127188940D01*
X421135439Y-127149500D01*
X420932369Y-127149500D01*
X420930120Y-127149664D01*
X420930109Y-127149665D01*
X420729843Y-127164322D01*
X420465449Y-127223219D01*
X420212441Y-127319986D01*
X419976223Y-127452559D01*
X419761825Y-127618109D01*
X419573813Y-127813120D01*
X419416201Y-128033420D01*
X419292342Y-128274329D01*
X419204881Y-128530695D01*
X419155680Y-128797066D01*
X419145787Y-129067764D01*
X413587143Y-129067764D01*
X413499323Y-128989077D01*
X413270359Y-128837596D01*
X413021779Y-128721067D01*
X412758881Y-128641973D01*
X412487269Y-128602000D01*
X412281453Y-128602000D01*
X412279204Y-128602164D01*
X412279193Y-128602165D01*
X412076194Y-128617022D01*
X411808225Y-128676715D01*
X411551803Y-128774788D01*
X411312391Y-128909153D01*
X411095094Y-129076943D01*
X410904545Y-129274583D01*
X410744802Y-129497864D01*
X410619272Y-129742021D01*
X410530629Y-130001852D01*
X410480763Y-130271825D01*
X410470737Y-130546178D01*
X401524242Y-130546178D01*
X401529262Y-130408821D01*
X401526842Y-130386822D01*
X401499236Y-130135929D01*
X401429796Y-129870318D01*
X401322423Y-129617648D01*
X401179405Y-129383304D01*
X401003791Y-129172282D01*
X400799323Y-128989077D01*
X400570359Y-128837596D01*
X400321779Y-128721067D01*
X400058881Y-128641973D01*
X399787269Y-128602000D01*
X399581453Y-128602000D01*
X399579204Y-128602164D01*
X399579193Y-128602165D01*
X399376194Y-128617022D01*
X399108225Y-128676715D01*
X398851803Y-128774788D01*
X398612391Y-128909153D01*
X398395094Y-129076943D01*
X398204545Y-129274583D01*
X398044802Y-129497864D01*
X397919272Y-129742021D01*
X397830629Y-130001852D01*
X397780763Y-130271825D01*
X397770737Y-130546178D01*
X309224242Y-130546178D01*
X309229262Y-130408821D01*
X309226842Y-130386822D01*
X309199236Y-130135929D01*
X309129796Y-129870318D01*
X309022423Y-129617648D01*
X308879405Y-129383304D01*
X308703791Y-129172282D01*
X308499323Y-128989077D01*
X308270359Y-128837596D01*
X308021779Y-128721067D01*
X307758881Y-128641973D01*
X307487269Y-128602000D01*
X307281453Y-128602000D01*
X307279204Y-128602164D01*
X307279193Y-128602165D01*
X307076194Y-128617022D01*
X306808225Y-128676715D01*
X306551803Y-128774788D01*
X306312391Y-128909153D01*
X306095094Y-129076943D01*
X305904545Y-129274583D01*
X305744802Y-129497864D01*
X305619272Y-129742021D01*
X305530629Y-130001852D01*
X305480763Y-130271825D01*
X305470737Y-130546178D01*
X296524242Y-130546178D01*
X296529262Y-130408821D01*
X296526842Y-130386822D01*
X296499236Y-130135929D01*
X296429796Y-129870318D01*
X296322423Y-129617648D01*
X296179405Y-129383304D01*
X296003791Y-129172282D01*
X295799323Y-128989077D01*
X295570359Y-128837596D01*
X295321779Y-128721067D01*
X295058881Y-128641973D01*
X294787269Y-128602000D01*
X294581453Y-128602000D01*
X294579204Y-128602164D01*
X294579193Y-128602165D01*
X294376194Y-128617022D01*
X294108225Y-128676715D01*
X293851803Y-128774788D01*
X293612391Y-128909153D01*
X293395094Y-129076943D01*
X293204545Y-129274583D01*
X293044802Y-129497864D01*
X292919272Y-129742021D01*
X292830629Y-130001852D01*
X292780763Y-130271825D01*
X292770737Y-130546178D01*
X204224242Y-130546178D01*
X204229262Y-130408821D01*
X204226842Y-130386822D01*
X204199236Y-130135929D01*
X204129796Y-129870318D01*
X204022423Y-129617648D01*
X203879405Y-129383304D01*
X203703791Y-129172282D01*
X203499323Y-128989077D01*
X203270359Y-128837596D01*
X203021779Y-128721067D01*
X202758881Y-128641973D01*
X202487269Y-128602000D01*
X202281453Y-128602000D01*
X202279204Y-128602164D01*
X202279193Y-128602165D01*
X202076194Y-128617022D01*
X201808225Y-128676715D01*
X201551803Y-128774788D01*
X201312391Y-128909153D01*
X201095094Y-129076943D01*
X200904545Y-129274583D01*
X200744802Y-129497864D01*
X200619272Y-129742021D01*
X200530629Y-130001852D01*
X200480763Y-130271825D01*
X200470737Y-130546178D01*
X191524242Y-130546178D01*
X191529262Y-130408821D01*
X191526842Y-130386822D01*
X191499236Y-130135929D01*
X191429796Y-129870318D01*
X191322423Y-129617648D01*
X191179405Y-129383304D01*
X191003791Y-129172282D01*
X190799323Y-128989077D01*
X190570359Y-128837596D01*
X190321779Y-128721067D01*
X190058881Y-128641973D01*
X189787269Y-128602000D01*
X189581453Y-128602000D01*
X189579204Y-128602164D01*
X189579193Y-128602165D01*
X189376194Y-128617022D01*
X189108225Y-128676715D01*
X188851803Y-128774788D01*
X188612391Y-128909153D01*
X188395094Y-129076943D01*
X188204545Y-129274583D01*
X188044802Y-129497864D01*
X187919272Y-129742021D01*
X187830629Y-130001852D01*
X187780763Y-130271825D01*
X187770737Y-130546178D01*
X99224242Y-130546178D01*
X99229262Y-130408821D01*
X99226842Y-130386822D01*
X99199236Y-130135929D01*
X99129796Y-129870318D01*
X99022423Y-129617648D01*
X98879405Y-129383304D01*
X98703791Y-129172282D01*
X98499323Y-128989077D01*
X98270359Y-128837596D01*
X98021779Y-128721067D01*
X97758881Y-128641973D01*
X97487269Y-128602000D01*
X97281453Y-128602000D01*
X97279204Y-128602164D01*
X97279193Y-128602165D01*
X97076194Y-128617022D01*
X96808225Y-128676715D01*
X96551803Y-128774788D01*
X96312391Y-128909153D01*
X96095094Y-129076943D01*
X95904545Y-129274583D01*
X95744802Y-129497864D01*
X95619272Y-129742021D01*
X95530629Y-130001852D01*
X95480763Y-130271825D01*
X95470737Y-130546178D01*
X86524242Y-130546178D01*
X86529262Y-130408821D01*
X86526842Y-130386822D01*
X86499236Y-130135929D01*
X86429796Y-129870318D01*
X86322423Y-129617648D01*
X86179405Y-129383304D01*
X86003791Y-129172282D01*
X85799323Y-128989077D01*
X85570359Y-128837596D01*
X85321779Y-128721067D01*
X85058881Y-128641973D01*
X84787269Y-128602000D01*
X84581453Y-128602000D01*
X84579204Y-128602164D01*
X84579193Y-128602165D01*
X84376194Y-128617022D01*
X84108225Y-128676715D01*
X83851803Y-128774788D01*
X83612391Y-128909153D01*
X83395094Y-129076943D01*
X83204545Y-129274583D01*
X83044802Y-129497864D01*
X82919272Y-129742021D01*
X82830629Y-130001852D01*
X82780763Y-130271825D01*
X82770737Y-130546178D01*
X78600500Y-130546178D01*
X78600500Y-130384506D01*
X78585802Y-130188370D01*
X78527420Y-129932584D01*
X78527418Y-129932580D01*
X78477347Y-129805000D01*
X78431568Y-129688357D01*
X78300386Y-129461143D01*
X78136805Y-129256019D01*
X78132918Y-129252412D01*
X77944485Y-129077571D01*
X77927170Y-129065766D01*
X77727704Y-128929772D01*
X77491323Y-128815937D01*
X77240615Y-128738604D01*
X76981182Y-128699500D01*
X76718818Y-128699500D01*
X76459385Y-128738604D01*
X76208677Y-128815937D01*
X75972296Y-128929772D01*
X75912641Y-128970444D01*
X75755514Y-129077571D01*
X75563198Y-129256015D01*
X75399613Y-129461143D01*
X75268431Y-129688358D01*
X75172581Y-129932580D01*
X75120890Y-130159047D01*
X75086781Y-130220025D01*
X75025119Y-130252882D01*
X74955482Y-130247186D01*
X74899979Y-130204746D01*
X74879109Y-130159050D01*
X74827420Y-129932584D01*
X74827418Y-129932580D01*
X74777347Y-129805000D01*
X74731568Y-129688357D01*
X74600386Y-129461143D01*
X74436805Y-129256019D01*
X74432918Y-129252412D01*
X74244485Y-129077571D01*
X74227170Y-129065766D01*
X74027704Y-128929772D01*
X73791323Y-128815937D01*
X73540615Y-128738604D01*
X73281182Y-128699500D01*
X73018818Y-128699500D01*
X72759385Y-128738604D01*
X72508677Y-128815937D01*
X72272296Y-128929772D01*
X72212641Y-128970444D01*
X72055514Y-129077571D01*
X71863198Y-129256015D01*
X71699613Y-129461143D01*
X71568431Y-129688358D01*
X71472580Y-129932581D01*
X71414197Y-130188372D01*
X71406745Y-130287820D01*
X71399500Y-130384506D01*
X71399500Y-131615494D01*
X70600500Y-131615494D01*
X70600500Y-130384506D01*
X70585802Y-130188370D01*
X70527420Y-129932584D01*
X70527418Y-129932580D01*
X70477347Y-129805000D01*
X70431568Y-129688357D01*
X70300386Y-129461143D01*
X70136805Y-129256019D01*
X70132918Y-129252412D01*
X69944485Y-129077571D01*
X69927170Y-129065766D01*
X69727704Y-128929772D01*
X69491323Y-128815937D01*
X69240615Y-128738604D01*
X68981182Y-128699500D01*
X68718818Y-128699500D01*
X68459385Y-128738604D01*
X68208677Y-128815937D01*
X67972296Y-128929772D01*
X67912641Y-128970444D01*
X67755514Y-129077571D01*
X67563198Y-129256015D01*
X67399613Y-129461143D01*
X67268431Y-129688358D01*
X67172581Y-129932580D01*
X67120890Y-130159047D01*
X67086781Y-130220025D01*
X67025119Y-130252882D01*
X66955482Y-130247186D01*
X66899979Y-130204746D01*
X66879109Y-130159050D01*
X66827420Y-129932584D01*
X66827418Y-129932580D01*
X66777347Y-129805000D01*
X66731568Y-129688357D01*
X66600386Y-129461143D01*
X66436805Y-129256019D01*
X66432918Y-129252412D01*
X66244485Y-129077571D01*
X66227170Y-129065766D01*
X66027704Y-128929772D01*
X65791323Y-128815937D01*
X65540615Y-128738604D01*
X65281182Y-128699500D01*
X65018818Y-128699500D01*
X64759385Y-128738604D01*
X64508677Y-128815937D01*
X64272296Y-128929772D01*
X64212641Y-128970444D01*
X64055514Y-129077571D01*
X63863198Y-129256015D01*
X63699613Y-129461143D01*
X63568431Y-129688358D01*
X63472580Y-129932581D01*
X63414197Y-130188372D01*
X63406745Y-130287820D01*
X63399500Y-130384506D01*
X63399500Y-131615494D01*
X25000500Y-131615494D01*
X25000500Y-129067764D01*
X27145787Y-129067764D01*
X27175413Y-129337016D01*
X27191453Y-129398369D01*
X27243928Y-129599088D01*
X27281864Y-129688358D01*
X27349871Y-129848392D01*
X27490982Y-130079611D01*
X27664253Y-130287818D01*
X27664255Y-130287820D01*
X27865998Y-130468582D01*
X28091910Y-130618044D01*
X28198211Y-130667876D01*
X28337177Y-130733021D01*
X28596562Y-130811058D01*
X28596569Y-130811060D01*
X28864561Y-130850500D01*
X28864564Y-130850500D01*
X29065369Y-130850500D01*
X29067631Y-130850500D01*
X29270156Y-130835677D01*
X29534553Y-130776780D01*
X29787558Y-130680014D01*
X30023777Y-130547441D01*
X30238177Y-130381888D01*
X30426186Y-130186881D01*
X30583799Y-129966579D01*
X30707656Y-129725675D01*
X30795118Y-129469305D01*
X30825466Y-129305000D01*
X43132500Y-129305000D01*
X44886618Y-129305000D01*
X44847944Y-129398369D01*
X44827323Y-129555000D01*
X44847944Y-129711631D01*
X44886618Y-129805000D01*
X43132501Y-129805000D01*
X43132501Y-130251829D01*
X43132821Y-130258111D01*
X43142993Y-130357695D01*
X43198142Y-130524122D01*
X43290183Y-130673345D01*
X43414154Y-130797316D01*
X43563377Y-130889357D01*
X43729803Y-130944506D01*
X43829390Y-130954680D01*
X43835668Y-130954999D01*
X45182499Y-130954999D01*
X45182500Y-130954998D01*
X45182500Y-130100881D01*
X45275869Y-130139556D01*
X45393177Y-130155000D01*
X45471823Y-130155000D01*
X45589131Y-130139556D01*
X45682500Y-130100881D01*
X45682500Y-130954999D01*
X47029329Y-130954999D01*
X47035611Y-130954678D01*
X47135195Y-130944506D01*
X47301622Y-130889357D01*
X47450845Y-130797316D01*
X47574816Y-130673345D01*
X47666857Y-130524122D01*
X47722006Y-130357696D01*
X47732180Y-130258109D01*
X47732500Y-130251831D01*
X47732500Y-129805000D01*
X45978382Y-129805000D01*
X46017056Y-129711631D01*
X46037677Y-129555000D01*
X46017056Y-129398369D01*
X45978382Y-129305000D01*
X47732499Y-129305000D01*
X47732499Y-128858170D01*
X47732178Y-128851888D01*
X47722006Y-128752304D01*
X47666857Y-128585877D01*
X47574816Y-128436654D01*
X47450845Y-128312683D01*
X47301622Y-128220642D01*
X47135196Y-128165493D01*
X47035609Y-128155319D01*
X47029332Y-128155000D01*
X45682500Y-128155000D01*
X45682500Y-129009118D01*
X45589131Y-128970444D01*
X45471823Y-128955000D01*
X45393177Y-128955000D01*
X45275869Y-128970444D01*
X45182500Y-129009118D01*
X45182500Y-128155000D01*
X43835670Y-128155000D01*
X43829388Y-128155321D01*
X43729804Y-128165493D01*
X43563377Y-128220642D01*
X43414154Y-128312683D01*
X43290183Y-128436654D01*
X43198142Y-128585877D01*
X43142993Y-128752303D01*
X43132819Y-128851890D01*
X43132500Y-128858168D01*
X43132500Y-129305000D01*
X30825466Y-129305000D01*
X30844319Y-129202933D01*
X30854212Y-128932235D01*
X30824586Y-128662982D01*
X30756072Y-128400912D01*
X30650130Y-128151610D01*
X30509018Y-127920390D01*
X30509017Y-127920388D01*
X30335746Y-127712181D01*
X30230759Y-127618112D01*
X30134002Y-127531418D01*
X29908090Y-127381956D01*
X29908086Y-127381954D01*
X29662822Y-127266978D01*
X29403437Y-127188941D01*
X29403431Y-127188940D01*
X29135439Y-127149500D01*
X28932369Y-127149500D01*
X28930120Y-127149664D01*
X28930109Y-127149665D01*
X28729843Y-127164322D01*
X28465449Y-127223219D01*
X28212441Y-127319986D01*
X27976223Y-127452559D01*
X27761825Y-127618109D01*
X27573813Y-127813120D01*
X27416201Y-128033420D01*
X27292342Y-128274329D01*
X27204881Y-128530695D01*
X27155680Y-128797066D01*
X27145787Y-129067764D01*
X25000500Y-129067764D01*
X25000500Y-125124500D01*
X25020185Y-125057461D01*
X25072989Y-125011706D01*
X25124500Y-125000500D01*
X424875500Y-125000500D01*
X424942539Y-125020185D01*
G37*
G04 #@! TD.AperFunction*
G04 #@! TA.AperFunction,Conductor*
G36*
X423080507Y-142410156D02*
G01*
X423040000Y-142548111D01*
X423040000Y-142691889D01*
X423080507Y-142829844D01*
X423106314Y-142870000D01*
X421433686Y-142870000D01*
X421459493Y-142829844D01*
X421500000Y-142691889D01*
X421500000Y-142548111D01*
X421459493Y-142410156D01*
X421433686Y-142370000D01*
X423106314Y-142370000D01*
X423080507Y-142410156D01*
G37*
G04 #@! TD.AperFunction*
G04 #@! TA.AperFunction,Conductor*
G36*
X423790000Y-142184498D02*
G01*
X423682315Y-142135320D01*
X423575763Y-142120000D01*
X423504237Y-142120000D01*
X423397685Y-142135320D01*
X423290000Y-142184498D01*
X423290000Y-140515501D01*
X423397685Y-140564680D01*
X423504237Y-140580000D01*
X423575763Y-140580000D01*
X423682315Y-140564680D01*
X423790000Y-140515501D01*
X423790000Y-142184498D01*
G37*
G04 #@! TD.AperFunction*
G04 #@! TA.AperFunction,Conductor*
G36*
X423790000Y-139644498D02*
G01*
X423682315Y-139595320D01*
X423575763Y-139580000D01*
X423504237Y-139580000D01*
X423397685Y-139595320D01*
X423290000Y-139644498D01*
X423290000Y-137975501D01*
X423397685Y-138024680D01*
X423504237Y-138040000D01*
X423575763Y-138040000D01*
X423682315Y-138024680D01*
X423790000Y-137975501D01*
X423790000Y-139644498D01*
G37*
G04 #@! TD.AperFunction*
M02*
