M48
; DRILL file {KiCad 7.0.2} date Fri Jun  2 10:51:58 2023
; FORMAT={-:-/ absolute / metric / decimal}
; #@! TF.CreationDate,2023-06-02T10:51:58+02:00
; #@! TF.GenerationSoftware,Kicad,Pcbnew,7.0.2
; #@! TF.FileFunction,Plated,1,4,PTH
FMAT,2
METRIC
; #@! TA.AperFunction,Plated,PTH,ViaDrill
T1C0.400
; #@! TA.AperFunction,Plated,PTH,ComponentDrill
T2C1.000
; #@! TA.AperFunction,Plated,PTH,ComponentDrill
T3C1.200
; #@! TA.AperFunction,Plated,PTH,ComponentDrill
T4C1.400
%
G90
G05
T1
X82.08Y-129.2
X82.11Y-131.64
X89.51Y-138.64
X90.472Y-139.808
X91.551Y-140.593
X92.55Y-138.33
X92.574Y-141.334
X93.59Y-138.34
X99.94Y-129.21
X99.99Y-131.66
X187.11Y-131.63
X187.12Y-129.2
X194.48Y-138.465
X195.5Y-139.2
X196.54Y-140.0
X197.52Y-138.42
X197.524Y-140.734
X198.55Y-138.41
X204.87Y-129.12
X204.99Y-131.65
X292.09Y-129.15
X292.09Y-131.84
X299.5Y-138.565
X300.53Y-139.29
X301.52Y-140.1
X302.524Y-140.834
X302.54Y-138.4
X303.55Y-138.39
X309.91Y-129.12
X309.98Y-131.71
X397.15Y-129.27
X397.16Y-131.68
X404.49Y-138.465
X405.51Y-139.2
X406.54Y-140.0
X407.524Y-140.734
X407.55Y-138.43
X408.55Y-138.42
X414.95Y-129.13
X414.96Y-131.73
X416.4Y-137.9
X416.4Y-139.7
X418.925Y-141.825
X418.95Y-143.5
T2
X29.16Y-134.9
X29.16Y-137.44
X29.16Y-139.98
X29.16Y-142.52
X29.16Y-145.06
X31.7Y-134.9
X31.7Y-137.44
X31.7Y-139.98
X31.7Y-142.52
X31.7Y-145.06
X421.0Y-135.0
X421.0Y-137.54
X421.0Y-140.08
X421.0Y-142.62
X421.0Y-145.16
X423.54Y-135.0
X423.54Y-137.54
X423.54Y-140.08
X423.54Y-142.62
X423.54Y-145.16
T3
X45.432Y-129.555
X45.432Y-133.055
X45.432Y-136.555
X220.555Y-144.567
X224.055Y-144.567
X224.195Y-134.5
X227.695Y-134.5
X272.805Y-144.567
X276.305Y-144.567
X276.5Y-134.532
X280.0Y-134.532
X318.405Y-144.635
X321.905Y-144.635
X322.445Y-134.632
X325.945Y-134.632
X335.405Y-144.635
X338.905Y-144.635
X339.295Y-134.632
X342.795Y-134.632
X367.405Y-144.868
X370.905Y-144.868
X371.4Y-134.8
X374.9Y-134.8
X384.405Y-144.868
X387.905Y-144.868
X388.545Y-134.782
X392.045Y-134.782
T4
X46.277Y-144.46
X46.277Y-149.54
X69.46Y-136.722
X74.54Y-136.722
T2
X51.65Y-150.45G85X51.65Y-151.55
G05
X55.35Y-150.45G85X55.35Y-151.55
G05
X59.65Y-150.45G85X59.65Y-151.55
G05
X63.35Y-150.45G85X63.35Y-151.55
G05
X65.15Y-130.45G85X65.15Y-131.55
G05
X68.85Y-130.45G85X68.85Y-131.55
G05
X73.15Y-130.45G85X73.15Y-131.55
G05
X76.85Y-130.45G85X76.85Y-131.55
G05
X85.3Y-145.45G85X85.3Y-146.55
G05
X89.0Y-145.45G85X89.0Y-146.55
G05
X93.3Y-145.45G85X93.3Y-146.55
G05
X97.0Y-145.45G85X97.0Y-146.55
G05
X190.3Y-145.45G85X190.3Y-146.55
G05
X194.0Y-145.45G85X194.0Y-146.55
G05
X198.3Y-145.45G85X198.3Y-146.55
G05
X202.0Y-145.45G85X202.0Y-146.55
G05
X216.55Y-138.95G85X216.55Y-140.05
G05
X220.25Y-138.95G85X220.25Y-140.05
G05
X224.55Y-138.95G85X224.55Y-140.05
G05
X228.25Y-138.95G85X228.25Y-140.05
G05
X268.75Y-138.95G85X268.75Y-140.05
G05
X272.45Y-138.95G85X272.45Y-140.05
G05
X276.75Y-138.95G85X276.75Y-140.05
G05
X280.45Y-138.95G85X280.45Y-140.05
G05
X294.8Y-145.45G85X294.8Y-146.55
G05
X298.5Y-145.45G85X298.5Y-146.55
G05
X302.8Y-145.45G85X302.8Y-146.55
G05
X306.5Y-145.45G85X306.5Y-146.55
G05
X314.4Y-139.05G85X314.4Y-140.15
G05
X318.1Y-139.05G85X318.1Y-140.15
G05
X322.4Y-139.05G85X322.4Y-140.15
G05
X326.1Y-139.05G85X326.1Y-140.15
G05
X331.4Y-139.05G85X331.4Y-140.15
G05
X335.1Y-139.05G85X335.1Y-140.15
G05
X339.4Y-139.05G85X339.4Y-140.15
G05
X343.1Y-139.05G85X343.1Y-140.15
G05
X363.45Y-139.25G85X363.45Y-140.35
G05
X367.15Y-139.25G85X367.15Y-140.35
G05
X371.45Y-139.25G85X371.45Y-140.35
G05
X375.15Y-139.25G85X375.15Y-140.35
G05
X380.45Y-139.25G85X380.45Y-140.35
G05
X384.15Y-139.25G85X384.15Y-140.35
G05
X388.45Y-139.25G85X388.45Y-140.35
G05
X392.15Y-139.25G85X392.15Y-140.35
G05
X400.3Y-145.45G85X400.3Y-146.55
G05
X404.0Y-145.45G85X404.0Y-146.55
G05
X408.3Y-145.45G85X408.3Y-146.55
G05
X412.0Y-145.45G85X412.0Y-146.55
G05
T0
M30
