G04 #@! TF.GenerationSoftware,KiCad,Pcbnew,7.0.2*
G04 #@! TF.CreationDate,2023-06-02T10:52:13+02:00*
G04 #@! TF.ProjectId,Drawer_Controller_Distribution_v1,44726177-6572-45f4-936f-6e74726f6c6c,rev?*
G04 #@! TF.SameCoordinates,Original*
G04 #@! TF.FileFunction,Paste,Top*
G04 #@! TF.FilePolarity,Positive*
%FSLAX46Y46*%
G04 Gerber Fmt 4.6, Leading zero omitted, Abs format (unit mm)*
G04 Created by KiCad (PCBNEW 7.0.2) date 2023-06-02 10:52:13*
%MOMM*%
%LPD*%
G01*
G04 APERTURE LIST*
G04 Aperture macros list*
%AMRoundRect*
0 Rectangle with rounded corners*
0 $1 Rounding radius*
0 $2 $3 $4 $5 $6 $7 $8 $9 X,Y pos of 4 corners*
0 Add a 4 corners polygon primitive as box body*
4,1,4,$2,$3,$4,$5,$6,$7,$8,$9,$2,$3,0*
0 Add four circle primitives for the rounded corners*
1,1,$1+$1,$2,$3*
1,1,$1+$1,$4,$5*
1,1,$1+$1,$6,$7*
1,1,$1+$1,$8,$9*
0 Add four rect primitives between the rounded corners*
20,1,$1+$1,$2,$3,$4,$5,0*
20,1,$1+$1,$4,$5,$6,$7,0*
20,1,$1+$1,$6,$7,$8,$9,0*
20,1,$1+$1,$8,$9,$2,$3,0*%
G04 Aperture macros list end*
%ADD10RoundRect,0.250000X-0.450000X0.262500X-0.450000X-0.262500X0.450000X-0.262500X0.450000X0.262500X0*%
%ADD11R,0.610000X3.050000*%
%ADD12R,1.945000X3.900000*%
%ADD13R,0.555000X0.400000*%
G04 APERTURE END LIST*
D10*
X418000000Y-137887500D03*
X418000000Y-139712500D03*
D11*
X192444000Y-140477500D03*
X193460000Y-140477500D03*
X194476000Y-140477500D03*
X195492000Y-140477500D03*
X196508000Y-140477500D03*
X197524000Y-140477500D03*
X198540000Y-140477500D03*
X199556000Y-140477500D03*
D12*
X204947500Y-130477500D03*
D13*
X203700000Y-132227500D03*
X203700000Y-128727500D03*
D12*
X187052500Y-130477500D03*
D13*
X188300000Y-132227500D03*
X188300000Y-128727500D03*
D11*
X87444000Y-140477500D03*
X88460000Y-140477500D03*
X89476000Y-140477500D03*
X90492000Y-140477500D03*
X91508000Y-140477500D03*
X92524000Y-140477500D03*
X93540000Y-140477500D03*
X94556000Y-140477500D03*
D12*
X99947500Y-130477500D03*
D13*
X98700000Y-132227500D03*
X98700000Y-128727500D03*
D12*
X82052500Y-130477500D03*
D13*
X83300000Y-132227500D03*
X83300000Y-128727500D03*
D11*
X297444000Y-140477500D03*
X298460000Y-140477500D03*
X299476000Y-140477500D03*
X300492000Y-140477500D03*
X301508000Y-140477500D03*
X302524000Y-140477500D03*
X303540000Y-140477500D03*
X304556000Y-140477500D03*
D12*
X309947500Y-130477500D03*
D13*
X308700000Y-132227500D03*
X308700000Y-128727500D03*
D12*
X292052500Y-130477500D03*
D13*
X293300000Y-132227500D03*
X293300000Y-128727500D03*
D11*
X402444000Y-140477500D03*
X403460000Y-140477500D03*
X404476000Y-140477500D03*
X405492000Y-140477500D03*
X406508000Y-140477500D03*
X407524000Y-140477500D03*
X408540000Y-140477500D03*
X409556000Y-140477500D03*
D12*
X414947500Y-130477500D03*
D13*
X413700000Y-132227500D03*
X413700000Y-128727500D03*
D12*
X397052500Y-130477500D03*
D13*
X398300000Y-132227500D03*
X398300000Y-128727500D03*
M02*
