G04 #@! TF.GenerationSoftware,KiCad,Pcbnew,7.0.2*
G04 #@! TF.CreationDate,2023-06-02T10:52:13+02:00*
G04 #@! TF.ProjectId,Drawer_Controller_Distribution_v1,44726177-6572-45f4-936f-6e74726f6c6c,rev?*
G04 #@! TF.SameCoordinates,Original*
G04 #@! TF.FileFunction,Legend,Bot*
G04 #@! TF.FilePolarity,Positive*
%FSLAX46Y46*%
G04 Gerber Fmt 4.6, Leading zero omitted, Abs format (unit mm)*
G04 Created by KiCad (PCBNEW 7.0.2) date 2023-06-02 10:52:13*
%MOMM*%
%LPD*%
G01*
G04 APERTURE LIST*
G04 Aperture macros list*
%AMRoundRect*
0 Rectangle with rounded corners*
0 $1 Rounding radius*
0 $2 $3 $4 $5 $6 $7 $8 $9 X,Y pos of 4 corners*
0 Add a 4 corners polygon primitive as box body*
4,1,4,$2,$3,$4,$5,$6,$7,$8,$9,$2,$3,0*
0 Add four circle primitives for the rounded corners*
1,1,$1+$1,$2,$3*
1,1,$1+$1,$4,$5*
1,1,$1+$1,$6,$7*
1,1,$1+$1,$8,$9*
0 Add four rect primitives between the rounded corners*
20,1,$1+$1,$2,$3,$4,$5,0*
20,1,$1+$1,$4,$5,$6,$7,0*
20,1,$1+$1,$6,$7,$8,$9,0*
20,1,$1+$1,$8,$9,$2,$3,0*%
G04 Aperture macros list end*
%ADD10RoundRect,0.250000X0.650000X1.550000X-0.650000X1.550000X-0.650000X-1.550000X0.650000X-1.550000X0*%
%ADD11O,1.800000X3.600000*%
%ADD12C,4.300000*%
%ADD13RoundRect,0.250000X-0.650000X-1.550000X0.650000X-1.550000X0.650000X1.550000X-0.650000X1.550000X0*%
%ADD14O,2.500000X3.600000*%
%ADD15C,3.200000*%
%ADD16RoundRect,0.249999X-0.790001X-1.550001X0.790001X-1.550001X0.790001X1.550001X-0.790001X1.550001X0*%
%ADD17O,2.080000X3.600000*%
%ADD18RoundRect,0.249999X-1.550001X0.790001X-1.550001X-0.790001X1.550001X-0.790001X1.550001X0.790001X0*%
%ADD19O,3.600000X2.080000*%
%ADD20R,1.700000X1.700000*%
%ADD21O,1.700000X1.700000*%
%ADD22C,3.250000*%
%ADD23RoundRect,0.250000X-1.550000X0.650000X-1.550000X-0.650000X1.550000X-0.650000X1.550000X0.650000X0*%
%ADD24O,3.600000X1.800000*%
G04 APERTURE END LIST*
G36*
X178162434Y-144648983D02*
G01*
X178140603Y-144831537D01*
X178103664Y-144989496D01*
X178054029Y-145106314D01*
X178043926Y-145121340D01*
X177968486Y-145197048D01*
X177872780Y-145256855D01*
X177750155Y-145293874D01*
X177591844Y-145312331D01*
X177430214Y-145308420D01*
X177291829Y-145281034D01*
X177219344Y-145251325D01*
X177117701Y-145180033D01*
X177043553Y-145077976D01*
X176994087Y-144938771D01*
X176966490Y-144756035D01*
X176957949Y-144523385D01*
X177163914Y-144523385D01*
X177163948Y-144532466D01*
X177169334Y-144718121D01*
X177185626Y-144856564D01*
X177215874Y-144958222D01*
X177263125Y-145033520D01*
X177330429Y-145092887D01*
X177348126Y-145103125D01*
X177438807Y-145128739D01*
X177554504Y-145137293D01*
X177670861Y-145128314D01*
X177763524Y-145101326D01*
X177809357Y-145072297D01*
X177874832Y-144994361D01*
X177919020Y-144878621D01*
X177943903Y-144718829D01*
X177951463Y-144508737D01*
X177944244Y-144311644D01*
X177919236Y-144151073D01*
X177872771Y-144036183D01*
X177801182Y-143961230D01*
X177700799Y-143920470D01*
X177567957Y-143908160D01*
X177515099Y-143909270D01*
X177389783Y-143926354D01*
X177296763Y-143969047D01*
X177231853Y-144043722D01*
X177190866Y-144156753D01*
X177169615Y-144314516D01*
X177163914Y-144523385D01*
X176957949Y-144523385D01*
X176963723Y-144330866D01*
X176990092Y-144127208D01*
X177041006Y-143971029D01*
X177119958Y-143857721D01*
X177230438Y-143782676D01*
X177375939Y-143741287D01*
X177559952Y-143728945D01*
X177733138Y-143741257D01*
X177883477Y-143784656D01*
X177996896Y-143864082D01*
X178078008Y-143984429D01*
X178131426Y-144150593D01*
X178161765Y-144367468D01*
X178166745Y-144458377D01*
X178165606Y-144508737D01*
X178162434Y-144648983D01*
G37*
G36*
X176438343Y-144514068D02*
G01*
X176438736Y-144552681D01*
X176446150Y-145281107D01*
X176365102Y-145293358D01*
X176276810Y-145302166D01*
X176144271Y-145307722D01*
X175995631Y-145308686D01*
X175849534Y-145305247D01*
X175724621Y-145297597D01*
X175639533Y-145285927D01*
X175565654Y-145260753D01*
X175461261Y-145182434D01*
X175397040Y-145066515D01*
X175380339Y-144952413D01*
X175570116Y-144952413D01*
X175589126Y-145009028D01*
X175634684Y-145063183D01*
X175665670Y-145091873D01*
X175707075Y-145117249D01*
X175762563Y-145131307D01*
X175846964Y-145137332D01*
X175975110Y-145138610D01*
X176240110Y-145138610D01*
X176240110Y-144845646D01*
X176240110Y-144552681D01*
X176071655Y-144553380D01*
X175988296Y-144555814D01*
X175831249Y-144573501D01*
X175708309Y-144606063D01*
X175631320Y-144650876D01*
X175616512Y-144672690D01*
X175590035Y-144746782D01*
X175573333Y-144841272D01*
X175570883Y-144868846D01*
X175570116Y-144952413D01*
X175380339Y-144952413D01*
X175375345Y-144918293D01*
X175398524Y-144743061D01*
X175429306Y-144647337D01*
X175473156Y-144585770D01*
X175546842Y-144535338D01*
X175659226Y-144472410D01*
X175581532Y-144452910D01*
X175551458Y-144441182D01*
X175485457Y-144377545D01*
X175441502Y-144278013D01*
X175426534Y-144182609D01*
X175615876Y-144182609D01*
X175637160Y-144283181D01*
X175684174Y-144354061D01*
X175710138Y-144371451D01*
X175769887Y-144392326D01*
X175859947Y-144403124D01*
X175994336Y-144406199D01*
X176240110Y-144406199D01*
X176240110Y-144157180D01*
X176240110Y-143908160D01*
X175980983Y-143908160D01*
X175941598Y-143908265D01*
X175825551Y-143911250D01*
X175750585Y-143920282D01*
X175702909Y-143937955D01*
X175668732Y-143966861D01*
X175654231Y-143985964D01*
X175621255Y-144075738D01*
X175615876Y-144182609D01*
X175426534Y-144182609D01*
X175422515Y-144156996D01*
X175431415Y-144028908D01*
X175471124Y-143908160D01*
X175493214Y-143870116D01*
X175548293Y-143812193D01*
X175627091Y-143772436D01*
X175738161Y-143748512D01*
X175890053Y-143738084D01*
X176091317Y-143738819D01*
X176430537Y-143747030D01*
X176432177Y-143908160D01*
X176438343Y-144514068D01*
G37*
G36*
X174910758Y-144729376D02*
G01*
X174874272Y-144941890D01*
X174808663Y-145104518D01*
X174713714Y-145217826D01*
X174589209Y-145282383D01*
X174565844Y-145288547D01*
X174423111Y-145308844D01*
X174263963Y-145309732D01*
X174112627Y-145292230D01*
X173993328Y-145257354D01*
X173961071Y-145241511D01*
X173873484Y-145179241D01*
X173809780Y-145093922D01*
X173766353Y-144976859D01*
X173739597Y-144819359D01*
X173725905Y-144612728D01*
X173723556Y-144524028D01*
X173723934Y-144507203D01*
X173925692Y-144507203D01*
X173928022Y-144632396D01*
X173944259Y-144811951D01*
X173977643Y-144944738D01*
X174030123Y-145037203D01*
X174103647Y-145095791D01*
X174194840Y-145128239D01*
X174330723Y-145140230D01*
X174462407Y-145118116D01*
X174567109Y-145063486D01*
X174593570Y-145039087D01*
X174651663Y-144959470D01*
X174689552Y-144854006D01*
X174710150Y-144712157D01*
X174716369Y-144523385D01*
X174710657Y-144347735D01*
X174688084Y-144185873D01*
X174646463Y-144065273D01*
X174583783Y-143977659D01*
X174561674Y-143957240D01*
X174509835Y-143926413D01*
X174438816Y-143911833D01*
X174329044Y-143908160D01*
X174291560Y-143908700D01*
X174161776Y-143923698D01*
X174065271Y-143964047D01*
X173997728Y-144036158D01*
X173954830Y-144146446D01*
X173932257Y-144301324D01*
X173925692Y-144507203D01*
X173723934Y-144507203D01*
X173728925Y-144284852D01*
X173755878Y-144095405D01*
X173807618Y-143950974D01*
X173887351Y-143846844D01*
X173998280Y-143778303D01*
X174143611Y-143740635D01*
X174326547Y-143729126D01*
X174390283Y-143730192D01*
X174550343Y-143748071D01*
X174669992Y-143792376D01*
X174760545Y-143868775D01*
X174833315Y-143982935D01*
X174836213Y-143988756D01*
X174871660Y-144071917D01*
X174894682Y-144160137D01*
X174908670Y-144271248D01*
X174917015Y-144423079D01*
X174918338Y-144466407D01*
X174916696Y-144523385D01*
X174910758Y-144729376D01*
G37*
G36*
X170445521Y-143736836D02*
G01*
X170551536Y-143743176D01*
X170700204Y-143766504D01*
X170808567Y-143809773D01*
X170887545Y-143878202D01*
X170948058Y-143977011D01*
X170961280Y-144007595D01*
X171004190Y-144158132D01*
X171030703Y-144341746D01*
X171038842Y-144539409D01*
X171026626Y-144732096D01*
X171018220Y-144791766D01*
X170973327Y-144983871D01*
X170905492Y-145126653D01*
X170811804Y-145224869D01*
X170689354Y-145283272D01*
X170629465Y-145295364D01*
X170508756Y-145306911D01*
X170367204Y-145311110D01*
X170226875Y-145307491D01*
X170109833Y-145295584D01*
X170045111Y-145280888D01*
X170008476Y-145253144D01*
X169999906Y-145200694D01*
X169999840Y-145123962D01*
X170275895Y-145133241D01*
X170442361Y-145133536D01*
X170582327Y-145116129D01*
X170683662Y-145073788D01*
X170752246Y-144999928D01*
X170793957Y-144887965D01*
X170814672Y-144731312D01*
X170820271Y-144523385D01*
X170816087Y-144327488D01*
X170798900Y-144170030D01*
X170762928Y-144056985D01*
X170702396Y-143981315D01*
X170611531Y-143935981D01*
X170484562Y-143913942D01*
X170315713Y-143908160D01*
X170257280Y-143908127D01*
X170146347Y-143906862D01*
X170078897Y-143901709D01*
X170044113Y-143889924D01*
X170031176Y-143868762D01*
X170029268Y-143835477D01*
X170030177Y-143818166D01*
X170045728Y-143777893D01*
X170086869Y-143751559D01*
X170161770Y-143737228D01*
X170278597Y-143732966D01*
X170445521Y-143736836D01*
G37*
G36*
X166953371Y-143736887D02*
G01*
X166990215Y-143738169D01*
X167114204Y-143743874D01*
X167196061Y-143752498D01*
X167249096Y-143767376D01*
X167286616Y-143791841D01*
X167321930Y-143829228D01*
X167339325Y-143850680D01*
X167372578Y-143909841D01*
X167388502Y-143985412D01*
X167392590Y-144098313D01*
X167389196Y-144214548D01*
X167369809Y-144334048D01*
X167325736Y-144421508D01*
X167248578Y-144486444D01*
X167129936Y-144538372D01*
X166961412Y-144586808D01*
X166866066Y-144611813D01*
X166746179Y-144649409D01*
X166669041Y-144688125D01*
X166625398Y-144735723D01*
X166605997Y-144799963D01*
X166601586Y-144888604D01*
X166601608Y-144897165D01*
X166607411Y-144990722D01*
X166629331Y-145056622D01*
X166675835Y-145099613D01*
X166755394Y-145124443D01*
X166876476Y-145135859D01*
X167047551Y-145138610D01*
X167137080Y-145139584D01*
X167257916Y-145145109D01*
X167337699Y-145154816D01*
X167367688Y-145167906D01*
X167372175Y-145225971D01*
X167351885Y-145267086D01*
X167290052Y-145288662D01*
X167247331Y-145295843D01*
X167128619Y-145306104D01*
X166987032Y-145310007D01*
X166842862Y-145307672D01*
X166716404Y-145299218D01*
X166627950Y-145284764D01*
X166556354Y-145259068D01*
X166473542Y-145198178D01*
X166424797Y-145103784D01*
X166402329Y-144964838D01*
X166399746Y-144886031D01*
X166415447Y-144733393D01*
X166457764Y-144614155D01*
X166523635Y-144539062D01*
X166542577Y-144528952D01*
X166618360Y-144498362D01*
X166726606Y-144461574D01*
X166850546Y-144424464D01*
X166983134Y-144383147D01*
X167101379Y-144333579D01*
X167165482Y-144287318D01*
X167170805Y-144280388D01*
X167209922Y-144183836D01*
X167210220Y-144072430D01*
X167171205Y-143973271D01*
X167161201Y-143959781D01*
X167135552Y-143935981D01*
X167097085Y-143920875D01*
X167034357Y-143912507D01*
X166935927Y-143908921D01*
X166790352Y-143908160D01*
X166455104Y-143908160D01*
X166455104Y-143836246D01*
X166458453Y-143809710D01*
X166483203Y-143773886D01*
X166538029Y-143750096D01*
X166629971Y-143736936D01*
X166766072Y-143733001D01*
X166953371Y-143736887D01*
G37*
G36*
X165514509Y-143736887D02*
G01*
X165600934Y-143740329D01*
X165712482Y-143748117D01*
X165786048Y-143760481D01*
X165834718Y-143780084D01*
X165871576Y-143809592D01*
X165917429Y-143874609D01*
X165956071Y-143993852D01*
X165966563Y-144130829D01*
X165949803Y-144267807D01*
X165906689Y-144387053D01*
X165838117Y-144470835D01*
X165829698Y-144476546D01*
X165756926Y-144511822D01*
X165650567Y-144550656D01*
X165530504Y-144585625D01*
X165427293Y-144612756D01*
X165308731Y-144650265D01*
X165232521Y-144688961D01*
X165189469Y-144736486D01*
X165170381Y-144800486D01*
X165166061Y-144888604D01*
X165166069Y-144893705D01*
X165171573Y-144988512D01*
X165193075Y-145055331D01*
X165239067Y-145098956D01*
X165318039Y-145124182D01*
X165438484Y-145135802D01*
X165608892Y-145138610D01*
X165691650Y-145138979D01*
X165807921Y-145142233D01*
X165881186Y-145150031D01*
X165921590Y-145163796D01*
X165939282Y-145184950D01*
X165954684Y-145245597D01*
X165932481Y-145277561D01*
X165861851Y-145293195D01*
X165831455Y-145296605D01*
X165696452Y-145305834D01*
X165546791Y-145309034D01*
X165400728Y-145306436D01*
X165276520Y-145298270D01*
X165192425Y-145284764D01*
X165106303Y-145252148D01*
X165030643Y-145189787D01*
X164986636Y-145093778D01*
X164966580Y-144952796D01*
X164966384Y-144949683D01*
X164964913Y-144797655D01*
X164986698Y-144681500D01*
X165038787Y-144593390D01*
X165128231Y-144525502D01*
X165262078Y-144470010D01*
X165447377Y-144419088D01*
X165575000Y-144380552D01*
X165692373Y-144317419D01*
X165759750Y-144236011D01*
X165781286Y-144132768D01*
X165768820Y-144050291D01*
X165735680Y-143973271D01*
X165725676Y-143959781D01*
X165700028Y-143935981D01*
X165661560Y-143920875D01*
X165598832Y-143912507D01*
X165500402Y-143908921D01*
X165354827Y-143908160D01*
X165019579Y-143908160D01*
X165019579Y-143836246D01*
X165022577Y-143811022D01*
X165046712Y-143774655D01*
X165100939Y-143750470D01*
X165192292Y-143737055D01*
X165327804Y-143732998D01*
X165514509Y-143736887D01*
G37*
G36*
X163320615Y-143736887D02*
G01*
X163357458Y-143738169D01*
X163481447Y-143743874D01*
X163563305Y-143752498D01*
X163616339Y-143767376D01*
X163653859Y-143791841D01*
X163689174Y-143829228D01*
X163706568Y-143850680D01*
X163739822Y-143909841D01*
X163755746Y-143985412D01*
X163759833Y-144098313D01*
X163756440Y-144214548D01*
X163737052Y-144334048D01*
X163692979Y-144421508D01*
X163615822Y-144486444D01*
X163497180Y-144538372D01*
X163328655Y-144586808D01*
X163233309Y-144611813D01*
X163113423Y-144649409D01*
X163036284Y-144688125D01*
X162992641Y-144735723D01*
X162973240Y-144799963D01*
X162968829Y-144888604D01*
X162968851Y-144897165D01*
X162974655Y-144990722D01*
X162996574Y-145056622D01*
X163043078Y-145099613D01*
X163122637Y-145124443D01*
X163243720Y-145135859D01*
X163414794Y-145138610D01*
X163504324Y-145139584D01*
X163625160Y-145145109D01*
X163704943Y-145154816D01*
X163734931Y-145167906D01*
X163739418Y-145225971D01*
X163719128Y-145267086D01*
X163657295Y-145288662D01*
X163614574Y-145295843D01*
X163495862Y-145306104D01*
X163354275Y-145310007D01*
X163210106Y-145307672D01*
X163083648Y-145299218D01*
X162995194Y-145284764D01*
X162923597Y-145259068D01*
X162840785Y-145198178D01*
X162792041Y-145103784D01*
X162769572Y-144964838D01*
X162766989Y-144886031D01*
X162782690Y-144733393D01*
X162825007Y-144614155D01*
X162890879Y-144539062D01*
X162909820Y-144528952D01*
X162985604Y-144498362D01*
X163093849Y-144461574D01*
X163217789Y-144424464D01*
X163350378Y-144383147D01*
X163468622Y-144333579D01*
X163532726Y-144287318D01*
X163538048Y-144280388D01*
X163577165Y-144183836D01*
X163577463Y-144072430D01*
X163538449Y-143973271D01*
X163528444Y-143959781D01*
X163502796Y-143935981D01*
X163464328Y-143920875D01*
X163401601Y-143912507D01*
X163303170Y-143908921D01*
X163157595Y-143908160D01*
X162822347Y-143908160D01*
X162822347Y-143836246D01*
X162825697Y-143809710D01*
X162850447Y-143773886D01*
X162905272Y-143750096D01*
X162997215Y-143736936D01*
X163133315Y-143733001D01*
X163320615Y-143736887D01*
G37*
G36*
X179667791Y-144508737D02*
G01*
X179667791Y-145285092D01*
X179565254Y-145285092D01*
X179462716Y-145285092D01*
X179462716Y-144962831D01*
X179462716Y-144640571D01*
X179263241Y-144640571D01*
X179171824Y-144643871D01*
X179071390Y-144657260D01*
X179011881Y-144678509D01*
X178996523Y-144696363D01*
X178960380Y-144765248D01*
X178918901Y-144868990D01*
X178878095Y-144993446D01*
X178796193Y-145270444D01*
X178690893Y-145279484D01*
X178585594Y-145288523D01*
X178628980Y-145147650D01*
X178642684Y-145102942D01*
X178681364Y-144975435D01*
X178717878Y-144853606D01*
X178727734Y-144823279D01*
X178778883Y-144714010D01*
X178839210Y-144640797D01*
X178846211Y-144635219D01*
X178891217Y-144594618D01*
X178903233Y-144574243D01*
X178902117Y-144573607D01*
X178866728Y-144554899D01*
X178803971Y-144522499D01*
X178772347Y-144504200D01*
X178697618Y-144430102D01*
X178656013Y-144322677D01*
X178644168Y-144186476D01*
X178847492Y-144186476D01*
X178850511Y-144267249D01*
X178868195Y-144349743D01*
X178906084Y-144406199D01*
X178908724Y-144408801D01*
X178947851Y-144437430D01*
X179002078Y-144454468D01*
X179085871Y-144462670D01*
X179213697Y-144464792D01*
X179462716Y-144464792D01*
X179462716Y-144186476D01*
X179462716Y-143908160D01*
X179213697Y-143908160D01*
X179171426Y-143908423D01*
X179030888Y-143916782D01*
X178937197Y-143941950D01*
X178881380Y-143990743D01*
X178854469Y-144069979D01*
X178847492Y-144186476D01*
X178644168Y-144186476D01*
X178642894Y-144171828D01*
X178645747Y-144098232D01*
X178678339Y-143944982D01*
X178746091Y-143834803D01*
X178847492Y-143770655D01*
X178911194Y-143757577D01*
X179021248Y-143745801D01*
X179159118Y-143737533D01*
X179308910Y-143734035D01*
X179667791Y-143732381D01*
X179667791Y-143908160D01*
X179667791Y-144508737D01*
G37*
G36*
X173369060Y-143819664D02*
G01*
X173369060Y-143908160D01*
X173120041Y-143908160D01*
X172871021Y-143908160D01*
X172871021Y-144596626D01*
X172871021Y-145285092D01*
X172768483Y-145285092D01*
X172665946Y-145285092D01*
X172665946Y-144596626D01*
X172665946Y-143908160D01*
X172414980Y-143908160D01*
X172164015Y-143908160D01*
X172173285Y-143827595D01*
X172182555Y-143747030D01*
X172775808Y-143739099D01*
X173369060Y-143731168D01*
X173369060Y-143819664D01*
G37*
G36*
X171647895Y-143737849D02*
G01*
X171743109Y-143747030D01*
X171750919Y-144516061D01*
X171758730Y-145285092D01*
X171655706Y-145285092D01*
X171552682Y-145285092D01*
X171552682Y-144506880D01*
X171552682Y-143728669D01*
X171647895Y-143737849D01*
G37*
G36*
X168880048Y-144684317D02*
G01*
X168937310Y-144853240D01*
X168987341Y-145004622D01*
X169026984Y-145129424D01*
X169053084Y-145218606D01*
X169062486Y-145263131D01*
X169062095Y-145265102D01*
X169031009Y-145279284D01*
X168965412Y-145285092D01*
X168919408Y-145283246D01*
X168886045Y-145270164D01*
X168860412Y-145234568D01*
X168834579Y-145165179D01*
X168800616Y-145050720D01*
X168732893Y-144816349D01*
X168403721Y-144816349D01*
X168074549Y-144816349D01*
X168007814Y-145050720D01*
X167975220Y-145162469D01*
X167949631Y-145233051D01*
X167924306Y-145269489D01*
X167891286Y-145283073D01*
X167842613Y-145285092D01*
X167832795Y-145285052D01*
X167769874Y-145282479D01*
X167744147Y-145277122D01*
X167745828Y-145266561D01*
X167762506Y-145206885D01*
X167794542Y-145105813D01*
X167838837Y-144972156D01*
X167892296Y-144814727D01*
X167951824Y-144642336D01*
X167960134Y-144618598D01*
X168153528Y-144618598D01*
X168154212Y-144620802D01*
X168188292Y-144632854D01*
X168261975Y-144639662D01*
X168358916Y-144641585D01*
X168462768Y-144638982D01*
X168557186Y-144632214D01*
X168625824Y-144621641D01*
X168652336Y-144607621D01*
X168652222Y-144603951D01*
X168641181Y-144545905D01*
X168615309Y-144453872D01*
X168579170Y-144340713D01*
X168537327Y-144219289D01*
X168494343Y-144102461D01*
X168454780Y-144003090D01*
X168423202Y-143934036D01*
X168404171Y-143908160D01*
X168400867Y-143910071D01*
X168378887Y-143948586D01*
X168345341Y-144026949D01*
X168304735Y-144132385D01*
X168261575Y-144252121D01*
X168220368Y-144373384D01*
X168185620Y-144483400D01*
X168161838Y-144569396D01*
X168153528Y-144618598D01*
X167960134Y-144618598D01*
X168014324Y-144463794D01*
X168076699Y-144287913D01*
X168135854Y-144123504D01*
X168188693Y-143979378D01*
X168232120Y-143864347D01*
X168263037Y-143787221D01*
X168278351Y-143756813D01*
X168297396Y-143747556D01*
X168379705Y-143733756D01*
X168471742Y-143741410D01*
X168540832Y-143769002D01*
X168541824Y-143769984D01*
X168561342Y-143808602D01*
X168595720Y-143892952D01*
X168641802Y-144013995D01*
X168696431Y-144162692D01*
X168756453Y-144330004D01*
X168818710Y-144506892D01*
X168853533Y-144607621D01*
X168880048Y-144684317D01*
G37*
G36*
X164462947Y-144506880D02*
G01*
X164462947Y-145285092D01*
X164359923Y-145285092D01*
X164256899Y-145285092D01*
X164264710Y-144516061D01*
X164272520Y-143747030D01*
X164367734Y-143737849D01*
X164462947Y-143728669D01*
X164462947Y-144506880D01*
G37*
G36*
X162412197Y-143820271D02*
G01*
X162412197Y-143908160D01*
X162163178Y-143908160D01*
X161914158Y-143908160D01*
X161914158Y-144596626D01*
X161914158Y-145285092D01*
X161811621Y-145285092D01*
X161709083Y-145285092D01*
X161709083Y-144596626D01*
X161709083Y-143908160D01*
X161460064Y-143908160D01*
X161211044Y-143908160D01*
X161211044Y-143820271D01*
X161211044Y-143732381D01*
X161811621Y-143732381D01*
X162412197Y-143732381D01*
X162412197Y-143820271D01*
G37*
G36*
X161089898Y-145285092D02*
G01*
X160990569Y-145285092D01*
X160945939Y-145283565D01*
X160910535Y-145271439D01*
X160883385Y-145237371D01*
X160855955Y-145170020D01*
X160819709Y-145058045D01*
X160748179Y-144830997D01*
X160425696Y-144822739D01*
X160103214Y-144814481D01*
X160024850Y-145049786D01*
X159987211Y-145160276D01*
X159957877Y-145231471D01*
X159930484Y-145268633D01*
X159896735Y-145282820D01*
X159848334Y-145285092D01*
X159750183Y-145285092D01*
X159970007Y-144633246D01*
X160157005Y-144633246D01*
X160163547Y-144634883D01*
X160214171Y-144637801D01*
X160304013Y-144639818D01*
X160420041Y-144640571D01*
X160478936Y-144640385D01*
X160583889Y-144638972D01*
X160656334Y-144636471D01*
X160683229Y-144633246D01*
X160683096Y-144632564D01*
X160672840Y-144597888D01*
X160648641Y-144519407D01*
X160613861Y-144407954D01*
X160571861Y-144274365D01*
X160535083Y-144162254D01*
X160486682Y-144031824D01*
X160448070Y-143950711D01*
X160420917Y-143922808D01*
X160404053Y-143935459D01*
X160368947Y-143999382D01*
X160323438Y-144113684D01*
X160269250Y-144274365D01*
X160264181Y-144290336D01*
X160222561Y-144421918D01*
X160188567Y-144530148D01*
X160165587Y-144604199D01*
X160157005Y-144633246D01*
X159970007Y-144633246D01*
X160004546Y-144530826D01*
X160030977Y-144452528D01*
X160101975Y-144243747D01*
X160158254Y-144082211D01*
X160202542Y-143961556D01*
X160237562Y-143875421D01*
X160266041Y-143817442D01*
X160290702Y-143781256D01*
X160314272Y-143760502D01*
X160339475Y-143748815D01*
X160386248Y-143737919D01*
X160500606Y-143748815D01*
X160509062Y-143751975D01*
X160533443Y-143765886D01*
X160557066Y-143790913D01*
X160582659Y-143833419D01*
X160612946Y-143899766D01*
X160650652Y-143996318D01*
X160698502Y-144129436D01*
X160759221Y-144305485D01*
X160835535Y-144530826D01*
X160870074Y-144633246D01*
X161089898Y-145285092D01*
G37*
G36*
X158258939Y-143737813D02*
G01*
X158354643Y-143747030D01*
X158359392Y-144415831D01*
X158360289Y-144521529D01*
X158362564Y-144703271D01*
X158365465Y-144860030D01*
X158368790Y-144983404D01*
X158372334Y-145064990D01*
X158375894Y-145096386D01*
X158387311Y-145080704D01*
X158420768Y-145018883D01*
X158472606Y-144916739D01*
X158539384Y-144781182D01*
X158617663Y-144619122D01*
X158704001Y-144437469D01*
X158781793Y-144272921D01*
X158865835Y-144097978D01*
X158932589Y-143965647D01*
X158986332Y-143869968D01*
X159031336Y-143804982D01*
X159071878Y-143764730D01*
X159112231Y-143743252D01*
X159156670Y-143734589D01*
X159209470Y-143732781D01*
X159245433Y-143733867D01*
X159283382Y-143742584D01*
X159312363Y-143765423D01*
X159333579Y-143808737D01*
X159348237Y-143878879D01*
X159357539Y-143982201D01*
X159362693Y-144125056D01*
X159364901Y-144313796D01*
X159365369Y-144554774D01*
X159365369Y-145285092D01*
X159262832Y-145285092D01*
X159160294Y-145285092D01*
X159160294Y-144606391D01*
X159159970Y-144487406D01*
X159158148Y-144309357D01*
X159154939Y-144158625D01*
X159150591Y-144043029D01*
X159145351Y-143970388D01*
X159139466Y-143948519D01*
X159128468Y-143966868D01*
X159094434Y-144032405D01*
X159041741Y-144137939D01*
X158974069Y-144276007D01*
X158895097Y-144439147D01*
X158808501Y-144619896D01*
X158498365Y-145270444D01*
X158338615Y-145270444D01*
X158178864Y-145270444D01*
X158171050Y-144499520D01*
X158163236Y-143728596D01*
X158258939Y-143737813D01*
G37*
G36*
X157724769Y-143819086D02*
G01*
X157724769Y-143905790D01*
X157483074Y-143914299D01*
X157241378Y-143922808D01*
X157233514Y-144603950D01*
X157225650Y-145285092D01*
X157138841Y-145285092D01*
X157052032Y-145285092D01*
X157044168Y-144603950D01*
X157036304Y-143922808D01*
X156794608Y-143914299D01*
X156552913Y-143905790D01*
X156552913Y-143819086D01*
X156552913Y-143732381D01*
X157138841Y-143732381D01*
X157724769Y-143732381D01*
X157724769Y-143819086D01*
G37*
G36*
X172108050Y-140405081D02*
G01*
X172170339Y-140420829D01*
X172257867Y-140449205D01*
X172260561Y-140450151D01*
X172416489Y-140500980D01*
X172566497Y-140540420D01*
X172721320Y-140569771D01*
X172891691Y-140590334D01*
X173088344Y-140603412D01*
X173322013Y-140610304D01*
X173603432Y-140612312D01*
X173623685Y-140612305D01*
X173898004Y-140610145D01*
X174125633Y-140603237D01*
X174317639Y-140590254D01*
X174485089Y-140569873D01*
X174639053Y-140540769D01*
X174790599Y-140501618D01*
X174950793Y-140451096D01*
X175021603Y-140428892D01*
X175091955Y-140411226D01*
X175124068Y-140409342D01*
X175125433Y-140436463D01*
X175111603Y-140506394D01*
X175085410Y-140603287D01*
X175051297Y-140712140D01*
X175013707Y-140817950D01*
X174977082Y-140905713D01*
X174929164Y-140995363D01*
X174783054Y-141182428D01*
X174593172Y-141334070D01*
X174363480Y-141447521D01*
X174097940Y-141520012D01*
X173926548Y-141543648D01*
X173654711Y-141558782D01*
X173378993Y-141551621D01*
X173128401Y-141522101D01*
X173029908Y-141502088D01*
X172774760Y-141421118D01*
X172563963Y-141304685D01*
X172394319Y-141150702D01*
X172262631Y-140957083D01*
X172254957Y-140942229D01*
X172212283Y-140847316D01*
X172169546Y-140735588D01*
X172131236Y-140621236D01*
X172101843Y-140518454D01*
X172085858Y-140441433D01*
X172087770Y-140404367D01*
X172108050Y-140405081D01*
G37*
G36*
X162690970Y-137304448D02*
G01*
X162885509Y-137312205D01*
X163045574Y-137324697D01*
X163159210Y-137342025D01*
X163210012Y-137354265D01*
X163447043Y-137433005D01*
X163635719Y-137539205D01*
X163779987Y-137677601D01*
X163883795Y-137852924D01*
X163951090Y-138069909D01*
X163985819Y-138333288D01*
X163990921Y-138470427D01*
X163970100Y-138738850D01*
X163904574Y-138973248D01*
X163792873Y-139177896D01*
X163633527Y-139357065D01*
X163562602Y-139417420D01*
X163467349Y-139485797D01*
X163353391Y-139553887D01*
X163213343Y-139625422D01*
X163039816Y-139704134D01*
X162825425Y-139793754D01*
X162562783Y-139898014D01*
X162436537Y-139948528D01*
X162285486Y-140012455D01*
X162157562Y-140070492D01*
X162063360Y-140117789D01*
X162013475Y-140149495D01*
X161986113Y-140178442D01*
X161952662Y-140246938D01*
X161943455Y-140347245D01*
X161943455Y-140348025D01*
X161947168Y-140422319D01*
X161961731Y-140482742D01*
X161992441Y-140530499D01*
X162044593Y-140566796D01*
X162123484Y-140592838D01*
X162234409Y-140609829D01*
X162382665Y-140618974D01*
X162573548Y-140621479D01*
X162812353Y-140618549D01*
X163104378Y-140611388D01*
X163222051Y-140608160D01*
X163428100Y-140602890D01*
X163585546Y-140599866D01*
X163701130Y-140599379D01*
X163781590Y-140601720D01*
X163833667Y-140607180D01*
X163864100Y-140616049D01*
X163879629Y-140628620D01*
X163886992Y-140645182D01*
X163889354Y-140655036D01*
X163898243Y-140718375D01*
X163907512Y-140816415D01*
X163916411Y-140935859D01*
X163924187Y-141063407D01*
X163930088Y-141185760D01*
X163933362Y-141289621D01*
X163933259Y-141361689D01*
X163929025Y-141388667D01*
X163912165Y-141391242D01*
X163847604Y-141403324D01*
X163747268Y-141423045D01*
X163624050Y-141447900D01*
X163579640Y-141456629D01*
X163403863Y-141486840D01*
X163218160Y-141513532D01*
X163056014Y-141531760D01*
X162886866Y-141544966D01*
X162498296Y-141560230D01*
X162146264Y-141551861D01*
X161834377Y-141520321D01*
X161566242Y-141466072D01*
X161345466Y-141389574D01*
X161175657Y-141291290D01*
X161107019Y-141231983D01*
X160985019Y-141074980D01*
X160898942Y-140877049D01*
X160847899Y-140635750D01*
X160830996Y-140348644D01*
X160832721Y-140253738D01*
X160861368Y-139989742D01*
X160927801Y-139765364D01*
X161035321Y-139574174D01*
X161187228Y-139409742D01*
X161386823Y-139265637D01*
X161456830Y-139228567D01*
X161575927Y-139173495D01*
X161726878Y-139108743D01*
X161897419Y-139039558D01*
X162075289Y-138971182D01*
X162261984Y-138901057D01*
X162455011Y-138826272D01*
X162603264Y-138764245D01*
X162712600Y-138711158D01*
X162788875Y-138663193D01*
X162837945Y-138616530D01*
X162865667Y-138567352D01*
X162877897Y-138511841D01*
X162880492Y-138446177D01*
X162880475Y-138442174D01*
X162878599Y-138376197D01*
X162869808Y-138323167D01*
X162848362Y-138281669D01*
X162808517Y-138250289D01*
X162744532Y-138227615D01*
X162650664Y-138212233D01*
X162521173Y-138202730D01*
X162350315Y-138197692D01*
X162132349Y-138195705D01*
X161861532Y-138195357D01*
X161014051Y-138195357D01*
X160994433Y-137968310D01*
X160994212Y-137965755D01*
X160982077Y-137833788D01*
X160969102Y-137705259D01*
X160958058Y-137607652D01*
X160941299Y-137474042D01*
X161054199Y-137440341D01*
X161083366Y-137432329D01*
X161182072Y-137409017D01*
X161309480Y-137382130D01*
X161445415Y-137356015D01*
X161469311Y-137351920D01*
X161619622Y-137333304D01*
X161807194Y-137318840D01*
X162020070Y-137308625D01*
X162246295Y-137302756D01*
X162473914Y-137301332D01*
X162690970Y-137304448D01*
G37*
G36*
X171406200Y-139426365D02*
G01*
X171406177Y-139681154D01*
X171406173Y-139689475D01*
X171406001Y-140043230D01*
X171405566Y-140353258D01*
X171404772Y-140615266D01*
X171403517Y-140833280D01*
X171401702Y-141011325D01*
X171399225Y-141153429D01*
X171395987Y-141263618D01*
X171391886Y-141345919D01*
X171386823Y-141404357D01*
X171380696Y-141442960D01*
X171373406Y-141465753D01*
X171364851Y-141476764D01*
X171354931Y-141480018D01*
X171349424Y-141480376D01*
X171291465Y-141483880D01*
X171190222Y-141489824D01*
X171058264Y-141497473D01*
X170908161Y-141506094D01*
X170887351Y-141507250D01*
X170681834Y-141515812D01*
X170451395Y-141521097D01*
X170205311Y-141523281D01*
X169952858Y-141522539D01*
X169703314Y-141519049D01*
X169465954Y-141512986D01*
X169250055Y-141504526D01*
X169064895Y-141493846D01*
X168919750Y-141481121D01*
X168823896Y-141466527D01*
X168743079Y-141446275D01*
X168528331Y-141367190D01*
X168359451Y-141258912D01*
X168233419Y-141117306D01*
X168147217Y-140938238D01*
X168097823Y-140717574D01*
X168082220Y-140451182D01*
X168082696Y-140400803D01*
X168095658Y-140232747D01*
X169195175Y-140232747D01*
X169197615Y-140350779D01*
X169214221Y-140487579D01*
X169250506Y-140584727D01*
X169311124Y-140652869D01*
X169400732Y-140702648D01*
X169441181Y-140715474D01*
X169543977Y-140731715D01*
X169693884Y-140741116D01*
X169896493Y-140744146D01*
X170292936Y-140744146D01*
X170292936Y-140216810D01*
X170292936Y-139689475D01*
X169896493Y-139689475D01*
X169793212Y-139690199D01*
X169595157Y-139699105D01*
X169445733Y-139722286D01*
X169338287Y-139764898D01*
X169266162Y-139832094D01*
X169222706Y-139929031D01*
X169201262Y-140060864D01*
X169195175Y-140232747D01*
X168095658Y-140232747D01*
X168103643Y-140129211D01*
X168157101Y-139904024D01*
X168245135Y-139721930D01*
X168369812Y-139579620D01*
X168533196Y-139473783D01*
X168737353Y-139401107D01*
X168834399Y-139375104D01*
X168902512Y-139350789D01*
X168915848Y-139331684D01*
X168875903Y-139314423D01*
X168784170Y-139295639D01*
X168610585Y-139242559D01*
X168458453Y-139141321D01*
X168343035Y-138994801D01*
X168264531Y-138803356D01*
X168223142Y-138567342D01*
X168222826Y-138545626D01*
X169282791Y-138545626D01*
X169283380Y-138588977D01*
X169298361Y-138750299D01*
X169336179Y-138865099D01*
X169400417Y-138940803D01*
X169494655Y-138984833D01*
X169553247Y-138995296D01*
X169663090Y-139005712D01*
X169800524Y-139012823D01*
X169948703Y-139015494D01*
X170292936Y-139015657D01*
X170292936Y-138561562D01*
X170292936Y-138107468D01*
X169913989Y-138107468D01*
X169900556Y-138107485D01*
X169751591Y-138109959D01*
X169619473Y-138116019D01*
X169518114Y-138124805D01*
X169461427Y-138135457D01*
X169390638Y-138175411D01*
X169328308Y-138256092D01*
X169293396Y-138377117D01*
X169282791Y-138545626D01*
X168222826Y-138545626D01*
X168219068Y-138287117D01*
X168219220Y-138284021D01*
X168246387Y-138037693D01*
X168304130Y-137837874D01*
X168397272Y-137678485D01*
X168530640Y-137553447D01*
X168709058Y-137456680D01*
X168937351Y-137382105D01*
X168977569Y-137372524D01*
X169041852Y-137360595D01*
X169117628Y-137351162D01*
X169211624Y-137343955D01*
X169330569Y-137338704D01*
X169481190Y-137335139D01*
X169670217Y-137332991D01*
X169904377Y-137331989D01*
X170190398Y-137331865D01*
X170415476Y-137332518D01*
X170647472Y-137334273D01*
X170856973Y-137336976D01*
X171036759Y-137340483D01*
X171179611Y-137344650D01*
X171278309Y-137349336D01*
X171325635Y-137354395D01*
X171406200Y-137376174D01*
X171406200Y-138107468D01*
X171406200Y-139426365D01*
G37*
G36*
X167533442Y-139727234D02*
G01*
X167626348Y-140042465D01*
X167713825Y-140338943D01*
X167794484Y-140611987D01*
X167866939Y-140856912D01*
X167929802Y-141069037D01*
X167981688Y-141243679D01*
X168021209Y-141376155D01*
X168046977Y-141461783D01*
X168057607Y-141495879D01*
X168058151Y-141497564D01*
X168051379Y-141510965D01*
X168018754Y-141520898D01*
X167953732Y-141527823D01*
X167849766Y-141532200D01*
X167700310Y-141534489D01*
X167498820Y-141535150D01*
X166924963Y-141535150D01*
X166904838Y-141454584D01*
X166901656Y-141441922D01*
X166883284Y-141369456D01*
X166854673Y-141257101D01*
X166819082Y-141117644D01*
X166779770Y-140963869D01*
X166674827Y-140553719D01*
X166042089Y-140545836D01*
X165409350Y-140537953D01*
X165281679Y-141036551D01*
X165154007Y-141535150D01*
X164585578Y-141535150D01*
X164017149Y-141535150D01*
X164033860Y-141469233D01*
X164034043Y-141468508D01*
X164058144Y-141378725D01*
X164095993Y-141244335D01*
X164145907Y-141070939D01*
X164206200Y-140864138D01*
X164275185Y-140629530D01*
X164351179Y-140372717D01*
X164432495Y-140099298D01*
X164517447Y-139814874D01*
X164541899Y-139733327D01*
X165629829Y-139733327D01*
X165634203Y-139735021D01*
X165682926Y-139740147D01*
X165775814Y-139744288D01*
X165901806Y-139747058D01*
X166049837Y-139748068D01*
X166156158Y-139747611D01*
X166296666Y-139744441D01*
X166388915Y-139737750D01*
X166439405Y-139726947D01*
X166454637Y-139711447D01*
X166454434Y-139708922D01*
X166445174Y-139662344D01*
X166423749Y-139569746D01*
X166392391Y-139440367D01*
X166353334Y-139283443D01*
X166308812Y-139108215D01*
X166306539Y-139099350D01*
X166260308Y-138915325D01*
X166218292Y-138741555D01*
X166183174Y-138589642D01*
X166157640Y-138471182D01*
X166144374Y-138397776D01*
X166136395Y-138342904D01*
X166120319Y-138283457D01*
X166092574Y-138258820D01*
X166042507Y-138253950D01*
X165989297Y-138260173D01*
X165959323Y-138291161D01*
X165942244Y-138363812D01*
X165939679Y-138378132D01*
X165923275Y-138455430D01*
X165895709Y-138576028D01*
X165859371Y-138729776D01*
X165816648Y-138906527D01*
X165769928Y-139096130D01*
X165750278Y-139175728D01*
X165708240Y-139350549D01*
X165673335Y-139502092D01*
X165647404Y-139621986D01*
X165632289Y-139701855D01*
X165629829Y-139733327D01*
X164541899Y-139733327D01*
X164604352Y-139525044D01*
X164691522Y-139235409D01*
X164777273Y-138951569D01*
X164859920Y-138679124D01*
X164937776Y-138423673D01*
X165009157Y-138190818D01*
X165072377Y-137986158D01*
X165125751Y-137815293D01*
X165167593Y-137683824D01*
X165196218Y-137597351D01*
X165209940Y-137561473D01*
X165224931Y-137539982D01*
X165266408Y-137495360D01*
X165320418Y-137461553D01*
X165394631Y-137437122D01*
X165496717Y-137420626D01*
X165634345Y-137410626D01*
X165815186Y-137405682D01*
X166046910Y-137404354D01*
X166132449Y-137404496D01*
X166344440Y-137406961D01*
X166508225Y-137413616D01*
X166631500Y-137425916D01*
X166721959Y-137445318D01*
X166787299Y-137473276D01*
X166835215Y-137511246D01*
X166873401Y-137560684D01*
X166879813Y-137575310D01*
X166903324Y-137642777D01*
X166940983Y-137759079D01*
X166991333Y-137919451D01*
X167052918Y-138119130D01*
X167124282Y-138353349D01*
X167203969Y-138617345D01*
X167290523Y-138906352D01*
X167382487Y-139215606D01*
X167478406Y-139540342D01*
X167528793Y-139711447D01*
X167533442Y-139727234D01*
G37*
G36*
X178991912Y-138349092D02*
G01*
X178993097Y-138655632D01*
X178993764Y-139013983D01*
X178993974Y-139427536D01*
X178993974Y-141476557D01*
X178437342Y-141476557D01*
X177880710Y-141476557D01*
X177880710Y-140700201D01*
X177880710Y-139923846D01*
X177570201Y-139923846D01*
X177389268Y-139928764D01*
X177245379Y-139946510D01*
X177142944Y-139979895D01*
X177073600Y-140031716D01*
X177028982Y-140104770D01*
X177023598Y-140119653D01*
X177001665Y-140193457D01*
X176970016Y-140310868D01*
X176931160Y-140462191D01*
X176887606Y-140637734D01*
X176841862Y-140827801D01*
X176691576Y-141461908D01*
X176104281Y-141469824D01*
X175516987Y-141477740D01*
X175702463Y-140781358D01*
X175705547Y-140769781D01*
X175769030Y-140532364D01*
X175820333Y-140344162D01*
X175862037Y-140198029D01*
X175896721Y-140086819D01*
X175926965Y-140003384D01*
X175955350Y-139940577D01*
X175984456Y-139891254D01*
X176016863Y-139848265D01*
X176055151Y-139804465D01*
X176077506Y-139780581D01*
X176135922Y-139728460D01*
X176207123Y-139683120D01*
X176305435Y-139636306D01*
X176445185Y-139579763D01*
X176477057Y-139565859D01*
X176485117Y-139552033D01*
X176449653Y-139537840D01*
X176363652Y-139517965D01*
X176175460Y-139462082D01*
X176004133Y-139368142D01*
X175870124Y-139235980D01*
X175765614Y-139059602D01*
X175751110Y-139026959D01*
X175727656Y-138962490D01*
X175712357Y-138892612D01*
X175703582Y-138804034D01*
X175699699Y-138683466D01*
X175699470Y-138622442D01*
X176811390Y-138622442D01*
X176811466Y-138640590D01*
X176822313Y-138802020D01*
X176854897Y-138919397D01*
X176914059Y-139003846D01*
X177004641Y-139066494D01*
X177032684Y-139076195D01*
X177129185Y-139090811D01*
X177278748Y-139099874D01*
X177477884Y-139103114D01*
X177880710Y-139103546D01*
X177880710Y-138602182D01*
X177880710Y-138100819D01*
X177477884Y-138112927D01*
X177408562Y-138115299D01*
X177208946Y-138127982D01*
X177058872Y-138151841D01*
X176951476Y-138192125D01*
X176879893Y-138254080D01*
X176837260Y-138342953D01*
X176816714Y-138463991D01*
X176811390Y-138622442D01*
X175699470Y-138622442D01*
X175699076Y-138517618D01*
X175704439Y-138295625D01*
X175722063Y-138117901D01*
X175755799Y-137975259D01*
X175809501Y-137856195D01*
X175887023Y-137749206D01*
X175992220Y-137642790D01*
X176007970Y-137628663D01*
X176145691Y-137526883D01*
X176305160Y-137448611D01*
X176498429Y-137389002D01*
X176737549Y-137343214D01*
X176793356Y-137337428D01*
X176906792Y-137331181D01*
X177058732Y-137326372D01*
X177241085Y-137322955D01*
X177445760Y-137320887D01*
X177664667Y-137320122D01*
X177889714Y-137320615D01*
X178112812Y-137322322D01*
X178325868Y-137325197D01*
X178520792Y-137329196D01*
X178689493Y-137334273D01*
X178823881Y-137340384D01*
X178915865Y-137347485D01*
X178957353Y-137355529D01*
X178964071Y-137369247D01*
X178970561Y-137408034D01*
X178976114Y-137474901D01*
X178980789Y-137573238D01*
X178984647Y-137706436D01*
X178987746Y-137877884D01*
X178990148Y-138090972D01*
X178990215Y-138100819D01*
X178991912Y-138349092D01*
G37*
G36*
X160713005Y-137799855D02*
G01*
X160713005Y-138224654D01*
X160127076Y-138224654D01*
X159541148Y-138224654D01*
X159541148Y-139850605D01*
X159541148Y-141476557D01*
X158969868Y-141476557D01*
X158398587Y-141476557D01*
X158398587Y-139850605D01*
X158398587Y-138224654D01*
X157812659Y-138224654D01*
X157226730Y-138224654D01*
X157226730Y-137799855D01*
X157226730Y-137375057D01*
X158969868Y-137375057D01*
X160713005Y-137375057D01*
X160713005Y-137799855D01*
G37*
G36*
X172051553Y-140049004D02*
G01*
X172109209Y-140066838D01*
X172192726Y-140097860D01*
X172202400Y-140101651D01*
X172382187Y-140163818D01*
X172570150Y-140211682D01*
X172776271Y-140246581D01*
X173010536Y-140269853D01*
X173282928Y-140282835D01*
X173603432Y-140286865D01*
X173622139Y-140286854D01*
X173939789Y-140282374D01*
X174209866Y-140268870D01*
X174442356Y-140245005D01*
X174647241Y-140209440D01*
X174834507Y-140160837D01*
X175014137Y-140097860D01*
X175075770Y-140074768D01*
X175143392Y-140053145D01*
X175173696Y-140048821D01*
X175175242Y-140052688D01*
X175174793Y-140096641D01*
X175165515Y-140170402D01*
X175152927Y-140226745D01*
X175116784Y-140284462D01*
X175043065Y-140325640D01*
X174951933Y-140358368D01*
X174808889Y-140400489D01*
X174643418Y-140442683D01*
X174474519Y-140480148D01*
X174321194Y-140508082D01*
X174303357Y-140510426D01*
X174206664Y-140517623D01*
X174066389Y-140522946D01*
X173894213Y-140526149D01*
X173701821Y-140526989D01*
X173500894Y-140525221D01*
X173351350Y-140522257D01*
X173095411Y-140512860D01*
X172880942Y-140497402D01*
X172696667Y-140474291D01*
X172531307Y-140441931D01*
X172373584Y-140398730D01*
X172212222Y-140343094D01*
X172153858Y-140320152D01*
X172093482Y-140286218D01*
X172063197Y-140242429D01*
X172046856Y-140172086D01*
X172042830Y-140146400D01*
X172034786Y-140078567D01*
X172035353Y-140047282D01*
X172051553Y-140049004D01*
G37*
G36*
X175508652Y-139201724D02*
G01*
X175597902Y-139252342D01*
X175625721Y-139284940D01*
X175644598Y-139330905D01*
X175649150Y-139399607D01*
X175642441Y-139508686D01*
X175639236Y-139547250D01*
X175628197Y-139682514D01*
X175615572Y-139839799D01*
X175603507Y-139992425D01*
X175595569Y-140086512D01*
X175583089Y-140191705D01*
X175567275Y-140259788D01*
X175544660Y-140303770D01*
X175511778Y-140336658D01*
X175449605Y-140374823D01*
X175387268Y-140392589D01*
X175378778Y-140392191D01*
X175362236Y-140385574D01*
X175350118Y-140364975D01*
X175341740Y-140322957D01*
X175336416Y-140252087D01*
X175333462Y-140144929D01*
X175332192Y-139994049D01*
X175331921Y-139792012D01*
X175331921Y-139191436D01*
X175434458Y-139191436D01*
X175508652Y-139201724D01*
G37*
G36*
X171874943Y-139792012D02*
G01*
X171874906Y-139884133D01*
X171874296Y-140063639D01*
X171872398Y-140195130D01*
X171868525Y-140286041D01*
X171861994Y-140343808D01*
X171852119Y-140375865D01*
X171838214Y-140389647D01*
X171819595Y-140392589D01*
X171763845Y-140377843D01*
X171695991Y-140337318D01*
X171669952Y-140312609D01*
X171646099Y-140273062D01*
X171629310Y-140212529D01*
X171616382Y-140118493D01*
X171604110Y-139978436D01*
X171598324Y-139904831D01*
X171585877Y-139750396D01*
X171573982Y-139607285D01*
X171564583Y-139499048D01*
X171560017Y-139440968D01*
X171560125Y-139358232D01*
X171575674Y-139303614D01*
X171610414Y-139257353D01*
X171663538Y-139216598D01*
X171773546Y-139191436D01*
X171874943Y-139191436D01*
X171874943Y-139792012D01*
G37*
G36*
X175177552Y-138857457D02*
G01*
X175194698Y-139086331D01*
X175205093Y-139309719D01*
X175207535Y-139511603D01*
X175200827Y-139675966D01*
X175179692Y-139929683D01*
X175050523Y-139986821D01*
X175000398Y-140007374D01*
X174839428Y-140060878D01*
X174647284Y-140111713D01*
X174443586Y-140155012D01*
X174247953Y-140185909D01*
X174165922Y-140193005D01*
X174026097Y-140199365D01*
X173854174Y-140203160D01*
X173664544Y-140204095D01*
X173471598Y-140201874D01*
X173381237Y-140199664D01*
X173081031Y-140185660D01*
X172824924Y-140161184D01*
X172601982Y-140124552D01*
X172401269Y-140074084D01*
X172211851Y-140008095D01*
X172036073Y-139938401D01*
X172017505Y-139704076D01*
X172015753Y-139678772D01*
X172011456Y-139530215D01*
X172013056Y-139344481D01*
X172019756Y-139137527D01*
X172030762Y-138925316D01*
X172045277Y-138723806D01*
X172051161Y-138664100D01*
X172813358Y-138664100D01*
X172814270Y-138703716D01*
X172850902Y-138916326D01*
X172939039Y-139102810D01*
X173075957Y-139258791D01*
X173258932Y-139379892D01*
X173264532Y-139382653D01*
X173457817Y-139445936D01*
X173659221Y-139456351D01*
X173857482Y-139416140D01*
X174041339Y-139327542D01*
X174199531Y-139192797D01*
X174264742Y-139114757D01*
X174347732Y-138978269D01*
X174392040Y-138830263D01*
X174405747Y-138649452D01*
X174405287Y-138587612D01*
X174396074Y-138479010D01*
X174370276Y-138388426D01*
X174321426Y-138288147D01*
X174312311Y-138271796D01*
X174181892Y-138092627D01*
X174023137Y-137964701D01*
X173835411Y-137887631D01*
X173618080Y-137861032D01*
X173592612Y-137861214D01*
X173378017Y-137892184D01*
X173189672Y-137971914D01*
X173033305Y-138094687D01*
X172914645Y-138254786D01*
X172839420Y-138446496D01*
X172813358Y-138664100D01*
X172051161Y-138664100D01*
X172062507Y-138548958D01*
X172081657Y-138416733D01*
X172135856Y-138195406D01*
X172219901Y-137971616D01*
X172323747Y-137783225D01*
X172442174Y-137641453D01*
X172518377Y-137570940D01*
X172424269Y-137399758D01*
X172372862Y-137315015D01*
X172325336Y-137252470D01*
X172293654Y-137228575D01*
X172254703Y-137207861D01*
X172209157Y-137155334D01*
X172183173Y-137111276D01*
X172178160Y-137066191D01*
X172209157Y-137008852D01*
X172253521Y-136962508D01*
X172324405Y-136940062D01*
X172392037Y-136960712D01*
X172440896Y-137018295D01*
X172455466Y-137106651D01*
X172460108Y-137150428D01*
X172488073Y-137238711D01*
X172533616Y-137334701D01*
X172617740Y-137484354D01*
X172745063Y-137428033D01*
X172945609Y-137360280D01*
X173191544Y-137313120D01*
X173460934Y-137289469D01*
X173738401Y-137289313D01*
X174008568Y-137312638D01*
X174256060Y-137359428D01*
X174465499Y-137429669D01*
X174596522Y-137487627D01*
X174687259Y-137326850D01*
X174723910Y-137255161D01*
X174756349Y-137168568D01*
X174761316Y-137113518D01*
X174764047Y-137060636D01*
X174798964Y-136993870D01*
X174803075Y-136988882D01*
X174859956Y-136944389D01*
X174929523Y-136945911D01*
X174968159Y-136961417D01*
X175020700Y-137018049D01*
X175034009Y-137092359D01*
X175007389Y-137166231D01*
X174940142Y-137221548D01*
X174902273Y-137250036D01*
X174841862Y-137319673D01*
X174783063Y-137409097D01*
X174694376Y-137565484D01*
X174810684Y-137692171D01*
X174898298Y-137801142D01*
X174974089Y-137932423D01*
X175038250Y-138093297D01*
X175097639Y-138298246D01*
X175127802Y-138447317D01*
X175154853Y-138639113D01*
X175155928Y-138649452D01*
X175177552Y-138857457D01*
G37*
G36*
X174141923Y-138465511D02*
G01*
X174175055Y-138623767D01*
X174171353Y-138659217D01*
X174157424Y-138792577D01*
X174100097Y-138933479D01*
X173994115Y-139070682D01*
X173855852Y-139166311D01*
X173822025Y-139180761D01*
X173656622Y-139217443D01*
X173490039Y-139205614D01*
X173334850Y-139149414D01*
X173203627Y-139052980D01*
X173108942Y-138920451D01*
X173054269Y-138749556D01*
X173052867Y-138667288D01*
X173268196Y-138667288D01*
X173289320Y-138719123D01*
X173342636Y-138749423D01*
X173382774Y-138728131D01*
X173398357Y-138659217D01*
X173390015Y-138627918D01*
X173342898Y-138605507D01*
X173292564Y-138621930D01*
X173268196Y-138667288D01*
X173052867Y-138667288D01*
X173051360Y-138578865D01*
X173094437Y-138428621D01*
X173344879Y-138428621D01*
X173385370Y-138511099D01*
X173392292Y-138520113D01*
X173464938Y-138566819D01*
X173556870Y-138573310D01*
X173645439Y-138537305D01*
X173671456Y-138510684D01*
X173697269Y-138434042D01*
X173684138Y-138348756D01*
X173633144Y-138277693D01*
X173560638Y-138234585D01*
X173481835Y-138234916D01*
X173403463Y-138292459D01*
X173355645Y-138356420D01*
X173344879Y-138428621D01*
X173094437Y-138428621D01*
X173096916Y-138419974D01*
X173186602Y-138282347D01*
X173316079Y-138175443D01*
X173481011Y-138108724D01*
X173486696Y-138107390D01*
X173657124Y-138095082D01*
X173815628Y-138132593D01*
X173954441Y-138212071D01*
X174065796Y-138325661D01*
X174124793Y-138434042D01*
X174141923Y-138465511D01*
G37*
G36*
X358058985Y-145595873D02*
G01*
X357977541Y-145973464D01*
X357800283Y-146550362D01*
X357571860Y-147082905D01*
X357301132Y-147551566D01*
X356996958Y-147936817D01*
X356736404Y-148186786D01*
X356358830Y-148467247D01*
X355932261Y-148695107D01*
X355443588Y-148875963D01*
X354879704Y-149015411D01*
X354227500Y-149119045D01*
X354112699Y-149128914D01*
X353862974Y-149137159D01*
X353547974Y-149137559D01*
X353192129Y-149131007D01*
X352819866Y-149118394D01*
X352455615Y-149100611D01*
X352123804Y-149078550D01*
X351848862Y-149053103D01*
X351655216Y-149025162D01*
X351562482Y-149005978D01*
X351027383Y-148866719D01*
X350551013Y-148693031D01*
X350156129Y-148492992D01*
X350085407Y-148447628D01*
X349792117Y-148216692D01*
X349497614Y-147925926D01*
X349231184Y-147606419D01*
X349022114Y-147289257D01*
X348919566Y-147085059D01*
X348780637Y-146754606D01*
X348649917Y-146390430D01*
X348541564Y-146032717D01*
X348469739Y-145721649D01*
X348451911Y-145616059D01*
X348441206Y-145504998D01*
X348458099Y-145462643D01*
X348505678Y-145467129D01*
X348536227Y-145477270D01*
X348660571Y-145519637D01*
X348844030Y-145582829D01*
X349059011Y-145657361D01*
X349549604Y-145807790D01*
X350283969Y-145974921D01*
X351084462Y-146100411D01*
X351933050Y-146183965D01*
X352811698Y-146225287D01*
X353702374Y-146224080D01*
X354587044Y-146180050D01*
X355447675Y-146092900D01*
X356266233Y-145962334D01*
X357024684Y-145788056D01*
X357116265Y-145762415D01*
X357377595Y-145682433D01*
X357622264Y-145598992D01*
X357807224Y-145526481D01*
X358094455Y-145399454D01*
X358058985Y-145595873D01*
G37*
G36*
X348393438Y-144366113D02*
G01*
X348736608Y-144503530D01*
X349419304Y-144720862D01*
X350200624Y-144906390D01*
X351078959Y-145059700D01*
X351269301Y-145083502D01*
X351654482Y-145115697D01*
X352109847Y-145139183D01*
X352613437Y-145153959D01*
X353143297Y-145160024D01*
X353677468Y-145157379D01*
X354193993Y-145146025D01*
X354670916Y-145125960D01*
X355086280Y-145097185D01*
X355418125Y-145059700D01*
X355699578Y-145016101D01*
X356383942Y-144889861D01*
X356996549Y-144743350D01*
X357561688Y-144570278D01*
X358103646Y-144364359D01*
X358118839Y-144359061D01*
X358171909Y-144372065D01*
X358196248Y-144455351D01*
X358193136Y-144619780D01*
X358163848Y-144876211D01*
X358150459Y-144965737D01*
X358122897Y-145056929D01*
X358065337Y-145120748D01*
X357954885Y-145179069D01*
X357768645Y-145253761D01*
X357645010Y-145300469D01*
X356953872Y-145518878D01*
X356185455Y-145697384D01*
X355358584Y-145832163D01*
X354492084Y-145919391D01*
X353457679Y-145962740D01*
X352429623Y-145945776D01*
X351438744Y-145868752D01*
X350498488Y-145733155D01*
X349622298Y-145540472D01*
X348823618Y-145292190D01*
X348367443Y-145125778D01*
X348334138Y-144882795D01*
X348326805Y-144825428D01*
X348308262Y-144635548D01*
X348300834Y-144482786D01*
X348303147Y-144417440D01*
X348327859Y-144355428D01*
X348393438Y-144366113D01*
G37*
G36*
X359147129Y-141660955D02*
G01*
X359417224Y-141760884D01*
X359620361Y-141935496D01*
X359636974Y-141957069D01*
X359683441Y-142030520D01*
X359711952Y-142115804D01*
X359725717Y-142236391D01*
X359727946Y-142415749D01*
X359721850Y-142677347D01*
X359718448Y-142780815D01*
X359705341Y-143026479D01*
X359685322Y-143193183D01*
X359655197Y-143301031D01*
X359611771Y-143370126D01*
X359594634Y-143391187D01*
X359562235Y-143454944D01*
X359540451Y-143552081D01*
X359527319Y-143700703D01*
X359520878Y-143918912D01*
X359519167Y-144224815D01*
X359518995Y-144306934D01*
X359512128Y-144648016D01*
X359491874Y-144902565D01*
X359453635Y-145086354D01*
X359392810Y-145215154D01*
X359304803Y-145304739D01*
X359185014Y-145370881D01*
X359020031Y-145422242D01*
X358844480Y-145446262D01*
X358672500Y-145448333D01*
X358672500Y-143543333D01*
X358672500Y-141638333D01*
X358912325Y-141638333D01*
X359147129Y-141660955D01*
G37*
G36*
X347824584Y-143550215D02*
G01*
X347824584Y-145462097D01*
X347580022Y-145434531D01*
X347546648Y-145430307D01*
X347340903Y-145370426D01*
X347169918Y-145241558D01*
X347004375Y-145076152D01*
X346976444Y-144243596D01*
X346962800Y-143907540D01*
X346945941Y-143651796D01*
X346924151Y-143468571D01*
X346895413Y-143341019D01*
X346857707Y-143252291D01*
X346810126Y-143127468D01*
X346771886Y-142902249D01*
X346759532Y-142637950D01*
X346772629Y-142370101D01*
X346810744Y-142134234D01*
X346873440Y-141965878D01*
X347040757Y-141788677D01*
X347282551Y-141676917D01*
X347584759Y-141638333D01*
X347824584Y-141638333D01*
X347824584Y-143550215D01*
G37*
G36*
X358197436Y-140263866D02*
G01*
X358243530Y-140829723D01*
X358277303Y-141429342D01*
X358297697Y-142035098D01*
X358303651Y-142619369D01*
X358294109Y-143154529D01*
X358268010Y-143612956D01*
X358233936Y-144016047D01*
X357857906Y-144171997D01*
X357525505Y-144298385D01*
X356897635Y-144489729D01*
X356202834Y-144650302D01*
X355463930Y-144775129D01*
X354703750Y-144859237D01*
X354260321Y-144889416D01*
X353355076Y-144915720D01*
X352458857Y-144896333D01*
X351586781Y-144832965D01*
X350753963Y-144727324D01*
X349975521Y-144581120D01*
X349266571Y-144396062D01*
X348642229Y-144173859D01*
X348263337Y-144016126D01*
X348229486Y-143581292D01*
X348223894Y-143504912D01*
X348200349Y-142978804D01*
X348195424Y-142387106D01*
X348207897Y-141758288D01*
X348236545Y-141120821D01*
X348280145Y-140503173D01*
X348326868Y-140039146D01*
X350733180Y-140039146D01*
X350784931Y-140500639D01*
X350906593Y-140938069D01*
X351094553Y-141320833D01*
X351239151Y-141521560D01*
X351564923Y-141858532D01*
X351949271Y-142142975D01*
X352366957Y-142357586D01*
X352792744Y-142485064D01*
X352969455Y-142511409D01*
X353464950Y-142517925D01*
X353941320Y-142429521D01*
X354387357Y-142254215D01*
X354791852Y-142000026D01*
X355143598Y-141674973D01*
X355431387Y-141287075D01*
X355644011Y-140844349D01*
X355770263Y-140354815D01*
X355796991Y-140084635D01*
X355768549Y-139592110D01*
X355645033Y-139119228D01*
X355433425Y-138679020D01*
X355140705Y-138284517D01*
X354773854Y-137948749D01*
X354339852Y-137684747D01*
X354160616Y-137601869D01*
X353998572Y-137540891D01*
X353838680Y-137503809D01*
X353644946Y-137482518D01*
X353381374Y-137468911D01*
X353281349Y-137465260D01*
X353029770Y-137462340D01*
X352837317Y-137474787D01*
X352669122Y-137506167D01*
X352490315Y-137560047D01*
X352172717Y-137688810D01*
X351728097Y-137956866D01*
X351355042Y-138300639D01*
X351058602Y-138715113D01*
X350843831Y-139195270D01*
X350754948Y-139584190D01*
X350733180Y-140039146D01*
X348326868Y-140039146D01*
X348337474Y-139933815D01*
X348407309Y-139441218D01*
X348508232Y-138936085D01*
X348693863Y-138277334D01*
X348925445Y-137703141D01*
X349201092Y-137217939D01*
X349518919Y-136826165D01*
X349822601Y-136517732D01*
X349508809Y-135982407D01*
X349452154Y-135887138D01*
X349295079Y-135642648D01*
X349178321Y-135495970D01*
X349101862Y-135447083D01*
X349062855Y-135441796D01*
X348934509Y-135372277D01*
X348817221Y-135248820D01*
X348746509Y-135105561D01*
X348740871Y-134969711D01*
X348807772Y-134797777D01*
X348937074Y-134657736D01*
X349104317Y-134573892D01*
X349285040Y-134570546D01*
X349336701Y-134585662D01*
X349504671Y-134686040D01*
X349596157Y-134852165D01*
X349616708Y-135092773D01*
X349614925Y-135205038D01*
X349629299Y-135325258D01*
X349671365Y-135450399D01*
X349751086Y-135608420D01*
X349878425Y-135827281D01*
X350152938Y-136286853D01*
X350536574Y-136111322D01*
X350655624Y-136058685D01*
X351036589Y-135915946D01*
X351436381Y-135807829D01*
X351871924Y-135731881D01*
X352360142Y-135685646D01*
X352917960Y-135666670D01*
X353562300Y-135672499D01*
X353702931Y-135676183D01*
X354058891Y-135687894D01*
X354338989Y-135702540D01*
X354565655Y-135722445D01*
X354761319Y-135749934D01*
X354948413Y-135787331D01*
X355149365Y-135836962D01*
X355261392Y-135867791D01*
X355541030Y-135954462D01*
X355808050Y-136048774D01*
X356017163Y-136135165D01*
X356035824Y-136143869D01*
X356201712Y-136218457D01*
X356322121Y-136267740D01*
X356372102Y-136281438D01*
X356388731Y-136254197D01*
X356448390Y-136151014D01*
X356540200Y-135989965D01*
X356652720Y-135791041D01*
X356754307Y-135607485D01*
X356839649Y-135436896D01*
X356885066Y-135311087D01*
X356899188Y-135204718D01*
X356890646Y-135092450D01*
X356889515Y-135084134D01*
X356880937Y-134933570D01*
X356918720Y-134826579D01*
X357021388Y-134708804D01*
X357097279Y-134641392D01*
X357271848Y-134556490D01*
X357443612Y-134576774D01*
X357618238Y-134702179D01*
X357674951Y-134766495D01*
X357765262Y-134954311D01*
X357754818Y-135142725D01*
X357643031Y-135317196D01*
X357635436Y-135324624D01*
X357516739Y-135411360D01*
X357410488Y-135447083D01*
X357355183Y-135469018D01*
X357271069Y-135556602D01*
X357158973Y-135720555D01*
X357011208Y-135970964D01*
X356904104Y-136161955D01*
X356805805Y-136341298D01*
X356739137Y-136467748D01*
X356714584Y-136521832D01*
X356717541Y-136528715D01*
X356769602Y-136594711D01*
X356873190Y-136710781D01*
X357010773Y-136857079D01*
X357305645Y-137229059D01*
X357568181Y-137696580D01*
X357792504Y-138248800D01*
X357975290Y-138877530D01*
X358113220Y-139574583D01*
X358140080Y-139759393D01*
X358177058Y-140084635D01*
X358197436Y-140263866D01*
G37*
G36*
X354999909Y-139574583D02*
G01*
X355020031Y-139656828D01*
X355055772Y-139858045D01*
X355056663Y-140020510D01*
X355056762Y-140038465D01*
X355025167Y-140256600D01*
X354912780Y-140654988D01*
X354711962Y-141032851D01*
X354435680Y-141340568D01*
X354089263Y-141572343D01*
X353678040Y-141722376D01*
X353461599Y-141768890D01*
X353262707Y-141788061D01*
X353066882Y-141770548D01*
X352823097Y-141715967D01*
X352618040Y-141650783D01*
X352252641Y-141461428D01*
X351952526Y-141205651D01*
X351721518Y-140897359D01*
X351563440Y-140550462D01*
X351482113Y-140178868D01*
X351481913Y-140077090D01*
X352164077Y-140077090D01*
X352227250Y-140199000D01*
X352328078Y-140252172D01*
X352471059Y-140251157D01*
X352586514Y-140183812D01*
X352607823Y-140150182D01*
X352625414Y-140020510D01*
X352579270Y-139891808D01*
X352483126Y-139813303D01*
X352387743Y-139802050D01*
X352263384Y-139849884D01*
X352182475Y-139951141D01*
X352164077Y-140077090D01*
X351481913Y-140077090D01*
X351481360Y-139796484D01*
X351565004Y-139417220D01*
X351674183Y-139187100D01*
X352428334Y-139187100D01*
X352447776Y-139353263D01*
X352551472Y-139556876D01*
X352746418Y-139707177D01*
X352881076Y-139762256D01*
X352994560Y-139785045D01*
X353020198Y-139783743D01*
X353211637Y-139724306D01*
X353390494Y-139596967D01*
X353515464Y-139429888D01*
X353532631Y-139389977D01*
X353569298Y-139168198D01*
X353517027Y-138960153D01*
X353389704Y-138786227D01*
X353201213Y-138666807D01*
X352965438Y-138622281D01*
X352956177Y-138622389D01*
X352764034Y-138674863D01*
X352594773Y-138804601D01*
X352474253Y-138984411D01*
X352428334Y-139187100D01*
X351674183Y-139187100D01*
X351736865Y-139054983D01*
X352000767Y-138723683D01*
X352292401Y-138474318D01*
X352604487Y-138306022D01*
X352950099Y-138221404D01*
X353354375Y-138210942D01*
X353527842Y-138227145D01*
X353947785Y-138332844D01*
X354311414Y-138525782D01*
X354612278Y-138800615D01*
X354843926Y-139151997D01*
X354849906Y-139168198D01*
X354999909Y-139574583D01*
G37*
G36*
X253283985Y-145570873D02*
G01*
X253202541Y-145948464D01*
X253025283Y-146525362D01*
X252796860Y-147057905D01*
X252526132Y-147526566D01*
X252221958Y-147911817D01*
X251961404Y-148161786D01*
X251583830Y-148442247D01*
X251157261Y-148670107D01*
X250668588Y-148850963D01*
X250104704Y-148990411D01*
X249452500Y-149094045D01*
X249337699Y-149103914D01*
X249087974Y-149112159D01*
X248772974Y-149112559D01*
X248417129Y-149106007D01*
X248044866Y-149093394D01*
X247680615Y-149075611D01*
X247348804Y-149053550D01*
X247073862Y-149028103D01*
X246880216Y-149000162D01*
X246787482Y-148980978D01*
X246252383Y-148841719D01*
X245776013Y-148668031D01*
X245381129Y-148467992D01*
X245310407Y-148422628D01*
X245017117Y-148191692D01*
X244722614Y-147900926D01*
X244456184Y-147581419D01*
X244247114Y-147264257D01*
X244144566Y-147060059D01*
X244005637Y-146729606D01*
X243874917Y-146365430D01*
X243766564Y-146007717D01*
X243694739Y-145696649D01*
X243676911Y-145591059D01*
X243666206Y-145479998D01*
X243683099Y-145437643D01*
X243730678Y-145442129D01*
X243761227Y-145452270D01*
X243885571Y-145494637D01*
X244069030Y-145557829D01*
X244284011Y-145632361D01*
X244774604Y-145782790D01*
X245508969Y-145949921D01*
X246309462Y-146075411D01*
X247158050Y-146158965D01*
X248036698Y-146200287D01*
X248927374Y-146199080D01*
X249812044Y-146155050D01*
X250672675Y-146067900D01*
X251491233Y-145937334D01*
X252249684Y-145763056D01*
X252341265Y-145737415D01*
X252602595Y-145657433D01*
X252847264Y-145573992D01*
X253032224Y-145501481D01*
X253319455Y-145374454D01*
X253283985Y-145570873D01*
G37*
G36*
X243618438Y-144341113D02*
G01*
X243961608Y-144478530D01*
X244644304Y-144695862D01*
X245425624Y-144881390D01*
X246303959Y-145034700D01*
X246494301Y-145058502D01*
X246879482Y-145090697D01*
X247334847Y-145114183D01*
X247838437Y-145128959D01*
X248368297Y-145135024D01*
X248902468Y-145132379D01*
X249418993Y-145121025D01*
X249895916Y-145100960D01*
X250311280Y-145072185D01*
X250643125Y-145034700D01*
X250924578Y-144991101D01*
X251608942Y-144864861D01*
X252221549Y-144718350D01*
X252786688Y-144545278D01*
X253328646Y-144339359D01*
X253343839Y-144334061D01*
X253396909Y-144347065D01*
X253421248Y-144430351D01*
X253418136Y-144594780D01*
X253388848Y-144851211D01*
X253375459Y-144940737D01*
X253347897Y-145031929D01*
X253290337Y-145095748D01*
X253179885Y-145154069D01*
X252993645Y-145228761D01*
X252870010Y-145275469D01*
X252178872Y-145493878D01*
X251410455Y-145672384D01*
X250583584Y-145807163D01*
X249717084Y-145894391D01*
X248682679Y-145937740D01*
X247654623Y-145920776D01*
X246663744Y-145843752D01*
X245723488Y-145708155D01*
X244847298Y-145515472D01*
X244048618Y-145267190D01*
X243592443Y-145100778D01*
X243559138Y-144857795D01*
X243551805Y-144800428D01*
X243533262Y-144610548D01*
X243525834Y-144457786D01*
X243528147Y-144392440D01*
X243552859Y-144330428D01*
X243618438Y-144341113D01*
G37*
G36*
X254372129Y-141635955D02*
G01*
X254642224Y-141735884D01*
X254845361Y-141910496D01*
X254861974Y-141932069D01*
X254908441Y-142005520D01*
X254936952Y-142090804D01*
X254950717Y-142211391D01*
X254952946Y-142390749D01*
X254946850Y-142652347D01*
X254943448Y-142755815D01*
X254930341Y-143001479D01*
X254910322Y-143168183D01*
X254880197Y-143276031D01*
X254836771Y-143345126D01*
X254819634Y-143366187D01*
X254787235Y-143429944D01*
X254765451Y-143527081D01*
X254752319Y-143675703D01*
X254745878Y-143893912D01*
X254744167Y-144199815D01*
X254743995Y-144281934D01*
X254737128Y-144623016D01*
X254716874Y-144877565D01*
X254678635Y-145061354D01*
X254617810Y-145190154D01*
X254529803Y-145279739D01*
X254410014Y-145345881D01*
X254245031Y-145397242D01*
X254069480Y-145421262D01*
X253897500Y-145423333D01*
X253897500Y-143518333D01*
X253897500Y-141613333D01*
X254137325Y-141613333D01*
X254372129Y-141635955D01*
G37*
G36*
X243049584Y-143525215D02*
G01*
X243049584Y-145437097D01*
X242805022Y-145409531D01*
X242771648Y-145405307D01*
X242565903Y-145345426D01*
X242394918Y-145216558D01*
X242229375Y-145051152D01*
X242201444Y-144218596D01*
X242187800Y-143882540D01*
X242170941Y-143626796D01*
X242149151Y-143443571D01*
X242120413Y-143316019D01*
X242082707Y-143227291D01*
X242035126Y-143102468D01*
X241996886Y-142877249D01*
X241984532Y-142612950D01*
X241997629Y-142345101D01*
X242035744Y-142109234D01*
X242098440Y-141940878D01*
X242265757Y-141763677D01*
X242507551Y-141651917D01*
X242809759Y-141613333D01*
X243049584Y-141613333D01*
X243049584Y-143525215D01*
G37*
G36*
X253422436Y-140238866D02*
G01*
X253468530Y-140804723D01*
X253502303Y-141404342D01*
X253522697Y-142010098D01*
X253528651Y-142594369D01*
X253519109Y-143129529D01*
X253493010Y-143587956D01*
X253458936Y-143991047D01*
X253082906Y-144146997D01*
X252750505Y-144273385D01*
X252122635Y-144464729D01*
X251427834Y-144625302D01*
X250688930Y-144750129D01*
X249928750Y-144834237D01*
X249485321Y-144864416D01*
X248580076Y-144890720D01*
X247683857Y-144871333D01*
X246811781Y-144807965D01*
X245978963Y-144702324D01*
X245200521Y-144556120D01*
X244491571Y-144371062D01*
X243867229Y-144148859D01*
X243488337Y-143991126D01*
X243454486Y-143556292D01*
X243448894Y-143479912D01*
X243425349Y-142953804D01*
X243420424Y-142362106D01*
X243432897Y-141733288D01*
X243461545Y-141095821D01*
X243505145Y-140478173D01*
X243551868Y-140014146D01*
X245958180Y-140014146D01*
X246009931Y-140475639D01*
X246131593Y-140913069D01*
X246319553Y-141295833D01*
X246464151Y-141496560D01*
X246789923Y-141833532D01*
X247174271Y-142117975D01*
X247591957Y-142332586D01*
X248017744Y-142460064D01*
X248194455Y-142486409D01*
X248689950Y-142492925D01*
X249166320Y-142404521D01*
X249612357Y-142229215D01*
X250016852Y-141975026D01*
X250368598Y-141649973D01*
X250656387Y-141262075D01*
X250869011Y-140819349D01*
X250995263Y-140329815D01*
X251021991Y-140059635D01*
X250993549Y-139567110D01*
X250870033Y-139094228D01*
X250658425Y-138654020D01*
X250365705Y-138259517D01*
X249998854Y-137923749D01*
X249564852Y-137659747D01*
X249385616Y-137576869D01*
X249223572Y-137515891D01*
X249063680Y-137478809D01*
X248869946Y-137457518D01*
X248606374Y-137443911D01*
X248506349Y-137440260D01*
X248254770Y-137437340D01*
X248062317Y-137449787D01*
X247894122Y-137481167D01*
X247715315Y-137535047D01*
X247397717Y-137663810D01*
X246953097Y-137931866D01*
X246580042Y-138275639D01*
X246283602Y-138690113D01*
X246068831Y-139170270D01*
X245979948Y-139559190D01*
X245958180Y-140014146D01*
X243551868Y-140014146D01*
X243562474Y-139908815D01*
X243632309Y-139416218D01*
X243733232Y-138911085D01*
X243918863Y-138252334D01*
X244150445Y-137678141D01*
X244426092Y-137192939D01*
X244743919Y-136801165D01*
X245047601Y-136492732D01*
X244733809Y-135957407D01*
X244677154Y-135862138D01*
X244520079Y-135617648D01*
X244403321Y-135470970D01*
X244326862Y-135422083D01*
X244287855Y-135416796D01*
X244159509Y-135347277D01*
X244042221Y-135223820D01*
X243971509Y-135080561D01*
X243965871Y-134944711D01*
X244032772Y-134772777D01*
X244162074Y-134632736D01*
X244329317Y-134548892D01*
X244510040Y-134545546D01*
X244561701Y-134560662D01*
X244729671Y-134661040D01*
X244821157Y-134827165D01*
X244841708Y-135067773D01*
X244839925Y-135180038D01*
X244854299Y-135300258D01*
X244896365Y-135425399D01*
X244976086Y-135583420D01*
X245103425Y-135802281D01*
X245377938Y-136261853D01*
X245761574Y-136086322D01*
X245880624Y-136033685D01*
X246261589Y-135890946D01*
X246661381Y-135782829D01*
X247096924Y-135706881D01*
X247585142Y-135660646D01*
X248142960Y-135641670D01*
X248787300Y-135647499D01*
X248927931Y-135651183D01*
X249283891Y-135662894D01*
X249563989Y-135677540D01*
X249790655Y-135697445D01*
X249986319Y-135724934D01*
X250173413Y-135762331D01*
X250374365Y-135811962D01*
X250486392Y-135842791D01*
X250766030Y-135929462D01*
X251033050Y-136023774D01*
X251242163Y-136110165D01*
X251260824Y-136118869D01*
X251426712Y-136193457D01*
X251547121Y-136242740D01*
X251597102Y-136256438D01*
X251613731Y-136229197D01*
X251673390Y-136126014D01*
X251765200Y-135964965D01*
X251877720Y-135766041D01*
X251979307Y-135582485D01*
X252064649Y-135411896D01*
X252110066Y-135286087D01*
X252124188Y-135179718D01*
X252115646Y-135067450D01*
X252114515Y-135059134D01*
X252105937Y-134908570D01*
X252143720Y-134801579D01*
X252246388Y-134683804D01*
X252322279Y-134616392D01*
X252496848Y-134531490D01*
X252668612Y-134551774D01*
X252843238Y-134677179D01*
X252899951Y-134741495D01*
X252990262Y-134929311D01*
X252979818Y-135117725D01*
X252868031Y-135292196D01*
X252860436Y-135299624D01*
X252741739Y-135386360D01*
X252635488Y-135422083D01*
X252580183Y-135444018D01*
X252496069Y-135531602D01*
X252383973Y-135695555D01*
X252236208Y-135945964D01*
X252129104Y-136136955D01*
X252030805Y-136316298D01*
X251964137Y-136442748D01*
X251939584Y-136496832D01*
X251942541Y-136503715D01*
X251994602Y-136569711D01*
X252098190Y-136685781D01*
X252235773Y-136832079D01*
X252530645Y-137204059D01*
X252793181Y-137671580D01*
X253017504Y-138223800D01*
X253200290Y-138852530D01*
X253338220Y-139549583D01*
X253365080Y-139734393D01*
X253402058Y-140059635D01*
X253422436Y-140238866D01*
G37*
G36*
X250224909Y-139549583D02*
G01*
X250245031Y-139631828D01*
X250280772Y-139833045D01*
X250281663Y-139995510D01*
X250281762Y-140013465D01*
X250250167Y-140231600D01*
X250137780Y-140629988D01*
X249936962Y-141007851D01*
X249660680Y-141315568D01*
X249314263Y-141547343D01*
X248903040Y-141697376D01*
X248686599Y-141743890D01*
X248487707Y-141763061D01*
X248291882Y-141745548D01*
X248048097Y-141690967D01*
X247843040Y-141625783D01*
X247477641Y-141436428D01*
X247177526Y-141180651D01*
X246946518Y-140872359D01*
X246788440Y-140525462D01*
X246707113Y-140153868D01*
X246706913Y-140052090D01*
X247389077Y-140052090D01*
X247452250Y-140174000D01*
X247553078Y-140227172D01*
X247696059Y-140226157D01*
X247811514Y-140158812D01*
X247832823Y-140125182D01*
X247850414Y-139995510D01*
X247804270Y-139866808D01*
X247708126Y-139788303D01*
X247612743Y-139777050D01*
X247488384Y-139824884D01*
X247407475Y-139926141D01*
X247389077Y-140052090D01*
X246706913Y-140052090D01*
X246706360Y-139771484D01*
X246790004Y-139392220D01*
X246899183Y-139162100D01*
X247653334Y-139162100D01*
X247672776Y-139328263D01*
X247776472Y-139531876D01*
X247971418Y-139682177D01*
X248106076Y-139737256D01*
X248219560Y-139760045D01*
X248245198Y-139758743D01*
X248436637Y-139699306D01*
X248615494Y-139571967D01*
X248740464Y-139404888D01*
X248757631Y-139364977D01*
X248794298Y-139143198D01*
X248742027Y-138935153D01*
X248614704Y-138761227D01*
X248426213Y-138641807D01*
X248190438Y-138597281D01*
X248181177Y-138597389D01*
X247989034Y-138649863D01*
X247819773Y-138779601D01*
X247699253Y-138959411D01*
X247653334Y-139162100D01*
X246899183Y-139162100D01*
X246961865Y-139029983D01*
X247225767Y-138698683D01*
X247517401Y-138449318D01*
X247829487Y-138281022D01*
X248175099Y-138196404D01*
X248579375Y-138185942D01*
X248752842Y-138202145D01*
X249172785Y-138307844D01*
X249536414Y-138500782D01*
X249837278Y-138775615D01*
X250068926Y-139126997D01*
X250074906Y-139143198D01*
X250224909Y-139549583D01*
G37*
G36*
X61808985Y-145570873D02*
G01*
X61727541Y-145948464D01*
X61550283Y-146525362D01*
X61321860Y-147057905D01*
X61051132Y-147526566D01*
X60746958Y-147911817D01*
X60486404Y-148161786D01*
X60108830Y-148442247D01*
X59682261Y-148670107D01*
X59193588Y-148850963D01*
X58629704Y-148990411D01*
X57977500Y-149094045D01*
X57862699Y-149103914D01*
X57612974Y-149112159D01*
X57297974Y-149112559D01*
X56942129Y-149106007D01*
X56569866Y-149093394D01*
X56205615Y-149075611D01*
X55873804Y-149053550D01*
X55598862Y-149028103D01*
X55405216Y-149000162D01*
X55312482Y-148980978D01*
X54777383Y-148841719D01*
X54301013Y-148668031D01*
X53906129Y-148467992D01*
X53835407Y-148422628D01*
X53542117Y-148191692D01*
X53247614Y-147900926D01*
X52981184Y-147581419D01*
X52772114Y-147264257D01*
X52669566Y-147060059D01*
X52530637Y-146729606D01*
X52399917Y-146365430D01*
X52291564Y-146007717D01*
X52219739Y-145696649D01*
X52201911Y-145591059D01*
X52191206Y-145479998D01*
X52208099Y-145437643D01*
X52255678Y-145442129D01*
X52286227Y-145452270D01*
X52410571Y-145494637D01*
X52594030Y-145557829D01*
X52809011Y-145632361D01*
X53299604Y-145782790D01*
X54033969Y-145949921D01*
X54834462Y-146075411D01*
X55683050Y-146158965D01*
X56561698Y-146200287D01*
X57452374Y-146199080D01*
X58337044Y-146155050D01*
X59197675Y-146067900D01*
X60016233Y-145937334D01*
X60774684Y-145763056D01*
X60866265Y-145737415D01*
X61127595Y-145657433D01*
X61372264Y-145573992D01*
X61557224Y-145501481D01*
X61844455Y-145374454D01*
X61808985Y-145570873D01*
G37*
G36*
X52143438Y-144341113D02*
G01*
X52486608Y-144478530D01*
X53169304Y-144695862D01*
X53950624Y-144881390D01*
X54828959Y-145034700D01*
X55019301Y-145058502D01*
X55404482Y-145090697D01*
X55859847Y-145114183D01*
X56363437Y-145128959D01*
X56893297Y-145135024D01*
X57427468Y-145132379D01*
X57943993Y-145121025D01*
X58420916Y-145100960D01*
X58836280Y-145072185D01*
X59168125Y-145034700D01*
X59449578Y-144991101D01*
X60133942Y-144864861D01*
X60746549Y-144718350D01*
X61311688Y-144545278D01*
X61853646Y-144339359D01*
X61868839Y-144334061D01*
X61921909Y-144347065D01*
X61946248Y-144430351D01*
X61943136Y-144594780D01*
X61913848Y-144851211D01*
X61900459Y-144940737D01*
X61872897Y-145031929D01*
X61815337Y-145095748D01*
X61704885Y-145154069D01*
X61518645Y-145228761D01*
X61395010Y-145275469D01*
X60703872Y-145493878D01*
X59935455Y-145672384D01*
X59108584Y-145807163D01*
X58242084Y-145894391D01*
X57207679Y-145937740D01*
X56179623Y-145920776D01*
X55188744Y-145843752D01*
X54248488Y-145708155D01*
X53372298Y-145515472D01*
X52573618Y-145267190D01*
X52117443Y-145100778D01*
X52084138Y-144857795D01*
X52076805Y-144800428D01*
X52058262Y-144610548D01*
X52050834Y-144457786D01*
X52053147Y-144392440D01*
X52077859Y-144330428D01*
X52143438Y-144341113D01*
G37*
G36*
X62897129Y-141635955D02*
G01*
X63167224Y-141735884D01*
X63370361Y-141910496D01*
X63386974Y-141932069D01*
X63433441Y-142005520D01*
X63461952Y-142090804D01*
X63475717Y-142211391D01*
X63477946Y-142390749D01*
X63471850Y-142652347D01*
X63468448Y-142755815D01*
X63455341Y-143001479D01*
X63435322Y-143168183D01*
X63405197Y-143276031D01*
X63361771Y-143345126D01*
X63344634Y-143366187D01*
X63312235Y-143429944D01*
X63290451Y-143527081D01*
X63277319Y-143675703D01*
X63270878Y-143893912D01*
X63269167Y-144199815D01*
X63268995Y-144281934D01*
X63262128Y-144623016D01*
X63241874Y-144877565D01*
X63203635Y-145061354D01*
X63142810Y-145190154D01*
X63054803Y-145279739D01*
X62935014Y-145345881D01*
X62770031Y-145397242D01*
X62594480Y-145421262D01*
X62422500Y-145423333D01*
X62422500Y-143518333D01*
X62422500Y-141613333D01*
X62662325Y-141613333D01*
X62897129Y-141635955D01*
G37*
G36*
X51574584Y-143525215D02*
G01*
X51574584Y-145437097D01*
X51330022Y-145409531D01*
X51296648Y-145405307D01*
X51090903Y-145345426D01*
X50919918Y-145216558D01*
X50754375Y-145051152D01*
X50726444Y-144218596D01*
X50712800Y-143882540D01*
X50695941Y-143626796D01*
X50674151Y-143443571D01*
X50645413Y-143316019D01*
X50607707Y-143227291D01*
X50560126Y-143102468D01*
X50521886Y-142877249D01*
X50509532Y-142612950D01*
X50522629Y-142345101D01*
X50560744Y-142109234D01*
X50623440Y-141940878D01*
X50790757Y-141763677D01*
X51032551Y-141651917D01*
X51334759Y-141613333D01*
X51574584Y-141613333D01*
X51574584Y-143525215D01*
G37*
G36*
X61947436Y-140238866D02*
G01*
X61993530Y-140804723D01*
X62027303Y-141404342D01*
X62047697Y-142010098D01*
X62053651Y-142594369D01*
X62044109Y-143129529D01*
X62018010Y-143587956D01*
X61983936Y-143991047D01*
X61607906Y-144146997D01*
X61275505Y-144273385D01*
X60647635Y-144464729D01*
X59952834Y-144625302D01*
X59213930Y-144750129D01*
X58453750Y-144834237D01*
X58010321Y-144864416D01*
X57105076Y-144890720D01*
X56208857Y-144871333D01*
X55336781Y-144807965D01*
X54503963Y-144702324D01*
X53725521Y-144556120D01*
X53016571Y-144371062D01*
X52392229Y-144148859D01*
X52013337Y-143991126D01*
X51979486Y-143556292D01*
X51973894Y-143479912D01*
X51950349Y-142953804D01*
X51945424Y-142362106D01*
X51957897Y-141733288D01*
X51986545Y-141095821D01*
X52030145Y-140478173D01*
X52076868Y-140014146D01*
X54483180Y-140014146D01*
X54534931Y-140475639D01*
X54656593Y-140913069D01*
X54844553Y-141295833D01*
X54989151Y-141496560D01*
X55314923Y-141833532D01*
X55699271Y-142117975D01*
X56116957Y-142332586D01*
X56542744Y-142460064D01*
X56719455Y-142486409D01*
X57214950Y-142492925D01*
X57691320Y-142404521D01*
X58137357Y-142229215D01*
X58541852Y-141975026D01*
X58893598Y-141649973D01*
X59181387Y-141262075D01*
X59394011Y-140819349D01*
X59520263Y-140329815D01*
X59546991Y-140059635D01*
X59518549Y-139567110D01*
X59395033Y-139094228D01*
X59183425Y-138654020D01*
X58890705Y-138259517D01*
X58523854Y-137923749D01*
X58089852Y-137659747D01*
X57910616Y-137576869D01*
X57748572Y-137515891D01*
X57588680Y-137478809D01*
X57394946Y-137457518D01*
X57131374Y-137443911D01*
X57031349Y-137440260D01*
X56779770Y-137437340D01*
X56587317Y-137449787D01*
X56419122Y-137481167D01*
X56240315Y-137535047D01*
X55922717Y-137663810D01*
X55478097Y-137931866D01*
X55105042Y-138275639D01*
X54808602Y-138690113D01*
X54593831Y-139170270D01*
X54504948Y-139559190D01*
X54483180Y-140014146D01*
X52076868Y-140014146D01*
X52087474Y-139908815D01*
X52157309Y-139416218D01*
X52258232Y-138911085D01*
X52443863Y-138252334D01*
X52675445Y-137678141D01*
X52951092Y-137192939D01*
X53268919Y-136801165D01*
X53572601Y-136492732D01*
X53258809Y-135957407D01*
X53202154Y-135862138D01*
X53045079Y-135617648D01*
X52928321Y-135470970D01*
X52851862Y-135422083D01*
X52812855Y-135416796D01*
X52684509Y-135347277D01*
X52567221Y-135223820D01*
X52496509Y-135080561D01*
X52490871Y-134944711D01*
X52557772Y-134772777D01*
X52687074Y-134632736D01*
X52854317Y-134548892D01*
X53035040Y-134545546D01*
X53086701Y-134560662D01*
X53254671Y-134661040D01*
X53346157Y-134827165D01*
X53366708Y-135067773D01*
X53364925Y-135180038D01*
X53379299Y-135300258D01*
X53421365Y-135425399D01*
X53501086Y-135583420D01*
X53628425Y-135802281D01*
X53902938Y-136261853D01*
X54286574Y-136086322D01*
X54405624Y-136033685D01*
X54786589Y-135890946D01*
X55186381Y-135782829D01*
X55621924Y-135706881D01*
X56110142Y-135660646D01*
X56667960Y-135641670D01*
X57312300Y-135647499D01*
X57452931Y-135651183D01*
X57808891Y-135662894D01*
X58088989Y-135677540D01*
X58315655Y-135697445D01*
X58511319Y-135724934D01*
X58698413Y-135762331D01*
X58899365Y-135811962D01*
X59011392Y-135842791D01*
X59291030Y-135929462D01*
X59558050Y-136023774D01*
X59767163Y-136110165D01*
X59785824Y-136118869D01*
X59951712Y-136193457D01*
X60072121Y-136242740D01*
X60122102Y-136256438D01*
X60138731Y-136229197D01*
X60198390Y-136126014D01*
X60290200Y-135964965D01*
X60402720Y-135766041D01*
X60504307Y-135582485D01*
X60589649Y-135411896D01*
X60635066Y-135286087D01*
X60649188Y-135179718D01*
X60640646Y-135067450D01*
X60639515Y-135059134D01*
X60630937Y-134908570D01*
X60668720Y-134801579D01*
X60771388Y-134683804D01*
X60847279Y-134616392D01*
X61021848Y-134531490D01*
X61193612Y-134551774D01*
X61368238Y-134677179D01*
X61424951Y-134741495D01*
X61515262Y-134929311D01*
X61504818Y-135117725D01*
X61393031Y-135292196D01*
X61385436Y-135299624D01*
X61266739Y-135386360D01*
X61160488Y-135422083D01*
X61105183Y-135444018D01*
X61021069Y-135531602D01*
X60908973Y-135695555D01*
X60761208Y-135945964D01*
X60654104Y-136136955D01*
X60555805Y-136316298D01*
X60489137Y-136442748D01*
X60464584Y-136496832D01*
X60467541Y-136503715D01*
X60519602Y-136569711D01*
X60623190Y-136685781D01*
X60760773Y-136832079D01*
X61055645Y-137204059D01*
X61318181Y-137671580D01*
X61542504Y-138223800D01*
X61725290Y-138852530D01*
X61863220Y-139549583D01*
X61890080Y-139734393D01*
X61927058Y-140059635D01*
X61947436Y-140238866D01*
G37*
G36*
X58749909Y-139549583D02*
G01*
X58770031Y-139631828D01*
X58805772Y-139833045D01*
X58806663Y-139995510D01*
X58806762Y-140013465D01*
X58775167Y-140231600D01*
X58662780Y-140629988D01*
X58461962Y-141007851D01*
X58185680Y-141315568D01*
X57839263Y-141547343D01*
X57428040Y-141697376D01*
X57211599Y-141743890D01*
X57012707Y-141763061D01*
X56816882Y-141745548D01*
X56573097Y-141690967D01*
X56368040Y-141625783D01*
X56002641Y-141436428D01*
X55702526Y-141180651D01*
X55471518Y-140872359D01*
X55313440Y-140525462D01*
X55232113Y-140153868D01*
X55231913Y-140052090D01*
X55914077Y-140052090D01*
X55977250Y-140174000D01*
X56078078Y-140227172D01*
X56221059Y-140226157D01*
X56336514Y-140158812D01*
X56357823Y-140125182D01*
X56375414Y-139995510D01*
X56329270Y-139866808D01*
X56233126Y-139788303D01*
X56137743Y-139777050D01*
X56013384Y-139824884D01*
X55932475Y-139926141D01*
X55914077Y-140052090D01*
X55231913Y-140052090D01*
X55231360Y-139771484D01*
X55315004Y-139392220D01*
X55424183Y-139162100D01*
X56178334Y-139162100D01*
X56197776Y-139328263D01*
X56301472Y-139531876D01*
X56496418Y-139682177D01*
X56631076Y-139737256D01*
X56744560Y-139760045D01*
X56770198Y-139758743D01*
X56961637Y-139699306D01*
X57140494Y-139571967D01*
X57265464Y-139404888D01*
X57282631Y-139364977D01*
X57319298Y-139143198D01*
X57267027Y-138935153D01*
X57139704Y-138761227D01*
X56951213Y-138641807D01*
X56715438Y-138597281D01*
X56706177Y-138597389D01*
X56514034Y-138649863D01*
X56344773Y-138779601D01*
X56224253Y-138959411D01*
X56178334Y-139162100D01*
X55424183Y-139162100D01*
X55486865Y-139029983D01*
X55750767Y-138698683D01*
X56042401Y-138449318D01*
X56354487Y-138281022D01*
X56700099Y-138196404D01*
X57104375Y-138185942D01*
X57277842Y-138202145D01*
X57697785Y-138307844D01*
X58061414Y-138500782D01*
X58362278Y-138775615D01*
X58593926Y-139126997D01*
X58599906Y-139143198D01*
X58749909Y-139549583D01*
G37*
G36*
X148308985Y-145620873D02*
G01*
X148227541Y-145998464D01*
X148050283Y-146575362D01*
X147821860Y-147107905D01*
X147551132Y-147576566D01*
X147246958Y-147961817D01*
X146986404Y-148211786D01*
X146608830Y-148492247D01*
X146182261Y-148720107D01*
X145693588Y-148900963D01*
X145129704Y-149040411D01*
X144477500Y-149144045D01*
X144362699Y-149153914D01*
X144112974Y-149162159D01*
X143797974Y-149162559D01*
X143442129Y-149156007D01*
X143069866Y-149143394D01*
X142705615Y-149125611D01*
X142373804Y-149103550D01*
X142098862Y-149078103D01*
X141905216Y-149050162D01*
X141812482Y-149030978D01*
X141277383Y-148891719D01*
X140801013Y-148718031D01*
X140406129Y-148517992D01*
X140335407Y-148472628D01*
X140042117Y-148241692D01*
X139747614Y-147950926D01*
X139481184Y-147631419D01*
X139272114Y-147314257D01*
X139169566Y-147110059D01*
X139030637Y-146779606D01*
X138899917Y-146415430D01*
X138791564Y-146057717D01*
X138719739Y-145746649D01*
X138701911Y-145641059D01*
X138691206Y-145529998D01*
X138708099Y-145487643D01*
X138755678Y-145492129D01*
X138786227Y-145502270D01*
X138910571Y-145544637D01*
X139094030Y-145607829D01*
X139309011Y-145682361D01*
X139799604Y-145832790D01*
X140533969Y-145999921D01*
X141334462Y-146125411D01*
X142183050Y-146208965D01*
X143061698Y-146250287D01*
X143952374Y-146249080D01*
X144837044Y-146205050D01*
X145697675Y-146117900D01*
X146516233Y-145987334D01*
X147274684Y-145813056D01*
X147366265Y-145787415D01*
X147627595Y-145707433D01*
X147872264Y-145623992D01*
X148057224Y-145551481D01*
X148344455Y-145424454D01*
X148308985Y-145620873D01*
G37*
G36*
X138643438Y-144391113D02*
G01*
X138986608Y-144528530D01*
X139669304Y-144745862D01*
X140450624Y-144931390D01*
X141328959Y-145084700D01*
X141519301Y-145108502D01*
X141904482Y-145140697D01*
X142359847Y-145164183D01*
X142863437Y-145178959D01*
X143393297Y-145185024D01*
X143927468Y-145182379D01*
X144443993Y-145171025D01*
X144920916Y-145150960D01*
X145336280Y-145122185D01*
X145668125Y-145084700D01*
X145949578Y-145041101D01*
X146633942Y-144914861D01*
X147246549Y-144768350D01*
X147811688Y-144595278D01*
X148353646Y-144389359D01*
X148368839Y-144384061D01*
X148421909Y-144397065D01*
X148446248Y-144480351D01*
X148443136Y-144644780D01*
X148413848Y-144901211D01*
X148400459Y-144990737D01*
X148372897Y-145081929D01*
X148315337Y-145145748D01*
X148204885Y-145204069D01*
X148018645Y-145278761D01*
X147895010Y-145325469D01*
X147203872Y-145543878D01*
X146435455Y-145722384D01*
X145608584Y-145857163D01*
X144742084Y-145944391D01*
X143707679Y-145987740D01*
X142679623Y-145970776D01*
X141688744Y-145893752D01*
X140748488Y-145758155D01*
X139872298Y-145565472D01*
X139073618Y-145317190D01*
X138617443Y-145150778D01*
X138584138Y-144907795D01*
X138576805Y-144850428D01*
X138558262Y-144660548D01*
X138550834Y-144507786D01*
X138553147Y-144442440D01*
X138577859Y-144380428D01*
X138643438Y-144391113D01*
G37*
G36*
X149397129Y-141685955D02*
G01*
X149667224Y-141785884D01*
X149870361Y-141960496D01*
X149886974Y-141982069D01*
X149933441Y-142055520D01*
X149961952Y-142140804D01*
X149975717Y-142261391D01*
X149977946Y-142440749D01*
X149971850Y-142702347D01*
X149968448Y-142805815D01*
X149955341Y-143051479D01*
X149935322Y-143218183D01*
X149905197Y-143326031D01*
X149861771Y-143395126D01*
X149844634Y-143416187D01*
X149812235Y-143479944D01*
X149790451Y-143577081D01*
X149777319Y-143725703D01*
X149770878Y-143943912D01*
X149769167Y-144249815D01*
X149768995Y-144331934D01*
X149762128Y-144673016D01*
X149741874Y-144927565D01*
X149703635Y-145111354D01*
X149642810Y-145240154D01*
X149554803Y-145329739D01*
X149435014Y-145395881D01*
X149270031Y-145447242D01*
X149094480Y-145471262D01*
X148922500Y-145473333D01*
X148922500Y-143568333D01*
X148922500Y-141663333D01*
X149162325Y-141663333D01*
X149397129Y-141685955D01*
G37*
G36*
X138074584Y-143575215D02*
G01*
X138074584Y-145487097D01*
X137830022Y-145459531D01*
X137796648Y-145455307D01*
X137590903Y-145395426D01*
X137419918Y-145266558D01*
X137254375Y-145101152D01*
X137226444Y-144268596D01*
X137212800Y-143932540D01*
X137195941Y-143676796D01*
X137174151Y-143493571D01*
X137145413Y-143366019D01*
X137107707Y-143277291D01*
X137060126Y-143152468D01*
X137021886Y-142927249D01*
X137009532Y-142662950D01*
X137022629Y-142395101D01*
X137060744Y-142159234D01*
X137123440Y-141990878D01*
X137290757Y-141813677D01*
X137532551Y-141701917D01*
X137834759Y-141663333D01*
X138074584Y-141663333D01*
X138074584Y-143575215D01*
G37*
G36*
X148447436Y-140288866D02*
G01*
X148493530Y-140854723D01*
X148527303Y-141454342D01*
X148547697Y-142060098D01*
X148553651Y-142644369D01*
X148544109Y-143179529D01*
X148518010Y-143637956D01*
X148483936Y-144041047D01*
X148107906Y-144196997D01*
X147775505Y-144323385D01*
X147147635Y-144514729D01*
X146452834Y-144675302D01*
X145713930Y-144800129D01*
X144953750Y-144884237D01*
X144510321Y-144914416D01*
X143605076Y-144940720D01*
X142708857Y-144921333D01*
X141836781Y-144857965D01*
X141003963Y-144752324D01*
X140225521Y-144606120D01*
X139516571Y-144421062D01*
X138892229Y-144198859D01*
X138513337Y-144041126D01*
X138479486Y-143606292D01*
X138473894Y-143529912D01*
X138450349Y-143003804D01*
X138445424Y-142412106D01*
X138457897Y-141783288D01*
X138486545Y-141145821D01*
X138530145Y-140528173D01*
X138576868Y-140064146D01*
X140983180Y-140064146D01*
X141034931Y-140525639D01*
X141156593Y-140963069D01*
X141344553Y-141345833D01*
X141489151Y-141546560D01*
X141814923Y-141883532D01*
X142199271Y-142167975D01*
X142616957Y-142382586D01*
X143042744Y-142510064D01*
X143219455Y-142536409D01*
X143714950Y-142542925D01*
X144191320Y-142454521D01*
X144637357Y-142279215D01*
X145041852Y-142025026D01*
X145393598Y-141699973D01*
X145681387Y-141312075D01*
X145894011Y-140869349D01*
X146020263Y-140379815D01*
X146046991Y-140109635D01*
X146018549Y-139617110D01*
X145895033Y-139144228D01*
X145683425Y-138704020D01*
X145390705Y-138309517D01*
X145023854Y-137973749D01*
X144589852Y-137709747D01*
X144410616Y-137626869D01*
X144248572Y-137565891D01*
X144088680Y-137528809D01*
X143894946Y-137507518D01*
X143631374Y-137493911D01*
X143531349Y-137490260D01*
X143279770Y-137487340D01*
X143087317Y-137499787D01*
X142919122Y-137531167D01*
X142740315Y-137585047D01*
X142422717Y-137713810D01*
X141978097Y-137981866D01*
X141605042Y-138325639D01*
X141308602Y-138740113D01*
X141093831Y-139220270D01*
X141004948Y-139609190D01*
X140983180Y-140064146D01*
X138576868Y-140064146D01*
X138587474Y-139958815D01*
X138657309Y-139466218D01*
X138758232Y-138961085D01*
X138943863Y-138302334D01*
X139175445Y-137728141D01*
X139451092Y-137242939D01*
X139768919Y-136851165D01*
X140072601Y-136542732D01*
X139758809Y-136007407D01*
X139702154Y-135912138D01*
X139545079Y-135667648D01*
X139428321Y-135520970D01*
X139351862Y-135472083D01*
X139312855Y-135466796D01*
X139184509Y-135397277D01*
X139067221Y-135273820D01*
X138996509Y-135130561D01*
X138990871Y-134994711D01*
X139057772Y-134822777D01*
X139187074Y-134682736D01*
X139354317Y-134598892D01*
X139535040Y-134595546D01*
X139586701Y-134610662D01*
X139754671Y-134711040D01*
X139846157Y-134877165D01*
X139866708Y-135117773D01*
X139864925Y-135230038D01*
X139879299Y-135350258D01*
X139921365Y-135475399D01*
X140001086Y-135633420D01*
X140128425Y-135852281D01*
X140402938Y-136311853D01*
X140786574Y-136136322D01*
X140905624Y-136083685D01*
X141286589Y-135940946D01*
X141686381Y-135832829D01*
X142121924Y-135756881D01*
X142610142Y-135710646D01*
X143167960Y-135691670D01*
X143812300Y-135697499D01*
X143952931Y-135701183D01*
X144308891Y-135712894D01*
X144588989Y-135727540D01*
X144815655Y-135747445D01*
X145011319Y-135774934D01*
X145198413Y-135812331D01*
X145399365Y-135861962D01*
X145511392Y-135892791D01*
X145791030Y-135979462D01*
X146058050Y-136073774D01*
X146267163Y-136160165D01*
X146285824Y-136168869D01*
X146451712Y-136243457D01*
X146572121Y-136292740D01*
X146622102Y-136306438D01*
X146638731Y-136279197D01*
X146698390Y-136176014D01*
X146790200Y-136014965D01*
X146902720Y-135816041D01*
X147004307Y-135632485D01*
X147089649Y-135461896D01*
X147135066Y-135336087D01*
X147149188Y-135229718D01*
X147140646Y-135117450D01*
X147139515Y-135109134D01*
X147130937Y-134958570D01*
X147168720Y-134851579D01*
X147271388Y-134733804D01*
X147347279Y-134666392D01*
X147521848Y-134581490D01*
X147693612Y-134601774D01*
X147868238Y-134727179D01*
X147924951Y-134791495D01*
X148015262Y-134979311D01*
X148004818Y-135167725D01*
X147893031Y-135342196D01*
X147885436Y-135349624D01*
X147766739Y-135436360D01*
X147660488Y-135472083D01*
X147605183Y-135494018D01*
X147521069Y-135581602D01*
X147408973Y-135745555D01*
X147261208Y-135995964D01*
X147154104Y-136186955D01*
X147055805Y-136366298D01*
X146989137Y-136492748D01*
X146964584Y-136546832D01*
X146967541Y-136553715D01*
X147019602Y-136619711D01*
X147123190Y-136735781D01*
X147260773Y-136882079D01*
X147555645Y-137254059D01*
X147818181Y-137721580D01*
X148042504Y-138273800D01*
X148225290Y-138902530D01*
X148363220Y-139599583D01*
X148390080Y-139784393D01*
X148427058Y-140109635D01*
X148447436Y-140288866D01*
G37*
G36*
X145249909Y-139599583D02*
G01*
X145270031Y-139681828D01*
X145305772Y-139883045D01*
X145306663Y-140045510D01*
X145306762Y-140063465D01*
X145275167Y-140281600D01*
X145162780Y-140679988D01*
X144961962Y-141057851D01*
X144685680Y-141365568D01*
X144339263Y-141597343D01*
X143928040Y-141747376D01*
X143711599Y-141793890D01*
X143512707Y-141813061D01*
X143316882Y-141795548D01*
X143073097Y-141740967D01*
X142868040Y-141675783D01*
X142502641Y-141486428D01*
X142202526Y-141230651D01*
X141971518Y-140922359D01*
X141813440Y-140575462D01*
X141732113Y-140203868D01*
X141731913Y-140102090D01*
X142414077Y-140102090D01*
X142477250Y-140224000D01*
X142578078Y-140277172D01*
X142721059Y-140276157D01*
X142836514Y-140208812D01*
X142857823Y-140175182D01*
X142875414Y-140045510D01*
X142829270Y-139916808D01*
X142733126Y-139838303D01*
X142637743Y-139827050D01*
X142513384Y-139874884D01*
X142432475Y-139976141D01*
X142414077Y-140102090D01*
X141731913Y-140102090D01*
X141731360Y-139821484D01*
X141815004Y-139442220D01*
X141924183Y-139212100D01*
X142678334Y-139212100D01*
X142697776Y-139378263D01*
X142801472Y-139581876D01*
X142996418Y-139732177D01*
X143131076Y-139787256D01*
X143244560Y-139810045D01*
X143270198Y-139808743D01*
X143461637Y-139749306D01*
X143640494Y-139621967D01*
X143765464Y-139454888D01*
X143782631Y-139414977D01*
X143819298Y-139193198D01*
X143767027Y-138985153D01*
X143639704Y-138811227D01*
X143451213Y-138691807D01*
X143215438Y-138647281D01*
X143206177Y-138647389D01*
X143014034Y-138699863D01*
X142844773Y-138829601D01*
X142724253Y-139009411D01*
X142678334Y-139212100D01*
X141924183Y-139212100D01*
X141986865Y-139079983D01*
X142250767Y-138748683D01*
X142542401Y-138499318D01*
X142854487Y-138331022D01*
X143200099Y-138246404D01*
X143604375Y-138235942D01*
X143777842Y-138252145D01*
X144197785Y-138357844D01*
X144561414Y-138550782D01*
X144862278Y-138825615D01*
X145093926Y-139176997D01*
X145099906Y-139193198D01*
X145249909Y-139599583D01*
G37*
%LPC*%
D10*
X227695000Y-134500000D03*
D11*
X224195000Y-134500000D03*
X339295000Y-134632500D03*
D10*
X342795000Y-134632500D03*
X325945000Y-134632500D03*
D11*
X322445000Y-134632500D03*
X276500000Y-134532500D03*
D10*
X280000000Y-134532500D03*
X392045000Y-134782500D03*
D11*
X388545000Y-134782500D03*
D10*
X374900000Y-134800000D03*
D11*
X371400000Y-134800000D03*
D12*
X248500000Y-140000000D03*
D13*
X272805000Y-144567500D03*
D11*
X276305000Y-144567500D03*
D14*
X65150000Y-131000000D03*
X68850000Y-131000000D03*
X73150000Y-131000000D03*
X76850000Y-131000000D03*
X51650000Y-151000000D03*
X55350000Y-151000000D03*
X59650000Y-151000000D03*
X63350000Y-151000000D03*
X85300000Y-146000000D03*
X89000000Y-146000000D03*
X93300000Y-146000000D03*
X97000000Y-146000000D03*
X400300000Y-146000000D03*
X404000000Y-146000000D03*
X408300000Y-146000000D03*
X412000000Y-146000000D03*
X216550000Y-139500000D03*
X220250000Y-139500000D03*
X224550000Y-139500000D03*
X228250000Y-139500000D03*
D13*
X367405000Y-144867500D03*
D11*
X370905000Y-144867500D03*
D15*
X421000000Y-151000000D03*
D11*
X387905000Y-144867500D03*
D13*
X384405000Y-144867500D03*
D16*
X69460000Y-136722500D03*
D17*
X74540000Y-136722500D03*
D14*
X314400000Y-139600000D03*
X318100000Y-139600000D03*
X322400000Y-139600000D03*
X326100000Y-139600000D03*
D15*
X29000000Y-151000000D03*
D12*
X57000000Y-140000000D03*
D13*
X220555000Y-144567500D03*
D11*
X224055000Y-144567500D03*
D13*
X318405000Y-144635000D03*
D11*
X321905000Y-144635000D03*
D18*
X46277500Y-144460000D03*
D19*
X46277500Y-149540000D03*
D12*
X353250000Y-140000000D03*
D14*
X363450000Y-139800000D03*
X367150000Y-139800000D03*
X371450000Y-139800000D03*
X375150000Y-139800000D03*
D20*
X31700000Y-145060000D03*
D21*
X29160000Y-145060000D03*
X31700000Y-142520000D03*
X29160000Y-142520000D03*
X31700000Y-139980000D03*
X29160000Y-139980000D03*
X31700000Y-137440000D03*
X29160000Y-137440000D03*
X31700000Y-134900000D03*
X29160000Y-134900000D03*
D22*
X202350000Y-130477500D03*
X189650000Y-130477500D03*
D14*
X331400000Y-139600000D03*
X335100000Y-139600000D03*
X339400000Y-139600000D03*
X343100000Y-139600000D03*
D22*
X97350000Y-130477500D03*
X84650000Y-130477500D03*
X307350000Y-130477500D03*
X294650000Y-130477500D03*
D13*
X335405000Y-144635000D03*
D11*
X338905000Y-144635000D03*
D22*
X412350000Y-130477500D03*
X399650000Y-130477500D03*
D15*
X421000000Y-129000000D03*
D23*
X45432500Y-129555000D03*
D24*
X45432500Y-133055000D03*
X45432500Y-136555000D03*
D15*
X29000000Y-129000000D03*
D20*
X421000000Y-145160000D03*
D21*
X423540000Y-145160000D03*
X421000000Y-142620000D03*
X423540000Y-142620000D03*
X421000000Y-140080000D03*
X423540000Y-140080000D03*
X421000000Y-137540000D03*
X423540000Y-137540000D03*
X421000000Y-135000000D03*
X423540000Y-135000000D03*
D14*
X294800000Y-146000000D03*
X298500000Y-146000000D03*
X302800000Y-146000000D03*
X306500000Y-146000000D03*
X190300000Y-146000000D03*
X194000000Y-146000000D03*
X198300000Y-146000000D03*
X202000000Y-146000000D03*
X268750000Y-139500000D03*
X272450000Y-139500000D03*
X276750000Y-139500000D03*
X280450000Y-139500000D03*
X392150000Y-139800000D03*
X388450000Y-139800000D03*
X384150000Y-139800000D03*
X380450000Y-139800000D03*
D12*
X143500000Y-140000000D03*
%LPD*%
M02*
