  0
SECTION
  2
HEADER
  9
$ANGBASE
  50
0.0
  9
$ANGDIR
  70
1
  9
$MEASUREMENT
  70
1
  0
ENDSEC
  0
SECTION
  2
TABLES
  0
TABLE
  2
LTYPE
  70
4
  0
LTYPE
  5
40F
  2
CONTINUOUS
  70
0
  3
Solid line
  72
65
  73
0
  40
0.0
  0
LTYPE
  5
410
  2
DASHDOT
 70
0
  3
Dash Dot ____ _ ____ _
 72
65
 73
4
 40
2.0
 49
1.25
 49
-0.25
 49
0.25
 49
-0.25
  0
LTYPE
  5
411
  2
DASHED
 70
0
  3
Dashed __ __ __ __ __
 72
65
 73
2
 40
0.75
 49
0.5
 49
-0.25
  0
LTYPE
  5
43B
  2
DOTTED
 70
0
  3
Dotted .  .  .  .
 72
65
 73
2
 40
0.2
 49
0.0
 49
-0.2
  0
ENDTAB
  0
TABLE
  2
STYLE
  70
4
  0
STYLE
  2
KICAD
  70
0
  40
0
  41
1
  42
1
  50
0
  71
0
  3
isocp.shx
  0
STYLE
  2
KICADB
  70
0
  40
0
  41
1
  42
1
  50
0
  71
0
  3
isocp.shx
  0
STYLE
  2
KICADI
  70
0
  40
0
  41
1
  42
1
  50
15
  71
0
  3
isocp.shx
  0
STYLE
  2
KICADBI
  70
0
  40
0
  41
1
  42
1
  50
15
  71
0
  3
isocp.shx
  0
ENDTAB
  0
TABLE
  2
LAYER
  70
1
  0
LAYER
  2
BLACK
  70
0
  62
7
  6
CONTINUOUS
  0
ENDTAB
  0
ENDSEC
  0
SECTION
  2
ENTITIES
0
LINE
8
BLACK
6
CONTINUOUS
10
25
20
-125
11
425
21
-125
0
LINE
8
BLACK
6
CONTINUOUS
10
425
20
-125
11
425
21
-155
0
LINE
8
BLACK
6
CONTINUOUS
10
425
20
-155
11
25
21
-155
0
LINE
8
BLACK
6
CONTINUOUS
10
25
20
-155
11
25
21
-125
0
LINE
8
BLACK
6
CONTINUOUS
10
27.4
20
-127.4
11
30.6
21
-130.6
0
LINE
8
BLACK
6
CONTINUOUS
10
30.6
20
-127.4
11
27.4
21
-130.6
0
LINE
8
BLACK
6
CONTINUOUS
10
27.4
20
-149.4
11
30.6
21
-152.6
0
LINE
8
BLACK
6
CONTINUOUS
10
30.6
20
-149.4
11
27.4
21
-152.6
0
LINE
8
BLACK
6
CONTINUOUS
10
419.4
20
-127.4
11
422.6
21
-130.6
0
LINE
8
BLACK
6
CONTINUOUS
10
422.6
20
-127.4
11
419.4
21
-130.6
0
LINE
8
BLACK
6
CONTINUOUS
10
419.4
20
-149.4
11
422.6
21
-152.6
0
LINE
8
BLACK
6
CONTINUOUS
10
422.6
20
-149.4
11
419.4
21
-152.6
0
CIRCLE
8
BLACK
10
84.65
20
-130.477
40
1.625
0
CIRCLE
8
BLACK
10
97.35
20
-130.477
40
1.625
0
CIRCLE
8
BLACK
10
189.65
20
-130.477
40
1.625
0
CIRCLE
8
BLACK
10
202.35
20
-130.477
40
1.625
0
CIRCLE
8
BLACK
10
294.65
20
-130.477
40
1.625
0
CIRCLE
8
BLACK
10
307.35
20
-130.477
40
1.625
0
CIRCLE
8
BLACK
10
399.65
20
-130.477
40
1.625
0
CIRCLE
8
BLACK
10
412.35
20
-130.477
40
1.625
0
LINE
8
BLACK
6
CONTINUOUS
10
57
20
-137.85
11
57
21
-142.15
0
LINE
8
BLACK
6
CONTINUOUS
10
54.85
20
-140
11
59.15
21
-140
0
LINE
8
BLACK
6
CONTINUOUS
10
143.5
20
-137.85
11
143.5
21
-142.15
0
LINE
8
BLACK
6
CONTINUOUS
10
141.35
20
-140
11
145.65
21
-140
0
LINE
8
BLACK
6
CONTINUOUS
10
248.5
20
-137.85
11
248.5
21
-142.15
0
LINE
8
BLACK
6
CONTINUOUS
10
246.35
20
-140
11
250.65
21
-140
0
LINE
8
BLACK
6
CONTINUOUS
10
353.25
20
-137.85
11
353.25
21
-142.15
0
LINE
8
BLACK
6
CONTINUOUS
10
351.1
20
-140
11
355.4
21
-140
0
LINE
8
BLACK
6
CONTINUOUS
10
27.4262
20
-158.175
11
27.4262
21
-156.175
0
LINE
8
BLACK
6
CONTINUOUS
10
27.4262
20
-156.175
11
27.9024
21
-156.175
0
LINE
8
BLACK
6
CONTINUOUS
10
27.9024
20
-156.175
11
28.1881
21
-156.27
0
LINE
8
BLACK
6
CONTINUOUS
10
28.1881
20
-156.27
11
28.3786
21
-156.461
0
LINE
8
BLACK
6
CONTINUOUS
10
28.3786
20
-156.461
11
28.4738
21
-156.651
0
LINE
8
BLACK
6
CONTINUOUS
10
28.4738
20
-156.651
11
28.569
21
-157.032
0
LINE
8
BLACK
6
CONTINUOUS
10
28.569
20
-157.032
11
28.569
21
-157.318
0
LINE
8
BLACK
6
CONTINUOUS
10
28.569
20
-157.318
11
28.4738
21
-157.699
0
LINE
8
BLACK
6
CONTINUOUS
10
28.4738
20
-157.699
11
28.3786
21
-157.89
0
LINE
8
BLACK
6
CONTINUOUS
10
28.3786
20
-157.89
11
28.1881
21
-158.08
0
LINE
8
BLACK
6
CONTINUOUS
10
28.1881
20
-158.08
11
27.9024
21
-158.175
0
LINE
8
BLACK
6
CONTINUOUS
10
27.9024
20
-158.175
11
27.4262
21
-158.175
0
LINE
8
BLACK
6
CONTINUOUS
10
29.4262
20
-158.175
11
29.4262
21
-156.842
0
LINE
8
BLACK
6
CONTINUOUS
10
29.4262
20
-157.223
11
29.5214
21
-157.032
0
LINE
8
BLACK
6
CONTINUOUS
10
29.5214
20
-157.032
11
29.6167
21
-156.937
0
LINE
8
BLACK
6
CONTINUOUS
10
29.6167
20
-156.937
11
29.8071
21
-156.842
0
LINE
8
BLACK
6
CONTINUOUS
10
29.8071
20
-156.842
11
29.9976
21
-156.842
0
LINE
8
BLACK
6
CONTINUOUS
10
30.6643
20
-158.175
11
30.6643
21
-156.842
0
LINE
8
BLACK
6
CONTINUOUS
10
30.6643
20
-156.175
11
30.569
21
-156.27
0
LINE
8
BLACK
6
CONTINUOUS
10
30.569
20
-156.27
11
30.6643
21
-156.366
0
LINE
8
BLACK
6
CONTINUOUS
10
30.6643
20
-156.366
11
30.7595
21
-156.27
0
LINE
8
BLACK
6
CONTINUOUS
10
30.7595
20
-156.27
11
30.6643
21
-156.175
0
LINE
8
BLACK
6
CONTINUOUS
10
30.6643
20
-156.175
11
30.6643
21
-156.366
0
LINE
8
BLACK
6
CONTINUOUS
10
31.9024
20
-158.175
11
31.7119
21
-158.08
0
LINE
8
BLACK
6
CONTINUOUS
10
31.7119
20
-158.08
11
31.6167
21
-157.89
0
LINE
8
BLACK
6
CONTINUOUS
10
31.6167
20
-157.89
11
31.6167
21
-156.175
0
LINE
8
BLACK
6
CONTINUOUS
10
32.95
20
-158.175
11
32.7595
21
-158.08
0
LINE
8
BLACK
6
CONTINUOUS
10
32.7595
20
-158.08
11
32.6643
21
-157.89
0
LINE
8
BLACK
6
CONTINUOUS
10
32.6643
20
-157.89
11
32.6643
21
-156.175
0
LINE
8
BLACK
6
CONTINUOUS
10
35.2357
20
-158.175
11
35.2357
21
-156.175
0
LINE
8
BLACK
6
CONTINUOUS
10
35.2357
20
-156.175
11
35.9024
21
-157.604
0
LINE
8
BLACK
6
CONTINUOUS
10
35.9024
20
-157.604
11
36.569
21
-156.175
0
LINE
8
BLACK
6
CONTINUOUS
10
36.569
20
-156.175
11
36.569
21
-158.175
0
LINE
8
BLACK
6
CONTINUOUS
10
38.3786
20
-158.175
11
38.3786
21
-157.128
0
LINE
8
BLACK
6
CONTINUOUS
10
38.3786
20
-157.128
11
38.2833
21
-156.937
0
LINE
8
BLACK
6
CONTINUOUS
10
38.2833
20
-156.937
11
38.0929
21
-156.842
0
LINE
8
BLACK
6
CONTINUOUS
10
38.0929
20
-156.842
11
37.7119
21
-156.842
0
LINE
8
BLACK
6
CONTINUOUS
10
37.7119
20
-156.842
11
37.5214
21
-156.937
0
LINE
8
BLACK
6
CONTINUOUS
10
38.3786
20
-158.08
11
38.1881
21
-158.175
0
LINE
8
BLACK
6
CONTINUOUS
10
38.1881
20
-158.175
11
37.7119
21
-158.175
0
LINE
8
BLACK
6
CONTINUOUS
10
37.7119
20
-158.175
11
37.5214
21
-158.08
0
LINE
8
BLACK
6
CONTINUOUS
10
37.5214
20
-158.08
11
37.4262
21
-157.89
0
LINE
8
BLACK
6
CONTINUOUS
10
37.4262
20
-157.89
11
37.4262
21
-157.699
0
LINE
8
BLACK
6
CONTINUOUS
10
37.4262
20
-157.699
11
37.5214
21
-157.509
0
LINE
8
BLACK
6
CONTINUOUS
10
37.5214
20
-157.509
11
37.7119
21
-157.413
0
LINE
8
BLACK
6
CONTINUOUS
10
37.7119
20
-157.413
11
38.1881
21
-157.413
0
LINE
8
BLACK
6
CONTINUOUS
10
38.1881
20
-157.413
11
38.3786
21
-157.318
0
LINE
8
BLACK
6
CONTINUOUS
10
39.331
20
-156.842
11
39.331
21
-158.842
0
LINE
8
BLACK
6
CONTINUOUS
10
39.331
20
-156.937
11
39.5214
21
-156.842
0
LINE
8
BLACK
6
CONTINUOUS
10
39.5214
20
-156.842
11
39.9024
21
-156.842
0
LINE
8
BLACK
6
CONTINUOUS
10
39.9024
20
-156.842
11
40.0929
21
-156.937
0
LINE
8
BLACK
6
CONTINUOUS
10
40.0929
20
-156.937
11
40.1881
21
-157.032
0
LINE
8
BLACK
6
CONTINUOUS
10
40.1881
20
-157.032
11
40.2833
21
-157.223
0
LINE
8
BLACK
6
CONTINUOUS
10
40.2833
20
-157.223
11
40.2833
21
-157.794
0
LINE
8
BLACK
6
CONTINUOUS
10
40.2833
20
-157.794
11
40.1881
21
-157.985
0
LINE
8
BLACK
6
CONTINUOUS
10
40.1881
20
-157.985
11
40.0929
21
-158.08
0
LINE
8
BLACK
6
CONTINUOUS
10
40.0929
20
-158.08
11
39.9024
21
-158.175
0
LINE
8
BLACK
6
CONTINUOUS
10
39.9024
20
-158.175
11
39.5214
21
-158.175
0
LINE
8
BLACK
6
CONTINUOUS
10
39.5214
20
-158.175
11
39.331
21
-158.08
0
LINE
8
BLACK
6
CONTINUOUS
10
41.1405
20
-157.985
11
41.2357
21
-158.08
0
LINE
8
BLACK
6
CONTINUOUS
10
41.2357
20
-158.08
11
41.1405
21
-158.175
0
LINE
8
BLACK
6
CONTINUOUS
10
41.1405
20
-158.175
11
41.0452
21
-158.08
0
LINE
8
BLACK
6
CONTINUOUS
10
41.0452
20
-158.08
11
41.1405
21
-157.985
0
LINE
8
BLACK
6
CONTINUOUS
10
41.1405
20
-157.985
11
41.1405
21
-158.175
0
LINE
8
BLACK
6
CONTINUOUS
10
41.1405
20
-156.937
11
41.2357
21
-157.032
0
LINE
8
BLACK
6
CONTINUOUS
10
41.2357
20
-157.032
11
41.1405
21
-157.128
0
LINE
8
BLACK
6
CONTINUOUS
10
41.1405
20
-157.128
11
41.0452
21
-157.032
0
LINE
8
BLACK
6
CONTINUOUS
10
41.0452
20
-157.032
11
41.1405
21
-156.937
0
LINE
8
BLACK
6
CONTINUOUS
10
41.1405
20
-156.937
11
41.1405
21
-157.128
0
LINE
8
BLACK
6
CONTINUOUS
10
22.95
20
-160.45
11
24.95
21
-162.45
0
LINE
8
BLACK
6
CONTINUOUS
10
24.95
20
-160.45
11
22.95
21
-162.45
0
LINE
8
BLACK
6
CONTINUOUS
10
27.2357
20
-160.375
11
28.4738
21
-160.375
0
LINE
8
BLACK
6
CONTINUOUS
10
28.4738
20
-160.375
11
27.8071
21
-161.137
0
LINE
8
BLACK
6
CONTINUOUS
10
27.8071
20
-161.137
11
28.0929
21
-161.137
0
LINE
8
BLACK
6
CONTINUOUS
10
28.0929
20
-161.137
11
28.2833
21
-161.232
0
LINE
8
BLACK
6
CONTINUOUS
10
28.2833
20
-161.232
11
28.3786
21
-161.328
0
LINE
8
BLACK
6
CONTINUOUS
10
28.3786
20
-161.328
11
28.4738
21
-161.518
0
LINE
8
BLACK
6
CONTINUOUS
10
28.4738
20
-161.518
11
28.4738
21
-161.994
0
LINE
8
BLACK
6
CONTINUOUS
10
28.4738
20
-161.994
11
28.3786
21
-162.185
0
LINE
8
BLACK
6
CONTINUOUS
10
28.3786
20
-162.185
11
28.2833
21
-162.28
0
LINE
8
BLACK
6
CONTINUOUS
10
28.2833
20
-162.28
11
28.0929
21
-162.375
0
LINE
8
BLACK
6
CONTINUOUS
10
28.0929
20
-162.375
11
27.5214
21
-162.375
0
LINE
8
BLACK
6
CONTINUOUS
10
27.5214
20
-162.375
11
27.331
21
-162.28
0
LINE
8
BLACK
6
CONTINUOUS
10
27.331
20
-162.28
11
27.2357
21
-162.185
0
LINE
8
BLACK
6
CONTINUOUS
10
29.331
20
-162.185
11
29.4262
21
-162.28
0
LINE
8
BLACK
6
CONTINUOUS
10
29.4262
20
-162.28
11
29.331
21
-162.375
0
LINE
8
BLACK
6
CONTINUOUS
10
29.331
20
-162.375
11
29.2357
21
-162.28
0
LINE
8
BLACK
6
CONTINUOUS
10
29.2357
20
-162.28
11
29.331
21
-162.185
0
LINE
8
BLACK
6
CONTINUOUS
10
29.331
20
-162.185
11
29.331
21
-162.375
0
LINE
8
BLACK
6
CONTINUOUS
10
30.1881
20
-160.566
11
30.2833
21
-160.47
0
LINE
8
BLACK
6
CONTINUOUS
10
30.2833
20
-160.47
11
30.4738
21
-160.375
0
LINE
8
BLACK
6
CONTINUOUS
10
30.4738
20
-160.375
11
30.95
21
-160.375
0
LINE
8
BLACK
6
CONTINUOUS
10
30.95
20
-160.375
11
31.1405
21
-160.47
0
LINE
8
BLACK
6
CONTINUOUS
10
31.1405
20
-160.47
11
31.2357
21
-160.566
0
LINE
8
BLACK
6
CONTINUOUS
10
31.2357
20
-160.566
11
31.331
21
-160.756
0
LINE
8
BLACK
6
CONTINUOUS
10
31.331
20
-160.756
11
31.331
21
-160.947
0
LINE
8
BLACK
6
CONTINUOUS
10
31.331
20
-160.947
11
31.2357
21
-161.232
0
LINE
8
BLACK
6
CONTINUOUS
10
31.2357
20
-161.232
11
30.0929
21
-162.375
0
LINE
8
BLACK
6
CONTINUOUS
10
30.0929
20
-162.375
11
31.331
21
-162.375
0
LINE
8
BLACK
6
CONTINUOUS
10
32.569
20
-160.375
11
32.7595
21
-160.375
0
LINE
8
BLACK
6
CONTINUOUS
10
32.7595
20
-160.375
11
32.95
21
-160.47
0
LINE
8
BLACK
6
CONTINUOUS
10
32.95
20
-160.47
11
33.0452
21
-160.566
0
LINE
8
BLACK
6
CONTINUOUS
10
33.0452
20
-160.566
11
33.1405
21
-160.756
0
LINE
8
BLACK
6
CONTINUOUS
10
33.1405
20
-160.756
11
33.2357
21
-161.137
0
LINE
8
BLACK
6
CONTINUOUS
10
33.2357
20
-161.137
11
33.2357
21
-161.613
0
LINE
8
BLACK
6
CONTINUOUS
10
33.2357
20
-161.613
11
33.1405
21
-161.994
0
LINE
8
BLACK
6
CONTINUOUS
10
33.1405
20
-161.994
11
33.0452
21
-162.185
0
LINE
8
BLACK
6
CONTINUOUS
10
33.0452
20
-162.185
11
32.95
21
-162.28
0
LINE
8
BLACK
6
CONTINUOUS
10
32.95
20
-162.28
11
32.7595
21
-162.375
0
LINE
8
BLACK
6
CONTINUOUS
10
32.7595
20
-162.375
11
32.569
21
-162.375
0
LINE
8
BLACK
6
CONTINUOUS
10
32.569
20
-162.375
11
32.3786
21
-162.28
0
LINE
8
BLACK
6
CONTINUOUS
10
32.3786
20
-162.28
11
32.2833
21
-162.185
0
LINE
8
BLACK
6
CONTINUOUS
10
32.2833
20
-162.185
11
32.1881
21
-161.994
0
LINE
8
BLACK
6
CONTINUOUS
10
32.1881
20
-161.994
11
32.0929
21
-161.613
0
LINE
8
BLACK
6
CONTINUOUS
10
32.0929
20
-161.613
11
32.0929
21
-161.137
0
LINE
8
BLACK
6
CONTINUOUS
10
32.0929
20
-161.137
11
32.1881
21
-160.756
0
LINE
8
BLACK
6
CONTINUOUS
10
32.1881
20
-160.756
11
32.2833
21
-160.566
0
LINE
8
BLACK
6
CONTINUOUS
10
32.2833
20
-160.566
11
32.3786
21
-160.47
0
LINE
8
BLACK
6
CONTINUOUS
10
32.3786
20
-160.47
11
32.569
21
-160.375
0
LINE
8
BLACK
6
CONTINUOUS
10
34.4738
20
-160.375
11
34.6643
21
-160.375
0
LINE
8
BLACK
6
CONTINUOUS
10
34.6643
20
-160.375
11
34.8548
21
-160.47
0
LINE
8
BLACK
6
CONTINUOUS
10
34.8548
20
-160.47
11
34.95
21
-160.566
0
LINE
8
BLACK
6
CONTINUOUS
10
34.95
20
-160.566
11
35.0452
21
-160.756
0
LINE
8
BLACK
6
CONTINUOUS
10
35.0452
20
-160.756
11
35.1405
21
-161.137
0
LINE
8
BLACK
6
CONTINUOUS
10
35.1405
20
-161.137
11
35.1405
21
-161.613
0
LINE
8
BLACK
6
CONTINUOUS
10
35.1405
20
-161.613
11
35.0452
21
-161.994
0
LINE
8
BLACK
6
CONTINUOUS
10
35.0452
20
-161.994
11
34.95
21
-162.185
0
LINE
8
BLACK
6
CONTINUOUS
10
34.95
20
-162.185
11
34.8548
21
-162.28
0
LINE
8
BLACK
6
CONTINUOUS
10
34.8548
20
-162.28
11
34.6643
21
-162.375
0
LINE
8
BLACK
6
CONTINUOUS
10
34.6643
20
-162.375
11
34.4738
21
-162.375
0
LINE
8
BLACK
6
CONTINUOUS
10
34.4738
20
-162.375
11
34.2833
21
-162.28
0
LINE
8
BLACK
6
CONTINUOUS
10
34.2833
20
-162.28
11
34.1881
21
-162.185
0
LINE
8
BLACK
6
CONTINUOUS
10
34.1881
20
-162.185
11
34.0929
21
-161.994
0
LINE
8
BLACK
6
CONTINUOUS
10
34.0929
20
-161.994
11
33.9976
21
-161.613
0
LINE
8
BLACK
6
CONTINUOUS
10
33.9976
20
-161.613
11
33.9976
21
-161.137
0
LINE
8
BLACK
6
CONTINUOUS
10
33.9976
20
-161.137
11
34.0929
21
-160.756
0
LINE
8
BLACK
6
CONTINUOUS
10
34.0929
20
-160.756
11
34.1881
21
-160.566
0
LINE
8
BLACK
6
CONTINUOUS
10
34.1881
20
-160.566
11
34.2833
21
-160.47
0
LINE
8
BLACK
6
CONTINUOUS
10
34.2833
20
-160.47
11
34.4738
21
-160.375
0
LINE
8
BLACK
6
CONTINUOUS
10
35.9976
20
-162.375
11
35.9976
21
-161.042
0
LINE
8
BLACK
6
CONTINUOUS
10
35.9976
20
-161.232
11
36.0929
21
-161.137
0
LINE
8
BLACK
6
CONTINUOUS
10
36.0929
20
-161.137
11
36.2833
21
-161.042
0
LINE
8
BLACK
6
CONTINUOUS
10
36.2833
20
-161.042
11
36.569
21
-161.042
0
LINE
8
BLACK
6
CONTINUOUS
10
36.569
20
-161.042
11
36.7595
21
-161.137
0
LINE
8
BLACK
6
CONTINUOUS
10
36.7595
20
-161.137
11
36.8548
21
-161.328
0
LINE
8
BLACK
6
CONTINUOUS
10
36.8548
20
-161.328
11
36.8548
21
-162.375
0
LINE
8
BLACK
6
CONTINUOUS
10
36.8548
20
-161.328
11
36.95
21
-161.137
0
LINE
8
BLACK
6
CONTINUOUS
10
36.95
20
-161.137
11
37.1405
21
-161.042
0
LINE
8
BLACK
6
CONTINUOUS
10
37.1405
20
-161.042
11
37.4262
21
-161.042
0
LINE
8
BLACK
6
CONTINUOUS
10
37.4262
20
-161.042
11
37.6167
21
-161.137
0
LINE
8
BLACK
6
CONTINUOUS
10
37.6167
20
-161.137
11
37.7119
21
-161.328
0
LINE
8
BLACK
6
CONTINUOUS
10
37.7119
20
-161.328
11
37.7119
21
-162.375
0
LINE
8
BLACK
6
CONTINUOUS
10
38.6643
20
-162.375
11
38.6643
21
-161.042
0
LINE
8
BLACK
6
CONTINUOUS
10
38.6643
20
-161.232
11
38.7595
21
-161.137
0
LINE
8
BLACK
6
CONTINUOUS
10
38.7595
20
-161.137
11
38.95
21
-161.042
0
LINE
8
BLACK
6
CONTINUOUS
10
38.95
20
-161.042
11
39.2357
21
-161.042
0
LINE
8
BLACK
6
CONTINUOUS
10
39.2357
20
-161.042
11
39.4262
21
-161.137
0
LINE
8
BLACK
6
CONTINUOUS
10
39.4262
20
-161.137
11
39.5214
21
-161.328
0
LINE
8
BLACK
6
CONTINUOUS
10
39.5214
20
-161.328
11
39.5214
21
-162.375
0
LINE
8
BLACK
6
CONTINUOUS
10
39.5214
20
-161.328
11
39.6167
21
-161.137
0
LINE
8
BLACK
6
CONTINUOUS
10
39.6167
20
-161.137
11
39.8071
21
-161.042
0
LINE
8
BLACK
6
CONTINUOUS
10
39.8071
20
-161.042
11
40.0929
21
-161.042
0
LINE
8
BLACK
6
CONTINUOUS
10
40.0929
20
-161.042
11
40.2833
21
-161.137
0
LINE
8
BLACK
6
CONTINUOUS
10
40.2833
20
-161.137
11
40.3786
21
-161.328
0
LINE
8
BLACK
6
CONTINUOUS
10
40.3786
20
-161.328
11
40.3786
21
-162.375
0
LINE
8
BLACK
6
CONTINUOUS
10
44.2833
20
-160.28
11
42.569
21
-162.851
0
LINE
8
BLACK
6
CONTINUOUS
10
46.8548
20
-160.375
11
47.0452
21
-160.375
0
LINE
8
BLACK
6
CONTINUOUS
10
47.0452
20
-160.375
11
47.2357
21
-160.47
0
LINE
8
BLACK
6
CONTINUOUS
10
47.2357
20
-160.47
11
47.331
21
-160.566
0
LINE
8
BLACK
6
CONTINUOUS
10
47.331
20
-160.566
11
47.4262
21
-160.756
0
LINE
8
BLACK
6
CONTINUOUS
10
47.4262
20
-160.756
11
47.5214
21
-161.137
0
LINE
8
BLACK
6
CONTINUOUS
10
47.5214
20
-161.137
11
47.5214
21
-161.613
0
LINE
8
BLACK
6
CONTINUOUS
10
47.5214
20
-161.613
11
47.4262
21
-161.994
0
LINE
8
BLACK
6
CONTINUOUS
10
47.4262
20
-161.994
11
47.331
21
-162.185
0
LINE
8
BLACK
6
CONTINUOUS
10
47.331
20
-162.185
11
47.2357
21
-162.28
0
LINE
8
BLACK
6
CONTINUOUS
10
47.2357
20
-162.28
11
47.0452
21
-162.375
0
LINE
8
BLACK
6
CONTINUOUS
10
47.0452
20
-162.375
11
46.8548
21
-162.375
0
LINE
8
BLACK
6
CONTINUOUS
10
46.8548
20
-162.375
11
46.6643
21
-162.28
0
LINE
8
BLACK
6
CONTINUOUS
10
46.6643
20
-162.28
11
46.569
21
-162.185
0
LINE
8
BLACK
6
CONTINUOUS
10
46.569
20
-162.185
11
46.4738
21
-161.994
0
LINE
8
BLACK
6
CONTINUOUS
10
46.4738
20
-161.994
11
46.3786
21
-161.613
0
LINE
8
BLACK
6
CONTINUOUS
10
46.3786
20
-161.613
11
46.3786
21
-161.137
0
LINE
8
BLACK
6
CONTINUOUS
10
46.3786
20
-161.137
11
46.4738
21
-160.756
0
LINE
8
BLACK
6
CONTINUOUS
10
46.4738
20
-160.756
11
46.569
21
-160.566
0
LINE
8
BLACK
6
CONTINUOUS
10
46.569
20
-160.566
11
46.6643
21
-160.47
0
LINE
8
BLACK
6
CONTINUOUS
10
46.6643
20
-160.47
11
46.8548
21
-160.375
0
LINE
8
BLACK
6
CONTINUOUS
10
48.3786
20
-162.185
11
48.4738
21
-162.28
0
LINE
8
BLACK
6
CONTINUOUS
10
48.4738
20
-162.28
11
48.3786
21
-162.375
0
LINE
8
BLACK
6
CONTINUOUS
10
48.3786
20
-162.375
11
48.2833
21
-162.28
0
LINE
8
BLACK
6
CONTINUOUS
10
48.2833
20
-162.28
11
48.3786
21
-162.185
0
LINE
8
BLACK
6
CONTINUOUS
10
48.3786
20
-162.185
11
48.3786
21
-162.375
0
LINE
8
BLACK
6
CONTINUOUS
10
50.3786
20
-162.375
11
49.2357
21
-162.375
0
LINE
8
BLACK
6
CONTINUOUS
10
49.8071
20
-162.375
11
49.8071
21
-160.375
0
LINE
8
BLACK
6
CONTINUOUS
10
49.8071
20
-160.375
11
49.6167
21
-160.661
0
LINE
8
BLACK
6
CONTINUOUS
10
49.6167
20
-160.661
11
49.4262
21
-160.851
0
LINE
8
BLACK
6
CONTINUOUS
10
49.4262
20
-160.851
11
49.2357
21
-160.947
0
LINE
8
BLACK
6
CONTINUOUS
10
51.1405
20
-160.566
11
51.2357
21
-160.47
0
LINE
8
BLACK
6
CONTINUOUS
10
51.2357
20
-160.47
11
51.4262
21
-160.375
0
LINE
8
BLACK
6
CONTINUOUS
10
51.4262
20
-160.375
11
51.9024
21
-160.375
0
LINE
8
BLACK
6
CONTINUOUS
10
51.9024
20
-160.375
11
52.0929
21
-160.47
0
LINE
8
BLACK
6
CONTINUOUS
10
52.0929
20
-160.47
11
52.1881
21
-160.566
0
LINE
8
BLACK
6
CONTINUOUS
10
52.1881
20
-160.566
11
52.2833
21
-160.756
0
LINE
8
BLACK
6
CONTINUOUS
10
52.2833
20
-160.756
11
52.2833
21
-160.947
0
LINE
8
BLACK
6
CONTINUOUS
10
52.2833
20
-160.947
11
52.1881
21
-161.232
0
LINE
8
BLACK
6
CONTINUOUS
10
52.1881
20
-161.232
11
51.0452
21
-162.375
0
LINE
8
BLACK
6
CONTINUOUS
10
51.0452
20
-162.375
11
52.2833
21
-162.375
0
LINE
8
BLACK
6
CONTINUOUS
10
53.9976
20
-160.375
11
53.6167
21
-160.375
0
LINE
8
BLACK
6
CONTINUOUS
10
53.6167
20
-160.375
11
53.4262
21
-160.47
0
LINE
8
BLACK
6
CONTINUOUS
10
53.4262
20
-160.47
11
53.331
21
-160.566
0
LINE
8
BLACK
6
CONTINUOUS
10
53.331
20
-160.566
11
53.1405
21
-160.851
0
LINE
8
BLACK
6
CONTINUOUS
10
53.1405
20
-160.851
11
53.0452
21
-161.232
0
LINE
8
BLACK
6
CONTINUOUS
10
53.0452
20
-161.232
11
53.0452
21
-161.994
0
LINE
8
BLACK
6
CONTINUOUS
10
53.0452
20
-161.994
11
53.1405
21
-162.185
0
LINE
8
BLACK
6
CONTINUOUS
10
53.1405
20
-162.185
11
53.2357
21
-162.28
0
LINE
8
BLACK
6
CONTINUOUS
10
53.2357
20
-162.28
11
53.4262
21
-162.375
0
LINE
8
BLACK
6
CONTINUOUS
10
53.4262
20
-162.375
11
53.8071
21
-162.375
0
LINE
8
BLACK
6
CONTINUOUS
10
53.8071
20
-162.375
11
53.9976
21
-162.28
0
LINE
8
BLACK
6
CONTINUOUS
10
53.9976
20
-162.28
11
54.0929
21
-162.185
0
LINE
8
BLACK
6
CONTINUOUS
10
54.0929
20
-162.185
11
54.1881
21
-161.994
0
LINE
8
BLACK
6
CONTINUOUS
10
54.1881
20
-161.994
11
54.1881
21
-161.518
0
LINE
8
BLACK
6
CONTINUOUS
10
54.1881
20
-161.518
11
54.0929
21
-161.328
0
LINE
8
BLACK
6
CONTINUOUS
10
54.0929
20
-161.328
11
53.9976
21
-161.232
0
LINE
8
BLACK
6
CONTINUOUS
10
53.9976
20
-161.232
11
53.8071
21
-161.137
0
LINE
8
BLACK
6
CONTINUOUS
10
53.8071
20
-161.137
11
53.4262
21
-161.137
0
LINE
8
BLACK
6
CONTINUOUS
10
53.4262
20
-161.137
11
53.2357
21
-161.232
0
LINE
8
BLACK
6
CONTINUOUS
10
53.2357
20
-161.232
11
53.1405
21
-161.328
0
LINE
8
BLACK
6
CONTINUOUS
10
53.1405
20
-161.328
11
53.0452
21
-161.518
0
LINE
8
BLACK
6
CONTINUOUS
10
55.4262
20
-160.375
11
55.6167
21
-160.375
0
LINE
8
BLACK
6
CONTINUOUS
10
55.6167
20
-160.375
11
55.8071
21
-160.47
0
LINE
8
BLACK
6
CONTINUOUS
10
55.8071
20
-160.47
11
55.9024
21
-160.566
0
LINE
8
BLACK
6
CONTINUOUS
10
55.9024
20
-160.566
11
55.9976
21
-160.756
0
LINE
8
BLACK
6
CONTINUOUS
10
55.9976
20
-160.756
11
56.0929
21
-161.137
0
LINE
8
BLACK
6
CONTINUOUS
10
56.0929
20
-161.137
11
56.0929
21
-161.613
0
LINE
8
BLACK
6
CONTINUOUS
10
56.0929
20
-161.613
11
55.9976
21
-161.994
0
LINE
8
BLACK
6
CONTINUOUS
10
55.9976
20
-161.994
11
55.9024
21
-162.185
0
LINE
8
BLACK
6
CONTINUOUS
10
55.9024
20
-162.185
11
55.8071
21
-162.28
0
LINE
8
BLACK
6
CONTINUOUS
10
55.8071
20
-162.28
11
55.6167
21
-162.375
0
LINE
8
BLACK
6
CONTINUOUS
10
55.6167
20
-162.375
11
55.4262
21
-162.375
0
LINE
8
BLACK
6
CONTINUOUS
10
55.4262
20
-162.375
11
55.2357
21
-162.28
0
LINE
8
BLACK
6
CONTINUOUS
10
55.2357
20
-162.28
11
55.1405
21
-162.185
0
LINE
8
BLACK
6
CONTINUOUS
10
55.1405
20
-162.185
11
55.0452
21
-161.994
0
LINE
8
BLACK
6
CONTINUOUS
10
55.0452
20
-161.994
11
54.95
21
-161.613
0
LINE
8
BLACK
6
CONTINUOUS
10
54.95
20
-161.613
11
54.95
21
-161.137
0
LINE
8
BLACK
6
CONTINUOUS
10
54.95
20
-161.137
11
55.0452
21
-160.756
0
LINE
8
BLACK
6
CONTINUOUS
10
55.0452
20
-160.756
11
55.1405
21
-160.566
0
LINE
8
BLACK
6
CONTINUOUS
10
55.1405
20
-160.566
11
55.2357
21
-160.47
0
LINE
8
BLACK
6
CONTINUOUS
10
55.2357
20
-160.47
11
55.4262
21
-160.375
0
LINE
8
BLACK
6
CONTINUOUS
10
56.8548
20
-160.375
11
56.8548
21
-160.756
0
LINE
8
BLACK
6
CONTINUOUS
10
57.6167
20
-160.375
11
57.6167
21
-160.756
0
LINE
8
BLACK
6
CONTINUOUS
10
60.5691
20
-163.137
11
60.4738
21
-163.042
0
LINE
8
BLACK
6
CONTINUOUS
10
60.4738
20
-163.042
11
60.2833
21
-162.756
0
LINE
8
BLACK
6
CONTINUOUS
10
60.2833
20
-162.756
11
60.1881
21
-162.566
0
LINE
8
BLACK
6
CONTINUOUS
10
60.1881
20
-162.566
11
60.0929
21
-162.28
0
LINE
8
BLACK
6
CONTINUOUS
10
60.0929
20
-162.28
11
59.9976
21
-161.804
0
LINE
8
BLACK
6
CONTINUOUS
10
59.9976
20
-161.804
11
59.9976
21
-161.423
0
LINE
8
BLACK
6
CONTINUOUS
10
59.9976
20
-161.423
11
60.0929
21
-160.947
0
LINE
8
BLACK
6
CONTINUOUS
10
60.0929
20
-160.947
11
60.1881
21
-160.661
0
LINE
8
BLACK
6
CONTINUOUS
10
60.1881
20
-160.661
11
60.2833
21
-160.47
0
LINE
8
BLACK
6
CONTINUOUS
10
60.2833
20
-160.47
11
60.4738
21
-160.185
0
LINE
8
BLACK
6
CONTINUOUS
10
60.4738
20
-160.185
11
60.5691
21
-160.09
0
LINE
8
BLACK
6
CONTINUOUS
10
62.1881
20
-161.042
11
62.1881
21
-162.375
0
LINE
8
BLACK
6
CONTINUOUS
10
61.7119
20
-160.28
11
61.2357
21
-161.709
0
LINE
8
BLACK
6
CONTINUOUS
10
61.2357
20
-161.709
11
62.4738
21
-161.709
0
LINE
8
BLACK
6
CONTINUOUS
10
64.7595
20
-162.375
11
64.7595
21
-160.375
0
LINE
8
BLACK
6
CONTINUOUS
10
65.6167
20
-162.375
11
65.6167
21
-161.328
0
LINE
8
BLACK
6
CONTINUOUS
10
65.6167
20
-161.328
11
65.5214
21
-161.137
0
LINE
8
BLACK
6
CONTINUOUS
10
65.5214
20
-161.137
11
65.331
21
-161.042
0
LINE
8
BLACK
6
CONTINUOUS
10
65.331
20
-161.042
11
65.0452
21
-161.042
0
LINE
8
BLACK
6
CONTINUOUS
10
65.0452
20
-161.042
11
64.8548
21
-161.137
0
LINE
8
BLACK
6
CONTINUOUS
10
64.8548
20
-161.137
11
64.7595
21
-161.232
0
LINE
8
BLACK
6
CONTINUOUS
10
66.8548
20
-162.375
11
66.6643
21
-162.28
0
LINE
8
BLACK
6
CONTINUOUS
10
66.6643
20
-162.28
11
66.5691
21
-162.185
0
LINE
8
BLACK
6
CONTINUOUS
10
66.5691
20
-162.185
11
66.4738
21
-161.994
0
LINE
8
BLACK
6
CONTINUOUS
10
66.4738
20
-161.994
11
66.4738
21
-161.423
0
LINE
8
BLACK
6
CONTINUOUS
10
66.4738
20
-161.423
11
66.5691
21
-161.232
0
LINE
8
BLACK
6
CONTINUOUS
10
66.5691
20
-161.232
11
66.6643
21
-161.137
0
LINE
8
BLACK
6
CONTINUOUS
10
66.6643
20
-161.137
11
66.8548
21
-161.042
0
LINE
8
BLACK
6
CONTINUOUS
10
66.8548
20
-161.042
11
67.1405
21
-161.042
0
LINE
8
BLACK
6
CONTINUOUS
10
67.1405
20
-161.042
11
67.331
21
-161.137
0
LINE
8
BLACK
6
CONTINUOUS
10
67.331
20
-161.137
11
67.4262
21
-161.232
0
LINE
8
BLACK
6
CONTINUOUS
10
67.4262
20
-161.232
11
67.5214
21
-161.423
0
LINE
8
BLACK
6
CONTINUOUS
10
67.5214
20
-161.423
11
67.5214
21
-161.994
0
LINE
8
BLACK
6
CONTINUOUS
10
67.5214
20
-161.994
11
67.4262
21
-162.185
0
LINE
8
BLACK
6
CONTINUOUS
10
67.4262
20
-162.185
11
67.331
21
-162.28
0
LINE
8
BLACK
6
CONTINUOUS
10
67.331
20
-162.28
11
67.1405
21
-162.375
0
LINE
8
BLACK
6
CONTINUOUS
10
67.1405
20
-162.375
11
66.8548
21
-162.375
0
LINE
8
BLACK
6
CONTINUOUS
10
68.6643
20
-162.375
11
68.4738
21
-162.28
0
LINE
8
BLACK
6
CONTINUOUS
10
68.4738
20
-162.28
11
68.3786
21
-162.09
0
LINE
8
BLACK
6
CONTINUOUS
10
68.3786
20
-162.09
11
68.3786
21
-160.375
0
LINE
8
BLACK
6
CONTINUOUS
10
70.1881
20
-162.28
11
69.9976
21
-162.375
0
LINE
8
BLACK
6
CONTINUOUS
10
69.9976
20
-162.375
11
69.6167
21
-162.375
0
LINE
8
BLACK
6
CONTINUOUS
10
69.6167
20
-162.375
11
69.4262
21
-162.28
0
LINE
8
BLACK
6
CONTINUOUS
10
69.4262
20
-162.28
11
69.331
21
-162.09
0
LINE
8
BLACK
6
CONTINUOUS
10
69.331
20
-162.09
11
69.331
21
-161.328
0
LINE
8
BLACK
6
CONTINUOUS
10
69.331
20
-161.328
11
69.4262
21
-161.137
0
LINE
8
BLACK
6
CONTINUOUS
10
69.4262
20
-161.137
11
69.6167
21
-161.042
0
LINE
8
BLACK
6
CONTINUOUS
10
69.6167
20
-161.042
11
69.9976
21
-161.042
0
LINE
8
BLACK
6
CONTINUOUS
10
69.9976
20
-161.042
11
70.1881
21
-161.137
0
LINE
8
BLACK
6
CONTINUOUS
10
70.1881
20
-161.137
11
70.2833
21
-161.328
0
LINE
8
BLACK
6
CONTINUOUS
10
70.2833
20
-161.328
11
70.2833
21
-161.518
0
LINE
8
BLACK
6
CONTINUOUS
10
70.2833
20
-161.518
11
69.331
21
-161.709
0
LINE
8
BLACK
6
CONTINUOUS
10
71.0452
20
-162.28
11
71.2357
21
-162.375
0
LINE
8
BLACK
6
CONTINUOUS
10
71.2357
20
-162.375
11
71.6167
21
-162.375
0
LINE
8
BLACK
6
CONTINUOUS
10
71.6167
20
-162.375
11
71.8071
21
-162.28
0
LINE
8
BLACK
6
CONTINUOUS
10
71.8071
20
-162.28
11
71.9024
21
-162.09
0
LINE
8
BLACK
6
CONTINUOUS
10
71.9024
20
-162.09
11
71.9024
21
-161.994
0
LINE
8
BLACK
6
CONTINUOUS
10
71.9024
20
-161.994
11
71.8071
21
-161.804
0
LINE
8
BLACK
6
CONTINUOUS
10
71.8071
20
-161.804
11
71.6167
21
-161.709
0
LINE
8
BLACK
6
CONTINUOUS
10
71.6167
20
-161.709
11
71.331
21
-161.709
0
LINE
8
BLACK
6
CONTINUOUS
10
71.331
20
-161.709
11
71.1405
21
-161.613
0
LINE
8
BLACK
6
CONTINUOUS
10
71.1405
20
-161.613
11
71.0452
21
-161.423
0
LINE
8
BLACK
6
CONTINUOUS
10
71.0452
20
-161.423
11
71.0452
21
-161.328
0
LINE
8
BLACK
6
CONTINUOUS
10
71.0452
20
-161.328
11
71.1405
21
-161.137
0
LINE
8
BLACK
6
CONTINUOUS
10
71.1405
20
-161.137
11
71.331
21
-161.042
0
LINE
8
BLACK
6
CONTINUOUS
10
71.331
20
-161.042
11
71.6167
21
-161.042
0
LINE
8
BLACK
6
CONTINUOUS
10
71.6167
20
-161.042
11
71.8071
21
-161.137
0
LINE
8
BLACK
6
CONTINUOUS
10
72.5691
20
-163.137
11
72.6643
21
-163.042
0
LINE
8
BLACK
6
CONTINUOUS
10
72.6643
20
-163.042
11
72.8548
21
-162.756
0
LINE
8
BLACK
6
CONTINUOUS
10
72.8548
20
-162.756
11
72.95
21
-162.566
0
LINE
8
BLACK
6
CONTINUOUS
10
72.95
20
-162.566
11
73.0452
21
-162.28
0
LINE
8
BLACK
6
CONTINUOUS
10
73.0452
20
-162.28
11
73.1405
21
-161.804
0
LINE
8
BLACK
6
CONTINUOUS
10
73.1405
20
-161.804
11
73.1405
21
-161.423
0
LINE
8
BLACK
6
CONTINUOUS
10
73.1405
20
-161.423
11
73.0452
21
-160.947
0
LINE
8
BLACK
6
CONTINUOUS
10
73.0452
20
-160.947
11
72.95
21
-160.661
0
LINE
8
BLACK
6
CONTINUOUS
10
72.95
20
-160.661
11
72.8548
21
-160.47
0
LINE
8
BLACK
6
CONTINUOUS
10
72.8548
20
-160.47
11
72.6643
21
-160.185
0
LINE
8
BLACK
6
CONTINUOUS
10
72.6643
20
-160.185
11
72.5691
21
-160.09
0
LINE
8
BLACK
6
CONTINUOUS
10
76.1881
20
-163.137
11
76.0929
21
-163.042
0
LINE
8
BLACK
6
CONTINUOUS
10
76.0929
20
-163.042
11
75.9024
21
-162.756
0
LINE
8
BLACK
6
CONTINUOUS
10
75.9024
20
-162.756
11
75.8071
21
-162.566
0
LINE
8
BLACK
6
CONTINUOUS
10
75.8071
20
-162.566
11
75.7119
21
-162.28
0
LINE
8
BLACK
6
CONTINUOUS
10
75.7119
20
-162.28
11
75.6167
21
-161.804
0
LINE
8
BLACK
6
CONTINUOUS
10
75.6167
20
-161.804
11
75.6167
21
-161.423
0
LINE
8
BLACK
6
CONTINUOUS
10
75.6167
20
-161.423
11
75.7119
21
-160.947
0
LINE
8
BLACK
6
CONTINUOUS
10
75.7119
20
-160.947
11
75.8071
21
-160.661
0
LINE
8
BLACK
6
CONTINUOUS
10
75.8071
20
-160.661
11
75.9024
21
-160.47
0
LINE
8
BLACK
6
CONTINUOUS
10
75.9024
20
-160.47
11
76.0929
21
-160.185
0
LINE
8
BLACK
6
CONTINUOUS
10
76.0929
20
-160.185
11
76.1881
21
-160.09
0
LINE
8
BLACK
6
CONTINUOUS
10
76.95
20
-161.042
11
76.95
21
-162.375
0
LINE
8
BLACK
6
CONTINUOUS
10
76.95
20
-161.232
11
77.0452
21
-161.137
0
LINE
8
BLACK
6
CONTINUOUS
10
77.0452
20
-161.137
11
77.2357
21
-161.042
0
LINE
8
BLACK
6
CONTINUOUS
10
77.2357
20
-161.042
11
77.5214
21
-161.042
0
LINE
8
BLACK
6
CONTINUOUS
10
77.5214
20
-161.042
11
77.7119
21
-161.137
0
LINE
8
BLACK
6
CONTINUOUS
10
77.7119
20
-161.137
11
77.8071
21
-161.328
0
LINE
8
BLACK
6
CONTINUOUS
10
77.8071
20
-161.328
11
77.8071
21
-162.375
0
LINE
8
BLACK
6
CONTINUOUS
10
79.0452
20
-162.375
11
78.8548
21
-162.28
0
LINE
8
BLACK
6
CONTINUOUS
10
78.8548
20
-162.28
11
78.7595
21
-162.185
0
LINE
8
BLACK
6
CONTINUOUS
10
78.7595
20
-162.185
11
78.6643
21
-161.994
0
LINE
8
BLACK
6
CONTINUOUS
10
78.6643
20
-161.994
11
78.6643
21
-161.423
0
LINE
8
BLACK
6
CONTINUOUS
10
78.6643
20
-161.423
11
78.7595
21
-161.232
0
LINE
8
BLACK
6
CONTINUOUS
10
78.7595
20
-161.232
11
78.8548
21
-161.137
0
LINE
8
BLACK
6
CONTINUOUS
10
78.8548
20
-161.137
11
79.0452
21
-161.042
0
LINE
8
BLACK
6
CONTINUOUS
10
79.0452
20
-161.042
11
79.331
21
-161.042
0
LINE
8
BLACK
6
CONTINUOUS
10
79.331
20
-161.042
11
79.5214
21
-161.137
0
LINE
8
BLACK
6
CONTINUOUS
10
79.5214
20
-161.137
11
79.6167
21
-161.232
0
LINE
8
BLACK
6
CONTINUOUS
10
79.6167
20
-161.232
11
79.7119
21
-161.423
0
LINE
8
BLACK
6
CONTINUOUS
10
79.7119
20
-161.423
11
79.7119
21
-161.994
0
LINE
8
BLACK
6
CONTINUOUS
10
79.7119
20
-161.994
11
79.6167
21
-162.185
0
LINE
8
BLACK
6
CONTINUOUS
10
79.6167
20
-162.185
11
79.5214
21
-162.28
0
LINE
8
BLACK
6
CONTINUOUS
10
79.5214
20
-162.28
11
79.331
21
-162.375
0
LINE
8
BLACK
6
CONTINUOUS
10
79.331
20
-162.375
11
79.0452
21
-162.375
0
LINE
8
BLACK
6
CONTINUOUS
10
80.2833
20
-161.042
11
81.0452
21
-161.042
0
LINE
8
BLACK
6
CONTINUOUS
10
80.5691
20
-160.375
11
80.5691
21
-162.09
0
LINE
8
BLACK
6
CONTINUOUS
10
80.5691
20
-162.09
11
80.6643
21
-162.28
0
LINE
8
BLACK
6
CONTINUOUS
10
80.6643
20
-162.28
11
80.8548
21
-162.375
0
LINE
8
BLACK
6
CONTINUOUS
10
80.8548
20
-162.375
11
81.0452
21
-162.375
0
LINE
8
BLACK
6
CONTINUOUS
10
83.2357
20
-161.042
11
83.2357
21
-163.042
0
LINE
8
BLACK
6
CONTINUOUS
10
83.2357
20
-161.137
11
83.4262
21
-161.042
0
LINE
8
BLACK
6
CONTINUOUS
10
83.4262
20
-161.042
11
83.8071
21
-161.042
0
LINE
8
BLACK
6
CONTINUOUS
10
83.8071
20
-161.042
11
83.9976
21
-161.137
0
LINE
8
BLACK
6
CONTINUOUS
10
83.9976
20
-161.137
11
84.0929
21
-161.232
0
LINE
8
BLACK
6
CONTINUOUS
10
84.0929
20
-161.232
11
84.1881
21
-161.423
0
LINE
8
BLACK
6
CONTINUOUS
10
84.1881
20
-161.423
11
84.1881
21
-161.994
0
LINE
8
BLACK
6
CONTINUOUS
10
84.1881
20
-161.994
11
84.0929
21
-162.185
0
LINE
8
BLACK
6
CONTINUOUS
10
84.0929
20
-162.185
11
83.9976
21
-162.28
0
LINE
8
BLACK
6
CONTINUOUS
10
83.9976
20
-162.28
11
83.8071
21
-162.375
0
LINE
8
BLACK
6
CONTINUOUS
10
83.8071
20
-162.375
11
83.4262
21
-162.375
0
LINE
8
BLACK
6
CONTINUOUS
10
83.4262
20
-162.375
11
83.2357
21
-162.28
0
LINE
8
BLACK
6
CONTINUOUS
10
85.331
20
-162.375
11
85.1405
21
-162.28
0
LINE
8
BLACK
6
CONTINUOUS
10
85.1405
20
-162.28
11
85.0452
21
-162.09
0
LINE
8
BLACK
6
CONTINUOUS
10
85.0452
20
-162.09
11
85.0452
21
-160.375
0
LINE
8
BLACK
6
CONTINUOUS
10
86.95
20
-162.375
11
86.95
21
-161.328
0
LINE
8
BLACK
6
CONTINUOUS
10
86.95
20
-161.328
11
86.8548
21
-161.137
0
LINE
8
BLACK
6
CONTINUOUS
10
86.8548
20
-161.137
11
86.6643
21
-161.042
0
LINE
8
BLACK
6
CONTINUOUS
10
86.6643
20
-161.042
11
86.2833
21
-161.042
0
LINE
8
BLACK
6
CONTINUOUS
10
86.2833
20
-161.042
11
86.0929
21
-161.137
0
LINE
8
BLACK
6
CONTINUOUS
10
86.95
20
-162.28
11
86.7595
21
-162.375
0
LINE
8
BLACK
6
CONTINUOUS
10
86.7595
20
-162.375
11
86.2833
21
-162.375
0
LINE
8
BLACK
6
CONTINUOUS
10
86.2833
20
-162.375
11
86.0929
21
-162.28
0
LINE
8
BLACK
6
CONTINUOUS
10
86.0929
20
-162.28
11
85.9976
21
-162.09
0
LINE
8
BLACK
6
CONTINUOUS
10
85.9976
20
-162.09
11
85.9976
21
-161.899
0
LINE
8
BLACK
6
CONTINUOUS
10
85.9976
20
-161.899
11
86.0929
21
-161.709
0
LINE
8
BLACK
6
CONTINUOUS
10
86.0929
20
-161.709
11
86.2833
21
-161.613
0
LINE
8
BLACK
6
CONTINUOUS
10
86.2833
20
-161.613
11
86.7595
21
-161.613
0
LINE
8
BLACK
6
CONTINUOUS
10
86.7595
20
-161.613
11
86.95
21
-161.518
0
LINE
8
BLACK
6
CONTINUOUS
10
87.6167
20
-161.042
11
88.3786
21
-161.042
0
LINE
8
BLACK
6
CONTINUOUS
10
87.9024
20
-160.375
11
87.9024
21
-162.09
0
LINE
8
BLACK
6
CONTINUOUS
10
87.9024
20
-162.09
11
87.9976
21
-162.28
0
LINE
8
BLACK
6
CONTINUOUS
10
87.9976
20
-162.28
11
88.1881
21
-162.375
0
LINE
8
BLACK
6
CONTINUOUS
10
88.1881
20
-162.375
11
88.3786
21
-162.375
0
LINE
8
BLACK
6
CONTINUOUS
10
89.8071
20
-162.28
11
89.6167
21
-162.375
0
LINE
8
BLACK
6
CONTINUOUS
10
89.6167
20
-162.375
11
89.2357
21
-162.375
0
LINE
8
BLACK
6
CONTINUOUS
10
89.2357
20
-162.375
11
89.0452
21
-162.28
0
LINE
8
BLACK
6
CONTINUOUS
10
89.0452
20
-162.28
11
88.95
21
-162.09
0
LINE
8
BLACK
6
CONTINUOUS
10
88.95
20
-162.09
11
88.95
21
-161.328
0
LINE
8
BLACK
6
CONTINUOUS
10
88.95
20
-161.328
11
89.0452
21
-161.137
0
LINE
8
BLACK
6
CONTINUOUS
10
89.0452
20
-161.137
11
89.2357
21
-161.042
0
LINE
8
BLACK
6
CONTINUOUS
10
89.2357
20
-161.042
11
89.6167
21
-161.042
0
LINE
8
BLACK
6
CONTINUOUS
10
89.6167
20
-161.042
11
89.8071
21
-161.137
0
LINE
8
BLACK
6
CONTINUOUS
10
89.8071
20
-161.137
11
89.9024
21
-161.328
0
LINE
8
BLACK
6
CONTINUOUS
10
89.9024
20
-161.328
11
89.9024
21
-161.518
0
LINE
8
BLACK
6
CONTINUOUS
10
89.9024
20
-161.518
11
88.95
21
-161.709
0
LINE
8
BLACK
6
CONTINUOUS
10
91.6167
20
-162.375
11
91.6167
21
-160.375
0
LINE
8
BLACK
6
CONTINUOUS
10
91.6167
20
-162.28
11
91.4262
21
-162.375
0
LINE
8
BLACK
6
CONTINUOUS
10
91.4262
20
-162.375
11
91.0452
21
-162.375
0
LINE
8
BLACK
6
CONTINUOUS
10
91.0452
20
-162.375
11
90.8548
21
-162.28
0
LINE
8
BLACK
6
CONTINUOUS
10
90.8548
20
-162.28
11
90.7595
21
-162.185
0
LINE
8
BLACK
6
CONTINUOUS
10
90.7595
20
-162.185
11
90.6643
21
-161.994
0
LINE
8
BLACK
6
CONTINUOUS
10
90.6643
20
-161.994
11
90.6643
21
-161.423
0
LINE
8
BLACK
6
CONTINUOUS
10
90.6643
20
-161.423
11
90.7595
21
-161.232
0
LINE
8
BLACK
6
CONTINUOUS
10
90.7595
20
-161.232
11
90.8548
21
-161.137
0
LINE
8
BLACK
6
CONTINUOUS
10
90.8548
20
-161.137
11
91.0452
21
-161.042
0
LINE
8
BLACK
6
CONTINUOUS
10
91.0452
20
-161.042
11
91.4262
21
-161.042
0
LINE
8
BLACK
6
CONTINUOUS
10
91.4262
20
-161.042
11
91.6167
21
-161.137
0
LINE
8
BLACK
6
CONTINUOUS
10
92.3786
20
-163.137
11
92.4738
21
-163.042
0
LINE
8
BLACK
6
CONTINUOUS
10
92.4738
20
-163.042
11
92.6643
21
-162.756
0
LINE
8
BLACK
6
CONTINUOUS
10
92.6643
20
-162.756
11
92.7595
21
-162.566
0
LINE
8
BLACK
6
CONTINUOUS
10
92.7595
20
-162.566
11
92.8548
21
-162.28
0
LINE
8
BLACK
6
CONTINUOUS
10
92.8548
20
-162.28
11
92.95
21
-161.804
0
LINE
8
BLACK
6
CONTINUOUS
10
92.95
20
-161.804
11
92.95
21
-161.423
0
LINE
8
BLACK
6
CONTINUOUS
10
92.95
20
-161.423
11
92.8548
21
-160.947
0
LINE
8
BLACK
6
CONTINUOUS
10
92.8548
20
-160.947
11
92.7595
21
-160.661
0
LINE
8
BLACK
6
CONTINUOUS
10
92.7595
20
-160.661
11
92.6643
21
-160.47
0
LINE
8
BLACK
6
CONTINUOUS
10
92.6643
20
-160.47
11
92.4738
21
-160.185
0
LINE
8
BLACK
6
CONTINUOUS
10
92.4738
20
-160.185
11
92.3786
21
-160.09
0
CIRCLE
8
BLACK
10
23.95
20
-164.65
40
1
0
LINE
8
BLACK
6
CONTINUOUS
10
27.2357
20
-163.575
11
28.4738
21
-163.575
0
LINE
8
BLACK
6
CONTINUOUS
10
28.4738
20
-163.575
11
27.8071
21
-164.337
0
LINE
8
BLACK
6
CONTINUOUS
10
27.8071
20
-164.337
11
28.0929
21
-164.337
0
LINE
8
BLACK
6
CONTINUOUS
10
28.0929
20
-164.337
11
28.2833
21
-164.432
0
LINE
8
BLACK
6
CONTINUOUS
10
28.2833
20
-164.432
11
28.3786
21
-164.528
0
LINE
8
BLACK
6
CONTINUOUS
10
28.3786
20
-164.528
11
28.4738
21
-164.718
0
LINE
8
BLACK
6
CONTINUOUS
10
28.4738
20
-164.718
11
28.4738
21
-165.194
0
LINE
8
BLACK
6
CONTINUOUS
10
28.4738
20
-165.194
11
28.3786
21
-165.385
0
LINE
8
BLACK
6
CONTINUOUS
10
28.3786
20
-165.385
11
28.2833
21
-165.48
0
LINE
8
BLACK
6
CONTINUOUS
10
28.2833
20
-165.48
11
28.0929
21
-165.575
0
LINE
8
BLACK
6
CONTINUOUS
10
28.0929
20
-165.575
11
27.5214
21
-165.575
0
LINE
8
BLACK
6
CONTINUOUS
10
27.5214
20
-165.575
11
27.331
21
-165.48
0
LINE
8
BLACK
6
CONTINUOUS
10
27.331
20
-165.48
11
27.2357
21
-165.385
0
LINE
8
BLACK
6
CONTINUOUS
10
29.331
20
-165.385
11
29.4262
21
-165.48
0
LINE
8
BLACK
6
CONTINUOUS
10
29.4262
20
-165.48
11
29.331
21
-165.575
0
LINE
8
BLACK
6
CONTINUOUS
10
29.331
20
-165.575
11
29.2357
21
-165.48
0
LINE
8
BLACK
6
CONTINUOUS
10
29.2357
20
-165.48
11
29.331
21
-165.385
0
LINE
8
BLACK
6
CONTINUOUS
10
29.331
20
-165.385
11
29.331
21
-165.575
0
LINE
8
BLACK
6
CONTINUOUS
10
30.1881
20
-163.766
11
30.2833
21
-163.67
0
LINE
8
BLACK
6
CONTINUOUS
10
30.2833
20
-163.67
11
30.4738
21
-163.575
0
LINE
8
BLACK
6
CONTINUOUS
10
30.4738
20
-163.575
11
30.95
21
-163.575
0
LINE
8
BLACK
6
CONTINUOUS
10
30.95
20
-163.575
11
31.1405
21
-163.67
0
LINE
8
BLACK
6
CONTINUOUS
10
31.1405
20
-163.67
11
31.2357
21
-163.766
0
LINE
8
BLACK
6
CONTINUOUS
10
31.2357
20
-163.766
11
31.331
21
-163.956
0
LINE
8
BLACK
6
CONTINUOUS
10
31.331
20
-163.956
11
31.331
21
-164.147
0
LINE
8
BLACK
6
CONTINUOUS
10
31.331
20
-164.147
11
31.2357
21
-164.432
0
LINE
8
BLACK
6
CONTINUOUS
10
31.2357
20
-164.432
11
30.0929
21
-165.575
0
LINE
8
BLACK
6
CONTINUOUS
10
30.0929
20
-165.575
11
31.331
21
-165.575
0
LINE
8
BLACK
6
CONTINUOUS
10
33.1405
20
-163.575
11
32.1881
21
-163.575
0
LINE
8
BLACK
6
CONTINUOUS
10
32.1881
20
-163.575
11
32.0929
21
-164.528
0
LINE
8
BLACK
6
CONTINUOUS
10
32.0929
20
-164.528
11
32.1881
21
-164.432
0
LINE
8
BLACK
6
CONTINUOUS
10
32.1881
20
-164.432
11
32.3786
21
-164.337
0
LINE
8
BLACK
6
CONTINUOUS
10
32.3786
20
-164.337
11
32.8548
21
-164.337
0
LINE
8
BLACK
6
CONTINUOUS
10
32.8548
20
-164.337
11
33.0452
21
-164.432
0
LINE
8
BLACK
6
CONTINUOUS
10
33.0452
20
-164.432
11
33.1405
21
-164.528
0
LINE
8
BLACK
6
CONTINUOUS
10
33.1405
20
-164.528
11
33.2357
21
-164.718
0
LINE
8
BLACK
6
CONTINUOUS
10
33.2357
20
-164.718
11
33.2357
21
-165.194
0
LINE
8
BLACK
6
CONTINUOUS
10
33.2357
20
-165.194
11
33.1405
21
-165.385
0
LINE
8
BLACK
6
CONTINUOUS
10
33.1405
20
-165.385
11
33.0452
21
-165.48
0
LINE
8
BLACK
6
CONTINUOUS
10
33.0452
20
-165.48
11
32.8548
21
-165.575
0
LINE
8
BLACK
6
CONTINUOUS
10
32.8548
20
-165.575
11
32.3786
21
-165.575
0
LINE
8
BLACK
6
CONTINUOUS
10
32.3786
20
-165.575
11
32.1881
21
-165.48
0
LINE
8
BLACK
6
CONTINUOUS
10
32.1881
20
-165.48
11
32.0929
21
-165.385
0
LINE
8
BLACK
6
CONTINUOUS
10
34.4738
20
-163.575
11
34.6643
21
-163.575
0
LINE
8
BLACK
6
CONTINUOUS
10
34.6643
20
-163.575
11
34.8548
21
-163.67
0
LINE
8
BLACK
6
CONTINUOUS
10
34.8548
20
-163.67
11
34.95
21
-163.766
0
LINE
8
BLACK
6
CONTINUOUS
10
34.95
20
-163.766
11
35.0452
21
-163.956
0
LINE
8
BLACK
6
CONTINUOUS
10
35.0452
20
-163.956
11
35.1405
21
-164.337
0
LINE
8
BLACK
6
CONTINUOUS
10
35.1405
20
-164.337
11
35.1405
21
-164.813
0
LINE
8
BLACK
6
CONTINUOUS
10
35.1405
20
-164.813
11
35.0452
21
-165.194
0
LINE
8
BLACK
6
CONTINUOUS
10
35.0452
20
-165.194
11
34.95
21
-165.385
0
LINE
8
BLACK
6
CONTINUOUS
10
34.95
20
-165.385
11
34.8548
21
-165.48
0
LINE
8
BLACK
6
CONTINUOUS
10
34.8548
20
-165.48
11
34.6643
21
-165.575
0
LINE
8
BLACK
6
CONTINUOUS
10
34.6643
20
-165.575
11
34.4738
21
-165.575
0
LINE
8
BLACK
6
CONTINUOUS
10
34.4738
20
-165.575
11
34.2833
21
-165.48
0
LINE
8
BLACK
6
CONTINUOUS
10
34.2833
20
-165.48
11
34.1881
21
-165.385
0
LINE
8
BLACK
6
CONTINUOUS
10
34.1881
20
-165.385
11
34.0929
21
-165.194
0
LINE
8
BLACK
6
CONTINUOUS
10
34.0929
20
-165.194
11
33.9976
21
-164.813
0
LINE
8
BLACK
6
CONTINUOUS
10
33.9976
20
-164.813
11
33.9976
21
-164.337
0
LINE
8
BLACK
6
CONTINUOUS
10
33.9976
20
-164.337
11
34.0929
21
-163.956
0
LINE
8
BLACK
6
CONTINUOUS
10
34.0929
20
-163.956
11
34.1881
21
-163.766
0
LINE
8
BLACK
6
CONTINUOUS
10
34.1881
20
-163.766
11
34.2833
21
-163.67
0
LINE
8
BLACK
6
CONTINUOUS
10
34.2833
20
-163.67
11
34.4738
21
-163.575
0
LINE
8
BLACK
6
CONTINUOUS
10
35.9976
20
-165.575
11
35.9976
21
-164.242
0
LINE
8
BLACK
6
CONTINUOUS
10
35.9976
20
-164.432
11
36.0929
21
-164.337
0
LINE
8
BLACK
6
CONTINUOUS
10
36.0929
20
-164.337
11
36.2833
21
-164.242
0
LINE
8
BLACK
6
CONTINUOUS
10
36.2833
20
-164.242
11
36.569
21
-164.242
0
LINE
8
BLACK
6
CONTINUOUS
10
36.569
20
-164.242
11
36.7595
21
-164.337
0
LINE
8
BLACK
6
CONTINUOUS
10
36.7595
20
-164.337
11
36.8548
21
-164.528
0
LINE
8
BLACK
6
CONTINUOUS
10
36.8548
20
-164.528
11
36.8548
21
-165.575
0
LINE
8
BLACK
6
CONTINUOUS
10
36.8548
20
-164.528
11
36.95
21
-164.337
0
LINE
8
BLACK
6
CONTINUOUS
10
36.95
20
-164.337
11
37.1405
21
-164.242
0
LINE
8
BLACK
6
CONTINUOUS
10
37.1405
20
-164.242
11
37.4262
21
-164.242
0
LINE
8
BLACK
6
CONTINUOUS
10
37.4262
20
-164.242
11
37.6167
21
-164.337
0
LINE
8
BLACK
6
CONTINUOUS
10
37.6167
20
-164.337
11
37.7119
21
-164.528
0
LINE
8
BLACK
6
CONTINUOUS
10
37.7119
20
-164.528
11
37.7119
21
-165.575
0
LINE
8
BLACK
6
CONTINUOUS
10
38.6643
20
-165.575
11
38.6643
21
-164.242
0
LINE
8
BLACK
6
CONTINUOUS
10
38.6643
20
-164.432
11
38.7595
21
-164.337
0
LINE
8
BLACK
6
CONTINUOUS
10
38.7595
20
-164.337
11
38.95
21
-164.242
0
LINE
8
BLACK
6
CONTINUOUS
10
38.95
20
-164.242
11
39.2357
21
-164.242
0
LINE
8
BLACK
6
CONTINUOUS
10
39.2357
20
-164.242
11
39.4262
21
-164.337
0
LINE
8
BLACK
6
CONTINUOUS
10
39.4262
20
-164.337
11
39.5214
21
-164.528
0
LINE
8
BLACK
6
CONTINUOUS
10
39.5214
20
-164.528
11
39.5214
21
-165.575
0
LINE
8
BLACK
6
CONTINUOUS
10
39.5214
20
-164.528
11
39.6167
21
-164.337
0
LINE
8
BLACK
6
CONTINUOUS
10
39.6167
20
-164.337
11
39.8071
21
-164.242
0
LINE
8
BLACK
6
CONTINUOUS
10
39.8071
20
-164.242
11
40.0929
21
-164.242
0
LINE
8
BLACK
6
CONTINUOUS
10
40.0929
20
-164.242
11
40.2833
21
-164.337
0
LINE
8
BLACK
6
CONTINUOUS
10
40.2833
20
-164.337
11
40.3786
21
-164.528
0
LINE
8
BLACK
6
CONTINUOUS
10
40.3786
20
-164.528
11
40.3786
21
-165.575
0
LINE
8
BLACK
6
CONTINUOUS
10
44.2833
20
-163.48
11
42.569
21
-166.051
0
LINE
8
BLACK
6
CONTINUOUS
10
46.8548
20
-163.575
11
47.0452
21
-163.575
0
LINE
8
BLACK
6
CONTINUOUS
10
47.0452
20
-163.575
11
47.2357
21
-163.67
0
LINE
8
BLACK
6
CONTINUOUS
10
47.2357
20
-163.67
11
47.331
21
-163.766
0
LINE
8
BLACK
6
CONTINUOUS
10
47.331
20
-163.766
11
47.4262
21
-163.956
0
LINE
8
BLACK
6
CONTINUOUS
10
47.4262
20
-163.956
11
47.5214
21
-164.337
0
LINE
8
BLACK
6
CONTINUOUS
10
47.5214
20
-164.337
11
47.5214
21
-164.813
0
LINE
8
BLACK
6
CONTINUOUS
10
47.5214
20
-164.813
11
47.4262
21
-165.194
0
LINE
8
BLACK
6
CONTINUOUS
10
47.4262
20
-165.194
11
47.331
21
-165.385
0
LINE
8
BLACK
6
CONTINUOUS
10
47.331
20
-165.385
11
47.2357
21
-165.48
0
LINE
8
BLACK
6
CONTINUOUS
10
47.2357
20
-165.48
11
47.0452
21
-165.575
0
LINE
8
BLACK
6
CONTINUOUS
10
47.0452
20
-165.575
11
46.8548
21
-165.575
0
LINE
8
BLACK
6
CONTINUOUS
10
46.8548
20
-165.575
11
46.6643
21
-165.48
0
LINE
8
BLACK
6
CONTINUOUS
10
46.6643
20
-165.48
11
46.569
21
-165.385
0
LINE
8
BLACK
6
CONTINUOUS
10
46.569
20
-165.385
11
46.4738
21
-165.194
0
LINE
8
BLACK
6
CONTINUOUS
10
46.4738
20
-165.194
11
46.3786
21
-164.813
0
LINE
8
BLACK
6
CONTINUOUS
10
46.3786
20
-164.813
11
46.3786
21
-164.337
0
LINE
8
BLACK
6
CONTINUOUS
10
46.3786
20
-164.337
11
46.4738
21
-163.956
0
LINE
8
BLACK
6
CONTINUOUS
10
46.4738
20
-163.956
11
46.569
21
-163.766
0
LINE
8
BLACK
6
CONTINUOUS
10
46.569
20
-163.766
11
46.6643
21
-163.67
0
LINE
8
BLACK
6
CONTINUOUS
10
46.6643
20
-163.67
11
46.8548
21
-163.575
0
LINE
8
BLACK
6
CONTINUOUS
10
48.3786
20
-165.385
11
48.4738
21
-165.48
0
LINE
8
BLACK
6
CONTINUOUS
10
48.4738
20
-165.48
11
48.3786
21
-165.575
0
LINE
8
BLACK
6
CONTINUOUS
10
48.3786
20
-165.575
11
48.2833
21
-165.48
0
LINE
8
BLACK
6
CONTINUOUS
10
48.2833
20
-165.48
11
48.3786
21
-165.385
0
LINE
8
BLACK
6
CONTINUOUS
10
48.3786
20
-165.385
11
48.3786
21
-165.575
0
LINE
8
BLACK
6
CONTINUOUS
10
50.3786
20
-165.575
11
49.2357
21
-165.575
0
LINE
8
BLACK
6
CONTINUOUS
10
49.8071
20
-165.575
11
49.8071
21
-163.575
0
LINE
8
BLACK
6
CONTINUOUS
10
49.8071
20
-163.575
11
49.6167
21
-163.861
0
LINE
8
BLACK
6
CONTINUOUS
10
49.6167
20
-163.861
11
49.4262
21
-164.051
0
LINE
8
BLACK
6
CONTINUOUS
10
49.4262
20
-164.051
11
49.2357
21
-164.147
0
LINE
8
BLACK
6
CONTINUOUS
10
51.1405
20
-163.766
11
51.2357
21
-163.67
0
LINE
8
BLACK
6
CONTINUOUS
10
51.2357
20
-163.67
11
51.4262
21
-163.575
0
LINE
8
BLACK
6
CONTINUOUS
10
51.4262
20
-163.575
11
51.9024
21
-163.575
0
LINE
8
BLACK
6
CONTINUOUS
10
51.9024
20
-163.575
11
52.0929
21
-163.67
0
LINE
8
BLACK
6
CONTINUOUS
10
52.0929
20
-163.67
11
52.1881
21
-163.766
0
LINE
8
BLACK
6
CONTINUOUS
10
52.1881
20
-163.766
11
52.2833
21
-163.956
0
LINE
8
BLACK
6
CONTINUOUS
10
52.2833
20
-163.956
11
52.2833
21
-164.147
0
LINE
8
BLACK
6
CONTINUOUS
10
52.2833
20
-164.147
11
52.1881
21
-164.432
0
LINE
8
BLACK
6
CONTINUOUS
10
52.1881
20
-164.432
11
51.0452
21
-165.575
0
LINE
8
BLACK
6
CONTINUOUS
10
51.0452
20
-165.575
11
52.2833
21
-165.575
0
LINE
8
BLACK
6
CONTINUOUS
10
53.4262
20
-164.432
11
53.2357
21
-164.337
0
LINE
8
BLACK
6
CONTINUOUS
10
53.2357
20
-164.337
11
53.1405
21
-164.242
0
LINE
8
BLACK
6
CONTINUOUS
10
53.1405
20
-164.242
11
53.0452
21
-164.051
0
LINE
8
BLACK
6
CONTINUOUS
10
53.0452
20
-164.051
11
53.0452
21
-163.956
0
LINE
8
BLACK
6
CONTINUOUS
10
53.0452
20
-163.956
11
53.1405
21
-163.766
0
LINE
8
BLACK
6
CONTINUOUS
10
53.1405
20
-163.766
11
53.2357
21
-163.67
0
LINE
8
BLACK
6
CONTINUOUS
10
53.2357
20
-163.67
11
53.4262
21
-163.575
0
LINE
8
BLACK
6
CONTINUOUS
10
53.4262
20
-163.575
11
53.8071
21
-163.575
0
LINE
8
BLACK
6
CONTINUOUS
10
53.8071
20
-163.575
11
53.9976
21
-163.67
0
LINE
8
BLACK
6
CONTINUOUS
10
53.9976
20
-163.67
11
54.0929
21
-163.766
0
LINE
8
BLACK
6
CONTINUOUS
10
54.0929
20
-163.766
11
54.1881
21
-163.956
0
LINE
8
BLACK
6
CONTINUOUS
10
54.1881
20
-163.956
11
54.1881
21
-164.051
0
LINE
8
BLACK
6
CONTINUOUS
10
54.1881
20
-164.051
11
54.0929
21
-164.242
0
LINE
8
BLACK
6
CONTINUOUS
10
54.0929
20
-164.242
11
53.9976
21
-164.337
0
LINE
8
BLACK
6
CONTINUOUS
10
53.9976
20
-164.337
11
53.8071
21
-164.432
0
LINE
8
BLACK
6
CONTINUOUS
10
53.8071
20
-164.432
11
53.4262
21
-164.432
0
LINE
8
BLACK
6
CONTINUOUS
10
53.4262
20
-164.432
11
53.2357
21
-164.528
0
LINE
8
BLACK
6
CONTINUOUS
10
53.2357
20
-164.528
11
53.1405
21
-164.623
0
LINE
8
BLACK
6
CONTINUOUS
10
53.1405
20
-164.623
11
53.0452
21
-164.813
0
LINE
8
BLACK
6
CONTINUOUS
10
53.0452
20
-164.813
11
53.0452
21
-165.194
0
LINE
8
BLACK
6
CONTINUOUS
10
53.0452
20
-165.194
11
53.1405
21
-165.385
0
LINE
8
BLACK
6
CONTINUOUS
10
53.1405
20
-165.385
11
53.2357
21
-165.48
0
LINE
8
BLACK
6
CONTINUOUS
10
53.2357
20
-165.48
11
53.4262
21
-165.575
0
LINE
8
BLACK
6
CONTINUOUS
10
53.4262
20
-165.575
11
53.8071
21
-165.575
0
LINE
8
BLACK
6
CONTINUOUS
10
53.8071
20
-165.575
11
53.9976
21
-165.48
0
LINE
8
BLACK
6
CONTINUOUS
10
53.9976
20
-165.48
11
54.0929
21
-165.385
0
LINE
8
BLACK
6
CONTINUOUS
10
54.0929
20
-165.385
11
54.1881
21
-165.194
0
LINE
8
BLACK
6
CONTINUOUS
10
54.1881
20
-165.194
11
54.1881
21
-164.813
0
LINE
8
BLACK
6
CONTINUOUS
10
54.1881
20
-164.813
11
54.0929
21
-164.623
0
LINE
8
BLACK
6
CONTINUOUS
10
54.0929
20
-164.623
11
53.9976
21
-164.528
0
LINE
8
BLACK
6
CONTINUOUS
10
53.9976
20
-164.528
11
53.8071
21
-164.432
0
LINE
8
BLACK
6
CONTINUOUS
10
55.4262
20
-163.575
11
55.6167
21
-163.575
0
LINE
8
BLACK
6
CONTINUOUS
10
55.6167
20
-163.575
11
55.8071
21
-163.67
0
LINE
8
BLACK
6
CONTINUOUS
10
55.8071
20
-163.67
11
55.9024
21
-163.766
0
LINE
8
BLACK
6
CONTINUOUS
10
55.9024
20
-163.766
11
55.9976
21
-163.956
0
LINE
8
BLACK
6
CONTINUOUS
10
55.9976
20
-163.956
11
56.0929
21
-164.337
0
LINE
8
BLACK
6
CONTINUOUS
10
56.0929
20
-164.337
11
56.0929
21
-164.813
0
LINE
8
BLACK
6
CONTINUOUS
10
56.0929
20
-164.813
11
55.9976
21
-165.194
0
LINE
8
BLACK
6
CONTINUOUS
10
55.9976
20
-165.194
11
55.9024
21
-165.385
0
LINE
8
BLACK
6
CONTINUOUS
10
55.9024
20
-165.385
11
55.8071
21
-165.48
0
LINE
8
BLACK
6
CONTINUOUS
10
55.8071
20
-165.48
11
55.6167
21
-165.575
0
LINE
8
BLACK
6
CONTINUOUS
10
55.6167
20
-165.575
11
55.4262
21
-165.575
0
LINE
8
BLACK
6
CONTINUOUS
10
55.4262
20
-165.575
11
55.2357
21
-165.48
0
LINE
8
BLACK
6
CONTINUOUS
10
55.2357
20
-165.48
11
55.1405
21
-165.385
0
LINE
8
BLACK
6
CONTINUOUS
10
55.1405
20
-165.385
11
55.0452
21
-165.194
0
LINE
8
BLACK
6
CONTINUOUS
10
55.0452
20
-165.194
11
54.95
21
-164.813
0
LINE
8
BLACK
6
CONTINUOUS
10
54.95
20
-164.813
11
54.95
21
-164.337
0
LINE
8
BLACK
6
CONTINUOUS
10
54.95
20
-164.337
11
55.0452
21
-163.956
0
LINE
8
BLACK
6
CONTINUOUS
10
55.0452
20
-163.956
11
55.1405
21
-163.766
0
LINE
8
BLACK
6
CONTINUOUS
10
55.1405
20
-163.766
11
55.2357
21
-163.67
0
LINE
8
BLACK
6
CONTINUOUS
10
55.2357
20
-163.67
11
55.4262
21
-163.575
0
LINE
8
BLACK
6
CONTINUOUS
10
56.8548
20
-163.575
11
56.8548
21
-163.956
0
LINE
8
BLACK
6
CONTINUOUS
10
57.6167
20
-163.575
11
57.6167
21
-163.956
0
LINE
8
BLACK
6
CONTINUOUS
10
60.5691
20
-166.337
11
60.4738
21
-166.242
0
LINE
8
BLACK
6
CONTINUOUS
10
60.4738
20
-166.242
11
60.2833
21
-165.956
0
LINE
8
BLACK
6
CONTINUOUS
10
60.2833
20
-165.956
11
60.1881
21
-165.766
0
LINE
8
BLACK
6
CONTINUOUS
10
60.1881
20
-165.766
11
60.0929
21
-165.48
0
LINE
8
BLACK
6
CONTINUOUS
10
60.0929
20
-165.48
11
59.9976
21
-165.004
0
LINE
8
BLACK
6
CONTINUOUS
10
59.9976
20
-165.004
11
59.9976
21
-164.623
0
LINE
8
BLACK
6
CONTINUOUS
10
59.9976
20
-164.623
11
60.0929
21
-164.147
0
LINE
8
BLACK
6
CONTINUOUS
10
60.0929
20
-164.147
11
60.1881
21
-163.861
0
LINE
8
BLACK
6
CONTINUOUS
10
60.1881
20
-163.861
11
60.2833
21
-163.67
0
LINE
8
BLACK
6
CONTINUOUS
10
60.2833
20
-163.67
11
60.4738
21
-163.385
0
LINE
8
BLACK
6
CONTINUOUS
10
60.4738
20
-163.385
11
60.5691
21
-163.29
0
LINE
8
BLACK
6
CONTINUOUS
10
61.6167
20
-164.432
11
61.4262
21
-164.337
0
LINE
8
BLACK
6
CONTINUOUS
10
61.4262
20
-164.337
11
61.331
21
-164.242
0
LINE
8
BLACK
6
CONTINUOUS
10
61.331
20
-164.242
11
61.2357
21
-164.051
0
LINE
8
BLACK
6
CONTINUOUS
10
61.2357
20
-164.051
11
61.2357
21
-163.956
0
LINE
8
BLACK
6
CONTINUOUS
10
61.2357
20
-163.956
11
61.331
21
-163.766
0
LINE
8
BLACK
6
CONTINUOUS
10
61.331
20
-163.766
11
61.4262
21
-163.67
0
LINE
8
BLACK
6
CONTINUOUS
10
61.4262
20
-163.67
11
61.6167
21
-163.575
0
LINE
8
BLACK
6
CONTINUOUS
10
61.6167
20
-163.575
11
61.9976
21
-163.575
0
LINE
8
BLACK
6
CONTINUOUS
10
61.9976
20
-163.575
11
62.1881
21
-163.67
0
LINE
8
BLACK
6
CONTINUOUS
10
62.1881
20
-163.67
11
62.2833
21
-163.766
0
LINE
8
BLACK
6
CONTINUOUS
10
62.2833
20
-163.766
11
62.3786
21
-163.956
0
LINE
8
BLACK
6
CONTINUOUS
10
62.3786
20
-163.956
11
62.3786
21
-164.051
0
LINE
8
BLACK
6
CONTINUOUS
10
62.3786
20
-164.051
11
62.2833
21
-164.242
0
LINE
8
BLACK
6
CONTINUOUS
10
62.2833
20
-164.242
11
62.1881
21
-164.337
0
LINE
8
BLACK
6
CONTINUOUS
10
62.1881
20
-164.337
11
61.9976
21
-164.432
0
LINE
8
BLACK
6
CONTINUOUS
10
61.9976
20
-164.432
11
61.6167
21
-164.432
0
LINE
8
BLACK
6
CONTINUOUS
10
61.6167
20
-164.432
11
61.4262
21
-164.528
0
LINE
8
BLACK
6
CONTINUOUS
10
61.4262
20
-164.528
11
61.331
21
-164.623
0
LINE
8
BLACK
6
CONTINUOUS
10
61.331
20
-164.623
11
61.2357
21
-164.813
0
LINE
8
BLACK
6
CONTINUOUS
10
61.2357
20
-164.813
11
61.2357
21
-165.194
0
LINE
8
BLACK
6
CONTINUOUS
10
61.2357
20
-165.194
11
61.331
21
-165.385
0
LINE
8
BLACK
6
CONTINUOUS
10
61.331
20
-165.385
11
61.4262
21
-165.48
0
LINE
8
BLACK
6
CONTINUOUS
10
61.4262
20
-165.48
11
61.6167
21
-165.575
0
LINE
8
BLACK
6
CONTINUOUS
10
61.6167
20
-165.575
11
61.9976
21
-165.575
0
LINE
8
BLACK
6
CONTINUOUS
10
61.9976
20
-165.575
11
62.1881
21
-165.48
0
LINE
8
BLACK
6
CONTINUOUS
10
62.1881
20
-165.48
11
62.2833
21
-165.385
0
LINE
8
BLACK
6
CONTINUOUS
10
62.2833
20
-165.385
11
62.3786
21
-165.194
0
LINE
8
BLACK
6
CONTINUOUS
10
62.3786
20
-165.194
11
62.3786
21
-164.813
0
LINE
8
BLACK
6
CONTINUOUS
10
62.3786
20
-164.813
11
62.2833
21
-164.623
0
LINE
8
BLACK
6
CONTINUOUS
10
62.2833
20
-164.623
11
62.1881
21
-164.528
0
LINE
8
BLACK
6
CONTINUOUS
10
62.1881
20
-164.528
11
61.9976
21
-164.432
0
LINE
8
BLACK
6
CONTINUOUS
10
64.7595
20
-165.575
11
64.7595
21
-163.575
0
LINE
8
BLACK
6
CONTINUOUS
10
65.6167
20
-165.575
11
65.6167
21
-164.528
0
LINE
8
BLACK
6
CONTINUOUS
10
65.6167
20
-164.528
11
65.5214
21
-164.337
0
LINE
8
BLACK
6
CONTINUOUS
10
65.5214
20
-164.337
11
65.331
21
-164.242
0
LINE
8
BLACK
6
CONTINUOUS
10
65.331
20
-164.242
11
65.0452
21
-164.242
0
LINE
8
BLACK
6
CONTINUOUS
10
65.0452
20
-164.242
11
64.8548
21
-164.337
0
LINE
8
BLACK
6
CONTINUOUS
10
64.8548
20
-164.337
11
64.7595
21
-164.432
0
LINE
8
BLACK
6
CONTINUOUS
10
66.8548
20
-165.575
11
66.6643
21
-165.48
0
LINE
8
BLACK
6
CONTINUOUS
10
66.6643
20
-165.48
11
66.5691
21
-165.385
0
LINE
8
BLACK
6
CONTINUOUS
10
66.5691
20
-165.385
11
66.4738
21
-165.194
0
LINE
8
BLACK
6
CONTINUOUS
10
66.4738
20
-165.194
11
66.4738
21
-164.623
0
LINE
8
BLACK
6
CONTINUOUS
10
66.4738
20
-164.623
11
66.5691
21
-164.432
0
LINE
8
BLACK
6
CONTINUOUS
10
66.5691
20
-164.432
11
66.6643
21
-164.337
0
LINE
8
BLACK
6
CONTINUOUS
10
66.6643
20
-164.337
11
66.8548
21
-164.242
0
LINE
8
BLACK
6
CONTINUOUS
10
66.8548
20
-164.242
11
67.1405
21
-164.242
0
LINE
8
BLACK
6
CONTINUOUS
10
67.1405
20
-164.242
11
67.331
21
-164.337
0
LINE
8
BLACK
6
CONTINUOUS
10
67.331
20
-164.337
11
67.4262
21
-164.432
0
LINE
8
BLACK
6
CONTINUOUS
10
67.4262
20
-164.432
11
67.5214
21
-164.623
0
LINE
8
BLACK
6
CONTINUOUS
10
67.5214
20
-164.623
11
67.5214
21
-165.194
0
LINE
8
BLACK
6
CONTINUOUS
10
67.5214
20
-165.194
11
67.4262
21
-165.385
0
LINE
8
BLACK
6
CONTINUOUS
10
67.4262
20
-165.385
11
67.331
21
-165.48
0
LINE
8
BLACK
6
CONTINUOUS
10
67.331
20
-165.48
11
67.1405
21
-165.575
0
LINE
8
BLACK
6
CONTINUOUS
10
67.1405
20
-165.575
11
66.8548
21
-165.575
0
LINE
8
BLACK
6
CONTINUOUS
10
68.6643
20
-165.575
11
68.4738
21
-165.48
0
LINE
8
BLACK
6
CONTINUOUS
10
68.4738
20
-165.48
11
68.3786
21
-165.29
0
LINE
8
BLACK
6
CONTINUOUS
10
68.3786
20
-165.29
11
68.3786
21
-163.575
0
LINE
8
BLACK
6
CONTINUOUS
10
70.1881
20
-165.48
11
69.9976
21
-165.575
0
LINE
8
BLACK
6
CONTINUOUS
10
69.9976
20
-165.575
11
69.6167
21
-165.575
0
LINE
8
BLACK
6
CONTINUOUS
10
69.6167
20
-165.575
11
69.4262
21
-165.48
0
LINE
8
BLACK
6
CONTINUOUS
10
69.4262
20
-165.48
11
69.331
21
-165.29
0
LINE
8
BLACK
6
CONTINUOUS
10
69.331
20
-165.29
11
69.331
21
-164.528
0
LINE
8
BLACK
6
CONTINUOUS
10
69.331
20
-164.528
11
69.4262
21
-164.337
0
LINE
8
BLACK
6
CONTINUOUS
10
69.4262
20
-164.337
11
69.6167
21
-164.242
0
LINE
8
BLACK
6
CONTINUOUS
10
69.6167
20
-164.242
11
69.9976
21
-164.242
0
LINE
8
BLACK
6
CONTINUOUS
10
69.9976
20
-164.242
11
70.1881
21
-164.337
0
LINE
8
BLACK
6
CONTINUOUS
10
70.1881
20
-164.337
11
70.2833
21
-164.528
0
LINE
8
BLACK
6
CONTINUOUS
10
70.2833
20
-164.528
11
70.2833
21
-164.718
0
LINE
8
BLACK
6
CONTINUOUS
10
70.2833
20
-164.718
11
69.331
21
-164.909
0
LINE
8
BLACK
6
CONTINUOUS
10
71.0452
20
-165.48
11
71.2357
21
-165.575
0
LINE
8
BLACK
6
CONTINUOUS
10
71.2357
20
-165.575
11
71.6167
21
-165.575
0
LINE
8
BLACK
6
CONTINUOUS
10
71.6167
20
-165.575
11
71.8071
21
-165.48
0
LINE
8
BLACK
6
CONTINUOUS
10
71.8071
20
-165.48
11
71.9024
21
-165.29
0
LINE
8
BLACK
6
CONTINUOUS
10
71.9024
20
-165.29
11
71.9024
21
-165.194
0
LINE
8
BLACK
6
CONTINUOUS
10
71.9024
20
-165.194
11
71.8071
21
-165.004
0
LINE
8
BLACK
6
CONTINUOUS
10
71.8071
20
-165.004
11
71.6167
21
-164.909
0
LINE
8
BLACK
6
CONTINUOUS
10
71.6167
20
-164.909
11
71.331
21
-164.909
0
LINE
8
BLACK
6
CONTINUOUS
10
71.331
20
-164.909
11
71.1405
21
-164.813
0
LINE
8
BLACK
6
CONTINUOUS
10
71.1405
20
-164.813
11
71.0452
21
-164.623
0
LINE
8
BLACK
6
CONTINUOUS
10
71.0452
20
-164.623
11
71.0452
21
-164.528
0
LINE
8
BLACK
6
CONTINUOUS
10
71.0452
20
-164.528
11
71.1405
21
-164.337
0
LINE
8
BLACK
6
CONTINUOUS
10
71.1405
20
-164.337
11
71.331
21
-164.242
0
LINE
8
BLACK
6
CONTINUOUS
10
71.331
20
-164.242
11
71.6167
21
-164.242
0
LINE
8
BLACK
6
CONTINUOUS
10
71.6167
20
-164.242
11
71.8071
21
-164.337
0
LINE
8
BLACK
6
CONTINUOUS
10
72.5691
20
-166.337
11
72.6643
21
-166.242
0
LINE
8
BLACK
6
CONTINUOUS
10
72.6643
20
-166.242
11
72.8548
21
-165.956
0
LINE
8
BLACK
6
CONTINUOUS
10
72.8548
20
-165.956
11
72.95
21
-165.766
0
LINE
8
BLACK
6
CONTINUOUS
10
72.95
20
-165.766
11
73.0452
21
-165.48
0
LINE
8
BLACK
6
CONTINUOUS
10
73.0452
20
-165.48
11
73.1405
21
-165.004
0
LINE
8
BLACK
6
CONTINUOUS
10
73.1405
20
-165.004
11
73.1405
21
-164.623
0
LINE
8
BLACK
6
CONTINUOUS
10
73.1405
20
-164.623
11
73.0452
21
-164.147
0
LINE
8
BLACK
6
CONTINUOUS
10
73.0452
20
-164.147
11
72.95
21
-163.861
0
LINE
8
BLACK
6
CONTINUOUS
10
72.95
20
-163.861
11
72.8548
21
-163.67
0
LINE
8
BLACK
6
CONTINUOUS
10
72.8548
20
-163.67
11
72.6643
21
-163.385
0
LINE
8
BLACK
6
CONTINUOUS
10
72.6643
20
-163.385
11
72.5691
21
-163.29
0
LINE
8
BLACK
6
CONTINUOUS
10
76.1881
20
-166.337
11
76.0929
21
-166.242
0
LINE
8
BLACK
6
CONTINUOUS
10
76.0929
20
-166.242
11
75.9024
21
-165.956
0
LINE
8
BLACK
6
CONTINUOUS
10
75.9024
20
-165.956
11
75.8071
21
-165.766
0
LINE
8
BLACK
6
CONTINUOUS
10
75.8071
20
-165.766
11
75.7119
21
-165.48
0
LINE
8
BLACK
6
CONTINUOUS
10
75.7119
20
-165.48
11
75.6167
21
-165.004
0
LINE
8
BLACK
6
CONTINUOUS
10
75.6167
20
-165.004
11
75.6167
21
-164.623
0
LINE
8
BLACK
6
CONTINUOUS
10
75.6167
20
-164.623
11
75.7119
21
-164.147
0
LINE
8
BLACK
6
CONTINUOUS
10
75.7119
20
-164.147
11
75.8071
21
-163.861
0
LINE
8
BLACK
6
CONTINUOUS
10
75.8071
20
-163.861
11
75.9024
21
-163.67
0
LINE
8
BLACK
6
CONTINUOUS
10
75.9024
20
-163.67
11
76.0929
21
-163.385
0
LINE
8
BLACK
6
CONTINUOUS
10
76.0929
20
-163.385
11
76.1881
21
-163.29
0
LINE
8
BLACK
6
CONTINUOUS
10
76.95
20
-164.242
11
76.95
21
-165.575
0
LINE
8
BLACK
6
CONTINUOUS
10
76.95
20
-164.432
11
77.0452
21
-164.337
0
LINE
8
BLACK
6
CONTINUOUS
10
77.0452
20
-164.337
11
77.2357
21
-164.242
0
LINE
8
BLACK
6
CONTINUOUS
10
77.2357
20
-164.242
11
77.5214
21
-164.242
0
LINE
8
BLACK
6
CONTINUOUS
10
77.5214
20
-164.242
11
77.7119
21
-164.337
0
LINE
8
BLACK
6
CONTINUOUS
10
77.7119
20
-164.337
11
77.8071
21
-164.528
0
LINE
8
BLACK
6
CONTINUOUS
10
77.8071
20
-164.528
11
77.8071
21
-165.575
0
LINE
8
BLACK
6
CONTINUOUS
10
79.0452
20
-165.575
11
78.8548
21
-165.48
0
LINE
8
BLACK
6
CONTINUOUS
10
78.8548
20
-165.48
11
78.7595
21
-165.385
0
LINE
8
BLACK
6
CONTINUOUS
10
78.7595
20
-165.385
11
78.6643
21
-165.194
0
LINE
8
BLACK
6
CONTINUOUS
10
78.6643
20
-165.194
11
78.6643
21
-164.623
0
LINE
8
BLACK
6
CONTINUOUS
10
78.6643
20
-164.623
11
78.7595
21
-164.432
0
LINE
8
BLACK
6
CONTINUOUS
10
78.7595
20
-164.432
11
78.8548
21
-164.337
0
LINE
8
BLACK
6
CONTINUOUS
10
78.8548
20
-164.337
11
79.0452
21
-164.242
0
LINE
8
BLACK
6
CONTINUOUS
10
79.0452
20
-164.242
11
79.331
21
-164.242
0
LINE
8
BLACK
6
CONTINUOUS
10
79.331
20
-164.242
11
79.5214
21
-164.337
0
LINE
8
BLACK
6
CONTINUOUS
10
79.5214
20
-164.337
11
79.6167
21
-164.432
0
LINE
8
BLACK
6
CONTINUOUS
10
79.6167
20
-164.432
11
79.7119
21
-164.623
0
LINE
8
BLACK
6
CONTINUOUS
10
79.7119
20
-164.623
11
79.7119
21
-165.194
0
LINE
8
BLACK
6
CONTINUOUS
10
79.7119
20
-165.194
11
79.6167
21
-165.385
0
LINE
8
BLACK
6
CONTINUOUS
10
79.6167
20
-165.385
11
79.5214
21
-165.48
0
LINE
8
BLACK
6
CONTINUOUS
10
79.5214
20
-165.48
11
79.331
21
-165.575
0
LINE
8
BLACK
6
CONTINUOUS
10
79.331
20
-165.575
11
79.0452
21
-165.575
0
LINE
8
BLACK
6
CONTINUOUS
10
80.2833
20
-164.242
11
81.0452
21
-164.242
0
LINE
8
BLACK
6
CONTINUOUS
10
80.5691
20
-163.575
11
80.5691
21
-165.29
0
LINE
8
BLACK
6
CONTINUOUS
10
80.5691
20
-165.29
11
80.6643
21
-165.48
0
LINE
8
BLACK
6
CONTINUOUS
10
80.6643
20
-165.48
11
80.8548
21
-165.575
0
LINE
8
BLACK
6
CONTINUOUS
10
80.8548
20
-165.575
11
81.0452
21
-165.575
0
LINE
8
BLACK
6
CONTINUOUS
10
83.2357
20
-164.242
11
83.2357
21
-166.242
0
LINE
8
BLACK
6
CONTINUOUS
10
83.2357
20
-164.337
11
83.4262
21
-164.242
0
LINE
8
BLACK
6
CONTINUOUS
10
83.4262
20
-164.242
11
83.8071
21
-164.242
0
LINE
8
BLACK
6
CONTINUOUS
10
83.8071
20
-164.242
11
83.9976
21
-164.337
0
LINE
8
BLACK
6
CONTINUOUS
10
83.9976
20
-164.337
11
84.0929
21
-164.432
0
LINE
8
BLACK
6
CONTINUOUS
10
84.0929
20
-164.432
11
84.1881
21
-164.623
0
LINE
8
BLACK
6
CONTINUOUS
10
84.1881
20
-164.623
11
84.1881
21
-165.194
0
LINE
8
BLACK
6
CONTINUOUS
10
84.1881
20
-165.194
11
84.0929
21
-165.385
0
LINE
8
BLACK
6
CONTINUOUS
10
84.0929
20
-165.385
11
83.9976
21
-165.48
0
LINE
8
BLACK
6
CONTINUOUS
10
83.9976
20
-165.48
11
83.8071
21
-165.575
0
LINE
8
BLACK
6
CONTINUOUS
10
83.8071
20
-165.575
11
83.4262
21
-165.575
0
LINE
8
BLACK
6
CONTINUOUS
10
83.4262
20
-165.575
11
83.2357
21
-165.48
0
LINE
8
BLACK
6
CONTINUOUS
10
85.331
20
-165.575
11
85.1405
21
-165.48
0
LINE
8
BLACK
6
CONTINUOUS
10
85.1405
20
-165.48
11
85.0452
21
-165.29
0
LINE
8
BLACK
6
CONTINUOUS
10
85.0452
20
-165.29
11
85.0452
21
-163.575
0
LINE
8
BLACK
6
CONTINUOUS
10
86.95
20
-165.575
11
86.95
21
-164.528
0
LINE
8
BLACK
6
CONTINUOUS
10
86.95
20
-164.528
11
86.8548
21
-164.337
0
LINE
8
BLACK
6
CONTINUOUS
10
86.8548
20
-164.337
11
86.6643
21
-164.242
0
LINE
8
BLACK
6
CONTINUOUS
10
86.6643
20
-164.242
11
86.2833
21
-164.242
0
LINE
8
BLACK
6
CONTINUOUS
10
86.2833
20
-164.242
11
86.0929
21
-164.337
0
LINE
8
BLACK
6
CONTINUOUS
10
86.95
20
-165.48
11
86.7595
21
-165.575
0
LINE
8
BLACK
6
CONTINUOUS
10
86.7595
20
-165.575
11
86.2833
21
-165.575
0
LINE
8
BLACK
6
CONTINUOUS
10
86.2833
20
-165.575
11
86.0929
21
-165.48
0
LINE
8
BLACK
6
CONTINUOUS
10
86.0929
20
-165.48
11
85.9976
21
-165.29
0
LINE
8
BLACK
6
CONTINUOUS
10
85.9976
20
-165.29
11
85.9976
21
-165.099
0
LINE
8
BLACK
6
CONTINUOUS
10
85.9976
20
-165.099
11
86.0929
21
-164.909
0
LINE
8
BLACK
6
CONTINUOUS
10
86.0929
20
-164.909
11
86.2833
21
-164.813
0
LINE
8
BLACK
6
CONTINUOUS
10
86.2833
20
-164.813
11
86.7595
21
-164.813
0
LINE
8
BLACK
6
CONTINUOUS
10
86.7595
20
-164.813
11
86.95
21
-164.718
0
LINE
8
BLACK
6
CONTINUOUS
10
87.6167
20
-164.242
11
88.3786
21
-164.242
0
LINE
8
BLACK
6
CONTINUOUS
10
87.9024
20
-163.575
11
87.9024
21
-165.29
0
LINE
8
BLACK
6
CONTINUOUS
10
87.9024
20
-165.29
11
87.9976
21
-165.48
0
LINE
8
BLACK
6
CONTINUOUS
10
87.9976
20
-165.48
11
88.1881
21
-165.575
0
LINE
8
BLACK
6
CONTINUOUS
10
88.1881
20
-165.575
11
88.3786
21
-165.575
0
LINE
8
BLACK
6
CONTINUOUS
10
89.8071
20
-165.48
11
89.6167
21
-165.575
0
LINE
8
BLACK
6
CONTINUOUS
10
89.6167
20
-165.575
11
89.2357
21
-165.575
0
LINE
8
BLACK
6
CONTINUOUS
10
89.2357
20
-165.575
11
89.0452
21
-165.48
0
LINE
8
BLACK
6
CONTINUOUS
10
89.0452
20
-165.48
11
88.95
21
-165.29
0
LINE
8
BLACK
6
CONTINUOUS
10
88.95
20
-165.29
11
88.95
21
-164.528
0
LINE
8
BLACK
6
CONTINUOUS
10
88.95
20
-164.528
11
89.0452
21
-164.337
0
LINE
8
BLACK
6
CONTINUOUS
10
89.0452
20
-164.337
11
89.2357
21
-164.242
0
LINE
8
BLACK
6
CONTINUOUS
10
89.2357
20
-164.242
11
89.6167
21
-164.242
0
LINE
8
BLACK
6
CONTINUOUS
10
89.6167
20
-164.242
11
89.8071
21
-164.337
0
LINE
8
BLACK
6
CONTINUOUS
10
89.8071
20
-164.337
11
89.9024
21
-164.528
0
LINE
8
BLACK
6
CONTINUOUS
10
89.9024
20
-164.528
11
89.9024
21
-164.718
0
LINE
8
BLACK
6
CONTINUOUS
10
89.9024
20
-164.718
11
88.95
21
-164.909
0
LINE
8
BLACK
6
CONTINUOUS
10
91.6167
20
-165.575
11
91.6167
21
-163.575
0
LINE
8
BLACK
6
CONTINUOUS
10
91.6167
20
-165.48
11
91.4262
21
-165.575
0
LINE
8
BLACK
6
CONTINUOUS
10
91.4262
20
-165.575
11
91.0452
21
-165.575
0
LINE
8
BLACK
6
CONTINUOUS
10
91.0452
20
-165.575
11
90.8548
21
-165.48
0
LINE
8
BLACK
6
CONTINUOUS
10
90.8548
20
-165.48
11
90.7595
21
-165.385
0
LINE
8
BLACK
6
CONTINUOUS
10
90.7595
20
-165.385
11
90.6643
21
-165.194
0
LINE
8
BLACK
6
CONTINUOUS
10
90.6643
20
-165.194
11
90.6643
21
-164.623
0
LINE
8
BLACK
6
CONTINUOUS
10
90.6643
20
-164.623
11
90.7595
21
-164.432
0
LINE
8
BLACK
6
CONTINUOUS
10
90.7595
20
-164.432
11
90.8548
21
-164.337
0
LINE
8
BLACK
6
CONTINUOUS
10
90.8548
20
-164.337
11
91.0452
21
-164.242
0
LINE
8
BLACK
6
CONTINUOUS
10
91.0452
20
-164.242
11
91.4262
21
-164.242
0
LINE
8
BLACK
6
CONTINUOUS
10
91.4262
20
-164.242
11
91.6167
21
-164.337
0
LINE
8
BLACK
6
CONTINUOUS
10
92.3786
20
-166.337
11
92.4738
21
-166.242
0
LINE
8
BLACK
6
CONTINUOUS
10
92.4738
20
-166.242
11
92.6643
21
-165.956
0
LINE
8
BLACK
6
CONTINUOUS
10
92.6643
20
-165.956
11
92.7595
21
-165.766
0
LINE
8
BLACK
6
CONTINUOUS
10
92.7595
20
-165.766
11
92.8548
21
-165.48
0
LINE
8
BLACK
6
CONTINUOUS
10
92.8548
20
-165.48
11
92.95
21
-165.004
0
LINE
8
BLACK
6
CONTINUOUS
10
92.95
20
-165.004
11
92.95
21
-164.623
0
LINE
8
BLACK
6
CONTINUOUS
10
92.95
20
-164.623
11
92.8548
21
-164.147
0
LINE
8
BLACK
6
CONTINUOUS
10
92.8548
20
-164.147
11
92.7595
21
-163.861
0
LINE
8
BLACK
6
CONTINUOUS
10
92.7595
20
-163.861
11
92.6643
21
-163.67
0
LINE
8
BLACK
6
CONTINUOUS
10
92.6643
20
-163.67
11
92.4738
21
-163.385
0
LINE
8
BLACK
6
CONTINUOUS
10
92.4738
20
-163.385
11
92.3786
21
-163.29
0
LINE
8
BLACK
6
CONTINUOUS
10
23.95
20
-166.85
11
23.95
21
-168.85
0
LINE
8
BLACK
6
CONTINUOUS
10
22.95
20
-167.85
11
24.95
21
-167.85
0
LINE
8
BLACK
6
CONTINUOUS
10
28.2833
20
-167.442
11
28.2833
21
-168.775
0
LINE
8
BLACK
6
CONTINUOUS
10
27.8071
20
-166.68
11
27.331
21
-168.109
0
LINE
8
BLACK
6
CONTINUOUS
10
27.331
20
-168.109
11
28.569
21
-168.109
0
LINE
8
BLACK
6
CONTINUOUS
10
29.331
20
-168.585
11
29.4262
21
-168.68
0
LINE
8
BLACK
6
CONTINUOUS
10
29.4262
20
-168.68
11
29.331
21
-168.775
0
LINE
8
BLACK
6
CONTINUOUS
10
29.331
20
-168.775
11
29.2357
21
-168.68
0
LINE
8
BLACK
6
CONTINUOUS
10
29.2357
20
-168.68
11
29.331
21
-168.585
0
LINE
8
BLACK
6
CONTINUOUS
10
29.331
20
-168.585
11
29.331
21
-168.775
0
LINE
8
BLACK
6
CONTINUOUS
10
30.0929
20
-166.775
11
31.331
21
-166.775
0
LINE
8
BLACK
6
CONTINUOUS
10
31.331
20
-166.775
11
30.6643
21
-167.537
0
LINE
8
BLACK
6
CONTINUOUS
10
30.6643
20
-167.537
11
30.95
21
-167.537
0
LINE
8
BLACK
6
CONTINUOUS
10
30.95
20
-167.537
11
31.1405
21
-167.632
0
LINE
8
BLACK
6
CONTINUOUS
10
31.1405
20
-167.632
11
31.2357
21
-167.728
0
LINE
8
BLACK
6
CONTINUOUS
10
31.2357
20
-167.728
11
31.331
21
-167.918
0
LINE
8
BLACK
6
CONTINUOUS
10
31.331
20
-167.918
11
31.331
21
-168.394
0
LINE
8
BLACK
6
CONTINUOUS
10
31.331
20
-168.394
11
31.2357
21
-168.585
0
LINE
8
BLACK
6
CONTINUOUS
10
31.2357
20
-168.585
11
31.1405
21
-168.68
0
LINE
8
BLACK
6
CONTINUOUS
10
31.1405
20
-168.68
11
30.95
21
-168.775
0
LINE
8
BLACK
6
CONTINUOUS
10
30.95
20
-168.775
11
30.3786
21
-168.775
0
LINE
8
BLACK
6
CONTINUOUS
10
30.3786
20
-168.775
11
30.1881
21
-168.68
0
LINE
8
BLACK
6
CONTINUOUS
10
30.1881
20
-168.68
11
30.0929
21
-168.585
0
LINE
8
BLACK
6
CONTINUOUS
10
32.569
20
-166.775
11
32.7595
21
-166.775
0
LINE
8
BLACK
6
CONTINUOUS
10
32.7595
20
-166.775
11
32.95
21
-166.87
0
LINE
8
BLACK
6
CONTINUOUS
10
32.95
20
-166.87
11
33.0452
21
-166.966
0
LINE
8
BLACK
6
CONTINUOUS
10
33.0452
20
-166.966
11
33.1405
21
-167.156
0
LINE
8
BLACK
6
CONTINUOUS
10
33.1405
20
-167.156
11
33.2357
21
-167.537
0
LINE
8
BLACK
6
CONTINUOUS
10
33.2357
20
-167.537
11
33.2357
21
-168.013
0
LINE
8
BLACK
6
CONTINUOUS
10
33.2357
20
-168.013
11
33.1405
21
-168.394
0
LINE
8
BLACK
6
CONTINUOUS
10
33.1405
20
-168.394
11
33.0452
21
-168.585
0
LINE
8
BLACK
6
CONTINUOUS
10
33.0452
20
-168.585
11
32.95
21
-168.68
0
LINE
8
BLACK
6
CONTINUOUS
10
32.95
20
-168.68
11
32.7595
21
-168.775
0
LINE
8
BLACK
6
CONTINUOUS
10
32.7595
20
-168.775
11
32.569
21
-168.775
0
LINE
8
BLACK
6
CONTINUOUS
10
32.569
20
-168.775
11
32.3786
21
-168.68
0
LINE
8
BLACK
6
CONTINUOUS
10
32.3786
20
-168.68
11
32.2833
21
-168.585
0
LINE
8
BLACK
6
CONTINUOUS
10
32.2833
20
-168.585
11
32.1881
21
-168.394
0
LINE
8
BLACK
6
CONTINUOUS
10
32.1881
20
-168.394
11
32.0929
21
-168.013
0
LINE
8
BLACK
6
CONTINUOUS
10
32.0929
20
-168.013
11
32.0929
21
-167.537
0
LINE
8
BLACK
6
CONTINUOUS
10
32.0929
20
-167.537
11
32.1881
21
-167.156
0
LINE
8
BLACK
6
CONTINUOUS
10
32.1881
20
-167.156
11
32.2833
21
-166.966
0
LINE
8
BLACK
6
CONTINUOUS
10
32.2833
20
-166.966
11
32.3786
21
-166.87
0
LINE
8
BLACK
6
CONTINUOUS
10
32.3786
20
-166.87
11
32.569
21
-166.775
0
LINE
8
BLACK
6
CONTINUOUS
10
34.4738
20
-166.775
11
34.6643
21
-166.775
0
LINE
8
BLACK
6
CONTINUOUS
10
34.6643
20
-166.775
11
34.8548
21
-166.87
0
LINE
8
BLACK
6
CONTINUOUS
10
34.8548
20
-166.87
11
34.95
21
-166.966
0
LINE
8
BLACK
6
CONTINUOUS
10
34.95
20
-166.966
11
35.0452
21
-167.156
0
LINE
8
BLACK
6
CONTINUOUS
10
35.0452
20
-167.156
11
35.1405
21
-167.537
0
LINE
8
BLACK
6
CONTINUOUS
10
35.1405
20
-167.537
11
35.1405
21
-168.013
0
LINE
8
BLACK
6
CONTINUOUS
10
35.1405
20
-168.013
11
35.0452
21
-168.394
0
LINE
8
BLACK
6
CONTINUOUS
10
35.0452
20
-168.394
11
34.95
21
-168.585
0
LINE
8
BLACK
6
CONTINUOUS
10
34.95
20
-168.585
11
34.8548
21
-168.68
0
LINE
8
BLACK
6
CONTINUOUS
10
34.8548
20
-168.68
11
34.6643
21
-168.775
0
LINE
8
BLACK
6
CONTINUOUS
10
34.6643
20
-168.775
11
34.4738
21
-168.775
0
LINE
8
BLACK
6
CONTINUOUS
10
34.4738
20
-168.775
11
34.2833
21
-168.68
0
LINE
8
BLACK
6
CONTINUOUS
10
34.2833
20
-168.68
11
34.1881
21
-168.585
0
LINE
8
BLACK
6
CONTINUOUS
10
34.1881
20
-168.585
11
34.0929
21
-168.394
0
LINE
8
BLACK
6
CONTINUOUS
10
34.0929
20
-168.394
11
33.9976
21
-168.013
0
LINE
8
BLACK
6
CONTINUOUS
10
33.9976
20
-168.013
11
33.9976
21
-167.537
0
LINE
8
BLACK
6
CONTINUOUS
10
33.9976
20
-167.537
11
34.0929
21
-167.156
0
LINE
8
BLACK
6
CONTINUOUS
10
34.0929
20
-167.156
11
34.1881
21
-166.966
0
LINE
8
BLACK
6
CONTINUOUS
10
34.1881
20
-166.966
11
34.2833
21
-166.87
0
LINE
8
BLACK
6
CONTINUOUS
10
34.2833
20
-166.87
11
34.4738
21
-166.775
0
LINE
8
BLACK
6
CONTINUOUS
10
35.9976
20
-168.775
11
35.9976
21
-167.442
0
LINE
8
BLACK
6
CONTINUOUS
10
35.9976
20
-167.632
11
36.0929
21
-167.537
0
LINE
8
BLACK
6
CONTINUOUS
10
36.0929
20
-167.537
11
36.2833
21
-167.442
0
LINE
8
BLACK
6
CONTINUOUS
10
36.2833
20
-167.442
11
36.569
21
-167.442
0
LINE
8
BLACK
6
CONTINUOUS
10
36.569
20
-167.442
11
36.7595
21
-167.537
0
LINE
8
BLACK
6
CONTINUOUS
10
36.7595
20
-167.537
11
36.8548
21
-167.728
0
LINE
8
BLACK
6
CONTINUOUS
10
36.8548
20
-167.728
11
36.8548
21
-168.775
0
LINE
8
BLACK
6
CONTINUOUS
10
36.8548
20
-167.728
11
36.95
21
-167.537
0
LINE
8
BLACK
6
CONTINUOUS
10
36.95
20
-167.537
11
37.1405
21
-167.442
0
LINE
8
BLACK
6
CONTINUOUS
10
37.1405
20
-167.442
11
37.4262
21
-167.442
0
LINE
8
BLACK
6
CONTINUOUS
10
37.4262
20
-167.442
11
37.6167
21
-167.537
0
LINE
8
BLACK
6
CONTINUOUS
10
37.6167
20
-167.537
11
37.7119
21
-167.728
0
LINE
8
BLACK
6
CONTINUOUS
10
37.7119
20
-167.728
11
37.7119
21
-168.775
0
LINE
8
BLACK
6
CONTINUOUS
10
38.6643
20
-168.775
11
38.6643
21
-167.442
0
LINE
8
BLACK
6
CONTINUOUS
10
38.6643
20
-167.632
11
38.7595
21
-167.537
0
LINE
8
BLACK
6
CONTINUOUS
10
38.7595
20
-167.537
11
38.95
21
-167.442
0
LINE
8
BLACK
6
CONTINUOUS
10
38.95
20
-167.442
11
39.2357
21
-167.442
0
LINE
8
BLACK
6
CONTINUOUS
10
39.2357
20
-167.442
11
39.4262
21
-167.537
0
LINE
8
BLACK
6
CONTINUOUS
10
39.4262
20
-167.537
11
39.5214
21
-167.728
0
LINE
8
BLACK
6
CONTINUOUS
10
39.5214
20
-167.728
11
39.5214
21
-168.775
0
LINE
8
BLACK
6
CONTINUOUS
10
39.5214
20
-167.728
11
39.6167
21
-167.537
0
LINE
8
BLACK
6
CONTINUOUS
10
39.6167
20
-167.537
11
39.8071
21
-167.442
0
LINE
8
BLACK
6
CONTINUOUS
10
39.8071
20
-167.442
11
40.0929
21
-167.442
0
LINE
8
BLACK
6
CONTINUOUS
10
40.0929
20
-167.442
11
40.2833
21
-167.537
0
LINE
8
BLACK
6
CONTINUOUS
10
40.2833
20
-167.537
11
40.3786
21
-167.728
0
LINE
8
BLACK
6
CONTINUOUS
10
40.3786
20
-167.728
11
40.3786
21
-168.775
0
LINE
8
BLACK
6
CONTINUOUS
10
44.2833
20
-166.68
11
42.569
21
-169.251
0
LINE
8
BLACK
6
CONTINUOUS
10
46.8548
20
-166.775
11
47.0452
21
-166.775
0
LINE
8
BLACK
6
CONTINUOUS
10
47.0452
20
-166.775
11
47.2357
21
-166.87
0
LINE
8
BLACK
6
CONTINUOUS
10
47.2357
20
-166.87
11
47.331
21
-166.966
0
LINE
8
BLACK
6
CONTINUOUS
10
47.331
20
-166.966
11
47.4262
21
-167.156
0
LINE
8
BLACK
6
CONTINUOUS
10
47.4262
20
-167.156
11
47.5214
21
-167.537
0
LINE
8
BLACK
6
CONTINUOUS
10
47.5214
20
-167.537
11
47.5214
21
-168.013
0
LINE
8
BLACK
6
CONTINUOUS
10
47.5214
20
-168.013
11
47.4262
21
-168.394
0
LINE
8
BLACK
6
CONTINUOUS
10
47.4262
20
-168.394
11
47.331
21
-168.585
0
LINE
8
BLACK
6
CONTINUOUS
10
47.331
20
-168.585
11
47.2357
21
-168.68
0
LINE
8
BLACK
6
CONTINUOUS
10
47.2357
20
-168.68
11
47.0452
21
-168.775
0
LINE
8
BLACK
6
CONTINUOUS
10
47.0452
20
-168.775
11
46.8548
21
-168.775
0
LINE
8
BLACK
6
CONTINUOUS
10
46.8548
20
-168.775
11
46.6643
21
-168.68
0
LINE
8
BLACK
6
CONTINUOUS
10
46.6643
20
-168.68
11
46.569
21
-168.585
0
LINE
8
BLACK
6
CONTINUOUS
10
46.569
20
-168.585
11
46.4738
21
-168.394
0
LINE
8
BLACK
6
CONTINUOUS
10
46.4738
20
-168.394
11
46.3786
21
-168.013
0
LINE
8
BLACK
6
CONTINUOUS
10
46.3786
20
-168.013
11
46.3786
21
-167.537
0
LINE
8
BLACK
6
CONTINUOUS
10
46.3786
20
-167.537
11
46.4738
21
-167.156
0
LINE
8
BLACK
6
CONTINUOUS
10
46.4738
20
-167.156
11
46.569
21
-166.966
0
LINE
8
BLACK
6
CONTINUOUS
10
46.569
20
-166.966
11
46.6643
21
-166.87
0
LINE
8
BLACK
6
CONTINUOUS
10
46.6643
20
-166.87
11
46.8548
21
-166.775
0
LINE
8
BLACK
6
CONTINUOUS
10
48.3786
20
-168.585
11
48.4738
21
-168.68
0
LINE
8
BLACK
6
CONTINUOUS
10
48.4738
20
-168.68
11
48.3786
21
-168.775
0
LINE
8
BLACK
6
CONTINUOUS
10
48.3786
20
-168.775
11
48.2833
21
-168.68
0
LINE
8
BLACK
6
CONTINUOUS
10
48.2833
20
-168.68
11
48.3786
21
-168.585
0
LINE
8
BLACK
6
CONTINUOUS
10
48.3786
20
-168.585
11
48.3786
21
-168.775
0
LINE
8
BLACK
6
CONTINUOUS
10
50.3786
20
-168.775
11
49.2357
21
-168.775
0
LINE
8
BLACK
6
CONTINUOUS
10
49.8071
20
-168.775
11
49.8071
21
-166.775
0
LINE
8
BLACK
6
CONTINUOUS
10
49.8071
20
-166.775
11
49.6167
21
-167.061
0
LINE
8
BLACK
6
CONTINUOUS
10
49.6167
20
-167.061
11
49.4262
21
-167.251
0
LINE
8
BLACK
6
CONTINUOUS
10
49.4262
20
-167.251
11
49.2357
21
-167.347
0
LINE
8
BLACK
6
CONTINUOUS
10
52.0929
20
-166.775
11
51.7119
21
-166.775
0
LINE
8
BLACK
6
CONTINUOUS
10
51.7119
20
-166.775
11
51.5214
21
-166.87
0
LINE
8
BLACK
6
CONTINUOUS
10
51.5214
20
-166.87
11
51.4262
21
-166.966
0
LINE
8
BLACK
6
CONTINUOUS
10
51.4262
20
-166.966
11
51.2357
21
-167.251
0
LINE
8
BLACK
6
CONTINUOUS
10
51.2357
20
-167.251
11
51.1405
21
-167.632
0
LINE
8
BLACK
6
CONTINUOUS
10
51.1405
20
-167.632
11
51.1405
21
-168.394
0
LINE
8
BLACK
6
CONTINUOUS
10
51.1405
20
-168.394
11
51.2357
21
-168.585
0
LINE
8
BLACK
6
CONTINUOUS
10
51.2357
20
-168.585
11
51.331
21
-168.68
0
LINE
8
BLACK
6
CONTINUOUS
10
51.331
20
-168.68
11
51.5214
21
-168.775
0
LINE
8
BLACK
6
CONTINUOUS
10
51.5214
20
-168.775
11
51.9024
21
-168.775
0
LINE
8
BLACK
6
CONTINUOUS
10
51.9024
20
-168.775
11
52.0929
21
-168.68
0
LINE
8
BLACK
6
CONTINUOUS
10
52.0929
20
-168.68
11
52.1881
21
-168.585
0
LINE
8
BLACK
6
CONTINUOUS
10
52.1881
20
-168.585
11
52.2833
21
-168.394
0
LINE
8
BLACK
6
CONTINUOUS
10
52.2833
20
-168.394
11
52.2833
21
-167.918
0
LINE
8
BLACK
6
CONTINUOUS
10
52.2833
20
-167.918
11
52.1881
21
-167.728
0
LINE
8
BLACK
6
CONTINUOUS
10
52.1881
20
-167.728
11
52.0929
21
-167.632
0
LINE
8
BLACK
6
CONTINUOUS
10
52.0929
20
-167.632
11
51.9024
21
-167.537
0
LINE
8
BLACK
6
CONTINUOUS
10
51.9024
20
-167.537
11
51.5214
21
-167.537
0
LINE
8
BLACK
6
CONTINUOUS
10
51.5214
20
-167.537
11
51.331
21
-167.632
0
LINE
8
BLACK
6
CONTINUOUS
10
51.331
20
-167.632
11
51.2357
21
-167.728
0
LINE
8
BLACK
6
CONTINUOUS
10
51.2357
20
-167.728
11
51.1405
21
-167.918
0
LINE
8
BLACK
6
CONTINUOUS
10
53.2357
20
-168.775
11
53.6167
21
-168.775
0
LINE
8
BLACK
6
CONTINUOUS
10
53.6167
20
-168.775
11
53.8071
21
-168.68
0
LINE
8
BLACK
6
CONTINUOUS
10
53.8071
20
-168.68
11
53.9024
21
-168.585
0
LINE
8
BLACK
6
CONTINUOUS
10
53.9024
20
-168.585
11
54.0929
21
-168.299
0
LINE
8
BLACK
6
CONTINUOUS
10
54.0929
20
-168.299
11
54.1881
21
-167.918
0
LINE
8
BLACK
6
CONTINUOUS
10
54.1881
20
-167.918
11
54.1881
21
-167.156
0
LINE
8
BLACK
6
CONTINUOUS
10
54.1881
20
-167.156
11
54.0929
21
-166.966
0
LINE
8
BLACK
6
CONTINUOUS
10
54.0929
20
-166.966
11
53.9976
21
-166.87
0
LINE
8
BLACK
6
CONTINUOUS
10
53.9976
20
-166.87
11
53.8071
21
-166.775
0
LINE
8
BLACK
6
CONTINUOUS
10
53.8071
20
-166.775
11
53.4262
21
-166.775
0
LINE
8
BLACK
6
CONTINUOUS
10
53.4262
20
-166.775
11
53.2357
21
-166.87
0
LINE
8
BLACK
6
CONTINUOUS
10
53.2357
20
-166.87
11
53.1405
21
-166.966
0
LINE
8
BLACK
6
CONTINUOUS
10
53.1405
20
-166.966
11
53.0452
21
-167.156
0
LINE
8
BLACK
6
CONTINUOUS
10
53.0452
20
-167.156
11
53.0452
21
-167.632
0
LINE
8
BLACK
6
CONTINUOUS
10
53.0452
20
-167.632
11
53.1405
21
-167.823
0
LINE
8
BLACK
6
CONTINUOUS
10
53.1405
20
-167.823
11
53.2357
21
-167.918
0
LINE
8
BLACK
6
CONTINUOUS
10
53.2357
20
-167.918
11
53.4262
21
-168.013
0
LINE
8
BLACK
6
CONTINUOUS
10
53.4262
20
-168.013
11
53.8071
21
-168.013
0
LINE
8
BLACK
6
CONTINUOUS
10
53.8071
20
-168.013
11
53.9976
21
-167.918
0
LINE
8
BLACK
6
CONTINUOUS
10
53.9976
20
-167.918
11
54.0929
21
-167.823
0
LINE
8
BLACK
6
CONTINUOUS
10
54.0929
20
-167.823
11
54.1881
21
-167.632
0
LINE
8
BLACK
6
CONTINUOUS
10
54.8548
20
-166.775
11
56.0929
21
-166.775
0
LINE
8
BLACK
6
CONTINUOUS
10
56.0929
20
-166.775
11
55.4262
21
-167.537
0
LINE
8
BLACK
6
CONTINUOUS
10
55.4262
20
-167.537
11
55.7119
21
-167.537
0
LINE
8
BLACK
6
CONTINUOUS
10
55.7119
20
-167.537
11
55.9024
21
-167.632
0
LINE
8
BLACK
6
CONTINUOUS
10
55.9024
20
-167.632
11
55.9976
21
-167.728
0
LINE
8
BLACK
6
CONTINUOUS
10
55.9976
20
-167.728
11
56.0929
21
-167.918
0
LINE
8
BLACK
6
CONTINUOUS
10
56.0929
20
-167.918
11
56.0929
21
-168.394
0
LINE
8
BLACK
6
CONTINUOUS
10
56.0929
20
-168.394
11
55.9976
21
-168.585
0
LINE
8
BLACK
6
CONTINUOUS
10
55.9976
20
-168.585
11
55.9024
21
-168.68
0
LINE
8
BLACK
6
CONTINUOUS
10
55.9024
20
-168.68
11
55.7119
21
-168.775
0
LINE
8
BLACK
6
CONTINUOUS
10
55.7119
20
-168.775
11
55.1405
21
-168.775
0
LINE
8
BLACK
6
CONTINUOUS
10
55.1405
20
-168.775
11
54.95
21
-168.68
0
LINE
8
BLACK
6
CONTINUOUS
10
54.95
20
-168.68
11
54.8548
21
-168.585
0
LINE
8
BLACK
6
CONTINUOUS
10
56.8548
20
-166.775
11
56.8548
21
-167.156
0
LINE
8
BLACK
6
CONTINUOUS
10
57.6167
20
-166.775
11
57.6167
21
-167.156
0
LINE
8
BLACK
6
CONTINUOUS
10
60.5691
20
-169.537
11
60.4738
21
-169.442
0
LINE
8
BLACK
6
CONTINUOUS
10
60.4738
20
-169.442
11
60.2833
21
-169.156
0
LINE
8
BLACK
6
CONTINUOUS
10
60.2833
20
-169.156
11
60.1881
21
-168.966
0
LINE
8
BLACK
6
CONTINUOUS
10
60.1881
20
-168.966
11
60.0929
21
-168.68
0
LINE
8
BLACK
6
CONTINUOUS
10
60.0929
20
-168.68
11
59.9976
21
-168.204
0
LINE
8
BLACK
6
CONTINUOUS
10
59.9976
20
-168.204
11
59.9976
21
-167.823
0
LINE
8
BLACK
6
CONTINUOUS
10
59.9976
20
-167.823
11
60.0929
21
-167.347
0
LINE
8
BLACK
6
CONTINUOUS
10
60.0929
20
-167.347
11
60.1881
21
-167.061
0
LINE
8
BLACK
6
CONTINUOUS
10
60.1881
20
-167.061
11
60.2833
21
-166.87
0
LINE
8
BLACK
6
CONTINUOUS
10
60.2833
20
-166.87
11
60.4738
21
-166.585
0
LINE
8
BLACK
6
CONTINUOUS
10
60.4738
20
-166.585
11
60.5691
21
-166.49
0
LINE
8
BLACK
6
CONTINUOUS
10
62.1881
20
-167.442
11
62.1881
21
-168.775
0
LINE
8
BLACK
6
CONTINUOUS
10
61.7119
20
-166.68
11
61.2357
21
-168.109
0
LINE
8
BLACK
6
CONTINUOUS
10
61.2357
20
-168.109
11
62.4738
21
-168.109
0
LINE
8
BLACK
6
CONTINUOUS
10
64.7595
20
-168.775
11
64.7595
21
-166.775
0
LINE
8
BLACK
6
CONTINUOUS
10
65.6167
20
-168.775
11
65.6167
21
-167.728
0
LINE
8
BLACK
6
CONTINUOUS
10
65.6167
20
-167.728
11
65.5214
21
-167.537
0
LINE
8
BLACK
6
CONTINUOUS
10
65.5214
20
-167.537
11
65.331
21
-167.442
0
LINE
8
BLACK
6
CONTINUOUS
10
65.331
20
-167.442
11
65.0452
21
-167.442
0
LINE
8
BLACK
6
CONTINUOUS
10
65.0452
20
-167.442
11
64.8548
21
-167.537
0
LINE
8
BLACK
6
CONTINUOUS
10
64.8548
20
-167.537
11
64.7595
21
-167.632
0
LINE
8
BLACK
6
CONTINUOUS
10
66.8548
20
-168.775
11
66.6643
21
-168.68
0
LINE
8
BLACK
6
CONTINUOUS
10
66.6643
20
-168.68
11
66.5691
21
-168.585
0
LINE
8
BLACK
6
CONTINUOUS
10
66.5691
20
-168.585
11
66.4738
21
-168.394
0
LINE
8
BLACK
6
CONTINUOUS
10
66.4738
20
-168.394
11
66.4738
21
-167.823
0
LINE
8
BLACK
6
CONTINUOUS
10
66.4738
20
-167.823
11
66.5691
21
-167.632
0
LINE
8
BLACK
6
CONTINUOUS
10
66.5691
20
-167.632
11
66.6643
21
-167.537
0
LINE
8
BLACK
6
CONTINUOUS
10
66.6643
20
-167.537
11
66.8548
21
-167.442
0
LINE
8
BLACK
6
CONTINUOUS
10
66.8548
20
-167.442
11
67.1405
21
-167.442
0
LINE
8
BLACK
6
CONTINUOUS
10
67.1405
20
-167.442
11
67.331
21
-167.537
0
LINE
8
BLACK
6
CONTINUOUS
10
67.331
20
-167.537
11
67.4262
21
-167.632
0
LINE
8
BLACK
6
CONTINUOUS
10
67.4262
20
-167.632
11
67.5214
21
-167.823
0
LINE
8
BLACK
6
CONTINUOUS
10
67.5214
20
-167.823
11
67.5214
21
-168.394
0
LINE
8
BLACK
6
CONTINUOUS
10
67.5214
20
-168.394
11
67.4262
21
-168.585
0
LINE
8
BLACK
6
CONTINUOUS
10
67.4262
20
-168.585
11
67.331
21
-168.68
0
LINE
8
BLACK
6
CONTINUOUS
10
67.331
20
-168.68
11
67.1405
21
-168.775
0
LINE
8
BLACK
6
CONTINUOUS
10
67.1405
20
-168.775
11
66.8548
21
-168.775
0
LINE
8
BLACK
6
CONTINUOUS
10
68.6643
20
-168.775
11
68.4738
21
-168.68
0
LINE
8
BLACK
6
CONTINUOUS
10
68.4738
20
-168.68
11
68.3786
21
-168.49
0
LINE
8
BLACK
6
CONTINUOUS
10
68.3786
20
-168.49
11
68.3786
21
-166.775
0
LINE
8
BLACK
6
CONTINUOUS
10
70.1881
20
-168.68
11
69.9976
21
-168.775
0
LINE
8
BLACK
6
CONTINUOUS
10
69.9976
20
-168.775
11
69.6167
21
-168.775
0
LINE
8
BLACK
6
CONTINUOUS
10
69.6167
20
-168.775
11
69.4262
21
-168.68
0
LINE
8
BLACK
6
CONTINUOUS
10
69.4262
20
-168.68
11
69.331
21
-168.49
0
LINE
8
BLACK
6
CONTINUOUS
10
69.331
20
-168.49
11
69.331
21
-167.728
0
LINE
8
BLACK
6
CONTINUOUS
10
69.331
20
-167.728
11
69.4262
21
-167.537
0
LINE
8
BLACK
6
CONTINUOUS
10
69.4262
20
-167.537
11
69.6167
21
-167.442
0
LINE
8
BLACK
6
CONTINUOUS
10
69.6167
20
-167.442
11
69.9976
21
-167.442
0
LINE
8
BLACK
6
CONTINUOUS
10
69.9976
20
-167.442
11
70.1881
21
-167.537
0
LINE
8
BLACK
6
CONTINUOUS
10
70.1881
20
-167.537
11
70.2833
21
-167.728
0
LINE
8
BLACK
6
CONTINUOUS
10
70.2833
20
-167.728
11
70.2833
21
-167.918
0
LINE
8
BLACK
6
CONTINUOUS
10
70.2833
20
-167.918
11
69.331
21
-168.109
0
LINE
8
BLACK
6
CONTINUOUS
10
71.0452
20
-168.68
11
71.2357
21
-168.775
0
LINE
8
BLACK
6
CONTINUOUS
10
71.2357
20
-168.775
11
71.6167
21
-168.775
0
LINE
8
BLACK
6
CONTINUOUS
10
71.6167
20
-168.775
11
71.8071
21
-168.68
0
LINE
8
BLACK
6
CONTINUOUS
10
71.8071
20
-168.68
11
71.9024
21
-168.49
0
LINE
8
BLACK
6
CONTINUOUS
10
71.9024
20
-168.49
11
71.9024
21
-168.394
0
LINE
8
BLACK
6
CONTINUOUS
10
71.9024
20
-168.394
11
71.8071
21
-168.204
0
LINE
8
BLACK
6
CONTINUOUS
10
71.8071
20
-168.204
11
71.6167
21
-168.109
0
LINE
8
BLACK
6
CONTINUOUS
10
71.6167
20
-168.109
11
71.331
21
-168.109
0
LINE
8
BLACK
6
CONTINUOUS
10
71.331
20
-168.109
11
71.1405
21
-168.013
0
LINE
8
BLACK
6
CONTINUOUS
10
71.1405
20
-168.013
11
71.0452
21
-167.823
0
LINE
8
BLACK
6
CONTINUOUS
10
71.0452
20
-167.823
11
71.0452
21
-167.728
0
LINE
8
BLACK
6
CONTINUOUS
10
71.0452
20
-167.728
11
71.1405
21
-167.537
0
LINE
8
BLACK
6
CONTINUOUS
10
71.1405
20
-167.537
11
71.331
21
-167.442
0
LINE
8
BLACK
6
CONTINUOUS
10
71.331
20
-167.442
11
71.6167
21
-167.442
0
LINE
8
BLACK
6
CONTINUOUS
10
71.6167
20
-167.442
11
71.8071
21
-167.537
0
LINE
8
BLACK
6
CONTINUOUS
10
72.5691
20
-169.537
11
72.6643
21
-169.442
0
LINE
8
BLACK
6
CONTINUOUS
10
72.6643
20
-169.442
11
72.8548
21
-169.156
0
LINE
8
BLACK
6
CONTINUOUS
10
72.8548
20
-169.156
11
72.95
21
-168.966
0
LINE
8
BLACK
6
CONTINUOUS
10
72.95
20
-168.966
11
73.0452
21
-168.68
0
LINE
8
BLACK
6
CONTINUOUS
10
73.0452
20
-168.68
11
73.1405
21
-168.204
0
LINE
8
BLACK
6
CONTINUOUS
10
73.1405
20
-168.204
11
73.1405
21
-167.823
0
LINE
8
BLACK
6
CONTINUOUS
10
73.1405
20
-167.823
11
73.0452
21
-167.347
0
LINE
8
BLACK
6
CONTINUOUS
10
73.0452
20
-167.347
11
72.95
21
-167.061
0
LINE
8
BLACK
6
CONTINUOUS
10
72.95
20
-167.061
11
72.8548
21
-166.87
0
LINE
8
BLACK
6
CONTINUOUS
10
72.8548
20
-166.87
11
72.6643
21
-166.585
0
LINE
8
BLACK
6
CONTINUOUS
10
72.6643
20
-166.585
11
72.5691
21
-166.49
0
LINE
8
BLACK
6
CONTINUOUS
10
76.1881
20
-169.537
11
76.0929
21
-169.442
0
LINE
8
BLACK
6
CONTINUOUS
10
76.0929
20
-169.442
11
75.9024
21
-169.156
0
LINE
8
BLACK
6
CONTINUOUS
10
75.9024
20
-169.156
11
75.8071
21
-168.966
0
LINE
8
BLACK
6
CONTINUOUS
10
75.8071
20
-168.966
11
75.7119
21
-168.68
0
LINE
8
BLACK
6
CONTINUOUS
10
75.7119
20
-168.68
11
75.6167
21
-168.204
0
LINE
8
BLACK
6
CONTINUOUS
10
75.6167
20
-168.204
11
75.6167
21
-167.823
0
LINE
8
BLACK
6
CONTINUOUS
10
75.6167
20
-167.823
11
75.7119
21
-167.347
0
LINE
8
BLACK
6
CONTINUOUS
10
75.7119
20
-167.347
11
75.8071
21
-167.061
0
LINE
8
BLACK
6
CONTINUOUS
10
75.8071
20
-167.061
11
75.9024
21
-166.87
0
LINE
8
BLACK
6
CONTINUOUS
10
75.9024
20
-166.87
11
76.0929
21
-166.585
0
LINE
8
BLACK
6
CONTINUOUS
10
76.0929
20
-166.585
11
76.1881
21
-166.49
0
LINE
8
BLACK
6
CONTINUOUS
10
76.95
20
-167.442
11
76.95
21
-168.775
0
LINE
8
BLACK
6
CONTINUOUS
10
76.95
20
-167.632
11
77.0452
21
-167.537
0
LINE
8
BLACK
6
CONTINUOUS
10
77.0452
20
-167.537
11
77.2357
21
-167.442
0
LINE
8
BLACK
6
CONTINUOUS
10
77.2357
20
-167.442
11
77.5214
21
-167.442
0
LINE
8
BLACK
6
CONTINUOUS
10
77.5214
20
-167.442
11
77.7119
21
-167.537
0
LINE
8
BLACK
6
CONTINUOUS
10
77.7119
20
-167.537
11
77.8071
21
-167.728
0
LINE
8
BLACK
6
CONTINUOUS
10
77.8071
20
-167.728
11
77.8071
21
-168.775
0
LINE
8
BLACK
6
CONTINUOUS
10
79.0452
20
-168.775
11
78.8548
21
-168.68
0
LINE
8
BLACK
6
CONTINUOUS
10
78.8548
20
-168.68
11
78.7595
21
-168.585
0
LINE
8
BLACK
6
CONTINUOUS
10
78.7595
20
-168.585
11
78.6643
21
-168.394
0
LINE
8
BLACK
6
CONTINUOUS
10
78.6643
20
-168.394
11
78.6643
21
-167.823
0
LINE
8
BLACK
6
CONTINUOUS
10
78.6643
20
-167.823
11
78.7595
21
-167.632
0
LINE
8
BLACK
6
CONTINUOUS
10
78.7595
20
-167.632
11
78.8548
21
-167.537
0
LINE
8
BLACK
6
CONTINUOUS
10
78.8548
20
-167.537
11
79.0452
21
-167.442
0
LINE
8
BLACK
6
CONTINUOUS
10
79.0452
20
-167.442
11
79.331
21
-167.442
0
LINE
8
BLACK
6
CONTINUOUS
10
79.331
20
-167.442
11
79.5214
21
-167.537
0
LINE
8
BLACK
6
CONTINUOUS
10
79.5214
20
-167.537
11
79.6167
21
-167.632
0
LINE
8
BLACK
6
CONTINUOUS
10
79.6167
20
-167.632
11
79.7119
21
-167.823
0
LINE
8
BLACK
6
CONTINUOUS
10
79.7119
20
-167.823
11
79.7119
21
-168.394
0
LINE
8
BLACK
6
CONTINUOUS
10
79.7119
20
-168.394
11
79.6167
21
-168.585
0
LINE
8
BLACK
6
CONTINUOUS
10
79.6167
20
-168.585
11
79.5214
21
-168.68
0
LINE
8
BLACK
6
CONTINUOUS
10
79.5214
20
-168.68
11
79.331
21
-168.775
0
LINE
8
BLACK
6
CONTINUOUS
10
79.331
20
-168.775
11
79.0452
21
-168.775
0
LINE
8
BLACK
6
CONTINUOUS
10
80.2833
20
-167.442
11
81.0452
21
-167.442
0
LINE
8
BLACK
6
CONTINUOUS
10
80.5691
20
-166.775
11
80.5691
21
-168.49
0
LINE
8
BLACK
6
CONTINUOUS
10
80.5691
20
-168.49
11
80.6643
21
-168.68
0
LINE
8
BLACK
6
CONTINUOUS
10
80.6643
20
-168.68
11
80.8548
21
-168.775
0
LINE
8
BLACK
6
CONTINUOUS
10
80.8548
20
-168.775
11
81.0452
21
-168.775
0
LINE
8
BLACK
6
CONTINUOUS
10
83.2357
20
-167.442
11
83.2357
21
-169.442
0
LINE
8
BLACK
6
CONTINUOUS
10
83.2357
20
-167.537
11
83.4262
21
-167.442
0
LINE
8
BLACK
6
CONTINUOUS
10
83.4262
20
-167.442
11
83.8071
21
-167.442
0
LINE
8
BLACK
6
CONTINUOUS
10
83.8071
20
-167.442
11
83.9976
21
-167.537
0
LINE
8
BLACK
6
CONTINUOUS
10
83.9976
20
-167.537
11
84.0929
21
-167.632
0
LINE
8
BLACK
6
CONTINUOUS
10
84.0929
20
-167.632
11
84.1881
21
-167.823
0
LINE
8
BLACK
6
CONTINUOUS
10
84.1881
20
-167.823
11
84.1881
21
-168.394
0
LINE
8
BLACK
6
CONTINUOUS
10
84.1881
20
-168.394
11
84.0929
21
-168.585
0
LINE
8
BLACK
6
CONTINUOUS
10
84.0929
20
-168.585
11
83.9976
21
-168.68
0
LINE
8
BLACK
6
CONTINUOUS
10
83.9976
20
-168.68
11
83.8071
21
-168.775
0
LINE
8
BLACK
6
CONTINUOUS
10
83.8071
20
-168.775
11
83.4262
21
-168.775
0
LINE
8
BLACK
6
CONTINUOUS
10
83.4262
20
-168.775
11
83.2357
21
-168.68
0
LINE
8
BLACK
6
CONTINUOUS
10
85.331
20
-168.775
11
85.1405
21
-168.68
0
LINE
8
BLACK
6
CONTINUOUS
10
85.1405
20
-168.68
11
85.0452
21
-168.49
0
LINE
8
BLACK
6
CONTINUOUS
10
85.0452
20
-168.49
11
85.0452
21
-166.775
0
LINE
8
BLACK
6
CONTINUOUS
10
86.95
20
-168.775
11
86.95
21
-167.728
0
LINE
8
BLACK
6
CONTINUOUS
10
86.95
20
-167.728
11
86.8548
21
-167.537
0
LINE
8
BLACK
6
CONTINUOUS
10
86.8548
20
-167.537
11
86.6643
21
-167.442
0
LINE
8
BLACK
6
CONTINUOUS
10
86.6643
20
-167.442
11
86.2833
21
-167.442
0
LINE
8
BLACK
6
CONTINUOUS
10
86.2833
20
-167.442
11
86.0929
21
-167.537
0
LINE
8
BLACK
6
CONTINUOUS
10
86.95
20
-168.68
11
86.7595
21
-168.775
0
LINE
8
BLACK
6
CONTINUOUS
10
86.7595
20
-168.775
11
86.2833
21
-168.775
0
LINE
8
BLACK
6
CONTINUOUS
10
86.2833
20
-168.775
11
86.0929
21
-168.68
0
LINE
8
BLACK
6
CONTINUOUS
10
86.0929
20
-168.68
11
85.9976
21
-168.49
0
LINE
8
BLACK
6
CONTINUOUS
10
85.9976
20
-168.49
11
85.9976
21
-168.299
0
LINE
8
BLACK
6
CONTINUOUS
10
85.9976
20
-168.299
11
86.0929
21
-168.109
0
LINE
8
BLACK
6
CONTINUOUS
10
86.0929
20
-168.109
11
86.2833
21
-168.013
0
LINE
8
BLACK
6
CONTINUOUS
10
86.2833
20
-168.013
11
86.7595
21
-168.013
0
LINE
8
BLACK
6
CONTINUOUS
10
86.7595
20
-168.013
11
86.95
21
-167.918
0
LINE
8
BLACK
6
CONTINUOUS
10
87.6167
20
-167.442
11
88.3786
21
-167.442
0
LINE
8
BLACK
6
CONTINUOUS
10
87.9024
20
-166.775
11
87.9024
21
-168.49
0
LINE
8
BLACK
6
CONTINUOUS
10
87.9024
20
-168.49
11
87.9976
21
-168.68
0
LINE
8
BLACK
6
CONTINUOUS
10
87.9976
20
-168.68
11
88.1881
21
-168.775
0
LINE
8
BLACK
6
CONTINUOUS
10
88.1881
20
-168.775
11
88.3786
21
-168.775
0
LINE
8
BLACK
6
CONTINUOUS
10
89.8071
20
-168.68
11
89.6167
21
-168.775
0
LINE
8
BLACK
6
CONTINUOUS
10
89.6167
20
-168.775
11
89.2357
21
-168.775
0
LINE
8
BLACK
6
CONTINUOUS
10
89.2357
20
-168.775
11
89.0452
21
-168.68
0
LINE
8
BLACK
6
CONTINUOUS
10
89.0452
20
-168.68
11
88.95
21
-168.49
0
LINE
8
BLACK
6
CONTINUOUS
10
88.95
20
-168.49
11
88.95
21
-167.728
0
LINE
8
BLACK
6
CONTINUOUS
10
88.95
20
-167.728
11
89.0452
21
-167.537
0
LINE
8
BLACK
6
CONTINUOUS
10
89.0452
20
-167.537
11
89.2357
21
-167.442
0
LINE
8
BLACK
6
CONTINUOUS
10
89.2357
20
-167.442
11
89.6167
21
-167.442
0
LINE
8
BLACK
6
CONTINUOUS
10
89.6167
20
-167.442
11
89.8071
21
-167.537
0
LINE
8
BLACK
6
CONTINUOUS
10
89.8071
20
-167.537
11
89.9024
21
-167.728
0
LINE
8
BLACK
6
CONTINUOUS
10
89.9024
20
-167.728
11
89.9024
21
-167.918
0
LINE
8
BLACK
6
CONTINUOUS
10
89.9024
20
-167.918
11
88.95
21
-168.109
0
LINE
8
BLACK
6
CONTINUOUS
10
91.6167
20
-168.775
11
91.6167
21
-166.775
0
LINE
8
BLACK
6
CONTINUOUS
10
91.6167
20
-168.68
11
91.4262
21
-168.775
0
LINE
8
BLACK
6
CONTINUOUS
10
91.4262
20
-168.775
11
91.0452
21
-168.775
0
LINE
8
BLACK
6
CONTINUOUS
10
91.0452
20
-168.775
11
90.8548
21
-168.68
0
LINE
8
BLACK
6
CONTINUOUS
10
90.8548
20
-168.68
11
90.7595
21
-168.585
0
LINE
8
BLACK
6
CONTINUOUS
10
90.7595
20
-168.585
11
90.6643
21
-168.394
0
LINE
8
BLACK
6
CONTINUOUS
10
90.6643
20
-168.394
11
90.6643
21
-167.823
0
LINE
8
BLACK
6
CONTINUOUS
10
90.6643
20
-167.823
11
90.7595
21
-167.632
0
LINE
8
BLACK
6
CONTINUOUS
10
90.7595
20
-167.632
11
90.8548
21
-167.537
0
LINE
8
BLACK
6
CONTINUOUS
10
90.8548
20
-167.537
11
91.0452
21
-167.442
0
LINE
8
BLACK
6
CONTINUOUS
10
91.0452
20
-167.442
11
91.4262
21
-167.442
0
LINE
8
BLACK
6
CONTINUOUS
10
91.4262
20
-167.442
11
91.6167
21
-167.537
0
LINE
8
BLACK
6
CONTINUOUS
10
92.3786
20
-169.537
11
92.4738
21
-169.442
0
LINE
8
BLACK
6
CONTINUOUS
10
92.4738
20
-169.442
11
92.6643
21
-169.156
0
LINE
8
BLACK
6
CONTINUOUS
10
92.6643
20
-169.156
11
92.7595
21
-168.966
0
LINE
8
BLACK
6
CONTINUOUS
10
92.7595
20
-168.966
11
92.8548
21
-168.68
0
LINE
8
BLACK
6
CONTINUOUS
10
92.8548
20
-168.68
11
92.95
21
-168.204
0
LINE
8
BLACK
6
CONTINUOUS
10
92.95
20
-168.204
11
92.95
21
-167.823
0
LINE
8
BLACK
6
CONTINUOUS
10
92.95
20
-167.823
11
92.8548
21
-167.347
0
LINE
8
BLACK
6
CONTINUOUS
10
92.8548
20
-167.347
11
92.7595
21
-167.061
0
LINE
8
BLACK
6
CONTINUOUS
10
92.7595
20
-167.061
11
92.6643
21
-166.87
0
LINE
8
BLACK
6
CONTINUOUS
10
92.6643
20
-166.87
11
92.4738
21
-166.585
0
LINE
8
BLACK
6
CONTINUOUS
10
92.4738
20
-166.585
11
92.3786
21
-166.49
  0
ENDSEC
  0
EOF
