  0
SECTION
  2
HEADER
  9
$ANGBASE
  50
0.0
  9
$ANGDIR
  70
1
  9
$MEASUREMENT
  70
1
  0
ENDSEC
  0
SECTION
  2
TABLES
  0
TABLE
  2
LTYPE
  70
4
  0
LTYPE
  5
40F
  2
CONTINUOUS
  70
0
  3
Solid line
  72
65
  73
0
  40
0.0
  0
LTYPE
  5
410
  2
DASHDOT
 70
0
  3
Dash Dot ____ _ ____ _
 72
65
 73
4
 40
2.0
 49
1.25
 49
-0.25
 49
0.25
 49
-0.25
  0
LTYPE
  5
411
  2
DASHED
 70
0
  3
Dashed __ __ __ __ __
 72
65
 73
2
 40
0.75
 49
0.5
 49
-0.25
  0
LTYPE
  5
43B
  2
DOTTED
 70
0
  3
Dotted .  .  .  .
 72
65
 73
2
 40
0.2
 49
0.0
 49
-0.2
  0
ENDTAB
  0
TABLE
  2
STYLE
  70
4
  0
STYLE
  2
KICAD
  70
0
  40
0
  41
1
  42
1
  50
0
  71
0
  3
isocp.shx
  0
STYLE
  2
KICADB
  70
0
  40
0
  41
1
  42
1
  50
0
  71
0
  3
isocp.shx
  0
STYLE
  2
KICADI
  70
0
  40
0
  41
1
  42
1
  50
15
  71
0
  3
isocp.shx
  0
STYLE
  2
KICADBI
  70
0
  40
0
  41
1
  42
1
  50
15
  71
0
  3
isocp.shx
  0
ENDTAB
  0
TABLE
  2
LAYER
  70
1
  0
LAYER
  2
BLACK
  70
0
  62
7
  6
CONTINUOUS
  0
ENDTAB
  0
ENDSEC
  0
SECTION
  2
ENTITIES
0
LINE
8
BLACK
6
CONTINUOUS
10
25
20
-125
11
425
21
-125
0
LINE
8
BLACK
6
CONTINUOUS
10
425
20
-125
11
425
21
-155
0
LINE
8
BLACK
6
CONTINUOUS
10
425
20
-155
11
25
21
-155
0
LINE
8
BLACK
6
CONTINUOUS
10
25
20
-155
11
25
21
-125
0
LINE
8
BLACK
6
CONTINUOUS
10
81.88
20
-129
11
82.28
21
-129.4
0
LINE
8
BLACK
6
CONTINUOUS
10
82.28
20
-129
11
81.88
21
-129.4
0
LINE
8
BLACK
6
CONTINUOUS
10
81.91
20
-131.44
11
82.31
21
-131.84
0
LINE
8
BLACK
6
CONTINUOUS
10
82.31
20
-131.44
11
81.91
21
-131.84
0
LINE
8
BLACK
6
CONTINUOUS
10
89.31
20
-138.44
11
89.71
21
-138.84
0
LINE
8
BLACK
6
CONTINUOUS
10
89.71
20
-138.44
11
89.31
21
-138.84
0
LINE
8
BLACK
6
CONTINUOUS
10
90.2725
20
-139.607
11
90.6725
21
-140.007
0
LINE
8
BLACK
6
CONTINUOUS
10
90.6725
20
-139.607
11
90.2725
21
-140.007
0
LINE
8
BLACK
6
CONTINUOUS
10
91.351
20
-140.392
11
91.751
21
-140.792
0
LINE
8
BLACK
6
CONTINUOUS
10
91.751
20
-140.392
11
91.351
21
-140.792
0
LINE
8
BLACK
6
CONTINUOUS
10
92.35
20
-138.13
11
92.75
21
-138.53
0
LINE
8
BLACK
6
CONTINUOUS
10
92.75
20
-138.13
11
92.35
21
-138.53
0
LINE
8
BLACK
6
CONTINUOUS
10
92.3743
20
-141.135
11
92.7743
21
-141.534
0
LINE
8
BLACK
6
CONTINUOUS
10
92.7743
20
-141.135
11
92.3743
21
-141.534
0
LINE
8
BLACK
6
CONTINUOUS
10
93.39
20
-138.14
11
93.79
21
-138.54
0
LINE
8
BLACK
6
CONTINUOUS
10
93.79
20
-138.14
11
93.39
21
-138.54
0
LINE
8
BLACK
6
CONTINUOUS
10
99.74
20
-129.01
11
100.14
21
-129.41
0
LINE
8
BLACK
6
CONTINUOUS
10
100.14
20
-129.01
11
99.74
21
-129.41
0
LINE
8
BLACK
6
CONTINUOUS
10
99.79
20
-131.46
11
100.19
21
-131.86
0
LINE
8
BLACK
6
CONTINUOUS
10
100.19
20
-131.46
11
99.79
21
-131.86
0
LINE
8
BLACK
6
CONTINUOUS
10
186.91
20
-131.43
11
187.31
21
-131.83
0
LINE
8
BLACK
6
CONTINUOUS
10
187.31
20
-131.43
11
186.91
21
-131.83
0
LINE
8
BLACK
6
CONTINUOUS
10
186.92
20
-129
11
187.32
21
-129.4
0
LINE
8
BLACK
6
CONTINUOUS
10
187.32
20
-129
11
186.92
21
-129.4
0
LINE
8
BLACK
6
CONTINUOUS
10
194.28
20
-138.266
11
194.68
21
-138.665
0
LINE
8
BLACK
6
CONTINUOUS
10
194.68
20
-138.266
11
194.28
21
-138.665
0
LINE
8
BLACK
6
CONTINUOUS
10
195.3
20
-139
11
195.7
21
-139.4
0
LINE
8
BLACK
6
CONTINUOUS
10
195.7
20
-139
11
195.3
21
-139.4
0
LINE
8
BLACK
6
CONTINUOUS
10
196.34
20
-139.8
11
196.74
21
-140.2
0
LINE
8
BLACK
6
CONTINUOUS
10
196.74
20
-139.8
11
196.34
21
-140.2
0
LINE
8
BLACK
6
CONTINUOUS
10
197.32
20
-138.22
11
197.72
21
-138.62
0
LINE
8
BLACK
6
CONTINUOUS
10
197.72
20
-138.22
11
197.32
21
-138.62
0
LINE
8
BLACK
6
CONTINUOUS
10
197.324
20
-140.534
11
197.724
21
-140.934
0
LINE
8
BLACK
6
CONTINUOUS
10
197.724
20
-140.534
11
197.324
21
-140.934
0
LINE
8
BLACK
6
CONTINUOUS
10
198.35
20
-138.21
11
198.75
21
-138.61
0
LINE
8
BLACK
6
CONTINUOUS
10
198.75
20
-138.21
11
198.35
21
-138.61
0
LINE
8
BLACK
6
CONTINUOUS
10
204.67
20
-128.92
11
205.07
21
-129.32
0
LINE
8
BLACK
6
CONTINUOUS
10
205.07
20
-128.92
11
204.67
21
-129.32
0
LINE
8
BLACK
6
CONTINUOUS
10
204.79
20
-131.45
11
205.19
21
-131.85
0
LINE
8
BLACK
6
CONTINUOUS
10
205.19
20
-131.45
11
204.79
21
-131.85
0
LINE
8
BLACK
6
CONTINUOUS
10
291.89
20
-128.95
11
292.29
21
-129.35
0
LINE
8
BLACK
6
CONTINUOUS
10
292.29
20
-128.95
11
291.89
21
-129.35
0
LINE
8
BLACK
6
CONTINUOUS
10
291.89
20
-131.64
11
292.29
21
-132.04
0
LINE
8
BLACK
6
CONTINUOUS
10
292.29
20
-131.64
11
291.89
21
-132.04
0
LINE
8
BLACK
6
CONTINUOUS
10
299.3
20
-138.365
11
299.7
21
-138.766
0
LINE
8
BLACK
6
CONTINUOUS
10
299.7
20
-138.365
11
299.3
21
-138.766
0
LINE
8
BLACK
6
CONTINUOUS
10
300.33
20
-139.09
11
300.73
21
-139.49
0
LINE
8
BLACK
6
CONTINUOUS
10
300.73
20
-139.09
11
300.33
21
-139.49
0
LINE
8
BLACK
6
CONTINUOUS
10
301.32
20
-139.9
11
301.72
21
-140.3
0
LINE
8
BLACK
6
CONTINUOUS
10
301.72
20
-139.9
11
301.32
21
-140.3
0
LINE
8
BLACK
6
CONTINUOUS
10
302.324
20
-140.635
11
302.724
21
-141.034
0
LINE
8
BLACK
6
CONTINUOUS
10
302.724
20
-140.635
11
302.324
21
-141.034
0
LINE
8
BLACK
6
CONTINUOUS
10
302.34
20
-138.2
11
302.74
21
-138.6
0
LINE
8
BLACK
6
CONTINUOUS
10
302.74
20
-138.2
11
302.34
21
-138.6
0
LINE
8
BLACK
6
CONTINUOUS
10
303.35
20
-138.19
11
303.75
21
-138.59
0
LINE
8
BLACK
6
CONTINUOUS
10
303.75
20
-138.19
11
303.35
21
-138.59
0
LINE
8
BLACK
6
CONTINUOUS
10
309.71
20
-128.92
11
310.11
21
-129.32
0
LINE
8
BLACK
6
CONTINUOUS
10
310.11
20
-128.92
11
309.71
21
-129.32
0
LINE
8
BLACK
6
CONTINUOUS
10
309.78
20
-131.51
11
310.18
21
-131.91
0
LINE
8
BLACK
6
CONTINUOUS
10
310.18
20
-131.51
11
309.78
21
-131.91
0
LINE
8
BLACK
6
CONTINUOUS
10
396.95
20
-129.07
11
397.35
21
-129.47
0
LINE
8
BLACK
6
CONTINUOUS
10
397.35
20
-129.07
11
396.95
21
-129.47
0
LINE
8
BLACK
6
CONTINUOUS
10
396.96
20
-131.48
11
397.36
21
-131.88
0
LINE
8
BLACK
6
CONTINUOUS
10
397.36
20
-131.48
11
396.96
21
-131.88
0
LINE
8
BLACK
6
CONTINUOUS
10
404.29
20
-138.266
11
404.69
21
-138.665
0
LINE
8
BLACK
6
CONTINUOUS
10
404.69
20
-138.266
11
404.29
21
-138.665
0
LINE
8
BLACK
6
CONTINUOUS
10
405.31
20
-139
11
405.71
21
-139.4
0
LINE
8
BLACK
6
CONTINUOUS
10
405.71
20
-139
11
405.31
21
-139.4
0
LINE
8
BLACK
6
CONTINUOUS
10
406.34
20
-139.8
11
406.74
21
-140.2
0
LINE
8
BLACK
6
CONTINUOUS
10
406.74
20
-139.8
11
406.34
21
-140.2
0
LINE
8
BLACK
6
CONTINUOUS
10
407.324
20
-140.534
11
407.724
21
-140.934
0
LINE
8
BLACK
6
CONTINUOUS
10
407.724
20
-140.534
11
407.324
21
-140.934
0
LINE
8
BLACK
6
CONTINUOUS
10
407.35
20
-138.23
11
407.75
21
-138.63
0
LINE
8
BLACK
6
CONTINUOUS
10
407.75
20
-138.23
11
407.35
21
-138.63
0
LINE
8
BLACK
6
CONTINUOUS
10
408.35
20
-138.22
11
408.75
21
-138.62
0
LINE
8
BLACK
6
CONTINUOUS
10
408.75
20
-138.22
11
408.35
21
-138.62
0
LINE
8
BLACK
6
CONTINUOUS
10
414.75
20
-128.93
11
415.15
21
-129.33
0
LINE
8
BLACK
6
CONTINUOUS
10
415.15
20
-128.93
11
414.75
21
-129.33
0
LINE
8
BLACK
6
CONTINUOUS
10
414.76
20
-131.53
11
415.16
21
-131.93
0
LINE
8
BLACK
6
CONTINUOUS
10
415.16
20
-131.53
11
414.76
21
-131.93
0
LINE
8
BLACK
6
CONTINUOUS
10
416.2
20
-137.7
11
416.6
21
-138.1
0
LINE
8
BLACK
6
CONTINUOUS
10
416.6
20
-137.7
11
416.2
21
-138.1
0
LINE
8
BLACK
6
CONTINUOUS
10
416.2
20
-139.5
11
416.6
21
-139.9
0
LINE
8
BLACK
6
CONTINUOUS
10
416.6
20
-139.5
11
416.2
21
-139.9
0
LINE
8
BLACK
6
CONTINUOUS
10
418.725
20
-141.625
11
419.125
21
-142.025
0
LINE
8
BLACK
6
CONTINUOUS
10
419.125
20
-141.625
11
418.725
21
-142.025
0
LINE
8
BLACK
6
CONTINUOUS
10
418.75
20
-143.3
11
419.15
21
-143.7
0
LINE
8
BLACK
6
CONTINUOUS
10
419.15
20
-143.3
11
418.75
21
-143.7
0
CIRCLE
8
BLACK
10
29.16
20
-134.9
40
0.5
0
CIRCLE
8
BLACK
10
29.16
20
-137.44
40
0.5
0
CIRCLE
8
BLACK
10
29.16
20
-139.98
40
0.5
0
CIRCLE
8
BLACK
10
29.16
20
-142.52
40
0.5
0
CIRCLE
8
BLACK
10
29.16
20
-145.06
40
0.5
0
CIRCLE
8
BLACK
10
31.7
20
-134.9
40
0.5
0
CIRCLE
8
BLACK
10
31.7
20
-137.44
40
0.5
0
CIRCLE
8
BLACK
10
31.7
20
-139.98
40
0.5
0
CIRCLE
8
BLACK
10
31.7
20
-142.52
40
0.5
0
CIRCLE
8
BLACK
10
31.7
20
-145.06
40
0.5
0
CIRCLE
8
BLACK
10
51.65
20
-151
40
0.5
0
LINE
8
BLACK
6
CONTINUOUS
10
51.15
20
-150.45
11
51.15
21
-151.55
0
ARC
8
BLACK
10
51.65
20
-151.55
40
0.5
50
180
51
360
0
LINE
8
BLACK
6
CONTINUOUS
10
52.15
20
-151.55
11
52.15
21
-150.45
0
ARC
8
BLACK
10
51.65
20
-150.45
40
0.5
50
0
51
180
0
CIRCLE
8
BLACK
10
55.35
20
-151
40
0.5
0
LINE
8
BLACK
6
CONTINUOUS
10
54.85
20
-150.45
11
54.85
21
-151.55
0
ARC
8
BLACK
10
55.35
20
-151.55
40
0.5
50
180
51
360
0
LINE
8
BLACK
6
CONTINUOUS
10
55.85
20
-151.55
11
55.85
21
-150.45
0
ARC
8
BLACK
10
55.35
20
-150.45
40
0.5
50
0
51
180
0
CIRCLE
8
BLACK
10
59.65
20
-151
40
0.5
0
LINE
8
BLACK
6
CONTINUOUS
10
59.15
20
-150.45
11
59.15
21
-151.55
0
ARC
8
BLACK
10
59.65
20
-151.55
40
0.5
50
180
51
360
0
LINE
8
BLACK
6
CONTINUOUS
10
60.15
20
-151.55
11
60.15
21
-150.45
0
ARC
8
BLACK
10
59.65
20
-150.45
40
0.5
50
0
51
180
0
CIRCLE
8
BLACK
10
63.35
20
-151
40
0.5
0
LINE
8
BLACK
6
CONTINUOUS
10
62.85
20
-150.45
11
62.85
21
-151.55
0
ARC
8
BLACK
10
63.35
20
-151.55
40
0.5
50
180
51
360
0
LINE
8
BLACK
6
CONTINUOUS
10
63.85
20
-151.55
11
63.85
21
-150.45
0
ARC
8
BLACK
10
63.35
20
-150.45
40
0.5
50
0
51
180
0
CIRCLE
8
BLACK
10
65.15
20
-131
40
0.5
0
LINE
8
BLACK
6
CONTINUOUS
10
64.65
20
-130.45
11
64.65
21
-131.55
0
ARC
8
BLACK
10
65.15
20
-131.55
40
0.5
50
180
51
360
0
LINE
8
BLACK
6
CONTINUOUS
10
65.65
20
-131.55
11
65.65
21
-130.45
0
ARC
8
BLACK
10
65.15
20
-130.45
40
0.5
50
0
51
180
0
CIRCLE
8
BLACK
10
68.85
20
-131
40
0.5
0
LINE
8
BLACK
6
CONTINUOUS
10
68.35
20
-130.45
11
68.35
21
-131.55
0
ARC
8
BLACK
10
68.85
20
-131.55
40
0.5
50
180
51
360
0
LINE
8
BLACK
6
CONTINUOUS
10
69.35
20
-131.55
11
69.35
21
-130.45
0
ARC
8
BLACK
10
68.85
20
-130.45
40
0.5
50
0
51
180
0
CIRCLE
8
BLACK
10
73.15
20
-131
40
0.5
0
LINE
8
BLACK
6
CONTINUOUS
10
72.65
20
-130.45
11
72.65
21
-131.55
0
ARC
8
BLACK
10
73.15
20
-131.55
40
0.5
50
180
51
360
0
LINE
8
BLACK
6
CONTINUOUS
10
73.65
20
-131.55
11
73.65
21
-130.45
0
ARC
8
BLACK
10
73.15
20
-130.45
40
0.5
50
0
51
180
0
CIRCLE
8
BLACK
10
76.85
20
-131
40
0.5
0
LINE
8
BLACK
6
CONTINUOUS
10
76.35
20
-130.45
11
76.35
21
-131.55
0
ARC
8
BLACK
10
76.85
20
-131.55
40
0.5
50
180
51
360
0
LINE
8
BLACK
6
CONTINUOUS
10
77.35
20
-131.55
11
77.35
21
-130.45
0
ARC
8
BLACK
10
76.85
20
-130.45
40
0.5
50
0
51
180
0
CIRCLE
8
BLACK
10
85.3
20
-146
40
0.5
0
LINE
8
BLACK
6
CONTINUOUS
10
84.8
20
-145.45
11
84.8
21
-146.55
0
ARC
8
BLACK
10
85.3
20
-146.55
40
0.5
50
180
51
360
0
LINE
8
BLACK
6
CONTINUOUS
10
85.8
20
-146.55
11
85.8
21
-145.45
0
ARC
8
BLACK
10
85.3
20
-145.45
40
0.5
50
0
51
180
0
CIRCLE
8
BLACK
10
89
20
-146
40
0.5
0
LINE
8
BLACK
6
CONTINUOUS
10
88.5
20
-145.45
11
88.5
21
-146.55
0
ARC
8
BLACK
10
89
20
-146.55
40
0.5
50
180
51
360
0
LINE
8
BLACK
6
CONTINUOUS
10
89.5
20
-146.55
11
89.5
21
-145.45
0
ARC
8
BLACK
10
89
20
-145.45
40
0.5
50
0
51
180
0
CIRCLE
8
BLACK
10
93.3
20
-146
40
0.5
0
LINE
8
BLACK
6
CONTINUOUS
10
92.8
20
-145.45
11
92.8
21
-146.55
0
ARC
8
BLACK
10
93.3
20
-146.55
40
0.5
50
180
51
360
0
LINE
8
BLACK
6
CONTINUOUS
10
93.8
20
-146.55
11
93.8
21
-145.45
0
ARC
8
BLACK
10
93.3
20
-145.45
40
0.5
50
0
51
180
0
CIRCLE
8
BLACK
10
97
20
-146
40
0.5
0
LINE
8
BLACK
6
CONTINUOUS
10
96.5
20
-145.45
11
96.5
21
-146.55
0
ARC
8
BLACK
10
97
20
-146.55
40
0.5
50
180
51
360
0
LINE
8
BLACK
6
CONTINUOUS
10
97.5
20
-146.55
11
97.5
21
-145.45
0
ARC
8
BLACK
10
97
20
-145.45
40
0.5
50
0
51
180
0
CIRCLE
8
BLACK
10
190.3
20
-146
40
0.5
0
LINE
8
BLACK
6
CONTINUOUS
10
189.8
20
-145.45
11
189.8
21
-146.55
0
ARC
8
BLACK
10
190.3
20
-146.55
40
0.5
50
180
51
360
0
LINE
8
BLACK
6
CONTINUOUS
10
190.8
20
-146.55
11
190.8
21
-145.45
0
ARC
8
BLACK
10
190.3
20
-145.45
40
0.5
50
0
51
180
0
CIRCLE
8
BLACK
10
194
20
-146
40
0.5
0
LINE
8
BLACK
6
CONTINUOUS
10
193.5
20
-145.45
11
193.5
21
-146.55
0
ARC
8
BLACK
10
194
20
-146.55
40
0.5
50
180
51
360
0
LINE
8
BLACK
6
CONTINUOUS
10
194.5
20
-146.55
11
194.5
21
-145.45
0
ARC
8
BLACK
10
194
20
-145.45
40
0.5
50
0
51
180
0
CIRCLE
8
BLACK
10
198.3
20
-146
40
0.5
0
LINE
8
BLACK
6
CONTINUOUS
10
197.8
20
-145.45
11
197.8
21
-146.55
0
ARC
8
BLACK
10
198.3
20
-146.55
40
0.5
50
180
51
360
0
LINE
8
BLACK
6
CONTINUOUS
10
198.8
20
-146.55
11
198.8
21
-145.45
0
ARC
8
BLACK
10
198.3
20
-145.45
40
0.5
50
0
51
180
0
CIRCLE
8
BLACK
10
202
20
-146
40
0.5
0
LINE
8
BLACK
6
CONTINUOUS
10
201.5
20
-145.45
11
201.5
21
-146.55
0
ARC
8
BLACK
10
202
20
-146.55
40
0.5
50
180
51
360
0
LINE
8
BLACK
6
CONTINUOUS
10
202.5
20
-146.55
11
202.5
21
-145.45
0
ARC
8
BLACK
10
202
20
-145.45
40
0.5
50
0
51
180
0
CIRCLE
8
BLACK
10
216.55
20
-139.5
40
0.5
0
LINE
8
BLACK
6
CONTINUOUS
10
216.05
20
-138.95
11
216.05
21
-140.05
0
ARC
8
BLACK
10
216.55
20
-140.05
40
0.5
50
180
51
360
0
LINE
8
BLACK
6
CONTINUOUS
10
217.05
20
-140.05
11
217.05
21
-138.95
0
ARC
8
BLACK
10
216.55
20
-138.95
40
0.5
50
0
51
180
0
CIRCLE
8
BLACK
10
220.25
20
-139.5
40
0.5
0
LINE
8
BLACK
6
CONTINUOUS
10
219.75
20
-138.95
11
219.75
21
-140.05
0
ARC
8
BLACK
10
220.25
20
-140.05
40
0.5
50
180
51
360
0
LINE
8
BLACK
6
CONTINUOUS
10
220.75
20
-140.05
11
220.75
21
-138.95
0
ARC
8
BLACK
10
220.25
20
-138.95
40
0.5
50
0
51
180
0
CIRCLE
8
BLACK
10
224.55
20
-139.5
40
0.5
0
LINE
8
BLACK
6
CONTINUOUS
10
224.05
20
-138.95
11
224.05
21
-140.05
0
ARC
8
BLACK
10
224.55
20
-140.05
40
0.5
50
180
51
360
0
LINE
8
BLACK
6
CONTINUOUS
10
225.05
20
-140.05
11
225.05
21
-138.95
0
ARC
8
BLACK
10
224.55
20
-138.95
40
0.5
50
0
51
180
0
CIRCLE
8
BLACK
10
228.25
20
-139.5
40
0.5
0
LINE
8
BLACK
6
CONTINUOUS
10
227.75
20
-138.95
11
227.75
21
-140.05
0
ARC
8
BLACK
10
228.25
20
-140.05
40
0.5
50
180
51
360
0
LINE
8
BLACK
6
CONTINUOUS
10
228.75
20
-140.05
11
228.75
21
-138.95
0
ARC
8
BLACK
10
228.25
20
-138.95
40
0.5
50
0
51
180
0
CIRCLE
8
BLACK
10
268.75
20
-139.5
40
0.5
0
LINE
8
BLACK
6
CONTINUOUS
10
268.25
20
-138.95
11
268.25
21
-140.05
0
ARC
8
BLACK
10
268.75
20
-140.05
40
0.5
50
180
51
360
0
LINE
8
BLACK
6
CONTINUOUS
10
269.25
20
-140.05
11
269.25
21
-138.95
0
ARC
8
BLACK
10
268.75
20
-138.95
40
0.5
50
0
51
180
0
CIRCLE
8
BLACK
10
272.45
20
-139.5
40
0.5
0
LINE
8
BLACK
6
CONTINUOUS
10
271.95
20
-138.95
11
271.95
21
-140.05
0
ARC
8
BLACK
10
272.45
20
-140.05
40
0.5
50
180
51
360
0
LINE
8
BLACK
6
CONTINUOUS
10
272.95
20
-140.05
11
272.95
21
-138.95
0
ARC
8
BLACK
10
272.45
20
-138.95
40
0.5
50
0
51
180
0
CIRCLE
8
BLACK
10
276.75
20
-139.5
40
0.5
0
LINE
8
BLACK
6
CONTINUOUS
10
276.25
20
-138.95
11
276.25
21
-140.05
0
ARC
8
BLACK
10
276.75
20
-140.05
40
0.5
50
180
51
360
0
LINE
8
BLACK
6
CONTINUOUS
10
277.25
20
-140.05
11
277.25
21
-138.95
0
ARC
8
BLACK
10
276.75
20
-138.95
40
0.5
50
0
51
180
0
CIRCLE
8
BLACK
10
280.45
20
-139.5
40
0.5
0
LINE
8
BLACK
6
CONTINUOUS
10
279.95
20
-138.95
11
279.95
21
-140.05
0
ARC
8
BLACK
10
280.45
20
-140.05
40
0.5
50
180
51
360
0
LINE
8
BLACK
6
CONTINUOUS
10
280.95
20
-140.05
11
280.95
21
-138.95
0
ARC
8
BLACK
10
280.45
20
-138.95
40
0.5
50
0
51
180
0
CIRCLE
8
BLACK
10
294.8
20
-146
40
0.5
0
LINE
8
BLACK
6
CONTINUOUS
10
294.3
20
-145.45
11
294.3
21
-146.55
0
ARC
8
BLACK
10
294.8
20
-146.55
40
0.5
50
180
51
360
0
LINE
8
BLACK
6
CONTINUOUS
10
295.3
20
-146.55
11
295.3
21
-145.45
0
ARC
8
BLACK
10
294.8
20
-145.45
40
0.5
50
0
51
180
0
CIRCLE
8
BLACK
10
298.5
20
-146
40
0.5
0
LINE
8
BLACK
6
CONTINUOUS
10
298
20
-145.45
11
298
21
-146.55
0
ARC
8
BLACK
10
298.5
20
-146.55
40
0.5
50
180
51
360
0
LINE
8
BLACK
6
CONTINUOUS
10
299
20
-146.55
11
299
21
-145.45
0
ARC
8
BLACK
10
298.5
20
-145.45
40
0.5
50
0
51
180
0
CIRCLE
8
BLACK
10
302.8
20
-146
40
0.5
0
LINE
8
BLACK
6
CONTINUOUS
10
302.3
20
-145.45
11
302.3
21
-146.55
0
ARC
8
BLACK
10
302.8
20
-146.55
40
0.5
50
180
51
360
0
LINE
8
BLACK
6
CONTINUOUS
10
303.3
20
-146.55
11
303.3
21
-145.45
0
ARC
8
BLACK
10
302.8
20
-145.45
40
0.5
50
0
51
180
0
CIRCLE
8
BLACK
10
306.5
20
-146
40
0.5
0
LINE
8
BLACK
6
CONTINUOUS
10
306
20
-145.45
11
306
21
-146.55
0
ARC
8
BLACK
10
306.5
20
-146.55
40
0.5
50
180
51
360
0
LINE
8
BLACK
6
CONTINUOUS
10
307
20
-146.55
11
307
21
-145.45
0
ARC
8
BLACK
10
306.5
20
-145.45
40
0.5
50
0
51
180
0
CIRCLE
8
BLACK
10
314.4
20
-139.6
40
0.5
0
LINE
8
BLACK
6
CONTINUOUS
10
313.9
20
-139.05
11
313.9
21
-140.15
0
ARC
8
BLACK
10
314.4
20
-140.15
40
0.5
50
180
51
360
0
LINE
8
BLACK
6
CONTINUOUS
10
314.9
20
-140.15
11
314.9
21
-139.05
0
ARC
8
BLACK
10
314.4
20
-139.05
40
0.5
50
0
51
180
0
CIRCLE
8
BLACK
10
318.1
20
-139.6
40
0.5
0
LINE
8
BLACK
6
CONTINUOUS
10
317.6
20
-139.05
11
317.6
21
-140.15
0
ARC
8
BLACK
10
318.1
20
-140.15
40
0.5
50
180
51
360
0
LINE
8
BLACK
6
CONTINUOUS
10
318.6
20
-140.15
11
318.6
21
-139.05
0
ARC
8
BLACK
10
318.1
20
-139.05
40
0.5
50
0
51
180
0
CIRCLE
8
BLACK
10
322.4
20
-139.6
40
0.5
0
LINE
8
BLACK
6
CONTINUOUS
10
321.9
20
-139.05
11
321.9
21
-140.15
0
ARC
8
BLACK
10
322.4
20
-140.15
40
0.5
50
180
51
360
0
LINE
8
BLACK
6
CONTINUOUS
10
322.9
20
-140.15
11
322.9
21
-139.05
0
ARC
8
BLACK
10
322.4
20
-139.05
40
0.5
50
0
51
180
0
CIRCLE
8
BLACK
10
326.1
20
-139.6
40
0.5
0
LINE
8
BLACK
6
CONTINUOUS
10
325.6
20
-139.05
11
325.6
21
-140.15
0
ARC
8
BLACK
10
326.1
20
-140.15
40
0.5
50
180
51
360
0
LINE
8
BLACK
6
CONTINUOUS
10
326.6
20
-140.15
11
326.6
21
-139.05
0
ARC
8
BLACK
10
326.1
20
-139.05
40
0.5
50
0
51
180
0
CIRCLE
8
BLACK
10
331.4
20
-139.6
40
0.5
0
LINE
8
BLACK
6
CONTINUOUS
10
330.9
20
-139.05
11
330.9
21
-140.15
0
ARC
8
BLACK
10
331.4
20
-140.15
40
0.5
50
180
51
360
0
LINE
8
BLACK
6
CONTINUOUS
10
331.9
20
-140.15
11
331.9
21
-139.05
0
ARC
8
BLACK
10
331.4
20
-139.05
40
0.5
50
0
51
180
0
CIRCLE
8
BLACK
10
335.1
20
-139.6
40
0.5
0
LINE
8
BLACK
6
CONTINUOUS
10
334.6
20
-139.05
11
334.6
21
-140.15
0
ARC
8
BLACK
10
335.1
20
-140.15
40
0.5
50
180
51
360
0
LINE
8
BLACK
6
CONTINUOUS
10
335.6
20
-140.15
11
335.6
21
-139.05
0
ARC
8
BLACK
10
335.1
20
-139.05
40
0.5
50
0
51
180
0
CIRCLE
8
BLACK
10
339.4
20
-139.6
40
0.5
0
LINE
8
BLACK
6
CONTINUOUS
10
338.9
20
-139.05
11
338.9
21
-140.15
0
ARC
8
BLACK
10
339.4
20
-140.15
40
0.5
50
180
51
360
0
LINE
8
BLACK
6
CONTINUOUS
10
339.9
20
-140.15
11
339.9
21
-139.05
0
ARC
8
BLACK
10
339.4
20
-139.05
40
0.5
50
0
51
180
0
CIRCLE
8
BLACK
10
343.1
20
-139.6
40
0.5
0
LINE
8
BLACK
6
CONTINUOUS
10
342.6
20
-139.05
11
342.6
21
-140.15
0
ARC
8
BLACK
10
343.1
20
-140.15
40
0.5
50
180
51
360
0
LINE
8
BLACK
6
CONTINUOUS
10
343.6
20
-140.15
11
343.6
21
-139.05
0
ARC
8
BLACK
10
343.1
20
-139.05
40
0.5
50
0
51
180
0
CIRCLE
8
BLACK
10
363.45
20
-139.8
40
0.5
0
LINE
8
BLACK
6
CONTINUOUS
10
362.95
20
-139.25
11
362.95
21
-140.35
0
ARC
8
BLACK
10
363.45
20
-140.35
40
0.5
50
180
51
360
0
LINE
8
BLACK
6
CONTINUOUS
10
363.95
20
-140.35
11
363.95
21
-139.25
0
ARC
8
BLACK
10
363.45
20
-139.25
40
0.5
50
0
51
180
0
CIRCLE
8
BLACK
10
367.15
20
-139.8
40
0.5
0
LINE
8
BLACK
6
CONTINUOUS
10
366.65
20
-139.25
11
366.65
21
-140.35
0
ARC
8
BLACK
10
367.15
20
-140.35
40
0.5
50
180
51
360
0
LINE
8
BLACK
6
CONTINUOUS
10
367.65
20
-140.35
11
367.65
21
-139.25
0
ARC
8
BLACK
10
367.15
20
-139.25
40
0.5
50
0
51
180
0
CIRCLE
8
BLACK
10
371.45
20
-139.8
40
0.5
0
LINE
8
BLACK
6
CONTINUOUS
10
370.95
20
-139.25
11
370.95
21
-140.35
0
ARC
8
BLACK
10
371.45
20
-140.35
40
0.5
50
180
51
360
0
LINE
8
BLACK
6
CONTINUOUS
10
371.95
20
-140.35
11
371.95
21
-139.25
0
ARC
8
BLACK
10
371.45
20
-139.25
40
0.5
50
0
51
180
0
CIRCLE
8
BLACK
10
375.15
20
-139.8
40
0.5
0
LINE
8
BLACK
6
CONTINUOUS
10
374.65
20
-139.25
11
374.65
21
-140.35
0
ARC
8
BLACK
10
375.15
20
-140.35
40
0.5
50
180
51
360
0
LINE
8
BLACK
6
CONTINUOUS
10
375.65
20
-140.35
11
375.65
21
-139.25
0
ARC
8
BLACK
10
375.15
20
-139.25
40
0.5
50
0
51
180
0
CIRCLE
8
BLACK
10
380.45
20
-139.8
40
0.5
0
LINE
8
BLACK
6
CONTINUOUS
10
379.95
20
-139.25
11
379.95
21
-140.35
0
ARC
8
BLACK
10
380.45
20
-140.35
40
0.5
50
180
51
360
0
LINE
8
BLACK
6
CONTINUOUS
10
380.95
20
-140.35
11
380.95
21
-139.25
0
ARC
8
BLACK
10
380.45
20
-139.25
40
0.5
50
0
51
180
0
CIRCLE
8
BLACK
10
384.15
20
-139.8
40
0.5
0
LINE
8
BLACK
6
CONTINUOUS
10
383.65
20
-139.25
11
383.65
21
-140.35
0
ARC
8
BLACK
10
384.15
20
-140.35
40
0.5
50
180
51
360
0
LINE
8
BLACK
6
CONTINUOUS
10
384.65
20
-140.35
11
384.65
21
-139.25
0
ARC
8
BLACK
10
384.15
20
-139.25
40
0.5
50
0
51
180
0
CIRCLE
8
BLACK
10
388.45
20
-139.8
40
0.5
0
LINE
8
BLACK
6
CONTINUOUS
10
387.95
20
-139.25
11
387.95
21
-140.35
0
ARC
8
BLACK
10
388.45
20
-140.35
40
0.5
50
180
51
360
0
LINE
8
BLACK
6
CONTINUOUS
10
388.95
20
-140.35
11
388.95
21
-139.25
0
ARC
8
BLACK
10
388.45
20
-139.25
40
0.5
50
0
51
180
0
CIRCLE
8
BLACK
10
392.15
20
-139.8
40
0.5
0
LINE
8
BLACK
6
CONTINUOUS
10
391.65
20
-139.25
11
391.65
21
-140.35
0
ARC
8
BLACK
10
392.15
20
-140.35
40
0.5
50
180
51
360
0
LINE
8
BLACK
6
CONTINUOUS
10
392.65
20
-140.35
11
392.65
21
-139.25
0
ARC
8
BLACK
10
392.15
20
-139.25
40
0.5
50
0
51
180
0
CIRCLE
8
BLACK
10
400.3
20
-146
40
0.5
0
LINE
8
BLACK
6
CONTINUOUS
10
399.8
20
-145.45
11
399.8
21
-146.55
0
ARC
8
BLACK
10
400.3
20
-146.55
40
0.5
50
180
51
360
0
LINE
8
BLACK
6
CONTINUOUS
10
400.8
20
-146.55
11
400.8
21
-145.45
0
ARC
8
BLACK
10
400.3
20
-145.45
40
0.5
50
0
51
180
0
CIRCLE
8
BLACK
10
404
20
-146
40
0.5
0
LINE
8
BLACK
6
CONTINUOUS
10
403.5
20
-145.45
11
403.5
21
-146.55
0
ARC
8
BLACK
10
404
20
-146.55
40
0.5
50
180
51
360
0
LINE
8
BLACK
6
CONTINUOUS
10
404.5
20
-146.55
11
404.5
21
-145.45
0
ARC
8
BLACK
10
404
20
-145.45
40
0.5
50
0
51
180
0
CIRCLE
8
BLACK
10
408.3
20
-146
40
0.5
0
LINE
8
BLACK
6
CONTINUOUS
10
407.8
20
-145.45
11
407.8
21
-146.55
0
ARC
8
BLACK
10
408.3
20
-146.55
40
0.5
50
180
51
360
0
LINE
8
BLACK
6
CONTINUOUS
10
408.8
20
-146.55
11
408.8
21
-145.45
0
ARC
8
BLACK
10
408.3
20
-145.45
40
0.5
50
0
51
180
0
CIRCLE
8
BLACK
10
412
20
-146
40
0.5
0
LINE
8
BLACK
6
CONTINUOUS
10
411.5
20
-145.45
11
411.5
21
-146.55
0
ARC
8
BLACK
10
412
20
-146.55
40
0.5
50
180
51
360
0
LINE
8
BLACK
6
CONTINUOUS
10
412.5
20
-146.55
11
412.5
21
-145.45
0
ARC
8
BLACK
10
412
20
-145.45
40
0.5
50
0
51
180
0
CIRCLE
8
BLACK
10
421
20
-135
40
0.5
0
CIRCLE
8
BLACK
10
421
20
-137.54
40
0.5
0
CIRCLE
8
BLACK
10
421
20
-140.08
40
0.5
0
CIRCLE
8
BLACK
10
421
20
-142.62
40
0.5
0
CIRCLE
8
BLACK
10
421
20
-145.16
40
0.5
0
CIRCLE
8
BLACK
10
423.54
20
-135
40
0.5
0
CIRCLE
8
BLACK
10
423.54
20
-137.54
40
0.5
0
CIRCLE
8
BLACK
10
423.54
20
-140.08
40
0.5
0
CIRCLE
8
BLACK
10
423.54
20
-142.62
40
0.5
0
CIRCLE
8
BLACK
10
423.54
20
-145.16
40
0.5
0
LINE
8
BLACK
6
CONTINUOUS
10
45.4325
20
-128.955
11
45.4325
21
-130.155
0
LINE
8
BLACK
6
CONTINUOUS
10
44.8325
20
-129.555
11
46.0325
21
-129.555
0
LINE
8
BLACK
6
CONTINUOUS
10
45.4325
20
-132.455
11
45.4325
21
-133.655
0
LINE
8
BLACK
6
CONTINUOUS
10
44.8325
20
-133.055
11
46.0325
21
-133.055
0
LINE
8
BLACK
6
CONTINUOUS
10
45.4325
20
-135.955
11
45.4325
21
-137.155
0
LINE
8
BLACK
6
CONTINUOUS
10
44.8325
20
-136.555
11
46.0325
21
-136.555
0
LINE
8
BLACK
6
CONTINUOUS
10
220.555
20
-143.968
11
220.555
21
-145.167
0
LINE
8
BLACK
6
CONTINUOUS
10
219.955
20
-144.567
11
221.155
21
-144.567
0
LINE
8
BLACK
6
CONTINUOUS
10
224.055
20
-143.968
11
224.055
21
-145.167
0
LINE
8
BLACK
6
CONTINUOUS
10
223.455
20
-144.567
11
224.655
21
-144.567
0
LINE
8
BLACK
6
CONTINUOUS
10
224.195
20
-133.9
11
224.195
21
-135.1
0
LINE
8
BLACK
6
CONTINUOUS
10
223.595
20
-134.5
11
224.795
21
-134.5
0
LINE
8
BLACK
6
CONTINUOUS
10
227.695
20
-133.9
11
227.695
21
-135.1
0
LINE
8
BLACK
6
CONTINUOUS
10
227.095
20
-134.5
11
228.295
21
-134.5
0
LINE
8
BLACK
6
CONTINUOUS
10
272.805
20
-143.968
11
272.805
21
-145.167
0
LINE
8
BLACK
6
CONTINUOUS
10
272.205
20
-144.567
11
273.405
21
-144.567
0
LINE
8
BLACK
6
CONTINUOUS
10
276.305
20
-143.968
11
276.305
21
-145.167
0
LINE
8
BLACK
6
CONTINUOUS
10
275.705
20
-144.567
11
276.905
21
-144.567
0
LINE
8
BLACK
6
CONTINUOUS
10
276.5
20
-133.933
11
276.5
21
-135.132
0
LINE
8
BLACK
6
CONTINUOUS
10
275.9
20
-134.532
11
277.1
21
-134.532
0
LINE
8
BLACK
6
CONTINUOUS
10
280
20
-133.933
11
280
21
-135.132
0
LINE
8
BLACK
6
CONTINUOUS
10
279.4
20
-134.532
11
280.6
21
-134.532
0
LINE
8
BLACK
6
CONTINUOUS
10
318.405
20
-144.035
11
318.405
21
-145.235
0
LINE
8
BLACK
6
CONTINUOUS
10
317.805
20
-144.635
11
319.005
21
-144.635
0
LINE
8
BLACK
6
CONTINUOUS
10
321.905
20
-144.035
11
321.905
21
-145.235
0
LINE
8
BLACK
6
CONTINUOUS
10
321.305
20
-144.635
11
322.505
21
-144.635
0
LINE
8
BLACK
6
CONTINUOUS
10
322.445
20
-134.032
11
322.445
21
-135.232
0
LINE
8
BLACK
6
CONTINUOUS
10
321.845
20
-134.632
11
323.045
21
-134.632
0
LINE
8
BLACK
6
CONTINUOUS
10
325.945
20
-134.032
11
325.945
21
-135.232
0
LINE
8
BLACK
6
CONTINUOUS
10
325.345
20
-134.632
11
326.545
21
-134.632
0
LINE
8
BLACK
6
CONTINUOUS
10
335.405
20
-144.035
11
335.405
21
-145.235
0
LINE
8
BLACK
6
CONTINUOUS
10
334.805
20
-144.635
11
336.005
21
-144.635
0
LINE
8
BLACK
6
CONTINUOUS
10
338.905
20
-144.035
11
338.905
21
-145.235
0
LINE
8
BLACK
6
CONTINUOUS
10
338.305
20
-144.635
11
339.505
21
-144.635
0
LINE
8
BLACK
6
CONTINUOUS
10
339.295
20
-134.032
11
339.295
21
-135.232
0
LINE
8
BLACK
6
CONTINUOUS
10
338.695
20
-134.632
11
339.895
21
-134.632
0
LINE
8
BLACK
6
CONTINUOUS
10
342.795
20
-134.032
11
342.795
21
-135.232
0
LINE
8
BLACK
6
CONTINUOUS
10
342.195
20
-134.632
11
343.395
21
-134.632
0
LINE
8
BLACK
6
CONTINUOUS
10
367.405
20
-144.267
11
367.405
21
-145.468
0
LINE
8
BLACK
6
CONTINUOUS
10
366.805
20
-144.868
11
368.005
21
-144.868
0
LINE
8
BLACK
6
CONTINUOUS
10
370.905
20
-144.267
11
370.905
21
-145.468
0
LINE
8
BLACK
6
CONTINUOUS
10
370.305
20
-144.868
11
371.505
21
-144.868
0
LINE
8
BLACK
6
CONTINUOUS
10
371.4
20
-134.2
11
371.4
21
-135.4
0
LINE
8
BLACK
6
CONTINUOUS
10
370.8
20
-134.8
11
372
21
-134.8
0
LINE
8
BLACK
6
CONTINUOUS
10
374.9
20
-134.2
11
374.9
21
-135.4
0
LINE
8
BLACK
6
CONTINUOUS
10
374.3
20
-134.8
11
375.5
21
-134.8
0
LINE
8
BLACK
6
CONTINUOUS
10
384.405
20
-144.267
11
384.405
21
-145.468
0
LINE
8
BLACK
6
CONTINUOUS
10
383.805
20
-144.868
11
385.005
21
-144.868
0
LINE
8
BLACK
6
CONTINUOUS
10
387.905
20
-144.267
11
387.905
21
-145.468
0
LINE
8
BLACK
6
CONTINUOUS
10
387.305
20
-144.868
11
388.505
21
-144.868
0
LINE
8
BLACK
6
CONTINUOUS
10
388.545
20
-134.183
11
388.545
21
-135.382
0
LINE
8
BLACK
6
CONTINUOUS
10
387.945
20
-134.782
11
389.145
21
-134.782
0
LINE
8
BLACK
6
CONTINUOUS
10
392.045
20
-134.183
11
392.045
21
-135.382
0
LINE
8
BLACK
6
CONTINUOUS
10
391.445
20
-134.782
11
392.645
21
-134.782
0
LINE
8
BLACK
6
CONTINUOUS
10
46.7725
20
-144.955
11
46.7725
21
-143.965
0
LINE
8
BLACK
6
CONTINUOUS
10
46.7725
20
-143.965
11
45.7825
21
-143.965
0
LINE
8
BLACK
6
CONTINUOUS
10
45.7825
20
-143.965
11
45.7825
21
-144.955
0
LINE
8
BLACK
6
CONTINUOUS
10
45.7825
20
-144.955
11
46.7725
21
-144.955
0
LINE
8
BLACK
6
CONTINUOUS
10
46.7725
20
-150.035
11
46.7725
21
-149.045
0
LINE
8
BLACK
6
CONTINUOUS
10
46.7725
20
-149.045
11
45.7825
21
-149.045
0
LINE
8
BLACK
6
CONTINUOUS
10
45.7825
20
-149.045
11
45.7825
21
-150.035
0
LINE
8
BLACK
6
CONTINUOUS
10
45.7825
20
-150.035
11
46.7725
21
-150.035
0
LINE
8
BLACK
6
CONTINUOUS
10
69.955
20
-137.217
11
69.955
21
-136.228
0
LINE
8
BLACK
6
CONTINUOUS
10
69.955
20
-136.228
11
68.965
21
-136.228
0
LINE
8
BLACK
6
CONTINUOUS
10
68.965
20
-136.228
11
68.965
21
-137.217
0
LINE
8
BLACK
6
CONTINUOUS
10
68.965
20
-137.217
11
69.955
21
-137.217
0
LINE
8
BLACK
6
CONTINUOUS
10
75.035
20
-137.217
11
75.035
21
-136.228
0
LINE
8
BLACK
6
CONTINUOUS
10
75.035
20
-136.228
11
74.045
21
-136.228
0
LINE
8
BLACK
6
CONTINUOUS
10
74.045
20
-136.228
11
74.045
21
-137.217
0
LINE
8
BLACK
6
CONTINUOUS
10
74.045
20
-137.217
11
75.035
21
-137.217
0
LINE
8
BLACK
6
CONTINUOUS
10
27.4262
20
-158.175
11
27.4262
21
-156.175
0
LINE
8
BLACK
6
CONTINUOUS
10
27.4262
20
-156.175
11
27.9024
21
-156.175
0
LINE
8
BLACK
6
CONTINUOUS
10
27.9024
20
-156.175
11
28.1881
21
-156.27
0
LINE
8
BLACK
6
CONTINUOUS
10
28.1881
20
-156.27
11
28.3786
21
-156.461
0
LINE
8
BLACK
6
CONTINUOUS
10
28.3786
20
-156.461
11
28.4738
21
-156.651
0
LINE
8
BLACK
6
CONTINUOUS
10
28.4738
20
-156.651
11
28.569
21
-157.032
0
LINE
8
BLACK
6
CONTINUOUS
10
28.569
20
-157.032
11
28.569
21
-157.318
0
LINE
8
BLACK
6
CONTINUOUS
10
28.569
20
-157.318
11
28.4738
21
-157.699
0
LINE
8
BLACK
6
CONTINUOUS
10
28.4738
20
-157.699
11
28.3786
21
-157.89
0
LINE
8
BLACK
6
CONTINUOUS
10
28.3786
20
-157.89
11
28.1881
21
-158.08
0
LINE
8
BLACK
6
CONTINUOUS
10
28.1881
20
-158.08
11
27.9024
21
-158.175
0
LINE
8
BLACK
6
CONTINUOUS
10
27.9024
20
-158.175
11
27.4262
21
-158.175
0
LINE
8
BLACK
6
CONTINUOUS
10
29.4262
20
-158.175
11
29.4262
21
-156.842
0
LINE
8
BLACK
6
CONTINUOUS
10
29.4262
20
-157.223
11
29.5214
21
-157.032
0
LINE
8
BLACK
6
CONTINUOUS
10
29.5214
20
-157.032
11
29.6167
21
-156.937
0
LINE
8
BLACK
6
CONTINUOUS
10
29.6167
20
-156.937
11
29.8071
21
-156.842
0
LINE
8
BLACK
6
CONTINUOUS
10
29.8071
20
-156.842
11
29.9976
21
-156.842
0
LINE
8
BLACK
6
CONTINUOUS
10
30.6643
20
-158.175
11
30.6643
21
-156.842
0
LINE
8
BLACK
6
CONTINUOUS
10
30.6643
20
-156.175
11
30.569
21
-156.27
0
LINE
8
BLACK
6
CONTINUOUS
10
30.569
20
-156.27
11
30.6643
21
-156.366
0
LINE
8
BLACK
6
CONTINUOUS
10
30.6643
20
-156.366
11
30.7595
21
-156.27
0
LINE
8
BLACK
6
CONTINUOUS
10
30.7595
20
-156.27
11
30.6643
21
-156.175
0
LINE
8
BLACK
6
CONTINUOUS
10
30.6643
20
-156.175
11
30.6643
21
-156.366
0
LINE
8
BLACK
6
CONTINUOUS
10
31.9024
20
-158.175
11
31.7119
21
-158.08
0
LINE
8
BLACK
6
CONTINUOUS
10
31.7119
20
-158.08
11
31.6167
21
-157.89
0
LINE
8
BLACK
6
CONTINUOUS
10
31.6167
20
-157.89
11
31.6167
21
-156.175
0
LINE
8
BLACK
6
CONTINUOUS
10
32.95
20
-158.175
11
32.7595
21
-158.08
0
LINE
8
BLACK
6
CONTINUOUS
10
32.7595
20
-158.08
11
32.6643
21
-157.89
0
LINE
8
BLACK
6
CONTINUOUS
10
32.6643
20
-157.89
11
32.6643
21
-156.175
0
LINE
8
BLACK
6
CONTINUOUS
10
35.2357
20
-158.175
11
35.2357
21
-156.175
0
LINE
8
BLACK
6
CONTINUOUS
10
35.2357
20
-156.175
11
35.9024
21
-157.604
0
LINE
8
BLACK
6
CONTINUOUS
10
35.9024
20
-157.604
11
36.569
21
-156.175
0
LINE
8
BLACK
6
CONTINUOUS
10
36.569
20
-156.175
11
36.569
21
-158.175
0
LINE
8
BLACK
6
CONTINUOUS
10
38.3786
20
-158.175
11
38.3786
21
-157.128
0
LINE
8
BLACK
6
CONTINUOUS
10
38.3786
20
-157.128
11
38.2833
21
-156.937
0
LINE
8
BLACK
6
CONTINUOUS
10
38.2833
20
-156.937
11
38.0929
21
-156.842
0
LINE
8
BLACK
6
CONTINUOUS
10
38.0929
20
-156.842
11
37.7119
21
-156.842
0
LINE
8
BLACK
6
CONTINUOUS
10
37.7119
20
-156.842
11
37.5214
21
-156.937
0
LINE
8
BLACK
6
CONTINUOUS
10
38.3786
20
-158.08
11
38.1881
21
-158.175
0
LINE
8
BLACK
6
CONTINUOUS
10
38.1881
20
-158.175
11
37.7119
21
-158.175
0
LINE
8
BLACK
6
CONTINUOUS
10
37.7119
20
-158.175
11
37.5214
21
-158.08
0
LINE
8
BLACK
6
CONTINUOUS
10
37.5214
20
-158.08
11
37.4262
21
-157.89
0
LINE
8
BLACK
6
CONTINUOUS
10
37.4262
20
-157.89
11
37.4262
21
-157.699
0
LINE
8
BLACK
6
CONTINUOUS
10
37.4262
20
-157.699
11
37.5214
21
-157.509
0
LINE
8
BLACK
6
CONTINUOUS
10
37.5214
20
-157.509
11
37.7119
21
-157.413
0
LINE
8
BLACK
6
CONTINUOUS
10
37.7119
20
-157.413
11
38.1881
21
-157.413
0
LINE
8
BLACK
6
CONTINUOUS
10
38.1881
20
-157.413
11
38.3786
21
-157.318
0
LINE
8
BLACK
6
CONTINUOUS
10
39.331
20
-156.842
11
39.331
21
-158.842
0
LINE
8
BLACK
6
CONTINUOUS
10
39.331
20
-156.937
11
39.5214
21
-156.842
0
LINE
8
BLACK
6
CONTINUOUS
10
39.5214
20
-156.842
11
39.9024
21
-156.842
0
LINE
8
BLACK
6
CONTINUOUS
10
39.9024
20
-156.842
11
40.0929
21
-156.937
0
LINE
8
BLACK
6
CONTINUOUS
10
40.0929
20
-156.937
11
40.1881
21
-157.032
0
LINE
8
BLACK
6
CONTINUOUS
10
40.1881
20
-157.032
11
40.2833
21
-157.223
0
LINE
8
BLACK
6
CONTINUOUS
10
40.2833
20
-157.223
11
40.2833
21
-157.794
0
LINE
8
BLACK
6
CONTINUOUS
10
40.2833
20
-157.794
11
40.1881
21
-157.985
0
LINE
8
BLACK
6
CONTINUOUS
10
40.1881
20
-157.985
11
40.0929
21
-158.08
0
LINE
8
BLACK
6
CONTINUOUS
10
40.0929
20
-158.08
11
39.9024
21
-158.175
0
LINE
8
BLACK
6
CONTINUOUS
10
39.9024
20
-158.175
11
39.5214
21
-158.175
0
LINE
8
BLACK
6
CONTINUOUS
10
39.5214
20
-158.175
11
39.331
21
-158.08
0
LINE
8
BLACK
6
CONTINUOUS
10
41.1405
20
-157.985
11
41.2357
21
-158.08
0
LINE
8
BLACK
6
CONTINUOUS
10
41.2357
20
-158.08
11
41.1405
21
-158.175
0
LINE
8
BLACK
6
CONTINUOUS
10
41.1405
20
-158.175
11
41.0452
21
-158.08
0
LINE
8
BLACK
6
CONTINUOUS
10
41.0452
20
-158.08
11
41.1405
21
-157.985
0
LINE
8
BLACK
6
CONTINUOUS
10
41.1405
20
-157.985
11
41.1405
21
-158.175
0
LINE
8
BLACK
6
CONTINUOUS
10
41.1405
20
-156.937
11
41.2357
21
-157.032
0
LINE
8
BLACK
6
CONTINUOUS
10
41.2357
20
-157.032
11
41.1405
21
-157.128
0
LINE
8
BLACK
6
CONTINUOUS
10
41.1405
20
-157.128
11
41.0452
21
-157.032
0
LINE
8
BLACK
6
CONTINUOUS
10
41.0452
20
-157.032
11
41.1405
21
-156.937
0
LINE
8
BLACK
6
CONTINUOUS
10
41.1405
20
-156.937
11
41.1405
21
-157.128
0
LINE
8
BLACK
6
CONTINUOUS
10
24.55
20
-161.25
11
24.95
21
-161.65
0
LINE
8
BLACK
6
CONTINUOUS
10
24.95
20
-161.25
11
24.55
21
-161.65
0
LINE
8
BLACK
6
CONTINUOUS
10
27.8071
20
-160.375
11
27.9976
21
-160.375
0
LINE
8
BLACK
6
CONTINUOUS
10
27.9976
20
-160.375
11
28.1881
21
-160.47
0
LINE
8
BLACK
6
CONTINUOUS
10
28.1881
20
-160.47
11
28.2833
21
-160.566
0
LINE
8
BLACK
6
CONTINUOUS
10
28.2833
20
-160.566
11
28.3786
21
-160.756
0
LINE
8
BLACK
6
CONTINUOUS
10
28.3786
20
-160.756
11
28.4738
21
-161.137
0
LINE
8
BLACK
6
CONTINUOUS
10
28.4738
20
-161.137
11
28.4738
21
-161.613
0
LINE
8
BLACK
6
CONTINUOUS
10
28.4738
20
-161.613
11
28.3786
21
-161.994
0
LINE
8
BLACK
6
CONTINUOUS
10
28.3786
20
-161.994
11
28.2833
21
-162.185
0
LINE
8
BLACK
6
CONTINUOUS
10
28.2833
20
-162.185
11
28.1881
21
-162.28
0
LINE
8
BLACK
6
CONTINUOUS
10
28.1881
20
-162.28
11
27.9976
21
-162.375
0
LINE
8
BLACK
6
CONTINUOUS
10
27.9976
20
-162.375
11
27.8071
21
-162.375
0
LINE
8
BLACK
6
CONTINUOUS
10
27.8071
20
-162.375
11
27.6167
21
-162.28
0
LINE
8
BLACK
6
CONTINUOUS
10
27.6167
20
-162.28
11
27.5214
21
-162.185
0
LINE
8
BLACK
6
CONTINUOUS
10
27.5214
20
-162.185
11
27.4262
21
-161.994
0
LINE
8
BLACK
6
CONTINUOUS
10
27.4262
20
-161.994
11
27.331
21
-161.613
0
LINE
8
BLACK
6
CONTINUOUS
10
27.331
20
-161.613
11
27.331
21
-161.137
0
LINE
8
BLACK
6
CONTINUOUS
10
27.331
20
-161.137
11
27.4262
21
-160.756
0
LINE
8
BLACK
6
CONTINUOUS
10
27.4262
20
-160.756
11
27.5214
21
-160.566
0
LINE
8
BLACK
6
CONTINUOUS
10
27.5214
20
-160.566
11
27.6167
21
-160.47
0
LINE
8
BLACK
6
CONTINUOUS
10
27.6167
20
-160.47
11
27.8071
21
-160.375
0
LINE
8
BLACK
6
CONTINUOUS
10
29.331
20
-162.185
11
29.4262
21
-162.28
0
LINE
8
BLACK
6
CONTINUOUS
10
29.4262
20
-162.28
11
29.331
21
-162.375
0
LINE
8
BLACK
6
CONTINUOUS
10
29.331
20
-162.375
11
29.2357
21
-162.28
0
LINE
8
BLACK
6
CONTINUOUS
10
29.2357
20
-162.28
11
29.331
21
-162.185
0
LINE
8
BLACK
6
CONTINUOUS
10
29.331
20
-162.185
11
29.331
21
-162.375
0
LINE
8
BLACK
6
CONTINUOUS
10
31.1405
20
-161.042
11
31.1405
21
-162.375
0
LINE
8
BLACK
6
CONTINUOUS
10
30.6643
20
-160.28
11
30.1881
21
-161.709
0
LINE
8
BLACK
6
CONTINUOUS
10
30.1881
20
-161.709
11
31.4262
21
-161.709
0
LINE
8
BLACK
6
CONTINUOUS
10
32.569
20
-160.375
11
32.7595
21
-160.375
0
LINE
8
BLACK
6
CONTINUOUS
10
32.7595
20
-160.375
11
32.95
21
-160.47
0
LINE
8
BLACK
6
CONTINUOUS
10
32.95
20
-160.47
11
33.0452
21
-160.566
0
LINE
8
BLACK
6
CONTINUOUS
10
33.0452
20
-160.566
11
33.1405
21
-160.756
0
LINE
8
BLACK
6
CONTINUOUS
10
33.1405
20
-160.756
11
33.2357
21
-161.137
0
LINE
8
BLACK
6
CONTINUOUS
10
33.2357
20
-161.137
11
33.2357
21
-161.613
0
LINE
8
BLACK
6
CONTINUOUS
10
33.2357
20
-161.613
11
33.1405
21
-161.994
0
LINE
8
BLACK
6
CONTINUOUS
10
33.1405
20
-161.994
11
33.0452
21
-162.185
0
LINE
8
BLACK
6
CONTINUOUS
10
33.0452
20
-162.185
11
32.95
21
-162.28
0
LINE
8
BLACK
6
CONTINUOUS
10
32.95
20
-162.28
11
32.7595
21
-162.375
0
LINE
8
BLACK
6
CONTINUOUS
10
32.7595
20
-162.375
11
32.569
21
-162.375
0
LINE
8
BLACK
6
CONTINUOUS
10
32.569
20
-162.375
11
32.3786
21
-162.28
0
LINE
8
BLACK
6
CONTINUOUS
10
32.3786
20
-162.28
11
32.2833
21
-162.185
0
LINE
8
BLACK
6
CONTINUOUS
10
32.2833
20
-162.185
11
32.1881
21
-161.994
0
LINE
8
BLACK
6
CONTINUOUS
10
32.1881
20
-161.994
11
32.0929
21
-161.613
0
LINE
8
BLACK
6
CONTINUOUS
10
32.0929
20
-161.613
11
32.0929
21
-161.137
0
LINE
8
BLACK
6
CONTINUOUS
10
32.0929
20
-161.137
11
32.1881
21
-160.756
0
LINE
8
BLACK
6
CONTINUOUS
10
32.1881
20
-160.756
11
32.2833
21
-160.566
0
LINE
8
BLACK
6
CONTINUOUS
10
32.2833
20
-160.566
11
32.3786
21
-160.47
0
LINE
8
BLACK
6
CONTINUOUS
10
32.3786
20
-160.47
11
32.569
21
-160.375
0
LINE
8
BLACK
6
CONTINUOUS
10
34.4738
20
-160.375
11
34.6643
21
-160.375
0
LINE
8
BLACK
6
CONTINUOUS
10
34.6643
20
-160.375
11
34.8548
21
-160.47
0
LINE
8
BLACK
6
CONTINUOUS
10
34.8548
20
-160.47
11
34.95
21
-160.566
0
LINE
8
BLACK
6
CONTINUOUS
10
34.95
20
-160.566
11
35.0452
21
-160.756
0
LINE
8
BLACK
6
CONTINUOUS
10
35.0452
20
-160.756
11
35.1405
21
-161.137
0
LINE
8
BLACK
6
CONTINUOUS
10
35.1405
20
-161.137
11
35.1405
21
-161.613
0
LINE
8
BLACK
6
CONTINUOUS
10
35.1405
20
-161.613
11
35.0452
21
-161.994
0
LINE
8
BLACK
6
CONTINUOUS
10
35.0452
20
-161.994
11
34.95
21
-162.185
0
LINE
8
BLACK
6
CONTINUOUS
10
34.95
20
-162.185
11
34.8548
21
-162.28
0
LINE
8
BLACK
6
CONTINUOUS
10
34.8548
20
-162.28
11
34.6643
21
-162.375
0
LINE
8
BLACK
6
CONTINUOUS
10
34.6643
20
-162.375
11
34.4738
21
-162.375
0
LINE
8
BLACK
6
CONTINUOUS
10
34.4738
20
-162.375
11
34.2833
21
-162.28
0
LINE
8
BLACK
6
CONTINUOUS
10
34.2833
20
-162.28
11
34.1881
21
-162.185
0
LINE
8
BLACK
6
CONTINUOUS
10
34.1881
20
-162.185
11
34.0929
21
-161.994
0
LINE
8
BLACK
6
CONTINUOUS
10
34.0929
20
-161.994
11
33.9976
21
-161.613
0
LINE
8
BLACK
6
CONTINUOUS
10
33.9976
20
-161.613
11
33.9976
21
-161.137
0
LINE
8
BLACK
6
CONTINUOUS
10
33.9976
20
-161.137
11
34.0929
21
-160.756
0
LINE
8
BLACK
6
CONTINUOUS
10
34.0929
20
-160.756
11
34.1881
21
-160.566
0
LINE
8
BLACK
6
CONTINUOUS
10
34.1881
20
-160.566
11
34.2833
21
-160.47
0
LINE
8
BLACK
6
CONTINUOUS
10
34.2833
20
-160.47
11
34.4738
21
-160.375
0
LINE
8
BLACK
6
CONTINUOUS
10
35.9976
20
-162.375
11
35.9976
21
-161.042
0
LINE
8
BLACK
6
CONTINUOUS
10
35.9976
20
-161.232
11
36.0929
21
-161.137
0
LINE
8
BLACK
6
CONTINUOUS
10
36.0929
20
-161.137
11
36.2833
21
-161.042
0
LINE
8
BLACK
6
CONTINUOUS
10
36.2833
20
-161.042
11
36.569
21
-161.042
0
LINE
8
BLACK
6
CONTINUOUS
10
36.569
20
-161.042
11
36.7595
21
-161.137
0
LINE
8
BLACK
6
CONTINUOUS
10
36.7595
20
-161.137
11
36.8548
21
-161.328
0
LINE
8
BLACK
6
CONTINUOUS
10
36.8548
20
-161.328
11
36.8548
21
-162.375
0
LINE
8
BLACK
6
CONTINUOUS
10
36.8548
20
-161.328
11
36.95
21
-161.137
0
LINE
8
BLACK
6
CONTINUOUS
10
36.95
20
-161.137
11
37.1405
21
-161.042
0
LINE
8
BLACK
6
CONTINUOUS
10
37.1405
20
-161.042
11
37.4262
21
-161.042
0
LINE
8
BLACK
6
CONTINUOUS
10
37.4262
20
-161.042
11
37.6167
21
-161.137
0
LINE
8
BLACK
6
CONTINUOUS
10
37.6167
20
-161.137
11
37.7119
21
-161.328
0
LINE
8
BLACK
6
CONTINUOUS
10
37.7119
20
-161.328
11
37.7119
21
-162.375
0
LINE
8
BLACK
6
CONTINUOUS
10
38.6643
20
-162.375
11
38.6643
21
-161.042
0
LINE
8
BLACK
6
CONTINUOUS
10
38.6643
20
-161.232
11
38.7595
21
-161.137
0
LINE
8
BLACK
6
CONTINUOUS
10
38.7595
20
-161.137
11
38.95
21
-161.042
0
LINE
8
BLACK
6
CONTINUOUS
10
38.95
20
-161.042
11
39.2357
21
-161.042
0
LINE
8
BLACK
6
CONTINUOUS
10
39.2357
20
-161.042
11
39.4262
21
-161.137
0
LINE
8
BLACK
6
CONTINUOUS
10
39.4262
20
-161.137
11
39.5214
21
-161.328
0
LINE
8
BLACK
6
CONTINUOUS
10
39.5214
20
-161.328
11
39.5214
21
-162.375
0
LINE
8
BLACK
6
CONTINUOUS
10
39.5214
20
-161.328
11
39.6167
21
-161.137
0
LINE
8
BLACK
6
CONTINUOUS
10
39.6167
20
-161.137
11
39.8071
21
-161.042
0
LINE
8
BLACK
6
CONTINUOUS
10
39.8071
20
-161.042
11
40.0929
21
-161.042
0
LINE
8
BLACK
6
CONTINUOUS
10
40.0929
20
-161.042
11
40.2833
21
-161.137
0
LINE
8
BLACK
6
CONTINUOUS
10
40.2833
20
-161.137
11
40.3786
21
-161.328
0
LINE
8
BLACK
6
CONTINUOUS
10
40.3786
20
-161.328
11
40.3786
21
-162.375
0
LINE
8
BLACK
6
CONTINUOUS
10
44.2833
20
-160.28
11
42.569
21
-162.851
0
LINE
8
BLACK
6
CONTINUOUS
10
46.8548
20
-160.375
11
47.0452
21
-160.375
0
LINE
8
BLACK
6
CONTINUOUS
10
47.0452
20
-160.375
11
47.2357
21
-160.47
0
LINE
8
BLACK
6
CONTINUOUS
10
47.2357
20
-160.47
11
47.331
21
-160.566
0
LINE
8
BLACK
6
CONTINUOUS
10
47.331
20
-160.566
11
47.4262
21
-160.756
0
LINE
8
BLACK
6
CONTINUOUS
10
47.4262
20
-160.756
11
47.5214
21
-161.137
0
LINE
8
BLACK
6
CONTINUOUS
10
47.5214
20
-161.137
11
47.5214
21
-161.613
0
LINE
8
BLACK
6
CONTINUOUS
10
47.5214
20
-161.613
11
47.4262
21
-161.994
0
LINE
8
BLACK
6
CONTINUOUS
10
47.4262
20
-161.994
11
47.331
21
-162.185
0
LINE
8
BLACK
6
CONTINUOUS
10
47.331
20
-162.185
11
47.2357
21
-162.28
0
LINE
8
BLACK
6
CONTINUOUS
10
47.2357
20
-162.28
11
47.0452
21
-162.375
0
LINE
8
BLACK
6
CONTINUOUS
10
47.0452
20
-162.375
11
46.8548
21
-162.375
0
LINE
8
BLACK
6
CONTINUOUS
10
46.8548
20
-162.375
11
46.6643
21
-162.28
0
LINE
8
BLACK
6
CONTINUOUS
10
46.6643
20
-162.28
11
46.569
21
-162.185
0
LINE
8
BLACK
6
CONTINUOUS
10
46.569
20
-162.185
11
46.4738
21
-161.994
0
LINE
8
BLACK
6
CONTINUOUS
10
46.4738
20
-161.994
11
46.3786
21
-161.613
0
LINE
8
BLACK
6
CONTINUOUS
10
46.3786
20
-161.613
11
46.3786
21
-161.137
0
LINE
8
BLACK
6
CONTINUOUS
10
46.3786
20
-161.137
11
46.4738
21
-160.756
0
LINE
8
BLACK
6
CONTINUOUS
10
46.4738
20
-160.756
11
46.569
21
-160.566
0
LINE
8
BLACK
6
CONTINUOUS
10
46.569
20
-160.566
11
46.6643
21
-160.47
0
LINE
8
BLACK
6
CONTINUOUS
10
46.6643
20
-160.47
11
46.8548
21
-160.375
0
LINE
8
BLACK
6
CONTINUOUS
10
48.3786
20
-162.185
11
48.4738
21
-162.28
0
LINE
8
BLACK
6
CONTINUOUS
10
48.4738
20
-162.28
11
48.3786
21
-162.375
0
LINE
8
BLACK
6
CONTINUOUS
10
48.3786
20
-162.375
11
48.2833
21
-162.28
0
LINE
8
BLACK
6
CONTINUOUS
10
48.2833
20
-162.28
11
48.3786
21
-162.185
0
LINE
8
BLACK
6
CONTINUOUS
10
48.3786
20
-162.185
11
48.3786
21
-162.375
0
LINE
8
BLACK
6
CONTINUOUS
10
49.7119
20
-160.375
11
49.9024
21
-160.375
0
LINE
8
BLACK
6
CONTINUOUS
10
49.9024
20
-160.375
11
50.0929
21
-160.47
0
LINE
8
BLACK
6
CONTINUOUS
10
50.0929
20
-160.47
11
50.1881
21
-160.566
0
LINE
8
BLACK
6
CONTINUOUS
10
50.1881
20
-160.566
11
50.2833
21
-160.756
0
LINE
8
BLACK
6
CONTINUOUS
10
50.2833
20
-160.756
11
50.3786
21
-161.137
0
LINE
8
BLACK
6
CONTINUOUS
10
50.3786
20
-161.137
11
50.3786
21
-161.613
0
LINE
8
BLACK
6
CONTINUOUS
10
50.3786
20
-161.613
11
50.2833
21
-161.994
0
LINE
8
BLACK
6
CONTINUOUS
10
50.2833
20
-161.994
11
50.1881
21
-162.185
0
LINE
8
BLACK
6
CONTINUOUS
10
50.1881
20
-162.185
11
50.0929
21
-162.28
0
LINE
8
BLACK
6
CONTINUOUS
10
50.0929
20
-162.28
11
49.9024
21
-162.375
0
LINE
8
BLACK
6
CONTINUOUS
10
49.9024
20
-162.375
11
49.7119
21
-162.375
0
LINE
8
BLACK
6
CONTINUOUS
10
49.7119
20
-162.375
11
49.5214
21
-162.28
0
LINE
8
BLACK
6
CONTINUOUS
10
49.5214
20
-162.28
11
49.4262
21
-162.185
0
LINE
8
BLACK
6
CONTINUOUS
10
49.4262
20
-162.185
11
49.331
21
-161.994
0
LINE
8
BLACK
6
CONTINUOUS
10
49.331
20
-161.994
11
49.2357
21
-161.613
0
LINE
8
BLACK
6
CONTINUOUS
10
49.2357
20
-161.613
11
49.2357
21
-161.137
0
LINE
8
BLACK
6
CONTINUOUS
10
49.2357
20
-161.137
11
49.331
21
-160.756
0
LINE
8
BLACK
6
CONTINUOUS
10
49.331
20
-160.756
11
49.4262
21
-160.566
0
LINE
8
BLACK
6
CONTINUOUS
10
49.4262
20
-160.566
11
49.5214
21
-160.47
0
LINE
8
BLACK
6
CONTINUOUS
10
49.5214
20
-160.47
11
49.7119
21
-160.375
0
LINE
8
BLACK
6
CONTINUOUS
10
52.2833
20
-162.375
11
51.1405
21
-162.375
0
LINE
8
BLACK
6
CONTINUOUS
10
51.7119
20
-162.375
11
51.7119
21
-160.375
0
LINE
8
BLACK
6
CONTINUOUS
10
51.7119
20
-160.375
11
51.5214
21
-160.661
0
LINE
8
BLACK
6
CONTINUOUS
10
51.5214
20
-160.661
11
51.331
21
-160.851
0
LINE
8
BLACK
6
CONTINUOUS
10
51.331
20
-160.851
11
51.1405
21
-160.947
0
LINE
8
BLACK
6
CONTINUOUS
10
54.0929
20
-160.375
11
53.1405
21
-160.375
0
LINE
8
BLACK
6
CONTINUOUS
10
53.1405
20
-160.375
11
53.0452
21
-161.328
0
LINE
8
BLACK
6
CONTINUOUS
10
53.0452
20
-161.328
11
53.1405
21
-161.232
0
LINE
8
BLACK
6
CONTINUOUS
10
53.1405
20
-161.232
11
53.331
21
-161.137
0
LINE
8
BLACK
6
CONTINUOUS
10
53.331
20
-161.137
11
53.8071
21
-161.137
0
LINE
8
BLACK
6
CONTINUOUS
10
53.8071
20
-161.137
11
53.9976
21
-161.232
0
LINE
8
BLACK
6
CONTINUOUS
10
53.9976
20
-161.232
11
54.0929
21
-161.328
0
LINE
8
BLACK
6
CONTINUOUS
10
54.0929
20
-161.328
11
54.1881
21
-161.518
0
LINE
8
BLACK
6
CONTINUOUS
10
54.1881
20
-161.518
11
54.1881
21
-161.994
0
LINE
8
BLACK
6
CONTINUOUS
10
54.1881
20
-161.994
11
54.0929
21
-162.185
0
LINE
8
BLACK
6
CONTINUOUS
10
54.0929
20
-162.185
11
53.9976
21
-162.28
0
LINE
8
BLACK
6
CONTINUOUS
10
53.9976
20
-162.28
11
53.8071
21
-162.375
0
LINE
8
BLACK
6
CONTINUOUS
10
53.8071
20
-162.375
11
53.331
21
-162.375
0
LINE
8
BLACK
6
CONTINUOUS
10
53.331
20
-162.375
11
53.1405
21
-162.28
0
LINE
8
BLACK
6
CONTINUOUS
10
53.1405
20
-162.28
11
53.0452
21
-162.185
0
LINE
8
BLACK
6
CONTINUOUS
10
54.8548
20
-160.375
11
56.1881
21
-160.375
0
LINE
8
BLACK
6
CONTINUOUS
10
56.1881
20
-160.375
11
55.331
21
-162.375
0
LINE
8
BLACK
6
CONTINUOUS
10
56.8548
20
-160.375
11
56.8548
21
-160.756
0
LINE
8
BLACK
6
CONTINUOUS
10
57.6167
20
-160.375
11
57.6167
21
-160.756
0
LINE
8
BLACK
6
CONTINUOUS
10
60.5691
20
-163.137
11
60.4738
21
-163.042
0
LINE
8
BLACK
6
CONTINUOUS
10
60.4738
20
-163.042
11
60.2833
21
-162.756
0
LINE
8
BLACK
6
CONTINUOUS
10
60.2833
20
-162.756
11
60.1881
21
-162.566
0
LINE
8
BLACK
6
CONTINUOUS
10
60.1881
20
-162.566
11
60.0929
21
-162.28
0
LINE
8
BLACK
6
CONTINUOUS
10
60.0929
20
-162.28
11
59.9976
21
-161.804
0
LINE
8
BLACK
6
CONTINUOUS
10
59.9976
20
-161.804
11
59.9976
21
-161.423
0
LINE
8
BLACK
6
CONTINUOUS
10
59.9976
20
-161.423
11
60.0929
21
-160.947
0
LINE
8
BLACK
6
CONTINUOUS
10
60.0929
20
-160.947
11
60.1881
21
-160.661
0
LINE
8
BLACK
6
CONTINUOUS
10
60.1881
20
-160.661
11
60.2833
21
-160.47
0
LINE
8
BLACK
6
CONTINUOUS
10
60.2833
20
-160.47
11
60.4738
21
-160.185
0
LINE
8
BLACK
6
CONTINUOUS
10
60.4738
20
-160.185
11
60.5691
21
-160.09
0
LINE
8
BLACK
6
CONTINUOUS
10
62.1881
20
-161.042
11
62.1881
21
-162.375
0
LINE
8
BLACK
6
CONTINUOUS
10
61.7119
20
-160.28
11
61.2357
21
-161.709
0
LINE
8
BLACK
6
CONTINUOUS
10
61.2357
20
-161.709
11
62.4738
21
-161.709
0
LINE
8
BLACK
6
CONTINUOUS
10
64.0929
20
-161.042
11
64.0929
21
-162.375
0
LINE
8
BLACK
6
CONTINUOUS
10
63.6167
20
-160.28
11
63.1405
21
-161.709
0
LINE
8
BLACK
6
CONTINUOUS
10
63.1405
20
-161.709
11
64.3786
21
-161.709
0
LINE
8
BLACK
6
CONTINUOUS
10
66.6643
20
-162.375
11
66.6643
21
-160.375
0
LINE
8
BLACK
6
CONTINUOUS
10
67.5214
20
-162.375
11
67.5214
21
-161.328
0
LINE
8
BLACK
6
CONTINUOUS
10
67.5214
20
-161.328
11
67.4262
21
-161.137
0
LINE
8
BLACK
6
CONTINUOUS
10
67.4262
20
-161.137
11
67.2357
21
-161.042
0
LINE
8
BLACK
6
CONTINUOUS
10
67.2357
20
-161.042
11
66.95
21
-161.042
0
LINE
8
BLACK
6
CONTINUOUS
10
66.95
20
-161.042
11
66.7595
21
-161.137
0
LINE
8
BLACK
6
CONTINUOUS
10
66.7595
20
-161.137
11
66.6643
21
-161.232
0
LINE
8
BLACK
6
CONTINUOUS
10
68.7595
20
-162.375
11
68.5691
21
-162.28
0
LINE
8
BLACK
6
CONTINUOUS
10
68.5691
20
-162.28
11
68.4738
21
-162.185
0
LINE
8
BLACK
6
CONTINUOUS
10
68.4738
20
-162.185
11
68.3786
21
-161.994
0
LINE
8
BLACK
6
CONTINUOUS
10
68.3786
20
-161.994
11
68.3786
21
-161.423
0
LINE
8
BLACK
6
CONTINUOUS
10
68.3786
20
-161.423
11
68.4738
21
-161.232
0
LINE
8
BLACK
6
CONTINUOUS
10
68.4738
20
-161.232
11
68.5691
21
-161.137
0
LINE
8
BLACK
6
CONTINUOUS
10
68.5691
20
-161.137
11
68.7595
21
-161.042
0
LINE
8
BLACK
6
CONTINUOUS
10
68.7595
20
-161.042
11
69.0452
21
-161.042
0
LINE
8
BLACK
6
CONTINUOUS
10
69.0452
20
-161.042
11
69.2357
21
-161.137
0
LINE
8
BLACK
6
CONTINUOUS
10
69.2357
20
-161.137
11
69.331
21
-161.232
0
LINE
8
BLACK
6
CONTINUOUS
10
69.331
20
-161.232
11
69.4262
21
-161.423
0
LINE
8
BLACK
6
CONTINUOUS
10
69.4262
20
-161.423
11
69.4262
21
-161.994
0
LINE
8
BLACK
6
CONTINUOUS
10
69.4262
20
-161.994
11
69.331
21
-162.185
0
LINE
8
BLACK
6
CONTINUOUS
10
69.331
20
-162.185
11
69.2357
21
-162.28
0
LINE
8
BLACK
6
CONTINUOUS
10
69.2357
20
-162.28
11
69.0452
21
-162.375
0
LINE
8
BLACK
6
CONTINUOUS
10
69.0452
20
-162.375
11
68.7595
21
-162.375
0
LINE
8
BLACK
6
CONTINUOUS
10
70.5691
20
-162.375
11
70.3786
21
-162.28
0
LINE
8
BLACK
6
CONTINUOUS
10
70.3786
20
-162.28
11
70.2833
21
-162.09
0
LINE
8
BLACK
6
CONTINUOUS
10
70.2833
20
-162.09
11
70.2833
21
-160.375
0
LINE
8
BLACK
6
CONTINUOUS
10
72.0929
20
-162.28
11
71.9024
21
-162.375
0
LINE
8
BLACK
6
CONTINUOUS
10
71.9024
20
-162.375
11
71.5214
21
-162.375
0
LINE
8
BLACK
6
CONTINUOUS
10
71.5214
20
-162.375
11
71.331
21
-162.28
0
LINE
8
BLACK
6
CONTINUOUS
10
71.331
20
-162.28
11
71.2357
21
-162.09
0
LINE
8
BLACK
6
CONTINUOUS
10
71.2357
20
-162.09
11
71.2357
21
-161.328
0
LINE
8
BLACK
6
CONTINUOUS
10
71.2357
20
-161.328
11
71.331
21
-161.137
0
LINE
8
BLACK
6
CONTINUOUS
10
71.331
20
-161.137
11
71.5214
21
-161.042
0
LINE
8
BLACK
6
CONTINUOUS
10
71.5214
20
-161.042
11
71.9024
21
-161.042
0
LINE
8
BLACK
6
CONTINUOUS
10
71.9024
20
-161.042
11
72.0929
21
-161.137
0
LINE
8
BLACK
6
CONTINUOUS
10
72.0929
20
-161.137
11
72.1881
21
-161.328
0
LINE
8
BLACK
6
CONTINUOUS
10
72.1881
20
-161.328
11
72.1881
21
-161.518
0
LINE
8
BLACK
6
CONTINUOUS
10
72.1881
20
-161.518
11
71.2357
21
-161.709
0
LINE
8
BLACK
6
CONTINUOUS
10
72.95
20
-162.28
11
73.1405
21
-162.375
0
LINE
8
BLACK
6
CONTINUOUS
10
73.1405
20
-162.375
11
73.5214
21
-162.375
0
LINE
8
BLACK
6
CONTINUOUS
10
73.5214
20
-162.375
11
73.7119
21
-162.28
0
LINE
8
BLACK
6
CONTINUOUS
10
73.7119
20
-162.28
11
73.8071
21
-162.09
0
LINE
8
BLACK
6
CONTINUOUS
10
73.8071
20
-162.09
11
73.8071
21
-161.994
0
LINE
8
BLACK
6
CONTINUOUS
10
73.8071
20
-161.994
11
73.7119
21
-161.804
0
LINE
8
BLACK
6
CONTINUOUS
10
73.7119
20
-161.804
11
73.5214
21
-161.709
0
LINE
8
BLACK
6
CONTINUOUS
10
73.5214
20
-161.709
11
73.2357
21
-161.709
0
LINE
8
BLACK
6
CONTINUOUS
10
73.2357
20
-161.709
11
73.0452
21
-161.613
0
LINE
8
BLACK
6
CONTINUOUS
10
73.0452
20
-161.613
11
72.95
21
-161.423
0
LINE
8
BLACK
6
CONTINUOUS
10
72.95
20
-161.423
11
72.95
21
-161.328
0
LINE
8
BLACK
6
CONTINUOUS
10
72.95
20
-161.328
11
73.0452
21
-161.137
0
LINE
8
BLACK
6
CONTINUOUS
10
73.0452
20
-161.137
11
73.2357
21
-161.042
0
LINE
8
BLACK
6
CONTINUOUS
10
73.2357
20
-161.042
11
73.5214
21
-161.042
0
LINE
8
BLACK
6
CONTINUOUS
10
73.5214
20
-161.042
11
73.7119
21
-161.137
0
LINE
8
BLACK
6
CONTINUOUS
10
74.4738
20
-163.137
11
74.5691
21
-163.042
0
LINE
8
BLACK
6
CONTINUOUS
10
74.5691
20
-163.042
11
74.7595
21
-162.756
0
LINE
8
BLACK
6
CONTINUOUS
10
74.7595
20
-162.756
11
74.8548
21
-162.566
0
LINE
8
BLACK
6
CONTINUOUS
10
74.8548
20
-162.566
11
74.95
21
-162.28
0
LINE
8
BLACK
6
CONTINUOUS
10
74.95
20
-162.28
11
75.0452
21
-161.804
0
LINE
8
BLACK
6
CONTINUOUS
10
75.0452
20
-161.804
11
75.0452
21
-161.423
0
LINE
8
BLACK
6
CONTINUOUS
10
75.0452
20
-161.423
11
74.95
21
-160.947
0
LINE
8
BLACK
6
CONTINUOUS
10
74.95
20
-160.947
11
74.8548
21
-160.661
0
LINE
8
BLACK
6
CONTINUOUS
10
74.8548
20
-160.661
11
74.7595
21
-160.47
0
LINE
8
BLACK
6
CONTINUOUS
10
74.7595
20
-160.47
11
74.5691
21
-160.185
0
LINE
8
BLACK
6
CONTINUOUS
10
74.5691
20
-160.185
11
74.4738
21
-160.09
0
CIRCLE
8
BLACK
10
24.45
20
-164.09
40
0.5
0
LINE
8
BLACK
6
CONTINUOUS
10
28.4738
20
-165.015
11
27.331
21
-165.015
0
LINE
8
BLACK
6
CONTINUOUS
10
27.9024
20
-165.015
11
27.9024
21
-163.015
0
LINE
8
BLACK
6
CONTINUOUS
10
27.9024
20
-163.015
11
27.7119
21
-163.301
0
LINE
8
BLACK
6
CONTINUOUS
10
27.7119
20
-163.301
11
27.5214
21
-163.491
0
LINE
8
BLACK
6
CONTINUOUS
10
27.5214
20
-163.491
11
27.331
21
-163.587
0
LINE
8
BLACK
6
CONTINUOUS
10
29.331
20
-164.825
11
29.4262
21
-164.92
0
LINE
8
BLACK
6
CONTINUOUS
10
29.4262
20
-164.92
11
29.331
21
-165.015
0
LINE
8
BLACK
6
CONTINUOUS
10
29.331
20
-165.015
11
29.2357
21
-164.92
0
LINE
8
BLACK
6
CONTINUOUS
10
29.2357
20
-164.92
11
29.331
21
-164.825
0
LINE
8
BLACK
6
CONTINUOUS
10
29.331
20
-164.825
11
29.331
21
-165.015
0
LINE
8
BLACK
6
CONTINUOUS
10
30.6643
20
-163.015
11
30.8548
21
-163.015
0
LINE
8
BLACK
6
CONTINUOUS
10
30.8548
20
-163.015
11
31.0452
21
-163.11
0
LINE
8
BLACK
6
CONTINUOUS
10
31.0452
20
-163.11
11
31.1405
21
-163.206
0
LINE
8
BLACK
6
CONTINUOUS
10
31.1405
20
-163.206
11
31.2357
21
-163.396
0
LINE
8
BLACK
6
CONTINUOUS
10
31.2357
20
-163.396
11
31.331
21
-163.777
0
LINE
8
BLACK
6
CONTINUOUS
10
31.331
20
-163.777
11
31.331
21
-164.253
0
LINE
8
BLACK
6
CONTINUOUS
10
31.331
20
-164.253
11
31.2357
21
-164.634
0
LINE
8
BLACK
6
CONTINUOUS
10
31.2357
20
-164.634
11
31.1405
21
-164.825
0
LINE
8
BLACK
6
CONTINUOUS
10
31.1405
20
-164.825
11
31.0452
21
-164.92
0
LINE
8
BLACK
6
CONTINUOUS
10
31.0452
20
-164.92
11
30.8548
21
-165.015
0
LINE
8
BLACK
6
CONTINUOUS
10
30.8548
20
-165.015
11
30.6643
21
-165.015
0
LINE
8
BLACK
6
CONTINUOUS
10
30.6643
20
-165.015
11
30.4738
21
-164.92
0
LINE
8
BLACK
6
CONTINUOUS
10
30.4738
20
-164.92
11
30.3786
21
-164.825
0
LINE
8
BLACK
6
CONTINUOUS
10
30.3786
20
-164.825
11
30.2833
21
-164.634
0
LINE
8
BLACK
6
CONTINUOUS
10
30.2833
20
-164.634
11
30.1881
21
-164.253
0
LINE
8
BLACK
6
CONTINUOUS
10
30.1881
20
-164.253
11
30.1881
21
-163.777
0
LINE
8
BLACK
6
CONTINUOUS
10
30.1881
20
-163.777
11
30.2833
21
-163.396
0
LINE
8
BLACK
6
CONTINUOUS
10
30.2833
20
-163.396
11
30.3786
21
-163.206
0
LINE
8
BLACK
6
CONTINUOUS
10
30.3786
20
-163.206
11
30.4738
21
-163.11
0
LINE
8
BLACK
6
CONTINUOUS
10
30.4738
20
-163.11
11
30.6643
21
-163.015
0
LINE
8
BLACK
6
CONTINUOUS
10
32.569
20
-163.015
11
32.7595
21
-163.015
0
LINE
8
BLACK
6
CONTINUOUS
10
32.7595
20
-163.015
11
32.95
21
-163.11
0
LINE
8
BLACK
6
CONTINUOUS
10
32.95
20
-163.11
11
33.0452
21
-163.206
0
LINE
8
BLACK
6
CONTINUOUS
10
33.0452
20
-163.206
11
33.1405
21
-163.396
0
LINE
8
BLACK
6
CONTINUOUS
10
33.1405
20
-163.396
11
33.2357
21
-163.777
0
LINE
8
BLACK
6
CONTINUOUS
10
33.2357
20
-163.777
11
33.2357
21
-164.253
0
LINE
8
BLACK
6
CONTINUOUS
10
33.2357
20
-164.253
11
33.1405
21
-164.634
0
LINE
8
BLACK
6
CONTINUOUS
10
33.1405
20
-164.634
11
33.0452
21
-164.825
0
LINE
8
BLACK
6
CONTINUOUS
10
33.0452
20
-164.825
11
32.95
21
-164.92
0
LINE
8
BLACK
6
CONTINUOUS
10
32.95
20
-164.92
11
32.7595
21
-165.015
0
LINE
8
BLACK
6
CONTINUOUS
10
32.7595
20
-165.015
11
32.569
21
-165.015
0
LINE
8
BLACK
6
CONTINUOUS
10
32.569
20
-165.015
11
32.3786
21
-164.92
0
LINE
8
BLACK
6
CONTINUOUS
10
32.3786
20
-164.92
11
32.2833
21
-164.825
0
LINE
8
BLACK
6
CONTINUOUS
10
32.2833
20
-164.825
11
32.1881
21
-164.634
0
LINE
8
BLACK
6
CONTINUOUS
10
32.1881
20
-164.634
11
32.0929
21
-164.253
0
LINE
8
BLACK
6
CONTINUOUS
10
32.0929
20
-164.253
11
32.0929
21
-163.777
0
LINE
8
BLACK
6
CONTINUOUS
10
32.0929
20
-163.777
11
32.1881
21
-163.396
0
LINE
8
BLACK
6
CONTINUOUS
10
32.1881
20
-163.396
11
32.2833
21
-163.206
0
LINE
8
BLACK
6
CONTINUOUS
10
32.2833
20
-163.206
11
32.3786
21
-163.11
0
LINE
8
BLACK
6
CONTINUOUS
10
32.3786
20
-163.11
11
32.569
21
-163.015
0
LINE
8
BLACK
6
CONTINUOUS
10
34.4738
20
-163.015
11
34.6643
21
-163.015
0
LINE
8
BLACK
6
CONTINUOUS
10
34.6643
20
-163.015
11
34.8548
21
-163.11
0
LINE
8
BLACK
6
CONTINUOUS
10
34.8548
20
-163.11
11
34.95
21
-163.206
0
LINE
8
BLACK
6
CONTINUOUS
10
34.95
20
-163.206
11
35.0452
21
-163.396
0
LINE
8
BLACK
6
CONTINUOUS
10
35.0452
20
-163.396
11
35.1405
21
-163.777
0
LINE
8
BLACK
6
CONTINUOUS
10
35.1405
20
-163.777
11
35.1405
21
-164.253
0
LINE
8
BLACK
6
CONTINUOUS
10
35.1405
20
-164.253
11
35.0452
21
-164.634
0
LINE
8
BLACK
6
CONTINUOUS
10
35.0452
20
-164.634
11
34.95
21
-164.825
0
LINE
8
BLACK
6
CONTINUOUS
10
34.95
20
-164.825
11
34.8548
21
-164.92
0
LINE
8
BLACK
6
CONTINUOUS
10
34.8548
20
-164.92
11
34.6643
21
-165.015
0
LINE
8
BLACK
6
CONTINUOUS
10
34.6643
20
-165.015
11
34.4738
21
-165.015
0
LINE
8
BLACK
6
CONTINUOUS
10
34.4738
20
-165.015
11
34.2833
21
-164.92
0
LINE
8
BLACK
6
CONTINUOUS
10
34.2833
20
-164.92
11
34.1881
21
-164.825
0
LINE
8
BLACK
6
CONTINUOUS
10
34.1881
20
-164.825
11
34.0929
21
-164.634
0
LINE
8
BLACK
6
CONTINUOUS
10
34.0929
20
-164.634
11
33.9976
21
-164.253
0
LINE
8
BLACK
6
CONTINUOUS
10
33.9976
20
-164.253
11
33.9976
21
-163.777
0
LINE
8
BLACK
6
CONTINUOUS
10
33.9976
20
-163.777
11
34.0929
21
-163.396
0
LINE
8
BLACK
6
CONTINUOUS
10
34.0929
20
-163.396
11
34.1881
21
-163.206
0
LINE
8
BLACK
6
CONTINUOUS
10
34.1881
20
-163.206
11
34.2833
21
-163.11
0
LINE
8
BLACK
6
CONTINUOUS
10
34.2833
20
-163.11
11
34.4738
21
-163.015
0
LINE
8
BLACK
6
CONTINUOUS
10
35.9976
20
-165.015
11
35.9976
21
-163.682
0
LINE
8
BLACK
6
CONTINUOUS
10
35.9976
20
-163.872
11
36.0929
21
-163.777
0
LINE
8
BLACK
6
CONTINUOUS
10
36.0929
20
-163.777
11
36.2833
21
-163.682
0
LINE
8
BLACK
6
CONTINUOUS
10
36.2833
20
-163.682
11
36.569
21
-163.682
0
LINE
8
BLACK
6
CONTINUOUS
10
36.569
20
-163.682
11
36.7595
21
-163.777
0
LINE
8
BLACK
6
CONTINUOUS
10
36.7595
20
-163.777
11
36.8548
21
-163.968
0
LINE
8
BLACK
6
CONTINUOUS
10
36.8548
20
-163.968
11
36.8548
21
-165.015
0
LINE
8
BLACK
6
CONTINUOUS
10
36.8548
20
-163.968
11
36.95
21
-163.777
0
LINE
8
BLACK
6
CONTINUOUS
10
36.95
20
-163.777
11
37.1405
21
-163.682
0
LINE
8
BLACK
6
CONTINUOUS
10
37.1405
20
-163.682
11
37.4262
21
-163.682
0
LINE
8
BLACK
6
CONTINUOUS
10
37.4262
20
-163.682
11
37.6167
21
-163.777
0
LINE
8
BLACK
6
CONTINUOUS
10
37.6167
20
-163.777
11
37.7119
21
-163.968
0
LINE
8
BLACK
6
CONTINUOUS
10
37.7119
20
-163.968
11
37.7119
21
-165.015
0
LINE
8
BLACK
6
CONTINUOUS
10
38.6643
20
-165.015
11
38.6643
21
-163.682
0
LINE
8
BLACK
6
CONTINUOUS
10
38.6643
20
-163.872
11
38.7595
21
-163.777
0
LINE
8
BLACK
6
CONTINUOUS
10
38.7595
20
-163.777
11
38.95
21
-163.682
0
LINE
8
BLACK
6
CONTINUOUS
10
38.95
20
-163.682
11
39.2357
21
-163.682
0
LINE
8
BLACK
6
CONTINUOUS
10
39.2357
20
-163.682
11
39.4262
21
-163.777
0
LINE
8
BLACK
6
CONTINUOUS
10
39.4262
20
-163.777
11
39.5214
21
-163.968
0
LINE
8
BLACK
6
CONTINUOUS
10
39.5214
20
-163.968
11
39.5214
21
-165.015
0
LINE
8
BLACK
6
CONTINUOUS
10
39.5214
20
-163.968
11
39.6167
21
-163.777
0
LINE
8
BLACK
6
CONTINUOUS
10
39.6167
20
-163.777
11
39.8071
21
-163.682
0
LINE
8
BLACK
6
CONTINUOUS
10
39.8071
20
-163.682
11
40.0929
21
-163.682
0
LINE
8
BLACK
6
CONTINUOUS
10
40.0929
20
-163.682
11
40.2833
21
-163.777
0
LINE
8
BLACK
6
CONTINUOUS
10
40.2833
20
-163.777
11
40.3786
21
-163.968
0
LINE
8
BLACK
6
CONTINUOUS
10
40.3786
20
-163.968
11
40.3786
21
-165.015
0
LINE
8
BLACK
6
CONTINUOUS
10
44.2833
20
-162.92
11
42.569
21
-165.491
0
LINE
8
BLACK
6
CONTINUOUS
10
46.8548
20
-163.015
11
47.0452
21
-163.015
0
LINE
8
BLACK
6
CONTINUOUS
10
47.0452
20
-163.015
11
47.2357
21
-163.11
0
LINE
8
BLACK
6
CONTINUOUS
10
47.2357
20
-163.11
11
47.331
21
-163.206
0
LINE
8
BLACK
6
CONTINUOUS
10
47.331
20
-163.206
11
47.4262
21
-163.396
0
LINE
8
BLACK
6
CONTINUOUS
10
47.4262
20
-163.396
11
47.5214
21
-163.777
0
LINE
8
BLACK
6
CONTINUOUS
10
47.5214
20
-163.777
11
47.5214
21
-164.253
0
LINE
8
BLACK
6
CONTINUOUS
10
47.5214
20
-164.253
11
47.4262
21
-164.634
0
LINE
8
BLACK
6
CONTINUOUS
10
47.4262
20
-164.634
11
47.331
21
-164.825
0
LINE
8
BLACK
6
CONTINUOUS
10
47.331
20
-164.825
11
47.2357
21
-164.92
0
LINE
8
BLACK
6
CONTINUOUS
10
47.2357
20
-164.92
11
47.0452
21
-165.015
0
LINE
8
BLACK
6
CONTINUOUS
10
47.0452
20
-165.015
11
46.8548
21
-165.015
0
LINE
8
BLACK
6
CONTINUOUS
10
46.8548
20
-165.015
11
46.6643
21
-164.92
0
LINE
8
BLACK
6
CONTINUOUS
10
46.6643
20
-164.92
11
46.569
21
-164.825
0
LINE
8
BLACK
6
CONTINUOUS
10
46.569
20
-164.825
11
46.4738
21
-164.634
0
LINE
8
BLACK
6
CONTINUOUS
10
46.4738
20
-164.634
11
46.3786
21
-164.253
0
LINE
8
BLACK
6
CONTINUOUS
10
46.3786
20
-164.253
11
46.3786
21
-163.777
0
LINE
8
BLACK
6
CONTINUOUS
10
46.3786
20
-163.777
11
46.4738
21
-163.396
0
LINE
8
BLACK
6
CONTINUOUS
10
46.4738
20
-163.396
11
46.569
21
-163.206
0
LINE
8
BLACK
6
CONTINUOUS
10
46.569
20
-163.206
11
46.6643
21
-163.11
0
LINE
8
BLACK
6
CONTINUOUS
10
46.6643
20
-163.11
11
46.8548
21
-163.015
0
LINE
8
BLACK
6
CONTINUOUS
10
48.3786
20
-164.825
11
48.4738
21
-164.92
0
LINE
8
BLACK
6
CONTINUOUS
10
48.4738
20
-164.92
11
48.3786
21
-165.015
0
LINE
8
BLACK
6
CONTINUOUS
10
48.3786
20
-165.015
11
48.2833
21
-164.92
0
LINE
8
BLACK
6
CONTINUOUS
10
48.2833
20
-164.92
11
48.3786
21
-164.825
0
LINE
8
BLACK
6
CONTINUOUS
10
48.3786
20
-164.825
11
48.3786
21
-165.015
0
LINE
8
BLACK
6
CONTINUOUS
10
49.7119
20
-163.015
11
49.9024
21
-163.015
0
LINE
8
BLACK
6
CONTINUOUS
10
49.9024
20
-163.015
11
50.0929
21
-163.11
0
LINE
8
BLACK
6
CONTINUOUS
10
50.0929
20
-163.11
11
50.1881
21
-163.206
0
LINE
8
BLACK
6
CONTINUOUS
10
50.1881
20
-163.206
11
50.2833
21
-163.396
0
LINE
8
BLACK
6
CONTINUOUS
10
50.2833
20
-163.396
11
50.3786
21
-163.777
0
LINE
8
BLACK
6
CONTINUOUS
10
50.3786
20
-163.777
11
50.3786
21
-164.253
0
LINE
8
BLACK
6
CONTINUOUS
10
50.3786
20
-164.253
11
50.2833
21
-164.634
0
LINE
8
BLACK
6
CONTINUOUS
10
50.2833
20
-164.634
11
50.1881
21
-164.825
0
LINE
8
BLACK
6
CONTINUOUS
10
50.1881
20
-164.825
11
50.0929
21
-164.92
0
LINE
8
BLACK
6
CONTINUOUS
10
50.0929
20
-164.92
11
49.9024
21
-165.015
0
LINE
8
BLACK
6
CONTINUOUS
10
49.9024
20
-165.015
11
49.7119
21
-165.015
0
LINE
8
BLACK
6
CONTINUOUS
10
49.7119
20
-165.015
11
49.5214
21
-164.92
0
LINE
8
BLACK
6
CONTINUOUS
10
49.5214
20
-164.92
11
49.4262
21
-164.825
0
LINE
8
BLACK
6
CONTINUOUS
10
49.4262
20
-164.825
11
49.331
21
-164.634
0
LINE
8
BLACK
6
CONTINUOUS
10
49.331
20
-164.634
11
49.2357
21
-164.253
0
LINE
8
BLACK
6
CONTINUOUS
10
49.2357
20
-164.253
11
49.2357
21
-163.777
0
LINE
8
BLACK
6
CONTINUOUS
10
49.2357
20
-163.777
11
49.331
21
-163.396
0
LINE
8
BLACK
6
CONTINUOUS
10
49.331
20
-163.396
11
49.4262
21
-163.206
0
LINE
8
BLACK
6
CONTINUOUS
10
49.4262
20
-163.206
11
49.5214
21
-163.11
0
LINE
8
BLACK
6
CONTINUOUS
10
49.5214
20
-163.11
11
49.7119
21
-163.015
0
LINE
8
BLACK
6
CONTINUOUS
10
51.0452
20
-163.015
11
52.2833
21
-163.015
0
LINE
8
BLACK
6
CONTINUOUS
10
52.2833
20
-163.015
11
51.6167
21
-163.777
0
LINE
8
BLACK
6
CONTINUOUS
10
51.6167
20
-163.777
11
51.9024
21
-163.777
0
LINE
8
BLACK
6
CONTINUOUS
10
51.9024
20
-163.777
11
52.0929
21
-163.872
0
LINE
8
BLACK
6
CONTINUOUS
10
52.0929
20
-163.872
11
52.1881
21
-163.968
0
LINE
8
BLACK
6
CONTINUOUS
10
52.1881
20
-163.968
11
52.2833
21
-164.158
0
LINE
8
BLACK
6
CONTINUOUS
10
52.2833
20
-164.158
11
52.2833
21
-164.634
0
LINE
8
BLACK
6
CONTINUOUS
10
52.2833
20
-164.634
11
52.1881
21
-164.825
0
LINE
8
BLACK
6
CONTINUOUS
10
52.1881
20
-164.825
11
52.0929
21
-164.92
0
LINE
8
BLACK
6
CONTINUOUS
10
52.0929
20
-164.92
11
51.9024
21
-165.015
0
LINE
8
BLACK
6
CONTINUOUS
10
51.9024
20
-165.015
11
51.331
21
-165.015
0
LINE
8
BLACK
6
CONTINUOUS
10
51.331
20
-165.015
11
51.1405
21
-164.92
0
LINE
8
BLACK
6
CONTINUOUS
10
51.1405
20
-164.92
11
51.0452
21
-164.825
0
LINE
8
BLACK
6
CONTINUOUS
10
53.2357
20
-165.015
11
53.6167
21
-165.015
0
LINE
8
BLACK
6
CONTINUOUS
10
53.6167
20
-165.015
11
53.8071
21
-164.92
0
LINE
8
BLACK
6
CONTINUOUS
10
53.8071
20
-164.92
11
53.9024
21
-164.825
0
LINE
8
BLACK
6
CONTINUOUS
10
53.9024
20
-164.825
11
54.0929
21
-164.539
0
LINE
8
BLACK
6
CONTINUOUS
10
54.0929
20
-164.539
11
54.1881
21
-164.158
0
LINE
8
BLACK
6
CONTINUOUS
10
54.1881
20
-164.158
11
54.1881
21
-163.396
0
LINE
8
BLACK
6
CONTINUOUS
10
54.1881
20
-163.396
11
54.0929
21
-163.206
0
LINE
8
BLACK
6
CONTINUOUS
10
54.0929
20
-163.206
11
53.9976
21
-163.11
0
LINE
8
BLACK
6
CONTINUOUS
10
53.9976
20
-163.11
11
53.8071
21
-163.015
0
LINE
8
BLACK
6
CONTINUOUS
10
53.8071
20
-163.015
11
53.4262
21
-163.015
0
LINE
8
BLACK
6
CONTINUOUS
10
53.4262
20
-163.015
11
53.2357
21
-163.11
0
LINE
8
BLACK
6
CONTINUOUS
10
53.2357
20
-163.11
11
53.1405
21
-163.206
0
LINE
8
BLACK
6
CONTINUOUS
10
53.1405
20
-163.206
11
53.0452
21
-163.396
0
LINE
8
BLACK
6
CONTINUOUS
10
53.0452
20
-163.396
11
53.0452
21
-163.872
0
LINE
8
BLACK
6
CONTINUOUS
10
53.0452
20
-163.872
11
53.1405
21
-164.063
0
LINE
8
BLACK
6
CONTINUOUS
10
53.1405
20
-164.063
11
53.2357
21
-164.158
0
LINE
8
BLACK
6
CONTINUOUS
10
53.2357
20
-164.158
11
53.4262
21
-164.253
0
LINE
8
BLACK
6
CONTINUOUS
10
53.4262
20
-164.253
11
53.8071
21
-164.253
0
LINE
8
BLACK
6
CONTINUOUS
10
53.8071
20
-164.253
11
53.9976
21
-164.158
0
LINE
8
BLACK
6
CONTINUOUS
10
53.9976
20
-164.158
11
54.0929
21
-164.063
0
LINE
8
BLACK
6
CONTINUOUS
10
54.0929
20
-164.063
11
54.1881
21
-163.872
0
LINE
8
BLACK
6
CONTINUOUS
10
55.9024
20
-163.682
11
55.9024
21
-165.015
0
LINE
8
BLACK
6
CONTINUOUS
10
55.4262
20
-162.92
11
54.95
21
-164.349
0
LINE
8
BLACK
6
CONTINUOUS
10
54.95
20
-164.349
11
56.1881
21
-164.349
0
LINE
8
BLACK
6
CONTINUOUS
10
56.8548
20
-163.015
11
56.8548
21
-163.396
0
LINE
8
BLACK
6
CONTINUOUS
10
57.6167
20
-163.015
11
57.6167
21
-163.396
0
LINE
8
BLACK
6
CONTINUOUS
10
60.5691
20
-165.777
11
60.4738
21
-165.682
0
LINE
8
BLACK
6
CONTINUOUS
10
60.4738
20
-165.682
11
60.2833
21
-165.396
0
LINE
8
BLACK
6
CONTINUOUS
10
60.2833
20
-165.396
11
60.1881
21
-165.206
0
LINE
8
BLACK
6
CONTINUOUS
10
60.1881
20
-165.206
11
60.0929
21
-164.92
0
LINE
8
BLACK
6
CONTINUOUS
10
60.0929
20
-164.92
11
59.9976
21
-164.444
0
LINE
8
BLACK
6
CONTINUOUS
10
59.9976
20
-164.444
11
59.9976
21
-164.063
0
LINE
8
BLACK
6
CONTINUOUS
10
59.9976
20
-164.063
11
60.0929
21
-163.587
0
LINE
8
BLACK
6
CONTINUOUS
10
60.0929
20
-163.587
11
60.1881
21
-163.301
0
LINE
8
BLACK
6
CONTINUOUS
10
60.1881
20
-163.301
11
60.2833
21
-163.11
0
LINE
8
BLACK
6
CONTINUOUS
10
60.2833
20
-163.11
11
60.4738
21
-162.825
0
LINE
8
BLACK
6
CONTINUOUS
10
60.4738
20
-162.825
11
60.5691
21
-162.73
0
LINE
8
BLACK
6
CONTINUOUS
10
61.2357
20
-163.206
11
61.331
21
-163.11
0
LINE
8
BLACK
6
CONTINUOUS
10
61.331
20
-163.11
11
61.5214
21
-163.015
0
LINE
8
BLACK
6
CONTINUOUS
10
61.5214
20
-163.015
11
61.9976
21
-163.015
0
LINE
8
BLACK
6
CONTINUOUS
10
61.9976
20
-163.015
11
62.1881
21
-163.11
0
LINE
8
BLACK
6
CONTINUOUS
10
62.1881
20
-163.11
11
62.2833
21
-163.206
0
LINE
8
BLACK
6
CONTINUOUS
10
62.2833
20
-163.206
11
62.3786
21
-163.396
0
LINE
8
BLACK
6
CONTINUOUS
10
62.3786
20
-163.396
11
62.3786
21
-163.587
0
LINE
8
BLACK
6
CONTINUOUS
10
62.3786
20
-163.587
11
62.2833
21
-163.872
0
LINE
8
BLACK
6
CONTINUOUS
10
62.2833
20
-163.872
11
61.1405
21
-165.015
0
LINE
8
BLACK
6
CONTINUOUS
10
61.1405
20
-165.015
11
62.3786
21
-165.015
0
LINE
8
BLACK
6
CONTINUOUS
10
63.6167
20
-163.015
11
63.8071
21
-163.015
0
LINE
8
BLACK
6
CONTINUOUS
10
63.8071
20
-163.015
11
63.9976
21
-163.11
0
LINE
8
BLACK
6
CONTINUOUS
10
63.9976
20
-163.11
11
64.0929
21
-163.206
0
LINE
8
BLACK
6
CONTINUOUS
10
64.0929
20
-163.206
11
64.1881
21
-163.396
0
LINE
8
BLACK
6
CONTINUOUS
10
64.1881
20
-163.396
11
64.2833
21
-163.777
0
LINE
8
BLACK
6
CONTINUOUS
10
64.2833
20
-163.777
11
64.2833
21
-164.253
0
LINE
8
BLACK
6
CONTINUOUS
10
64.2833
20
-164.253
11
64.1881
21
-164.634
0
LINE
8
BLACK
6
CONTINUOUS
10
64.1881
20
-164.634
11
64.0929
21
-164.825
0
LINE
8
BLACK
6
CONTINUOUS
10
64.0929
20
-164.825
11
63.9976
21
-164.92
0
LINE
8
BLACK
6
CONTINUOUS
10
63.9976
20
-164.92
11
63.8071
21
-165.015
0
LINE
8
BLACK
6
CONTINUOUS
10
63.8071
20
-165.015
11
63.6167
21
-165.015
0
LINE
8
BLACK
6
CONTINUOUS
10
63.6167
20
-165.015
11
63.4262
21
-164.92
0
LINE
8
BLACK
6
CONTINUOUS
10
63.4262
20
-164.92
11
63.331
21
-164.825
0
LINE
8
BLACK
6
CONTINUOUS
10
63.331
20
-164.825
11
63.2357
21
-164.634
0
LINE
8
BLACK
6
CONTINUOUS
10
63.2357
20
-164.634
11
63.1405
21
-164.253
0
LINE
8
BLACK
6
CONTINUOUS
10
63.1405
20
-164.253
11
63.1405
21
-163.777
0
LINE
8
BLACK
6
CONTINUOUS
10
63.1405
20
-163.777
11
63.2357
21
-163.396
0
LINE
8
BLACK
6
CONTINUOUS
10
63.2357
20
-163.396
11
63.331
21
-163.206
0
LINE
8
BLACK
6
CONTINUOUS
10
63.331
20
-163.206
11
63.4262
21
-163.11
0
LINE
8
BLACK
6
CONTINUOUS
10
63.4262
20
-163.11
11
63.6167
21
-163.015
0
LINE
8
BLACK
6
CONTINUOUS
10
66.6643
20
-165.015
11
66.6643
21
-163.015
0
LINE
8
BLACK
6
CONTINUOUS
10
67.5214
20
-165.015
11
67.5214
21
-163.968
0
LINE
8
BLACK
6
CONTINUOUS
10
67.5214
20
-163.968
11
67.4262
21
-163.777
0
LINE
8
BLACK
6
CONTINUOUS
10
67.4262
20
-163.777
11
67.2357
21
-163.682
0
LINE
8
BLACK
6
CONTINUOUS
10
67.2357
20
-163.682
11
66.95
21
-163.682
0
LINE
8
BLACK
6
CONTINUOUS
10
66.95
20
-163.682
11
66.7595
21
-163.777
0
LINE
8
BLACK
6
CONTINUOUS
10
66.7595
20
-163.777
11
66.6643
21
-163.872
0
LINE
8
BLACK
6
CONTINUOUS
10
68.7595
20
-165.015
11
68.5691
21
-164.92
0
LINE
8
BLACK
6
CONTINUOUS
10
68.5691
20
-164.92
11
68.4738
21
-164.825
0
LINE
8
BLACK
6
CONTINUOUS
10
68.4738
20
-164.825
11
68.3786
21
-164.634
0
LINE
8
BLACK
6
CONTINUOUS
10
68.3786
20
-164.634
11
68.3786
21
-164.063
0
LINE
8
BLACK
6
CONTINUOUS
10
68.3786
20
-164.063
11
68.4738
21
-163.872
0
LINE
8
BLACK
6
CONTINUOUS
10
68.4738
20
-163.872
11
68.5691
21
-163.777
0
LINE
8
BLACK
6
CONTINUOUS
10
68.5691
20
-163.777
11
68.7595
21
-163.682
0
LINE
8
BLACK
6
CONTINUOUS
10
68.7595
20
-163.682
11
69.0452
21
-163.682
0
LINE
8
BLACK
6
CONTINUOUS
10
69.0452
20
-163.682
11
69.2357
21
-163.777
0
LINE
8
BLACK
6
CONTINUOUS
10
69.2357
20
-163.777
11
69.331
21
-163.872
0
LINE
8
BLACK
6
CONTINUOUS
10
69.331
20
-163.872
11
69.4262
21
-164.063
0
LINE
8
BLACK
6
CONTINUOUS
10
69.4262
20
-164.063
11
69.4262
21
-164.634
0
LINE
8
BLACK
6
CONTINUOUS
10
69.4262
20
-164.634
11
69.331
21
-164.825
0
LINE
8
BLACK
6
CONTINUOUS
10
69.331
20
-164.825
11
69.2357
21
-164.92
0
LINE
8
BLACK
6
CONTINUOUS
10
69.2357
20
-164.92
11
69.0452
21
-165.015
0
LINE
8
BLACK
6
CONTINUOUS
10
69.0452
20
-165.015
11
68.7595
21
-165.015
0
LINE
8
BLACK
6
CONTINUOUS
10
70.5691
20
-165.015
11
70.3786
21
-164.92
0
LINE
8
BLACK
6
CONTINUOUS
10
70.3786
20
-164.92
11
70.2833
21
-164.73
0
LINE
8
BLACK
6
CONTINUOUS
10
70.2833
20
-164.73
11
70.2833
21
-163.015
0
LINE
8
BLACK
6
CONTINUOUS
10
72.0929
20
-164.92
11
71.9024
21
-165.015
0
LINE
8
BLACK
6
CONTINUOUS
10
71.9024
20
-165.015
11
71.5214
21
-165.015
0
LINE
8
BLACK
6
CONTINUOUS
10
71.5214
20
-165.015
11
71.331
21
-164.92
0
LINE
8
BLACK
6
CONTINUOUS
10
71.331
20
-164.92
11
71.2357
21
-164.73
0
LINE
8
BLACK
6
CONTINUOUS
10
71.2357
20
-164.73
11
71.2357
21
-163.968
0
LINE
8
BLACK
6
CONTINUOUS
10
71.2357
20
-163.968
11
71.331
21
-163.777
0
LINE
8
BLACK
6
CONTINUOUS
10
71.331
20
-163.777
11
71.5214
21
-163.682
0
LINE
8
BLACK
6
CONTINUOUS
10
71.5214
20
-163.682
11
71.9024
21
-163.682
0
LINE
8
BLACK
6
CONTINUOUS
10
71.9024
20
-163.682
11
72.0929
21
-163.777
0
LINE
8
BLACK
6
CONTINUOUS
10
72.0929
20
-163.777
11
72.1881
21
-163.968
0
LINE
8
BLACK
6
CONTINUOUS
10
72.1881
20
-163.968
11
72.1881
21
-164.158
0
LINE
8
BLACK
6
CONTINUOUS
10
72.1881
20
-164.158
11
71.2357
21
-164.349
0
LINE
8
BLACK
6
CONTINUOUS
10
72.95
20
-164.92
11
73.1405
21
-165.015
0
LINE
8
BLACK
6
CONTINUOUS
10
73.1405
20
-165.015
11
73.5214
21
-165.015
0
LINE
8
BLACK
6
CONTINUOUS
10
73.5214
20
-165.015
11
73.7119
21
-164.92
0
LINE
8
BLACK
6
CONTINUOUS
10
73.7119
20
-164.92
11
73.8071
21
-164.73
0
LINE
8
BLACK
6
CONTINUOUS
10
73.8071
20
-164.73
11
73.8071
21
-164.634
0
LINE
8
BLACK
6
CONTINUOUS
10
73.8071
20
-164.634
11
73.7119
21
-164.444
0
LINE
8
BLACK
6
CONTINUOUS
10
73.7119
20
-164.444
11
73.5214
21
-164.349
0
LINE
8
BLACK
6
CONTINUOUS
10
73.5214
20
-164.349
11
73.2357
21
-164.349
0
LINE
8
BLACK
6
CONTINUOUS
10
73.2357
20
-164.349
11
73.0452
21
-164.253
0
LINE
8
BLACK
6
CONTINUOUS
10
73.0452
20
-164.253
11
72.95
21
-164.063
0
LINE
8
BLACK
6
CONTINUOUS
10
72.95
20
-164.063
11
72.95
21
-163.968
0
LINE
8
BLACK
6
CONTINUOUS
10
72.95
20
-163.968
11
73.0452
21
-163.777
0
LINE
8
BLACK
6
CONTINUOUS
10
73.0452
20
-163.777
11
73.2357
21
-163.682
0
LINE
8
BLACK
6
CONTINUOUS
10
73.2357
20
-163.682
11
73.5214
21
-163.682
0
LINE
8
BLACK
6
CONTINUOUS
10
73.5214
20
-163.682
11
73.7119
21
-163.777
0
LINE
8
BLACK
6
CONTINUOUS
10
76.1881
20
-164.253
11
77.7119
21
-164.253
0
LINE
8
BLACK
6
CONTINUOUS
10
76.95
20
-165.015
11
76.95
21
-163.491
0
LINE
8
BLACK
6
CONTINUOUS
10
81.0452
20
-163.682
11
81.0452
21
-165.015
0
LINE
8
BLACK
6
CONTINUOUS
10
80.5691
20
-162.92
11
80.0929
21
-164.349
0
LINE
8
BLACK
6
CONTINUOUS
10
80.0929
20
-164.349
11
81.331
21
-164.349
0
LINE
8
BLACK
6
CONTINUOUS
10
82.3786
20
-163.872
11
82.1881
21
-163.777
0
LINE
8
BLACK
6
CONTINUOUS
10
82.1881
20
-163.777
11
82.0929
21
-163.682
0
LINE
8
BLACK
6
CONTINUOUS
10
82.0929
20
-163.682
11
81.9976
21
-163.491
0
LINE
8
BLACK
6
CONTINUOUS
10
81.9976
20
-163.491
11
81.9976
21
-163.396
0
LINE
8
BLACK
6
CONTINUOUS
10
81.9976
20
-163.396
11
82.0929
21
-163.206
0
LINE
8
BLACK
6
CONTINUOUS
10
82.0929
20
-163.206
11
82.1881
21
-163.11
0
LINE
8
BLACK
6
CONTINUOUS
10
82.1881
20
-163.11
11
82.3786
21
-163.015
0
LINE
8
BLACK
6
CONTINUOUS
10
82.3786
20
-163.015
11
82.7595
21
-163.015
0
LINE
8
BLACK
6
CONTINUOUS
10
82.7595
20
-163.015
11
82.95
21
-163.11
0
LINE
8
BLACK
6
CONTINUOUS
10
82.95
20
-163.11
11
83.0452
21
-163.206
0
LINE
8
BLACK
6
CONTINUOUS
10
83.0452
20
-163.206
11
83.1405
21
-163.396
0
LINE
8
BLACK
6
CONTINUOUS
10
83.1405
20
-163.396
11
83.1405
21
-163.491
0
LINE
8
BLACK
6
CONTINUOUS
10
83.1405
20
-163.491
11
83.0452
21
-163.682
0
LINE
8
BLACK
6
CONTINUOUS
10
83.0452
20
-163.682
11
82.95
21
-163.777
0
LINE
8
BLACK
6
CONTINUOUS
10
82.95
20
-163.777
11
82.7595
21
-163.872
0
LINE
8
BLACK
6
CONTINUOUS
10
82.7595
20
-163.872
11
82.3786
21
-163.872
0
LINE
8
BLACK
6
CONTINUOUS
10
82.3786
20
-163.872
11
82.1881
21
-163.968
0
LINE
8
BLACK
6
CONTINUOUS
10
82.1881
20
-163.968
11
82.0929
21
-164.063
0
LINE
8
BLACK
6
CONTINUOUS
10
82.0929
20
-164.063
11
81.9976
21
-164.253
0
LINE
8
BLACK
6
CONTINUOUS
10
81.9976
20
-164.253
11
81.9976
21
-164.634
0
LINE
8
BLACK
6
CONTINUOUS
10
81.9976
20
-164.634
11
82.0929
21
-164.825
0
LINE
8
BLACK
6
CONTINUOUS
10
82.0929
20
-164.825
11
82.1881
21
-164.92
0
LINE
8
BLACK
6
CONTINUOUS
10
82.1881
20
-164.92
11
82.3786
21
-165.015
0
LINE
8
BLACK
6
CONTINUOUS
10
82.3786
20
-165.015
11
82.7595
21
-165.015
0
LINE
8
BLACK
6
CONTINUOUS
10
82.7595
20
-165.015
11
82.95
21
-164.92
0
LINE
8
BLACK
6
CONTINUOUS
10
82.95
20
-164.92
11
83.0452
21
-164.825
0
LINE
8
BLACK
6
CONTINUOUS
10
83.0452
20
-164.825
11
83.1405
21
-164.634
0
LINE
8
BLACK
6
CONTINUOUS
10
83.1405
20
-164.634
11
83.1405
21
-164.253
0
LINE
8
BLACK
6
CONTINUOUS
10
83.1405
20
-164.253
11
83.0452
21
-164.063
0
LINE
8
BLACK
6
CONTINUOUS
10
83.0452
20
-164.063
11
82.95
21
-163.968
0
LINE
8
BLACK
6
CONTINUOUS
10
82.95
20
-163.968
11
82.7595
21
-163.872
0
LINE
8
BLACK
6
CONTINUOUS
10
85.4262
20
-164.92
11
85.6167
21
-165.015
0
LINE
8
BLACK
6
CONTINUOUS
10
85.6167
20
-165.015
11
85.9976
21
-165.015
0
LINE
8
BLACK
6
CONTINUOUS
10
85.9976
20
-165.015
11
86.1881
21
-164.92
0
LINE
8
BLACK
6
CONTINUOUS
10
86.1881
20
-164.92
11
86.2833
21
-164.73
0
LINE
8
BLACK
6
CONTINUOUS
10
86.2833
20
-164.73
11
86.2833
21
-164.634
0
LINE
8
BLACK
6
CONTINUOUS
10
86.2833
20
-164.634
11
86.1881
21
-164.444
0
LINE
8
BLACK
6
CONTINUOUS
10
86.1881
20
-164.444
11
85.9976
21
-164.349
0
LINE
8
BLACK
6
CONTINUOUS
10
85.9976
20
-164.349
11
85.7119
21
-164.349
0
LINE
8
BLACK
6
CONTINUOUS
10
85.7119
20
-164.349
11
85.5214
21
-164.253
0
LINE
8
BLACK
6
CONTINUOUS
10
85.5214
20
-164.253
11
85.4262
21
-164.063
0
LINE
8
BLACK
6
CONTINUOUS
10
85.4262
20
-164.063
11
85.4262
21
-163.968
0
LINE
8
BLACK
6
CONTINUOUS
10
85.4262
20
-163.968
11
85.5214
21
-163.777
0
LINE
8
BLACK
6
CONTINUOUS
10
85.5214
20
-163.777
11
85.7119
21
-163.682
0
LINE
8
BLACK
6
CONTINUOUS
10
85.7119
20
-163.682
11
85.9976
21
-163.682
0
LINE
8
BLACK
6
CONTINUOUS
10
85.9976
20
-163.682
11
86.1881
21
-163.777
0
LINE
8
BLACK
6
CONTINUOUS
10
87.4262
20
-165.015
11
87.2357
21
-164.92
0
LINE
8
BLACK
6
CONTINUOUS
10
87.2357
20
-164.92
11
87.1405
21
-164.73
0
LINE
8
BLACK
6
CONTINUOUS
10
87.1405
20
-164.73
11
87.1405
21
-163.015
0
LINE
8
BLACK
6
CONTINUOUS
10
88.4738
20
-165.015
11
88.2833
21
-164.92
0
LINE
8
BLACK
6
CONTINUOUS
10
88.2833
20
-164.92
11
88.1881
21
-164.825
0
LINE
8
BLACK
6
CONTINUOUS
10
88.1881
20
-164.825
11
88.0929
21
-164.634
0
LINE
8
BLACK
6
CONTINUOUS
10
88.0929
20
-164.634
11
88.0929
21
-164.063
0
LINE
8
BLACK
6
CONTINUOUS
10
88.0929
20
-164.063
11
88.1881
21
-163.872
0
LINE
8
BLACK
6
CONTINUOUS
10
88.1881
20
-163.872
11
88.2833
21
-163.777
0
LINE
8
BLACK
6
CONTINUOUS
10
88.2833
20
-163.777
11
88.4738
21
-163.682
0
LINE
8
BLACK
6
CONTINUOUS
10
88.4738
20
-163.682
11
88.7595
21
-163.682
0
LINE
8
BLACK
6
CONTINUOUS
10
88.7595
20
-163.682
11
88.95
21
-163.777
0
LINE
8
BLACK
6
CONTINUOUS
10
88.95
20
-163.777
11
89.0452
21
-163.872
0
LINE
8
BLACK
6
CONTINUOUS
10
89.0452
20
-163.872
11
89.1405
21
-164.063
0
LINE
8
BLACK
6
CONTINUOUS
10
89.1405
20
-164.063
11
89.1405
21
-164.634
0
LINE
8
BLACK
6
CONTINUOUS
10
89.1405
20
-164.634
11
89.0452
21
-164.825
0
LINE
8
BLACK
6
CONTINUOUS
10
89.0452
20
-164.825
11
88.95
21
-164.92
0
LINE
8
BLACK
6
CONTINUOUS
10
88.95
20
-164.92
11
88.7595
21
-165.015
0
LINE
8
BLACK
6
CONTINUOUS
10
88.7595
20
-165.015
11
88.4738
21
-165.015
0
LINE
8
BLACK
6
CONTINUOUS
10
89.7119
20
-163.682
11
90.4738
21
-163.682
0
LINE
8
BLACK
6
CONTINUOUS
10
89.9976
20
-163.015
11
89.9976
21
-164.73
0
LINE
8
BLACK
6
CONTINUOUS
10
89.9976
20
-164.73
11
90.0929
21
-164.92
0
LINE
8
BLACK
6
CONTINUOUS
10
90.0929
20
-164.92
11
90.2833
21
-165.015
0
LINE
8
BLACK
6
CONTINUOUS
10
90.2833
20
-165.015
11
90.4738
21
-165.015
0
LINE
8
BLACK
6
CONTINUOUS
10
91.0452
20
-164.92
11
91.2357
21
-165.015
0
LINE
8
BLACK
6
CONTINUOUS
10
91.2357
20
-165.015
11
91.6167
21
-165.015
0
LINE
8
BLACK
6
CONTINUOUS
10
91.6167
20
-165.015
11
91.8071
21
-164.92
0
LINE
8
BLACK
6
CONTINUOUS
10
91.8071
20
-164.92
11
91.9024
21
-164.73
0
LINE
8
BLACK
6
CONTINUOUS
10
91.9024
20
-164.73
11
91.9024
21
-164.634
0
LINE
8
BLACK
6
CONTINUOUS
10
91.9024
20
-164.634
11
91.8071
21
-164.444
0
LINE
8
BLACK
6
CONTINUOUS
10
91.8071
20
-164.444
11
91.6167
21
-164.349
0
LINE
8
BLACK
6
CONTINUOUS
10
91.6167
20
-164.349
11
91.331
21
-164.349
0
LINE
8
BLACK
6
CONTINUOUS
10
91.331
20
-164.349
11
91.1405
21
-164.253
0
LINE
8
BLACK
6
CONTINUOUS
10
91.1405
20
-164.253
11
91.0452
21
-164.063
0
LINE
8
BLACK
6
CONTINUOUS
10
91.0452
20
-164.063
11
91.0452
21
-163.968
0
LINE
8
BLACK
6
CONTINUOUS
10
91.0452
20
-163.968
11
91.1405
21
-163.777
0
LINE
8
BLACK
6
CONTINUOUS
10
91.1405
20
-163.777
11
91.331
21
-163.682
0
LINE
8
BLACK
6
CONTINUOUS
10
91.331
20
-163.682
11
91.6167
21
-163.682
0
LINE
8
BLACK
6
CONTINUOUS
10
91.6167
20
-163.682
11
91.8071
21
-163.777
0
LINE
8
BLACK
6
CONTINUOUS
10
92.5691
20
-165.777
11
92.6643
21
-165.682
0
LINE
8
BLACK
6
CONTINUOUS
10
92.6643
20
-165.682
11
92.8548
21
-165.396
0
LINE
8
BLACK
6
CONTINUOUS
10
92.8548
20
-165.396
11
92.95
21
-165.206
0
LINE
8
BLACK
6
CONTINUOUS
10
92.95
20
-165.206
11
93.0452
21
-164.92
0
LINE
8
BLACK
6
CONTINUOUS
10
93.0452
20
-164.92
11
93.1405
21
-164.444
0
LINE
8
BLACK
6
CONTINUOUS
10
93.1405
20
-164.444
11
93.1405
21
-164.063
0
LINE
8
BLACK
6
CONTINUOUS
10
93.1405
20
-164.063
11
93.0452
21
-163.587
0
LINE
8
BLACK
6
CONTINUOUS
10
93.0452
20
-163.587
11
92.95
21
-163.301
0
LINE
8
BLACK
6
CONTINUOUS
10
92.95
20
-163.301
11
92.8548
21
-163.11
0
LINE
8
BLACK
6
CONTINUOUS
10
92.8548
20
-163.11
11
92.6643
21
-162.825
0
LINE
8
BLACK
6
CONTINUOUS
10
92.6643
20
-162.825
11
92.5691
21
-162.73
0
LINE
8
BLACK
6
CONTINUOUS
10
24.35
20
-166.13
11
24.35
21
-167.33
0
LINE
8
BLACK
6
CONTINUOUS
10
23.75
20
-166.73
11
24.95
21
-166.73
0
LINE
8
BLACK
6
CONTINUOUS
10
28.4738
20
-167.655
11
27.331
21
-167.655
0
LINE
8
BLACK
6
CONTINUOUS
10
27.9024
20
-167.655
11
27.9024
21
-165.655
0
LINE
8
BLACK
6
CONTINUOUS
10
27.9024
20
-165.655
11
27.7119
21
-165.941
0
LINE
8
BLACK
6
CONTINUOUS
10
27.7119
20
-165.941
11
27.5214
21
-166.131
0
LINE
8
BLACK
6
CONTINUOUS
10
27.5214
20
-166.131
11
27.331
21
-166.227
0
LINE
8
BLACK
6
CONTINUOUS
10
29.331
20
-167.465
11
29.4262
21
-167.56
0
LINE
8
BLACK
6
CONTINUOUS
10
29.4262
20
-167.56
11
29.331
21
-167.655
0
LINE
8
BLACK
6
CONTINUOUS
10
29.331
20
-167.655
11
29.2357
21
-167.56
0
LINE
8
BLACK
6
CONTINUOUS
10
29.2357
20
-167.56
11
29.331
21
-167.465
0
LINE
8
BLACK
6
CONTINUOUS
10
29.331
20
-167.465
11
29.331
21
-167.655
0
LINE
8
BLACK
6
CONTINUOUS
10
30.1881
20
-165.846
11
30.2833
21
-165.75
0
LINE
8
BLACK
6
CONTINUOUS
10
30.2833
20
-165.75
11
30.4738
21
-165.655
0
LINE
8
BLACK
6
CONTINUOUS
10
30.4738
20
-165.655
11
30.95
21
-165.655
0
LINE
8
BLACK
6
CONTINUOUS
10
30.95
20
-165.655
11
31.1405
21
-165.75
0
LINE
8
BLACK
6
CONTINUOUS
10
31.1405
20
-165.75
11
31.2357
21
-165.846
0
LINE
8
BLACK
6
CONTINUOUS
10
31.2357
20
-165.846
11
31.331
21
-166.036
0
LINE
8
BLACK
6
CONTINUOUS
10
31.331
20
-166.036
11
31.331
21
-166.227
0
LINE
8
BLACK
6
CONTINUOUS
10
31.331
20
-166.227
11
31.2357
21
-166.512
0
LINE
8
BLACK
6
CONTINUOUS
10
31.2357
20
-166.512
11
30.0929
21
-167.655
0
LINE
8
BLACK
6
CONTINUOUS
10
30.0929
20
-167.655
11
31.331
21
-167.655
0
LINE
8
BLACK
6
CONTINUOUS
10
32.569
20
-165.655
11
32.7595
21
-165.655
0
LINE
8
BLACK
6
CONTINUOUS
10
32.7595
20
-165.655
11
32.95
21
-165.75
0
LINE
8
BLACK
6
CONTINUOUS
10
32.95
20
-165.75
11
33.0452
21
-165.846
0
LINE
8
BLACK
6
CONTINUOUS
10
33.0452
20
-165.846
11
33.1405
21
-166.036
0
LINE
8
BLACK
6
CONTINUOUS
10
33.1405
20
-166.036
11
33.2357
21
-166.417
0
LINE
8
BLACK
6
CONTINUOUS
10
33.2357
20
-166.417
11
33.2357
21
-166.893
0
LINE
8
BLACK
6
CONTINUOUS
10
33.2357
20
-166.893
11
33.1405
21
-167.274
0
LINE
8
BLACK
6
CONTINUOUS
10
33.1405
20
-167.274
11
33.0452
21
-167.465
0
LINE
8
BLACK
6
CONTINUOUS
10
33.0452
20
-167.465
11
32.95
21
-167.56
0
LINE
8
BLACK
6
CONTINUOUS
10
32.95
20
-167.56
11
32.7595
21
-167.655
0
LINE
8
BLACK
6
CONTINUOUS
10
32.7595
20
-167.655
11
32.569
21
-167.655
0
LINE
8
BLACK
6
CONTINUOUS
10
32.569
20
-167.655
11
32.3786
21
-167.56
0
LINE
8
BLACK
6
CONTINUOUS
10
32.3786
20
-167.56
11
32.2833
21
-167.465
0
LINE
8
BLACK
6
CONTINUOUS
10
32.2833
20
-167.465
11
32.1881
21
-167.274
0
LINE
8
BLACK
6
CONTINUOUS
10
32.1881
20
-167.274
11
32.0929
21
-166.893
0
LINE
8
BLACK
6
CONTINUOUS
10
32.0929
20
-166.893
11
32.0929
21
-166.417
0
LINE
8
BLACK
6
CONTINUOUS
10
32.0929
20
-166.417
11
32.1881
21
-166.036
0
LINE
8
BLACK
6
CONTINUOUS
10
32.1881
20
-166.036
11
32.2833
21
-165.846
0
LINE
8
BLACK
6
CONTINUOUS
10
32.2833
20
-165.846
11
32.3786
21
-165.75
0
LINE
8
BLACK
6
CONTINUOUS
10
32.3786
20
-165.75
11
32.569
21
-165.655
0
LINE
8
BLACK
6
CONTINUOUS
10
34.4738
20
-165.655
11
34.6643
21
-165.655
0
LINE
8
BLACK
6
CONTINUOUS
10
34.6643
20
-165.655
11
34.8548
21
-165.75
0
LINE
8
BLACK
6
CONTINUOUS
10
34.8548
20
-165.75
11
34.95
21
-165.846
0
LINE
8
BLACK
6
CONTINUOUS
10
34.95
20
-165.846
11
35.0452
21
-166.036
0
LINE
8
BLACK
6
CONTINUOUS
10
35.0452
20
-166.036
11
35.1405
21
-166.417
0
LINE
8
BLACK
6
CONTINUOUS
10
35.1405
20
-166.417
11
35.1405
21
-166.893
0
LINE
8
BLACK
6
CONTINUOUS
10
35.1405
20
-166.893
11
35.0452
21
-167.274
0
LINE
8
BLACK
6
CONTINUOUS
10
35.0452
20
-167.274
11
34.95
21
-167.465
0
LINE
8
BLACK
6
CONTINUOUS
10
34.95
20
-167.465
11
34.8548
21
-167.56
0
LINE
8
BLACK
6
CONTINUOUS
10
34.8548
20
-167.56
11
34.6643
21
-167.655
0
LINE
8
BLACK
6
CONTINUOUS
10
34.6643
20
-167.655
11
34.4738
21
-167.655
0
LINE
8
BLACK
6
CONTINUOUS
10
34.4738
20
-167.655
11
34.2833
21
-167.56
0
LINE
8
BLACK
6
CONTINUOUS
10
34.2833
20
-167.56
11
34.1881
21
-167.465
0
LINE
8
BLACK
6
CONTINUOUS
10
34.1881
20
-167.465
11
34.0929
21
-167.274
0
LINE
8
BLACK
6
CONTINUOUS
10
34.0929
20
-167.274
11
33.9976
21
-166.893
0
LINE
8
BLACK
6
CONTINUOUS
10
33.9976
20
-166.893
11
33.9976
21
-166.417
0
LINE
8
BLACK
6
CONTINUOUS
10
33.9976
20
-166.417
11
34.0929
21
-166.036
0
LINE
8
BLACK
6
CONTINUOUS
10
34.0929
20
-166.036
11
34.1881
21
-165.846
0
LINE
8
BLACK
6
CONTINUOUS
10
34.1881
20
-165.846
11
34.2833
21
-165.75
0
LINE
8
BLACK
6
CONTINUOUS
10
34.2833
20
-165.75
11
34.4738
21
-165.655
0
LINE
8
BLACK
6
CONTINUOUS
10
35.9976
20
-167.655
11
35.9976
21
-166.322
0
LINE
8
BLACK
6
CONTINUOUS
10
35.9976
20
-166.512
11
36.0929
21
-166.417
0
LINE
8
BLACK
6
CONTINUOUS
10
36.0929
20
-166.417
11
36.2833
21
-166.322
0
LINE
8
BLACK
6
CONTINUOUS
10
36.2833
20
-166.322
11
36.569
21
-166.322
0
LINE
8
BLACK
6
CONTINUOUS
10
36.569
20
-166.322
11
36.7595
21
-166.417
0
LINE
8
BLACK
6
CONTINUOUS
10
36.7595
20
-166.417
11
36.8548
21
-166.608
0
LINE
8
BLACK
6
CONTINUOUS
10
36.8548
20
-166.608
11
36.8548
21
-167.655
0
LINE
8
BLACK
6
CONTINUOUS
10
36.8548
20
-166.608
11
36.95
21
-166.417
0
LINE
8
BLACK
6
CONTINUOUS
10
36.95
20
-166.417
11
37.1405
21
-166.322
0
LINE
8
BLACK
6
CONTINUOUS
10
37.1405
20
-166.322
11
37.4262
21
-166.322
0
LINE
8
BLACK
6
CONTINUOUS
10
37.4262
20
-166.322
11
37.6167
21
-166.417
0
LINE
8
BLACK
6
CONTINUOUS
10
37.6167
20
-166.417
11
37.7119
21
-166.608
0
LINE
8
BLACK
6
CONTINUOUS
10
37.7119
20
-166.608
11
37.7119
21
-167.655
0
LINE
8
BLACK
6
CONTINUOUS
10
38.6643
20
-167.655
11
38.6643
21
-166.322
0
LINE
8
BLACK
6
CONTINUOUS
10
38.6643
20
-166.512
11
38.7595
21
-166.417
0
LINE
8
BLACK
6
CONTINUOUS
10
38.7595
20
-166.417
11
38.95
21
-166.322
0
LINE
8
BLACK
6
CONTINUOUS
10
38.95
20
-166.322
11
39.2357
21
-166.322
0
LINE
8
BLACK
6
CONTINUOUS
10
39.2357
20
-166.322
11
39.4262
21
-166.417
0
LINE
8
BLACK
6
CONTINUOUS
10
39.4262
20
-166.417
11
39.5214
21
-166.608
0
LINE
8
BLACK
6
CONTINUOUS
10
39.5214
20
-166.608
11
39.5214
21
-167.655
0
LINE
8
BLACK
6
CONTINUOUS
10
39.5214
20
-166.608
11
39.6167
21
-166.417
0
LINE
8
BLACK
6
CONTINUOUS
10
39.6167
20
-166.417
11
39.8071
21
-166.322
0
LINE
8
BLACK
6
CONTINUOUS
10
39.8071
20
-166.322
11
40.0929
21
-166.322
0
LINE
8
BLACK
6
CONTINUOUS
10
40.0929
20
-166.322
11
40.2833
21
-166.417
0
LINE
8
BLACK
6
CONTINUOUS
10
40.2833
20
-166.417
11
40.3786
21
-166.608
0
LINE
8
BLACK
6
CONTINUOUS
10
40.3786
20
-166.608
11
40.3786
21
-167.655
0
LINE
8
BLACK
6
CONTINUOUS
10
44.2833
20
-165.56
11
42.569
21
-168.131
0
LINE
8
BLACK
6
CONTINUOUS
10
46.8548
20
-165.655
11
47.0452
21
-165.655
0
LINE
8
BLACK
6
CONTINUOUS
10
47.0452
20
-165.655
11
47.2357
21
-165.75
0
LINE
8
BLACK
6
CONTINUOUS
10
47.2357
20
-165.75
11
47.331
21
-165.846
0
LINE
8
BLACK
6
CONTINUOUS
10
47.331
20
-165.846
11
47.4262
21
-166.036
0
LINE
8
BLACK
6
CONTINUOUS
10
47.4262
20
-166.036
11
47.5214
21
-166.417
0
LINE
8
BLACK
6
CONTINUOUS
10
47.5214
20
-166.417
11
47.5214
21
-166.893
0
LINE
8
BLACK
6
CONTINUOUS
10
47.5214
20
-166.893
11
47.4262
21
-167.274
0
LINE
8
BLACK
6
CONTINUOUS
10
47.4262
20
-167.274
11
47.331
21
-167.465
0
LINE
8
BLACK
6
CONTINUOUS
10
47.331
20
-167.465
11
47.2357
21
-167.56
0
LINE
8
BLACK
6
CONTINUOUS
10
47.2357
20
-167.56
11
47.0452
21
-167.655
0
LINE
8
BLACK
6
CONTINUOUS
10
47.0452
20
-167.655
11
46.8548
21
-167.655
0
LINE
8
BLACK
6
CONTINUOUS
10
46.8548
20
-167.655
11
46.6643
21
-167.56
0
LINE
8
BLACK
6
CONTINUOUS
10
46.6643
20
-167.56
11
46.569
21
-167.465
0
LINE
8
BLACK
6
CONTINUOUS
10
46.569
20
-167.465
11
46.4738
21
-167.274
0
LINE
8
BLACK
6
CONTINUOUS
10
46.4738
20
-167.274
11
46.3786
21
-166.893
0
LINE
8
BLACK
6
CONTINUOUS
10
46.3786
20
-166.893
11
46.3786
21
-166.417
0
LINE
8
BLACK
6
CONTINUOUS
10
46.3786
20
-166.417
11
46.4738
21
-166.036
0
LINE
8
BLACK
6
CONTINUOUS
10
46.4738
20
-166.036
11
46.569
21
-165.846
0
LINE
8
BLACK
6
CONTINUOUS
10
46.569
20
-165.846
11
46.6643
21
-165.75
0
LINE
8
BLACK
6
CONTINUOUS
10
46.6643
20
-165.75
11
46.8548
21
-165.655
0
LINE
8
BLACK
6
CONTINUOUS
10
48.3786
20
-167.465
11
48.4738
21
-167.56
0
LINE
8
BLACK
6
CONTINUOUS
10
48.4738
20
-167.56
11
48.3786
21
-167.655
0
LINE
8
BLACK
6
CONTINUOUS
10
48.3786
20
-167.655
11
48.2833
21
-167.56
0
LINE
8
BLACK
6
CONTINUOUS
10
48.2833
20
-167.56
11
48.3786
21
-167.465
0
LINE
8
BLACK
6
CONTINUOUS
10
48.3786
20
-167.465
11
48.3786
21
-167.655
0
LINE
8
BLACK
6
CONTINUOUS
10
49.7119
20
-165.655
11
49.9024
21
-165.655
0
LINE
8
BLACK
6
CONTINUOUS
10
49.9024
20
-165.655
11
50.0929
21
-165.75
0
LINE
8
BLACK
6
CONTINUOUS
10
50.0929
20
-165.75
11
50.1881
21
-165.846
0
LINE
8
BLACK
6
CONTINUOUS
10
50.1881
20
-165.846
11
50.2833
21
-166.036
0
LINE
8
BLACK
6
CONTINUOUS
10
50.2833
20
-166.036
11
50.3786
21
-166.417
0
LINE
8
BLACK
6
CONTINUOUS
10
50.3786
20
-166.417
11
50.3786
21
-166.893
0
LINE
8
BLACK
6
CONTINUOUS
10
50.3786
20
-166.893
11
50.2833
21
-167.274
0
LINE
8
BLACK
6
CONTINUOUS
10
50.2833
20
-167.274
11
50.1881
21
-167.465
0
LINE
8
BLACK
6
CONTINUOUS
10
50.1881
20
-167.465
11
50.0929
21
-167.56
0
LINE
8
BLACK
6
CONTINUOUS
10
50.0929
20
-167.56
11
49.9024
21
-167.655
0
LINE
8
BLACK
6
CONTINUOUS
10
49.9024
20
-167.655
11
49.7119
21
-167.655
0
LINE
8
BLACK
6
CONTINUOUS
10
49.7119
20
-167.655
11
49.5214
21
-167.56
0
LINE
8
BLACK
6
CONTINUOUS
10
49.5214
20
-167.56
11
49.4262
21
-167.465
0
LINE
8
BLACK
6
CONTINUOUS
10
49.4262
20
-167.465
11
49.331
21
-167.274
0
LINE
8
BLACK
6
CONTINUOUS
10
49.331
20
-167.274
11
49.2357
21
-166.893
0
LINE
8
BLACK
6
CONTINUOUS
10
49.2357
20
-166.893
11
49.2357
21
-166.417
0
LINE
8
BLACK
6
CONTINUOUS
10
49.2357
20
-166.417
11
49.331
21
-166.036
0
LINE
8
BLACK
6
CONTINUOUS
10
49.331
20
-166.036
11
49.4262
21
-165.846
0
LINE
8
BLACK
6
CONTINUOUS
10
49.4262
20
-165.846
11
49.5214
21
-165.75
0
LINE
8
BLACK
6
CONTINUOUS
10
49.5214
20
-165.75
11
49.7119
21
-165.655
0
LINE
8
BLACK
6
CONTINUOUS
10
52.0929
20
-166.322
11
52.0929
21
-167.655
0
LINE
8
BLACK
6
CONTINUOUS
10
51.6167
20
-165.56
11
51.1405
21
-166.989
0
LINE
8
BLACK
6
CONTINUOUS
10
51.1405
20
-166.989
11
52.3786
21
-166.989
0
LINE
8
BLACK
6
CONTINUOUS
10
52.95
20
-165.655
11
54.2833
21
-165.655
0
LINE
8
BLACK
6
CONTINUOUS
10
54.2833
20
-165.655
11
53.4262
21
-167.655
0
LINE
8
BLACK
6
CONTINUOUS
10
54.95
20
-165.846
11
55.0452
21
-165.75
0
LINE
8
BLACK
6
CONTINUOUS
10
55.0452
20
-165.75
11
55.2357
21
-165.655
0
LINE
8
BLACK
6
CONTINUOUS
10
55.2357
20
-165.655
11
55.7119
21
-165.655
0
LINE
8
BLACK
6
CONTINUOUS
10
55.7119
20
-165.655
11
55.9024
21
-165.75
0
LINE
8
BLACK
6
CONTINUOUS
10
55.9024
20
-165.75
11
55.9976
21
-165.846
0
LINE
8
BLACK
6
CONTINUOUS
10
55.9976
20
-165.846
11
56.0929
21
-166.036
0
LINE
8
BLACK
6
CONTINUOUS
10
56.0929
20
-166.036
11
56.0929
21
-166.227
0
LINE
8
BLACK
6
CONTINUOUS
10
56.0929
20
-166.227
11
55.9976
21
-166.512
0
LINE
8
BLACK
6
CONTINUOUS
10
55.9976
20
-166.512
11
54.8548
21
-167.655
0
LINE
8
BLACK
6
CONTINUOUS
10
54.8548
20
-167.655
11
56.0929
21
-167.655
0
LINE
8
BLACK
6
CONTINUOUS
10
56.8548
20
-165.655
11
56.8548
21
-166.036
0
LINE
8
BLACK
6
CONTINUOUS
10
57.6167
20
-165.655
11
57.6167
21
-166.036
0
LINE
8
BLACK
6
CONTINUOUS
10
60.5691
20
-168.417
11
60.4738
21
-168.322
0
LINE
8
BLACK
6
CONTINUOUS
10
60.4738
20
-168.322
11
60.2833
21
-168.036
0
LINE
8
BLACK
6
CONTINUOUS
10
60.2833
20
-168.036
11
60.1881
21
-167.846
0
LINE
8
BLACK
6
CONTINUOUS
10
60.1881
20
-167.846
11
60.0929
21
-167.56
0
LINE
8
BLACK
6
CONTINUOUS
10
60.0929
20
-167.56
11
59.9976
21
-167.084
0
LINE
8
BLACK
6
CONTINUOUS
10
59.9976
20
-167.084
11
59.9976
21
-166.703
0
LINE
8
BLACK
6
CONTINUOUS
10
59.9976
20
-166.703
11
60.0929
21
-166.227
0
LINE
8
BLACK
6
CONTINUOUS
10
60.0929
20
-166.227
11
60.1881
21
-165.941
0
LINE
8
BLACK
6
CONTINUOUS
10
60.1881
20
-165.941
11
60.2833
21
-165.75
0
LINE
8
BLACK
6
CONTINUOUS
10
60.2833
20
-165.75
11
60.4738
21
-165.465
0
LINE
8
BLACK
6
CONTINUOUS
10
60.4738
20
-165.465
11
60.5691
21
-165.37
0
LINE
8
BLACK
6
CONTINUOUS
10
61.2357
20
-165.846
11
61.331
21
-165.75
0
LINE
8
BLACK
6
CONTINUOUS
10
61.331
20
-165.75
11
61.5214
21
-165.655
0
LINE
8
BLACK
6
CONTINUOUS
10
61.5214
20
-165.655
11
61.9976
21
-165.655
0
LINE
8
BLACK
6
CONTINUOUS
10
61.9976
20
-165.655
11
62.1881
21
-165.75
0
LINE
8
BLACK
6
CONTINUOUS
10
62.1881
20
-165.75
11
62.2833
21
-165.846
0
LINE
8
BLACK
6
CONTINUOUS
10
62.2833
20
-165.846
11
62.3786
21
-166.036
0
LINE
8
BLACK
6
CONTINUOUS
10
62.3786
20
-166.036
11
62.3786
21
-166.227
0
LINE
8
BLACK
6
CONTINUOUS
10
62.3786
20
-166.227
11
62.2833
21
-166.512
0
LINE
8
BLACK
6
CONTINUOUS
10
62.2833
20
-166.512
11
61.1405
21
-167.655
0
LINE
8
BLACK
6
CONTINUOUS
10
61.1405
20
-167.655
11
62.3786
21
-167.655
0
LINE
8
BLACK
6
CONTINUOUS
10
63.0452
20
-165.655
11
64.3786
21
-165.655
0
LINE
8
BLACK
6
CONTINUOUS
10
64.3786
20
-165.655
11
63.5214
21
-167.655
0
LINE
8
BLACK
6
CONTINUOUS
10
66.6643
20
-167.655
11
66.6643
21
-165.655
0
LINE
8
BLACK
6
CONTINUOUS
10
67.5214
20
-167.655
11
67.5214
21
-166.608
0
LINE
8
BLACK
6
CONTINUOUS
10
67.5214
20
-166.608
11
67.4262
21
-166.417
0
LINE
8
BLACK
6
CONTINUOUS
10
67.4262
20
-166.417
11
67.2357
21
-166.322
0
LINE
8
BLACK
6
CONTINUOUS
10
67.2357
20
-166.322
11
66.95
21
-166.322
0
LINE
8
BLACK
6
CONTINUOUS
10
66.95
20
-166.322
11
66.7595
21
-166.417
0
LINE
8
BLACK
6
CONTINUOUS
10
66.7595
20
-166.417
11
66.6643
21
-166.512
0
LINE
8
BLACK
6
CONTINUOUS
10
68.7595
20
-167.655
11
68.5691
21
-167.56
0
LINE
8
BLACK
6
CONTINUOUS
10
68.5691
20
-167.56
11
68.4738
21
-167.465
0
LINE
8
BLACK
6
CONTINUOUS
10
68.4738
20
-167.465
11
68.3786
21
-167.274
0
LINE
8
BLACK
6
CONTINUOUS
10
68.3786
20
-167.274
11
68.3786
21
-166.703
0
LINE
8
BLACK
6
CONTINUOUS
10
68.3786
20
-166.703
11
68.4738
21
-166.512
0
LINE
8
BLACK
6
CONTINUOUS
10
68.4738
20
-166.512
11
68.5691
21
-166.417
0
LINE
8
BLACK
6
CONTINUOUS
10
68.5691
20
-166.417
11
68.7595
21
-166.322
0
LINE
8
BLACK
6
CONTINUOUS
10
68.7595
20
-166.322
11
69.0452
21
-166.322
0
LINE
8
BLACK
6
CONTINUOUS
10
69.0452
20
-166.322
11
69.2357
21
-166.417
0
LINE
8
BLACK
6
CONTINUOUS
10
69.2357
20
-166.417
11
69.331
21
-166.512
0
LINE
8
BLACK
6
CONTINUOUS
10
69.331
20
-166.512
11
69.4262
21
-166.703
0
LINE
8
BLACK
6
CONTINUOUS
10
69.4262
20
-166.703
11
69.4262
21
-167.274
0
LINE
8
BLACK
6
CONTINUOUS
10
69.4262
20
-167.274
11
69.331
21
-167.465
0
LINE
8
BLACK
6
CONTINUOUS
10
69.331
20
-167.465
11
69.2357
21
-167.56
0
LINE
8
BLACK
6
CONTINUOUS
10
69.2357
20
-167.56
11
69.0452
21
-167.655
0
LINE
8
BLACK
6
CONTINUOUS
10
69.0452
20
-167.655
11
68.7595
21
-167.655
0
LINE
8
BLACK
6
CONTINUOUS
10
70.5691
20
-167.655
11
70.3786
21
-167.56
0
LINE
8
BLACK
6
CONTINUOUS
10
70.3786
20
-167.56
11
70.2833
21
-167.37
0
LINE
8
BLACK
6
CONTINUOUS
10
70.2833
20
-167.37
11
70.2833
21
-165.655
0
LINE
8
BLACK
6
CONTINUOUS
10
72.0929
20
-167.56
11
71.9024
21
-167.655
0
LINE
8
BLACK
6
CONTINUOUS
10
71.9024
20
-167.655
11
71.5214
21
-167.655
0
LINE
8
BLACK
6
CONTINUOUS
10
71.5214
20
-167.655
11
71.331
21
-167.56
0
LINE
8
BLACK
6
CONTINUOUS
10
71.331
20
-167.56
11
71.2357
21
-167.37
0
LINE
8
BLACK
6
CONTINUOUS
10
71.2357
20
-167.37
11
71.2357
21
-166.608
0
LINE
8
BLACK
6
CONTINUOUS
10
71.2357
20
-166.608
11
71.331
21
-166.417
0
LINE
8
BLACK
6
CONTINUOUS
10
71.331
20
-166.417
11
71.5214
21
-166.322
0
LINE
8
BLACK
6
CONTINUOUS
10
71.5214
20
-166.322
11
71.9024
21
-166.322
0
LINE
8
BLACK
6
CONTINUOUS
10
71.9024
20
-166.322
11
72.0929
21
-166.417
0
LINE
8
BLACK
6
CONTINUOUS
10
72.0929
20
-166.417
11
72.1881
21
-166.608
0
LINE
8
BLACK
6
CONTINUOUS
10
72.1881
20
-166.608
11
72.1881
21
-166.798
0
LINE
8
BLACK
6
CONTINUOUS
10
72.1881
20
-166.798
11
71.2357
21
-166.989
0
LINE
8
BLACK
6
CONTINUOUS
10
72.95
20
-167.56
11
73.1405
21
-167.655
0
LINE
8
BLACK
6
CONTINUOUS
10
73.1405
20
-167.655
11
73.5214
21
-167.655
0
LINE
8
BLACK
6
CONTINUOUS
10
73.5214
20
-167.655
11
73.7119
21
-167.56
0
LINE
8
BLACK
6
CONTINUOUS
10
73.7119
20
-167.56
11
73.8071
21
-167.37
0
LINE
8
BLACK
6
CONTINUOUS
10
73.8071
20
-167.37
11
73.8071
21
-167.274
0
LINE
8
BLACK
6
CONTINUOUS
10
73.8071
20
-167.274
11
73.7119
21
-167.084
0
LINE
8
BLACK
6
CONTINUOUS
10
73.7119
20
-167.084
11
73.5214
21
-166.989
0
LINE
8
BLACK
6
CONTINUOUS
10
73.5214
20
-166.989
11
73.2357
21
-166.989
0
LINE
8
BLACK
6
CONTINUOUS
10
73.2357
20
-166.989
11
73.0452
21
-166.893
0
LINE
8
BLACK
6
CONTINUOUS
10
73.0452
20
-166.893
11
72.95
21
-166.703
0
LINE
8
BLACK
6
CONTINUOUS
10
72.95
20
-166.703
11
72.95
21
-166.608
0
LINE
8
BLACK
6
CONTINUOUS
10
72.95
20
-166.608
11
73.0452
21
-166.417
0
LINE
8
BLACK
6
CONTINUOUS
10
73.0452
20
-166.417
11
73.2357
21
-166.322
0
LINE
8
BLACK
6
CONTINUOUS
10
73.2357
20
-166.322
11
73.5214
21
-166.322
0
LINE
8
BLACK
6
CONTINUOUS
10
73.5214
20
-166.322
11
73.7119
21
-166.417
0
LINE
8
BLACK
6
CONTINUOUS
10
74.4738
20
-168.417
11
74.5691
21
-168.322
0
LINE
8
BLACK
6
CONTINUOUS
10
74.5691
20
-168.322
11
74.7595
21
-168.036
0
LINE
8
BLACK
6
CONTINUOUS
10
74.7595
20
-168.036
11
74.8548
21
-167.846
0
LINE
8
BLACK
6
CONTINUOUS
10
74.8548
20
-167.846
11
74.95
21
-167.56
0
LINE
8
BLACK
6
CONTINUOUS
10
74.95
20
-167.56
11
75.0452
21
-167.084
0
LINE
8
BLACK
6
CONTINUOUS
10
75.0452
20
-167.084
11
75.0452
21
-166.703
0
LINE
8
BLACK
6
CONTINUOUS
10
75.0452
20
-166.703
11
74.95
21
-166.227
0
LINE
8
BLACK
6
CONTINUOUS
10
74.95
20
-166.227
11
74.8548
21
-165.941
0
LINE
8
BLACK
6
CONTINUOUS
10
74.8548
20
-165.941
11
74.7595
21
-165.75
0
LINE
8
BLACK
6
CONTINUOUS
10
74.7595
20
-165.75
11
74.5691
21
-165.465
0
LINE
8
BLACK
6
CONTINUOUS
10
74.5691
20
-165.465
11
74.4738
21
-165.37
0
LINE
8
BLACK
6
CONTINUOUS
10
24.745
20
-169.865
11
24.745
21
-168.875
0
LINE
8
BLACK
6
CONTINUOUS
10
24.745
20
-168.875
11
23.755
21
-168.875
0
LINE
8
BLACK
6
CONTINUOUS
10
23.755
20
-168.875
11
23.755
21
-169.865
0
LINE
8
BLACK
6
CONTINUOUS
10
23.755
20
-169.865
11
24.745
21
-169.865
0
LINE
8
BLACK
6
CONTINUOUS
10
28.4738
20
-170.295
11
27.331
21
-170.295
0
LINE
8
BLACK
6
CONTINUOUS
10
27.9024
20
-170.295
11
27.9024
21
-168.295
0
LINE
8
BLACK
6
CONTINUOUS
10
27.9024
20
-168.295
11
27.7119
21
-168.581
0
LINE
8
BLACK
6
CONTINUOUS
10
27.7119
20
-168.581
11
27.5214
21
-168.771
0
LINE
8
BLACK
6
CONTINUOUS
10
27.5214
20
-168.771
11
27.331
21
-168.867
0
LINE
8
BLACK
6
CONTINUOUS
10
29.331
20
-170.105
11
29.4262
21
-170.2
0
LINE
8
BLACK
6
CONTINUOUS
10
29.4262
20
-170.2
11
29.331
21
-170.295
0
LINE
8
BLACK
6
CONTINUOUS
10
29.331
20
-170.295
11
29.2357
21
-170.2
0
LINE
8
BLACK
6
CONTINUOUS
10
29.2357
20
-170.2
11
29.331
21
-170.105
0
LINE
8
BLACK
6
CONTINUOUS
10
29.331
20
-170.105
11
29.331
21
-170.295
0
LINE
8
BLACK
6
CONTINUOUS
10
31.1405
20
-168.962
11
31.1405
21
-170.295
0
LINE
8
BLACK
6
CONTINUOUS
10
30.6643
20
-168.2
11
30.1881
21
-169.629
0
LINE
8
BLACK
6
CONTINUOUS
10
30.1881
20
-169.629
11
31.4262
21
-169.629
0
LINE
8
BLACK
6
CONTINUOUS
10
32.569
20
-168.295
11
32.7595
21
-168.295
0
LINE
8
BLACK
6
CONTINUOUS
10
32.7595
20
-168.295
11
32.95
21
-168.39
0
LINE
8
BLACK
6
CONTINUOUS
10
32.95
20
-168.39
11
33.0452
21
-168.486
0
LINE
8
BLACK
6
CONTINUOUS
10
33.0452
20
-168.486
11
33.1405
21
-168.676
0
LINE
8
BLACK
6
CONTINUOUS
10
33.1405
20
-168.676
11
33.2357
21
-169.057
0
LINE
8
BLACK
6
CONTINUOUS
10
33.2357
20
-169.057
11
33.2357
21
-169.533
0
LINE
8
BLACK
6
CONTINUOUS
10
33.2357
20
-169.533
11
33.1405
21
-169.914
0
LINE
8
BLACK
6
CONTINUOUS
10
33.1405
20
-169.914
11
33.0452
21
-170.105
0
LINE
8
BLACK
6
CONTINUOUS
10
33.0452
20
-170.105
11
32.95
21
-170.2
0
LINE
8
BLACK
6
CONTINUOUS
10
32.95
20
-170.2
11
32.7595
21
-170.295
0
LINE
8
BLACK
6
CONTINUOUS
10
32.7595
20
-170.295
11
32.569
21
-170.295
0
LINE
8
BLACK
6
CONTINUOUS
10
32.569
20
-170.295
11
32.3786
21
-170.2
0
LINE
8
BLACK
6
CONTINUOUS
10
32.3786
20
-170.2
11
32.2833
21
-170.105
0
LINE
8
BLACK
6
CONTINUOUS
10
32.2833
20
-170.105
11
32.1881
21
-169.914
0
LINE
8
BLACK
6
CONTINUOUS
10
32.1881
20
-169.914
11
32.0929
21
-169.533
0
LINE
8
BLACK
6
CONTINUOUS
10
32.0929
20
-169.533
11
32.0929
21
-169.057
0
LINE
8
BLACK
6
CONTINUOUS
10
32.0929
20
-169.057
11
32.1881
21
-168.676
0
LINE
8
BLACK
6
CONTINUOUS
10
32.1881
20
-168.676
11
32.2833
21
-168.486
0
LINE
8
BLACK
6
CONTINUOUS
10
32.2833
20
-168.486
11
32.3786
21
-168.39
0
LINE
8
BLACK
6
CONTINUOUS
10
32.3786
20
-168.39
11
32.569
21
-168.295
0
LINE
8
BLACK
6
CONTINUOUS
10
34.4738
20
-168.295
11
34.6643
21
-168.295
0
LINE
8
BLACK
6
CONTINUOUS
10
34.6643
20
-168.295
11
34.8548
21
-168.39
0
LINE
8
BLACK
6
CONTINUOUS
10
34.8548
20
-168.39
11
34.95
21
-168.486
0
LINE
8
BLACK
6
CONTINUOUS
10
34.95
20
-168.486
11
35.0452
21
-168.676
0
LINE
8
BLACK
6
CONTINUOUS
10
35.0452
20
-168.676
11
35.1405
21
-169.057
0
LINE
8
BLACK
6
CONTINUOUS
10
35.1405
20
-169.057
11
35.1405
21
-169.533
0
LINE
8
BLACK
6
CONTINUOUS
10
35.1405
20
-169.533
11
35.0452
21
-169.914
0
LINE
8
BLACK
6
CONTINUOUS
10
35.0452
20
-169.914
11
34.95
21
-170.105
0
LINE
8
BLACK
6
CONTINUOUS
10
34.95
20
-170.105
11
34.8548
21
-170.2
0
LINE
8
BLACK
6
CONTINUOUS
10
34.8548
20
-170.2
11
34.6643
21
-170.295
0
LINE
8
BLACK
6
CONTINUOUS
10
34.6643
20
-170.295
11
34.4738
21
-170.295
0
LINE
8
BLACK
6
CONTINUOUS
10
34.4738
20
-170.295
11
34.2833
21
-170.2
0
LINE
8
BLACK
6
CONTINUOUS
10
34.2833
20
-170.2
11
34.1881
21
-170.105
0
LINE
8
BLACK
6
CONTINUOUS
10
34.1881
20
-170.105
11
34.0929
21
-169.914
0
LINE
8
BLACK
6
CONTINUOUS
10
34.0929
20
-169.914
11
33.9976
21
-169.533
0
LINE
8
BLACK
6
CONTINUOUS
10
33.9976
20
-169.533
11
33.9976
21
-169.057
0
LINE
8
BLACK
6
CONTINUOUS
10
33.9976
20
-169.057
11
34.0929
21
-168.676
0
LINE
8
BLACK
6
CONTINUOUS
10
34.0929
20
-168.676
11
34.1881
21
-168.486
0
LINE
8
BLACK
6
CONTINUOUS
10
34.1881
20
-168.486
11
34.2833
21
-168.39
0
LINE
8
BLACK
6
CONTINUOUS
10
34.2833
20
-168.39
11
34.4738
21
-168.295
0
LINE
8
BLACK
6
CONTINUOUS
10
35.9976
20
-170.295
11
35.9976
21
-168.962
0
LINE
8
BLACK
6
CONTINUOUS
10
35.9976
20
-169.152
11
36.0929
21
-169.057
0
LINE
8
BLACK
6
CONTINUOUS
10
36.0929
20
-169.057
11
36.2833
21
-168.962
0
LINE
8
BLACK
6
CONTINUOUS
10
36.2833
20
-168.962
11
36.569
21
-168.962
0
LINE
8
BLACK
6
CONTINUOUS
10
36.569
20
-168.962
11
36.7595
21
-169.057
0
LINE
8
BLACK
6
CONTINUOUS
10
36.7595
20
-169.057
11
36.8548
21
-169.248
0
LINE
8
BLACK
6
CONTINUOUS
10
36.8548
20
-169.248
11
36.8548
21
-170.295
0
LINE
8
BLACK
6
CONTINUOUS
10
36.8548
20
-169.248
11
36.95
21
-169.057
0
LINE
8
BLACK
6
CONTINUOUS
10
36.95
20
-169.057
11
37.1405
21
-168.962
0
LINE
8
BLACK
6
CONTINUOUS
10
37.1405
20
-168.962
11
37.4262
21
-168.962
0
LINE
8
BLACK
6
CONTINUOUS
10
37.4262
20
-168.962
11
37.6167
21
-169.057
0
LINE
8
BLACK
6
CONTINUOUS
10
37.6167
20
-169.057
11
37.7119
21
-169.248
0
LINE
8
BLACK
6
CONTINUOUS
10
37.7119
20
-169.248
11
37.7119
21
-170.295
0
LINE
8
BLACK
6
CONTINUOUS
10
38.6643
20
-170.295
11
38.6643
21
-168.962
0
LINE
8
BLACK
6
CONTINUOUS
10
38.6643
20
-169.152
11
38.7595
21
-169.057
0
LINE
8
BLACK
6
CONTINUOUS
10
38.7595
20
-169.057
11
38.95
21
-168.962
0
LINE
8
BLACK
6
CONTINUOUS
10
38.95
20
-168.962
11
39.2357
21
-168.962
0
LINE
8
BLACK
6
CONTINUOUS
10
39.2357
20
-168.962
11
39.4262
21
-169.057
0
LINE
8
BLACK
6
CONTINUOUS
10
39.4262
20
-169.057
11
39.5214
21
-169.248
0
LINE
8
BLACK
6
CONTINUOUS
10
39.5214
20
-169.248
11
39.5214
21
-170.295
0
LINE
8
BLACK
6
CONTINUOUS
10
39.5214
20
-169.248
11
39.6167
21
-169.057
0
LINE
8
BLACK
6
CONTINUOUS
10
39.6167
20
-169.057
11
39.8071
21
-168.962
0
LINE
8
BLACK
6
CONTINUOUS
10
39.8071
20
-168.962
11
40.0929
21
-168.962
0
LINE
8
BLACK
6
CONTINUOUS
10
40.0929
20
-168.962
11
40.2833
21
-169.057
0
LINE
8
BLACK
6
CONTINUOUS
10
40.2833
20
-169.057
11
40.3786
21
-169.248
0
LINE
8
BLACK
6
CONTINUOUS
10
40.3786
20
-169.248
11
40.3786
21
-170.295
0
LINE
8
BLACK
6
CONTINUOUS
10
44.2833
20
-168.2
11
42.569
21
-170.771
0
LINE
8
BLACK
6
CONTINUOUS
10
46.8548
20
-168.295
11
47.0452
21
-168.295
0
LINE
8
BLACK
6
CONTINUOUS
10
47.0452
20
-168.295
11
47.2357
21
-168.39
0
LINE
8
BLACK
6
CONTINUOUS
10
47.2357
20
-168.39
11
47.331
21
-168.486
0
LINE
8
BLACK
6
CONTINUOUS
10
47.331
20
-168.486
11
47.4262
21
-168.676
0
LINE
8
BLACK
6
CONTINUOUS
10
47.4262
20
-168.676
11
47.5214
21
-169.057
0
LINE
8
BLACK
6
CONTINUOUS
10
47.5214
20
-169.057
11
47.5214
21
-169.533
0
LINE
8
BLACK
6
CONTINUOUS
10
47.5214
20
-169.533
11
47.4262
21
-169.914
0
LINE
8
BLACK
6
CONTINUOUS
10
47.4262
20
-169.914
11
47.331
21
-170.105
0
LINE
8
BLACK
6
CONTINUOUS
10
47.331
20
-170.105
11
47.2357
21
-170.2
0
LINE
8
BLACK
6
CONTINUOUS
10
47.2357
20
-170.2
11
47.0452
21
-170.295
0
LINE
8
BLACK
6
CONTINUOUS
10
47.0452
20
-170.295
11
46.8548
21
-170.295
0
LINE
8
BLACK
6
CONTINUOUS
10
46.8548
20
-170.295
11
46.6643
21
-170.2
0
LINE
8
BLACK
6
CONTINUOUS
10
46.6643
20
-170.2
11
46.569
21
-170.105
0
LINE
8
BLACK
6
CONTINUOUS
10
46.569
20
-170.105
11
46.4738
21
-169.914
0
LINE
8
BLACK
6
CONTINUOUS
10
46.4738
20
-169.914
11
46.3786
21
-169.533
0
LINE
8
BLACK
6
CONTINUOUS
10
46.3786
20
-169.533
11
46.3786
21
-169.057
0
LINE
8
BLACK
6
CONTINUOUS
10
46.3786
20
-169.057
11
46.4738
21
-168.676
0
LINE
8
BLACK
6
CONTINUOUS
10
46.4738
20
-168.676
11
46.569
21
-168.486
0
LINE
8
BLACK
6
CONTINUOUS
10
46.569
20
-168.486
11
46.6643
21
-168.39
0
LINE
8
BLACK
6
CONTINUOUS
10
46.6643
20
-168.39
11
46.8548
21
-168.295
0
LINE
8
BLACK
6
CONTINUOUS
10
48.3786
20
-170.105
11
48.4738
21
-170.2
0
LINE
8
BLACK
6
CONTINUOUS
10
48.4738
20
-170.2
11
48.3786
21
-170.295
0
LINE
8
BLACK
6
CONTINUOUS
10
48.3786
20
-170.295
11
48.2833
21
-170.2
0
LINE
8
BLACK
6
CONTINUOUS
10
48.2833
20
-170.2
11
48.3786
21
-170.105
0
LINE
8
BLACK
6
CONTINUOUS
10
48.3786
20
-170.105
11
48.3786
21
-170.295
0
LINE
8
BLACK
6
CONTINUOUS
10
49.7119
20
-168.295
11
49.9024
21
-168.295
0
LINE
8
BLACK
6
CONTINUOUS
10
49.9024
20
-168.295
11
50.0929
21
-168.39
0
LINE
8
BLACK
6
CONTINUOUS
10
50.0929
20
-168.39
11
50.1881
21
-168.486
0
LINE
8
BLACK
6
CONTINUOUS
10
50.1881
20
-168.486
11
50.2833
21
-168.676
0
LINE
8
BLACK
6
CONTINUOUS
10
50.2833
20
-168.676
11
50.3786
21
-169.057
0
LINE
8
BLACK
6
CONTINUOUS
10
50.3786
20
-169.057
11
50.3786
21
-169.533
0
LINE
8
BLACK
6
CONTINUOUS
10
50.3786
20
-169.533
11
50.2833
21
-169.914
0
LINE
8
BLACK
6
CONTINUOUS
10
50.2833
20
-169.914
11
50.1881
21
-170.105
0
LINE
8
BLACK
6
CONTINUOUS
10
50.1881
20
-170.105
11
50.0929
21
-170.2
0
LINE
8
BLACK
6
CONTINUOUS
10
50.0929
20
-170.2
11
49.9024
21
-170.295
0
LINE
8
BLACK
6
CONTINUOUS
10
49.9024
20
-170.295
11
49.7119
21
-170.295
0
LINE
8
BLACK
6
CONTINUOUS
10
49.7119
20
-170.295
11
49.5214
21
-170.2
0
LINE
8
BLACK
6
CONTINUOUS
10
49.5214
20
-170.2
11
49.4262
21
-170.105
0
LINE
8
BLACK
6
CONTINUOUS
10
49.4262
20
-170.105
11
49.331
21
-169.914
0
LINE
8
BLACK
6
CONTINUOUS
10
49.331
20
-169.914
11
49.2357
21
-169.533
0
LINE
8
BLACK
6
CONTINUOUS
10
49.2357
20
-169.533
11
49.2357
21
-169.057
0
LINE
8
BLACK
6
CONTINUOUS
10
49.2357
20
-169.057
11
49.331
21
-168.676
0
LINE
8
BLACK
6
CONTINUOUS
10
49.331
20
-168.676
11
49.4262
21
-168.486
0
LINE
8
BLACK
6
CONTINUOUS
10
49.4262
20
-168.486
11
49.5214
21
-168.39
0
LINE
8
BLACK
6
CONTINUOUS
10
49.5214
20
-168.39
11
49.7119
21
-168.295
0
LINE
8
BLACK
6
CONTINUOUS
10
52.1881
20
-168.295
11
51.2357
21
-168.295
0
LINE
8
BLACK
6
CONTINUOUS
10
51.2357
20
-168.295
11
51.1405
21
-169.248
0
LINE
8
BLACK
6
CONTINUOUS
10
51.1405
20
-169.248
11
51.2357
21
-169.152
0
LINE
8
BLACK
6
CONTINUOUS
10
51.2357
20
-169.152
11
51.4262
21
-169.057
0
LINE
8
BLACK
6
CONTINUOUS
10
51.4262
20
-169.057
11
51.9024
21
-169.057
0
LINE
8
BLACK
6
CONTINUOUS
10
51.9024
20
-169.057
11
52.0929
21
-169.152
0
LINE
8
BLACK
6
CONTINUOUS
10
52.0929
20
-169.152
11
52.1881
21
-169.248
0
LINE
8
BLACK
6
CONTINUOUS
10
52.1881
20
-169.248
11
52.2833
21
-169.438
0
LINE
8
BLACK
6
CONTINUOUS
10
52.2833
20
-169.438
11
52.2833
21
-169.914
0
LINE
8
BLACK
6
CONTINUOUS
10
52.2833
20
-169.914
11
52.1881
21
-170.105
0
LINE
8
BLACK
6
CONTINUOUS
10
52.1881
20
-170.105
11
52.0929
21
-170.2
0
LINE
8
BLACK
6
CONTINUOUS
10
52.0929
20
-170.2
11
51.9024
21
-170.295
0
LINE
8
BLACK
6
CONTINUOUS
10
51.9024
20
-170.295
11
51.4262
21
-170.295
0
LINE
8
BLACK
6
CONTINUOUS
10
51.4262
20
-170.295
11
51.2357
21
-170.2
0
LINE
8
BLACK
6
CONTINUOUS
10
51.2357
20
-170.2
11
51.1405
21
-170.105
0
LINE
8
BLACK
6
CONTINUOUS
10
54.0929
20
-168.295
11
53.1405
21
-168.295
0
LINE
8
BLACK
6
CONTINUOUS
10
53.1405
20
-168.295
11
53.0452
21
-169.248
0
LINE
8
BLACK
6
CONTINUOUS
10
53.0452
20
-169.248
11
53.1405
21
-169.152
0
LINE
8
BLACK
6
CONTINUOUS
10
53.1405
20
-169.152
11
53.331
21
-169.057
0
LINE
8
BLACK
6
CONTINUOUS
10
53.331
20
-169.057
11
53.8071
21
-169.057
0
LINE
8
BLACK
6
CONTINUOUS
10
53.8071
20
-169.057
11
53.9976
21
-169.152
0
LINE
8
BLACK
6
CONTINUOUS
10
53.9976
20
-169.152
11
54.0929
21
-169.248
0
LINE
8
BLACK
6
CONTINUOUS
10
54.0929
20
-169.248
11
54.1881
21
-169.438
0
LINE
8
BLACK
6
CONTINUOUS
10
54.1881
20
-169.438
11
54.1881
21
-169.914
0
LINE
8
BLACK
6
CONTINUOUS
10
54.1881
20
-169.914
11
54.0929
21
-170.105
0
LINE
8
BLACK
6
CONTINUOUS
10
54.0929
20
-170.105
11
53.9976
21
-170.2
0
LINE
8
BLACK
6
CONTINUOUS
10
53.9976
20
-170.2
11
53.8071
21
-170.295
0
LINE
8
BLACK
6
CONTINUOUS
10
53.8071
20
-170.295
11
53.331
21
-170.295
0
LINE
8
BLACK
6
CONTINUOUS
10
53.331
20
-170.295
11
53.1405
21
-170.2
0
LINE
8
BLACK
6
CONTINUOUS
10
53.1405
20
-170.2
11
53.0452
21
-170.105
0
LINE
8
BLACK
6
CONTINUOUS
10
56.0929
20
-170.295
11
54.95
21
-170.295
0
LINE
8
BLACK
6
CONTINUOUS
10
55.5214
20
-170.295
11
55.5214
21
-168.295
0
LINE
8
BLACK
6
CONTINUOUS
10
55.5214
20
-168.295
11
55.331
21
-168.581
0
LINE
8
BLACK
6
CONTINUOUS
10
55.331
20
-168.581
11
55.1405
21
-168.771
0
LINE
8
BLACK
6
CONTINUOUS
10
55.1405
20
-168.771
11
54.95
21
-168.867
0
LINE
8
BLACK
6
CONTINUOUS
10
56.8548
20
-168.295
11
56.8548
21
-168.676
0
LINE
8
BLACK
6
CONTINUOUS
10
57.6167
20
-168.295
11
57.6167
21
-168.676
0
LINE
8
BLACK
6
CONTINUOUS
10
60.5691
20
-171.057
11
60.4738
21
-170.962
0
LINE
8
BLACK
6
CONTINUOUS
10
60.4738
20
-170.962
11
60.2833
21
-170.676
0
LINE
8
BLACK
6
CONTINUOUS
10
60.2833
20
-170.676
11
60.1881
21
-170.486
0
LINE
8
BLACK
6
CONTINUOUS
10
60.1881
20
-170.486
11
60.0929
21
-170.2
0
LINE
8
BLACK
6
CONTINUOUS
10
60.0929
20
-170.2
11
59.9976
21
-169.724
0
LINE
8
BLACK
6
CONTINUOUS
10
59.9976
20
-169.724
11
59.9976
21
-169.343
0
LINE
8
BLACK
6
CONTINUOUS
10
59.9976
20
-169.343
11
60.0929
21
-168.867
0
LINE
8
BLACK
6
CONTINUOUS
10
60.0929
20
-168.867
11
60.1881
21
-168.581
0
LINE
8
BLACK
6
CONTINUOUS
10
60.1881
20
-168.581
11
60.2833
21
-168.39
0
LINE
8
BLACK
6
CONTINUOUS
10
60.2833
20
-168.39
11
60.4738
21
-168.105
0
LINE
8
BLACK
6
CONTINUOUS
10
60.4738
20
-168.105
11
60.5691
21
-168.01
0
LINE
8
BLACK
6
CONTINUOUS
10
62.1881
20
-168.962
11
62.1881
21
-170.295
0
LINE
8
BLACK
6
CONTINUOUS
10
61.7119
20
-168.2
11
61.2357
21
-169.629
0
LINE
8
BLACK
6
CONTINUOUS
10
61.2357
20
-169.629
11
62.4738
21
-169.629
0
LINE
8
BLACK
6
CONTINUOUS
10
64.7595
20
-170.295
11
64.7595
21
-168.295
0
LINE
8
BLACK
6
CONTINUOUS
10
65.6167
20
-170.295
11
65.6167
21
-169.248
0
LINE
8
BLACK
6
CONTINUOUS
10
65.6167
20
-169.248
11
65.5214
21
-169.057
0
LINE
8
BLACK
6
CONTINUOUS
10
65.5214
20
-169.057
11
65.331
21
-168.962
0
LINE
8
BLACK
6
CONTINUOUS
10
65.331
20
-168.962
11
65.0452
21
-168.962
0
LINE
8
BLACK
6
CONTINUOUS
10
65.0452
20
-168.962
11
64.8548
21
-169.057
0
LINE
8
BLACK
6
CONTINUOUS
10
64.8548
20
-169.057
11
64.7595
21
-169.152
0
LINE
8
BLACK
6
CONTINUOUS
10
66.8548
20
-170.295
11
66.6643
21
-170.2
0
LINE
8
BLACK
6
CONTINUOUS
10
66.6643
20
-170.2
11
66.5691
21
-170.105
0
LINE
8
BLACK
6
CONTINUOUS
10
66.5691
20
-170.105
11
66.4738
21
-169.914
0
LINE
8
BLACK
6
CONTINUOUS
10
66.4738
20
-169.914
11
66.4738
21
-169.343
0
LINE
8
BLACK
6
CONTINUOUS
10
66.4738
20
-169.343
11
66.5691
21
-169.152
0
LINE
8
BLACK
6
CONTINUOUS
10
66.5691
20
-169.152
11
66.6643
21
-169.057
0
LINE
8
BLACK
6
CONTINUOUS
10
66.6643
20
-169.057
11
66.8548
21
-168.962
0
LINE
8
BLACK
6
CONTINUOUS
10
66.8548
20
-168.962
11
67.1405
21
-168.962
0
LINE
8
BLACK
6
CONTINUOUS
10
67.1405
20
-168.962
11
67.331
21
-169.057
0
LINE
8
BLACK
6
CONTINUOUS
10
67.331
20
-169.057
11
67.4262
21
-169.152
0
LINE
8
BLACK
6
CONTINUOUS
10
67.4262
20
-169.152
11
67.5214
21
-169.343
0
LINE
8
BLACK
6
CONTINUOUS
10
67.5214
20
-169.343
11
67.5214
21
-169.914
0
LINE
8
BLACK
6
CONTINUOUS
10
67.5214
20
-169.914
11
67.4262
21
-170.105
0
LINE
8
BLACK
6
CONTINUOUS
10
67.4262
20
-170.105
11
67.331
21
-170.2
0
LINE
8
BLACK
6
CONTINUOUS
10
67.331
20
-170.2
11
67.1405
21
-170.295
0
LINE
8
BLACK
6
CONTINUOUS
10
67.1405
20
-170.295
11
66.8548
21
-170.295
0
LINE
8
BLACK
6
CONTINUOUS
10
68.6643
20
-170.295
11
68.4738
21
-170.2
0
LINE
8
BLACK
6
CONTINUOUS
10
68.4738
20
-170.2
11
68.3786
21
-170.01
0
LINE
8
BLACK
6
CONTINUOUS
10
68.3786
20
-170.01
11
68.3786
21
-168.295
0
LINE
8
BLACK
6
CONTINUOUS
10
70.1881
20
-170.2
11
69.9976
21
-170.295
0
LINE
8
BLACK
6
CONTINUOUS
10
69.9976
20
-170.295
11
69.6167
21
-170.295
0
LINE
8
BLACK
6
CONTINUOUS
10
69.6167
20
-170.295
11
69.4262
21
-170.2
0
LINE
8
BLACK
6
CONTINUOUS
10
69.4262
20
-170.2
11
69.331
21
-170.01
0
LINE
8
BLACK
6
CONTINUOUS
10
69.331
20
-170.01
11
69.331
21
-169.248
0
LINE
8
BLACK
6
CONTINUOUS
10
69.331
20
-169.248
11
69.4262
21
-169.057
0
LINE
8
BLACK
6
CONTINUOUS
10
69.4262
20
-169.057
11
69.6167
21
-168.962
0
LINE
8
BLACK
6
CONTINUOUS
10
69.6167
20
-168.962
11
69.9976
21
-168.962
0
LINE
8
BLACK
6
CONTINUOUS
10
69.9976
20
-168.962
11
70.1881
21
-169.057
0
LINE
8
BLACK
6
CONTINUOUS
10
70.1881
20
-169.057
11
70.2833
21
-169.248
0
LINE
8
BLACK
6
CONTINUOUS
10
70.2833
20
-169.248
11
70.2833
21
-169.438
0
LINE
8
BLACK
6
CONTINUOUS
10
70.2833
20
-169.438
11
69.331
21
-169.629
0
LINE
8
BLACK
6
CONTINUOUS
10
71.0452
20
-170.2
11
71.2357
21
-170.295
0
LINE
8
BLACK
6
CONTINUOUS
10
71.2357
20
-170.295
11
71.6167
21
-170.295
0
LINE
8
BLACK
6
CONTINUOUS
10
71.6167
20
-170.295
11
71.8071
21
-170.2
0
LINE
8
BLACK
6
CONTINUOUS
10
71.8071
20
-170.2
11
71.9024
21
-170.01
0
LINE
8
BLACK
6
CONTINUOUS
10
71.9024
20
-170.01
11
71.9024
21
-169.914
0
LINE
8
BLACK
6
CONTINUOUS
10
71.9024
20
-169.914
11
71.8071
21
-169.724
0
LINE
8
BLACK
6
CONTINUOUS
10
71.8071
20
-169.724
11
71.6167
21
-169.629
0
LINE
8
BLACK
6
CONTINUOUS
10
71.6167
20
-169.629
11
71.331
21
-169.629
0
LINE
8
BLACK
6
CONTINUOUS
10
71.331
20
-169.629
11
71.1405
21
-169.533
0
LINE
8
BLACK
6
CONTINUOUS
10
71.1405
20
-169.533
11
71.0452
21
-169.343
0
LINE
8
BLACK
6
CONTINUOUS
10
71.0452
20
-169.343
11
71.0452
21
-169.248
0
LINE
8
BLACK
6
CONTINUOUS
10
71.0452
20
-169.248
11
71.1405
21
-169.057
0
LINE
8
BLACK
6
CONTINUOUS
10
71.1405
20
-169.057
11
71.331
21
-168.962
0
LINE
8
BLACK
6
CONTINUOUS
10
71.331
20
-168.962
11
71.6167
21
-168.962
0
LINE
8
BLACK
6
CONTINUOUS
10
71.6167
20
-168.962
11
71.8071
21
-169.057
0
LINE
8
BLACK
6
CONTINUOUS
10
72.5691
20
-171.057
11
72.6643
21
-170.962
0
LINE
8
BLACK
6
CONTINUOUS
10
72.6643
20
-170.962
11
72.8548
21
-170.676
0
LINE
8
BLACK
6
CONTINUOUS
10
72.8548
20
-170.676
11
72.95
21
-170.486
0
LINE
8
BLACK
6
CONTINUOUS
10
72.95
20
-170.486
11
73.0452
21
-170.2
0
LINE
8
BLACK
6
CONTINUOUS
10
73.0452
20
-170.2
11
73.1405
21
-169.724
0
LINE
8
BLACK
6
CONTINUOUS
10
73.1405
20
-169.724
11
73.1405
21
-169.343
0
LINE
8
BLACK
6
CONTINUOUS
10
73.1405
20
-169.343
11
73.0452
21
-168.867
0
LINE
8
BLACK
6
CONTINUOUS
10
73.0452
20
-168.867
11
72.95
21
-168.581
0
LINE
8
BLACK
6
CONTINUOUS
10
72.95
20
-168.581
11
72.8548
21
-168.39
0
LINE
8
BLACK
6
CONTINUOUS
10
72.8548
20
-168.39
11
72.6643
21
-168.105
0
LINE
8
BLACK
6
CONTINUOUS
10
72.6643
20
-168.105
11
72.5691
21
-168.01
  0
ENDSEC
  0
EOF
