M48
; DRILL file {KiCad (6.0.1)} date Tue Feb  1 16:24:11 2022
; FORMAT={-:-/ absolute / metric / decimal}
; #@! TF.CreationDate,2022-02-01T16:24:11+01:00
; #@! TF.GenerationSoftware,Kicad,Pcbnew,(6.0.1)
; #@! TF.FileFunction,Plated,1,2,PTH
FMAT,2
METRIC
; #@! TA.AperFunction,Plated,PTH,ViaDrill
T1C0.400
; #@! TA.AperFunction,Plated,PTH,ComponentDrill
T2C0.762
; #@! TA.AperFunction,Plated,PTH,ComponentDrill
T3C0.950
; #@! TA.AperFunction,Plated,PTH,ComponentDrill
T4C1.040
; #@! TA.AperFunction,Plated,PTH,ComponentDrill
T5C1.600
%
G90
G05
T1
X168.35Y-132.35
X182.5Y-141.1
X185.5Y-141.1
T2
X117.92Y-103.65
X117.92Y-106.19
X117.92Y-108.73
X117.92Y-111.27
X117.92Y-113.81
X117.92Y-116.35
T3
X188.5Y-136.925
X191.0Y-136.925
X193.5Y-136.925
T4
X133.31Y-102.3
X133.31Y-127.7
X135.85Y-102.3
X135.85Y-127.7
X138.39Y-102.3
X138.39Y-127.7
X140.93Y-102.3
X140.93Y-127.7
X143.47Y-102.3
X143.47Y-127.7
X146.01Y-102.3
X146.01Y-127.7
X148.55Y-102.3
X148.55Y-127.7
X151.09Y-102.3
X151.09Y-127.7
X153.63Y-102.3
X153.63Y-127.7
X156.17Y-102.3
X156.17Y-127.7
X158.71Y-102.3
X158.71Y-127.7
X161.25Y-102.3
X161.25Y-127.7
X163.79Y-102.3
X163.79Y-127.7
X166.33Y-102.3
X166.33Y-127.7
X168.87Y-102.3
X168.87Y-127.7
X171.41Y-102.3
X171.41Y-127.7
X173.95Y-102.3
X173.95Y-127.7
X176.49Y-102.3
X176.49Y-127.7
X179.03Y-102.3
X179.03Y-127.7
T5
X107.9Y-114.34
X107.9Y-119.42
X107.9Y-124.5
X107.9Y-129.58
X107.9Y-134.66
X119.0Y-123.84
X119.0Y-128.92
X119.0Y-134.0
X119.0Y-139.08
X119.0Y-144.16
X194.5Y-112.88
X194.5Y-117.96
X194.5Y-123.04
X194.5Y-128.12
T0
M30
