%TF.GenerationSoftware,KiCad,Pcbnew,(6.0.1)*%
%TF.CreationDate,2022-02-01T16:24:05+01:00*%
%TF.ProjectId,Drawer_Controller,44726177-6572-45f4-936f-6e74726f6c6c,rev?*%
%TF.SameCoordinates,Original*%
%TF.FileFunction,Legend,Bot*%
%TF.FilePolarity,Positive*%
%FSLAX46Y46*%
G04 Gerber Fmt 4.6, Leading zero omitted, Abs format (unit mm)*
G04 Created by KiCad (PCBNEW (6.0.1)) date 2022-02-01 16:24:05*
%MOMM*%
%LPD*%
G01*
G04 APERTURE LIST*
G04 Aperture macros list*
%AMRoundRect*
0 Rectangle with rounded corners*
0 $1 Rounding radius*
0 $2 $3 $4 $5 $6 $7 $8 $9 X,Y pos of 4 corners*
0 Add a 4 corners polygon primitive as box body*
4,1,4,$2,$3,$4,$5,$6,$7,$8,$9,$2,$3,0*
0 Add four circle primitives for the rounded corners*
1,1,$1+$1,$2,$3*
1,1,$1+$1,$4,$5*
1,1,$1+$1,$6,$7*
1,1,$1+$1,$8,$9*
0 Add four rect primitives between the rounded corners*
20,1,$1+$1,$2,$3,$4,$5,0*
20,1,$1+$1,$4,$5,$6,$7,0*
20,1,$1+$1,$6,$7,$8,$9,0*
20,1,$1+$1,$8,$9,$2,$3,0*%
G04 Aperture macros list end*
%ADD10R,1.560000X1.560000*%
%ADD11C,1.560000*%
%ADD12C,2.400000*%
%ADD13C,1.524000*%
%ADD14C,4.300000*%
%ADD15RoundRect,0.250000X0.600000X0.725000X-0.600000X0.725000X-0.600000X-0.725000X0.600000X-0.725000X0*%
%ADD16O,1.700000X1.950000*%
G04 APERTURE END LIST*
%LPC*%
D10*
%TO.C,U1*%
X179030000Y-102300000D03*
D11*
X176490000Y-102300000D03*
X173950000Y-102300000D03*
X171410000Y-102300000D03*
X168870000Y-102300000D03*
X166330000Y-102300000D03*
X163790000Y-102300000D03*
X161250000Y-102300000D03*
X158710000Y-102300000D03*
X156170000Y-102300000D03*
X153630000Y-102300000D03*
X151090000Y-102300000D03*
X148550000Y-102300000D03*
X146010000Y-102300000D03*
X143470000Y-102300000D03*
X140930000Y-102300000D03*
X138390000Y-102300000D03*
X135850000Y-102300000D03*
X133310000Y-102300000D03*
X179030000Y-127700000D03*
X176490000Y-127700000D03*
X173950000Y-127700000D03*
X171410000Y-127700000D03*
X168870000Y-127700000D03*
X166330000Y-127700000D03*
X163790000Y-127700000D03*
X161250000Y-127700000D03*
X158710000Y-127700000D03*
X156170000Y-127700000D03*
X153630000Y-127700000D03*
X151090000Y-127700000D03*
X148550000Y-127700000D03*
X146010000Y-127700000D03*
X143470000Y-127700000D03*
X140930000Y-127700000D03*
X138390000Y-127700000D03*
X135850000Y-127700000D03*
X133310000Y-127700000D03*
%TD*%
D12*
%TO.C,J1*%
X107900000Y-134660000D03*
X107900000Y-129580000D03*
X107900000Y-124500000D03*
X107900000Y-119420000D03*
X107900000Y-114340000D03*
%TD*%
D13*
%TO.C,CAN1*%
X117920000Y-103650000D03*
X117920000Y-106190000D03*
X117920000Y-108730000D03*
X117920000Y-111270000D03*
X117920000Y-113810000D03*
X117920000Y-116350000D03*
%TD*%
D14*
%TO.C,H4*%
X197500000Y-145000000D03*
%TD*%
D12*
%TO.C,J3*%
X119000000Y-144160000D03*
X119000000Y-139080000D03*
X119000000Y-134000000D03*
X119000000Y-128920000D03*
X119000000Y-123840000D03*
%TD*%
D14*
%TO.C,H1*%
X108000000Y-105000000D03*
%TD*%
%TO.C,H2*%
X197500000Y-105000000D03*
%TD*%
%TO.C,H3*%
X108000000Y-145000000D03*
%TD*%
D15*
%TO.C,J2*%
X193500000Y-136925000D03*
D16*
X191000000Y-136925000D03*
X188500000Y-136925000D03*
%TD*%
D12*
%TO.C,J4*%
X194500000Y-112880000D03*
X194500000Y-117960000D03*
X194500000Y-123040000D03*
X194500000Y-128120000D03*
%TD*%
M02*
