%FSLAX45Y45*%
G04 Gerber Fmt 4.5, Leading zero omitted, Abs format (unit mm)*
G04 Created by KiCad (PCBNEW (6.0.1)) date 2022-02-01 16:24:12*
%MOMM*%
%LPD*%
G01*
G04 APERTURE LIST*
%TA.AperFunction,Profile*%
%ADD10C,0.100000*%
%TD*%
%ADD11C,0.200000*%
%ADD12C,0.040000*%
%ADD13C,0.076200*%
%ADD14C,0.095000*%
%ADD15C,0.104000*%
%ADD16C,0.160000*%
G04 APERTURE END LIST*
D10*
X20250000Y-15000000D02*
X10250000Y-15000000D01*
X10250000Y-15000000D02*
X10250000Y-10000000D01*
X10250000Y-10000000D02*
X20250000Y-10000000D01*
X20250000Y-10000000D02*
X20250000Y-15000000D01*
D11*
D12*
X16815000Y-13215000D02*
X16855000Y-13255000D01*
X16855000Y-13215000D02*
X16815000Y-13255000D01*
X18230000Y-14090000D02*
X18270000Y-14130000D01*
X18270000Y-14090000D02*
X18230000Y-14130000D01*
X18530000Y-14090000D02*
X18570000Y-14130000D01*
X18570000Y-14090000D02*
X18530000Y-14130000D01*
D13*
X11830100Y-10365000D02*
G75*
G03*
X11830100Y-10365000I-38100J0D01*
G01*
X11830100Y-10619000D02*
G75*
G03*
X11830100Y-10619000I-38100J0D01*
G01*
X11830100Y-10873000D02*
G75*
G03*
X11830100Y-10873000I-38100J0D01*
G01*
X11830100Y-11127000D02*
G75*
G03*
X11830100Y-11127000I-38100J0D01*
G01*
X11830100Y-11381000D02*
G75*
G03*
X11830100Y-11381000I-38100J0D01*
G01*
X11830100Y-11635000D02*
G75*
G03*
X11830100Y-11635000I-38100J0D01*
G01*
D14*
X18850000Y-13645000D02*
X18850000Y-13740000D01*
X18802500Y-13692500D02*
X18897500Y-13692500D01*
X19100000Y-13645000D02*
X19100000Y-13740000D01*
X19052500Y-13692500D02*
X19147500Y-13692500D01*
X19350000Y-13645000D02*
X19350000Y-13740000D01*
X19302500Y-13692500D02*
X19397500Y-13692500D01*
D15*
X13367770Y-10266770D02*
X13367770Y-10193230D01*
X13294230Y-10193230D01*
X13294230Y-10266770D01*
X13367770Y-10266770D01*
X13367770Y-12806770D02*
X13367770Y-12733230D01*
X13294230Y-12733230D01*
X13294230Y-12806770D01*
X13367770Y-12806770D01*
X13621770Y-10266770D02*
X13621770Y-10193230D01*
X13548230Y-10193230D01*
X13548230Y-10266770D01*
X13621770Y-10266770D01*
X13621770Y-12806770D02*
X13621770Y-12733230D01*
X13548230Y-12733230D01*
X13548230Y-12806770D01*
X13621770Y-12806770D01*
X13875770Y-10266770D02*
X13875770Y-10193230D01*
X13802230Y-10193230D01*
X13802230Y-10266770D01*
X13875770Y-10266770D01*
X13875770Y-12806770D02*
X13875770Y-12733230D01*
X13802230Y-12733230D01*
X13802230Y-12806770D01*
X13875770Y-12806770D01*
X14129770Y-10266770D02*
X14129770Y-10193230D01*
X14056230Y-10193230D01*
X14056230Y-10266770D01*
X14129770Y-10266770D01*
X14129770Y-12806770D02*
X14129770Y-12733230D01*
X14056230Y-12733230D01*
X14056230Y-12806770D01*
X14129770Y-12806770D01*
X14383770Y-10266770D02*
X14383770Y-10193230D01*
X14310230Y-10193230D01*
X14310230Y-10266770D01*
X14383770Y-10266770D01*
X14383770Y-12806770D02*
X14383770Y-12733230D01*
X14310230Y-12733230D01*
X14310230Y-12806770D01*
X14383770Y-12806770D01*
X14637770Y-10266770D02*
X14637770Y-10193230D01*
X14564230Y-10193230D01*
X14564230Y-10266770D01*
X14637770Y-10266770D01*
X14637770Y-12806770D02*
X14637770Y-12733230D01*
X14564230Y-12733230D01*
X14564230Y-12806770D01*
X14637770Y-12806770D01*
X14891770Y-10266770D02*
X14891770Y-10193230D01*
X14818230Y-10193230D01*
X14818230Y-10266770D01*
X14891770Y-10266770D01*
X14891770Y-12806770D02*
X14891770Y-12733230D01*
X14818230Y-12733230D01*
X14818230Y-12806770D01*
X14891770Y-12806770D01*
X15145770Y-10266770D02*
X15145770Y-10193230D01*
X15072230Y-10193230D01*
X15072230Y-10266770D01*
X15145770Y-10266770D01*
X15145770Y-12806770D02*
X15145770Y-12733230D01*
X15072230Y-12733230D01*
X15072230Y-12806770D01*
X15145770Y-12806770D01*
X15399770Y-10266770D02*
X15399770Y-10193230D01*
X15326230Y-10193230D01*
X15326230Y-10266770D01*
X15399770Y-10266770D01*
X15399770Y-12806770D02*
X15399770Y-12733230D01*
X15326230Y-12733230D01*
X15326230Y-12806770D01*
X15399770Y-12806770D01*
X15653770Y-10266770D02*
X15653770Y-10193230D01*
X15580230Y-10193230D01*
X15580230Y-10266770D01*
X15653770Y-10266770D01*
X15653770Y-12806770D02*
X15653770Y-12733230D01*
X15580230Y-12733230D01*
X15580230Y-12806770D01*
X15653770Y-12806770D01*
X15907770Y-10266770D02*
X15907770Y-10193230D01*
X15834230Y-10193230D01*
X15834230Y-10266770D01*
X15907770Y-10266770D01*
X15907770Y-12806770D02*
X15907770Y-12733230D01*
X15834230Y-12733230D01*
X15834230Y-12806770D01*
X15907770Y-12806770D01*
X16161770Y-10266770D02*
X16161770Y-10193230D01*
X16088230Y-10193230D01*
X16088230Y-10266770D01*
X16161770Y-10266770D01*
X16161770Y-12806770D02*
X16161770Y-12733230D01*
X16088230Y-12733230D01*
X16088230Y-12806770D01*
X16161770Y-12806770D01*
X16415770Y-10266770D02*
X16415770Y-10193230D01*
X16342230Y-10193230D01*
X16342230Y-10266770D01*
X16415770Y-10266770D01*
X16415770Y-12806770D02*
X16415770Y-12733230D01*
X16342230Y-12733230D01*
X16342230Y-12806770D01*
X16415770Y-12806770D01*
X16669770Y-10266770D02*
X16669770Y-10193230D01*
X16596230Y-10193230D01*
X16596230Y-10266770D01*
X16669770Y-10266770D01*
X16669770Y-12806770D02*
X16669770Y-12733230D01*
X16596230Y-12733230D01*
X16596230Y-12806770D01*
X16669770Y-12806770D01*
X16923770Y-10266770D02*
X16923770Y-10193230D01*
X16850230Y-10193230D01*
X16850230Y-10266770D01*
X16923770Y-10266770D01*
X16923770Y-12806770D02*
X16923770Y-12733230D01*
X16850230Y-12733230D01*
X16850230Y-12806770D01*
X16923770Y-12806770D01*
X17177770Y-10266770D02*
X17177770Y-10193230D01*
X17104230Y-10193230D01*
X17104230Y-10266770D01*
X17177770Y-10266770D01*
X17177770Y-12806770D02*
X17177770Y-12733230D01*
X17104230Y-12733230D01*
X17104230Y-12806770D01*
X17177770Y-12806770D01*
X17431770Y-10266770D02*
X17431770Y-10193230D01*
X17358230Y-10193230D01*
X17358230Y-10266770D01*
X17431770Y-10266770D01*
X17431770Y-12806770D02*
X17431770Y-12733230D01*
X17358230Y-12733230D01*
X17358230Y-12806770D01*
X17431770Y-12806770D01*
X17685770Y-10266770D02*
X17685770Y-10193230D01*
X17612230Y-10193230D01*
X17612230Y-10266770D01*
X17685770Y-10266770D01*
X17685770Y-12806770D02*
X17685770Y-12733230D01*
X17612230Y-12733230D01*
X17612230Y-12806770D01*
X17685770Y-12806770D01*
X17939770Y-10266770D02*
X17939770Y-10193230D01*
X17866230Y-10193230D01*
X17866230Y-10266770D01*
X17939770Y-10266770D01*
X17939770Y-12806770D02*
X17939770Y-12733230D01*
X17866230Y-12733230D01*
X17866230Y-12806770D01*
X17939770Y-12806770D01*
D16*
X10790000Y-11514000D02*
X10870000Y-11434000D01*
X10790000Y-11354000D01*
X10710000Y-11434000D01*
X10790000Y-11514000D01*
X10790000Y-12022000D02*
X10870000Y-11942000D01*
X10790000Y-11862000D01*
X10710000Y-11942000D01*
X10790000Y-12022000D01*
X10790000Y-12530000D02*
X10870000Y-12450000D01*
X10790000Y-12370000D01*
X10710000Y-12450000D01*
X10790000Y-12530000D01*
X10790000Y-13038000D02*
X10870000Y-12958000D01*
X10790000Y-12878000D01*
X10710000Y-12958000D01*
X10790000Y-13038000D01*
X10790000Y-13546000D02*
X10870000Y-13466000D01*
X10790000Y-13386000D01*
X10710000Y-13466000D01*
X10790000Y-13546000D01*
X11900000Y-12464000D02*
X11980000Y-12384000D01*
X11900000Y-12304000D01*
X11820000Y-12384000D01*
X11900000Y-12464000D01*
X11900000Y-12972000D02*
X11980000Y-12892000D01*
X11900000Y-12812000D01*
X11820000Y-12892000D01*
X11900000Y-12972000D01*
X11900000Y-13480000D02*
X11980000Y-13400000D01*
X11900000Y-13320000D01*
X11820000Y-13400000D01*
X11900000Y-13480000D01*
X11900000Y-13988000D02*
X11980000Y-13908000D01*
X11900000Y-13828000D01*
X11820000Y-13908000D01*
X11900000Y-13988000D01*
X11900000Y-14496000D02*
X11980000Y-14416000D01*
X11900000Y-14336000D01*
X11820000Y-14416000D01*
X11900000Y-14496000D01*
X19450000Y-11368000D02*
X19530000Y-11288000D01*
X19450000Y-11208000D01*
X19370000Y-11288000D01*
X19450000Y-11368000D01*
X19450000Y-11876000D02*
X19530000Y-11796000D01*
X19450000Y-11716000D01*
X19370000Y-11796000D01*
X19450000Y-11876000D01*
X19450000Y-12384000D02*
X19530000Y-12304000D01*
X19450000Y-12224000D01*
X19370000Y-12304000D01*
X19450000Y-12384000D01*
X19450000Y-12892000D02*
X19530000Y-12812000D01*
X19450000Y-12732000D01*
X19370000Y-12812000D01*
X19450000Y-12892000D01*
D11*
X10502619Y-15315476D02*
X10502619Y-15115476D01*
X10550238Y-15115476D01*
X10578810Y-15125000D01*
X10597857Y-15144048D01*
X10607381Y-15163095D01*
X10616905Y-15201190D01*
X10616905Y-15229762D01*
X10607381Y-15267857D01*
X10597857Y-15286905D01*
X10578810Y-15305952D01*
X10550238Y-15315476D01*
X10502619Y-15315476D01*
X10702619Y-15315476D02*
X10702619Y-15182143D01*
X10702619Y-15220238D02*
X10712143Y-15201190D01*
X10721667Y-15191667D01*
X10740714Y-15182143D01*
X10759762Y-15182143D01*
X10826429Y-15315476D02*
X10826429Y-15182143D01*
X10826429Y-15115476D02*
X10816905Y-15125000D01*
X10826429Y-15134524D01*
X10835952Y-15125000D01*
X10826429Y-15115476D01*
X10826429Y-15134524D01*
X10950238Y-15315476D02*
X10931190Y-15305952D01*
X10921667Y-15286905D01*
X10921667Y-15115476D01*
X11055000Y-15315476D02*
X11035952Y-15305952D01*
X11026429Y-15286905D01*
X11026429Y-15115476D01*
X11283571Y-15315476D02*
X11283571Y-15115476D01*
X11350238Y-15258333D01*
X11416905Y-15115476D01*
X11416905Y-15315476D01*
X11597857Y-15315476D02*
X11597857Y-15210714D01*
X11588333Y-15191667D01*
X11569286Y-15182143D01*
X11531190Y-15182143D01*
X11512143Y-15191667D01*
X11597857Y-15305952D02*
X11578809Y-15315476D01*
X11531190Y-15315476D01*
X11512143Y-15305952D01*
X11502619Y-15286905D01*
X11502619Y-15267857D01*
X11512143Y-15248809D01*
X11531190Y-15239286D01*
X11578809Y-15239286D01*
X11597857Y-15229762D01*
X11693095Y-15182143D02*
X11693095Y-15382143D01*
X11693095Y-15191667D02*
X11712143Y-15182143D01*
X11750238Y-15182143D01*
X11769286Y-15191667D01*
X11778809Y-15201190D01*
X11788333Y-15220238D01*
X11788333Y-15277381D01*
X11778809Y-15296428D01*
X11769286Y-15305952D01*
X11750238Y-15315476D01*
X11712143Y-15315476D01*
X11693095Y-15305952D01*
X11874048Y-15296428D02*
X11883571Y-15305952D01*
X11874048Y-15315476D01*
X11864524Y-15305952D01*
X11874048Y-15296428D01*
X11874048Y-15315476D01*
X11874048Y-15191667D02*
X11883571Y-15201190D01*
X11874048Y-15210714D01*
X11864524Y-15201190D01*
X11874048Y-15191667D01*
X11874048Y-15210714D01*
D12*
X10205000Y-15625000D02*
X10245000Y-15665000D01*
X10245000Y-15625000D02*
X10205000Y-15665000D01*
D11*
X10540714Y-15535476D02*
X10559762Y-15535476D01*
X10578810Y-15545000D01*
X10588333Y-15554524D01*
X10597857Y-15573571D01*
X10607381Y-15611667D01*
X10607381Y-15659286D01*
X10597857Y-15697381D01*
X10588333Y-15716428D01*
X10578810Y-15725952D01*
X10559762Y-15735476D01*
X10540714Y-15735476D01*
X10521667Y-15725952D01*
X10512143Y-15716428D01*
X10502619Y-15697381D01*
X10493095Y-15659286D01*
X10493095Y-15611667D01*
X10502619Y-15573571D01*
X10512143Y-15554524D01*
X10521667Y-15545000D01*
X10540714Y-15535476D01*
X10693095Y-15716428D02*
X10702619Y-15725952D01*
X10693095Y-15735476D01*
X10683571Y-15725952D01*
X10693095Y-15716428D01*
X10693095Y-15735476D01*
X10874048Y-15602143D02*
X10874048Y-15735476D01*
X10826429Y-15525952D02*
X10778810Y-15668809D01*
X10902619Y-15668809D01*
X11016905Y-15535476D02*
X11035952Y-15535476D01*
X11055000Y-15545000D01*
X11064524Y-15554524D01*
X11074048Y-15573571D01*
X11083571Y-15611667D01*
X11083571Y-15659286D01*
X11074048Y-15697381D01*
X11064524Y-15716428D01*
X11055000Y-15725952D01*
X11035952Y-15735476D01*
X11016905Y-15735476D01*
X10997857Y-15725952D01*
X10988333Y-15716428D01*
X10978810Y-15697381D01*
X10969286Y-15659286D01*
X10969286Y-15611667D01*
X10978810Y-15573571D01*
X10988333Y-15554524D01*
X10997857Y-15545000D01*
X11016905Y-15535476D01*
X11207381Y-15535476D02*
X11226428Y-15535476D01*
X11245476Y-15545000D01*
X11255000Y-15554524D01*
X11264524Y-15573571D01*
X11274048Y-15611667D01*
X11274048Y-15659286D01*
X11264524Y-15697381D01*
X11255000Y-15716428D01*
X11245476Y-15725952D01*
X11226428Y-15735476D01*
X11207381Y-15735476D01*
X11188333Y-15725952D01*
X11178810Y-15716428D01*
X11169286Y-15697381D01*
X11159762Y-15659286D01*
X11159762Y-15611667D01*
X11169286Y-15573571D01*
X11178810Y-15554524D01*
X11188333Y-15545000D01*
X11207381Y-15535476D01*
X11359762Y-15735476D02*
X11359762Y-15602143D01*
X11359762Y-15621190D02*
X11369286Y-15611667D01*
X11388333Y-15602143D01*
X11416905Y-15602143D01*
X11435952Y-15611667D01*
X11445476Y-15630714D01*
X11445476Y-15735476D01*
X11445476Y-15630714D02*
X11455000Y-15611667D01*
X11474048Y-15602143D01*
X11502619Y-15602143D01*
X11521667Y-15611667D01*
X11531190Y-15630714D01*
X11531190Y-15735476D01*
X11626428Y-15735476D02*
X11626428Y-15602143D01*
X11626428Y-15621190D02*
X11635952Y-15611667D01*
X11655000Y-15602143D01*
X11683571Y-15602143D01*
X11702619Y-15611667D01*
X11712143Y-15630714D01*
X11712143Y-15735476D01*
X11712143Y-15630714D02*
X11721667Y-15611667D01*
X11740714Y-15602143D01*
X11769286Y-15602143D01*
X11788333Y-15611667D01*
X11797857Y-15630714D01*
X11797857Y-15735476D01*
X12188333Y-15525952D02*
X12016905Y-15783095D01*
X12445476Y-15535476D02*
X12464524Y-15535476D01*
X12483571Y-15545000D01*
X12493095Y-15554524D01*
X12502619Y-15573571D01*
X12512143Y-15611667D01*
X12512143Y-15659286D01*
X12502619Y-15697381D01*
X12493095Y-15716428D01*
X12483571Y-15725952D01*
X12464524Y-15735476D01*
X12445476Y-15735476D01*
X12426428Y-15725952D01*
X12416905Y-15716428D01*
X12407381Y-15697381D01*
X12397857Y-15659286D01*
X12397857Y-15611667D01*
X12407381Y-15573571D01*
X12416905Y-15554524D01*
X12426428Y-15545000D01*
X12445476Y-15535476D01*
X12597857Y-15716428D02*
X12607381Y-15725952D01*
X12597857Y-15735476D01*
X12588333Y-15725952D01*
X12597857Y-15716428D01*
X12597857Y-15735476D01*
X12731190Y-15535476D02*
X12750238Y-15535476D01*
X12769286Y-15545000D01*
X12778809Y-15554524D01*
X12788333Y-15573571D01*
X12797857Y-15611667D01*
X12797857Y-15659286D01*
X12788333Y-15697381D01*
X12778809Y-15716428D01*
X12769286Y-15725952D01*
X12750238Y-15735476D01*
X12731190Y-15735476D01*
X12712143Y-15725952D01*
X12702619Y-15716428D01*
X12693095Y-15697381D01*
X12683571Y-15659286D01*
X12683571Y-15611667D01*
X12693095Y-15573571D01*
X12702619Y-15554524D01*
X12712143Y-15545000D01*
X12731190Y-15535476D01*
X12988333Y-15735476D02*
X12874048Y-15735476D01*
X12931190Y-15735476D02*
X12931190Y-15535476D01*
X12912143Y-15564048D01*
X12893095Y-15583095D01*
X12874048Y-15592619D01*
X13169286Y-15535476D02*
X13074048Y-15535476D01*
X13064524Y-15630714D01*
X13074048Y-15621190D01*
X13093095Y-15611667D01*
X13140714Y-15611667D01*
X13159762Y-15621190D01*
X13169286Y-15630714D01*
X13178809Y-15649762D01*
X13178809Y-15697381D01*
X13169286Y-15716428D01*
X13159762Y-15725952D01*
X13140714Y-15735476D01*
X13093095Y-15735476D01*
X13074048Y-15725952D01*
X13064524Y-15716428D01*
X13245476Y-15535476D02*
X13378809Y-15535476D01*
X13293095Y-15735476D01*
X13445476Y-15535476D02*
X13445476Y-15573571D01*
X13521667Y-15535476D02*
X13521667Y-15573571D01*
X13816905Y-15811667D02*
X13807381Y-15802143D01*
X13788333Y-15773571D01*
X13778809Y-15754524D01*
X13769286Y-15725952D01*
X13759762Y-15678333D01*
X13759762Y-15640238D01*
X13769286Y-15592619D01*
X13778809Y-15564048D01*
X13788333Y-15545000D01*
X13807381Y-15516428D01*
X13816905Y-15506905D01*
X13874048Y-15535476D02*
X13997857Y-15535476D01*
X13931190Y-15611667D01*
X13959762Y-15611667D01*
X13978809Y-15621190D01*
X13988333Y-15630714D01*
X13997857Y-15649762D01*
X13997857Y-15697381D01*
X13988333Y-15716428D01*
X13978809Y-15725952D01*
X13959762Y-15735476D01*
X13902619Y-15735476D01*
X13883571Y-15725952D01*
X13874048Y-15716428D01*
X14235952Y-15735476D02*
X14235952Y-15535476D01*
X14321667Y-15735476D02*
X14321667Y-15630714D01*
X14312143Y-15611667D01*
X14293095Y-15602143D01*
X14264524Y-15602143D01*
X14245476Y-15611667D01*
X14235952Y-15621190D01*
X14445476Y-15735476D02*
X14426428Y-15725952D01*
X14416905Y-15716428D01*
X14407381Y-15697381D01*
X14407381Y-15640238D01*
X14416905Y-15621190D01*
X14426428Y-15611667D01*
X14445476Y-15602143D01*
X14474048Y-15602143D01*
X14493095Y-15611667D01*
X14502619Y-15621190D01*
X14512143Y-15640238D01*
X14512143Y-15697381D01*
X14502619Y-15716428D01*
X14493095Y-15725952D01*
X14474048Y-15735476D01*
X14445476Y-15735476D01*
X14626428Y-15735476D02*
X14607381Y-15725952D01*
X14597857Y-15706905D01*
X14597857Y-15535476D01*
X14778809Y-15725952D02*
X14759762Y-15735476D01*
X14721667Y-15735476D01*
X14702619Y-15725952D01*
X14693095Y-15706905D01*
X14693095Y-15630714D01*
X14702619Y-15611667D01*
X14721667Y-15602143D01*
X14759762Y-15602143D01*
X14778809Y-15611667D01*
X14788333Y-15630714D01*
X14788333Y-15649762D01*
X14693095Y-15668809D01*
X14864524Y-15725952D02*
X14883571Y-15735476D01*
X14921667Y-15735476D01*
X14940714Y-15725952D01*
X14950238Y-15706905D01*
X14950238Y-15697381D01*
X14940714Y-15678333D01*
X14921667Y-15668809D01*
X14893095Y-15668809D01*
X14874048Y-15659286D01*
X14864524Y-15640238D01*
X14864524Y-15630714D01*
X14874048Y-15611667D01*
X14893095Y-15602143D01*
X14921667Y-15602143D01*
X14940714Y-15611667D01*
X15016905Y-15811667D02*
X15026428Y-15802143D01*
X15045476Y-15773571D01*
X15055000Y-15754524D01*
X15064524Y-15725952D01*
X15074048Y-15678333D01*
X15074048Y-15640238D01*
X15064524Y-15592619D01*
X15055000Y-15564048D01*
X15045476Y-15545000D01*
X15026428Y-15516428D01*
X15016905Y-15506905D01*
D13*
X10245000Y-15909000D02*
G75*
G03*
X10245000Y-15909000I-38100J0D01*
G01*
D11*
X10540714Y-15799476D02*
X10559762Y-15799476D01*
X10578810Y-15809000D01*
X10588333Y-15818524D01*
X10597857Y-15837571D01*
X10607381Y-15875667D01*
X10607381Y-15923286D01*
X10597857Y-15961381D01*
X10588333Y-15980428D01*
X10578810Y-15989952D01*
X10559762Y-15999476D01*
X10540714Y-15999476D01*
X10521667Y-15989952D01*
X10512143Y-15980428D01*
X10502619Y-15961381D01*
X10493095Y-15923286D01*
X10493095Y-15875667D01*
X10502619Y-15837571D01*
X10512143Y-15818524D01*
X10521667Y-15809000D01*
X10540714Y-15799476D01*
X10693095Y-15980428D02*
X10702619Y-15989952D01*
X10693095Y-15999476D01*
X10683571Y-15989952D01*
X10693095Y-15980428D01*
X10693095Y-15999476D01*
X10769286Y-15799476D02*
X10902619Y-15799476D01*
X10816905Y-15999476D01*
X11064524Y-15799476D02*
X11026429Y-15799476D01*
X11007381Y-15809000D01*
X10997857Y-15818524D01*
X10978810Y-15847095D01*
X10969286Y-15885190D01*
X10969286Y-15961381D01*
X10978810Y-15980428D01*
X10988333Y-15989952D01*
X11007381Y-15999476D01*
X11045476Y-15999476D01*
X11064524Y-15989952D01*
X11074048Y-15980428D01*
X11083571Y-15961381D01*
X11083571Y-15913762D01*
X11074048Y-15894714D01*
X11064524Y-15885190D01*
X11045476Y-15875667D01*
X11007381Y-15875667D01*
X10988333Y-15885190D01*
X10978810Y-15894714D01*
X10969286Y-15913762D01*
X11159762Y-15818524D02*
X11169286Y-15809000D01*
X11188333Y-15799476D01*
X11235952Y-15799476D01*
X11255000Y-15809000D01*
X11264524Y-15818524D01*
X11274048Y-15837571D01*
X11274048Y-15856619D01*
X11264524Y-15885190D01*
X11150238Y-15999476D01*
X11274048Y-15999476D01*
X11359762Y-15999476D02*
X11359762Y-15866143D01*
X11359762Y-15885190D02*
X11369286Y-15875667D01*
X11388333Y-15866143D01*
X11416905Y-15866143D01*
X11435952Y-15875667D01*
X11445476Y-15894714D01*
X11445476Y-15999476D01*
X11445476Y-15894714D02*
X11455000Y-15875667D01*
X11474048Y-15866143D01*
X11502619Y-15866143D01*
X11521667Y-15875667D01*
X11531190Y-15894714D01*
X11531190Y-15999476D01*
X11626428Y-15999476D02*
X11626428Y-15866143D01*
X11626428Y-15885190D02*
X11635952Y-15875667D01*
X11655000Y-15866143D01*
X11683571Y-15866143D01*
X11702619Y-15875667D01*
X11712143Y-15894714D01*
X11712143Y-15999476D01*
X11712143Y-15894714D02*
X11721667Y-15875667D01*
X11740714Y-15866143D01*
X11769286Y-15866143D01*
X11788333Y-15875667D01*
X11797857Y-15894714D01*
X11797857Y-15999476D01*
X12188333Y-15789952D02*
X12016905Y-16047095D01*
X12445476Y-15799476D02*
X12464524Y-15799476D01*
X12483571Y-15809000D01*
X12493095Y-15818524D01*
X12502619Y-15837571D01*
X12512143Y-15875667D01*
X12512143Y-15923286D01*
X12502619Y-15961381D01*
X12493095Y-15980428D01*
X12483571Y-15989952D01*
X12464524Y-15999476D01*
X12445476Y-15999476D01*
X12426428Y-15989952D01*
X12416905Y-15980428D01*
X12407381Y-15961381D01*
X12397857Y-15923286D01*
X12397857Y-15875667D01*
X12407381Y-15837571D01*
X12416905Y-15818524D01*
X12426428Y-15809000D01*
X12445476Y-15799476D01*
X12597857Y-15980428D02*
X12607381Y-15989952D01*
X12597857Y-15999476D01*
X12588333Y-15989952D01*
X12597857Y-15980428D01*
X12597857Y-15999476D01*
X12731190Y-15799476D02*
X12750238Y-15799476D01*
X12769286Y-15809000D01*
X12778809Y-15818524D01*
X12788333Y-15837571D01*
X12797857Y-15875667D01*
X12797857Y-15923286D01*
X12788333Y-15961381D01*
X12778809Y-15980428D01*
X12769286Y-15989952D01*
X12750238Y-15999476D01*
X12731190Y-15999476D01*
X12712143Y-15989952D01*
X12702619Y-15980428D01*
X12693095Y-15961381D01*
X12683571Y-15923286D01*
X12683571Y-15875667D01*
X12693095Y-15837571D01*
X12702619Y-15818524D01*
X12712143Y-15809000D01*
X12731190Y-15799476D01*
X12864524Y-15799476D02*
X12988333Y-15799476D01*
X12921667Y-15875667D01*
X12950238Y-15875667D01*
X12969286Y-15885190D01*
X12978809Y-15894714D01*
X12988333Y-15913762D01*
X12988333Y-15961381D01*
X12978809Y-15980428D01*
X12969286Y-15989952D01*
X12950238Y-15999476D01*
X12893095Y-15999476D01*
X12874048Y-15989952D01*
X12864524Y-15980428D01*
X13112143Y-15799476D02*
X13131190Y-15799476D01*
X13150238Y-15809000D01*
X13159762Y-15818524D01*
X13169286Y-15837571D01*
X13178809Y-15875667D01*
X13178809Y-15923286D01*
X13169286Y-15961381D01*
X13159762Y-15980428D01*
X13150238Y-15989952D01*
X13131190Y-15999476D01*
X13112143Y-15999476D01*
X13093095Y-15989952D01*
X13083571Y-15980428D01*
X13074048Y-15961381D01*
X13064524Y-15923286D01*
X13064524Y-15875667D01*
X13074048Y-15837571D01*
X13083571Y-15818524D01*
X13093095Y-15809000D01*
X13112143Y-15799476D01*
X13302619Y-15799476D02*
X13321667Y-15799476D01*
X13340714Y-15809000D01*
X13350238Y-15818524D01*
X13359762Y-15837571D01*
X13369286Y-15875667D01*
X13369286Y-15923286D01*
X13359762Y-15961381D01*
X13350238Y-15980428D01*
X13340714Y-15989952D01*
X13321667Y-15999476D01*
X13302619Y-15999476D01*
X13283571Y-15989952D01*
X13274048Y-15980428D01*
X13264524Y-15961381D01*
X13255000Y-15923286D01*
X13255000Y-15875667D01*
X13264524Y-15837571D01*
X13274048Y-15818524D01*
X13283571Y-15809000D01*
X13302619Y-15799476D01*
X13445476Y-15799476D02*
X13445476Y-15837571D01*
X13521667Y-15799476D02*
X13521667Y-15837571D01*
X13816905Y-16075667D02*
X13807381Y-16066143D01*
X13788333Y-16037571D01*
X13778809Y-16018524D01*
X13769286Y-15989952D01*
X13759762Y-15942333D01*
X13759762Y-15904238D01*
X13769286Y-15856619D01*
X13778809Y-15828048D01*
X13788333Y-15809000D01*
X13807381Y-15780428D01*
X13816905Y-15770905D01*
X13978809Y-15799476D02*
X13940714Y-15799476D01*
X13921667Y-15809000D01*
X13912143Y-15818524D01*
X13893095Y-15847095D01*
X13883571Y-15885190D01*
X13883571Y-15961381D01*
X13893095Y-15980428D01*
X13902619Y-15989952D01*
X13921667Y-15999476D01*
X13959762Y-15999476D01*
X13978809Y-15989952D01*
X13988333Y-15980428D01*
X13997857Y-15961381D01*
X13997857Y-15913762D01*
X13988333Y-15894714D01*
X13978809Y-15885190D01*
X13959762Y-15875667D01*
X13921667Y-15875667D01*
X13902619Y-15885190D01*
X13893095Y-15894714D01*
X13883571Y-15913762D01*
X14235952Y-15999476D02*
X14235952Y-15799476D01*
X14321667Y-15999476D02*
X14321667Y-15894714D01*
X14312143Y-15875667D01*
X14293095Y-15866143D01*
X14264524Y-15866143D01*
X14245476Y-15875667D01*
X14235952Y-15885190D01*
X14445476Y-15999476D02*
X14426428Y-15989952D01*
X14416905Y-15980428D01*
X14407381Y-15961381D01*
X14407381Y-15904238D01*
X14416905Y-15885190D01*
X14426428Y-15875667D01*
X14445476Y-15866143D01*
X14474048Y-15866143D01*
X14493095Y-15875667D01*
X14502619Y-15885190D01*
X14512143Y-15904238D01*
X14512143Y-15961381D01*
X14502619Y-15980428D01*
X14493095Y-15989952D01*
X14474048Y-15999476D01*
X14445476Y-15999476D01*
X14626428Y-15999476D02*
X14607381Y-15989952D01*
X14597857Y-15970905D01*
X14597857Y-15799476D01*
X14778809Y-15989952D02*
X14759762Y-15999476D01*
X14721667Y-15999476D01*
X14702619Y-15989952D01*
X14693095Y-15970905D01*
X14693095Y-15894714D01*
X14702619Y-15875667D01*
X14721667Y-15866143D01*
X14759762Y-15866143D01*
X14778809Y-15875667D01*
X14788333Y-15894714D01*
X14788333Y-15913762D01*
X14693095Y-15932809D01*
X14864524Y-15989952D02*
X14883571Y-15999476D01*
X14921667Y-15999476D01*
X14940714Y-15989952D01*
X14950238Y-15970905D01*
X14950238Y-15961381D01*
X14940714Y-15942333D01*
X14921667Y-15932809D01*
X14893095Y-15932809D01*
X14874048Y-15923286D01*
X14864524Y-15904238D01*
X14864524Y-15894714D01*
X14874048Y-15875667D01*
X14893095Y-15866143D01*
X14921667Y-15866143D01*
X14940714Y-15875667D01*
X15016905Y-16075667D02*
X15026428Y-16066143D01*
X15045476Y-16037571D01*
X15055000Y-16018524D01*
X15064524Y-15989952D01*
X15074048Y-15942333D01*
X15074048Y-15904238D01*
X15064524Y-15856619D01*
X15055000Y-15828048D01*
X15045476Y-15809000D01*
X15026428Y-15780428D01*
X15016905Y-15770905D01*
D14*
X10197500Y-16125500D02*
X10197500Y-16220500D01*
X10150000Y-16173000D02*
X10245000Y-16173000D01*
D11*
X10540714Y-16063476D02*
X10559762Y-16063476D01*
X10578810Y-16073000D01*
X10588333Y-16082524D01*
X10597857Y-16101571D01*
X10607381Y-16139667D01*
X10607381Y-16187286D01*
X10597857Y-16225381D01*
X10588333Y-16244428D01*
X10578810Y-16253952D01*
X10559762Y-16263476D01*
X10540714Y-16263476D01*
X10521667Y-16253952D01*
X10512143Y-16244428D01*
X10502619Y-16225381D01*
X10493095Y-16187286D01*
X10493095Y-16139667D01*
X10502619Y-16101571D01*
X10512143Y-16082524D01*
X10521667Y-16073000D01*
X10540714Y-16063476D01*
X10693095Y-16244428D02*
X10702619Y-16253952D01*
X10693095Y-16263476D01*
X10683571Y-16253952D01*
X10693095Y-16244428D01*
X10693095Y-16263476D01*
X10797857Y-16263476D02*
X10835952Y-16263476D01*
X10855000Y-16253952D01*
X10864524Y-16244428D01*
X10883571Y-16215857D01*
X10893095Y-16177762D01*
X10893095Y-16101571D01*
X10883571Y-16082524D01*
X10874048Y-16073000D01*
X10855000Y-16063476D01*
X10816905Y-16063476D01*
X10797857Y-16073000D01*
X10788333Y-16082524D01*
X10778810Y-16101571D01*
X10778810Y-16149190D01*
X10788333Y-16168238D01*
X10797857Y-16177762D01*
X10816905Y-16187286D01*
X10855000Y-16187286D01*
X10874048Y-16177762D01*
X10883571Y-16168238D01*
X10893095Y-16149190D01*
X11074048Y-16063476D02*
X10978810Y-16063476D01*
X10969286Y-16158714D01*
X10978810Y-16149190D01*
X10997857Y-16139667D01*
X11045476Y-16139667D01*
X11064524Y-16149190D01*
X11074048Y-16158714D01*
X11083571Y-16177762D01*
X11083571Y-16225381D01*
X11074048Y-16244428D01*
X11064524Y-16253952D01*
X11045476Y-16263476D01*
X10997857Y-16263476D01*
X10978810Y-16253952D01*
X10969286Y-16244428D01*
X11207381Y-16063476D02*
X11226428Y-16063476D01*
X11245476Y-16073000D01*
X11255000Y-16082524D01*
X11264524Y-16101571D01*
X11274048Y-16139667D01*
X11274048Y-16187286D01*
X11264524Y-16225381D01*
X11255000Y-16244428D01*
X11245476Y-16253952D01*
X11226428Y-16263476D01*
X11207381Y-16263476D01*
X11188333Y-16253952D01*
X11178810Y-16244428D01*
X11169286Y-16225381D01*
X11159762Y-16187286D01*
X11159762Y-16139667D01*
X11169286Y-16101571D01*
X11178810Y-16082524D01*
X11188333Y-16073000D01*
X11207381Y-16063476D01*
X11359762Y-16263476D02*
X11359762Y-16130143D01*
X11359762Y-16149190D02*
X11369286Y-16139667D01*
X11388333Y-16130143D01*
X11416905Y-16130143D01*
X11435952Y-16139667D01*
X11445476Y-16158714D01*
X11445476Y-16263476D01*
X11445476Y-16158714D02*
X11455000Y-16139667D01*
X11474048Y-16130143D01*
X11502619Y-16130143D01*
X11521667Y-16139667D01*
X11531190Y-16158714D01*
X11531190Y-16263476D01*
X11626428Y-16263476D02*
X11626428Y-16130143D01*
X11626428Y-16149190D02*
X11635952Y-16139667D01*
X11655000Y-16130143D01*
X11683571Y-16130143D01*
X11702619Y-16139667D01*
X11712143Y-16158714D01*
X11712143Y-16263476D01*
X11712143Y-16158714D02*
X11721667Y-16139667D01*
X11740714Y-16130143D01*
X11769286Y-16130143D01*
X11788333Y-16139667D01*
X11797857Y-16158714D01*
X11797857Y-16263476D01*
X12188333Y-16053952D02*
X12016905Y-16311095D01*
X12445476Y-16063476D02*
X12464524Y-16063476D01*
X12483571Y-16073000D01*
X12493095Y-16082524D01*
X12502619Y-16101571D01*
X12512143Y-16139667D01*
X12512143Y-16187286D01*
X12502619Y-16225381D01*
X12493095Y-16244428D01*
X12483571Y-16253952D01*
X12464524Y-16263476D01*
X12445476Y-16263476D01*
X12426428Y-16253952D01*
X12416905Y-16244428D01*
X12407381Y-16225381D01*
X12397857Y-16187286D01*
X12397857Y-16139667D01*
X12407381Y-16101571D01*
X12416905Y-16082524D01*
X12426428Y-16073000D01*
X12445476Y-16063476D01*
X12597857Y-16244428D02*
X12607381Y-16253952D01*
X12597857Y-16263476D01*
X12588333Y-16253952D01*
X12597857Y-16244428D01*
X12597857Y-16263476D01*
X12731190Y-16063476D02*
X12750238Y-16063476D01*
X12769286Y-16073000D01*
X12778809Y-16082524D01*
X12788333Y-16101571D01*
X12797857Y-16139667D01*
X12797857Y-16187286D01*
X12788333Y-16225381D01*
X12778809Y-16244428D01*
X12769286Y-16253952D01*
X12750238Y-16263476D01*
X12731190Y-16263476D01*
X12712143Y-16253952D01*
X12702619Y-16244428D01*
X12693095Y-16225381D01*
X12683571Y-16187286D01*
X12683571Y-16139667D01*
X12693095Y-16101571D01*
X12702619Y-16082524D01*
X12712143Y-16073000D01*
X12731190Y-16063476D01*
X12864524Y-16063476D02*
X12988333Y-16063476D01*
X12921667Y-16139667D01*
X12950238Y-16139667D01*
X12969286Y-16149190D01*
X12978809Y-16158714D01*
X12988333Y-16177762D01*
X12988333Y-16225381D01*
X12978809Y-16244428D01*
X12969286Y-16253952D01*
X12950238Y-16263476D01*
X12893095Y-16263476D01*
X12874048Y-16253952D01*
X12864524Y-16244428D01*
X13055000Y-16063476D02*
X13188333Y-16063476D01*
X13102619Y-16263476D01*
X13350238Y-16130143D02*
X13350238Y-16263476D01*
X13302619Y-16053952D02*
X13255000Y-16196809D01*
X13378809Y-16196809D01*
X13445476Y-16063476D02*
X13445476Y-16101571D01*
X13521667Y-16063476D02*
X13521667Y-16101571D01*
X13816905Y-16339667D02*
X13807381Y-16330143D01*
X13788333Y-16301571D01*
X13778809Y-16282524D01*
X13769286Y-16253952D01*
X13759762Y-16206333D01*
X13759762Y-16168238D01*
X13769286Y-16120619D01*
X13778809Y-16092048D01*
X13788333Y-16073000D01*
X13807381Y-16044428D01*
X13816905Y-16034905D01*
X13874048Y-16063476D02*
X13997857Y-16063476D01*
X13931190Y-16139667D01*
X13959762Y-16139667D01*
X13978809Y-16149190D01*
X13988333Y-16158714D01*
X13997857Y-16177762D01*
X13997857Y-16225381D01*
X13988333Y-16244428D01*
X13978809Y-16253952D01*
X13959762Y-16263476D01*
X13902619Y-16263476D01*
X13883571Y-16253952D01*
X13874048Y-16244428D01*
X14235952Y-16263476D02*
X14235952Y-16063476D01*
X14321667Y-16263476D02*
X14321667Y-16158714D01*
X14312143Y-16139667D01*
X14293095Y-16130143D01*
X14264524Y-16130143D01*
X14245476Y-16139667D01*
X14235952Y-16149190D01*
X14445476Y-16263476D02*
X14426428Y-16253952D01*
X14416905Y-16244428D01*
X14407381Y-16225381D01*
X14407381Y-16168238D01*
X14416905Y-16149190D01*
X14426428Y-16139667D01*
X14445476Y-16130143D01*
X14474048Y-16130143D01*
X14493095Y-16139667D01*
X14502619Y-16149190D01*
X14512143Y-16168238D01*
X14512143Y-16225381D01*
X14502619Y-16244428D01*
X14493095Y-16253952D01*
X14474048Y-16263476D01*
X14445476Y-16263476D01*
X14626428Y-16263476D02*
X14607381Y-16253952D01*
X14597857Y-16234905D01*
X14597857Y-16063476D01*
X14778809Y-16253952D02*
X14759762Y-16263476D01*
X14721667Y-16263476D01*
X14702619Y-16253952D01*
X14693095Y-16234905D01*
X14693095Y-16158714D01*
X14702619Y-16139667D01*
X14721667Y-16130143D01*
X14759762Y-16130143D01*
X14778809Y-16139667D01*
X14788333Y-16158714D01*
X14788333Y-16177762D01*
X14693095Y-16196809D01*
X14864524Y-16253952D02*
X14883571Y-16263476D01*
X14921667Y-16263476D01*
X14940714Y-16253952D01*
X14950238Y-16234905D01*
X14950238Y-16225381D01*
X14940714Y-16206333D01*
X14921667Y-16196809D01*
X14893095Y-16196809D01*
X14874048Y-16187286D01*
X14864524Y-16168238D01*
X14864524Y-16158714D01*
X14874048Y-16139667D01*
X14893095Y-16130143D01*
X14921667Y-16130143D01*
X14940714Y-16139667D01*
X15016905Y-16339667D02*
X15026428Y-16330143D01*
X15045476Y-16301571D01*
X15055000Y-16282524D01*
X15064524Y-16253952D01*
X15074048Y-16206333D01*
X15074048Y-16168238D01*
X15064524Y-16120619D01*
X15055000Y-16092048D01*
X15045476Y-16073000D01*
X15026428Y-16044428D01*
X15016905Y-16034905D01*
D15*
X10229770Y-16473770D02*
X10229770Y-16400230D01*
X10156230Y-16400230D01*
X10156230Y-16473770D01*
X10229770Y-16473770D01*
D11*
X10607381Y-16527476D02*
X10493095Y-16527476D01*
X10550238Y-16527476D02*
X10550238Y-16327476D01*
X10531190Y-16356048D01*
X10512143Y-16375095D01*
X10493095Y-16384619D01*
X10693095Y-16508428D02*
X10702619Y-16517952D01*
X10693095Y-16527476D01*
X10683571Y-16517952D01*
X10693095Y-16508428D01*
X10693095Y-16527476D01*
X10826429Y-16327476D02*
X10845476Y-16327476D01*
X10864524Y-16337000D01*
X10874048Y-16346524D01*
X10883571Y-16365571D01*
X10893095Y-16403667D01*
X10893095Y-16451286D01*
X10883571Y-16489381D01*
X10874048Y-16508428D01*
X10864524Y-16517952D01*
X10845476Y-16527476D01*
X10826429Y-16527476D01*
X10807381Y-16517952D01*
X10797857Y-16508428D01*
X10788333Y-16489381D01*
X10778810Y-16451286D01*
X10778810Y-16403667D01*
X10788333Y-16365571D01*
X10797857Y-16346524D01*
X10807381Y-16337000D01*
X10826429Y-16327476D01*
X11064524Y-16394143D02*
X11064524Y-16527476D01*
X11016905Y-16317952D02*
X10969286Y-16460809D01*
X11093095Y-16460809D01*
X11207381Y-16327476D02*
X11226428Y-16327476D01*
X11245476Y-16337000D01*
X11255000Y-16346524D01*
X11264524Y-16365571D01*
X11274048Y-16403667D01*
X11274048Y-16451286D01*
X11264524Y-16489381D01*
X11255000Y-16508428D01*
X11245476Y-16517952D01*
X11226428Y-16527476D01*
X11207381Y-16527476D01*
X11188333Y-16517952D01*
X11178810Y-16508428D01*
X11169286Y-16489381D01*
X11159762Y-16451286D01*
X11159762Y-16403667D01*
X11169286Y-16365571D01*
X11178810Y-16346524D01*
X11188333Y-16337000D01*
X11207381Y-16327476D01*
X11359762Y-16527476D02*
X11359762Y-16394143D01*
X11359762Y-16413190D02*
X11369286Y-16403667D01*
X11388333Y-16394143D01*
X11416905Y-16394143D01*
X11435952Y-16403667D01*
X11445476Y-16422714D01*
X11445476Y-16527476D01*
X11445476Y-16422714D02*
X11455000Y-16403667D01*
X11474048Y-16394143D01*
X11502619Y-16394143D01*
X11521667Y-16403667D01*
X11531190Y-16422714D01*
X11531190Y-16527476D01*
X11626428Y-16527476D02*
X11626428Y-16394143D01*
X11626428Y-16413190D02*
X11635952Y-16403667D01*
X11655000Y-16394143D01*
X11683571Y-16394143D01*
X11702619Y-16403667D01*
X11712143Y-16422714D01*
X11712143Y-16527476D01*
X11712143Y-16422714D02*
X11721667Y-16403667D01*
X11740714Y-16394143D01*
X11769286Y-16394143D01*
X11788333Y-16403667D01*
X11797857Y-16422714D01*
X11797857Y-16527476D01*
X12188333Y-16317952D02*
X12016905Y-16575095D01*
X12445476Y-16327476D02*
X12464524Y-16327476D01*
X12483571Y-16337000D01*
X12493095Y-16346524D01*
X12502619Y-16365571D01*
X12512143Y-16403667D01*
X12512143Y-16451286D01*
X12502619Y-16489381D01*
X12493095Y-16508428D01*
X12483571Y-16517952D01*
X12464524Y-16527476D01*
X12445476Y-16527476D01*
X12426428Y-16517952D01*
X12416905Y-16508428D01*
X12407381Y-16489381D01*
X12397857Y-16451286D01*
X12397857Y-16403667D01*
X12407381Y-16365571D01*
X12416905Y-16346524D01*
X12426428Y-16337000D01*
X12445476Y-16327476D01*
X12597857Y-16508428D02*
X12607381Y-16517952D01*
X12597857Y-16527476D01*
X12588333Y-16517952D01*
X12597857Y-16508428D01*
X12597857Y-16527476D01*
X12731190Y-16327476D02*
X12750238Y-16327476D01*
X12769286Y-16337000D01*
X12778809Y-16346524D01*
X12788333Y-16365571D01*
X12797857Y-16403667D01*
X12797857Y-16451286D01*
X12788333Y-16489381D01*
X12778809Y-16508428D01*
X12769286Y-16517952D01*
X12750238Y-16527476D01*
X12731190Y-16527476D01*
X12712143Y-16517952D01*
X12702619Y-16508428D01*
X12693095Y-16489381D01*
X12683571Y-16451286D01*
X12683571Y-16403667D01*
X12693095Y-16365571D01*
X12702619Y-16346524D01*
X12712143Y-16337000D01*
X12731190Y-16327476D01*
X12969286Y-16394143D02*
X12969286Y-16527476D01*
X12921667Y-16317952D02*
X12874048Y-16460809D01*
X12997857Y-16460809D01*
X13112143Y-16327476D02*
X13131190Y-16327476D01*
X13150238Y-16337000D01*
X13159762Y-16346524D01*
X13169286Y-16365571D01*
X13178809Y-16403667D01*
X13178809Y-16451286D01*
X13169286Y-16489381D01*
X13159762Y-16508428D01*
X13150238Y-16517952D01*
X13131190Y-16527476D01*
X13112143Y-16527476D01*
X13093095Y-16517952D01*
X13083571Y-16508428D01*
X13074048Y-16489381D01*
X13064524Y-16451286D01*
X13064524Y-16403667D01*
X13074048Y-16365571D01*
X13083571Y-16346524D01*
X13093095Y-16337000D01*
X13112143Y-16327476D01*
X13274048Y-16527476D02*
X13312143Y-16527476D01*
X13331190Y-16517952D01*
X13340714Y-16508428D01*
X13359762Y-16479857D01*
X13369286Y-16441762D01*
X13369286Y-16365571D01*
X13359762Y-16346524D01*
X13350238Y-16337000D01*
X13331190Y-16327476D01*
X13293095Y-16327476D01*
X13274048Y-16337000D01*
X13264524Y-16346524D01*
X13255000Y-16365571D01*
X13255000Y-16413190D01*
X13264524Y-16432238D01*
X13274048Y-16441762D01*
X13293095Y-16451286D01*
X13331190Y-16451286D01*
X13350238Y-16441762D01*
X13359762Y-16432238D01*
X13369286Y-16413190D01*
X13445476Y-16327476D02*
X13445476Y-16365571D01*
X13521667Y-16327476D02*
X13521667Y-16365571D01*
X13816905Y-16603667D02*
X13807381Y-16594143D01*
X13788333Y-16565571D01*
X13778809Y-16546524D01*
X13769286Y-16517952D01*
X13759762Y-16470333D01*
X13759762Y-16432238D01*
X13769286Y-16384619D01*
X13778809Y-16356048D01*
X13788333Y-16337000D01*
X13807381Y-16308428D01*
X13816905Y-16298905D01*
X13874048Y-16327476D02*
X13997857Y-16327476D01*
X13931190Y-16403667D01*
X13959762Y-16403667D01*
X13978809Y-16413190D01*
X13988333Y-16422714D01*
X13997857Y-16441762D01*
X13997857Y-16489381D01*
X13988333Y-16508428D01*
X13978809Y-16517952D01*
X13959762Y-16527476D01*
X13902619Y-16527476D01*
X13883571Y-16517952D01*
X13874048Y-16508428D01*
X14112143Y-16413190D02*
X14093095Y-16403667D01*
X14083571Y-16394143D01*
X14074048Y-16375095D01*
X14074048Y-16365571D01*
X14083571Y-16346524D01*
X14093095Y-16337000D01*
X14112143Y-16327476D01*
X14150238Y-16327476D01*
X14169286Y-16337000D01*
X14178809Y-16346524D01*
X14188333Y-16365571D01*
X14188333Y-16375095D01*
X14178809Y-16394143D01*
X14169286Y-16403667D01*
X14150238Y-16413190D01*
X14112143Y-16413190D01*
X14093095Y-16422714D01*
X14083571Y-16432238D01*
X14074048Y-16451286D01*
X14074048Y-16489381D01*
X14083571Y-16508428D01*
X14093095Y-16517952D01*
X14112143Y-16527476D01*
X14150238Y-16527476D01*
X14169286Y-16517952D01*
X14178809Y-16508428D01*
X14188333Y-16489381D01*
X14188333Y-16451286D01*
X14178809Y-16432238D01*
X14169286Y-16422714D01*
X14150238Y-16413190D01*
X14426428Y-16527476D02*
X14426428Y-16327476D01*
X14512143Y-16527476D02*
X14512143Y-16422714D01*
X14502619Y-16403667D01*
X14483571Y-16394143D01*
X14455000Y-16394143D01*
X14435952Y-16403667D01*
X14426428Y-16413190D01*
X14635952Y-16527476D02*
X14616905Y-16517952D01*
X14607381Y-16508428D01*
X14597857Y-16489381D01*
X14597857Y-16432238D01*
X14607381Y-16413190D01*
X14616905Y-16403667D01*
X14635952Y-16394143D01*
X14664524Y-16394143D01*
X14683571Y-16403667D01*
X14693095Y-16413190D01*
X14702619Y-16432238D01*
X14702619Y-16489381D01*
X14693095Y-16508428D01*
X14683571Y-16517952D01*
X14664524Y-16527476D01*
X14635952Y-16527476D01*
X14816905Y-16527476D02*
X14797857Y-16517952D01*
X14788333Y-16498905D01*
X14788333Y-16327476D01*
X14969286Y-16517952D02*
X14950238Y-16527476D01*
X14912143Y-16527476D01*
X14893095Y-16517952D01*
X14883571Y-16498905D01*
X14883571Y-16422714D01*
X14893095Y-16403667D01*
X14912143Y-16394143D01*
X14950238Y-16394143D01*
X14969286Y-16403667D01*
X14978809Y-16422714D01*
X14978809Y-16441762D01*
X14883571Y-16460809D01*
X15055000Y-16517952D02*
X15074048Y-16527476D01*
X15112143Y-16527476D01*
X15131190Y-16517952D01*
X15140714Y-16498905D01*
X15140714Y-16489381D01*
X15131190Y-16470333D01*
X15112143Y-16460809D01*
X15083571Y-16460809D01*
X15064524Y-16451286D01*
X15055000Y-16432238D01*
X15055000Y-16422714D01*
X15064524Y-16403667D01*
X15083571Y-16394143D01*
X15112143Y-16394143D01*
X15131190Y-16403667D01*
X15207381Y-16603667D02*
X15216905Y-16594143D01*
X15235952Y-16565571D01*
X15245476Y-16546524D01*
X15255000Y-16517952D01*
X15264524Y-16470333D01*
X15264524Y-16432238D01*
X15255000Y-16384619D01*
X15245476Y-16356048D01*
X15235952Y-16337000D01*
X15216905Y-16308428D01*
X15207381Y-16298905D01*
D16*
X10165000Y-16781000D02*
X10245000Y-16701000D01*
X10165000Y-16621000D01*
X10085000Y-16701000D01*
X10165000Y-16781000D01*
D11*
X10607381Y-16791476D02*
X10493095Y-16791476D01*
X10550238Y-16791476D02*
X10550238Y-16591476D01*
X10531190Y-16620048D01*
X10512143Y-16639095D01*
X10493095Y-16648619D01*
X10693095Y-16772428D02*
X10702619Y-16781952D01*
X10693095Y-16791476D01*
X10683571Y-16781952D01*
X10693095Y-16772428D01*
X10693095Y-16791476D01*
X10874048Y-16591476D02*
X10835952Y-16591476D01*
X10816905Y-16601000D01*
X10807381Y-16610524D01*
X10788333Y-16639095D01*
X10778810Y-16677190D01*
X10778810Y-16753381D01*
X10788333Y-16772428D01*
X10797857Y-16781952D01*
X10816905Y-16791476D01*
X10855000Y-16791476D01*
X10874048Y-16781952D01*
X10883571Y-16772428D01*
X10893095Y-16753381D01*
X10893095Y-16705762D01*
X10883571Y-16686714D01*
X10874048Y-16677190D01*
X10855000Y-16667667D01*
X10816905Y-16667667D01*
X10797857Y-16677190D01*
X10788333Y-16686714D01*
X10778810Y-16705762D01*
X11016905Y-16591476D02*
X11035952Y-16591476D01*
X11055000Y-16601000D01*
X11064524Y-16610524D01*
X11074048Y-16629571D01*
X11083571Y-16667667D01*
X11083571Y-16715286D01*
X11074048Y-16753381D01*
X11064524Y-16772428D01*
X11055000Y-16781952D01*
X11035952Y-16791476D01*
X11016905Y-16791476D01*
X10997857Y-16781952D01*
X10988333Y-16772428D01*
X10978810Y-16753381D01*
X10969286Y-16715286D01*
X10969286Y-16667667D01*
X10978810Y-16629571D01*
X10988333Y-16610524D01*
X10997857Y-16601000D01*
X11016905Y-16591476D01*
X11207381Y-16591476D02*
X11226428Y-16591476D01*
X11245476Y-16601000D01*
X11255000Y-16610524D01*
X11264524Y-16629571D01*
X11274048Y-16667667D01*
X11274048Y-16715286D01*
X11264524Y-16753381D01*
X11255000Y-16772428D01*
X11245476Y-16781952D01*
X11226428Y-16791476D01*
X11207381Y-16791476D01*
X11188333Y-16781952D01*
X11178810Y-16772428D01*
X11169286Y-16753381D01*
X11159762Y-16715286D01*
X11159762Y-16667667D01*
X11169286Y-16629571D01*
X11178810Y-16610524D01*
X11188333Y-16601000D01*
X11207381Y-16591476D01*
X11359762Y-16791476D02*
X11359762Y-16658143D01*
X11359762Y-16677190D02*
X11369286Y-16667667D01*
X11388333Y-16658143D01*
X11416905Y-16658143D01*
X11435952Y-16667667D01*
X11445476Y-16686714D01*
X11445476Y-16791476D01*
X11445476Y-16686714D02*
X11455000Y-16667667D01*
X11474048Y-16658143D01*
X11502619Y-16658143D01*
X11521667Y-16667667D01*
X11531190Y-16686714D01*
X11531190Y-16791476D01*
X11626428Y-16791476D02*
X11626428Y-16658143D01*
X11626428Y-16677190D02*
X11635952Y-16667667D01*
X11655000Y-16658143D01*
X11683571Y-16658143D01*
X11702619Y-16667667D01*
X11712143Y-16686714D01*
X11712143Y-16791476D01*
X11712143Y-16686714D02*
X11721667Y-16667667D01*
X11740714Y-16658143D01*
X11769286Y-16658143D01*
X11788333Y-16667667D01*
X11797857Y-16686714D01*
X11797857Y-16791476D01*
X12188333Y-16581952D02*
X12016905Y-16839095D01*
X12445476Y-16591476D02*
X12464524Y-16591476D01*
X12483571Y-16601000D01*
X12493095Y-16610524D01*
X12502619Y-16629571D01*
X12512143Y-16667667D01*
X12512143Y-16715286D01*
X12502619Y-16753381D01*
X12493095Y-16772428D01*
X12483571Y-16781952D01*
X12464524Y-16791476D01*
X12445476Y-16791476D01*
X12426428Y-16781952D01*
X12416905Y-16772428D01*
X12407381Y-16753381D01*
X12397857Y-16715286D01*
X12397857Y-16667667D01*
X12407381Y-16629571D01*
X12416905Y-16610524D01*
X12426428Y-16601000D01*
X12445476Y-16591476D01*
X12597857Y-16772428D02*
X12607381Y-16781952D01*
X12597857Y-16791476D01*
X12588333Y-16781952D01*
X12597857Y-16772428D01*
X12597857Y-16791476D01*
X12731190Y-16591476D02*
X12750238Y-16591476D01*
X12769286Y-16601000D01*
X12778809Y-16610524D01*
X12788333Y-16629571D01*
X12797857Y-16667667D01*
X12797857Y-16715286D01*
X12788333Y-16753381D01*
X12778809Y-16772428D01*
X12769286Y-16781952D01*
X12750238Y-16791476D01*
X12731190Y-16791476D01*
X12712143Y-16781952D01*
X12702619Y-16772428D01*
X12693095Y-16753381D01*
X12683571Y-16715286D01*
X12683571Y-16667667D01*
X12693095Y-16629571D01*
X12702619Y-16610524D01*
X12712143Y-16601000D01*
X12731190Y-16591476D01*
X12969286Y-16591476D02*
X12931190Y-16591476D01*
X12912143Y-16601000D01*
X12902619Y-16610524D01*
X12883571Y-16639095D01*
X12874048Y-16677190D01*
X12874048Y-16753381D01*
X12883571Y-16772428D01*
X12893095Y-16781952D01*
X12912143Y-16791476D01*
X12950238Y-16791476D01*
X12969286Y-16781952D01*
X12978809Y-16772428D01*
X12988333Y-16753381D01*
X12988333Y-16705762D01*
X12978809Y-16686714D01*
X12969286Y-16677190D01*
X12950238Y-16667667D01*
X12912143Y-16667667D01*
X12893095Y-16677190D01*
X12883571Y-16686714D01*
X12874048Y-16705762D01*
X13055000Y-16591476D02*
X13178809Y-16591476D01*
X13112143Y-16667667D01*
X13140714Y-16667667D01*
X13159762Y-16677190D01*
X13169286Y-16686714D01*
X13178809Y-16705762D01*
X13178809Y-16753381D01*
X13169286Y-16772428D01*
X13159762Y-16781952D01*
X13140714Y-16791476D01*
X13083571Y-16791476D01*
X13064524Y-16781952D01*
X13055000Y-16772428D01*
X13302619Y-16591476D02*
X13321667Y-16591476D01*
X13340714Y-16601000D01*
X13350238Y-16610524D01*
X13359762Y-16629571D01*
X13369286Y-16667667D01*
X13369286Y-16715286D01*
X13359762Y-16753381D01*
X13350238Y-16772428D01*
X13340714Y-16781952D01*
X13321667Y-16791476D01*
X13302619Y-16791476D01*
X13283571Y-16781952D01*
X13274048Y-16772428D01*
X13264524Y-16753381D01*
X13255000Y-16715286D01*
X13255000Y-16667667D01*
X13264524Y-16629571D01*
X13274048Y-16610524D01*
X13283571Y-16601000D01*
X13302619Y-16591476D01*
X13445476Y-16591476D02*
X13445476Y-16629571D01*
X13521667Y-16591476D02*
X13521667Y-16629571D01*
X13816905Y-16867667D02*
X13807381Y-16858143D01*
X13788333Y-16829571D01*
X13778809Y-16810524D01*
X13769286Y-16781952D01*
X13759762Y-16734333D01*
X13759762Y-16696238D01*
X13769286Y-16648619D01*
X13778809Y-16620048D01*
X13788333Y-16601000D01*
X13807381Y-16572428D01*
X13816905Y-16562905D01*
X13997857Y-16791476D02*
X13883571Y-16791476D01*
X13940714Y-16791476D02*
X13940714Y-16591476D01*
X13921667Y-16620048D01*
X13902619Y-16639095D01*
X13883571Y-16648619D01*
X14169286Y-16658143D02*
X14169286Y-16791476D01*
X14121667Y-16581952D02*
X14074048Y-16724809D01*
X14197857Y-16724809D01*
X14426428Y-16791476D02*
X14426428Y-16591476D01*
X14512143Y-16791476D02*
X14512143Y-16686714D01*
X14502619Y-16667667D01*
X14483571Y-16658143D01*
X14455000Y-16658143D01*
X14435952Y-16667667D01*
X14426428Y-16677190D01*
X14635952Y-16791476D02*
X14616905Y-16781952D01*
X14607381Y-16772428D01*
X14597857Y-16753381D01*
X14597857Y-16696238D01*
X14607381Y-16677190D01*
X14616905Y-16667667D01*
X14635952Y-16658143D01*
X14664524Y-16658143D01*
X14683571Y-16667667D01*
X14693095Y-16677190D01*
X14702619Y-16696238D01*
X14702619Y-16753381D01*
X14693095Y-16772428D01*
X14683571Y-16781952D01*
X14664524Y-16791476D01*
X14635952Y-16791476D01*
X14816905Y-16791476D02*
X14797857Y-16781952D01*
X14788333Y-16762905D01*
X14788333Y-16591476D01*
X14969286Y-16781952D02*
X14950238Y-16791476D01*
X14912143Y-16791476D01*
X14893095Y-16781952D01*
X14883571Y-16762905D01*
X14883571Y-16686714D01*
X14893095Y-16667667D01*
X14912143Y-16658143D01*
X14950238Y-16658143D01*
X14969286Y-16667667D01*
X14978809Y-16686714D01*
X14978809Y-16705762D01*
X14883571Y-16724809D01*
X15055000Y-16781952D02*
X15074048Y-16791476D01*
X15112143Y-16791476D01*
X15131190Y-16781952D01*
X15140714Y-16762905D01*
X15140714Y-16753381D01*
X15131190Y-16734333D01*
X15112143Y-16724809D01*
X15083571Y-16724809D01*
X15064524Y-16715286D01*
X15055000Y-16696238D01*
X15055000Y-16686714D01*
X15064524Y-16667667D01*
X15083571Y-16658143D01*
X15112143Y-16658143D01*
X15131190Y-16667667D01*
X15207381Y-16867667D02*
X15216905Y-16858143D01*
X15235952Y-16829571D01*
X15245476Y-16810524D01*
X15255000Y-16781952D01*
X15264524Y-16734333D01*
X15264524Y-16696238D01*
X15255000Y-16648619D01*
X15245476Y-16620048D01*
X15235952Y-16601000D01*
X15216905Y-16572428D01*
X15207381Y-16562905D01*
M02*
