%TF.GenerationSoftware,KiCad,Pcbnew,(6.0.1)*%
%TF.CreationDate,2022-02-01T16:24:05+01:00*%
%TF.ProjectId,Drawer_Controller,44726177-6572-45f4-936f-6e74726f6c6c,rev?*%
%TF.SameCoordinates,Original*%
%TF.FileFunction,Paste,Top*%
%TF.FilePolarity,Positive*%
%FSLAX46Y46*%
G04 Gerber Fmt 4.6, Leading zero omitted, Abs format (unit mm)*
G04 Created by KiCad (PCBNEW (6.0.1)) date 2022-02-01 16:24:05*
%MOMM*%
%LPD*%
G01*
G04 APERTURE LIST*
G04 Aperture macros list*
%AMRoundRect*
0 Rectangle with rounded corners*
0 $1 Rounding radius*
0 $2 $3 $4 $5 $6 $7 $8 $9 X,Y pos of 4 corners*
0 Add a 4 corners polygon primitive as box body*
4,1,4,$2,$3,$4,$5,$6,$7,$8,$9,$2,$3,0*
0 Add four circle primitives for the rounded corners*
1,1,$1+$1,$2,$3*
1,1,$1+$1,$4,$5*
1,1,$1+$1,$6,$7*
1,1,$1+$1,$8,$9*
0 Add four rect primitives between the rounded corners*
20,1,$1+$1,$2,$3,$4,$5,0*
20,1,$1+$1,$4,$5,$6,$7,0*
20,1,$1+$1,$6,$7,$8,$9,0*
20,1,$1+$1,$8,$9,$2,$3,0*%
G04 Aperture macros list end*
%ADD10R,2.000000X5.700000*%
%ADD11RoundRect,0.250000X0.625000X-0.400000X0.625000X0.400000X-0.625000X0.400000X-0.625000X-0.400000X0*%
%ADD12RoundRect,0.150000X-0.825000X-0.150000X0.825000X-0.150000X0.825000X0.150000X-0.825000X0.150000X0*%
%ADD13RoundRect,0.250000X-0.400000X-0.625000X0.400000X-0.625000X0.400000X0.625000X-0.400000X0.625000X0*%
%ADD14RoundRect,0.250000X-0.625000X0.400000X-0.625000X-0.400000X0.625000X-0.400000X0.625000X0.400000X0*%
%ADD15R,0.450000X0.600000*%
%ADD16RoundRect,0.250000X0.412500X0.650000X-0.412500X0.650000X-0.412500X-0.650000X0.412500X-0.650000X0*%
%ADD17RoundRect,0.250000X-0.650000X0.412500X-0.650000X-0.412500X0.650000X-0.412500X0.650000X0.412500X0*%
%ADD18R,2.250000X3.120000*%
G04 APERTURE END LIST*
D10*
%TO.C,C4*%
X166000000Y-142050000D03*
X166000000Y-132350000D03*
%TD*%
D11*
%TO.C,R6*%
X146500000Y-139550000D03*
X146500000Y-136450000D03*
%TD*%
D12*
%TO.C,Q1*%
X180125000Y-120595000D03*
X180125000Y-121865000D03*
X180125000Y-123135000D03*
X180125000Y-124405000D03*
X185075000Y-124405000D03*
X185075000Y-123135000D03*
X185075000Y-121865000D03*
X185075000Y-120595000D03*
%TD*%
D13*
%TO.C,R2*%
X167950000Y-124300000D03*
X171050000Y-124300000D03*
%TD*%
D12*
%TO.C,Q2*%
X150025000Y-135995000D03*
X150025000Y-137265000D03*
X150025000Y-138535000D03*
X150025000Y-139805000D03*
X154975000Y-139805000D03*
X154975000Y-138535000D03*
X154975000Y-137265000D03*
X154975000Y-135995000D03*
%TD*%
D14*
%TO.C,R3*%
X143400000Y-130850000D03*
X143400000Y-133950000D03*
%TD*%
D15*
%TO.C,D2*%
X185500000Y-115600000D03*
X185500000Y-113500000D03*
%TD*%
D14*
%TO.C,R5*%
X152400000Y-130850000D03*
X152400000Y-133950000D03*
%TD*%
D16*
%TO.C,C1*%
X136562500Y-105500000D03*
X133437500Y-105500000D03*
%TD*%
D11*
%TO.C,R4*%
X175000000Y-124450000D03*
X175000000Y-121350000D03*
%TD*%
D15*
%TO.C,D3*%
X184000000Y-138950000D03*
X184000000Y-141050000D03*
%TD*%
D17*
%TO.C,C2*%
X133500000Y-108437500D03*
X133500000Y-111562500D03*
%TD*%
D11*
%TO.C,R7*%
X161450000Y-120600000D03*
X161450000Y-117500000D03*
%TD*%
D16*
%TO.C,C3*%
X161512500Y-123550000D03*
X158387500Y-123550000D03*
%TD*%
D14*
%TO.C,R1*%
X165400000Y-112450000D03*
X165400000Y-115550000D03*
%TD*%
D18*
%TO.C,D1*%
X175145000Y-133800000D03*
X182055000Y-133800000D03*
%TD*%
M02*
