G04 #@! TF.GenerationSoftware,KiCad,Pcbnew,(6.0.1)*
G04 #@! TF.CreationDate,2022-05-31T14:36:13+02:00*
G04 #@! TF.ProjectId,Drawer_Controller,44726177-6572-45f4-936f-6e74726f6c6c,rev?*
G04 #@! TF.SameCoordinates,Original*
G04 #@! TF.FileFunction,Soldermask,Top*
G04 #@! TF.FilePolarity,Negative*
%FSLAX46Y46*%
G04 Gerber Fmt 4.6, Leading zero omitted, Abs format (unit mm)*
G04 Created by KiCad (PCBNEW (6.0.1)) date 2022-05-31 14:36:13*
%MOMM*%
%LPD*%
G01*
G04 APERTURE LIST*
G04 Aperture macros list*
%AMRoundRect*
0 Rectangle with rounded corners*
0 $1 Rounding radius*
0 $2 $3 $4 $5 $6 $7 $8 $9 X,Y pos of 4 corners*
0 Add a 4 corners polygon primitive as box body*
4,1,4,$2,$3,$4,$5,$6,$7,$8,$9,$2,$3,0*
0 Add four circle primitives for the rounded corners*
1,1,$1+$1,$2,$3*
1,1,$1+$1,$4,$5*
1,1,$1+$1,$6,$7*
1,1,$1+$1,$8,$9*
0 Add four rect primitives between the rounded corners*
20,1,$1+$1,$2,$3,$4,$5,0*
20,1,$1+$1,$4,$5,$6,$7,0*
20,1,$1+$1,$6,$7,$8,$9,0*
20,1,$1+$1,$8,$9,$2,$3,0*%
G04 Aperture macros list end*
%ADD10C,0.836200*%
%ADD11C,0.876200*%
%ADD12C,0.010000*%
%ADD13RoundRect,0.039000X0.156000X-0.491000X0.156000X0.491000X-0.156000X0.491000X-0.156000X-0.491000X0*%
%ADD14RoundRect,0.039000X-0.156000X0.491000X-0.156000X-0.491000X0.156000X-0.491000X0.156000X0.491000X0*%
%ADD15RoundRect,0.250000X0.337500X0.475000X-0.337500X0.475000X-0.337500X-0.475000X0.337500X-0.475000X0*%
%ADD16RoundRect,0.250000X0.450000X-0.350000X0.450000X0.350000X-0.450000X0.350000X-0.450000X-0.350000X0*%
%ADD17RoundRect,0.250000X-0.450000X0.350000X-0.450000X-0.350000X0.450000X-0.350000X0.450000X0.350000X0*%
%ADD18O,1.750000X1.200000*%
%ADD19RoundRect,0.250000X0.625000X-0.350000X0.625000X0.350000X-0.625000X0.350000X-0.625000X-0.350000X0*%
%ADD20RoundRect,0.150000X-0.587500X-0.150000X0.587500X-0.150000X0.587500X0.150000X-0.587500X0.150000X0*%
%ADD21C,1.000000*%
%ADD22RoundRect,0.250001X0.499999X-0.499999X0.499999X0.499999X-0.499999X0.499999X-0.499999X-0.499999X0*%
%ADD23C,1.500000*%
%ADD24R,2.000000X7.875000*%
%ADD25RoundRect,0.250000X-0.350000X-0.450000X0.350000X-0.450000X0.350000X0.450000X-0.350000X0.450000X0*%
%ADD26RoundRect,0.250000X0.350000X0.450000X-0.350000X0.450000X-0.350000X-0.450000X0.350000X-0.450000X0*%
%ADD27RoundRect,0.237500X0.287500X0.237500X-0.287500X0.237500X-0.287500X-0.237500X0.287500X-0.237500X0*%
%ADD28C,3.200000*%
%ADD29RoundRect,0.150000X-0.150000X0.825000X-0.150000X-0.825000X0.150000X-0.825000X0.150000X0.825000X0*%
%ADD30RoundRect,0.250000X0.475000X-0.337500X0.475000X0.337500X-0.475000X0.337500X-0.475000X-0.337500X0*%
%ADD31RoundRect,0.250000X-0.337500X-0.475000X0.337500X-0.475000X0.337500X0.475000X-0.337500X0.475000X0*%
%ADD32RoundRect,0.250000X-0.475000X0.337500X-0.475000X-0.337500X0.475000X-0.337500X0.475000X0.337500X0*%
%ADD33C,1.600000*%
%ADD34RoundRect,0.150000X-0.875000X-0.150000X0.875000X-0.150000X0.875000X0.150000X-0.875000X0.150000X0*%
%ADD35R,1.700000X1.700000*%
%ADD36O,1.700000X1.700000*%
%ADD37RoundRect,0.250000X1.000000X-1.500000X1.000000X1.500000X-1.000000X1.500000X-1.000000X-1.500000X0*%
%ADD38R,1.560000X1.560000*%
%ADD39C,1.560000*%
%ADD40RoundRect,0.100000X0.100000X-0.637500X0.100000X0.637500X-0.100000X0.637500X-0.100000X-0.637500X0*%
%ADD41RoundRect,0.250000X1.550000X-0.650000X1.550000X0.650000X-1.550000X0.650000X-1.550000X-0.650000X0*%
%ADD42O,3.600000X1.800000*%
G04 APERTURE END LIST*
D10*
X125337100Y-141125000D02*
G75*
G03*
X125337100Y-141125000I-418100J0D01*
G01*
X120737100Y-141125000D02*
G75*
G03*
X120737100Y-141125000I-418100J0D01*
G01*
X125337100Y-144625000D02*
G75*
G03*
X125337100Y-144625000I-418100J0D01*
G01*
D11*
X127587100Y-142875000D02*
G75*
G03*
X127587100Y-142875000I-438100J0D01*
G01*
D12*
X119482800Y-145461200D02*
X119482800Y-143788800D01*
X119482800Y-143788800D02*
X121155200Y-143788800D01*
X121155200Y-143788800D02*
X121155200Y-145461200D01*
X121155200Y-145461200D02*
X119482800Y-145461200D01*
G36*
X121155200Y-145461200D02*
G01*
X119482800Y-145461200D01*
X119482800Y-143788800D01*
X121155200Y-143788800D01*
X121155200Y-145461200D01*
G37*
X121155200Y-145461200D02*
X119482800Y-145461200D01*
X119482800Y-143788800D01*
X121155200Y-143788800D01*
X121155200Y-145461200D01*
D11*
X118048100Y-129286000D02*
G75*
G03*
X118048100Y-129286000I-438100J0D01*
G01*
D10*
X115798100Y-127536000D02*
G75*
G03*
X115798100Y-127536000I-418100J0D01*
G01*
X111198100Y-127536000D02*
G75*
G03*
X111198100Y-127536000I-418100J0D01*
G01*
X115798100Y-131036000D02*
G75*
G03*
X115798100Y-131036000I-418100J0D01*
G01*
D12*
X109943800Y-131872200D02*
X109943800Y-130199800D01*
X109943800Y-130199800D02*
X111616200Y-130199800D01*
X111616200Y-130199800D02*
X111616200Y-131872200D01*
X111616200Y-131872200D02*
X109943800Y-131872200D01*
G36*
X111616200Y-131872200D02*
G01*
X109943800Y-131872200D01*
X109943800Y-130199800D01*
X111616200Y-130199800D01*
X111616200Y-131872200D01*
G37*
X111616200Y-131872200D02*
X109943800Y-131872200D01*
X109943800Y-130199800D01*
X111616200Y-130199800D01*
X111616200Y-131872200D01*
D13*
X189723000Y-131491000D03*
X190373000Y-131491000D03*
X191023000Y-131491000D03*
X191023000Y-129621000D03*
X190373000Y-129621000D03*
X189723000Y-129621000D03*
D14*
X181752000Y-133269000D03*
X181102000Y-133269000D03*
X180452000Y-133269000D03*
X180452000Y-131399000D03*
X181102000Y-131399000D03*
X181752000Y-131399000D03*
X182440000Y-117185000D03*
X181790000Y-117185000D03*
X181140000Y-117185000D03*
X181140000Y-119055000D03*
X181790000Y-119055000D03*
X182440000Y-119055000D03*
D13*
X189926200Y-115447800D03*
X190576200Y-115447800D03*
X191226200Y-115447800D03*
X191226200Y-117317800D03*
X190576200Y-117317800D03*
X189926200Y-117317800D03*
X183982600Y-103601800D03*
X184632600Y-103601800D03*
X185282600Y-103601800D03*
X185282600Y-101731800D03*
X184632600Y-101731800D03*
X183982600Y-101731800D03*
D15*
X121787500Y-113250000D03*
X119712500Y-113250000D03*
D16*
X178152000Y-123105000D03*
X178152000Y-121105000D03*
D17*
X158900000Y-110675000D03*
X158900000Y-112675000D03*
X162687500Y-138661000D03*
X162687500Y-140661000D03*
D15*
X158837500Y-107500000D03*
X156762500Y-107500000D03*
D18*
X185733600Y-116850000D03*
D19*
X185733600Y-118850000D03*
D20*
X171402000Y-139616000D03*
X171402000Y-141516000D03*
X173277000Y-140566000D03*
D21*
X199025000Y-115250000D03*
X199025000Y-127250000D03*
D22*
X195085000Y-124250000D03*
D23*
X195085000Y-121250000D03*
X195085000Y-118250000D03*
X198085000Y-124250000D03*
X198085000Y-121250000D03*
X198085000Y-118250000D03*
D24*
X130403600Y-121132600D03*
X130403600Y-109257600D03*
D25*
X140850000Y-105550000D03*
X142850000Y-105550000D03*
X111250000Y-120036000D03*
X113250000Y-120036000D03*
D20*
X174912500Y-125250000D03*
X174912500Y-127150000D03*
X176787500Y-126200000D03*
D19*
X185301800Y-133257800D03*
D18*
X185301800Y-131257800D03*
D20*
X181314500Y-125616000D03*
X181314500Y-127516000D03*
X183189500Y-126566000D03*
D26*
X151150000Y-115050000D03*
X149150000Y-115050000D03*
D27*
X116998800Y-112236400D03*
X115248800Y-112236400D03*
D25*
X146500000Y-105250000D03*
X148500000Y-105250000D03*
D15*
X164787500Y-107450000D03*
X162712500Y-107450000D03*
D28*
X198500000Y-146000000D03*
D16*
X123850000Y-125155200D03*
X123850000Y-123155200D03*
D29*
X123317000Y-115736600D03*
X122047000Y-115736600D03*
X120777000Y-115736600D03*
X119507000Y-115736600D03*
X119507000Y-120686600D03*
X120777000Y-120686600D03*
X122047000Y-120686600D03*
X123317000Y-120686600D03*
D26*
X152550000Y-105200000D03*
X150550000Y-105200000D03*
D16*
X178816000Y-146796000D03*
X178816000Y-144796000D03*
D20*
X174576500Y-143830000D03*
X174576500Y-145730000D03*
X176451500Y-144780000D03*
D27*
X117100000Y-119875000D03*
X115350000Y-119875000D03*
D30*
X134416800Y-125268900D03*
X134416800Y-123193900D03*
D17*
X170250000Y-111800000D03*
X170250000Y-113800000D03*
D31*
X117712500Y-102750000D03*
X119787500Y-102750000D03*
D17*
X161300000Y-111750000D03*
X161300000Y-113750000D03*
D16*
X140550000Y-111850000D03*
X140550000Y-109850000D03*
D17*
X172212000Y-143907000D03*
X172212000Y-145907000D03*
D16*
X121750000Y-135800000D03*
X121750000Y-133800000D03*
D32*
X147550000Y-109862500D03*
X147550000Y-111937500D03*
D25*
X158512500Y-138788000D03*
X160512500Y-138788000D03*
D31*
X154562500Y-105250000D03*
X156637500Y-105250000D03*
D32*
X134400000Y-107062500D03*
X134400000Y-109137500D03*
X151500000Y-108412500D03*
X151500000Y-110487500D03*
D16*
X142850000Y-111850000D03*
X142850000Y-109850000D03*
X169164500Y-141693000D03*
X169164500Y-139693000D03*
D25*
X111173800Y-112258600D03*
X113173800Y-112258600D03*
D20*
X181053500Y-144846000D03*
X181053500Y-146746000D03*
X182928500Y-145796000D03*
D32*
X157353000Y-123397100D03*
X157353000Y-125472100D03*
D17*
X168000000Y-110725000D03*
X168000000Y-112725000D03*
D28*
X106500000Y-104000000D03*
D17*
X165800000Y-111750000D03*
X165800000Y-113750000D03*
D16*
X145250000Y-111850000D03*
X145250000Y-109850000D03*
D33*
X127149000Y-142875000D03*
D28*
X198500000Y-104000000D03*
D25*
X168552000Y-124661000D03*
X170552000Y-124661000D03*
D26*
X144800000Y-107700000D03*
X142800000Y-107700000D03*
D20*
X164925000Y-138600000D03*
X164925000Y-140500000D03*
X166800000Y-139550000D03*
D28*
X106500000Y-146000000D03*
D26*
X151600000Y-112750000D03*
X149600000Y-112750000D03*
D34*
X136955000Y-114046000D03*
X136955000Y-115316000D03*
X136955000Y-116586000D03*
X136955000Y-117856000D03*
X136955000Y-119126000D03*
X136955000Y-120396000D03*
X136955000Y-121666000D03*
X136955000Y-122936000D03*
X136955000Y-124206000D03*
X146255000Y-124206000D03*
X146255000Y-122936000D03*
X146255000Y-121666000D03*
X146255000Y-120396000D03*
X146255000Y-119126000D03*
X146255000Y-117856000D03*
X146255000Y-116586000D03*
X146255000Y-115316000D03*
X146255000Y-114046000D03*
D17*
X163500000Y-110675000D03*
X163500000Y-112675000D03*
D35*
X108275000Y-114046000D03*
D36*
X105735000Y-114046000D03*
D35*
X108275000Y-120786000D03*
D36*
X105735000Y-120786000D03*
D25*
X168164000Y-144018000D03*
X170164000Y-144018000D03*
D20*
X174039500Y-120012000D03*
X174039500Y-121912000D03*
X175914500Y-120962000D03*
D35*
X127625000Y-134750000D03*
D36*
X125085000Y-134750000D03*
D37*
X180543200Y-112292200D03*
X180543200Y-105792200D03*
D26*
X156650000Y-111600000D03*
X154650000Y-111600000D03*
D30*
X149352000Y-123008300D03*
X149352000Y-120933300D03*
D38*
X168604000Y-102616000D03*
D39*
X166064000Y-102616000D03*
X163524000Y-102616000D03*
X160984000Y-102616000D03*
X158444000Y-102616000D03*
X155904000Y-102616000D03*
X153364000Y-102616000D03*
X150824000Y-102616000D03*
X148284000Y-102616000D03*
X145744000Y-102616000D03*
X143204000Y-102616000D03*
X140664000Y-102616000D03*
X138124000Y-102616000D03*
X135584000Y-102616000D03*
X133044000Y-102616000D03*
X130504000Y-102616000D03*
X127964000Y-102616000D03*
X125424000Y-102616000D03*
X122884000Y-102616000D03*
X168604000Y-128016000D03*
X166064000Y-128016000D03*
X163524000Y-128016000D03*
X160984000Y-128016000D03*
X158444000Y-128016000D03*
X155904000Y-128016000D03*
X153364000Y-128016000D03*
X150824000Y-128016000D03*
X148284000Y-128016000D03*
X145744000Y-128016000D03*
X143204000Y-128016000D03*
X140664000Y-128016000D03*
X138124000Y-128016000D03*
X135584000Y-128016000D03*
X133044000Y-128016000D03*
X130504000Y-128016000D03*
X127964000Y-128016000D03*
X125424000Y-128016000D03*
X122884000Y-128016000D03*
D20*
X182137500Y-121978000D03*
X180262500Y-122928000D03*
X180262500Y-121028000D03*
D40*
X151339000Y-125341300D03*
X151989000Y-125341300D03*
X152639000Y-125341300D03*
X153289000Y-125341300D03*
X153939000Y-125341300D03*
X154589000Y-125341300D03*
X155239000Y-125341300D03*
X155239000Y-119616300D03*
X154589000Y-119616300D03*
X153939000Y-119616300D03*
X153289000Y-119616300D03*
X152639000Y-119616300D03*
X151989000Y-119616300D03*
X151339000Y-119616300D03*
D21*
X199025000Y-129500000D03*
X199025000Y-141500000D03*
D22*
X195085000Y-138500000D03*
D23*
X195085000Y-135500000D03*
X195085000Y-132500000D03*
X198085000Y-138500000D03*
X198085000Y-135500000D03*
X198085000Y-132500000D03*
D17*
X154700000Y-107450000D03*
X154700000Y-109450000D03*
D33*
X117610000Y-129286000D03*
D31*
X160662500Y-105200000D03*
X162737500Y-105200000D03*
D41*
X191392500Y-110482500D03*
D42*
X191392500Y-106982500D03*
X191392500Y-103482500D03*
D25*
X167538000Y-120250000D03*
X169538000Y-120250000D03*
D17*
X172600000Y-124550000D03*
X172600000Y-126550000D03*
D26*
X181848000Y-101955600D03*
X179848000Y-101955600D03*
D16*
X179077000Y-127693000D03*
X179077000Y-125693000D03*
D17*
X171802000Y-120089000D03*
X171802000Y-122089000D03*
M02*
