M48
; DRILL file {KiCad (6.0.1)} date Tue May 31 14:36:31 2022
; FORMAT={-:-/ absolute / metric / decimal}
; #@! TF.CreationDate,2022-05-31T14:36:31+02:00
; #@! TF.GenerationSoftware,Kicad,Pcbnew,(6.0.1)
; #@! TF.FileFunction,Plated,1,2,PTH
FMAT,2
METRIC
; #@! TA.AperFunction,Plated,PTH,ViaDrill
T1C0.400
; #@! TA.AperFunction,Plated,PTH,ComponentDrill
T2C0.750
; #@! TA.AperFunction,Plated,PTH,ComponentDrill
T3C1.000
; #@! TA.AperFunction,Plated,PTH,ComponentDrill
T4C1.020
; #@! TA.AperFunction,Plated,PTH,ComponentDrill
T5C1.040
; #@! TA.AperFunction,Plated,PTH,ComponentDrill
T6C1.200
%
G90
G05
T1
X106.934Y-118.542
X107.975Y-112.166
X110.16Y-114.198
X118.135Y-115.799
X120.802Y-123.292
X120.853Y-100.99
X122.199Y-104.165
X122.225Y-125.15
X123.2Y-113.225
X123.266Y-135.382
X123.85Y-126.675
X124.4Y-133.08
X125.45Y-125.15
X125.933Y-145.898
X128.448Y-112.801
X132.207Y-110.211
X132.725Y-107.075
X132.775Y-125.25
X134.425Y-105.475
X134.425Y-126.725
X135.001Y-116.459
X135.128Y-121.793
X135.975Y-107.075
X136.373Y-112.598
X136.925Y-125.375
X137.922Y-111.379
X138.85Y-124.2
X139.065Y-109.22
X139.325Y-114.402
X141.4Y-107.7
X142.825Y-104.1
X144.275Y-105.55
X144.575Y-113.995
X144.602Y-119.736
X146.152Y-129.692
X147.55Y-108.325
X147.904Y-123.495
X147.93Y-120.929
X148.5Y-106.75
X149.15Y-109.85
X149.377Y-119.431
X149.5Y-103.75
X150.038Y-125.578
X151.5Y-106.825
X153.289Y-122.504
X154.127Y-113.208
X155.067Y-129.54
X155.293Y-126.695
X156.108Y-113.081
X156.159Y-119.609
X156.775Y-109.1
X157.226Y-103.632
X157.375Y-126.8
X158.013Y-105.41
X158.547Y-114.071
X158.877Y-123.393
X158.9Y-125.45
X161.225Y-140.625
X162.225Y-103.7
X162.255Y-129.057
X162.7Y-108.9
X163.576Y-114.3
X164.2Y-105.225
X166.141Y-126.314
X166.325Y-140.575
X166.522Y-110.261
X166.827Y-118.491
X167.386Y-114.046
X167.691Y-104.191
X167.894Y-145.669
X169.367Y-109.804
X170.205Y-102.591
X170.307Y-122.047
X170.65Y-145.875
X171.069Y-125.984
X171.196Y-142.621
X172.847Y-127.889
X174.117Y-123.19
X175.641Y-122.047
X175.95Y-145.775
X176.657Y-127.381
X186.309Y-145.923
X193.294Y-121.793
X194.742Y-130.708
X195.199Y-116.713
X198.882Y-119.634
T2
X185.302Y-131.258
X185.302Y-133.258
X185.734Y-116.85
X185.734Y-118.85
T3
X105.735Y-114.046
X105.735Y-120.786
X108.275Y-114.046
X108.275Y-120.786
X125.085Y-134.75
X127.625Y-134.75
X195.085Y-118.25
X195.085Y-121.25
X195.085Y-124.25
X195.085Y-132.5
X195.085Y-135.5
X195.085Y-138.5
X198.085Y-118.25
X198.085Y-121.25
X198.085Y-124.25
X198.085Y-132.5
X198.085Y-135.5
X198.085Y-138.5
T4
X110.78Y-127.536
X110.78Y-131.036
X115.38Y-127.536
X115.38Y-131.036
X120.319Y-141.125
X120.319Y-144.625
X124.919Y-141.125
X124.919Y-144.625
T5
X122.884Y-102.616
X122.884Y-128.016
X125.424Y-102.616
X125.424Y-128.016
X127.964Y-102.616
X127.964Y-128.016
X130.504Y-102.616
X130.504Y-128.016
X133.044Y-102.616
X133.044Y-128.016
X135.584Y-102.616
X135.584Y-128.016
X138.124Y-102.616
X138.124Y-128.016
X140.664Y-102.616
X140.664Y-128.016
X143.204Y-102.616
X143.204Y-128.016
X145.744Y-102.616
X145.744Y-128.016
X148.284Y-102.616
X148.284Y-128.016
X150.824Y-102.616
X150.824Y-128.016
X153.364Y-102.616
X153.364Y-128.016
X155.904Y-102.616
X155.904Y-128.016
X158.444Y-102.616
X158.444Y-128.016
X160.984Y-102.616
X160.984Y-128.016
X163.524Y-102.616
X163.524Y-128.016
X166.064Y-102.616
X166.064Y-128.016
X168.604Y-102.616
X168.604Y-128.016
T6
X191.392Y-103.483
X191.392Y-106.983
X191.392Y-110.483
T0
M30
