%TF.GenerationSoftware,KiCad,Pcbnew,(6.0.1)*%
%TF.CreationDate,2022-02-01T16:24:05+01:00*%
%TF.ProjectId,Drawer_Controller,44726177-6572-45f4-936f-6e74726f6c6c,rev?*%
%TF.SameCoordinates,Original*%
%TF.FileFunction,Copper,L2,Bot*%
%TF.FilePolarity,Positive*%
%FSLAX46Y46*%
G04 Gerber Fmt 4.6, Leading zero omitted, Abs format (unit mm)*
G04 Created by KiCad (PCBNEW (6.0.1)) date 2022-02-01 16:24:05*
%MOMM*%
%LPD*%
G01*
G04 APERTURE LIST*
G04 Aperture macros list*
%AMRoundRect*
0 Rectangle with rounded corners*
0 $1 Rounding radius*
0 $2 $3 $4 $5 $6 $7 $8 $9 X,Y pos of 4 corners*
0 Add a 4 corners polygon primitive as box body*
4,1,4,$2,$3,$4,$5,$6,$7,$8,$9,$2,$3,0*
0 Add four circle primitives for the rounded corners*
1,1,$1+$1,$2,$3*
1,1,$1+$1,$4,$5*
1,1,$1+$1,$6,$7*
1,1,$1+$1,$8,$9*
0 Add four rect primitives between the rounded corners*
20,1,$1+$1,$2,$3,$4,$5,0*
20,1,$1+$1,$4,$5,$6,$7,0*
20,1,$1+$1,$6,$7,$8,$9,0*
20,1,$1+$1,$8,$9,$2,$3,0*%
G04 Aperture macros list end*
%TA.AperFunction,ComponentPad*%
%ADD10R,1.560000X1.560000*%
%TD*%
%TA.AperFunction,ComponentPad*%
%ADD11C,1.560000*%
%TD*%
%TA.AperFunction,ComponentPad*%
%ADD12C,2.400000*%
%TD*%
%TA.AperFunction,ComponentPad*%
%ADD13C,1.524000*%
%TD*%
%TA.AperFunction,ComponentPad*%
%ADD14RoundRect,0.250000X0.600000X0.725000X-0.600000X0.725000X-0.600000X-0.725000X0.600000X-0.725000X0*%
%TD*%
%TA.AperFunction,ComponentPad*%
%ADD15O,1.700000X1.950000*%
%TD*%
%TA.AperFunction,ViaPad*%
%ADD16C,0.800000*%
%TD*%
G04 APERTURE END LIST*
D10*
%TO.P,U1,1,3V3*%
%TO.N,+3V3*%
X179030000Y-102300000D03*
D11*
%TO.P,U1,2,EN*%
%TO.N,unconnected-(U1-Pad2)*%
X176490000Y-102300000D03*
%TO.P,U1,3,SENSOR_VP*%
%TO.N,unconnected-(U1-Pad3)*%
X173950000Y-102300000D03*
%TO.P,U1,4,SENSOR_VN*%
%TO.N,unconnected-(U1-Pad4)*%
X171410000Y-102300000D03*
%TO.P,U1,5,IO34*%
%TO.N,unconnected-(U1-Pad5)*%
X168870000Y-102300000D03*
%TO.P,U1,6,IO35*%
%TO.N,unconnected-(U1-Pad6)*%
X166330000Y-102300000D03*
%TO.P,U1,7,IO32*%
%TO.N,unconnected-(U1-Pad7)*%
X163790000Y-102300000D03*
%TO.P,U1,8,IO33*%
%TO.N,unconnected-(U1-Pad8)*%
X161250000Y-102300000D03*
%TO.P,U1,9,IO25*%
%TO.N,unconnected-(U1-Pad9)*%
X158710000Y-102300000D03*
%TO.P,U1,10,IO26*%
%TO.N,unconnected-(U1-Pad10)*%
X156170000Y-102300000D03*
%TO.P,U1,11,IO27*%
%TO.N,unconnected-(U1-Pad11)*%
X153630000Y-102300000D03*
%TO.P,U1,12,IO14*%
%TO.N,unconnected-(U1-Pad12)*%
X151090000Y-102300000D03*
%TO.P,U1,13,IO12*%
%TO.N,unconnected-(U1-Pad13)*%
X148550000Y-102300000D03*
%TO.P,U1,14,GND1*%
%TO.N,GND*%
X146010000Y-102300000D03*
%TO.P,U1,15,IO13*%
%TO.N,unconnected-(U1-Pad15)*%
X143470000Y-102300000D03*
%TO.P,U1,16,SD2*%
%TO.N,unconnected-(U1-Pad16)*%
X140930000Y-102300000D03*
%TO.P,U1,17,SD3*%
%TO.N,unconnected-(U1-Pad17)*%
X138390000Y-102300000D03*
%TO.P,U1,18,CMD*%
%TO.N,unconnected-(U1-Pad18)*%
X135850000Y-102300000D03*
%TO.P,U1,19,EXT_5V*%
%TO.N,+5V*%
X133310000Y-102300000D03*
%TO.P,U1,20,GND3*%
%TO.N,unconnected-(U1-Pad20)*%
X179030000Y-127700000D03*
%TO.P,U1,21,IO23*%
%TO.N,unconnected-(U1-Pad21)*%
X176490000Y-127700000D03*
%TO.P,U1,22,IO22*%
%TO.N,unconnected-(U1-Pad22)*%
X173950000Y-127700000D03*
%TO.P,U1,23,TXD0*%
%TO.N,unconnected-(U1-Pad23)*%
X171410000Y-127700000D03*
%TO.P,U1,24,RXD0*%
%TO.N,unconnected-(U1-Pad24)*%
X168870000Y-127700000D03*
%TO.P,U1,25,IO21*%
%TO.N,Net-(R2-Pad1)*%
X166330000Y-127700000D03*
%TO.P,U1,26,GND2*%
%TO.N,unconnected-(U1-Pad26)*%
X163790000Y-127700000D03*
%TO.P,U1,27,IO19*%
%TO.N,Net-(C3-Pad1)*%
X161250000Y-127700000D03*
%TO.P,U1,28,IO18*%
%TO.N,Net-(R5-Pad1)*%
X158710000Y-127700000D03*
%TO.P,U1,29,IO5*%
%TO.N,Net-(CAN1-Pad3)*%
X156170000Y-127700000D03*
%TO.P,U1,30,IO17*%
%TO.N,unconnected-(U1-Pad30)*%
X153630000Y-127700000D03*
%TO.P,U1,31,IO16*%
%TO.N,unconnected-(U1-Pad31)*%
X151090000Y-127700000D03*
%TO.P,U1,32,IO4*%
%TO.N,Net-(CAN1-Pad4)*%
X148550000Y-127700000D03*
%TO.P,U1,33,IO0*%
%TO.N,unconnected-(U1-Pad33)*%
X146010000Y-127700000D03*
%TO.P,U1,34,IO2*%
%TO.N,Net-(R3-Pad1)*%
X143470000Y-127700000D03*
%TO.P,U1,35,IO15*%
%TO.N,unconnected-(U1-Pad35)*%
X140930000Y-127700000D03*
%TO.P,U1,36,SD1*%
%TO.N,unconnected-(U1-Pad36)*%
X138390000Y-127700000D03*
%TO.P,U1,37,SD0*%
%TO.N,unconnected-(U1-Pad37)*%
X135850000Y-127700000D03*
%TO.P,U1,38,CLK*%
%TO.N,unconnected-(U1-Pad38)*%
X133310000Y-127700000D03*
%TD*%
D12*
%TO.P,J1,1*%
%TO.N,+12V*%
X107900000Y-134660000D03*
%TO.P,J1,2*%
%TO.N,+5V*%
X107900000Y-129580000D03*
%TO.P,J1,3*%
%TO.N,GND*%
X107900000Y-124500000D03*
%TO.P,J1,4*%
%TO.N,CANL*%
X107900000Y-119420000D03*
%TO.P,J1,5*%
%TO.N,CANH*%
X107900000Y-114340000D03*
%TD*%
D13*
%TO.P,CAN1,1,3.3V*%
%TO.N,+3V3*%
X117920000Y-103650000D03*
%TO.P,CAN1,2,GND*%
%TO.N,GND*%
X117920000Y-106190000D03*
%TO.P,CAN1,3,CTX*%
%TO.N,Net-(CAN1-Pad3)*%
X117920000Y-108730000D03*
%TO.P,CAN1,4,CRX*%
%TO.N,Net-(CAN1-Pad4)*%
X117920000Y-111270000D03*
%TO.P,CAN1,5,CANH*%
%TO.N,CANH*%
X117920000Y-113810000D03*
%TO.P,CAN1,6,CANL*%
%TO.N,CANL*%
X117920000Y-116350000D03*
%TD*%
D12*
%TO.P,J3,1*%
%TO.N,+12V*%
X119000000Y-144160000D03*
%TO.P,J3,2*%
%TO.N,+5V*%
X119000000Y-139080000D03*
%TO.P,J3,3*%
%TO.N,GND*%
X119000000Y-134000000D03*
%TO.P,J3,4*%
%TO.N,CANL*%
X119000000Y-128920000D03*
%TO.P,J3,5*%
%TO.N,CANH*%
X119000000Y-123840000D03*
%TD*%
D14*
%TO.P,J2,1,Pin_1*%
%TO.N,+5V*%
X193500000Y-136925000D03*
D15*
%TO.P,J2,2,Pin_2*%
%TO.N,Net-(J2-Pad2)*%
X191000000Y-136925000D03*
%TO.P,J2,3,Pin_3*%
%TO.N,Net-(D3-Pad1)*%
X188500000Y-136925000D03*
%TD*%
D12*
%TO.P,J4,1*%
%TO.N,GND*%
X194500000Y-112880000D03*
%TO.P,J4,2*%
%TO.N,Net-(D2-Pad1)*%
X194500000Y-117960000D03*
%TO.P,J4,3*%
%TO.N,Net-(D1-PadA)*%
X194500000Y-123040000D03*
%TO.P,J4,4*%
%TO.N,+12V*%
X194500000Y-128120000D03*
%TD*%
D16*
%TO.N,GND*%
X168350000Y-132350000D03*
X185500000Y-141100000D03*
X182500000Y-141100000D03*
%TD*%
%TA.AperFunction,Conductor*%
%TO.N,GND*%
G36*
X201934121Y-100528002D02*
G01*
X201980614Y-100581658D01*
X201992000Y-100634000D01*
X201992000Y-149366000D01*
X201971998Y-149434121D01*
X201918342Y-149480614D01*
X201866000Y-149492000D01*
X103134000Y-149492000D01*
X103065879Y-149471998D01*
X103019386Y-149418342D01*
X103008000Y-149366000D01*
X103008000Y-145046485D01*
X105336854Y-145046485D01*
X105337156Y-145050320D01*
X105355108Y-145278417D01*
X105362370Y-145370695D01*
X105427206Y-145689378D01*
X105530398Y-145997784D01*
X105670405Y-146291316D01*
X105845141Y-146565597D01*
X105847584Y-146568560D01*
X105847585Y-146568562D01*
X105997308Y-146750190D01*
X106052001Y-146816538D01*
X106287902Y-147040399D01*
X106549326Y-147233843D01*
X106690851Y-147313914D01*
X106829019Y-147392086D01*
X106829023Y-147392088D01*
X106832376Y-147393985D01*
X107132832Y-147518438D01*
X107236288Y-147547129D01*
X107442500Y-147604317D01*
X107442508Y-147604319D01*
X107446216Y-147605347D01*
X107767856Y-147653416D01*
X107771154Y-147653560D01*
X107882918Y-147658440D01*
X107882922Y-147658440D01*
X107884294Y-147658500D01*
X108082598Y-147658500D01*
X108324605Y-147643698D01*
X108328388Y-147642997D01*
X108328395Y-147642996D01*
X108528459Y-147605916D01*
X108644372Y-147584433D01*
X108853682Y-147518438D01*
X108950860Y-147487798D01*
X108950863Y-147487797D01*
X108954532Y-147486640D01*
X108958029Y-147485046D01*
X108958035Y-147485044D01*
X109246954Y-147353376D01*
X109246958Y-147353374D01*
X109250462Y-147351777D01*
X109527751Y-147181854D01*
X109530755Y-147179464D01*
X109530760Y-147179461D01*
X109655008Y-147080629D01*
X109782264Y-146979405D01*
X109784958Y-146976664D01*
X109784962Y-146976660D01*
X110007513Y-146750190D01*
X110007517Y-146750185D01*
X110010208Y-146747447D01*
X110208185Y-146489439D01*
X110373242Y-146209227D01*
X110502920Y-145910988D01*
X110514547Y-145871738D01*
X110569681Y-145685607D01*
X110595285Y-145599169D01*
X110648961Y-145278417D01*
X110663146Y-144953515D01*
X110650388Y-144791410D01*
X110637932Y-144633140D01*
X110637932Y-144633137D01*
X110637630Y-144629305D01*
X110572794Y-144310622D01*
X110507390Y-144115151D01*
X117287296Y-144115151D01*
X117299480Y-144368798D01*
X117349021Y-144617857D01*
X117350600Y-144622255D01*
X117350602Y-144622262D01*
X117395022Y-144745980D01*
X117434831Y-144856858D01*
X117437048Y-144860984D01*
X117534654Y-145042638D01*
X117555025Y-145080551D01*
X117557820Y-145084294D01*
X117557822Y-145084297D01*
X117704171Y-145280282D01*
X117704176Y-145280288D01*
X117706963Y-145284020D01*
X117710272Y-145287300D01*
X117710277Y-145287306D01*
X117808859Y-145385031D01*
X117887307Y-145462797D01*
X117891069Y-145465555D01*
X117891072Y-145465558D01*
X117996764Y-145543054D01*
X118092094Y-145612953D01*
X118096229Y-145615129D01*
X118096233Y-145615131D01*
X118214289Y-145677243D01*
X118316827Y-145731191D01*
X118556568Y-145814912D01*
X118806050Y-145862278D01*
X118926532Y-145867011D01*
X119055125Y-145872064D01*
X119055130Y-145872064D01*
X119059793Y-145872247D01*
X119158774Y-145861407D01*
X119307569Y-145845112D01*
X119307575Y-145845111D01*
X119312222Y-145844602D01*
X119421680Y-145815784D01*
X119553273Y-145781138D01*
X119557793Y-145779948D01*
X119760109Y-145693027D01*
X119786807Y-145681557D01*
X119786810Y-145681555D01*
X119791110Y-145679708D01*
X119795090Y-145677245D01*
X119795094Y-145677243D01*
X120003064Y-145548547D01*
X120003066Y-145548545D01*
X120007047Y-145546082D01*
X120105428Y-145462797D01*
X120197289Y-145385031D01*
X120197291Y-145385029D01*
X120200862Y-145382006D01*
X120368295Y-145191084D01*
X120461304Y-145046485D01*
X194836854Y-145046485D01*
X194837156Y-145050320D01*
X194855108Y-145278417D01*
X194862370Y-145370695D01*
X194927206Y-145689378D01*
X195030398Y-145997784D01*
X195170405Y-146291316D01*
X195345141Y-146565597D01*
X195347584Y-146568560D01*
X195347585Y-146568562D01*
X195497308Y-146750190D01*
X195552001Y-146816538D01*
X195787902Y-147040399D01*
X196049326Y-147233843D01*
X196190851Y-147313914D01*
X196329019Y-147392086D01*
X196329023Y-147392088D01*
X196332376Y-147393985D01*
X196632832Y-147518438D01*
X196736288Y-147547129D01*
X196942500Y-147604317D01*
X196942508Y-147604319D01*
X196946216Y-147605347D01*
X197267856Y-147653416D01*
X197271154Y-147653560D01*
X197382918Y-147658440D01*
X197382922Y-147658440D01*
X197384294Y-147658500D01*
X197582598Y-147658500D01*
X197824605Y-147643698D01*
X197828388Y-147642997D01*
X197828395Y-147642996D01*
X198028459Y-147605916D01*
X198144372Y-147584433D01*
X198353682Y-147518438D01*
X198450860Y-147487798D01*
X198450863Y-147487797D01*
X198454532Y-147486640D01*
X198458029Y-147485046D01*
X198458035Y-147485044D01*
X198746954Y-147353376D01*
X198746958Y-147353374D01*
X198750462Y-147351777D01*
X199027751Y-147181854D01*
X199030755Y-147179464D01*
X199030760Y-147179461D01*
X199155008Y-147080629D01*
X199282264Y-146979405D01*
X199284958Y-146976664D01*
X199284962Y-146976660D01*
X199507513Y-146750190D01*
X199507517Y-146750185D01*
X199510208Y-146747447D01*
X199708185Y-146489439D01*
X199873242Y-146209227D01*
X200002920Y-145910988D01*
X200014547Y-145871738D01*
X200069681Y-145685607D01*
X200095285Y-145599169D01*
X200148961Y-145278417D01*
X200163146Y-144953515D01*
X200150388Y-144791410D01*
X200137932Y-144633140D01*
X200137932Y-144633137D01*
X200137630Y-144629305D01*
X200072794Y-144310622D01*
X199969602Y-144002216D01*
X199829595Y-143708684D01*
X199654859Y-143434403D01*
X199644972Y-143422409D01*
X199450442Y-143186425D01*
X199450438Y-143186420D01*
X199447999Y-143183462D01*
X199212098Y-142959601D01*
X198950674Y-142766157D01*
X198801423Y-142681715D01*
X198670981Y-142607914D01*
X198670977Y-142607912D01*
X198667624Y-142606015D01*
X198589194Y-142573528D01*
X198441139Y-142512202D01*
X198367168Y-142481562D01*
X198255292Y-142450536D01*
X198057500Y-142395683D01*
X198057492Y-142395681D01*
X198053784Y-142394653D01*
X197732144Y-142346584D01*
X197728846Y-142346440D01*
X197617082Y-142341560D01*
X197617078Y-142341560D01*
X197615706Y-142341500D01*
X197417402Y-142341500D01*
X197175395Y-142356302D01*
X197171612Y-142357003D01*
X197171605Y-142357004D01*
X197015511Y-142385935D01*
X196855628Y-142415567D01*
X196671058Y-142473762D01*
X196549140Y-142512202D01*
X196549137Y-142512203D01*
X196545468Y-142513360D01*
X196541971Y-142514954D01*
X196541965Y-142514956D01*
X196253046Y-142646624D01*
X196253042Y-142646626D01*
X196249538Y-142648223D01*
X196246259Y-142650233D01*
X196246256Y-142650234D01*
X196000629Y-142800755D01*
X195972249Y-142818146D01*
X195969245Y-142820536D01*
X195969240Y-142820539D01*
X195844992Y-142919371D01*
X195717736Y-143020595D01*
X195715042Y-143023336D01*
X195715038Y-143023340D01*
X195492487Y-143249810D01*
X195492483Y-143249815D01*
X195489792Y-143252553D01*
X195291815Y-143510561D01*
X195126758Y-143790773D01*
X194997080Y-144089012D01*
X194995986Y-144092706D01*
X194995984Y-144092711D01*
X194976985Y-144156851D01*
X194904715Y-144400831D01*
X194851039Y-144721583D01*
X194836854Y-145046485D01*
X120461304Y-145046485D01*
X120505669Y-144977512D01*
X120609967Y-144745980D01*
X120678896Y-144501575D01*
X120702709Y-144314393D01*
X120710545Y-144252798D01*
X120710545Y-144252792D01*
X120710943Y-144249667D01*
X120713291Y-144160000D01*
X120707753Y-144085478D01*
X120694818Y-143911411D01*
X120694817Y-143911407D01*
X120694472Y-143906759D01*
X120638428Y-143659082D01*
X120620138Y-143612050D01*
X120548084Y-143426762D01*
X120548083Y-143426760D01*
X120546391Y-143422409D01*
X120525866Y-143386498D01*
X120422702Y-143205997D01*
X120422700Y-143205995D01*
X120420383Y-143201940D01*
X120263171Y-143002517D01*
X120078209Y-142828523D01*
X119985571Y-142764258D01*
X119873393Y-142686437D01*
X119873390Y-142686435D01*
X119869561Y-142683779D01*
X119865384Y-142681719D01*
X119865377Y-142681715D01*
X119645996Y-142573528D01*
X119645992Y-142573527D01*
X119641810Y-142571464D01*
X119399960Y-142494047D01*
X119395355Y-142493297D01*
X119153935Y-142453980D01*
X119153934Y-142453980D01*
X119149323Y-142453229D01*
X119022364Y-142451567D01*
X118900083Y-142449966D01*
X118900080Y-142449966D01*
X118895406Y-142449905D01*
X118643787Y-142484149D01*
X118399993Y-142555208D01*
X118169380Y-142661522D01*
X118165471Y-142664085D01*
X117960928Y-142798189D01*
X117960923Y-142798193D01*
X117957015Y-142800755D01*
X117767562Y-142969848D01*
X117605183Y-143165087D01*
X117473447Y-143382182D01*
X117471638Y-143386496D01*
X117471637Y-143386498D01*
X117420898Y-143507498D01*
X117375246Y-143616365D01*
X117312738Y-143862490D01*
X117287296Y-144115151D01*
X110507390Y-144115151D01*
X110469602Y-144002216D01*
X110329595Y-143708684D01*
X110154859Y-143434403D01*
X110144972Y-143422409D01*
X109950442Y-143186425D01*
X109950438Y-143186420D01*
X109947999Y-143183462D01*
X109712098Y-142959601D01*
X109450674Y-142766157D01*
X109301423Y-142681715D01*
X109170981Y-142607914D01*
X109170977Y-142607912D01*
X109167624Y-142606015D01*
X109089194Y-142573528D01*
X108941139Y-142512202D01*
X108867168Y-142481562D01*
X108755292Y-142450536D01*
X108557500Y-142395683D01*
X108557492Y-142395681D01*
X108553784Y-142394653D01*
X108232144Y-142346584D01*
X108228846Y-142346440D01*
X108117082Y-142341560D01*
X108117078Y-142341560D01*
X108115706Y-142341500D01*
X107917402Y-142341500D01*
X107675395Y-142356302D01*
X107671612Y-142357003D01*
X107671605Y-142357004D01*
X107515511Y-142385935D01*
X107355628Y-142415567D01*
X107171058Y-142473762D01*
X107049140Y-142512202D01*
X107049137Y-142512203D01*
X107045468Y-142513360D01*
X107041971Y-142514954D01*
X107041965Y-142514956D01*
X106753046Y-142646624D01*
X106753042Y-142646626D01*
X106749538Y-142648223D01*
X106746259Y-142650233D01*
X106746256Y-142650234D01*
X106500629Y-142800755D01*
X106472249Y-142818146D01*
X106469245Y-142820536D01*
X106469240Y-142820539D01*
X106344992Y-142919371D01*
X106217736Y-143020595D01*
X106215042Y-143023336D01*
X106215038Y-143023340D01*
X105992487Y-143249810D01*
X105992483Y-143249815D01*
X105989792Y-143252553D01*
X105791815Y-143510561D01*
X105626758Y-143790773D01*
X105497080Y-144089012D01*
X105495986Y-144092706D01*
X105495984Y-144092711D01*
X105476985Y-144156851D01*
X105404715Y-144400831D01*
X105351039Y-144721583D01*
X105336854Y-145046485D01*
X103008000Y-145046485D01*
X103008000Y-139035151D01*
X117287296Y-139035151D01*
X117299480Y-139288798D01*
X117349021Y-139537857D01*
X117350600Y-139542255D01*
X117350602Y-139542262D01*
X117395022Y-139665980D01*
X117434831Y-139776858D01*
X117555025Y-140000551D01*
X117557820Y-140004294D01*
X117557822Y-140004297D01*
X117704171Y-140200282D01*
X117704176Y-140200288D01*
X117706963Y-140204020D01*
X117710272Y-140207300D01*
X117710277Y-140207306D01*
X117808859Y-140305031D01*
X117887307Y-140382797D01*
X117891069Y-140385555D01*
X117891072Y-140385558D01*
X117996764Y-140463054D01*
X118092094Y-140532953D01*
X118096229Y-140535129D01*
X118096233Y-140535131D01*
X118214289Y-140597243D01*
X118316827Y-140651191D01*
X118556568Y-140734912D01*
X118806050Y-140782278D01*
X118926532Y-140787011D01*
X119055125Y-140792064D01*
X119055130Y-140792064D01*
X119059793Y-140792247D01*
X119158774Y-140781407D01*
X119307569Y-140765112D01*
X119307575Y-140765111D01*
X119312222Y-140764602D01*
X119421680Y-140735784D01*
X119553273Y-140701138D01*
X119557793Y-140699948D01*
X119676353Y-140649011D01*
X119786807Y-140601557D01*
X119786810Y-140601555D01*
X119791110Y-140599708D01*
X119795090Y-140597245D01*
X119795094Y-140597243D01*
X120003064Y-140468547D01*
X120003066Y-140468545D01*
X120007047Y-140466082D01*
X120105428Y-140382797D01*
X120197289Y-140305031D01*
X120197291Y-140305029D01*
X120200862Y-140302006D01*
X120368295Y-140111084D01*
X120505669Y-139897512D01*
X120609967Y-139665980D01*
X120678896Y-139421575D01*
X120710943Y-139169667D01*
X120713291Y-139080000D01*
X120694472Y-138826759D01*
X120638428Y-138579082D01*
X120573142Y-138411198D01*
X120548084Y-138346762D01*
X120548083Y-138346760D01*
X120546391Y-138342409D01*
X120543696Y-138337694D01*
X120422702Y-138125997D01*
X120422700Y-138125995D01*
X120420383Y-138121940D01*
X120263171Y-137922517D01*
X120139486Y-137806166D01*
X120081610Y-137751722D01*
X120081608Y-137751720D01*
X120078209Y-137748523D01*
X120027111Y-137713075D01*
X119873393Y-137606437D01*
X119873390Y-137606435D01*
X119869561Y-137603779D01*
X119865384Y-137601719D01*
X119865377Y-137601715D01*
X119645996Y-137493528D01*
X119645992Y-137493527D01*
X119641810Y-137491464D01*
X119399960Y-137414047D01*
X119395355Y-137413297D01*
X119153935Y-137373980D01*
X119153934Y-137373980D01*
X119149323Y-137373229D01*
X119022365Y-137371567D01*
X118900083Y-137369966D01*
X118900080Y-137369966D01*
X118895406Y-137369905D01*
X118643787Y-137404149D01*
X118399993Y-137475208D01*
X118169380Y-137581522D01*
X118165471Y-137584085D01*
X117960928Y-137718189D01*
X117960923Y-137718193D01*
X117957015Y-137720755D01*
X117767562Y-137889848D01*
X117605183Y-138085087D01*
X117473447Y-138302182D01*
X117471638Y-138306496D01*
X117471637Y-138306498D01*
X117429002Y-138408172D01*
X117375246Y-138536365D01*
X117312738Y-138782490D01*
X117287296Y-139035151D01*
X103008000Y-139035151D01*
X103008000Y-137107890D01*
X187141500Y-137107890D01*
X187156080Y-137279720D01*
X187157418Y-137284875D01*
X187157419Y-137284881D01*
X187212657Y-137497703D01*
X187213999Y-137502872D01*
X187216191Y-137507738D01*
X187216192Y-137507741D01*
X187251033Y-137585085D01*
X187308688Y-137713075D01*
X187437441Y-137904319D01*
X187441120Y-137908176D01*
X187441122Y-137908178D01*
X187502710Y-137972738D01*
X187596576Y-138071135D01*
X187781542Y-138208754D01*
X187786293Y-138211170D01*
X187786297Y-138211172D01*
X187849481Y-138243296D01*
X187987051Y-138313240D01*
X187992145Y-138314822D01*
X187992148Y-138314823D01*
X188192020Y-138376885D01*
X188207227Y-138381607D01*
X188212516Y-138382308D01*
X188430489Y-138411198D01*
X188430494Y-138411198D01*
X188435774Y-138411898D01*
X188441103Y-138411698D01*
X188441105Y-138411698D01*
X188550966Y-138407573D01*
X188666158Y-138403249D01*
X188688802Y-138398498D01*
X188886572Y-138357002D01*
X188891791Y-138355907D01*
X188896750Y-138353949D01*
X188896752Y-138353948D01*
X189101256Y-138273185D01*
X189101258Y-138273184D01*
X189106221Y-138271224D01*
X189142343Y-138249305D01*
X189298757Y-138154390D01*
X189298756Y-138154390D01*
X189303317Y-138151623D01*
X189329984Y-138128483D01*
X189473412Y-138004023D01*
X189473414Y-138004021D01*
X189477445Y-138000523D01*
X189511516Y-137958970D01*
X189620240Y-137826373D01*
X189620244Y-137826367D01*
X189623624Y-137822245D01*
X189641552Y-137790750D01*
X189692632Y-137741445D01*
X189762262Y-137727583D01*
X189828333Y-137753566D01*
X189855573Y-137782716D01*
X189937441Y-137904319D01*
X189941120Y-137908176D01*
X189941122Y-137908178D01*
X190002710Y-137972738D01*
X190096576Y-138071135D01*
X190281542Y-138208754D01*
X190286293Y-138211170D01*
X190286297Y-138211172D01*
X190349481Y-138243296D01*
X190487051Y-138313240D01*
X190492145Y-138314822D01*
X190492148Y-138314823D01*
X190692020Y-138376885D01*
X190707227Y-138381607D01*
X190712516Y-138382308D01*
X190930489Y-138411198D01*
X190930494Y-138411198D01*
X190935774Y-138411898D01*
X190941103Y-138411698D01*
X190941105Y-138411698D01*
X191050966Y-138407573D01*
X191166158Y-138403249D01*
X191188802Y-138398498D01*
X191386572Y-138357002D01*
X191391791Y-138355907D01*
X191396750Y-138353949D01*
X191396752Y-138353948D01*
X191601256Y-138273185D01*
X191601258Y-138273184D01*
X191606221Y-138271224D01*
X191642343Y-138249305D01*
X191798757Y-138154390D01*
X191798756Y-138154390D01*
X191803317Y-138151623D01*
X191829984Y-138128483D01*
X191973412Y-138004023D01*
X191973414Y-138004021D01*
X191977445Y-138000523D01*
X192006670Y-137964880D01*
X192065329Y-137924886D01*
X192136299Y-137922954D01*
X192197048Y-137959698D01*
X192211248Y-137978468D01*
X192222340Y-137996392D01*
X192301522Y-138124348D01*
X192426697Y-138249305D01*
X192432927Y-138253145D01*
X192432928Y-138253146D01*
X192570090Y-138337694D01*
X192577262Y-138342115D01*
X192612938Y-138353948D01*
X192738611Y-138395632D01*
X192738613Y-138395632D01*
X192745139Y-138397797D01*
X192751975Y-138398497D01*
X192751978Y-138398498D01*
X192787663Y-138402154D01*
X192849600Y-138408500D01*
X194150400Y-138408500D01*
X194153646Y-138408163D01*
X194153650Y-138408163D01*
X194249308Y-138398238D01*
X194249312Y-138398237D01*
X194256166Y-138397526D01*
X194262702Y-138395345D01*
X194262704Y-138395345D01*
X194408324Y-138346762D01*
X194423946Y-138341550D01*
X194574348Y-138248478D01*
X194699305Y-138123303D01*
X194731462Y-138071135D01*
X194788275Y-137978968D01*
X194788276Y-137978966D01*
X194792115Y-137972738D01*
X194842031Y-137822245D01*
X194845632Y-137811389D01*
X194845632Y-137811387D01*
X194847797Y-137804861D01*
X194858500Y-137700400D01*
X194858500Y-136149600D01*
X194854411Y-136110188D01*
X194848238Y-136050692D01*
X194848237Y-136050688D01*
X194847526Y-136043834D01*
X194843710Y-136032394D01*
X194793868Y-135883002D01*
X194791550Y-135876054D01*
X194698478Y-135725652D01*
X194573303Y-135600695D01*
X194546701Y-135584297D01*
X194428968Y-135511725D01*
X194428966Y-135511724D01*
X194422738Y-135507885D01*
X194318319Y-135473251D01*
X194261389Y-135454368D01*
X194261387Y-135454368D01*
X194254861Y-135452203D01*
X194248025Y-135451503D01*
X194248022Y-135451502D01*
X194204969Y-135447091D01*
X194150400Y-135441500D01*
X192849600Y-135441500D01*
X192846354Y-135441837D01*
X192846350Y-135441837D01*
X192750692Y-135451762D01*
X192750688Y-135451763D01*
X192743834Y-135452474D01*
X192737298Y-135454655D01*
X192737296Y-135454655D01*
X192622369Y-135492998D01*
X192576054Y-135508450D01*
X192425652Y-135601522D01*
X192300695Y-135726697D01*
X192227170Y-135845977D01*
X192210920Y-135872339D01*
X192158148Y-135919832D01*
X192088076Y-135931256D01*
X192022952Y-135902982D01*
X192012490Y-135893195D01*
X191911476Y-135787306D01*
X191903424Y-135778865D01*
X191718458Y-135641246D01*
X191713707Y-135638830D01*
X191713703Y-135638828D01*
X191601033Y-135581544D01*
X191512949Y-135536760D01*
X191507855Y-135535178D01*
X191507852Y-135535177D01*
X191297871Y-135469976D01*
X191292773Y-135468393D01*
X191287484Y-135467692D01*
X191069511Y-135438802D01*
X191069506Y-135438802D01*
X191064226Y-135438102D01*
X191058897Y-135438302D01*
X191058895Y-135438302D01*
X190949034Y-135442427D01*
X190833842Y-135446751D01*
X190828623Y-135447846D01*
X190806566Y-135452474D01*
X190608209Y-135494093D01*
X190603250Y-135496051D01*
X190603248Y-135496052D01*
X190398744Y-135576815D01*
X190398742Y-135576816D01*
X190393779Y-135578776D01*
X190389220Y-135581543D01*
X190389217Y-135581544D01*
X190290832Y-135641246D01*
X190196683Y-135698377D01*
X190192653Y-135701874D01*
X190099484Y-135782722D01*
X190022555Y-135849477D01*
X189995883Y-135882006D01*
X189879760Y-136023627D01*
X189879756Y-136023633D01*
X189876376Y-136027755D01*
X189858448Y-136059250D01*
X189807368Y-136108555D01*
X189737738Y-136122417D01*
X189671667Y-136096434D01*
X189644427Y-136067284D01*
X189574082Y-135962797D01*
X189562559Y-135945681D01*
X189403424Y-135778865D01*
X189218458Y-135641246D01*
X189213707Y-135638830D01*
X189213703Y-135638828D01*
X189101033Y-135581544D01*
X189012949Y-135536760D01*
X189007855Y-135535178D01*
X189007852Y-135535177D01*
X188797871Y-135469976D01*
X188792773Y-135468393D01*
X188787484Y-135467692D01*
X188569511Y-135438802D01*
X188569506Y-135438802D01*
X188564226Y-135438102D01*
X188558897Y-135438302D01*
X188558895Y-135438302D01*
X188449034Y-135442427D01*
X188333842Y-135446751D01*
X188328623Y-135447846D01*
X188306566Y-135452474D01*
X188108209Y-135494093D01*
X188103250Y-135496051D01*
X188103248Y-135496052D01*
X187898744Y-135576815D01*
X187898742Y-135576816D01*
X187893779Y-135578776D01*
X187889220Y-135581543D01*
X187889217Y-135581544D01*
X187790832Y-135641246D01*
X187696683Y-135698377D01*
X187692653Y-135701874D01*
X187599484Y-135782722D01*
X187522555Y-135849477D01*
X187495883Y-135882006D01*
X187379760Y-136023627D01*
X187379756Y-136023633D01*
X187376376Y-136027755D01*
X187373738Y-136032390D01*
X187373735Y-136032394D01*
X187330382Y-136108555D01*
X187262325Y-136228114D01*
X187183663Y-136444825D01*
X187182714Y-136450074D01*
X187182713Y-136450077D01*
X187143377Y-136667608D01*
X187143376Y-136667615D01*
X187142639Y-136671692D01*
X187141500Y-136695844D01*
X187141500Y-137107890D01*
X103008000Y-137107890D01*
X103008000Y-134615151D01*
X106187296Y-134615151D01*
X106199480Y-134868798D01*
X106249021Y-135117857D01*
X106250600Y-135122255D01*
X106250602Y-135122262D01*
X106295022Y-135245980D01*
X106334831Y-135356858D01*
X106337048Y-135360984D01*
X106432795Y-135539178D01*
X106455025Y-135580551D01*
X106457820Y-135584294D01*
X106457822Y-135584297D01*
X106604171Y-135780282D01*
X106604176Y-135780288D01*
X106606963Y-135784020D01*
X106610272Y-135787300D01*
X106610277Y-135787306D01*
X106766148Y-135941822D01*
X106787307Y-135962797D01*
X106791069Y-135965555D01*
X106791072Y-135965558D01*
X106969565Y-136096434D01*
X106992094Y-136112953D01*
X106996229Y-136115129D01*
X106996233Y-136115131D01*
X107037657Y-136136925D01*
X107216827Y-136231191D01*
X107456568Y-136314912D01*
X107706050Y-136362278D01*
X107826532Y-136367011D01*
X107955125Y-136372064D01*
X107955130Y-136372064D01*
X107959793Y-136372247D01*
X108058774Y-136361407D01*
X108207569Y-136345112D01*
X108207575Y-136345111D01*
X108212222Y-136344602D01*
X108321680Y-136315784D01*
X108453273Y-136281138D01*
X108457793Y-136279948D01*
X108589248Y-136223471D01*
X108686807Y-136181557D01*
X108686810Y-136181555D01*
X108691110Y-136179708D01*
X108695090Y-136177245D01*
X108695094Y-136177243D01*
X108903064Y-136048547D01*
X108903066Y-136048545D01*
X108907047Y-136046082D01*
X108910624Y-136043054D01*
X109097289Y-135885031D01*
X109097291Y-135885029D01*
X109100862Y-135882006D01*
X109268295Y-135691084D01*
X109273549Y-135682917D01*
X109403141Y-135481442D01*
X109405669Y-135477512D01*
X109452587Y-135373359D01*
X117991386Y-135373359D01*
X118000099Y-135384879D01*
X118088586Y-135449760D01*
X118096505Y-135454708D01*
X118312877Y-135568547D01*
X118321451Y-135572275D01*
X118552282Y-135652885D01*
X118561291Y-135655299D01*
X118801518Y-135700908D01*
X118810775Y-135701962D01*
X119055107Y-135711563D01*
X119064420Y-135711237D01*
X119307478Y-135684618D01*
X119316655Y-135682917D01*
X119553107Y-135620665D01*
X119561926Y-135617628D01*
X119786584Y-135521107D01*
X119794856Y-135516800D01*
X120002777Y-135388135D01*
X120004620Y-135386796D01*
X120012038Y-135375541D01*
X120005974Y-135365184D01*
X119012812Y-134372022D01*
X118998868Y-134364408D01*
X118997035Y-134364539D01*
X118990420Y-134368790D01*
X117998044Y-135361166D01*
X117991386Y-135373359D01*
X109452587Y-135373359D01*
X109509967Y-135245980D01*
X109578896Y-135001575D01*
X109610943Y-134749667D01*
X109613291Y-134660000D01*
X109608095Y-134590076D01*
X109594818Y-134411411D01*
X109594817Y-134411407D01*
X109594472Y-134406759D01*
X109585881Y-134368790D01*
X109539459Y-134163639D01*
X109538428Y-134159082D01*
X109480290Y-134009580D01*
X109460945Y-133959835D01*
X117288022Y-133959835D01*
X117299754Y-134204064D01*
X117300891Y-134213324D01*
X117348593Y-134453143D01*
X117351082Y-134462118D01*
X117433708Y-134692250D01*
X117437505Y-134700778D01*
X117553234Y-134916160D01*
X117558245Y-134924027D01*
X117615173Y-135000263D01*
X117626431Y-135008712D01*
X117638850Y-135001940D01*
X118627978Y-134012812D01*
X118634356Y-134001132D01*
X119364408Y-134001132D01*
X119364539Y-134002965D01*
X119368790Y-134009580D01*
X120363732Y-135004522D01*
X120376112Y-135011282D01*
X120384453Y-135005038D01*
X120502700Y-134821202D01*
X120507147Y-134813011D01*
X120607572Y-134590076D01*
X120610767Y-134581298D01*
X120677135Y-134345973D01*
X120678993Y-134336844D01*
X120710044Y-134092770D01*
X120710525Y-134086483D01*
X120712706Y-134003160D01*
X120712555Y-133996851D01*
X120694321Y-133751486D01*
X120692944Y-133742280D01*
X120638979Y-133503786D01*
X120636255Y-133494875D01*
X120547633Y-133266983D01*
X120543619Y-133258567D01*
X120422284Y-133046276D01*
X120417074Y-133038553D01*
X120385787Y-132998865D01*
X120373863Y-132990395D01*
X120362328Y-132996882D01*
X119372022Y-133987188D01*
X119364408Y-134001132D01*
X118634356Y-134001132D01*
X118635592Y-133998868D01*
X118635461Y-133997035D01*
X118631210Y-133990420D01*
X117636828Y-132996038D01*
X117623520Y-132988771D01*
X117613481Y-132995893D01*
X117608581Y-133001784D01*
X117603168Y-133009373D01*
X117476322Y-133218409D01*
X117472084Y-133226726D01*
X117377529Y-133452214D01*
X117374572Y-133461052D01*
X117314384Y-133698042D01*
X117312763Y-133707232D01*
X117288267Y-133950510D01*
X117288022Y-133959835D01*
X109460945Y-133959835D01*
X109448084Y-133926762D01*
X109448083Y-133926760D01*
X109446391Y-133922409D01*
X109425866Y-133886498D01*
X109322702Y-133705997D01*
X109322700Y-133705995D01*
X109320383Y-133701940D01*
X109163171Y-133502517D01*
X108978209Y-133328523D01*
X108819480Y-133218409D01*
X108773393Y-133186437D01*
X108773390Y-133186435D01*
X108769561Y-133183779D01*
X108765384Y-133181719D01*
X108765377Y-133181715D01*
X108545996Y-133073528D01*
X108545992Y-133073527D01*
X108541810Y-133071464D01*
X108299960Y-132994047D01*
X108295355Y-132993297D01*
X108053935Y-132953980D01*
X108053934Y-132953980D01*
X108049323Y-132953229D01*
X107922364Y-132951567D01*
X107800083Y-132949966D01*
X107800080Y-132949966D01*
X107795406Y-132949905D01*
X107543787Y-132984149D01*
X107539301Y-132985457D01*
X107539299Y-132985457D01*
X107512401Y-132993297D01*
X107299993Y-133055208D01*
X107069380Y-133161522D01*
X107065471Y-133164085D01*
X106860928Y-133298189D01*
X106860923Y-133298193D01*
X106857015Y-133300755D01*
X106667562Y-133469848D01*
X106505183Y-133665087D01*
X106373447Y-133882182D01*
X106371638Y-133886496D01*
X106371637Y-133886498D01*
X106287777Y-134086483D01*
X106275246Y-134116365D01*
X106212738Y-134362490D01*
X106187296Y-134615151D01*
X103008000Y-134615151D01*
X103008000Y-132624917D01*
X117989330Y-132624917D01*
X117993903Y-132634693D01*
X118987188Y-133627978D01*
X119001132Y-133635592D01*
X119002965Y-133635461D01*
X119009580Y-133631210D01*
X120002488Y-132638302D01*
X120008872Y-132626612D01*
X119999460Y-132614502D01*
X119873144Y-132526873D01*
X119865116Y-132522145D01*
X119645810Y-132413995D01*
X119637177Y-132410507D01*
X119404288Y-132335958D01*
X119395238Y-132333785D01*
X119153891Y-132294480D01*
X119144602Y-132293668D01*
X118900114Y-132290467D01*
X118890803Y-132291037D01*
X118648522Y-132324010D01*
X118639403Y-132325948D01*
X118404668Y-132394367D01*
X118395915Y-132397639D01*
X118173869Y-132500004D01*
X118165714Y-132504524D01*
X117998468Y-132614175D01*
X117989330Y-132624917D01*
X103008000Y-132624917D01*
X103008000Y-129535151D01*
X106187296Y-129535151D01*
X106199480Y-129788798D01*
X106224250Y-129913327D01*
X106232460Y-129954597D01*
X106249021Y-130037857D01*
X106250600Y-130042255D01*
X106250602Y-130042262D01*
X106295022Y-130165980D01*
X106334831Y-130276858D01*
X106337048Y-130280984D01*
X106449996Y-130491191D01*
X106455025Y-130500551D01*
X106457820Y-130504294D01*
X106457822Y-130504297D01*
X106604171Y-130700282D01*
X106604176Y-130700288D01*
X106606963Y-130704020D01*
X106610272Y-130707300D01*
X106610277Y-130707306D01*
X106708859Y-130805031D01*
X106787307Y-130882797D01*
X106791069Y-130885555D01*
X106791072Y-130885558D01*
X106896764Y-130963054D01*
X106992094Y-131032953D01*
X106996229Y-131035129D01*
X106996233Y-131035131D01*
X107114289Y-131097243D01*
X107216827Y-131151191D01*
X107456568Y-131234912D01*
X107706050Y-131282278D01*
X107826532Y-131287011D01*
X107955125Y-131292064D01*
X107955130Y-131292064D01*
X107959793Y-131292247D01*
X108058774Y-131281407D01*
X108207569Y-131265112D01*
X108207575Y-131265111D01*
X108212222Y-131264602D01*
X108321680Y-131235784D01*
X108453273Y-131201138D01*
X108457793Y-131199948D01*
X108576353Y-131149011D01*
X108686807Y-131101557D01*
X108686810Y-131101555D01*
X108691110Y-131099708D01*
X108695090Y-131097245D01*
X108695094Y-131097243D01*
X108903064Y-130968547D01*
X108903066Y-130968545D01*
X108907047Y-130966082D01*
X109005428Y-130882797D01*
X109097289Y-130805031D01*
X109097291Y-130805029D01*
X109100862Y-130802006D01*
X109268295Y-130611084D01*
X109272137Y-130605112D01*
X109403141Y-130401442D01*
X109405669Y-130397512D01*
X109509967Y-130165980D01*
X109578896Y-129921575D01*
X109593777Y-129804602D01*
X109610545Y-129672798D01*
X109610545Y-129672792D01*
X109610943Y-129669667D01*
X109611728Y-129639708D01*
X109613208Y-129583160D01*
X109613291Y-129580000D01*
X109601609Y-129422797D01*
X109594818Y-129331411D01*
X109594817Y-129331407D01*
X109594472Y-129326759D01*
X109579723Y-129261575D01*
X109539459Y-129083639D01*
X109538428Y-129079082D01*
X109511434Y-129009667D01*
X109459124Y-128875151D01*
X117287296Y-128875151D01*
X117287520Y-128879817D01*
X117287520Y-128879822D01*
X117290480Y-128941442D01*
X117299480Y-129128798D01*
X117300393Y-129133386D01*
X117341890Y-129342006D01*
X117349021Y-129377857D01*
X117350600Y-129382255D01*
X117350602Y-129382262D01*
X117419849Y-129575131D01*
X117434831Y-129616858D01*
X117437048Y-129620984D01*
X117550290Y-129831738D01*
X117555025Y-129840551D01*
X117557820Y-129844294D01*
X117557822Y-129844297D01*
X117704171Y-130040282D01*
X117704176Y-130040288D01*
X117706963Y-130044020D01*
X117710272Y-130047300D01*
X117710277Y-130047306D01*
X117808859Y-130145031D01*
X117887307Y-130222797D01*
X117891069Y-130225555D01*
X117891072Y-130225558D01*
X117961037Y-130276858D01*
X118092094Y-130372953D01*
X118096229Y-130375129D01*
X118096233Y-130375131D01*
X118214289Y-130437243D01*
X118316827Y-130491191D01*
X118556568Y-130574912D01*
X118806050Y-130622278D01*
X118926532Y-130627011D01*
X119055125Y-130632064D01*
X119055130Y-130632064D01*
X119059793Y-130632247D01*
X119158774Y-130621407D01*
X119307569Y-130605112D01*
X119307575Y-130605111D01*
X119312222Y-130604602D01*
X119421680Y-130575784D01*
X119553273Y-130541138D01*
X119557793Y-130539948D01*
X119676353Y-130489011D01*
X119786807Y-130441557D01*
X119786810Y-130441555D01*
X119791110Y-130439708D01*
X119795090Y-130437245D01*
X119795094Y-130437243D01*
X120003064Y-130308547D01*
X120003066Y-130308545D01*
X120007047Y-130306082D01*
X120105428Y-130222797D01*
X120197289Y-130145031D01*
X120197291Y-130145029D01*
X120200862Y-130142006D01*
X120368295Y-129951084D01*
X120444734Y-129832247D01*
X120481052Y-129775784D01*
X120505669Y-129737512D01*
X120609967Y-129505980D01*
X120678896Y-129261575D01*
X120696382Y-129124126D01*
X120710545Y-129012798D01*
X120710545Y-129012792D01*
X120710943Y-129009667D01*
X120711369Y-128993422D01*
X120712264Y-128959233D01*
X120713291Y-128920000D01*
X120709612Y-128870497D01*
X120694818Y-128671411D01*
X120694817Y-128671407D01*
X120694472Y-128666759D01*
X120685249Y-128625997D01*
X120639459Y-128423639D01*
X120638428Y-128419082D01*
X120627060Y-128389848D01*
X120548084Y-128186762D01*
X120548083Y-128186760D01*
X120546391Y-128182409D01*
X120525866Y-128146498D01*
X120422702Y-127965997D01*
X120422700Y-127965995D01*
X120420383Y-127961940D01*
X120263171Y-127762517D01*
X120196713Y-127700000D01*
X132016578Y-127700000D01*
X132036228Y-127924600D01*
X132037652Y-127929913D01*
X132037652Y-127929915D01*
X132087742Y-128116851D01*
X132094581Y-128142376D01*
X132096903Y-128147357D01*
X132096904Y-128147358D01*
X132115279Y-128186762D01*
X132189864Y-128346711D01*
X132319181Y-128531396D01*
X132478604Y-128690819D01*
X132663289Y-128820136D01*
X132668267Y-128822457D01*
X132668270Y-128822459D01*
X132771288Y-128870497D01*
X132867624Y-128915419D01*
X132872932Y-128916841D01*
X132872934Y-128916842D01*
X133080085Y-128972348D01*
X133080087Y-128972348D01*
X133085400Y-128973772D01*
X133310000Y-128993422D01*
X133534600Y-128973772D01*
X133539913Y-128972348D01*
X133539915Y-128972348D01*
X133747066Y-128916842D01*
X133747068Y-128916841D01*
X133752376Y-128915419D01*
X133848712Y-128870497D01*
X133951730Y-128822459D01*
X133951733Y-128822457D01*
X133956711Y-128820136D01*
X134141396Y-128690819D01*
X134300819Y-128531396D01*
X134430136Y-128346711D01*
X134465805Y-128270219D01*
X134512723Y-128216934D01*
X134581000Y-128197473D01*
X134648960Y-128218015D01*
X134694195Y-128270219D01*
X134729864Y-128346711D01*
X134859181Y-128531396D01*
X135018604Y-128690819D01*
X135203289Y-128820136D01*
X135208267Y-128822457D01*
X135208270Y-128822459D01*
X135311288Y-128870497D01*
X135407624Y-128915419D01*
X135412932Y-128916841D01*
X135412934Y-128916842D01*
X135620085Y-128972348D01*
X135620087Y-128972348D01*
X135625400Y-128973772D01*
X135850000Y-128993422D01*
X136074600Y-128973772D01*
X136079913Y-128972348D01*
X136079915Y-128972348D01*
X136287066Y-128916842D01*
X136287068Y-128916841D01*
X136292376Y-128915419D01*
X136388712Y-128870497D01*
X136491730Y-128822459D01*
X136491733Y-128822457D01*
X136496711Y-128820136D01*
X136681396Y-128690819D01*
X136840819Y-128531396D01*
X136970136Y-128346711D01*
X137005805Y-128270219D01*
X137052723Y-128216934D01*
X137121000Y-128197473D01*
X137188960Y-128218015D01*
X137234195Y-128270219D01*
X137269864Y-128346711D01*
X137399181Y-128531396D01*
X137558604Y-128690819D01*
X137743289Y-128820136D01*
X137748267Y-128822457D01*
X137748270Y-128822459D01*
X137851288Y-128870497D01*
X137947624Y-128915419D01*
X137952932Y-128916841D01*
X137952934Y-128916842D01*
X138160085Y-128972348D01*
X138160087Y-128972348D01*
X138165400Y-128973772D01*
X138390000Y-128993422D01*
X138614600Y-128973772D01*
X138619913Y-128972348D01*
X138619915Y-128972348D01*
X138827066Y-128916842D01*
X138827068Y-128916841D01*
X138832376Y-128915419D01*
X138928712Y-128870497D01*
X139031730Y-128822459D01*
X139031733Y-128822457D01*
X139036711Y-128820136D01*
X139221396Y-128690819D01*
X139380819Y-128531396D01*
X139510136Y-128346711D01*
X139545805Y-128270219D01*
X139592723Y-128216934D01*
X139661000Y-128197473D01*
X139728960Y-128218015D01*
X139774195Y-128270219D01*
X139809864Y-128346711D01*
X139939181Y-128531396D01*
X140098604Y-128690819D01*
X140283289Y-128820136D01*
X140288267Y-128822457D01*
X140288270Y-128822459D01*
X140391288Y-128870497D01*
X140487624Y-128915419D01*
X140492932Y-128916841D01*
X140492934Y-128916842D01*
X140700085Y-128972348D01*
X140700087Y-128972348D01*
X140705400Y-128973772D01*
X140930000Y-128993422D01*
X141154600Y-128973772D01*
X141159913Y-128972348D01*
X141159915Y-128972348D01*
X141367066Y-128916842D01*
X141367068Y-128916841D01*
X141372376Y-128915419D01*
X141468712Y-128870497D01*
X141571730Y-128822459D01*
X141571733Y-128822457D01*
X141576711Y-128820136D01*
X141761396Y-128690819D01*
X141920819Y-128531396D01*
X142050136Y-128346711D01*
X142085805Y-128270219D01*
X142132723Y-128216934D01*
X142201000Y-128197473D01*
X142268960Y-128218015D01*
X142314195Y-128270219D01*
X142349864Y-128346711D01*
X142479181Y-128531396D01*
X142638604Y-128690819D01*
X142823289Y-128820136D01*
X142828267Y-128822457D01*
X142828270Y-128822459D01*
X142931288Y-128870497D01*
X143027624Y-128915419D01*
X143032932Y-128916841D01*
X143032934Y-128916842D01*
X143240085Y-128972348D01*
X143240087Y-128972348D01*
X143245400Y-128973772D01*
X143470000Y-128993422D01*
X143694600Y-128973772D01*
X143699913Y-128972348D01*
X143699915Y-128972348D01*
X143907066Y-128916842D01*
X143907068Y-128916841D01*
X143912376Y-128915419D01*
X144008712Y-128870497D01*
X144111730Y-128822459D01*
X144111733Y-128822457D01*
X144116711Y-128820136D01*
X144301396Y-128690819D01*
X144460819Y-128531396D01*
X144590136Y-128346711D01*
X144625805Y-128270219D01*
X144672723Y-128216934D01*
X144741000Y-128197473D01*
X144808960Y-128218015D01*
X144854195Y-128270219D01*
X144889864Y-128346711D01*
X145019181Y-128531396D01*
X145178604Y-128690819D01*
X145363289Y-128820136D01*
X145368267Y-128822457D01*
X145368270Y-128822459D01*
X145471288Y-128870497D01*
X145567624Y-128915419D01*
X145572932Y-128916841D01*
X145572934Y-128916842D01*
X145780085Y-128972348D01*
X145780087Y-128972348D01*
X145785400Y-128973772D01*
X146010000Y-128993422D01*
X146234600Y-128973772D01*
X146239913Y-128972348D01*
X146239915Y-128972348D01*
X146447066Y-128916842D01*
X146447068Y-128916841D01*
X146452376Y-128915419D01*
X146548712Y-128870497D01*
X146651730Y-128822459D01*
X146651733Y-128822457D01*
X146656711Y-128820136D01*
X146841396Y-128690819D01*
X147000819Y-128531396D01*
X147130136Y-128346711D01*
X147165805Y-128270219D01*
X147212723Y-128216934D01*
X147281000Y-128197473D01*
X147348960Y-128218015D01*
X147394195Y-128270219D01*
X147429864Y-128346711D01*
X147559181Y-128531396D01*
X147718604Y-128690819D01*
X147903289Y-128820136D01*
X147908267Y-128822457D01*
X147908270Y-128822459D01*
X148011288Y-128870497D01*
X148107624Y-128915419D01*
X148112932Y-128916841D01*
X148112934Y-128916842D01*
X148320085Y-128972348D01*
X148320087Y-128972348D01*
X148325400Y-128973772D01*
X148550000Y-128993422D01*
X148774600Y-128973772D01*
X148779913Y-128972348D01*
X148779915Y-128972348D01*
X148987066Y-128916842D01*
X148987068Y-128916841D01*
X148992376Y-128915419D01*
X149088712Y-128870497D01*
X149191730Y-128822459D01*
X149191733Y-128822457D01*
X149196711Y-128820136D01*
X149381396Y-128690819D01*
X149540819Y-128531396D01*
X149670136Y-128346711D01*
X149705805Y-128270219D01*
X149752723Y-128216934D01*
X149821000Y-128197473D01*
X149888960Y-128218015D01*
X149934195Y-128270219D01*
X149969864Y-128346711D01*
X150099181Y-128531396D01*
X150258604Y-128690819D01*
X150443289Y-128820136D01*
X150448267Y-128822457D01*
X150448270Y-128822459D01*
X150551288Y-128870497D01*
X150647624Y-128915419D01*
X150652932Y-128916841D01*
X150652934Y-128916842D01*
X150860085Y-128972348D01*
X150860087Y-128972348D01*
X150865400Y-128973772D01*
X151090000Y-128993422D01*
X151314600Y-128973772D01*
X151319913Y-128972348D01*
X151319915Y-128972348D01*
X151527066Y-128916842D01*
X151527068Y-128916841D01*
X151532376Y-128915419D01*
X151628712Y-128870497D01*
X151731730Y-128822459D01*
X151731733Y-128822457D01*
X151736711Y-128820136D01*
X151921396Y-128690819D01*
X152080819Y-128531396D01*
X152210136Y-128346711D01*
X152245805Y-128270219D01*
X152292723Y-128216934D01*
X152361000Y-128197473D01*
X152428960Y-128218015D01*
X152474195Y-128270219D01*
X152509864Y-128346711D01*
X152639181Y-128531396D01*
X152798604Y-128690819D01*
X152983289Y-128820136D01*
X152988267Y-128822457D01*
X152988270Y-128822459D01*
X153091288Y-128870497D01*
X153187624Y-128915419D01*
X153192932Y-128916841D01*
X153192934Y-128916842D01*
X153400085Y-128972348D01*
X153400087Y-128972348D01*
X153405400Y-128973772D01*
X153630000Y-128993422D01*
X153854600Y-128973772D01*
X153859913Y-128972348D01*
X153859915Y-128972348D01*
X154067066Y-128916842D01*
X154067068Y-128916841D01*
X154072376Y-128915419D01*
X154168712Y-128870497D01*
X154271730Y-128822459D01*
X154271733Y-128822457D01*
X154276711Y-128820136D01*
X154461396Y-128690819D01*
X154620819Y-128531396D01*
X154750136Y-128346711D01*
X154785805Y-128270219D01*
X154832723Y-128216934D01*
X154901000Y-128197473D01*
X154968960Y-128218015D01*
X155014195Y-128270219D01*
X155049864Y-128346711D01*
X155179181Y-128531396D01*
X155338604Y-128690819D01*
X155523289Y-128820136D01*
X155528267Y-128822457D01*
X155528270Y-128822459D01*
X155631288Y-128870497D01*
X155727624Y-128915419D01*
X155732932Y-128916841D01*
X155732934Y-128916842D01*
X155940085Y-128972348D01*
X155940087Y-128972348D01*
X155945400Y-128973772D01*
X156170000Y-128993422D01*
X156394600Y-128973772D01*
X156399913Y-128972348D01*
X156399915Y-128972348D01*
X156607066Y-128916842D01*
X156607068Y-128916841D01*
X156612376Y-128915419D01*
X156708712Y-128870497D01*
X156811730Y-128822459D01*
X156811733Y-128822457D01*
X156816711Y-128820136D01*
X157001396Y-128690819D01*
X157160819Y-128531396D01*
X157290136Y-128346711D01*
X157325805Y-128270219D01*
X157372723Y-128216934D01*
X157441000Y-128197473D01*
X157508960Y-128218015D01*
X157554195Y-128270219D01*
X157589864Y-128346711D01*
X157719181Y-128531396D01*
X157878604Y-128690819D01*
X158063289Y-128820136D01*
X158068267Y-128822457D01*
X158068270Y-128822459D01*
X158171288Y-128870497D01*
X158267624Y-128915419D01*
X158272932Y-128916841D01*
X158272934Y-128916842D01*
X158480085Y-128972348D01*
X158480087Y-128972348D01*
X158485400Y-128973772D01*
X158710000Y-128993422D01*
X158934600Y-128973772D01*
X158939913Y-128972348D01*
X158939915Y-128972348D01*
X159147066Y-128916842D01*
X159147068Y-128916841D01*
X159152376Y-128915419D01*
X159248712Y-128870497D01*
X159351730Y-128822459D01*
X159351733Y-128822457D01*
X159356711Y-128820136D01*
X159541396Y-128690819D01*
X159700819Y-128531396D01*
X159830136Y-128346711D01*
X159865805Y-128270219D01*
X159912723Y-128216934D01*
X159981000Y-128197473D01*
X160048960Y-128218015D01*
X160094195Y-128270219D01*
X160129864Y-128346711D01*
X160259181Y-128531396D01*
X160418604Y-128690819D01*
X160603289Y-128820136D01*
X160608267Y-128822457D01*
X160608270Y-128822459D01*
X160711288Y-128870497D01*
X160807624Y-128915419D01*
X160812932Y-128916841D01*
X160812934Y-128916842D01*
X161020085Y-128972348D01*
X161020087Y-128972348D01*
X161025400Y-128973772D01*
X161250000Y-128993422D01*
X161474600Y-128973772D01*
X161479913Y-128972348D01*
X161479915Y-128972348D01*
X161687066Y-128916842D01*
X161687068Y-128916841D01*
X161692376Y-128915419D01*
X161788712Y-128870497D01*
X161891730Y-128822459D01*
X161891733Y-128822457D01*
X161896711Y-128820136D01*
X162081396Y-128690819D01*
X162240819Y-128531396D01*
X162370136Y-128346711D01*
X162405805Y-128270219D01*
X162452723Y-128216934D01*
X162521000Y-128197473D01*
X162588960Y-128218015D01*
X162634195Y-128270219D01*
X162669864Y-128346711D01*
X162799181Y-128531396D01*
X162958604Y-128690819D01*
X163143289Y-128820136D01*
X163148267Y-128822457D01*
X163148270Y-128822459D01*
X163251288Y-128870497D01*
X163347624Y-128915419D01*
X163352932Y-128916841D01*
X163352934Y-128916842D01*
X163560085Y-128972348D01*
X163560087Y-128972348D01*
X163565400Y-128973772D01*
X163790000Y-128993422D01*
X164014600Y-128973772D01*
X164019913Y-128972348D01*
X164019915Y-128972348D01*
X164227066Y-128916842D01*
X164227068Y-128916841D01*
X164232376Y-128915419D01*
X164328712Y-128870497D01*
X164431730Y-128822459D01*
X164431733Y-128822457D01*
X164436711Y-128820136D01*
X164621396Y-128690819D01*
X164780819Y-128531396D01*
X164910136Y-128346711D01*
X164945805Y-128270219D01*
X164992723Y-128216934D01*
X165061000Y-128197473D01*
X165128960Y-128218015D01*
X165174195Y-128270219D01*
X165209864Y-128346711D01*
X165339181Y-128531396D01*
X165498604Y-128690819D01*
X165683289Y-128820136D01*
X165688267Y-128822457D01*
X165688270Y-128822459D01*
X165791288Y-128870497D01*
X165887624Y-128915419D01*
X165892932Y-128916841D01*
X165892934Y-128916842D01*
X166100085Y-128972348D01*
X166100087Y-128972348D01*
X166105400Y-128973772D01*
X166330000Y-128993422D01*
X166554600Y-128973772D01*
X166559913Y-128972348D01*
X166559915Y-128972348D01*
X166767066Y-128916842D01*
X166767068Y-128916841D01*
X166772376Y-128915419D01*
X166868712Y-128870497D01*
X166971730Y-128822459D01*
X166971733Y-128822457D01*
X166976711Y-128820136D01*
X167161396Y-128690819D01*
X167320819Y-128531396D01*
X167450136Y-128346711D01*
X167485805Y-128270219D01*
X167532723Y-128216934D01*
X167601000Y-128197473D01*
X167668960Y-128218015D01*
X167714195Y-128270219D01*
X167749864Y-128346711D01*
X167879181Y-128531396D01*
X168038604Y-128690819D01*
X168223289Y-128820136D01*
X168228267Y-128822457D01*
X168228270Y-128822459D01*
X168331288Y-128870497D01*
X168427624Y-128915419D01*
X168432932Y-128916841D01*
X168432934Y-128916842D01*
X168640085Y-128972348D01*
X168640087Y-128972348D01*
X168645400Y-128973772D01*
X168870000Y-128993422D01*
X169094600Y-128973772D01*
X169099913Y-128972348D01*
X169099915Y-128972348D01*
X169307066Y-128916842D01*
X169307068Y-128916841D01*
X169312376Y-128915419D01*
X169408712Y-128870497D01*
X169511730Y-128822459D01*
X169511733Y-128822457D01*
X169516711Y-128820136D01*
X169701396Y-128690819D01*
X169860819Y-128531396D01*
X169990136Y-128346711D01*
X170025805Y-128270219D01*
X170072723Y-128216934D01*
X170141000Y-128197473D01*
X170208960Y-128218015D01*
X170254195Y-128270219D01*
X170289864Y-128346711D01*
X170419181Y-128531396D01*
X170578604Y-128690819D01*
X170763289Y-128820136D01*
X170768267Y-128822457D01*
X170768270Y-128822459D01*
X170871288Y-128870497D01*
X170967624Y-128915419D01*
X170972932Y-128916841D01*
X170972934Y-128916842D01*
X171180085Y-128972348D01*
X171180087Y-128972348D01*
X171185400Y-128973772D01*
X171410000Y-128993422D01*
X171634600Y-128973772D01*
X171639913Y-128972348D01*
X171639915Y-128972348D01*
X171847066Y-128916842D01*
X171847068Y-128916841D01*
X171852376Y-128915419D01*
X171948712Y-128870497D01*
X172051730Y-128822459D01*
X172051733Y-128822457D01*
X172056711Y-128820136D01*
X172241396Y-128690819D01*
X172400819Y-128531396D01*
X172530136Y-128346711D01*
X172565805Y-128270219D01*
X172612723Y-128216934D01*
X172681000Y-128197473D01*
X172748960Y-128218015D01*
X172794195Y-128270219D01*
X172829864Y-128346711D01*
X172959181Y-128531396D01*
X173118604Y-128690819D01*
X173303289Y-128820136D01*
X173308267Y-128822457D01*
X173308270Y-128822459D01*
X173411288Y-128870497D01*
X173507624Y-128915419D01*
X173512932Y-128916841D01*
X173512934Y-128916842D01*
X173720085Y-128972348D01*
X173720087Y-128972348D01*
X173725400Y-128973772D01*
X173950000Y-128993422D01*
X174174600Y-128973772D01*
X174179913Y-128972348D01*
X174179915Y-128972348D01*
X174387066Y-128916842D01*
X174387068Y-128916841D01*
X174392376Y-128915419D01*
X174488712Y-128870497D01*
X174591730Y-128822459D01*
X174591733Y-128822457D01*
X174596711Y-128820136D01*
X174781396Y-128690819D01*
X174940819Y-128531396D01*
X175070136Y-128346711D01*
X175105805Y-128270219D01*
X175152723Y-128216934D01*
X175221000Y-128197473D01*
X175288960Y-128218015D01*
X175334195Y-128270219D01*
X175369864Y-128346711D01*
X175499181Y-128531396D01*
X175658604Y-128690819D01*
X175843289Y-128820136D01*
X175848267Y-128822457D01*
X175848270Y-128822459D01*
X175951288Y-128870497D01*
X176047624Y-128915419D01*
X176052932Y-128916841D01*
X176052934Y-128916842D01*
X176260085Y-128972348D01*
X176260087Y-128972348D01*
X176265400Y-128973772D01*
X176490000Y-128993422D01*
X176714600Y-128973772D01*
X176719913Y-128972348D01*
X176719915Y-128972348D01*
X176927066Y-128916842D01*
X176927068Y-128916841D01*
X176932376Y-128915419D01*
X177028712Y-128870497D01*
X177131730Y-128822459D01*
X177131733Y-128822457D01*
X177136711Y-128820136D01*
X177321396Y-128690819D01*
X177480819Y-128531396D01*
X177610136Y-128346711D01*
X177645805Y-128270219D01*
X177692723Y-128216934D01*
X177761000Y-128197473D01*
X177828960Y-128218015D01*
X177874195Y-128270219D01*
X177909864Y-128346711D01*
X178039181Y-128531396D01*
X178198604Y-128690819D01*
X178383289Y-128820136D01*
X178388267Y-128822457D01*
X178388270Y-128822459D01*
X178491288Y-128870497D01*
X178587624Y-128915419D01*
X178592932Y-128916841D01*
X178592934Y-128916842D01*
X178800085Y-128972348D01*
X178800087Y-128972348D01*
X178805400Y-128973772D01*
X179030000Y-128993422D01*
X179254600Y-128973772D01*
X179259913Y-128972348D01*
X179259915Y-128972348D01*
X179467066Y-128916842D01*
X179467068Y-128916841D01*
X179472376Y-128915419D01*
X179568712Y-128870497D01*
X179671730Y-128822459D01*
X179671733Y-128822457D01*
X179676711Y-128820136D01*
X179861396Y-128690819D01*
X180020819Y-128531396D01*
X180150136Y-128346711D01*
X180224722Y-128186762D01*
X180243096Y-128147358D01*
X180243097Y-128147357D01*
X180245419Y-128142376D01*
X180252259Y-128116851D01*
X180263432Y-128075151D01*
X192787296Y-128075151D01*
X192787520Y-128079817D01*
X192787520Y-128079822D01*
X192790516Y-128142182D01*
X192799480Y-128328798D01*
X192849021Y-128577857D01*
X192850600Y-128582255D01*
X192850602Y-128582262D01*
X192895022Y-128705980D01*
X192934831Y-128816858D01*
X192937048Y-128820984D01*
X193038431Y-129009667D01*
X193055025Y-129040551D01*
X193057820Y-129044294D01*
X193057822Y-129044297D01*
X193204171Y-129240282D01*
X193204176Y-129240288D01*
X193206963Y-129244020D01*
X193210272Y-129247300D01*
X193210277Y-129247306D01*
X193383990Y-129419509D01*
X193387307Y-129422797D01*
X193391069Y-129425555D01*
X193391072Y-129425558D01*
X193546909Y-129539822D01*
X193592094Y-129572953D01*
X193596229Y-129575129D01*
X193596233Y-129575131D01*
X193683386Y-129620984D01*
X193816827Y-129691191D01*
X194056568Y-129774912D01*
X194306050Y-129822278D01*
X194426532Y-129827011D01*
X194555125Y-129832064D01*
X194555130Y-129832064D01*
X194559793Y-129832247D01*
X194658774Y-129821407D01*
X194807569Y-129805112D01*
X194807575Y-129805111D01*
X194812222Y-129804602D01*
X194921680Y-129775784D01*
X195053273Y-129741138D01*
X195057793Y-129739948D01*
X195228726Y-129666510D01*
X195286807Y-129641557D01*
X195286810Y-129641555D01*
X195291110Y-129639708D01*
X195295090Y-129637245D01*
X195295094Y-129637243D01*
X195503064Y-129508547D01*
X195503066Y-129508545D01*
X195507047Y-129506082D01*
X195605428Y-129422797D01*
X195697289Y-129345031D01*
X195697291Y-129345029D01*
X195700862Y-129342006D01*
X195868295Y-129151084D01*
X195957244Y-129012798D01*
X196003141Y-128941442D01*
X196005669Y-128937512D01*
X196109967Y-128705980D01*
X196178896Y-128461575D01*
X196209136Y-128223872D01*
X196210545Y-128212798D01*
X196210545Y-128212792D01*
X196210943Y-128209667D01*
X196211263Y-128197473D01*
X196213208Y-128123160D01*
X196213291Y-128120000D01*
X196203739Y-127991464D01*
X196194818Y-127871411D01*
X196194817Y-127871407D01*
X196194472Y-127866759D01*
X196138428Y-127619082D01*
X196071290Y-127446437D01*
X196048084Y-127386762D01*
X196048083Y-127386760D01*
X196046391Y-127382409D01*
X196025866Y-127346498D01*
X195922702Y-127165997D01*
X195922700Y-127165995D01*
X195920383Y-127161940D01*
X195763171Y-126962517D01*
X195679625Y-126883925D01*
X195581610Y-126791722D01*
X195581608Y-126791720D01*
X195578209Y-126788523D01*
X195534483Y-126758189D01*
X195373393Y-126646437D01*
X195373390Y-126646435D01*
X195369561Y-126643779D01*
X195365384Y-126641719D01*
X195365377Y-126641715D01*
X195145996Y-126533528D01*
X195145992Y-126533527D01*
X195141810Y-126531464D01*
X194899960Y-126454047D01*
X194895355Y-126453297D01*
X194653935Y-126413980D01*
X194653934Y-126413980D01*
X194649323Y-126413229D01*
X194522365Y-126411567D01*
X194400083Y-126409966D01*
X194400080Y-126409966D01*
X194395406Y-126409905D01*
X194143787Y-126444149D01*
X193899993Y-126515208D01*
X193669380Y-126621522D01*
X193665471Y-126624085D01*
X193460928Y-126758189D01*
X193460923Y-126758193D01*
X193457015Y-126760755D01*
X193267562Y-126929848D01*
X193105183Y-127125087D01*
X192973447Y-127342182D01*
X192971638Y-127346496D01*
X192971637Y-127346498D01*
X192880485Y-127563872D01*
X192875246Y-127576365D01*
X192874095Y-127580897D01*
X192874094Y-127580900D01*
X192872158Y-127588523D01*
X192812738Y-127822490D01*
X192787296Y-128075151D01*
X180263432Y-128075151D01*
X180302348Y-127929915D01*
X180302348Y-127929913D01*
X180303772Y-127924600D01*
X180323422Y-127700000D01*
X180303772Y-127475400D01*
X180300000Y-127461323D01*
X180246842Y-127262934D01*
X180246841Y-127262932D01*
X180245419Y-127257624D01*
X180243096Y-127252642D01*
X180152459Y-127058270D01*
X180152457Y-127058267D01*
X180150136Y-127053289D01*
X180020819Y-126868604D01*
X179861396Y-126709181D01*
X179676711Y-126579864D01*
X179671733Y-126577543D01*
X179671730Y-126577541D01*
X179477358Y-126486904D01*
X179477357Y-126486903D01*
X179472376Y-126484581D01*
X179467068Y-126483159D01*
X179467066Y-126483158D01*
X179259915Y-126427652D01*
X179259913Y-126427652D01*
X179254600Y-126426228D01*
X179030000Y-126406578D01*
X178805400Y-126426228D01*
X178800087Y-126427652D01*
X178800085Y-126427652D01*
X178592934Y-126483158D01*
X178592932Y-126483159D01*
X178587624Y-126484581D01*
X178582643Y-126486903D01*
X178582642Y-126486904D01*
X178388270Y-126577541D01*
X178388267Y-126577543D01*
X178383289Y-126579864D01*
X178198604Y-126709181D01*
X178039181Y-126868604D01*
X177909864Y-127053289D01*
X177907543Y-127058267D01*
X177907541Y-127058270D01*
X177874195Y-127129781D01*
X177827277Y-127183066D01*
X177759000Y-127202527D01*
X177691040Y-127181985D01*
X177645805Y-127129781D01*
X177612459Y-127058270D01*
X177612457Y-127058267D01*
X177610136Y-127053289D01*
X177480819Y-126868604D01*
X177321396Y-126709181D01*
X177136711Y-126579864D01*
X177131733Y-126577543D01*
X177131730Y-126577541D01*
X176937358Y-126486904D01*
X176937357Y-126486903D01*
X176932376Y-126484581D01*
X176927068Y-126483159D01*
X176927066Y-126483158D01*
X176719915Y-126427652D01*
X176719913Y-126427652D01*
X176714600Y-126426228D01*
X176490000Y-126406578D01*
X176265400Y-126426228D01*
X176260087Y-126427652D01*
X176260085Y-126427652D01*
X176052934Y-126483158D01*
X176052932Y-126483159D01*
X176047624Y-126484581D01*
X176042643Y-126486903D01*
X176042642Y-126486904D01*
X175848270Y-126577541D01*
X175848267Y-126577543D01*
X175843289Y-126579864D01*
X175658604Y-126709181D01*
X175499181Y-126868604D01*
X175369864Y-127053289D01*
X175367543Y-127058267D01*
X175367541Y-127058270D01*
X175334195Y-127129781D01*
X175287277Y-127183066D01*
X175219000Y-127202527D01*
X175151040Y-127181985D01*
X175105805Y-127129781D01*
X175072459Y-127058270D01*
X175072457Y-127058267D01*
X175070136Y-127053289D01*
X174940819Y-126868604D01*
X174781396Y-126709181D01*
X174596711Y-126579864D01*
X174591733Y-126577543D01*
X174591730Y-126577541D01*
X174397358Y-126486904D01*
X174397357Y-126486903D01*
X174392376Y-126484581D01*
X174387068Y-126483159D01*
X174387066Y-126483158D01*
X174179915Y-126427652D01*
X174179913Y-126427652D01*
X174174600Y-126426228D01*
X173950000Y-126406578D01*
X173725400Y-126426228D01*
X173720087Y-126427652D01*
X173720085Y-126427652D01*
X173512934Y-126483158D01*
X173512932Y-126483159D01*
X173507624Y-126484581D01*
X173502643Y-126486903D01*
X173502642Y-126486904D01*
X173308270Y-126577541D01*
X173308267Y-126577543D01*
X173303289Y-126579864D01*
X173118604Y-126709181D01*
X172959181Y-126868604D01*
X172829864Y-127053289D01*
X172827543Y-127058267D01*
X172827541Y-127058270D01*
X172794195Y-127129781D01*
X172747277Y-127183066D01*
X172679000Y-127202527D01*
X172611040Y-127181985D01*
X172565805Y-127129781D01*
X172532459Y-127058270D01*
X172532457Y-127058267D01*
X172530136Y-127053289D01*
X172400819Y-126868604D01*
X172241396Y-126709181D01*
X172056711Y-126579864D01*
X172051733Y-126577543D01*
X172051730Y-126577541D01*
X171857358Y-126486904D01*
X171857357Y-126486903D01*
X171852376Y-126484581D01*
X171847068Y-126483159D01*
X171847066Y-126483158D01*
X171639915Y-126427652D01*
X171639913Y-126427652D01*
X171634600Y-126426228D01*
X171410000Y-126406578D01*
X171185400Y-126426228D01*
X171180087Y-126427652D01*
X171180085Y-126427652D01*
X170972934Y-126483158D01*
X170972932Y-126483159D01*
X170967624Y-126484581D01*
X170962643Y-126486903D01*
X170962642Y-126486904D01*
X170768270Y-126577541D01*
X170768267Y-126577543D01*
X170763289Y-126579864D01*
X170578604Y-126709181D01*
X170419181Y-126868604D01*
X170289864Y-127053289D01*
X170287543Y-127058267D01*
X170287541Y-127058270D01*
X170254195Y-127129781D01*
X170207277Y-127183066D01*
X170139000Y-127202527D01*
X170071040Y-127181985D01*
X170025805Y-127129781D01*
X169992459Y-127058270D01*
X169992457Y-127058267D01*
X169990136Y-127053289D01*
X169860819Y-126868604D01*
X169701396Y-126709181D01*
X169516711Y-126579864D01*
X169511733Y-126577543D01*
X169511730Y-126577541D01*
X169317358Y-126486904D01*
X169317357Y-126486903D01*
X169312376Y-126484581D01*
X169307068Y-126483159D01*
X169307066Y-126483158D01*
X169099915Y-126427652D01*
X169099913Y-126427652D01*
X169094600Y-126426228D01*
X168870000Y-126406578D01*
X168645400Y-126426228D01*
X168640087Y-126427652D01*
X168640085Y-126427652D01*
X168432934Y-126483158D01*
X168432932Y-126483159D01*
X168427624Y-126484581D01*
X168422643Y-126486903D01*
X168422642Y-126486904D01*
X168228270Y-126577541D01*
X168228267Y-126577543D01*
X168223289Y-126579864D01*
X168038604Y-126709181D01*
X167879181Y-126868604D01*
X167749864Y-127053289D01*
X167747543Y-127058267D01*
X167747541Y-127058270D01*
X167714195Y-127129781D01*
X167667277Y-127183066D01*
X167599000Y-127202527D01*
X167531040Y-127181985D01*
X167485805Y-127129781D01*
X167452459Y-127058270D01*
X167452457Y-127058267D01*
X167450136Y-127053289D01*
X167320819Y-126868604D01*
X167161396Y-126709181D01*
X166976711Y-126579864D01*
X166971733Y-126577543D01*
X166971730Y-126577541D01*
X166777358Y-126486904D01*
X166777357Y-126486903D01*
X166772376Y-126484581D01*
X166767068Y-126483159D01*
X166767066Y-126483158D01*
X166559915Y-126427652D01*
X166559913Y-126427652D01*
X166554600Y-126426228D01*
X166330000Y-126406578D01*
X166105400Y-126426228D01*
X166100087Y-126427652D01*
X166100085Y-126427652D01*
X165892934Y-126483158D01*
X165892932Y-126483159D01*
X165887624Y-126484581D01*
X165882643Y-126486903D01*
X165882642Y-126486904D01*
X165688270Y-126577541D01*
X165688267Y-126577543D01*
X165683289Y-126579864D01*
X165498604Y-126709181D01*
X165339181Y-126868604D01*
X165209864Y-127053289D01*
X165207543Y-127058267D01*
X165207541Y-127058270D01*
X165174195Y-127129781D01*
X165127277Y-127183066D01*
X165059000Y-127202527D01*
X164991040Y-127181985D01*
X164945805Y-127129781D01*
X164912459Y-127058270D01*
X164912457Y-127058267D01*
X164910136Y-127053289D01*
X164780819Y-126868604D01*
X164621396Y-126709181D01*
X164436711Y-126579864D01*
X164431733Y-126577543D01*
X164431730Y-126577541D01*
X164237358Y-126486904D01*
X164237357Y-126486903D01*
X164232376Y-126484581D01*
X164227068Y-126483159D01*
X164227066Y-126483158D01*
X164019915Y-126427652D01*
X164019913Y-126427652D01*
X164014600Y-126426228D01*
X163790000Y-126406578D01*
X163565400Y-126426228D01*
X163560087Y-126427652D01*
X163560085Y-126427652D01*
X163352934Y-126483158D01*
X163352932Y-126483159D01*
X163347624Y-126484581D01*
X163342643Y-126486903D01*
X163342642Y-126486904D01*
X163148270Y-126577541D01*
X163148267Y-126577543D01*
X163143289Y-126579864D01*
X162958604Y-126709181D01*
X162799181Y-126868604D01*
X162669864Y-127053289D01*
X162667543Y-127058267D01*
X162667541Y-127058270D01*
X162634195Y-127129781D01*
X162587277Y-127183066D01*
X162519000Y-127202527D01*
X162451040Y-127181985D01*
X162405805Y-127129781D01*
X162372459Y-127058270D01*
X162372457Y-127058267D01*
X162370136Y-127053289D01*
X162240819Y-126868604D01*
X162081396Y-126709181D01*
X161896711Y-126579864D01*
X161891733Y-126577543D01*
X161891730Y-126577541D01*
X161697358Y-126486904D01*
X161697357Y-126486903D01*
X161692376Y-126484581D01*
X161687068Y-126483159D01*
X161687066Y-126483158D01*
X161479915Y-126427652D01*
X161479913Y-126427652D01*
X161474600Y-126426228D01*
X161250000Y-126406578D01*
X161025400Y-126426228D01*
X161020087Y-126427652D01*
X161020085Y-126427652D01*
X160812934Y-126483158D01*
X160812932Y-126483159D01*
X160807624Y-126484581D01*
X160802643Y-126486903D01*
X160802642Y-126486904D01*
X160608270Y-126577541D01*
X160608267Y-126577543D01*
X160603289Y-126579864D01*
X160418604Y-126709181D01*
X160259181Y-126868604D01*
X160129864Y-127053289D01*
X160127543Y-127058267D01*
X160127541Y-127058270D01*
X160094195Y-127129781D01*
X160047277Y-127183066D01*
X159979000Y-127202527D01*
X159911040Y-127181985D01*
X159865805Y-127129781D01*
X159832459Y-127058270D01*
X159832457Y-127058267D01*
X159830136Y-127053289D01*
X159700819Y-126868604D01*
X159541396Y-126709181D01*
X159356711Y-126579864D01*
X159351733Y-126577543D01*
X159351730Y-126577541D01*
X159157358Y-126486904D01*
X159157357Y-126486903D01*
X159152376Y-126484581D01*
X159147068Y-126483159D01*
X159147066Y-126483158D01*
X158939915Y-126427652D01*
X158939913Y-126427652D01*
X158934600Y-126426228D01*
X158710000Y-126406578D01*
X158485400Y-126426228D01*
X158480087Y-126427652D01*
X158480085Y-126427652D01*
X158272934Y-126483158D01*
X158272932Y-126483159D01*
X158267624Y-126484581D01*
X158262643Y-126486903D01*
X158262642Y-126486904D01*
X158068270Y-126577541D01*
X158068267Y-126577543D01*
X158063289Y-126579864D01*
X157878604Y-126709181D01*
X157719181Y-126868604D01*
X157589864Y-127053289D01*
X157587543Y-127058267D01*
X157587541Y-127058270D01*
X157554195Y-127129781D01*
X157507277Y-127183066D01*
X157439000Y-127202527D01*
X157371040Y-127181985D01*
X157325805Y-127129781D01*
X157292459Y-127058270D01*
X157292457Y-127058267D01*
X157290136Y-127053289D01*
X157160819Y-126868604D01*
X157001396Y-126709181D01*
X156816711Y-126579864D01*
X156811733Y-126577543D01*
X156811730Y-126577541D01*
X156617358Y-126486904D01*
X156617357Y-126486903D01*
X156612376Y-126484581D01*
X156607068Y-126483159D01*
X156607066Y-126483158D01*
X156399915Y-126427652D01*
X156399913Y-126427652D01*
X156394600Y-126426228D01*
X156170000Y-126406578D01*
X155945400Y-126426228D01*
X155940087Y-126427652D01*
X155940085Y-126427652D01*
X155732934Y-126483158D01*
X155732932Y-126483159D01*
X155727624Y-126484581D01*
X155722643Y-126486903D01*
X155722642Y-126486904D01*
X155528270Y-126577541D01*
X155528267Y-126577543D01*
X155523289Y-126579864D01*
X155338604Y-126709181D01*
X155179181Y-126868604D01*
X155049864Y-127053289D01*
X155047543Y-127058267D01*
X155047541Y-127058270D01*
X155014195Y-127129781D01*
X154967277Y-127183066D01*
X154899000Y-127202527D01*
X154831040Y-127181985D01*
X154785805Y-127129781D01*
X154752459Y-127058270D01*
X154752457Y-127058267D01*
X154750136Y-127053289D01*
X154620819Y-126868604D01*
X154461396Y-126709181D01*
X154276711Y-126579864D01*
X154271733Y-126577543D01*
X154271730Y-126577541D01*
X154077358Y-126486904D01*
X154077357Y-126486903D01*
X154072376Y-126484581D01*
X154067068Y-126483159D01*
X154067066Y-126483158D01*
X153859915Y-126427652D01*
X153859913Y-126427652D01*
X153854600Y-126426228D01*
X153630000Y-126406578D01*
X153405400Y-126426228D01*
X153400087Y-126427652D01*
X153400085Y-126427652D01*
X153192934Y-126483158D01*
X153192932Y-126483159D01*
X153187624Y-126484581D01*
X153182643Y-126486903D01*
X153182642Y-126486904D01*
X152988270Y-126577541D01*
X152988267Y-126577543D01*
X152983289Y-126579864D01*
X152798604Y-126709181D01*
X152639181Y-126868604D01*
X152509864Y-127053289D01*
X152507543Y-127058267D01*
X152507541Y-127058270D01*
X152474195Y-127129781D01*
X152427277Y-127183066D01*
X152359000Y-127202527D01*
X152291040Y-127181985D01*
X152245805Y-127129781D01*
X152212459Y-127058270D01*
X152212457Y-127058267D01*
X152210136Y-127053289D01*
X152080819Y-126868604D01*
X151921396Y-126709181D01*
X151736711Y-126579864D01*
X151731733Y-126577543D01*
X151731730Y-126577541D01*
X151537358Y-126486904D01*
X151537357Y-126486903D01*
X151532376Y-126484581D01*
X151527068Y-126483159D01*
X151527066Y-126483158D01*
X151319915Y-126427652D01*
X151319913Y-126427652D01*
X151314600Y-126426228D01*
X151090000Y-126406578D01*
X150865400Y-126426228D01*
X150860087Y-126427652D01*
X150860085Y-126427652D01*
X150652934Y-126483158D01*
X150652932Y-126483159D01*
X150647624Y-126484581D01*
X150642643Y-126486903D01*
X150642642Y-126486904D01*
X150448270Y-126577541D01*
X150448267Y-126577543D01*
X150443289Y-126579864D01*
X150258604Y-126709181D01*
X150099181Y-126868604D01*
X149969864Y-127053289D01*
X149967543Y-127058267D01*
X149967541Y-127058270D01*
X149934195Y-127129781D01*
X149887277Y-127183066D01*
X149819000Y-127202527D01*
X149751040Y-127181985D01*
X149705805Y-127129781D01*
X149672459Y-127058270D01*
X149672457Y-127058267D01*
X149670136Y-127053289D01*
X149540819Y-126868604D01*
X149381396Y-126709181D01*
X149196711Y-126579864D01*
X149191733Y-126577543D01*
X149191730Y-126577541D01*
X148997358Y-126486904D01*
X148997357Y-126486903D01*
X148992376Y-126484581D01*
X148987068Y-126483159D01*
X148987066Y-126483158D01*
X148779915Y-126427652D01*
X148779913Y-126427652D01*
X148774600Y-126426228D01*
X148550000Y-126406578D01*
X148325400Y-126426228D01*
X148320087Y-126427652D01*
X148320085Y-126427652D01*
X148112934Y-126483158D01*
X148112932Y-126483159D01*
X148107624Y-126484581D01*
X148102643Y-126486903D01*
X148102642Y-126486904D01*
X147908270Y-126577541D01*
X147908267Y-126577543D01*
X147903289Y-126579864D01*
X147718604Y-126709181D01*
X147559181Y-126868604D01*
X147429864Y-127053289D01*
X147427543Y-127058267D01*
X147427541Y-127058270D01*
X147394195Y-127129781D01*
X147347277Y-127183066D01*
X147279000Y-127202527D01*
X147211040Y-127181985D01*
X147165805Y-127129781D01*
X147132459Y-127058270D01*
X147132457Y-127058267D01*
X147130136Y-127053289D01*
X147000819Y-126868604D01*
X146841396Y-126709181D01*
X146656711Y-126579864D01*
X146651733Y-126577543D01*
X146651730Y-126577541D01*
X146457358Y-126486904D01*
X146457357Y-126486903D01*
X146452376Y-126484581D01*
X146447068Y-126483159D01*
X146447066Y-126483158D01*
X146239915Y-126427652D01*
X146239913Y-126427652D01*
X146234600Y-126426228D01*
X146010000Y-126406578D01*
X145785400Y-126426228D01*
X145780087Y-126427652D01*
X145780085Y-126427652D01*
X145572934Y-126483158D01*
X145572932Y-126483159D01*
X145567624Y-126484581D01*
X145562643Y-126486903D01*
X145562642Y-126486904D01*
X145368270Y-126577541D01*
X145368267Y-126577543D01*
X145363289Y-126579864D01*
X145178604Y-126709181D01*
X145019181Y-126868604D01*
X144889864Y-127053289D01*
X144887543Y-127058267D01*
X144887541Y-127058270D01*
X144854195Y-127129781D01*
X144807277Y-127183066D01*
X144739000Y-127202527D01*
X144671040Y-127181985D01*
X144625805Y-127129781D01*
X144592459Y-127058270D01*
X144592457Y-127058267D01*
X144590136Y-127053289D01*
X144460819Y-126868604D01*
X144301396Y-126709181D01*
X144116711Y-126579864D01*
X144111733Y-126577543D01*
X144111730Y-126577541D01*
X143917358Y-126486904D01*
X143917357Y-126486903D01*
X143912376Y-126484581D01*
X143907068Y-126483159D01*
X143907066Y-126483158D01*
X143699915Y-126427652D01*
X143699913Y-126427652D01*
X143694600Y-126426228D01*
X143470000Y-126406578D01*
X143245400Y-126426228D01*
X143240087Y-126427652D01*
X143240085Y-126427652D01*
X143032934Y-126483158D01*
X143032932Y-126483159D01*
X143027624Y-126484581D01*
X143022643Y-126486903D01*
X143022642Y-126486904D01*
X142828270Y-126577541D01*
X142828267Y-126577543D01*
X142823289Y-126579864D01*
X142638604Y-126709181D01*
X142479181Y-126868604D01*
X142349864Y-127053289D01*
X142347543Y-127058267D01*
X142347541Y-127058270D01*
X142314195Y-127129781D01*
X142267277Y-127183066D01*
X142199000Y-127202527D01*
X142131040Y-127181985D01*
X142085805Y-127129781D01*
X142052459Y-127058270D01*
X142052457Y-127058267D01*
X142050136Y-127053289D01*
X141920819Y-126868604D01*
X141761396Y-126709181D01*
X141576711Y-126579864D01*
X141571733Y-126577543D01*
X141571730Y-126577541D01*
X141377358Y-126486904D01*
X141377357Y-126486903D01*
X141372376Y-126484581D01*
X141367068Y-126483159D01*
X141367066Y-126483158D01*
X141159915Y-126427652D01*
X141159913Y-126427652D01*
X141154600Y-126426228D01*
X140930000Y-126406578D01*
X140705400Y-126426228D01*
X140700087Y-126427652D01*
X140700085Y-126427652D01*
X140492934Y-126483158D01*
X140492932Y-126483159D01*
X140487624Y-126484581D01*
X140482643Y-126486903D01*
X140482642Y-126486904D01*
X140288270Y-126577541D01*
X140288267Y-126577543D01*
X140283289Y-126579864D01*
X140098604Y-126709181D01*
X139939181Y-126868604D01*
X139809864Y-127053289D01*
X139807543Y-127058267D01*
X139807541Y-127058270D01*
X139774195Y-127129781D01*
X139727277Y-127183066D01*
X139659000Y-127202527D01*
X139591040Y-127181985D01*
X139545805Y-127129781D01*
X139512459Y-127058270D01*
X139512457Y-127058267D01*
X139510136Y-127053289D01*
X139380819Y-126868604D01*
X139221396Y-126709181D01*
X139036711Y-126579864D01*
X139031733Y-126577543D01*
X139031730Y-126577541D01*
X138837358Y-126486904D01*
X138837357Y-126486903D01*
X138832376Y-126484581D01*
X138827068Y-126483159D01*
X138827066Y-126483158D01*
X138619915Y-126427652D01*
X138619913Y-126427652D01*
X138614600Y-126426228D01*
X138390000Y-126406578D01*
X138165400Y-126426228D01*
X138160087Y-126427652D01*
X138160085Y-126427652D01*
X137952934Y-126483158D01*
X137952932Y-126483159D01*
X137947624Y-126484581D01*
X137942643Y-126486903D01*
X137942642Y-126486904D01*
X137748270Y-126577541D01*
X137748267Y-126577543D01*
X137743289Y-126579864D01*
X137558604Y-126709181D01*
X137399181Y-126868604D01*
X137269864Y-127053289D01*
X137267543Y-127058267D01*
X137267541Y-127058270D01*
X137234195Y-127129781D01*
X137187277Y-127183066D01*
X137119000Y-127202527D01*
X137051040Y-127181985D01*
X137005805Y-127129781D01*
X136972459Y-127058270D01*
X136972457Y-127058267D01*
X136970136Y-127053289D01*
X136840819Y-126868604D01*
X136681396Y-126709181D01*
X136496711Y-126579864D01*
X136491733Y-126577543D01*
X136491730Y-126577541D01*
X136297358Y-126486904D01*
X136297357Y-126486903D01*
X136292376Y-126484581D01*
X136287068Y-126483159D01*
X136287066Y-126483158D01*
X136079915Y-126427652D01*
X136079913Y-126427652D01*
X136074600Y-126426228D01*
X135850000Y-126406578D01*
X135625400Y-126426228D01*
X135620087Y-126427652D01*
X135620085Y-126427652D01*
X135412934Y-126483158D01*
X135412932Y-126483159D01*
X135407624Y-126484581D01*
X135402643Y-126486903D01*
X135402642Y-126486904D01*
X135208270Y-126577541D01*
X135208267Y-126577543D01*
X135203289Y-126579864D01*
X135018604Y-126709181D01*
X134859181Y-126868604D01*
X134729864Y-127053289D01*
X134727543Y-127058267D01*
X134727541Y-127058270D01*
X134694195Y-127129781D01*
X134647277Y-127183066D01*
X134579000Y-127202527D01*
X134511040Y-127181985D01*
X134465805Y-127129781D01*
X134432459Y-127058270D01*
X134432457Y-127058267D01*
X134430136Y-127053289D01*
X134300819Y-126868604D01*
X134141396Y-126709181D01*
X133956711Y-126579864D01*
X133951733Y-126577543D01*
X133951730Y-126577541D01*
X133757358Y-126486904D01*
X133757357Y-126486903D01*
X133752376Y-126484581D01*
X133747068Y-126483159D01*
X133747066Y-126483158D01*
X133539915Y-126427652D01*
X133539913Y-126427652D01*
X133534600Y-126426228D01*
X133310000Y-126406578D01*
X133085400Y-126426228D01*
X133080087Y-126427652D01*
X133080085Y-126427652D01*
X132872934Y-126483158D01*
X132872932Y-126483159D01*
X132867624Y-126484581D01*
X132862643Y-126486903D01*
X132862642Y-126486904D01*
X132668270Y-126577541D01*
X132668267Y-126577543D01*
X132663289Y-126579864D01*
X132478604Y-126709181D01*
X132319181Y-126868604D01*
X132189864Y-127053289D01*
X132187543Y-127058267D01*
X132187541Y-127058270D01*
X132096904Y-127252642D01*
X132094581Y-127257624D01*
X132093159Y-127262932D01*
X132093158Y-127262934D01*
X132040000Y-127461323D01*
X132036228Y-127475400D01*
X132016578Y-127700000D01*
X120196713Y-127700000D01*
X120115539Y-127623639D01*
X120081610Y-127591722D01*
X120081608Y-127591720D01*
X120078209Y-127588523D01*
X119894851Y-127461323D01*
X119873393Y-127446437D01*
X119873390Y-127446435D01*
X119869561Y-127443779D01*
X119865384Y-127441719D01*
X119865377Y-127441715D01*
X119645996Y-127333528D01*
X119645992Y-127333527D01*
X119641810Y-127331464D01*
X119399960Y-127254047D01*
X119391333Y-127252642D01*
X119153935Y-127213980D01*
X119153934Y-127213980D01*
X119149323Y-127213229D01*
X119022365Y-127211567D01*
X118900083Y-127209966D01*
X118900080Y-127209966D01*
X118895406Y-127209905D01*
X118643787Y-127244149D01*
X118639301Y-127245457D01*
X118639299Y-127245457D01*
X118612401Y-127253297D01*
X118399993Y-127315208D01*
X118169380Y-127421522D01*
X118165471Y-127424085D01*
X117960928Y-127558189D01*
X117960923Y-127558193D01*
X117957015Y-127560755D01*
X117896543Y-127614728D01*
X117794870Y-127705475D01*
X117767562Y-127729848D01*
X117605183Y-127925087D01*
X117473447Y-128142182D01*
X117471638Y-128146496D01*
X117471637Y-128146498D01*
X117385792Y-128351216D01*
X117375246Y-128376365D01*
X117374095Y-128380897D01*
X117374094Y-128380900D01*
X117363525Y-128422517D01*
X117312738Y-128622490D01*
X117287296Y-128875151D01*
X109459124Y-128875151D01*
X109448084Y-128846762D01*
X109448083Y-128846760D01*
X109446391Y-128842409D01*
X109431858Y-128816981D01*
X109322702Y-128625997D01*
X109322700Y-128625995D01*
X109320383Y-128621940D01*
X109163171Y-128422517D01*
X109077291Y-128341730D01*
X108981610Y-128251722D01*
X108981608Y-128251720D01*
X108978209Y-128248523D01*
X108832380Y-128147358D01*
X108773393Y-128106437D01*
X108773390Y-128106435D01*
X108769561Y-128103779D01*
X108765384Y-128101719D01*
X108765377Y-128101715D01*
X108545996Y-127993528D01*
X108545992Y-127993527D01*
X108541810Y-127991464D01*
X108299960Y-127914047D01*
X108295355Y-127913297D01*
X108053935Y-127873980D01*
X108053934Y-127873980D01*
X108049323Y-127873229D01*
X107922365Y-127871567D01*
X107800083Y-127869966D01*
X107800080Y-127869966D01*
X107795406Y-127869905D01*
X107543787Y-127904149D01*
X107299993Y-127975208D01*
X107069380Y-128081522D01*
X107065471Y-128084085D01*
X106860928Y-128218189D01*
X106860923Y-128218193D01*
X106857015Y-128220755D01*
X106801595Y-128270219D01*
X106710846Y-128351216D01*
X106667562Y-128389848D01*
X106505183Y-128585087D01*
X106373447Y-128802182D01*
X106371638Y-128806496D01*
X106371637Y-128806498D01*
X106301293Y-128974251D01*
X106275246Y-129036365D01*
X106274095Y-129040897D01*
X106274094Y-129040900D01*
X106265503Y-129074728D01*
X106212738Y-129282490D01*
X106187296Y-129535151D01*
X103008000Y-129535151D01*
X103008000Y-125873359D01*
X106891386Y-125873359D01*
X106900099Y-125884879D01*
X106988586Y-125949760D01*
X106996505Y-125954708D01*
X107212877Y-126068547D01*
X107221451Y-126072275D01*
X107452282Y-126152885D01*
X107461291Y-126155299D01*
X107701518Y-126200908D01*
X107710775Y-126201962D01*
X107955107Y-126211563D01*
X107964420Y-126211237D01*
X108207478Y-126184618D01*
X108216655Y-126182917D01*
X108453107Y-126120665D01*
X108461926Y-126117628D01*
X108686584Y-126021107D01*
X108694856Y-126016800D01*
X108902777Y-125888135D01*
X108904620Y-125886796D01*
X108912038Y-125875541D01*
X108905974Y-125865184D01*
X107912812Y-124872022D01*
X107898868Y-124864408D01*
X107897035Y-124864539D01*
X107890420Y-124868790D01*
X106898044Y-125861166D01*
X106891386Y-125873359D01*
X103008000Y-125873359D01*
X103008000Y-124459835D01*
X106188022Y-124459835D01*
X106199754Y-124704064D01*
X106200891Y-124713324D01*
X106248593Y-124953143D01*
X106251082Y-124962118D01*
X106333708Y-125192250D01*
X106337505Y-125200778D01*
X106453234Y-125416160D01*
X106458245Y-125424027D01*
X106515173Y-125500263D01*
X106526431Y-125508712D01*
X106538850Y-125501940D01*
X107527978Y-124512812D01*
X107534356Y-124501132D01*
X108264408Y-124501132D01*
X108264539Y-124502965D01*
X108268790Y-124509580D01*
X109263732Y-125504522D01*
X109276112Y-125511282D01*
X109284453Y-125505038D01*
X109402700Y-125321202D01*
X109407147Y-125313011D01*
X109507572Y-125090076D01*
X109510767Y-125081298D01*
X109577135Y-124845973D01*
X109578993Y-124836844D01*
X109610044Y-124592770D01*
X109610525Y-124586483D01*
X109612706Y-124503160D01*
X109612555Y-124496851D01*
X109594321Y-124251486D01*
X109592944Y-124242280D01*
X109538979Y-124003786D01*
X109536255Y-123994875D01*
X109458587Y-123795151D01*
X117287296Y-123795151D01*
X117287520Y-123799817D01*
X117287520Y-123799822D01*
X117290480Y-123861442D01*
X117299480Y-124048798D01*
X117321656Y-124160282D01*
X117341890Y-124262006D01*
X117349021Y-124297857D01*
X117350600Y-124302255D01*
X117350602Y-124302262D01*
X117419849Y-124495131D01*
X117434831Y-124536858D01*
X117437048Y-124540984D01*
X117550290Y-124751738D01*
X117555025Y-124760551D01*
X117557820Y-124764294D01*
X117557822Y-124764297D01*
X117704171Y-124960282D01*
X117704176Y-124960288D01*
X117706963Y-124964020D01*
X117710272Y-124967300D01*
X117710277Y-124967306D01*
X117808859Y-125065031D01*
X117887307Y-125142797D01*
X117891069Y-125145555D01*
X117891072Y-125145558D01*
X117954752Y-125192250D01*
X118092094Y-125292953D01*
X118096229Y-125295129D01*
X118096233Y-125295131D01*
X118145786Y-125321202D01*
X118316827Y-125411191D01*
X118556568Y-125494912D01*
X118806050Y-125542278D01*
X118926532Y-125547011D01*
X119055125Y-125552064D01*
X119055130Y-125552064D01*
X119059793Y-125552247D01*
X119158774Y-125541407D01*
X119307569Y-125525112D01*
X119307575Y-125525111D01*
X119312222Y-125524602D01*
X119362815Y-125511282D01*
X119553273Y-125461138D01*
X119557793Y-125459948D01*
X119676353Y-125409011D01*
X119786807Y-125361557D01*
X119786810Y-125361555D01*
X119791110Y-125359708D01*
X119795090Y-125357245D01*
X119795094Y-125357243D01*
X120003064Y-125228547D01*
X120003066Y-125228545D01*
X120007047Y-125226082D01*
X120010624Y-125223054D01*
X120197289Y-125065031D01*
X120197291Y-125065029D01*
X120200862Y-125062006D01*
X120368295Y-124871084D01*
X120372590Y-124864408D01*
X120481052Y-124695784D01*
X120505669Y-124657512D01*
X120609967Y-124425980D01*
X120678896Y-124181575D01*
X120701514Y-124003786D01*
X120710545Y-123932798D01*
X120710545Y-123932792D01*
X120710943Y-123929667D01*
X120713291Y-123840000D01*
X120697387Y-123625980D01*
X120694818Y-123591411D01*
X120694817Y-123591407D01*
X120694472Y-123586759D01*
X120674584Y-123498865D01*
X120639459Y-123343639D01*
X120638428Y-123339082D01*
X120555803Y-123126612D01*
X120548084Y-123106762D01*
X120548083Y-123106760D01*
X120546391Y-123102409D01*
X120525866Y-123066498D01*
X120485088Y-122995151D01*
X192787296Y-122995151D01*
X192787520Y-122999817D01*
X192787520Y-122999822D01*
X192790516Y-123062182D01*
X192799480Y-123248798D01*
X192808942Y-123296365D01*
X192847537Y-123490395D01*
X192849021Y-123497857D01*
X192850600Y-123502255D01*
X192850602Y-123502262D01*
X192895022Y-123625980D01*
X192934831Y-123736858D01*
X192937048Y-123740984D01*
X193038431Y-123929667D01*
X193055025Y-123960551D01*
X193057820Y-123964294D01*
X193057822Y-123964297D01*
X193204171Y-124160282D01*
X193204176Y-124160288D01*
X193206963Y-124164020D01*
X193210272Y-124167300D01*
X193210277Y-124167306D01*
X193383990Y-124339509D01*
X193387307Y-124342797D01*
X193391069Y-124345555D01*
X193391072Y-124345558D01*
X193494603Y-124421470D01*
X193592094Y-124492953D01*
X193596229Y-124495129D01*
X193596233Y-124495131D01*
X193683386Y-124540984D01*
X193816827Y-124611191D01*
X194056568Y-124694912D01*
X194306050Y-124742278D01*
X194426532Y-124747011D01*
X194555125Y-124752064D01*
X194555130Y-124752064D01*
X194559793Y-124752247D01*
X194658774Y-124741407D01*
X194807569Y-124725112D01*
X194807575Y-124725111D01*
X194812222Y-124724602D01*
X194855059Y-124713324D01*
X195053273Y-124661138D01*
X195057793Y-124659948D01*
X195176353Y-124609011D01*
X195286807Y-124561557D01*
X195286810Y-124561555D01*
X195291110Y-124559708D01*
X195295090Y-124557245D01*
X195295094Y-124557243D01*
X195503064Y-124428547D01*
X195503066Y-124428545D01*
X195507047Y-124426082D01*
X195605428Y-124342797D01*
X195697289Y-124265031D01*
X195697291Y-124265029D01*
X195700862Y-124262006D01*
X195868295Y-124071084D01*
X195911583Y-124003786D01*
X196003141Y-123861442D01*
X196005669Y-123857512D01*
X196109967Y-123625980D01*
X196178896Y-123381575D01*
X196196382Y-123244126D01*
X196210545Y-123132798D01*
X196210545Y-123132792D01*
X196210943Y-123129667D01*
X196211068Y-123124917D01*
X196213208Y-123043160D01*
X196213291Y-123040000D01*
X196213057Y-123036851D01*
X196194818Y-122791411D01*
X196194817Y-122791407D01*
X196194472Y-122786759D01*
X196138428Y-122539082D01*
X196071290Y-122366437D01*
X196048084Y-122306762D01*
X196048083Y-122306760D01*
X196046391Y-122302409D01*
X196025866Y-122266498D01*
X195922702Y-122085997D01*
X195922700Y-122085995D01*
X195920383Y-122081940D01*
X195763171Y-121882517D01*
X195578209Y-121708523D01*
X195534483Y-121678189D01*
X195373393Y-121566437D01*
X195373390Y-121566435D01*
X195369561Y-121563779D01*
X195365384Y-121561719D01*
X195365377Y-121561715D01*
X195145996Y-121453528D01*
X195145992Y-121453527D01*
X195141810Y-121451464D01*
X194899960Y-121374047D01*
X194895355Y-121373297D01*
X194653935Y-121333980D01*
X194653934Y-121333980D01*
X194649323Y-121333229D01*
X194522364Y-121331567D01*
X194400083Y-121329966D01*
X194400080Y-121329966D01*
X194395406Y-121329905D01*
X194143787Y-121364149D01*
X193899993Y-121435208D01*
X193669380Y-121541522D01*
X193665471Y-121544085D01*
X193460928Y-121678189D01*
X193460923Y-121678193D01*
X193457015Y-121680755D01*
X193267562Y-121849848D01*
X193105183Y-122045087D01*
X192973447Y-122262182D01*
X192971638Y-122266496D01*
X192971637Y-122266498D01*
X192880485Y-122483872D01*
X192875246Y-122496365D01*
X192874095Y-122500897D01*
X192874094Y-122500900D01*
X192872158Y-122508523D01*
X192812738Y-122742490D01*
X192787296Y-122995151D01*
X120485088Y-122995151D01*
X120422702Y-122885997D01*
X120422700Y-122885995D01*
X120420383Y-122881940D01*
X120263171Y-122682517D01*
X120115539Y-122543639D01*
X120081610Y-122511722D01*
X120081608Y-122511720D01*
X120078209Y-122508523D01*
X120034483Y-122478189D01*
X119873393Y-122366437D01*
X119873390Y-122366435D01*
X119869561Y-122363779D01*
X119865384Y-122361719D01*
X119865377Y-122361715D01*
X119645996Y-122253528D01*
X119645992Y-122253527D01*
X119641810Y-122251464D01*
X119399960Y-122174047D01*
X119395355Y-122173297D01*
X119153935Y-122133980D01*
X119153934Y-122133980D01*
X119149323Y-122133229D01*
X119022365Y-122131567D01*
X118900083Y-122129966D01*
X118900080Y-122129966D01*
X118895406Y-122129905D01*
X118643787Y-122164149D01*
X118399993Y-122235208D01*
X118169380Y-122341522D01*
X118165471Y-122344085D01*
X117960928Y-122478189D01*
X117960923Y-122478193D01*
X117957015Y-122480755D01*
X117767562Y-122649848D01*
X117605183Y-122845087D01*
X117473447Y-123062182D01*
X117471638Y-123066496D01*
X117471637Y-123066498D01*
X117393269Y-123253386D01*
X117375246Y-123296365D01*
X117312738Y-123542490D01*
X117287296Y-123795151D01*
X109458587Y-123795151D01*
X109447633Y-123766983D01*
X109443619Y-123758567D01*
X109322284Y-123546276D01*
X109317074Y-123538553D01*
X109285787Y-123498865D01*
X109273863Y-123490395D01*
X109262328Y-123496882D01*
X108272022Y-124487188D01*
X108264408Y-124501132D01*
X107534356Y-124501132D01*
X107535592Y-124498868D01*
X107535461Y-124497035D01*
X107531210Y-124490420D01*
X106536828Y-123496038D01*
X106523520Y-123488771D01*
X106513481Y-123495893D01*
X106508581Y-123501784D01*
X106503168Y-123509373D01*
X106376322Y-123718409D01*
X106372084Y-123726726D01*
X106277529Y-123952214D01*
X106274572Y-123961052D01*
X106214384Y-124198042D01*
X106212763Y-124207232D01*
X106188267Y-124450510D01*
X106188022Y-124459835D01*
X103008000Y-124459835D01*
X103008000Y-123124917D01*
X106889330Y-123124917D01*
X106893903Y-123134693D01*
X107887188Y-124127978D01*
X107901132Y-124135592D01*
X107902965Y-124135461D01*
X107909580Y-124131210D01*
X108902488Y-123138302D01*
X108908872Y-123126612D01*
X108899460Y-123114502D01*
X108773144Y-123026873D01*
X108765116Y-123022145D01*
X108545810Y-122913995D01*
X108537177Y-122910507D01*
X108304288Y-122835958D01*
X108295238Y-122833785D01*
X108053891Y-122794480D01*
X108044602Y-122793668D01*
X107800114Y-122790467D01*
X107790803Y-122791037D01*
X107548522Y-122824010D01*
X107539403Y-122825948D01*
X107304668Y-122894367D01*
X107295915Y-122897639D01*
X107073869Y-123000004D01*
X107065714Y-123004524D01*
X106898468Y-123114175D01*
X106889330Y-123124917D01*
X103008000Y-123124917D01*
X103008000Y-119375151D01*
X106187296Y-119375151D01*
X106199480Y-119628798D01*
X106249021Y-119877857D01*
X106250600Y-119882255D01*
X106250602Y-119882262D01*
X106295022Y-120005980D01*
X106334831Y-120116858D01*
X106455025Y-120340551D01*
X106457820Y-120344294D01*
X106457822Y-120344297D01*
X106604171Y-120540282D01*
X106604176Y-120540288D01*
X106606963Y-120544020D01*
X106610272Y-120547300D01*
X106610277Y-120547306D01*
X106708859Y-120645031D01*
X106787307Y-120722797D01*
X106791069Y-120725555D01*
X106791072Y-120725558D01*
X106896764Y-120803054D01*
X106992094Y-120872953D01*
X106996229Y-120875129D01*
X106996233Y-120875131D01*
X107114289Y-120937243D01*
X107216827Y-120991191D01*
X107456568Y-121074912D01*
X107706050Y-121122278D01*
X107826532Y-121127011D01*
X107955125Y-121132064D01*
X107955130Y-121132064D01*
X107959793Y-121132247D01*
X108058774Y-121121407D01*
X108207569Y-121105112D01*
X108207575Y-121105111D01*
X108212222Y-121104602D01*
X108321680Y-121075784D01*
X108453273Y-121041138D01*
X108457793Y-121039948D01*
X108576353Y-120989011D01*
X108686807Y-120941557D01*
X108686810Y-120941555D01*
X108691110Y-120939708D01*
X108695090Y-120937245D01*
X108695094Y-120937243D01*
X108903064Y-120808547D01*
X108903066Y-120808545D01*
X108907047Y-120806082D01*
X109005428Y-120722797D01*
X109097289Y-120645031D01*
X109097291Y-120645029D01*
X109100862Y-120642006D01*
X109268295Y-120451084D01*
X109405669Y-120237512D01*
X109509967Y-120005980D01*
X109578896Y-119761575D01*
X109593777Y-119644602D01*
X109610545Y-119512798D01*
X109610545Y-119512792D01*
X109610943Y-119509667D01*
X109611728Y-119479708D01*
X109613208Y-119423160D01*
X109613291Y-119420000D01*
X109601609Y-119262797D01*
X109594818Y-119171411D01*
X109594817Y-119171407D01*
X109594472Y-119166759D01*
X109576494Y-119087306D01*
X109539459Y-118923639D01*
X109538428Y-118919082D01*
X109484903Y-118781442D01*
X109448084Y-118686762D01*
X109448083Y-118686760D01*
X109446391Y-118682409D01*
X109434146Y-118660984D01*
X109322702Y-118465997D01*
X109322700Y-118465995D01*
X109320383Y-118461940D01*
X109163171Y-118262517D01*
X109079625Y-118183925D01*
X108981610Y-118091722D01*
X108981608Y-118091720D01*
X108978209Y-118088523D01*
X108792944Y-117960000D01*
X108773393Y-117946437D01*
X108773390Y-117946435D01*
X108769561Y-117943779D01*
X108765384Y-117941719D01*
X108765377Y-117941715D01*
X108711511Y-117915151D01*
X192787296Y-117915151D01*
X192799480Y-118168798D01*
X192849021Y-118417857D01*
X192850600Y-118422255D01*
X192850602Y-118422262D01*
X192895022Y-118545980D01*
X192934831Y-118656858D01*
X193055025Y-118880551D01*
X193057820Y-118884294D01*
X193057822Y-118884297D01*
X193204171Y-119080282D01*
X193204176Y-119080288D01*
X193206963Y-119084020D01*
X193210272Y-119087300D01*
X193210277Y-119087306D01*
X193308859Y-119185031D01*
X193387307Y-119262797D01*
X193391069Y-119265555D01*
X193391072Y-119265558D01*
X193546909Y-119379822D01*
X193592094Y-119412953D01*
X193596229Y-119415129D01*
X193596233Y-119415131D01*
X193611494Y-119423160D01*
X193816827Y-119531191D01*
X194056568Y-119614912D01*
X194306050Y-119662278D01*
X194426532Y-119667011D01*
X194555125Y-119672064D01*
X194555130Y-119672064D01*
X194559793Y-119672247D01*
X194658774Y-119661407D01*
X194807569Y-119645112D01*
X194807575Y-119645111D01*
X194812222Y-119644602D01*
X194921680Y-119615784D01*
X195053273Y-119581138D01*
X195057793Y-119579948D01*
X195228726Y-119506510D01*
X195286807Y-119481557D01*
X195286810Y-119481555D01*
X195291110Y-119479708D01*
X195295090Y-119477245D01*
X195295094Y-119477243D01*
X195503064Y-119348547D01*
X195503066Y-119348545D01*
X195507047Y-119346082D01*
X195605428Y-119262797D01*
X195697289Y-119185031D01*
X195697291Y-119185029D01*
X195700862Y-119182006D01*
X195868295Y-118991084D01*
X196005669Y-118777512D01*
X196109967Y-118545980D01*
X196178896Y-118301575D01*
X196209136Y-118063872D01*
X196210545Y-118052798D01*
X196210545Y-118052792D01*
X196210943Y-118049667D01*
X196213291Y-117960000D01*
X196203739Y-117831464D01*
X196194818Y-117711411D01*
X196194817Y-117711407D01*
X196194472Y-117706759D01*
X196171668Y-117605978D01*
X196139459Y-117463639D01*
X196138428Y-117459082D01*
X196136735Y-117454728D01*
X196048084Y-117226762D01*
X196048083Y-117226760D01*
X196046391Y-117222409D01*
X196025866Y-117186498D01*
X195922702Y-117005997D01*
X195922700Y-117005995D01*
X195920383Y-117001940D01*
X195763171Y-116802517D01*
X195578209Y-116628523D01*
X195488059Y-116565984D01*
X195373393Y-116486437D01*
X195373390Y-116486435D01*
X195369561Y-116483779D01*
X195365384Y-116481719D01*
X195365377Y-116481715D01*
X195145996Y-116373528D01*
X195145992Y-116373527D01*
X195141810Y-116371464D01*
X194899960Y-116294047D01*
X194895355Y-116293297D01*
X194653935Y-116253980D01*
X194653934Y-116253980D01*
X194649323Y-116253229D01*
X194522365Y-116251567D01*
X194400083Y-116249966D01*
X194400080Y-116249966D01*
X194395406Y-116249905D01*
X194143787Y-116284149D01*
X193899993Y-116355208D01*
X193669380Y-116461522D01*
X193665471Y-116464085D01*
X193460928Y-116598189D01*
X193460923Y-116598193D01*
X193457015Y-116600755D01*
X193267562Y-116769848D01*
X193105183Y-116965087D01*
X192973447Y-117182182D01*
X192971638Y-117186496D01*
X192971637Y-117186498D01*
X192911405Y-117330136D01*
X192875246Y-117416365D01*
X192812738Y-117662490D01*
X192787296Y-117915151D01*
X108711511Y-117915151D01*
X108545996Y-117833528D01*
X108545992Y-117833527D01*
X108541810Y-117831464D01*
X108299960Y-117754047D01*
X108295355Y-117753297D01*
X108053935Y-117713980D01*
X108053934Y-117713980D01*
X108049323Y-117713229D01*
X107922365Y-117711567D01*
X107800083Y-117709966D01*
X107800080Y-117709966D01*
X107795406Y-117709905D01*
X107543787Y-117744149D01*
X107299993Y-117815208D01*
X107069380Y-117921522D01*
X107065471Y-117924085D01*
X106860928Y-118058189D01*
X106860923Y-118058193D01*
X106857015Y-118060755D01*
X106667562Y-118229848D01*
X106505183Y-118425087D01*
X106373447Y-118642182D01*
X106275246Y-118876365D01*
X106274095Y-118880897D01*
X106274094Y-118880900D01*
X106265503Y-118914728D01*
X106212738Y-119122490D01*
X106187296Y-119375151D01*
X103008000Y-119375151D01*
X103008000Y-116350000D01*
X116644647Y-116350000D01*
X116664022Y-116571463D01*
X116702497Y-116715051D01*
X116717180Y-116769848D01*
X116721560Y-116786196D01*
X116723882Y-116791177D01*
X116723883Y-116791178D01*
X116813186Y-116982689D01*
X116813189Y-116982694D01*
X116815512Y-116987676D01*
X116943023Y-117169781D01*
X117100219Y-117326977D01*
X117104727Y-117330134D01*
X117104730Y-117330136D01*
X117180495Y-117383187D01*
X117282323Y-117454488D01*
X117287305Y-117456811D01*
X117287310Y-117456814D01*
X117478822Y-117546117D01*
X117483804Y-117548440D01*
X117489112Y-117549862D01*
X117489114Y-117549863D01*
X117554949Y-117567503D01*
X117698537Y-117605978D01*
X117920000Y-117625353D01*
X118141463Y-117605978D01*
X118285051Y-117567503D01*
X118350886Y-117549863D01*
X118350888Y-117549862D01*
X118356196Y-117548440D01*
X118361178Y-117546117D01*
X118552690Y-117456814D01*
X118552695Y-117456811D01*
X118557677Y-117454488D01*
X118659505Y-117383187D01*
X118735270Y-117330136D01*
X118735273Y-117330134D01*
X118739781Y-117326977D01*
X118896977Y-117169781D01*
X119024488Y-116987676D01*
X119026811Y-116982694D01*
X119026814Y-116982689D01*
X119116117Y-116791178D01*
X119116118Y-116791177D01*
X119118440Y-116786196D01*
X119122821Y-116769848D01*
X119137503Y-116715051D01*
X119175978Y-116571463D01*
X119195353Y-116350000D01*
X119175978Y-116128537D01*
X119118440Y-115913804D01*
X119032053Y-115728547D01*
X119026814Y-115717311D01*
X119026811Y-115717306D01*
X119024488Y-115712324D01*
X118921353Y-115565031D01*
X118900136Y-115534730D01*
X118900134Y-115534727D01*
X118896977Y-115530219D01*
X118739781Y-115373023D01*
X118735273Y-115369866D01*
X118735270Y-115369864D01*
X118659505Y-115316813D01*
X118557677Y-115245512D01*
X118552695Y-115243189D01*
X118552690Y-115243186D01*
X118447627Y-115194195D01*
X118394342Y-115147278D01*
X118374881Y-115079001D01*
X118395423Y-115011041D01*
X118447627Y-114965805D01*
X118552690Y-114916814D01*
X118552695Y-114916811D01*
X118557677Y-114914488D01*
X118724243Y-114797857D01*
X118735270Y-114790136D01*
X118735273Y-114790134D01*
X118739781Y-114786977D01*
X118896977Y-114629781D01*
X118923738Y-114591563D01*
X119021331Y-114452185D01*
X119021332Y-114452183D01*
X119024488Y-114447676D01*
X119026811Y-114442694D01*
X119026814Y-114442689D01*
X119115100Y-114253359D01*
X193491386Y-114253359D01*
X193500099Y-114264879D01*
X193588586Y-114329760D01*
X193596505Y-114334708D01*
X193812877Y-114448547D01*
X193821451Y-114452275D01*
X194052282Y-114532885D01*
X194061291Y-114535299D01*
X194301518Y-114580908D01*
X194310775Y-114581962D01*
X194555107Y-114591563D01*
X194564420Y-114591237D01*
X194807478Y-114564618D01*
X194816655Y-114562917D01*
X195053107Y-114500665D01*
X195061926Y-114497628D01*
X195286584Y-114401107D01*
X195294856Y-114396800D01*
X195502777Y-114268135D01*
X195504620Y-114266796D01*
X195512038Y-114255541D01*
X195505974Y-114245184D01*
X194512812Y-113252022D01*
X194498868Y-113244408D01*
X194497035Y-113244539D01*
X194490420Y-113248790D01*
X193498044Y-114241166D01*
X193491386Y-114253359D01*
X119115100Y-114253359D01*
X119116117Y-114251178D01*
X119116118Y-114251177D01*
X119118440Y-114246196D01*
X119175978Y-114031463D01*
X119195353Y-113810000D01*
X119175978Y-113588537D01*
X119118440Y-113373804D01*
X119103373Y-113341492D01*
X119026814Y-113177311D01*
X119026811Y-113177306D01*
X119024488Y-113172324D01*
X118896977Y-112990219D01*
X118746593Y-112839835D01*
X192788022Y-112839835D01*
X192799754Y-113084064D01*
X192800891Y-113093324D01*
X192848593Y-113333143D01*
X192851082Y-113342118D01*
X192933708Y-113572250D01*
X192937505Y-113580778D01*
X193053234Y-113796160D01*
X193058245Y-113804027D01*
X193115173Y-113880263D01*
X193126431Y-113888712D01*
X193138850Y-113881940D01*
X194127978Y-112892812D01*
X194134356Y-112881132D01*
X194864408Y-112881132D01*
X194864539Y-112882965D01*
X194868790Y-112889580D01*
X195863732Y-113884522D01*
X195876112Y-113891282D01*
X195884453Y-113885038D01*
X196002700Y-113701202D01*
X196007147Y-113693011D01*
X196107572Y-113470076D01*
X196110767Y-113461298D01*
X196177135Y-113225973D01*
X196178993Y-113216844D01*
X196210044Y-112972770D01*
X196210525Y-112966483D01*
X196212706Y-112883160D01*
X196212555Y-112876851D01*
X196194321Y-112631486D01*
X196192944Y-112622280D01*
X196138979Y-112383786D01*
X196136255Y-112374875D01*
X196047633Y-112146983D01*
X196043619Y-112138567D01*
X195922284Y-111926276D01*
X195917074Y-111918553D01*
X195885787Y-111878865D01*
X195873863Y-111870395D01*
X195862328Y-111876882D01*
X194872022Y-112867188D01*
X194864408Y-112881132D01*
X194134356Y-112881132D01*
X194135592Y-112878868D01*
X194135461Y-112877035D01*
X194131210Y-112870420D01*
X193136828Y-111876038D01*
X193123520Y-111868771D01*
X193113481Y-111875893D01*
X193108581Y-111881784D01*
X193103168Y-111889373D01*
X192976322Y-112098409D01*
X192972084Y-112106726D01*
X192877529Y-112332214D01*
X192874572Y-112341052D01*
X192814384Y-112578042D01*
X192812763Y-112587232D01*
X192788267Y-112830510D01*
X192788022Y-112839835D01*
X118746593Y-112839835D01*
X118739781Y-112833023D01*
X118735273Y-112829866D01*
X118735270Y-112829864D01*
X118621271Y-112750041D01*
X118557677Y-112705512D01*
X118552695Y-112703189D01*
X118552690Y-112703186D01*
X118447627Y-112654195D01*
X118394342Y-112607278D01*
X118374881Y-112539001D01*
X118395423Y-112471041D01*
X118447627Y-112425805D01*
X118552690Y-112376814D01*
X118552695Y-112376811D01*
X118557677Y-112374488D01*
X118659505Y-112303187D01*
X118735270Y-112250136D01*
X118735273Y-112250134D01*
X118739781Y-112246977D01*
X118896977Y-112089781D01*
X119024488Y-111907676D01*
X119026811Y-111902694D01*
X119026814Y-111902689D01*
X119116117Y-111711178D01*
X119116118Y-111711177D01*
X119118440Y-111706196D01*
X119172373Y-111504917D01*
X193489330Y-111504917D01*
X193493903Y-111514693D01*
X194487188Y-112507978D01*
X194501132Y-112515592D01*
X194502965Y-112515461D01*
X194509580Y-112511210D01*
X195502488Y-111518302D01*
X195508872Y-111506612D01*
X195499460Y-111494502D01*
X195373144Y-111406873D01*
X195365116Y-111402145D01*
X195145810Y-111293995D01*
X195137177Y-111290507D01*
X194904288Y-111215958D01*
X194895238Y-111213785D01*
X194653891Y-111174480D01*
X194644602Y-111173668D01*
X194400114Y-111170467D01*
X194390803Y-111171037D01*
X194148522Y-111204010D01*
X194139403Y-111205948D01*
X193904668Y-111274367D01*
X193895915Y-111277639D01*
X193673869Y-111380004D01*
X193665714Y-111384524D01*
X193498468Y-111494175D01*
X193489330Y-111504917D01*
X119172373Y-111504917D01*
X119175978Y-111491463D01*
X119195353Y-111270000D01*
X119175978Y-111048537D01*
X119118440Y-110833804D01*
X119116117Y-110828822D01*
X119026814Y-110637311D01*
X119026811Y-110637306D01*
X119024488Y-110632324D01*
X118896977Y-110450219D01*
X118739781Y-110293023D01*
X118735273Y-110289866D01*
X118735270Y-110289864D01*
X118659505Y-110236813D01*
X118557677Y-110165512D01*
X118552695Y-110163189D01*
X118552690Y-110163186D01*
X118447627Y-110114195D01*
X118394342Y-110067278D01*
X118374881Y-109999001D01*
X118395423Y-109931041D01*
X118447627Y-109885805D01*
X118552690Y-109836814D01*
X118552695Y-109836811D01*
X118557677Y-109834488D01*
X118659505Y-109763187D01*
X118735270Y-109710136D01*
X118735273Y-109710134D01*
X118739781Y-109706977D01*
X118896977Y-109549781D01*
X119024488Y-109367676D01*
X119026811Y-109362694D01*
X119026814Y-109362689D01*
X119116117Y-109171178D01*
X119116118Y-109171177D01*
X119118440Y-109166196D01*
X119175978Y-108951463D01*
X119195353Y-108730000D01*
X119175978Y-108508537D01*
X119118440Y-108293804D01*
X119116117Y-108288822D01*
X119026814Y-108097311D01*
X119026811Y-108097306D01*
X119024488Y-108092324D01*
X118896977Y-107910219D01*
X118739781Y-107753023D01*
X118735273Y-107749866D01*
X118735270Y-107749864D01*
X118659505Y-107696813D01*
X118557677Y-107625512D01*
X118552695Y-107623189D01*
X118552690Y-107623186D01*
X118447035Y-107573919D01*
X118393750Y-107527002D01*
X118374289Y-107458725D01*
X118394831Y-107390765D01*
X118447035Y-107345529D01*
X118552445Y-107296376D01*
X118561931Y-107290898D01*
X118605764Y-107260207D01*
X118614139Y-107249729D01*
X118607071Y-107236281D01*
X117932812Y-106562022D01*
X117918868Y-106554408D01*
X117917035Y-106554539D01*
X117910420Y-106558790D01*
X117232207Y-107237003D01*
X117225777Y-107248777D01*
X117235074Y-107260793D01*
X117278069Y-107290898D01*
X117287555Y-107296376D01*
X117392965Y-107345529D01*
X117446250Y-107392446D01*
X117465711Y-107460723D01*
X117445169Y-107528683D01*
X117392965Y-107573919D01*
X117287311Y-107623186D01*
X117287306Y-107623189D01*
X117282324Y-107625512D01*
X117277817Y-107628668D01*
X117277815Y-107628669D01*
X117104730Y-107749864D01*
X117104727Y-107749866D01*
X117100219Y-107753023D01*
X116943023Y-107910219D01*
X116815512Y-108092324D01*
X116813189Y-108097306D01*
X116813186Y-108097311D01*
X116723883Y-108288822D01*
X116721560Y-108293804D01*
X116664022Y-108508537D01*
X116644647Y-108730000D01*
X116664022Y-108951463D01*
X116721560Y-109166196D01*
X116723882Y-109171177D01*
X116723883Y-109171178D01*
X116813186Y-109362689D01*
X116813189Y-109362694D01*
X116815512Y-109367676D01*
X116943023Y-109549781D01*
X117100219Y-109706977D01*
X117104727Y-109710134D01*
X117104730Y-109710136D01*
X117180495Y-109763187D01*
X117282323Y-109834488D01*
X117287305Y-109836811D01*
X117287310Y-109836814D01*
X117392373Y-109885805D01*
X117445658Y-109932722D01*
X117465119Y-110000999D01*
X117444577Y-110068959D01*
X117392373Y-110114195D01*
X117287311Y-110163186D01*
X117287306Y-110163189D01*
X117282324Y-110165512D01*
X117277817Y-110168668D01*
X117277815Y-110168669D01*
X117104730Y-110289864D01*
X117104727Y-110289866D01*
X117100219Y-110293023D01*
X116943023Y-110450219D01*
X116815512Y-110632324D01*
X116813189Y-110637306D01*
X116813186Y-110637311D01*
X116723883Y-110828822D01*
X116721560Y-110833804D01*
X116664022Y-111048537D01*
X116644647Y-111270000D01*
X116664022Y-111491463D01*
X116721560Y-111706196D01*
X116723882Y-111711177D01*
X116723883Y-111711178D01*
X116813186Y-111902689D01*
X116813189Y-111902694D01*
X116815512Y-111907676D01*
X116943023Y-112089781D01*
X117100219Y-112246977D01*
X117104727Y-112250134D01*
X117104730Y-112250136D01*
X117180495Y-112303187D01*
X117282323Y-112374488D01*
X117287305Y-112376811D01*
X117287310Y-112376814D01*
X117392373Y-112425805D01*
X117445658Y-112472722D01*
X117465119Y-112540999D01*
X117444577Y-112608959D01*
X117392373Y-112654195D01*
X117287311Y-112703186D01*
X117287306Y-112703189D01*
X117282324Y-112705512D01*
X117277817Y-112708668D01*
X117277815Y-112708669D01*
X117104730Y-112829864D01*
X117104727Y-112829866D01*
X117100219Y-112833023D01*
X116943023Y-112990219D01*
X116815512Y-113172324D01*
X116813189Y-113177306D01*
X116813186Y-113177311D01*
X116736627Y-113341492D01*
X116721560Y-113373804D01*
X116664022Y-113588537D01*
X116644647Y-113810000D01*
X116664022Y-114031463D01*
X116721560Y-114246196D01*
X116723882Y-114251177D01*
X116723883Y-114251178D01*
X116813186Y-114442689D01*
X116813189Y-114442694D01*
X116815512Y-114447676D01*
X116818668Y-114452183D01*
X116818669Y-114452185D01*
X116916263Y-114591563D01*
X116943023Y-114629781D01*
X117100219Y-114786977D01*
X117104727Y-114790134D01*
X117104730Y-114790136D01*
X117115757Y-114797857D01*
X117282323Y-114914488D01*
X117287305Y-114916811D01*
X117287310Y-114916814D01*
X117392373Y-114965805D01*
X117445658Y-115012722D01*
X117465119Y-115080999D01*
X117444577Y-115148959D01*
X117392373Y-115194195D01*
X117287311Y-115243186D01*
X117287306Y-115243189D01*
X117282324Y-115245512D01*
X117277817Y-115248668D01*
X117277815Y-115248669D01*
X117104730Y-115369864D01*
X117104727Y-115369866D01*
X117100219Y-115373023D01*
X116943023Y-115530219D01*
X116939866Y-115534727D01*
X116939864Y-115534730D01*
X116918647Y-115565031D01*
X116815512Y-115712324D01*
X116813189Y-115717306D01*
X116813186Y-115717311D01*
X116807947Y-115728547D01*
X116721560Y-115913804D01*
X116664022Y-116128537D01*
X116644647Y-116350000D01*
X103008000Y-116350000D01*
X103008000Y-114295151D01*
X106187296Y-114295151D01*
X106199480Y-114548798D01*
X106202627Y-114564618D01*
X106246857Y-114786977D01*
X106249021Y-114797857D01*
X106250600Y-114802255D01*
X106250602Y-114802262D01*
X106295022Y-114925980D01*
X106334831Y-115036858D01*
X106337048Y-115040984D01*
X106448641Y-115248669D01*
X106455025Y-115260551D01*
X106457820Y-115264294D01*
X106457822Y-115264297D01*
X106604171Y-115460282D01*
X106604176Y-115460288D01*
X106606963Y-115464020D01*
X106610272Y-115467300D01*
X106610277Y-115467306D01*
X106708859Y-115565031D01*
X106787307Y-115642797D01*
X106791069Y-115645555D01*
X106791072Y-115645558D01*
X106875980Y-115707815D01*
X106992094Y-115792953D01*
X106996229Y-115795129D01*
X106996233Y-115795131D01*
X107114289Y-115857243D01*
X107216827Y-115911191D01*
X107456568Y-115994912D01*
X107706050Y-116042278D01*
X107826532Y-116047011D01*
X107955125Y-116052064D01*
X107955130Y-116052064D01*
X107959793Y-116052247D01*
X108058774Y-116041407D01*
X108207569Y-116025112D01*
X108207575Y-116025111D01*
X108212222Y-116024602D01*
X108321680Y-115995784D01*
X108453273Y-115961138D01*
X108457793Y-115959948D01*
X108576793Y-115908822D01*
X108686807Y-115861557D01*
X108686810Y-115861555D01*
X108691110Y-115859708D01*
X108695090Y-115857245D01*
X108695094Y-115857243D01*
X108903064Y-115728547D01*
X108903066Y-115728545D01*
X108907047Y-115726082D01*
X109005428Y-115642797D01*
X109097289Y-115565031D01*
X109097291Y-115565029D01*
X109100862Y-115562006D01*
X109268295Y-115371084D01*
X109405669Y-115157512D01*
X109509967Y-114925980D01*
X109578896Y-114681575D01*
X109590389Y-114591237D01*
X109610545Y-114432798D01*
X109610545Y-114432792D01*
X109610943Y-114429667D01*
X109613291Y-114340000D01*
X109607015Y-114255541D01*
X109594818Y-114091411D01*
X109594817Y-114091407D01*
X109594472Y-114086759D01*
X109538428Y-113839082D01*
X109520138Y-113792050D01*
X109448084Y-113606762D01*
X109448083Y-113606760D01*
X109446391Y-113602409D01*
X109425866Y-113566498D01*
X109322702Y-113385997D01*
X109322700Y-113385995D01*
X109320383Y-113381940D01*
X109163171Y-113182517D01*
X108978209Y-113008523D01*
X108926671Y-112972770D01*
X108773393Y-112866437D01*
X108773390Y-112866435D01*
X108769561Y-112863779D01*
X108765384Y-112861719D01*
X108765377Y-112861715D01*
X108545996Y-112753528D01*
X108545992Y-112753527D01*
X108541810Y-112751464D01*
X108299960Y-112674047D01*
X108295355Y-112673297D01*
X108053935Y-112633980D01*
X108053934Y-112633980D01*
X108049323Y-112633229D01*
X107922364Y-112631567D01*
X107800083Y-112629966D01*
X107800080Y-112629966D01*
X107795406Y-112629905D01*
X107543787Y-112664149D01*
X107299993Y-112735208D01*
X107069380Y-112841522D01*
X107065471Y-112844085D01*
X106860928Y-112978189D01*
X106860923Y-112978193D01*
X106857015Y-112980755D01*
X106667562Y-113149848D01*
X106505183Y-113345087D01*
X106373447Y-113562182D01*
X106275246Y-113796365D01*
X106274095Y-113800897D01*
X106274094Y-113800900D01*
X106253513Y-113881940D01*
X106212738Y-114042490D01*
X106187296Y-114295151D01*
X103008000Y-114295151D01*
X103008000Y-105046485D01*
X105336854Y-105046485D01*
X105349612Y-105208590D01*
X105355108Y-105278417D01*
X105362370Y-105370695D01*
X105427206Y-105689378D01*
X105530398Y-105997784D01*
X105670405Y-106291316D01*
X105845141Y-106565597D01*
X105847584Y-106568560D01*
X105847585Y-106568562D01*
X105997308Y-106750190D01*
X106052001Y-106816538D01*
X106287902Y-107040399D01*
X106549326Y-107233843D01*
X106659853Y-107296376D01*
X106829019Y-107392086D01*
X106829023Y-107392088D01*
X106832376Y-107393985D01*
X107132832Y-107518438D01*
X107236288Y-107547129D01*
X107442500Y-107604317D01*
X107442508Y-107604319D01*
X107446216Y-107605347D01*
X107767856Y-107653416D01*
X107771154Y-107653560D01*
X107882918Y-107658440D01*
X107882922Y-107658440D01*
X107884294Y-107658500D01*
X108082598Y-107658500D01*
X108324605Y-107643698D01*
X108328388Y-107642997D01*
X108328395Y-107642996D01*
X108528459Y-107605916D01*
X108644372Y-107584433D01*
X108853682Y-107518438D01*
X108950860Y-107487798D01*
X108950863Y-107487797D01*
X108954532Y-107486640D01*
X108958029Y-107485046D01*
X108958035Y-107485044D01*
X109246954Y-107353376D01*
X109246958Y-107353374D01*
X109250462Y-107351777D01*
X109260658Y-107345529D01*
X109524473Y-107183863D01*
X109524476Y-107183861D01*
X109527751Y-107181854D01*
X109530755Y-107179464D01*
X109530760Y-107179461D01*
X109655008Y-107080629D01*
X109782264Y-106979405D01*
X109784958Y-106976664D01*
X109784962Y-106976660D01*
X110007513Y-106750190D01*
X110007517Y-106750185D01*
X110010208Y-106747447D01*
X110208185Y-106489439D01*
X110373242Y-106209227D01*
X110379222Y-106195475D01*
X116645628Y-106195475D01*
X116664038Y-106405896D01*
X116665941Y-106416691D01*
X116720609Y-106620715D01*
X116724355Y-106631007D01*
X116813623Y-106822441D01*
X116819103Y-106831932D01*
X116849794Y-106875765D01*
X116860271Y-106884140D01*
X116873718Y-106877072D01*
X117547978Y-106202812D01*
X117554356Y-106191132D01*
X118284408Y-106191132D01*
X118284539Y-106192965D01*
X118288790Y-106199580D01*
X118967003Y-106877793D01*
X118978777Y-106884223D01*
X118990793Y-106874926D01*
X119020897Y-106831932D01*
X119026377Y-106822441D01*
X119115645Y-106631007D01*
X119119391Y-106620715D01*
X119174059Y-106416691D01*
X119175962Y-106405896D01*
X119194372Y-106195475D01*
X119194372Y-106184525D01*
X119175962Y-105974104D01*
X119174059Y-105963309D01*
X119119391Y-105759285D01*
X119115645Y-105748993D01*
X119026377Y-105557559D01*
X119020897Y-105548068D01*
X118990206Y-105504235D01*
X118979729Y-105495860D01*
X118966282Y-105502928D01*
X118292022Y-106177188D01*
X118284408Y-106191132D01*
X117554356Y-106191132D01*
X117555592Y-106188868D01*
X117555461Y-106187035D01*
X117551210Y-106180420D01*
X116872997Y-105502207D01*
X116861223Y-105495777D01*
X116849207Y-105505074D01*
X116819103Y-105548068D01*
X116813623Y-105557559D01*
X116724355Y-105748993D01*
X116720609Y-105759285D01*
X116665941Y-105963309D01*
X116664038Y-105974104D01*
X116645628Y-106184525D01*
X116645628Y-106195475D01*
X110379222Y-106195475D01*
X110502920Y-105910988D01*
X110528216Y-105825592D01*
X110594191Y-105602861D01*
X110595285Y-105599169D01*
X110648961Y-105278417D01*
X110663146Y-104953515D01*
X110647234Y-104751331D01*
X110637932Y-104633140D01*
X110637932Y-104633137D01*
X110637630Y-104629305D01*
X110572794Y-104310622D01*
X110469602Y-104002216D01*
X110329595Y-103708684D01*
X110292209Y-103650000D01*
X116644647Y-103650000D01*
X116664022Y-103871463D01*
X116721560Y-104086196D01*
X116723882Y-104091177D01*
X116723883Y-104091178D01*
X116813186Y-104282689D01*
X116813189Y-104282694D01*
X116815512Y-104287676D01*
X116818668Y-104292183D01*
X116818669Y-104292185D01*
X116897402Y-104404627D01*
X116943023Y-104469781D01*
X117100219Y-104626977D01*
X117104727Y-104630134D01*
X117104730Y-104630136D01*
X117180495Y-104683187D01*
X117282323Y-104754488D01*
X117287305Y-104756811D01*
X117287310Y-104756814D01*
X117392965Y-104806081D01*
X117446250Y-104852998D01*
X117465711Y-104921275D01*
X117445169Y-104989235D01*
X117392965Y-105034471D01*
X117287559Y-105083623D01*
X117278068Y-105089103D01*
X117234235Y-105119794D01*
X117225860Y-105130271D01*
X117232928Y-105143718D01*
X117907188Y-105817978D01*
X117921132Y-105825592D01*
X117922965Y-105825461D01*
X117929580Y-105821210D01*
X118607793Y-105142997D01*
X118614223Y-105131223D01*
X118604926Y-105119207D01*
X118561931Y-105089102D01*
X118552445Y-105083624D01*
X118472799Y-105046485D01*
X194836854Y-105046485D01*
X194849612Y-105208590D01*
X194855108Y-105278417D01*
X194862370Y-105370695D01*
X194927206Y-105689378D01*
X195030398Y-105997784D01*
X195170405Y-106291316D01*
X195345141Y-106565597D01*
X195347584Y-106568560D01*
X195347585Y-106568562D01*
X195497308Y-106750190D01*
X195552001Y-106816538D01*
X195787902Y-107040399D01*
X196049326Y-107233843D01*
X196159853Y-107296376D01*
X196329019Y-107392086D01*
X196329023Y-107392088D01*
X196332376Y-107393985D01*
X196632832Y-107518438D01*
X196736288Y-107547129D01*
X196942500Y-107604317D01*
X196942508Y-107604319D01*
X196946216Y-107605347D01*
X197267856Y-107653416D01*
X197271154Y-107653560D01*
X197382918Y-107658440D01*
X197382922Y-107658440D01*
X197384294Y-107658500D01*
X197582598Y-107658500D01*
X197824605Y-107643698D01*
X197828388Y-107642997D01*
X197828395Y-107642996D01*
X198028459Y-107605916D01*
X198144372Y-107584433D01*
X198353682Y-107518438D01*
X198450860Y-107487798D01*
X198450863Y-107487797D01*
X198454532Y-107486640D01*
X198458029Y-107485046D01*
X198458035Y-107485044D01*
X198746954Y-107353376D01*
X198746958Y-107353374D01*
X198750462Y-107351777D01*
X198760658Y-107345529D01*
X199024473Y-107183863D01*
X199024476Y-107183861D01*
X199027751Y-107181854D01*
X199030755Y-107179464D01*
X199030760Y-107179461D01*
X199155008Y-107080629D01*
X199282264Y-106979405D01*
X199284958Y-106976664D01*
X199284962Y-106976660D01*
X199507513Y-106750190D01*
X199507517Y-106750185D01*
X199510208Y-106747447D01*
X199708185Y-106489439D01*
X199873242Y-106209227D01*
X200002920Y-105910988D01*
X200028216Y-105825592D01*
X200094191Y-105602861D01*
X200095285Y-105599169D01*
X200148961Y-105278417D01*
X200163146Y-104953515D01*
X200147234Y-104751331D01*
X200137932Y-104633140D01*
X200137932Y-104633137D01*
X200137630Y-104629305D01*
X200072794Y-104310622D01*
X199969602Y-104002216D01*
X199829595Y-103708684D01*
X199654859Y-103434403D01*
X199652415Y-103431438D01*
X199450442Y-103186425D01*
X199450438Y-103186420D01*
X199447999Y-103183462D01*
X199212098Y-102959601D01*
X198950674Y-102766157D01*
X198780477Y-102669864D01*
X198670981Y-102607914D01*
X198670977Y-102607912D01*
X198667624Y-102606015D01*
X198367168Y-102481562D01*
X198253853Y-102450137D01*
X198057500Y-102395683D01*
X198057492Y-102395681D01*
X198053784Y-102394653D01*
X197732144Y-102346584D01*
X197728846Y-102346440D01*
X197617082Y-102341560D01*
X197617078Y-102341560D01*
X197615706Y-102341500D01*
X197417402Y-102341500D01*
X197175395Y-102356302D01*
X197171612Y-102357003D01*
X197171605Y-102357004D01*
X197015511Y-102385935D01*
X196855628Y-102415567D01*
X196745986Y-102450137D01*
X196549140Y-102512202D01*
X196549137Y-102512203D01*
X196545468Y-102513360D01*
X196541971Y-102514954D01*
X196541965Y-102514956D01*
X196253046Y-102646624D01*
X196253042Y-102646626D01*
X196249538Y-102648223D01*
X196246259Y-102650233D01*
X196246256Y-102650234D01*
X196202709Y-102676920D01*
X195972249Y-102818146D01*
X195969245Y-102820536D01*
X195969240Y-102820539D01*
X195907527Y-102869628D01*
X195717736Y-103020595D01*
X195715042Y-103023336D01*
X195715038Y-103023340D01*
X195492487Y-103249810D01*
X195492483Y-103249815D01*
X195489792Y-103252553D01*
X195291815Y-103510561D01*
X195126758Y-103790773D01*
X194997080Y-104089012D01*
X194904715Y-104400831D01*
X194851039Y-104721583D01*
X194836854Y-105046485D01*
X118472799Y-105046485D01*
X118447035Y-105034471D01*
X118393750Y-104987554D01*
X118374289Y-104919277D01*
X118394831Y-104851317D01*
X118447035Y-104806081D01*
X118552690Y-104756814D01*
X118552695Y-104756811D01*
X118557677Y-104754488D01*
X118659505Y-104683187D01*
X118735270Y-104630136D01*
X118735273Y-104630134D01*
X118739781Y-104626977D01*
X118896977Y-104469781D01*
X118942599Y-104404627D01*
X119021331Y-104292185D01*
X119021332Y-104292183D01*
X119024488Y-104287676D01*
X119026811Y-104282694D01*
X119026814Y-104282689D01*
X119116117Y-104091178D01*
X119116118Y-104091177D01*
X119118440Y-104086196D01*
X119175978Y-103871463D01*
X119195353Y-103650000D01*
X119175978Y-103428537D01*
X119118440Y-103213804D01*
X119110938Y-103197715D01*
X119026814Y-103017311D01*
X119026811Y-103017306D01*
X119024488Y-103012324D01*
X118981526Y-102950968D01*
X118900136Y-102834730D01*
X118900134Y-102834727D01*
X118896977Y-102830219D01*
X118739781Y-102673023D01*
X118735273Y-102669866D01*
X118735270Y-102669864D01*
X118641976Y-102604539D01*
X118557677Y-102545512D01*
X118552695Y-102543189D01*
X118552690Y-102543186D01*
X118361178Y-102453883D01*
X118361177Y-102453882D01*
X118356196Y-102451560D01*
X118350888Y-102450138D01*
X118350886Y-102450137D01*
X118285051Y-102432497D01*
X118141463Y-102394022D01*
X117920000Y-102374647D01*
X117698537Y-102394022D01*
X117554949Y-102432497D01*
X117489114Y-102450137D01*
X117489112Y-102450138D01*
X117483804Y-102451560D01*
X117478823Y-102453882D01*
X117478822Y-102453883D01*
X117287311Y-102543186D01*
X117287306Y-102543189D01*
X117282324Y-102545512D01*
X117277817Y-102548668D01*
X117277815Y-102548669D01*
X117104730Y-102669864D01*
X117104727Y-102669866D01*
X117100219Y-102673023D01*
X116943023Y-102830219D01*
X116939866Y-102834727D01*
X116939864Y-102834730D01*
X116858474Y-102950968D01*
X116815512Y-103012324D01*
X116813189Y-103017306D01*
X116813186Y-103017311D01*
X116729062Y-103197715D01*
X116721560Y-103213804D01*
X116664022Y-103428537D01*
X116644647Y-103650000D01*
X110292209Y-103650000D01*
X110154859Y-103434403D01*
X110152415Y-103431438D01*
X109950442Y-103186425D01*
X109950438Y-103186420D01*
X109947999Y-103183462D01*
X109712098Y-102959601D01*
X109450674Y-102766157D01*
X109280477Y-102669864D01*
X109170981Y-102607914D01*
X109170977Y-102607912D01*
X109167624Y-102606015D01*
X108867168Y-102481562D01*
X108753853Y-102450137D01*
X108557500Y-102395683D01*
X108557492Y-102395681D01*
X108553784Y-102394653D01*
X108232144Y-102346584D01*
X108228846Y-102346440D01*
X108117082Y-102341560D01*
X108117078Y-102341560D01*
X108115706Y-102341500D01*
X107917402Y-102341500D01*
X107675395Y-102356302D01*
X107671612Y-102357003D01*
X107671605Y-102357004D01*
X107515511Y-102385935D01*
X107355628Y-102415567D01*
X107245986Y-102450137D01*
X107049140Y-102512202D01*
X107049137Y-102512203D01*
X107045468Y-102513360D01*
X107041971Y-102514954D01*
X107041965Y-102514956D01*
X106753046Y-102646624D01*
X106753042Y-102646626D01*
X106749538Y-102648223D01*
X106746259Y-102650233D01*
X106746256Y-102650234D01*
X106702709Y-102676920D01*
X106472249Y-102818146D01*
X106469245Y-102820536D01*
X106469240Y-102820539D01*
X106407527Y-102869628D01*
X106217736Y-103020595D01*
X106215042Y-103023336D01*
X106215038Y-103023340D01*
X105992487Y-103249810D01*
X105992483Y-103249815D01*
X105989792Y-103252553D01*
X105791815Y-103510561D01*
X105626758Y-103790773D01*
X105497080Y-104089012D01*
X105404715Y-104400831D01*
X105351039Y-104721583D01*
X105336854Y-105046485D01*
X103008000Y-105046485D01*
X103008000Y-102300000D01*
X132016578Y-102300000D01*
X132036228Y-102524600D01*
X132037652Y-102529913D01*
X132037652Y-102529915D01*
X132075730Y-102672022D01*
X132094581Y-102742376D01*
X132096903Y-102747357D01*
X132096904Y-102747358D01*
X132187420Y-102941469D01*
X132189864Y-102946711D01*
X132319181Y-103131396D01*
X132478604Y-103290819D01*
X132663289Y-103420136D01*
X132668267Y-103422457D01*
X132668270Y-103422459D01*
X132724420Y-103448642D01*
X132867624Y-103515419D01*
X132872932Y-103516841D01*
X132872934Y-103516842D01*
X133080085Y-103572348D01*
X133080087Y-103572348D01*
X133085400Y-103573772D01*
X133310000Y-103593422D01*
X133534600Y-103573772D01*
X133539913Y-103572348D01*
X133539915Y-103572348D01*
X133747066Y-103516842D01*
X133747068Y-103516841D01*
X133752376Y-103515419D01*
X133895580Y-103448642D01*
X133951730Y-103422459D01*
X133951733Y-103422457D01*
X133956711Y-103420136D01*
X134141396Y-103290819D01*
X134300819Y-103131396D01*
X134430136Y-102946711D01*
X134432581Y-102941469D01*
X134465805Y-102870219D01*
X134512723Y-102816934D01*
X134581000Y-102797473D01*
X134648960Y-102818015D01*
X134694195Y-102870219D01*
X134727420Y-102941469D01*
X134729864Y-102946711D01*
X134859181Y-103131396D01*
X135018604Y-103290819D01*
X135203289Y-103420136D01*
X135208267Y-103422457D01*
X135208270Y-103422459D01*
X135264420Y-103448642D01*
X135407624Y-103515419D01*
X135412932Y-103516841D01*
X135412934Y-103516842D01*
X135620085Y-103572348D01*
X135620087Y-103572348D01*
X135625400Y-103573772D01*
X135850000Y-103593422D01*
X136074600Y-103573772D01*
X136079913Y-103572348D01*
X136079915Y-103572348D01*
X136287066Y-103516842D01*
X136287068Y-103516841D01*
X136292376Y-103515419D01*
X136435580Y-103448642D01*
X136491730Y-103422459D01*
X136491733Y-103422457D01*
X136496711Y-103420136D01*
X136681396Y-103290819D01*
X136840819Y-103131396D01*
X136970136Y-102946711D01*
X136972581Y-102941469D01*
X137005805Y-102870219D01*
X137052723Y-102816934D01*
X137121000Y-102797473D01*
X137188960Y-102818015D01*
X137234195Y-102870219D01*
X137267420Y-102941469D01*
X137269864Y-102946711D01*
X137399181Y-103131396D01*
X137558604Y-103290819D01*
X137743289Y-103420136D01*
X137748267Y-103422457D01*
X137748270Y-103422459D01*
X137804420Y-103448642D01*
X137947624Y-103515419D01*
X137952932Y-103516841D01*
X137952934Y-103516842D01*
X138160085Y-103572348D01*
X138160087Y-103572348D01*
X138165400Y-103573772D01*
X138390000Y-103593422D01*
X138614600Y-103573772D01*
X138619913Y-103572348D01*
X138619915Y-103572348D01*
X138827066Y-103516842D01*
X138827068Y-103516841D01*
X138832376Y-103515419D01*
X138975580Y-103448642D01*
X139031730Y-103422459D01*
X139031733Y-103422457D01*
X139036711Y-103420136D01*
X139221396Y-103290819D01*
X139380819Y-103131396D01*
X139510136Y-102946711D01*
X139512581Y-102941469D01*
X139545805Y-102870219D01*
X139592723Y-102816934D01*
X139661000Y-102797473D01*
X139728960Y-102818015D01*
X139774195Y-102870219D01*
X139807420Y-102941469D01*
X139809864Y-102946711D01*
X139939181Y-103131396D01*
X140098604Y-103290819D01*
X140283289Y-103420136D01*
X140288267Y-103422457D01*
X140288270Y-103422459D01*
X140344420Y-103448642D01*
X140487624Y-103515419D01*
X140492932Y-103516841D01*
X140492934Y-103516842D01*
X140700085Y-103572348D01*
X140700087Y-103572348D01*
X140705400Y-103573772D01*
X140930000Y-103593422D01*
X141154600Y-103573772D01*
X141159913Y-103572348D01*
X141159915Y-103572348D01*
X141367066Y-103516842D01*
X141367068Y-103516841D01*
X141372376Y-103515419D01*
X141515580Y-103448642D01*
X141571730Y-103422459D01*
X141571733Y-103422457D01*
X141576711Y-103420136D01*
X141761396Y-103290819D01*
X141920819Y-103131396D01*
X142050136Y-102946711D01*
X142052581Y-102941469D01*
X142085805Y-102870219D01*
X142132723Y-102816934D01*
X142201000Y-102797473D01*
X142268960Y-102818015D01*
X142314195Y-102870219D01*
X142347420Y-102941469D01*
X142349864Y-102946711D01*
X142479181Y-103131396D01*
X142638604Y-103290819D01*
X142823289Y-103420136D01*
X142828267Y-103422457D01*
X142828270Y-103422459D01*
X142884420Y-103448642D01*
X143027624Y-103515419D01*
X143032932Y-103516841D01*
X143032934Y-103516842D01*
X143240085Y-103572348D01*
X143240087Y-103572348D01*
X143245400Y-103573772D01*
X143470000Y-103593422D01*
X143694600Y-103573772D01*
X143699913Y-103572348D01*
X143699915Y-103572348D01*
X143907066Y-103516842D01*
X143907068Y-103516841D01*
X143912376Y-103515419D01*
X144055580Y-103448642D01*
X144111730Y-103422459D01*
X144111733Y-103422457D01*
X144116711Y-103420136D01*
X144185882Y-103371702D01*
X145302853Y-103371702D01*
X145312149Y-103383717D01*
X145359032Y-103416545D01*
X145368527Y-103422028D01*
X145562810Y-103512622D01*
X145573106Y-103516370D01*
X145780177Y-103571855D01*
X145790964Y-103573757D01*
X146004525Y-103592441D01*
X146015475Y-103592441D01*
X146229036Y-103573757D01*
X146239823Y-103571855D01*
X146446894Y-103516370D01*
X146457190Y-103512622D01*
X146651473Y-103422028D01*
X146660968Y-103416545D01*
X146708689Y-103383130D01*
X146717064Y-103372653D01*
X146709996Y-103359206D01*
X146022812Y-102672022D01*
X146008868Y-102664408D01*
X146007035Y-102664539D01*
X146000420Y-102668790D01*
X145309283Y-103359927D01*
X145302853Y-103371702D01*
X144185882Y-103371702D01*
X144301396Y-103290819D01*
X144460819Y-103131396D01*
X144590136Y-102946711D01*
X144592581Y-102941469D01*
X144626081Y-102869627D01*
X144672998Y-102816342D01*
X144741276Y-102796881D01*
X144809236Y-102817423D01*
X144854471Y-102869628D01*
X144887970Y-102941469D01*
X144893455Y-102950968D01*
X144926870Y-102998689D01*
X144937347Y-103007064D01*
X144950794Y-102999996D01*
X145637978Y-102312812D01*
X145644356Y-102301132D01*
X146374408Y-102301132D01*
X146374539Y-102302965D01*
X146378790Y-102309580D01*
X147069927Y-103000717D01*
X147081702Y-103007147D01*
X147093717Y-102997851D01*
X147126545Y-102950968D01*
X147132030Y-102941469D01*
X147165529Y-102869628D01*
X147212445Y-102816343D01*
X147280722Y-102796881D01*
X147348683Y-102817422D01*
X147393919Y-102869627D01*
X147427420Y-102941469D01*
X147429864Y-102946711D01*
X147559181Y-103131396D01*
X147718604Y-103290819D01*
X147903289Y-103420136D01*
X147908267Y-103422457D01*
X147908270Y-103422459D01*
X147964420Y-103448642D01*
X148107624Y-103515419D01*
X148112932Y-103516841D01*
X148112934Y-103516842D01*
X148320085Y-103572348D01*
X148320087Y-103572348D01*
X148325400Y-103573772D01*
X148550000Y-103593422D01*
X148774600Y-103573772D01*
X148779913Y-103572348D01*
X148779915Y-103572348D01*
X148987066Y-103516842D01*
X148987068Y-103516841D01*
X148992376Y-103515419D01*
X149135580Y-103448642D01*
X149191730Y-103422459D01*
X149191733Y-103422457D01*
X149196711Y-103420136D01*
X149381396Y-103290819D01*
X149540819Y-103131396D01*
X149670136Y-102946711D01*
X149672581Y-102941469D01*
X149705805Y-102870219D01*
X149752723Y-102816934D01*
X149821000Y-102797473D01*
X149888960Y-102818015D01*
X149934195Y-102870219D01*
X149967420Y-102941469D01*
X149969864Y-102946711D01*
X150099181Y-103131396D01*
X150258604Y-103290819D01*
X150443289Y-103420136D01*
X150448267Y-103422457D01*
X150448270Y-103422459D01*
X150504420Y-103448642D01*
X150647624Y-103515419D01*
X150652932Y-103516841D01*
X150652934Y-103516842D01*
X150860085Y-103572348D01*
X150860087Y-103572348D01*
X150865400Y-103573772D01*
X151090000Y-103593422D01*
X151314600Y-103573772D01*
X151319913Y-103572348D01*
X151319915Y-103572348D01*
X151527066Y-103516842D01*
X151527068Y-103516841D01*
X151532376Y-103515419D01*
X151675580Y-103448642D01*
X151731730Y-103422459D01*
X151731733Y-103422457D01*
X151736711Y-103420136D01*
X151921396Y-103290819D01*
X152080819Y-103131396D01*
X152210136Y-102946711D01*
X152212581Y-102941469D01*
X152245805Y-102870219D01*
X152292723Y-102816934D01*
X152361000Y-102797473D01*
X152428960Y-102818015D01*
X152474195Y-102870219D01*
X152507420Y-102941469D01*
X152509864Y-102946711D01*
X152639181Y-103131396D01*
X152798604Y-103290819D01*
X152983289Y-103420136D01*
X152988267Y-103422457D01*
X152988270Y-103422459D01*
X153044420Y-103448642D01*
X153187624Y-103515419D01*
X153192932Y-103516841D01*
X153192934Y-103516842D01*
X153400085Y-103572348D01*
X153400087Y-103572348D01*
X153405400Y-103573772D01*
X153630000Y-103593422D01*
X153854600Y-103573772D01*
X153859913Y-103572348D01*
X153859915Y-103572348D01*
X154067066Y-103516842D01*
X154067068Y-103516841D01*
X154072376Y-103515419D01*
X154215580Y-103448642D01*
X154271730Y-103422459D01*
X154271733Y-103422457D01*
X154276711Y-103420136D01*
X154461396Y-103290819D01*
X154620819Y-103131396D01*
X154750136Y-102946711D01*
X154752581Y-102941469D01*
X154785805Y-102870219D01*
X154832723Y-102816934D01*
X154901000Y-102797473D01*
X154968960Y-102818015D01*
X155014195Y-102870219D01*
X155047420Y-102941469D01*
X155049864Y-102946711D01*
X155179181Y-103131396D01*
X155338604Y-103290819D01*
X155523289Y-103420136D01*
X155528267Y-103422457D01*
X155528270Y-103422459D01*
X155584420Y-103448642D01*
X155727624Y-103515419D01*
X155732932Y-103516841D01*
X155732934Y-103516842D01*
X155940085Y-103572348D01*
X155940087Y-103572348D01*
X155945400Y-103573772D01*
X156170000Y-103593422D01*
X156394600Y-103573772D01*
X156399913Y-103572348D01*
X156399915Y-103572348D01*
X156607066Y-103516842D01*
X156607068Y-103516841D01*
X156612376Y-103515419D01*
X156755580Y-103448642D01*
X156811730Y-103422459D01*
X156811733Y-103422457D01*
X156816711Y-103420136D01*
X157001396Y-103290819D01*
X157160819Y-103131396D01*
X157290136Y-102946711D01*
X157292581Y-102941469D01*
X157325805Y-102870219D01*
X157372723Y-102816934D01*
X157441000Y-102797473D01*
X157508960Y-102818015D01*
X157554195Y-102870219D01*
X157587420Y-102941469D01*
X157589864Y-102946711D01*
X157719181Y-103131396D01*
X157878604Y-103290819D01*
X158063289Y-103420136D01*
X158068267Y-103422457D01*
X158068270Y-103422459D01*
X158124420Y-103448642D01*
X158267624Y-103515419D01*
X158272932Y-103516841D01*
X158272934Y-103516842D01*
X158480085Y-103572348D01*
X158480087Y-103572348D01*
X158485400Y-103573772D01*
X158710000Y-103593422D01*
X158934600Y-103573772D01*
X158939913Y-103572348D01*
X158939915Y-103572348D01*
X159147066Y-103516842D01*
X159147068Y-103516841D01*
X159152376Y-103515419D01*
X159295580Y-103448642D01*
X159351730Y-103422459D01*
X159351733Y-103422457D01*
X159356711Y-103420136D01*
X159541396Y-103290819D01*
X159700819Y-103131396D01*
X159830136Y-102946711D01*
X159832581Y-102941469D01*
X159865805Y-102870219D01*
X159912723Y-102816934D01*
X159981000Y-102797473D01*
X160048960Y-102818015D01*
X160094195Y-102870219D01*
X160127420Y-102941469D01*
X160129864Y-102946711D01*
X160259181Y-103131396D01*
X160418604Y-103290819D01*
X160603289Y-103420136D01*
X160608267Y-103422457D01*
X160608270Y-103422459D01*
X160664420Y-103448642D01*
X160807624Y-103515419D01*
X160812932Y-103516841D01*
X160812934Y-103516842D01*
X161020085Y-103572348D01*
X161020087Y-103572348D01*
X161025400Y-103573772D01*
X161250000Y-103593422D01*
X161474600Y-103573772D01*
X161479913Y-103572348D01*
X161479915Y-103572348D01*
X161687066Y-103516842D01*
X161687068Y-103516841D01*
X161692376Y-103515419D01*
X161835580Y-103448642D01*
X161891730Y-103422459D01*
X161891733Y-103422457D01*
X161896711Y-103420136D01*
X162081396Y-103290819D01*
X162240819Y-103131396D01*
X162370136Y-102946711D01*
X162372581Y-102941469D01*
X162405805Y-102870219D01*
X162452723Y-102816934D01*
X162521000Y-102797473D01*
X162588960Y-102818015D01*
X162634195Y-102870219D01*
X162667420Y-102941469D01*
X162669864Y-102946711D01*
X162799181Y-103131396D01*
X162958604Y-103290819D01*
X163143289Y-103420136D01*
X163148267Y-103422457D01*
X163148270Y-103422459D01*
X163204420Y-103448642D01*
X163347624Y-103515419D01*
X163352932Y-103516841D01*
X163352934Y-103516842D01*
X163560085Y-103572348D01*
X163560087Y-103572348D01*
X163565400Y-103573772D01*
X163790000Y-103593422D01*
X164014600Y-103573772D01*
X164019913Y-103572348D01*
X164019915Y-103572348D01*
X164227066Y-103516842D01*
X164227068Y-103516841D01*
X164232376Y-103515419D01*
X164375580Y-103448642D01*
X164431730Y-103422459D01*
X164431733Y-103422457D01*
X164436711Y-103420136D01*
X164621396Y-103290819D01*
X164780819Y-103131396D01*
X164910136Y-102946711D01*
X164912581Y-102941469D01*
X164945805Y-102870219D01*
X164992723Y-102816934D01*
X165061000Y-102797473D01*
X165128960Y-102818015D01*
X165174195Y-102870219D01*
X165207420Y-102941469D01*
X165209864Y-102946711D01*
X165339181Y-103131396D01*
X165498604Y-103290819D01*
X165683289Y-103420136D01*
X165688267Y-103422457D01*
X165688270Y-103422459D01*
X165744420Y-103448642D01*
X165887624Y-103515419D01*
X165892932Y-103516841D01*
X165892934Y-103516842D01*
X166100085Y-103572348D01*
X166100087Y-103572348D01*
X166105400Y-103573772D01*
X166330000Y-103593422D01*
X166554600Y-103573772D01*
X166559913Y-103572348D01*
X166559915Y-103572348D01*
X166767066Y-103516842D01*
X166767068Y-103516841D01*
X166772376Y-103515419D01*
X166915580Y-103448642D01*
X166971730Y-103422459D01*
X166971733Y-103422457D01*
X166976711Y-103420136D01*
X167161396Y-103290819D01*
X167320819Y-103131396D01*
X167450136Y-102946711D01*
X167452581Y-102941469D01*
X167485805Y-102870219D01*
X167532723Y-102816934D01*
X167601000Y-102797473D01*
X167668960Y-102818015D01*
X167714195Y-102870219D01*
X167747420Y-102941469D01*
X167749864Y-102946711D01*
X167879181Y-103131396D01*
X168038604Y-103290819D01*
X168223289Y-103420136D01*
X168228267Y-103422457D01*
X168228270Y-103422459D01*
X168284420Y-103448642D01*
X168427624Y-103515419D01*
X168432932Y-103516841D01*
X168432934Y-103516842D01*
X168640085Y-103572348D01*
X168640087Y-103572348D01*
X168645400Y-103573772D01*
X168870000Y-103593422D01*
X169094600Y-103573772D01*
X169099913Y-103572348D01*
X169099915Y-103572348D01*
X169307066Y-103516842D01*
X169307068Y-103516841D01*
X169312376Y-103515419D01*
X169455580Y-103448642D01*
X169511730Y-103422459D01*
X169511733Y-103422457D01*
X169516711Y-103420136D01*
X169701396Y-103290819D01*
X169860819Y-103131396D01*
X169990136Y-102946711D01*
X169992581Y-102941469D01*
X170025805Y-102870219D01*
X170072723Y-102816934D01*
X170141000Y-102797473D01*
X170208960Y-102818015D01*
X170254195Y-102870219D01*
X170287420Y-102941469D01*
X170289864Y-102946711D01*
X170419181Y-103131396D01*
X170578604Y-103290819D01*
X170763289Y-103420136D01*
X170768267Y-103422457D01*
X170768270Y-103422459D01*
X170824420Y-103448642D01*
X170967624Y-103515419D01*
X170972932Y-103516841D01*
X170972934Y-103516842D01*
X171180085Y-103572348D01*
X171180087Y-103572348D01*
X171185400Y-103573772D01*
X171410000Y-103593422D01*
X171634600Y-103573772D01*
X171639913Y-103572348D01*
X171639915Y-103572348D01*
X171847066Y-103516842D01*
X171847068Y-103516841D01*
X171852376Y-103515419D01*
X171995580Y-103448642D01*
X172051730Y-103422459D01*
X172051733Y-103422457D01*
X172056711Y-103420136D01*
X172241396Y-103290819D01*
X172400819Y-103131396D01*
X172530136Y-102946711D01*
X172532581Y-102941469D01*
X172565805Y-102870219D01*
X172612723Y-102816934D01*
X172681000Y-102797473D01*
X172748960Y-102818015D01*
X172794195Y-102870219D01*
X172827420Y-102941469D01*
X172829864Y-102946711D01*
X172959181Y-103131396D01*
X173118604Y-103290819D01*
X173303289Y-103420136D01*
X173308267Y-103422457D01*
X173308270Y-103422459D01*
X173364420Y-103448642D01*
X173507624Y-103515419D01*
X173512932Y-103516841D01*
X173512934Y-103516842D01*
X173720085Y-103572348D01*
X173720087Y-103572348D01*
X173725400Y-103573772D01*
X173950000Y-103593422D01*
X174174600Y-103573772D01*
X174179913Y-103572348D01*
X174179915Y-103572348D01*
X174387066Y-103516842D01*
X174387068Y-103516841D01*
X174392376Y-103515419D01*
X174535580Y-103448642D01*
X174591730Y-103422459D01*
X174591733Y-103422457D01*
X174596711Y-103420136D01*
X174781396Y-103290819D01*
X174940819Y-103131396D01*
X175070136Y-102946711D01*
X175072581Y-102941469D01*
X175105805Y-102870219D01*
X175152723Y-102816934D01*
X175221000Y-102797473D01*
X175288960Y-102818015D01*
X175334195Y-102870219D01*
X175367420Y-102941469D01*
X175369864Y-102946711D01*
X175499181Y-103131396D01*
X175658604Y-103290819D01*
X175843289Y-103420136D01*
X175848267Y-103422457D01*
X175848270Y-103422459D01*
X175904420Y-103448642D01*
X176047624Y-103515419D01*
X176052932Y-103516841D01*
X176052934Y-103516842D01*
X176260085Y-103572348D01*
X176260087Y-103572348D01*
X176265400Y-103573772D01*
X176490000Y-103593422D01*
X176714600Y-103573772D01*
X176719913Y-103572348D01*
X176719915Y-103572348D01*
X176927066Y-103516842D01*
X176927068Y-103516841D01*
X176932376Y-103515419D01*
X177075580Y-103448642D01*
X177131730Y-103422459D01*
X177131733Y-103422457D01*
X177136711Y-103420136D01*
X177321396Y-103290819D01*
X177480819Y-103131396D01*
X177514523Y-103083261D01*
X177569979Y-103038934D01*
X177640598Y-103031625D01*
X177703959Y-103063655D01*
X177739944Y-103124857D01*
X177742998Y-103141925D01*
X177748255Y-103190316D01*
X177799385Y-103326705D01*
X177886739Y-103443261D01*
X178003295Y-103530615D01*
X178139684Y-103581745D01*
X178201866Y-103588500D01*
X179858134Y-103588500D01*
X179920316Y-103581745D01*
X180056705Y-103530615D01*
X180173261Y-103443261D01*
X180260615Y-103326705D01*
X180311745Y-103190316D01*
X180318500Y-103128134D01*
X180318500Y-101471866D01*
X180311745Y-101409684D01*
X180260615Y-101273295D01*
X180173261Y-101156739D01*
X180056705Y-101069385D01*
X179920316Y-101018255D01*
X179858134Y-101011500D01*
X178201866Y-101011500D01*
X178139684Y-101018255D01*
X178003295Y-101069385D01*
X177886739Y-101156739D01*
X177799385Y-101273295D01*
X177748255Y-101409684D01*
X177747402Y-101417540D01*
X177742998Y-101458075D01*
X177715756Y-101523637D01*
X177657393Y-101564063D01*
X177586439Y-101566518D01*
X177525421Y-101530223D01*
X177514526Y-101516743D01*
X177480819Y-101468604D01*
X177321396Y-101309181D01*
X177136711Y-101179864D01*
X177131733Y-101177543D01*
X177131730Y-101177541D01*
X176937358Y-101086904D01*
X176937357Y-101086903D01*
X176932376Y-101084581D01*
X176927068Y-101083159D01*
X176927066Y-101083158D01*
X176719915Y-101027652D01*
X176719913Y-101027652D01*
X176714600Y-101026228D01*
X176490000Y-101006578D01*
X176265400Y-101026228D01*
X176260087Y-101027652D01*
X176260085Y-101027652D01*
X176052934Y-101083158D01*
X176052932Y-101083159D01*
X176047624Y-101084581D01*
X176042643Y-101086903D01*
X176042642Y-101086904D01*
X175848270Y-101177541D01*
X175848267Y-101177543D01*
X175843289Y-101179864D01*
X175658604Y-101309181D01*
X175499181Y-101468604D01*
X175369864Y-101653289D01*
X175367543Y-101658267D01*
X175367541Y-101658270D01*
X175334195Y-101729781D01*
X175287277Y-101783066D01*
X175219000Y-101802527D01*
X175151040Y-101781985D01*
X175105805Y-101729781D01*
X175072459Y-101658270D01*
X175072457Y-101658267D01*
X175070136Y-101653289D01*
X174940819Y-101468604D01*
X174781396Y-101309181D01*
X174596711Y-101179864D01*
X174591733Y-101177543D01*
X174591730Y-101177541D01*
X174397358Y-101086904D01*
X174397357Y-101086903D01*
X174392376Y-101084581D01*
X174387068Y-101083159D01*
X174387066Y-101083158D01*
X174179915Y-101027652D01*
X174179913Y-101027652D01*
X174174600Y-101026228D01*
X173950000Y-101006578D01*
X173725400Y-101026228D01*
X173720087Y-101027652D01*
X173720085Y-101027652D01*
X173512934Y-101083158D01*
X173512932Y-101083159D01*
X173507624Y-101084581D01*
X173502643Y-101086903D01*
X173502642Y-101086904D01*
X173308270Y-101177541D01*
X173308267Y-101177543D01*
X173303289Y-101179864D01*
X173118604Y-101309181D01*
X172959181Y-101468604D01*
X172829864Y-101653289D01*
X172827543Y-101658267D01*
X172827541Y-101658270D01*
X172794195Y-101729781D01*
X172747277Y-101783066D01*
X172679000Y-101802527D01*
X172611040Y-101781985D01*
X172565805Y-101729781D01*
X172532459Y-101658270D01*
X172532457Y-101658267D01*
X172530136Y-101653289D01*
X172400819Y-101468604D01*
X172241396Y-101309181D01*
X172056711Y-101179864D01*
X172051733Y-101177543D01*
X172051730Y-101177541D01*
X171857358Y-101086904D01*
X171857357Y-101086903D01*
X171852376Y-101084581D01*
X171847068Y-101083159D01*
X171847066Y-101083158D01*
X171639915Y-101027652D01*
X171639913Y-101027652D01*
X171634600Y-101026228D01*
X171410000Y-101006578D01*
X171185400Y-101026228D01*
X171180087Y-101027652D01*
X171180085Y-101027652D01*
X170972934Y-101083158D01*
X170972932Y-101083159D01*
X170967624Y-101084581D01*
X170962643Y-101086903D01*
X170962642Y-101086904D01*
X170768270Y-101177541D01*
X170768267Y-101177543D01*
X170763289Y-101179864D01*
X170578604Y-101309181D01*
X170419181Y-101468604D01*
X170289864Y-101653289D01*
X170287543Y-101658267D01*
X170287541Y-101658270D01*
X170254195Y-101729781D01*
X170207277Y-101783066D01*
X170139000Y-101802527D01*
X170071040Y-101781985D01*
X170025805Y-101729781D01*
X169992459Y-101658270D01*
X169992457Y-101658267D01*
X169990136Y-101653289D01*
X169860819Y-101468604D01*
X169701396Y-101309181D01*
X169516711Y-101179864D01*
X169511733Y-101177543D01*
X169511730Y-101177541D01*
X169317358Y-101086904D01*
X169317357Y-101086903D01*
X169312376Y-101084581D01*
X169307068Y-101083159D01*
X169307066Y-101083158D01*
X169099915Y-101027652D01*
X169099913Y-101027652D01*
X169094600Y-101026228D01*
X168870000Y-101006578D01*
X168645400Y-101026228D01*
X168640087Y-101027652D01*
X168640085Y-101027652D01*
X168432934Y-101083158D01*
X168432932Y-101083159D01*
X168427624Y-101084581D01*
X168422643Y-101086903D01*
X168422642Y-101086904D01*
X168228270Y-101177541D01*
X168228267Y-101177543D01*
X168223289Y-101179864D01*
X168038604Y-101309181D01*
X167879181Y-101468604D01*
X167749864Y-101653289D01*
X167747543Y-101658267D01*
X167747541Y-101658270D01*
X167714195Y-101729781D01*
X167667277Y-101783066D01*
X167599000Y-101802527D01*
X167531040Y-101781985D01*
X167485805Y-101729781D01*
X167452459Y-101658270D01*
X167452457Y-101658267D01*
X167450136Y-101653289D01*
X167320819Y-101468604D01*
X167161396Y-101309181D01*
X166976711Y-101179864D01*
X166971733Y-101177543D01*
X166971730Y-101177541D01*
X166777358Y-101086904D01*
X166777357Y-101086903D01*
X166772376Y-101084581D01*
X166767068Y-101083159D01*
X166767066Y-101083158D01*
X166559915Y-101027652D01*
X166559913Y-101027652D01*
X166554600Y-101026228D01*
X166330000Y-101006578D01*
X166105400Y-101026228D01*
X166100087Y-101027652D01*
X166100085Y-101027652D01*
X165892934Y-101083158D01*
X165892932Y-101083159D01*
X165887624Y-101084581D01*
X165882643Y-101086903D01*
X165882642Y-101086904D01*
X165688270Y-101177541D01*
X165688267Y-101177543D01*
X165683289Y-101179864D01*
X165498604Y-101309181D01*
X165339181Y-101468604D01*
X165209864Y-101653289D01*
X165207543Y-101658267D01*
X165207541Y-101658270D01*
X165174195Y-101729781D01*
X165127277Y-101783066D01*
X165059000Y-101802527D01*
X164991040Y-101781985D01*
X164945805Y-101729781D01*
X164912459Y-101658270D01*
X164912457Y-101658267D01*
X164910136Y-101653289D01*
X164780819Y-101468604D01*
X164621396Y-101309181D01*
X164436711Y-101179864D01*
X164431733Y-101177543D01*
X164431730Y-101177541D01*
X164237358Y-101086904D01*
X164237357Y-101086903D01*
X164232376Y-101084581D01*
X164227068Y-101083159D01*
X164227066Y-101083158D01*
X164019915Y-101027652D01*
X164019913Y-101027652D01*
X164014600Y-101026228D01*
X163790000Y-101006578D01*
X163565400Y-101026228D01*
X163560087Y-101027652D01*
X163560085Y-101027652D01*
X163352934Y-101083158D01*
X163352932Y-101083159D01*
X163347624Y-101084581D01*
X163342643Y-101086903D01*
X163342642Y-101086904D01*
X163148270Y-101177541D01*
X163148267Y-101177543D01*
X163143289Y-101179864D01*
X162958604Y-101309181D01*
X162799181Y-101468604D01*
X162669864Y-101653289D01*
X162667543Y-101658267D01*
X162667541Y-101658270D01*
X162634195Y-101729781D01*
X162587277Y-101783066D01*
X162519000Y-101802527D01*
X162451040Y-101781985D01*
X162405805Y-101729781D01*
X162372459Y-101658270D01*
X162372457Y-101658267D01*
X162370136Y-101653289D01*
X162240819Y-101468604D01*
X162081396Y-101309181D01*
X161896711Y-101179864D01*
X161891733Y-101177543D01*
X161891730Y-101177541D01*
X161697358Y-101086904D01*
X161697357Y-101086903D01*
X161692376Y-101084581D01*
X161687068Y-101083159D01*
X161687066Y-101083158D01*
X161479915Y-101027652D01*
X161479913Y-101027652D01*
X161474600Y-101026228D01*
X161250000Y-101006578D01*
X161025400Y-101026228D01*
X161020087Y-101027652D01*
X161020085Y-101027652D01*
X160812934Y-101083158D01*
X160812932Y-101083159D01*
X160807624Y-101084581D01*
X160802643Y-101086903D01*
X160802642Y-101086904D01*
X160608270Y-101177541D01*
X160608267Y-101177543D01*
X160603289Y-101179864D01*
X160418604Y-101309181D01*
X160259181Y-101468604D01*
X160129864Y-101653289D01*
X160127543Y-101658267D01*
X160127541Y-101658270D01*
X160094195Y-101729781D01*
X160047277Y-101783066D01*
X159979000Y-101802527D01*
X159911040Y-101781985D01*
X159865805Y-101729781D01*
X159832459Y-101658270D01*
X159832457Y-101658267D01*
X159830136Y-101653289D01*
X159700819Y-101468604D01*
X159541396Y-101309181D01*
X159356711Y-101179864D01*
X159351733Y-101177543D01*
X159351730Y-101177541D01*
X159157358Y-101086904D01*
X159157357Y-101086903D01*
X159152376Y-101084581D01*
X159147068Y-101083159D01*
X159147066Y-101083158D01*
X158939915Y-101027652D01*
X158939913Y-101027652D01*
X158934600Y-101026228D01*
X158710000Y-101006578D01*
X158485400Y-101026228D01*
X158480087Y-101027652D01*
X158480085Y-101027652D01*
X158272934Y-101083158D01*
X158272932Y-101083159D01*
X158267624Y-101084581D01*
X158262643Y-101086903D01*
X158262642Y-101086904D01*
X158068270Y-101177541D01*
X158068267Y-101177543D01*
X158063289Y-101179864D01*
X157878604Y-101309181D01*
X157719181Y-101468604D01*
X157589864Y-101653289D01*
X157587543Y-101658267D01*
X157587541Y-101658270D01*
X157554195Y-101729781D01*
X157507277Y-101783066D01*
X157439000Y-101802527D01*
X157371040Y-101781985D01*
X157325805Y-101729781D01*
X157292459Y-101658270D01*
X157292457Y-101658267D01*
X157290136Y-101653289D01*
X157160819Y-101468604D01*
X157001396Y-101309181D01*
X156816711Y-101179864D01*
X156811733Y-101177543D01*
X156811730Y-101177541D01*
X156617358Y-101086904D01*
X156617357Y-101086903D01*
X156612376Y-101084581D01*
X156607068Y-101083159D01*
X156607066Y-101083158D01*
X156399915Y-101027652D01*
X156399913Y-101027652D01*
X156394600Y-101026228D01*
X156170000Y-101006578D01*
X155945400Y-101026228D01*
X155940087Y-101027652D01*
X155940085Y-101027652D01*
X155732934Y-101083158D01*
X155732932Y-101083159D01*
X155727624Y-101084581D01*
X155722643Y-101086903D01*
X155722642Y-101086904D01*
X155528270Y-101177541D01*
X155528267Y-101177543D01*
X155523289Y-101179864D01*
X155338604Y-101309181D01*
X155179181Y-101468604D01*
X155049864Y-101653289D01*
X155047543Y-101658267D01*
X155047541Y-101658270D01*
X155014195Y-101729781D01*
X154967277Y-101783066D01*
X154899000Y-101802527D01*
X154831040Y-101781985D01*
X154785805Y-101729781D01*
X154752459Y-101658270D01*
X154752457Y-101658267D01*
X154750136Y-101653289D01*
X154620819Y-101468604D01*
X154461396Y-101309181D01*
X154276711Y-101179864D01*
X154271733Y-101177543D01*
X154271730Y-101177541D01*
X154077358Y-101086904D01*
X154077357Y-101086903D01*
X154072376Y-101084581D01*
X154067068Y-101083159D01*
X154067066Y-101083158D01*
X153859915Y-101027652D01*
X153859913Y-101027652D01*
X153854600Y-101026228D01*
X153630000Y-101006578D01*
X153405400Y-101026228D01*
X153400087Y-101027652D01*
X153400085Y-101027652D01*
X153192934Y-101083158D01*
X153192932Y-101083159D01*
X153187624Y-101084581D01*
X153182643Y-101086903D01*
X153182642Y-101086904D01*
X152988270Y-101177541D01*
X152988267Y-101177543D01*
X152983289Y-101179864D01*
X152798604Y-101309181D01*
X152639181Y-101468604D01*
X152509864Y-101653289D01*
X152507543Y-101658267D01*
X152507541Y-101658270D01*
X152474195Y-101729781D01*
X152427277Y-101783066D01*
X152359000Y-101802527D01*
X152291040Y-101781985D01*
X152245805Y-101729781D01*
X152212459Y-101658270D01*
X152212457Y-101658267D01*
X152210136Y-101653289D01*
X152080819Y-101468604D01*
X151921396Y-101309181D01*
X151736711Y-101179864D01*
X151731733Y-101177543D01*
X151731730Y-101177541D01*
X151537358Y-101086904D01*
X151537357Y-101086903D01*
X151532376Y-101084581D01*
X151527068Y-101083159D01*
X151527066Y-101083158D01*
X151319915Y-101027652D01*
X151319913Y-101027652D01*
X151314600Y-101026228D01*
X151090000Y-101006578D01*
X150865400Y-101026228D01*
X150860087Y-101027652D01*
X150860085Y-101027652D01*
X150652934Y-101083158D01*
X150652932Y-101083159D01*
X150647624Y-101084581D01*
X150642643Y-101086903D01*
X150642642Y-101086904D01*
X150448270Y-101177541D01*
X150448267Y-101177543D01*
X150443289Y-101179864D01*
X150258604Y-101309181D01*
X150099181Y-101468604D01*
X149969864Y-101653289D01*
X149967543Y-101658267D01*
X149967541Y-101658270D01*
X149934195Y-101729781D01*
X149887277Y-101783066D01*
X149819000Y-101802527D01*
X149751040Y-101781985D01*
X149705805Y-101729781D01*
X149672459Y-101658270D01*
X149672457Y-101658267D01*
X149670136Y-101653289D01*
X149540819Y-101468604D01*
X149381396Y-101309181D01*
X149196711Y-101179864D01*
X149191733Y-101177543D01*
X149191730Y-101177541D01*
X148997358Y-101086904D01*
X148997357Y-101086903D01*
X148992376Y-101084581D01*
X148987068Y-101083159D01*
X148987066Y-101083158D01*
X148779915Y-101027652D01*
X148779913Y-101027652D01*
X148774600Y-101026228D01*
X148550000Y-101006578D01*
X148325400Y-101026228D01*
X148320087Y-101027652D01*
X148320085Y-101027652D01*
X148112934Y-101083158D01*
X148112932Y-101083159D01*
X148107624Y-101084581D01*
X148102643Y-101086903D01*
X148102642Y-101086904D01*
X147908270Y-101177541D01*
X147908267Y-101177543D01*
X147903289Y-101179864D01*
X147718604Y-101309181D01*
X147559181Y-101468604D01*
X147429864Y-101653289D01*
X147427543Y-101658267D01*
X147427541Y-101658270D01*
X147393919Y-101730373D01*
X147347002Y-101783658D01*
X147278724Y-101803119D01*
X147210764Y-101782577D01*
X147165529Y-101730372D01*
X147132030Y-101658531D01*
X147126545Y-101649032D01*
X147093130Y-101601311D01*
X147082653Y-101592936D01*
X147069206Y-101600004D01*
X146382022Y-102287188D01*
X146374408Y-102301132D01*
X145644356Y-102301132D01*
X145645592Y-102298868D01*
X145645461Y-102297035D01*
X145641210Y-102290420D01*
X144950073Y-101599283D01*
X144938298Y-101592853D01*
X144926283Y-101602149D01*
X144893455Y-101649032D01*
X144887970Y-101658531D01*
X144854471Y-101730372D01*
X144807555Y-101783657D01*
X144739278Y-101803119D01*
X144671317Y-101782578D01*
X144626081Y-101730373D01*
X144592459Y-101658270D01*
X144592457Y-101658267D01*
X144590136Y-101653289D01*
X144460819Y-101468604D01*
X144301396Y-101309181D01*
X144184524Y-101227347D01*
X145302936Y-101227347D01*
X145310004Y-101240794D01*
X145997188Y-101927978D01*
X146011132Y-101935592D01*
X146012965Y-101935461D01*
X146019580Y-101931210D01*
X146710717Y-101240073D01*
X146717147Y-101228298D01*
X146707851Y-101216283D01*
X146660968Y-101183455D01*
X146651473Y-101177972D01*
X146457190Y-101087378D01*
X146446894Y-101083630D01*
X146239823Y-101028145D01*
X146229036Y-101026243D01*
X146015475Y-101007559D01*
X146004525Y-101007559D01*
X145790964Y-101026243D01*
X145780177Y-101028145D01*
X145573106Y-101083630D01*
X145562810Y-101087378D01*
X145368527Y-101177972D01*
X145359032Y-101183455D01*
X145311311Y-101216870D01*
X145302936Y-101227347D01*
X144184524Y-101227347D01*
X144116711Y-101179864D01*
X144111733Y-101177543D01*
X144111730Y-101177541D01*
X143917358Y-101086904D01*
X143917357Y-101086903D01*
X143912376Y-101084581D01*
X143907068Y-101083159D01*
X143907066Y-101083158D01*
X143699915Y-101027652D01*
X143699913Y-101027652D01*
X143694600Y-101026228D01*
X143470000Y-101006578D01*
X143245400Y-101026228D01*
X143240087Y-101027652D01*
X143240085Y-101027652D01*
X143032934Y-101083158D01*
X143032932Y-101083159D01*
X143027624Y-101084581D01*
X143022643Y-101086903D01*
X143022642Y-101086904D01*
X142828270Y-101177541D01*
X142828267Y-101177543D01*
X142823289Y-101179864D01*
X142638604Y-101309181D01*
X142479181Y-101468604D01*
X142349864Y-101653289D01*
X142347543Y-101658267D01*
X142347541Y-101658270D01*
X142314195Y-101729781D01*
X142267277Y-101783066D01*
X142199000Y-101802527D01*
X142131040Y-101781985D01*
X142085805Y-101729781D01*
X142052459Y-101658270D01*
X142052457Y-101658267D01*
X142050136Y-101653289D01*
X141920819Y-101468604D01*
X141761396Y-101309181D01*
X141576711Y-101179864D01*
X141571733Y-101177543D01*
X141571730Y-101177541D01*
X141377358Y-101086904D01*
X141377357Y-101086903D01*
X141372376Y-101084581D01*
X141367068Y-101083159D01*
X141367066Y-101083158D01*
X141159915Y-101027652D01*
X141159913Y-101027652D01*
X141154600Y-101026228D01*
X140930000Y-101006578D01*
X140705400Y-101026228D01*
X140700087Y-101027652D01*
X140700085Y-101027652D01*
X140492934Y-101083158D01*
X140492932Y-101083159D01*
X140487624Y-101084581D01*
X140482643Y-101086903D01*
X140482642Y-101086904D01*
X140288270Y-101177541D01*
X140288267Y-101177543D01*
X140283289Y-101179864D01*
X140098604Y-101309181D01*
X139939181Y-101468604D01*
X139809864Y-101653289D01*
X139807543Y-101658267D01*
X139807541Y-101658270D01*
X139774195Y-101729781D01*
X139727277Y-101783066D01*
X139659000Y-101802527D01*
X139591040Y-101781985D01*
X139545805Y-101729781D01*
X139512459Y-101658270D01*
X139512457Y-101658267D01*
X139510136Y-101653289D01*
X139380819Y-101468604D01*
X139221396Y-101309181D01*
X139036711Y-101179864D01*
X139031733Y-101177543D01*
X139031730Y-101177541D01*
X138837358Y-101086904D01*
X138837357Y-101086903D01*
X138832376Y-101084581D01*
X138827068Y-101083159D01*
X138827066Y-101083158D01*
X138619915Y-101027652D01*
X138619913Y-101027652D01*
X138614600Y-101026228D01*
X138390000Y-101006578D01*
X138165400Y-101026228D01*
X138160087Y-101027652D01*
X138160085Y-101027652D01*
X137952934Y-101083158D01*
X137952932Y-101083159D01*
X137947624Y-101084581D01*
X137942643Y-101086903D01*
X137942642Y-101086904D01*
X137748270Y-101177541D01*
X137748267Y-101177543D01*
X137743289Y-101179864D01*
X137558604Y-101309181D01*
X137399181Y-101468604D01*
X137269864Y-101653289D01*
X137267543Y-101658267D01*
X137267541Y-101658270D01*
X137234195Y-101729781D01*
X137187277Y-101783066D01*
X137119000Y-101802527D01*
X137051040Y-101781985D01*
X137005805Y-101729781D01*
X136972459Y-101658270D01*
X136972457Y-101658267D01*
X136970136Y-101653289D01*
X136840819Y-101468604D01*
X136681396Y-101309181D01*
X136496711Y-101179864D01*
X136491733Y-101177543D01*
X136491730Y-101177541D01*
X136297358Y-101086904D01*
X136297357Y-101086903D01*
X136292376Y-101084581D01*
X136287068Y-101083159D01*
X136287066Y-101083158D01*
X136079915Y-101027652D01*
X136079913Y-101027652D01*
X136074600Y-101026228D01*
X135850000Y-101006578D01*
X135625400Y-101026228D01*
X135620087Y-101027652D01*
X135620085Y-101027652D01*
X135412934Y-101083158D01*
X135412932Y-101083159D01*
X135407624Y-101084581D01*
X135402643Y-101086903D01*
X135402642Y-101086904D01*
X135208270Y-101177541D01*
X135208267Y-101177543D01*
X135203289Y-101179864D01*
X135018604Y-101309181D01*
X134859181Y-101468604D01*
X134729864Y-101653289D01*
X134727543Y-101658267D01*
X134727541Y-101658270D01*
X134694195Y-101729781D01*
X134647277Y-101783066D01*
X134579000Y-101802527D01*
X134511040Y-101781985D01*
X134465805Y-101729781D01*
X134432459Y-101658270D01*
X134432457Y-101658267D01*
X134430136Y-101653289D01*
X134300819Y-101468604D01*
X134141396Y-101309181D01*
X133956711Y-101179864D01*
X133951733Y-101177543D01*
X133951730Y-101177541D01*
X133757358Y-101086904D01*
X133757357Y-101086903D01*
X133752376Y-101084581D01*
X133747068Y-101083159D01*
X133747066Y-101083158D01*
X133539915Y-101027652D01*
X133539913Y-101027652D01*
X133534600Y-101026228D01*
X133310000Y-101006578D01*
X133085400Y-101026228D01*
X133080087Y-101027652D01*
X133080085Y-101027652D01*
X132872934Y-101083158D01*
X132872932Y-101083159D01*
X132867624Y-101084581D01*
X132862643Y-101086903D01*
X132862642Y-101086904D01*
X132668270Y-101177541D01*
X132668267Y-101177543D01*
X132663289Y-101179864D01*
X132478604Y-101309181D01*
X132319181Y-101468604D01*
X132189864Y-101653289D01*
X132187543Y-101658267D01*
X132187541Y-101658270D01*
X132129348Y-101783066D01*
X132094581Y-101857624D01*
X132093159Y-101862932D01*
X132093158Y-101862934D01*
X132058500Y-101992280D01*
X132036228Y-102075400D01*
X132016578Y-102300000D01*
X103008000Y-102300000D01*
X103008000Y-100634000D01*
X103028002Y-100565879D01*
X103081658Y-100519386D01*
X103134000Y-100508000D01*
X201866000Y-100508000D01*
X201934121Y-100528002D01*
G37*
%TD.AperFunction*%
%TD*%
M02*
