%TF.GenerationSoftware,KiCad,Pcbnew,8.0.3-8.0.3-0~ubuntu22.04.1*%
%TF.CreationDate,2024-06-05T11:38:55+02:00*%
%TF.ProjectId,Drawer_Controller_v4,44726177-6572-45f4-936f-6e74726f6c6c,rev?*%
%TF.SameCoordinates,Original*%
%TF.FileFunction,Soldermask,Bot*%
%TF.FilePolarity,Negative*%
%FSLAX46Y46*%
G04 Gerber Fmt 4.6, Leading zero omitted, Abs format (unit mm)*
G04 Created by KiCad (PCBNEW 8.0.3-8.0.3-0~ubuntu22.04.1) date 2024-06-05 11:38:55*
%MOMM*%
%LPD*%
G01*
G04 APERTURE LIST*
G04 Aperture macros list*
%AMRoundRect*
0 Rectangle with rounded corners*
0 $1 Rounding radius*
0 $2 $3 $4 $5 $6 $7 $8 $9 X,Y pos of 4 corners*
0 Add a 4 corners polygon primitive as box body*
4,1,4,$2,$3,$4,$5,$6,$7,$8,$9,$2,$3,0*
0 Add four circle primitives for the rounded corners*
1,1,$1+$1,$2,$3*
1,1,$1+$1,$4,$5*
1,1,$1+$1,$6,$7*
1,1,$1+$1,$8,$9*
0 Add four rect primitives between the rounded corners*
20,1,$1+$1,$2,$3,$4,$5,0*
20,1,$1+$1,$4,$5,$6,$7,0*
20,1,$1+$1,$6,$7,$8,$9,0*
20,1,$1+$1,$8,$9,$2,$3,0*%
G04 Aperture macros list end*
%ADD10C,2.600000*%
%ADD11C,3.800000*%
%ADD12O,1.704000X0.954000*%
%ADD13O,1.004000X1.784000*%
%ADD14O,2.000000X2.800000*%
%ADD15RoundRect,0.250000X-0.725000X0.600000X-0.725000X-0.600000X0.725000X-0.600000X0.725000X0.600000X0*%
%ADD16O,1.950000X1.700000*%
%ADD17C,3.600000*%
%ADD18C,9.200000*%
%ADD19R,1.700000X1.700000*%
%ADD20O,1.700000X1.700000*%
%ADD21RoundRect,0.250000X0.725000X-0.600000X0.725000X0.600000X-0.725000X0.600000X-0.725000X-0.600000X0*%
%ADD22C,2.000000*%
%ADD23C,3.000000*%
%ADD24RoundRect,0.250001X-0.499999X0.499999X-0.499999X-0.499999X0.499999X-0.499999X0.499999X0.499999X0*%
%ADD25C,1.500000*%
%ADD26C,3.250000*%
%ADD27C,1.612000*%
%ADD28C,2.304000*%
%ADD29C,0.600000*%
G04 APERTURE END LIST*
D10*
%TO.C,H6*%
X203500000Y-133250000D03*
D11*
X203500000Y-133250000D03*
%TD*%
D12*
%TO.C,X7*%
X102925000Y-110425000D03*
D13*
X105625000Y-111450000D03*
X105625000Y-116450000D03*
D12*
X102925000Y-117475000D03*
%TD*%
D14*
%TO.C,X5*%
X103200000Y-123800000D03*
D15*
X109700000Y-121300000D03*
D16*
X109700000Y-123800000D03*
X109700000Y-126300000D03*
%TD*%
D10*
%TO.C,H5*%
X203500000Y-119700000D03*
D11*
X203500000Y-119700000D03*
%TD*%
D17*
%TO.C,H2*%
X104800000Y-142200000D03*
D18*
X104800000Y-142200000D03*
%TD*%
D17*
%TO.C,H3*%
X199000000Y-104800000D03*
D18*
X199000000Y-104800000D03*
%TD*%
D19*
%TO.C,J3*%
X169130000Y-104540000D03*
D20*
X169130000Y-102000000D03*
X166590000Y-104540000D03*
X166590000Y-102000000D03*
X164050000Y-104540000D03*
X164050000Y-102000000D03*
X161510000Y-104540000D03*
X161510000Y-102000000D03*
%TD*%
D19*
%TO.C,J2*%
X157700000Y-104540000D03*
D20*
X157700000Y-102000000D03*
X155160000Y-104540000D03*
X155160000Y-102000000D03*
X152620000Y-104540000D03*
X152620000Y-102000000D03*
%TD*%
D14*
%TO.C,X3*%
X214800000Y-112100000D03*
D21*
X208300000Y-120850000D03*
D16*
X208300000Y-118350000D03*
X208300000Y-115850000D03*
X208300000Y-113350000D03*
X208300000Y-110850000D03*
X208300000Y-108350000D03*
X208300000Y-105850000D03*
X208300000Y-103350000D03*
%TD*%
D17*
%TO.C,H1*%
X104800000Y-104800000D03*
D18*
X104800000Y-104800000D03*
%TD*%
D22*
%TO.C,S1*%
X136430000Y-136230000D03*
X136430000Y-138770000D03*
X144050000Y-136230000D03*
X144050000Y-138770000D03*
%TD*%
D21*
%TO.C,X2*%
X182900000Y-133900000D03*
D16*
X182900000Y-131400000D03*
%TD*%
D14*
%TO.C,X6*%
X189400000Y-121500000D03*
D21*
X182900000Y-125250000D03*
D16*
X182900000Y-122750000D03*
X182900000Y-120250000D03*
X182900000Y-117750000D03*
%TD*%
D23*
%TO.C,X4*%
X212900000Y-139550000D03*
D24*
X208580000Y-136550000D03*
D25*
X208580000Y-139550000D03*
X208580000Y-142550000D03*
X205580000Y-136550000D03*
X205580000Y-139550000D03*
X205580000Y-142550000D03*
%TD*%
D17*
%TO.C,H4*%
X199000000Y-142200000D03*
D18*
X199000000Y-142200000D03*
%TD*%
D19*
%TO.C,J1*%
X183010000Y-104550000D03*
D20*
X183010000Y-102010000D03*
X180470000Y-104550000D03*
X180470000Y-102010000D03*
X177930000Y-104550000D03*
X177930000Y-102010000D03*
X175390000Y-104550000D03*
X175390000Y-102010000D03*
X172850000Y-104550000D03*
X172850000Y-102010000D03*
%TD*%
D19*
%TO.C,JP1*%
X113125000Y-122400000D03*
D20*
X115665000Y-122400000D03*
%TD*%
D26*
%TO.C,X1*%
X114100000Y-132375000D03*
X114100000Y-143805000D03*
D27*
X122990000Y-142535000D03*
X120450000Y-141265000D03*
X122990000Y-139995000D03*
X120450000Y-138725000D03*
X122990000Y-137455000D03*
X120450000Y-136185000D03*
X122990000Y-134915000D03*
X120450000Y-133645000D03*
D28*
X110850000Y-130590000D03*
X127250000Y-145590000D03*
%TD*%
D29*
X122184467Y-121693107D03*
X169996614Y-131687772D03*
X190226369Y-142764753D03*
X109311860Y-110558046D03*
X168867592Y-110390000D03*
X176650000Y-120937500D03*
X154050000Y-103100000D03*
X176700000Y-107700000D03*
X130200048Y-114759022D03*
X124989999Y-115133839D03*
X143350000Y-107490000D03*
X172672321Y-112252709D03*
X172100000Y-116036889D03*
X140435421Y-118740000D03*
X156020986Y-128439531D03*
X125744637Y-108514826D03*
X204600000Y-116500000D03*
X124237500Y-101825000D03*
X153869168Y-122856592D03*
X147900000Y-129150000D03*
X206650000Y-112700000D03*
X187700000Y-107600000D03*
X107000000Y-117275000D03*
X130850000Y-133500000D03*
X147605388Y-113308771D03*
X178000003Y-136350000D03*
X152300000Y-119250000D03*
X196650000Y-115200000D03*
X196611358Y-113797646D03*
X188999997Y-101000000D03*
X167114445Y-127690000D03*
X125859930Y-112114461D03*
X127992194Y-106592194D03*
X110408453Y-112807499D03*
X202519778Y-136430778D03*
X181700000Y-146100000D03*
X167350000Y-129150000D03*
X163014839Y-127795816D03*
X108000000Y-111225000D03*
X117850000Y-110600000D03*
X157329693Y-146448343D03*
X172000000Y-120300000D03*
X115250000Y-112550000D03*
X142300000Y-133450000D03*
X153207772Y-111759456D03*
X161541643Y-127721111D03*
X134908771Y-133844612D03*
X178529461Y-117596991D03*
X118025303Y-115150242D03*
X172193109Y-110962901D03*
X168525000Y-112339999D03*
X164200000Y-142600000D03*
X131700000Y-139900000D03*
X141850000Y-121550000D03*
X133150000Y-137200000D03*
X135750000Y-124400000D03*
X189000672Y-129913515D03*
X174800000Y-121987500D03*
X109400000Y-107100000D03*
X129364999Y-105365000D03*
X163610343Y-129224272D03*
X152784313Y-116015687D03*
X126183528Y-128135262D03*
X162347240Y-141383563D03*
X131450000Y-101850000D03*
X159513695Y-114538879D03*
X154463049Y-145810000D03*
X172100000Y-113700000D03*
X180200000Y-146100000D03*
X163250000Y-144400000D03*
X172450000Y-144500000D03*
X118507104Y-114374176D03*
X157646717Y-123772429D03*
X144500000Y-146600000D03*
X166550000Y-129750000D03*
X158638110Y-117496921D03*
X148350000Y-111150000D03*
X146650000Y-129250000D03*
X173553215Y-123551769D03*
X109974953Y-116146928D03*
X151919603Y-136592523D03*
X131550242Y-128174697D03*
X148368507Y-113597929D03*
X116375000Y-100575000D03*
X171350000Y-139250000D03*
X131850000Y-106850000D03*
X167550000Y-125400000D03*
X187700000Y-102250000D03*
X153705107Y-124489494D03*
X119250000Y-107500000D03*
X176300000Y-132510000D03*
X190424697Y-105500242D03*
X128750000Y-139875000D03*
X188921238Y-138776579D03*
X192650000Y-110300000D03*
X187100000Y-138900000D03*
X107000000Y-116425000D03*
X150450000Y-130100000D03*
X156756238Y-119184358D03*
X144850000Y-131250000D03*
X163896126Y-133954855D03*
X162350000Y-125200000D03*
X136090000Y-119975478D03*
X152500000Y-139725000D03*
X141051209Y-121294645D03*
X134350000Y-115150000D03*
X133950000Y-107410000D03*
X178500000Y-122250000D03*
X185600000Y-140000000D03*
X172988929Y-130523071D03*
X173040000Y-128924697D03*
X153550000Y-118650000D03*
X194900000Y-100700000D03*
X148950000Y-108200000D03*
X136090000Y-118492404D03*
X174925000Y-129475000D03*
X113950000Y-108300000D03*
X168750000Y-144500000D03*
X117100000Y-106300000D03*
X151550000Y-108150000D03*
X128550000Y-121900000D03*
X161398163Y-119076605D03*
X169600000Y-139050000D03*
X160685873Y-106700310D03*
X170050000Y-118550000D03*
X150625000Y-139700000D03*
X161900000Y-145950000D03*
X167050000Y-132510000D03*
X151100000Y-144300003D03*
X112550000Y-115200000D03*
X126296032Y-111320397D03*
X185585161Y-144336100D03*
X147345833Y-110048441D03*
X156043015Y-107563744D03*
X179150000Y-118700000D03*
X134985173Y-113705363D03*
X136105971Y-128523884D03*
X168752980Y-107885000D03*
X154307772Y-132884456D03*
X147950000Y-138750000D03*
X175596186Y-114903780D03*
X124287500Y-100975000D03*
X146000000Y-145450000D03*
X168698928Y-109137831D03*
X162675000Y-124525000D03*
X133650822Y-139969241D03*
X166860000Y-120350000D03*
X192650000Y-104650000D03*
X178000000Y-114650000D03*
X137116361Y-107490000D03*
X126400000Y-126550000D03*
X169200000Y-116750000D03*
X178450000Y-130300000D03*
X130445910Y-116869703D03*
X117300000Y-125299997D03*
X127284358Y-109106239D03*
X146050000Y-138750000D03*
X144302251Y-107490000D03*
X135649997Y-130550000D03*
X149539515Y-126924934D03*
X123667624Y-115132244D03*
X130761357Y-124002354D03*
X171250000Y-122950000D03*
X147250000Y-108050000D03*
X184890000Y-108358046D03*
X150300000Y-138700000D03*
X123650000Y-106199997D03*
X154307772Y-134315544D03*
X159588797Y-110527545D03*
X110414844Y-114457501D03*
X153792402Y-117310000D03*
X152942542Y-123786929D03*
X148400622Y-112375001D03*
X125650000Y-123500000D03*
X137150000Y-133300000D03*
X179330000Y-141870000D03*
X176650000Y-131350000D03*
X129625000Y-114200000D03*
X117300000Y-126900003D03*
X155287184Y-117096679D03*
X172500000Y-118700000D03*
X153069222Y-126930222D03*
X187700000Y-109050000D03*
X112986837Y-118083187D03*
X117171124Y-114494488D03*
X168790000Y-120313050D03*
X129620533Y-115360000D03*
X171004177Y-130600000D03*
X118491025Y-112746902D03*
X165553098Y-117490000D03*
X170800000Y-141900000D03*
X187700000Y-103500000D03*
X162217255Y-114852829D03*
X125150000Y-109050000D03*
X156850000Y-123700000D03*
X121400000Y-121850000D03*
X187900000Y-138800000D03*
X153950000Y-133600000D03*
X189800000Y-101000000D03*
X204400000Y-112700000D03*
X189800000Y-106000000D03*
X151175000Y-136300000D03*
X126286863Y-127341962D03*
X113750000Y-104000000D03*
X156539573Y-146322982D03*
X125500000Y-111400000D03*
X147600000Y-128408378D03*
X169249997Y-118550000D03*
X171700000Y-116750000D03*
X179000000Y-116950000D03*
X162150000Y-115650000D03*
X162150000Y-119350000D03*
X156150000Y-127650000D03*
X114934602Y-108270000D03*
X153350000Y-115450000D03*
X119291017Y-112750972D03*
X127950000Y-109550000D03*
X152850000Y-112475000D03*
X152300000Y-127150000D03*
X145575000Y-129150000D03*
X153250000Y-122350000D03*
X169200000Y-121000000D03*
X173500000Y-124350000D03*
X173600000Y-128300000D03*
X170500000Y-138950000D03*
X151100000Y-143500000D03*
X161550000Y-141450000D03*
X155150000Y-145400000D03*
X136500000Y-108000000D03*
X149550000Y-126125000D03*
X128550000Y-105200000D03*
X142029888Y-120770485D03*
X123650000Y-107000000D03*
X109175000Y-116155867D03*
X109967086Y-111017048D03*
X125150000Y-114350000D03*
X123500000Y-114350000D03*
X140950000Y-119500000D03*
X159412562Y-117697492D03*
X189700000Y-129525000D03*
X202300000Y-137200000D03*
X163888345Y-133154891D03*
X140875000Y-122075000D03*
X130700000Y-124800000D03*
X132050000Y-127550000D03*
X177200000Y-136350000D03*
X134250000Y-116000000D03*
X117800000Y-114000000D03*
X109708382Y-114057500D03*
X117800000Y-113150000D03*
X109708382Y-113207500D03*
X155224930Y-116299103D03*
X146950000Y-112850000D03*
X148062816Y-110403321D03*
X136200000Y-117700000D03*
X159900000Y-106850000D03*
X153000000Y-117200000D03*
X147850000Y-108650000D03*
X146575000Y-107575000D03*
X156450000Y-106875000D03*
X143278854Y-108286833D03*
X145100000Y-107550000D03*
X185100000Y-143700000D03*
X189500000Y-143100000D03*
X113150000Y-117300000D03*
X118650000Y-115650000D03*
X134450000Y-139900000D03*
X136450000Y-130550000D03*
X134450000Y-134500000D03*
X136300000Y-129300000D03*
X148900000Y-113000000D03*
X129000000Y-115950000D03*
X148900000Y-111750000D03*
X131000000Y-114750000D03*
X159525000Y-111325000D03*
X158715533Y-114593107D03*
X178525000Y-114025000D03*
X178352354Y-118638642D03*
X172050000Y-111749999D03*
X166649997Y-125400000D03*
X163500000Y-128431916D03*
X153750000Y-123680729D03*
X117300000Y-126100000D03*
X131250000Y-116900000D03*
X141050000Y-118150000D03*
X175437263Y-115687838D03*
X169200000Y-115949997D03*
X157800000Y-117500000D03*
X136163030Y-120772140D03*
X184300000Y-108950000D03*
X187700000Y-106799997D03*
X147300000Y-124450000D03*
X168200000Y-120900000D03*
X172558771Y-113044612D03*
X162293935Y-127448969D03*
X168200000Y-108475000D03*
X170950000Y-131500000D03*
X169400000Y-112400000D03*
X168250000Y-109800000D03*
X166400000Y-131950000D03*
X196550000Y-113000000D03*
X134450000Y-114300000D03*
X169564348Y-132360936D03*
X168350000Y-111000000D03*
X173040000Y-129724700D03*
X186224697Y-139500242D03*
X189600000Y-139200000D03*
M02*
