M48
; DRILL file {KiCad 8.0.3-8.0.3-0~ubuntu22.04.1} date 2024-06-05T12:44:27+0200
; FORMAT={-:-/ absolute / metric / decimal}
; #@! TF.CreationDate,2024-06-05T12:44:27+02:00
; #@! TF.GenerationSoftware,Kicad,Pcbnew,8.0.3-8.0.3-0~ubuntu22.04.1
; #@! TF.FileFunction,Plated,1,4,PTH
FMAT,2
METRIC
; #@! TA.AperFunction,Plated,PTH,ComponentDrill
T1C0.200
; #@! TA.AperFunction,Plated,PTH,ViaDrill
T2C0.300
; #@! TA.AperFunction,Plated,PTH,ComponentDrill
T3C0.300
; #@! TA.AperFunction,Plated,PTH,ComponentDrill
T4C0.550
; #@! TA.AperFunction,Plated,PTH,ComponentDrill
T5C0.600
; #@! TA.AperFunction,Plated,PTH,ComponentDrill
T6C0.900
; #@! TA.AperFunction,Plated,PTH,ComponentDrill
T7C0.950
; #@! TA.AperFunction,Plated,PTH,ComponentDrill
T8C1.000
; #@! TA.AperFunction,Plated,PTH,ComponentDrill
T9C1.020
; #@! TA.AperFunction,Plated,PTH,ComponentDrill
T10C1.400
; #@! TA.AperFunction,Plated,PTH,ComponentDrill
T11C2.200
; #@! TA.AperFunction,Plated,PTH,ComponentDrill
T12C3.200
%
G90
G05
T1
X155.6Y-141.0
X155.6Y-142.3
X155.6Y-143.6
X156.9Y-141.0
X156.9Y-142.3
X156.9Y-143.6
X169.7Y-125.3
X169.7Y-126.0
X169.7Y-126.7
X169.7Y-127.4
X170.4Y-125.3
X170.4Y-126.0
X170.4Y-126.7
X170.4Y-127.4
X171.1Y-125.3
X171.1Y-126.0
X171.1Y-126.7
X171.1Y-127.4
X171.8Y-125.3
X171.8Y-126.0
X171.8Y-126.7
X171.8Y-127.4
T2
X107.0Y-116.425
X107.0Y-117.275
X108.0Y-111.225
X109.175Y-116.156
X109.312Y-110.558
X109.4Y-107.1
X109.708Y-113.207
X109.708Y-114.057
X109.967Y-111.017
X109.975Y-116.147
X110.408Y-112.807
X110.415Y-114.458
X112.55Y-115.2
X112.987Y-118.083
X113.15Y-117.3
X113.75Y-104.0
X113.95Y-108.3
X114.935Y-108.27
X115.25Y-112.55
X116.375Y-100.575
X117.1Y-106.3
X117.171Y-114.494
X117.3Y-125.3
X117.3Y-126.1
X117.3Y-126.9
X117.8Y-113.15
X117.8Y-114.0
X117.85Y-110.6
X118.025Y-115.15
X118.491Y-112.747
X118.507Y-114.374
X118.65Y-115.65
X119.25Y-107.5
X119.291Y-112.751
X121.4Y-121.85
X122.184Y-121.693
X123.5Y-114.35
X123.65Y-106.2
X123.65Y-107.0
X123.668Y-115.132
X124.237Y-101.825
X124.287Y-100.975
X124.99Y-115.134
X125.15Y-109.05
X125.15Y-114.35
X125.5Y-111.4
X125.65Y-123.5
X125.745Y-108.515
X125.86Y-112.114
X126.184Y-128.135
X126.287Y-127.342
X126.296Y-111.32
X126.4Y-126.55
X127.284Y-109.106
X127.95Y-109.55
X127.992Y-106.592
X128.55Y-105.2
X128.55Y-121.9
X128.75Y-139.875
X129.0Y-115.95
X129.365Y-105.365
X129.621Y-115.36
X129.625Y-114.2
X130.2Y-114.759
X130.446Y-116.87
X130.7Y-124.8
X130.761Y-124.002
X130.85Y-133.5
X131.0Y-114.75
X131.25Y-116.9
X131.45Y-101.85
X131.55Y-128.175
X131.7Y-139.9
X131.85Y-106.85
X132.05Y-127.55
X133.15Y-137.2
X133.651Y-139.969
X133.95Y-107.41
X134.25Y-116.0
X134.35Y-115.15
X134.45Y-114.3
X134.45Y-134.5
X134.45Y-139.9
X134.909Y-133.845
X134.985Y-113.705
X135.65Y-130.55
X135.75Y-124.4
X136.09Y-118.492
X136.09Y-119.975
X136.106Y-128.524
X136.163Y-120.772
X136.2Y-117.7
X136.3Y-129.3
X136.45Y-130.55
X136.5Y-108.0
X137.116Y-107.49
X137.15Y-133.3
X140.435Y-118.74
X140.875Y-122.075
X140.95Y-119.5
X141.05Y-118.15
X141.051Y-121.295
X141.85Y-121.55
X142.03Y-120.77
X142.3Y-133.45
X143.279Y-108.287
X143.35Y-107.49
X144.302Y-107.49
X144.5Y-146.6
X144.85Y-131.25
X145.1Y-107.55
X145.575Y-129.15
X146.0Y-145.45
X146.05Y-138.75
X146.575Y-107.575
X146.65Y-129.25
X146.95Y-112.85
X147.25Y-108.05
X147.3Y-124.45
X147.346Y-110.048
X147.6Y-128.408
X147.605Y-113.309
X147.85Y-108.65
X147.9Y-129.15
X147.95Y-138.75
X148.063Y-110.403
X148.35Y-111.15
X148.369Y-113.598
X148.401Y-112.375
X148.9Y-111.75
X148.9Y-113.0
X148.95Y-108.2
X149.54Y-126.925
X149.55Y-126.125
X150.3Y-138.7
X150.45Y-130.1
X150.625Y-139.7
X151.1Y-143.5
X151.1Y-144.3
X151.175Y-136.3
X151.55Y-108.15
X151.92Y-136.593
X152.3Y-119.25
X152.3Y-127.15
X152.5Y-139.725
X152.784Y-116.016
X152.85Y-112.475
X152.943Y-123.787
X153.0Y-117.2
X153.069Y-126.93
X153.208Y-111.759
X153.25Y-122.35
X153.35Y-115.45
X153.55Y-118.65
X153.705Y-124.489
X153.75Y-123.681
X153.792Y-117.31
X153.869Y-122.857
X153.95Y-133.6
X154.05Y-103.1
X154.308Y-132.884
X154.308Y-134.316
X154.463Y-145.81
X155.15Y-145.4
X155.225Y-116.299
X155.287Y-117.097
X156.021Y-128.44
X156.043Y-107.564
X156.15Y-127.65
X156.45Y-106.875
X156.54Y-146.323
X156.756Y-119.184
X156.85Y-123.7
X157.33Y-146.448
X157.647Y-123.772
X157.8Y-117.5
X158.638Y-117.497
X158.716Y-114.593
X159.413Y-117.697
X159.514Y-114.539
X159.525Y-111.325
X159.589Y-110.528
X159.9Y-106.85
X160.686Y-106.7
X161.398Y-119.077
X161.542Y-127.721
X161.55Y-141.45
X161.9Y-145.95
X162.15Y-115.65
X162.15Y-119.35
X162.217Y-114.853
X162.294Y-127.449
X162.347Y-141.384
X162.35Y-125.2
X162.675Y-124.525
X163.015Y-127.796
X163.25Y-144.4
X163.5Y-128.432
X163.61Y-129.224
X163.888Y-133.155
X163.896Y-133.955
X164.2Y-142.6
X165.553Y-117.49
X166.4Y-131.95
X166.55Y-129.75
X166.65Y-125.4
X166.86Y-120.35
X167.05Y-132.51
X167.114Y-127.69
X167.35Y-129.15
X167.55Y-125.4
X168.2Y-108.475
X168.2Y-120.9
X168.25Y-109.8
X168.35Y-111.0
X168.525Y-112.34
X168.699Y-109.138
X168.75Y-144.5
X168.753Y-107.885
X168.79Y-120.313
X168.868Y-110.39
X169.2Y-115.95
X169.2Y-116.75
X169.2Y-121.0
X169.25Y-118.55
X169.4Y-112.4
X169.564Y-132.361
X169.6Y-139.05
X169.997Y-131.688
X170.05Y-118.55
X170.5Y-138.95
X170.8Y-141.9
X170.95Y-131.5
X171.004Y-130.6
X171.25Y-122.95
X171.35Y-139.25
X171.7Y-116.75
X172.0Y-120.3
X172.05Y-111.75
X172.1Y-113.7
X172.1Y-116.037
X172.193Y-110.963
X172.45Y-144.5
X172.5Y-118.7
X172.559Y-113.045
X172.672Y-112.253
X172.989Y-130.523
X173.04Y-128.925
X173.04Y-129.725
X173.5Y-124.35
X173.553Y-123.552
X173.6Y-128.3
X174.8Y-121.987
X174.925Y-129.475
X175.437Y-115.688
X175.596Y-114.904
X176.3Y-132.51
X176.65Y-120.938
X176.65Y-131.35
X176.7Y-107.7
X177.2Y-136.35
X178.0Y-114.65
X178.0Y-136.35
X178.352Y-118.639
X178.45Y-130.3
X178.5Y-122.25
X178.525Y-114.025
X178.529Y-117.597
X179.0Y-116.95
X179.15Y-118.7
X179.33Y-141.87
X180.2Y-146.1
X181.7Y-146.1
X184.3Y-108.95
X184.89Y-108.358
X185.1Y-143.7
X185.585Y-144.336
X185.6Y-140.0
X186.225Y-139.5
X187.1Y-138.9
X187.7Y-102.25
X187.7Y-103.5
X187.7Y-106.8
X187.7Y-107.6
X187.7Y-109.05
X187.9Y-138.8
X188.921Y-138.777
X189.0Y-101.0
X189.001Y-129.914
X189.5Y-143.1
X189.6Y-139.2
X189.7Y-129.525
X189.8Y-101.0
X189.8Y-106.0
X190.226Y-142.765
X190.425Y-105.5
X192.65Y-104.65
X192.65Y-110.3
X194.9Y-100.7
X196.55Y-113.0
X196.611Y-113.798
X196.65Y-115.2
X202.3Y-137.2
X202.52Y-136.431
X204.4Y-112.7
X204.6Y-116.5
X206.65Y-112.7
T3
X138.55Y-114.95
X138.55Y-116.35
X139.25Y-114.25
X139.25Y-115.65
X139.25Y-117.05
X139.95Y-114.95
X139.95Y-116.35
X140.65Y-114.25
X140.65Y-115.65
X140.65Y-117.05
X141.35Y-114.95
X141.35Y-116.35
T6
X120.45Y-133.645
X120.45Y-136.185
X120.45Y-138.725
X120.45Y-141.265
X122.99Y-134.915
X122.99Y-137.455
X122.99Y-139.995
X122.99Y-142.535
T7
X109.7Y-121.3
X109.7Y-123.8
X109.7Y-126.3
X182.9Y-117.75
X182.9Y-120.25
X182.9Y-122.75
X182.9Y-125.25
X182.9Y-131.4
X182.9Y-133.9
X208.3Y-103.35
X208.3Y-105.85
X208.3Y-108.35
X208.3Y-110.85
X208.3Y-113.35
X208.3Y-115.85
X208.3Y-118.35
X208.3Y-120.85
T8
X113.125Y-122.4
X115.665Y-122.4
X136.43Y-136.23
X136.43Y-138.77
X144.05Y-136.23
X144.05Y-138.77
X152.62Y-102.0
X152.62Y-104.54
X155.16Y-102.0
X155.16Y-104.54
X157.7Y-102.0
X157.7Y-104.54
X161.51Y-102.0
X161.51Y-104.54
X164.05Y-102.0
X164.05Y-104.54
X166.59Y-102.0
X166.59Y-104.54
X169.13Y-102.0
X169.13Y-104.54
X172.85Y-102.01
X172.85Y-104.55
X175.39Y-102.01
X175.39Y-104.55
X177.93Y-102.01
X177.93Y-104.55
X180.47Y-102.01
X180.47Y-104.55
X183.01Y-102.01
X183.01Y-104.55
T9
X205.58Y-136.55
X205.58Y-139.55
X205.58Y-142.55
X208.58Y-136.55
X208.58Y-139.55
X208.58Y-142.55
T10
X110.85Y-130.59
X127.25Y-145.59
T11
X203.5Y-119.7
X203.5Y-133.25
T12
X104.8Y-104.8
X104.8Y-142.2
X199.0Y-104.8
X199.0Y-142.2
T4
X103.25Y-110.425G85X102.6Y-110.425
G05
X103.25Y-117.475G85X102.6Y-117.475
G05
T5
X105.625Y-111.3G85X105.625Y-111.6
G05
X105.625Y-116.3G85X105.625Y-116.6
G05
M30
