%TF.GenerationSoftware,KiCad,Pcbnew,8.0.3-8.0.3-0~ubuntu22.04.1*%
%TF.CreationDate,2024-06-05T11:38:55+02:00*%
%TF.ProjectId,Drawer_Controller_v4,44726177-6572-45f4-936f-6e74726f6c6c,rev?*%
%TF.SameCoordinates,Original*%
%TF.FileFunction,Copper,L4,Bot*%
%TF.FilePolarity,Positive*%
%FSLAX46Y46*%
G04 Gerber Fmt 4.6, Leading zero omitted, Abs format (unit mm)*
G04 Created by KiCad (PCBNEW 8.0.3-8.0.3-0~ubuntu22.04.1) date 2024-06-05 11:38:55*
%MOMM*%
%LPD*%
G01*
G04 APERTURE LIST*
G04 Aperture macros list*
%AMRoundRect*
0 Rectangle with rounded corners*
0 $1 Rounding radius*
0 $2 $3 $4 $5 $6 $7 $8 $9 X,Y pos of 4 corners*
0 Add a 4 corners polygon primitive as box body*
4,1,4,$2,$3,$4,$5,$6,$7,$8,$9,$2,$3,0*
0 Add four circle primitives for the rounded corners*
1,1,$1+$1,$2,$3*
1,1,$1+$1,$4,$5*
1,1,$1+$1,$6,$7*
1,1,$1+$1,$8,$9*
0 Add four rect primitives between the rounded corners*
20,1,$1+$1,$2,$3,$4,$5,0*
20,1,$1+$1,$4,$5,$6,$7,0*
20,1,$1+$1,$6,$7,$8,$9,0*
20,1,$1+$1,$8,$9,$2,$3,0*%
G04 Aperture macros list end*
%TA.AperFunction,ComponentPad*%
%ADD10C,2.600000*%
%TD*%
%TA.AperFunction,ConnectorPad*%
%ADD11C,3.800000*%
%TD*%
%TA.AperFunction,ComponentPad*%
%ADD12O,1.500000X0.750000*%
%TD*%
%TA.AperFunction,ComponentPad*%
%ADD13O,0.800000X1.580000*%
%TD*%
%TA.AperFunction,ComponentPad*%
%ADD14RoundRect,0.250000X-0.725000X0.600000X-0.725000X-0.600000X0.725000X-0.600000X0.725000X0.600000X0*%
%TD*%
%TA.AperFunction,ComponentPad*%
%ADD15O,1.950000X1.700000*%
%TD*%
%TA.AperFunction,ComponentPad*%
%ADD16C,3.600000*%
%TD*%
%TA.AperFunction,ConnectorPad*%
%ADD17C,9.200000*%
%TD*%
%TA.AperFunction,ComponentPad*%
%ADD18R,1.700000X1.700000*%
%TD*%
%TA.AperFunction,ComponentPad*%
%ADD19O,1.700000X1.700000*%
%TD*%
%TA.AperFunction,ComponentPad*%
%ADD20C,0.600000*%
%TD*%
%TA.AperFunction,ComponentPad*%
%ADD21RoundRect,0.250000X0.725000X-0.600000X0.725000X0.600000X-0.725000X0.600000X-0.725000X-0.600000X0*%
%TD*%
%TA.AperFunction,HeatsinkPad*%
%ADD22C,0.500000*%
%TD*%
%TA.AperFunction,HeatsinkPad*%
%ADD23R,2.600000X2.600000*%
%TD*%
%TA.AperFunction,ComponentPad*%
%ADD24C,2.000000*%
%TD*%
%TA.AperFunction,ComponentPad*%
%ADD25RoundRect,0.250001X-0.499999X0.499999X-0.499999X-0.499999X0.499999X-0.499999X0.499999X0.499999X0*%
%TD*%
%TA.AperFunction,ComponentPad*%
%ADD26C,1.500000*%
%TD*%
%TA.AperFunction,HeatsinkPad*%
%ADD27R,1.800000X3.100000*%
%TD*%
%TA.AperFunction,ComponentPad*%
%ADD28C,1.408000*%
%TD*%
%TA.AperFunction,ComponentPad*%
%ADD29C,2.100000*%
%TD*%
%TA.AperFunction,ViaPad*%
%ADD30C,0.600000*%
%TD*%
%TA.AperFunction,Conductor*%
%ADD31C,0.500000*%
%TD*%
%TA.AperFunction,Conductor*%
%ADD32C,0.180000*%
%TD*%
%TA.AperFunction,Conductor*%
%ADD33C,0.350000*%
%TD*%
%TA.AperFunction,Conductor*%
%ADD34C,0.200000*%
%TD*%
%TA.AperFunction,Conductor*%
%ADD35C,0.153000*%
%TD*%
G04 APERTURE END LIST*
D10*
%TO.P,H6,1*%
%TO.N,N/C*%
X203500000Y-133250000D03*
D11*
X203500000Y-133250000D03*
%TD*%
D12*
%TO.P,X7,6,Shield*%
%TO.N,GND*%
X102925000Y-110425000D03*
D13*
X105625000Y-111450000D03*
X105625000Y-116450000D03*
D12*
X102925000Y-117475000D03*
%TD*%
D14*
%TO.P,X5,1,Pin_1*%
%TO.N,+5V*%
X109700000Y-121300000D03*
D15*
%TO.P,X5,2,Pin_2*%
%TO.N,GND*%
X109700000Y-123800000D03*
%TO.P,X5,3,Pin_3*%
%TO.N,/LED_Din*%
X109700000Y-126300000D03*
%TD*%
D10*
%TO.P,H5,1*%
%TO.N,N/C*%
X203500000Y-119700000D03*
D11*
X203500000Y-119700000D03*
%TD*%
D16*
%TO.P,H2,1*%
%TO.N,N/C*%
X104800000Y-142200000D03*
D17*
X104800000Y-142200000D03*
%TD*%
D16*
%TO.P,H3,1*%
%TO.N,N/C*%
X199000000Y-104800000D03*
D17*
X199000000Y-104800000D03*
%TD*%
D18*
%TO.P,J3,1,Pin_1*%
%TO.N,+5V*%
X169130000Y-104540000D03*
D19*
%TO.P,J3,2,Pin_2*%
%TO.N,+3V3*%
X169130000Y-102000000D03*
%TO.P,J3,3,Pin_3*%
%TO.N,GND*%
X166590000Y-104540000D03*
%TO.P,J3,4,Pin_4*%
X166590000Y-102000000D03*
%TO.P,J3,5,Pin_5*%
%TO.N,SPI_SI*%
X164050000Y-104540000D03*
%TO.P,J3,6,Pin_6*%
%TO.N,SPI_CS*%
X164050000Y-102000000D03*
%TO.P,J3,7,Pin_7*%
%TO.N,SPI_SO*%
X161510000Y-104540000D03*
%TO.P,J3,8,Pin_8*%
%TO.N,SPI_SCK*%
X161510000Y-102000000D03*
%TD*%
D18*
%TO.P,J2,1,Pin_1*%
%TO.N,JTAG_TDO*%
X157700000Y-104540000D03*
D19*
%TO.P,J2,2,Pin_2*%
%TO.N,JTAG_TMS*%
X157700000Y-102000000D03*
%TO.P,J2,3,Pin_3*%
%TO.N,JTAG_TCK*%
X155160000Y-104540000D03*
%TO.P,J2,4,Pin_4*%
%TO.N,GND*%
X155160000Y-102000000D03*
%TO.P,J2,5,Pin_5*%
%TO.N,EN_ESP32*%
X152620000Y-104540000D03*
%TO.P,J2,6,Pin_6*%
%TO.N,JTAG_TDI*%
X152620000Y-102000000D03*
%TD*%
D20*
%TO.P,U6,39,GND*%
%TO.N,GND*%
X138550000Y-114950000D03*
X138550000Y-116350000D03*
X139250000Y-114250000D03*
X139250000Y-115650000D03*
X139250000Y-117050000D03*
X139950000Y-114950000D03*
X139950000Y-116350000D03*
X140650000Y-114250000D03*
X140650000Y-115650000D03*
X140650000Y-117050000D03*
X141350000Y-114950000D03*
X141350000Y-116350000D03*
%TD*%
D21*
%TO.P,X3,1,Pin_1*%
%TO.N,+5V*%
X208300000Y-120850000D03*
D15*
%TO.P,X3,2,Pin_2*%
%TO.N,GND*%
X208300000Y-118350000D03*
%TO.P,X3,3,Pin_3*%
%TO.N,Drawer_1_N+*%
X208300000Y-115850000D03*
%TO.P,X3,4,Pin_4*%
%TO.N,Drawer_1_N-*%
X208300000Y-113350000D03*
%TO.P,X3,5,Pin_5*%
%TO.N,Drawer_1_B+*%
X208300000Y-110850000D03*
%TO.P,X3,6,Pin_6*%
%TO.N,Drawer_1_B-*%
X208300000Y-108350000D03*
%TO.P,X3,7,Pin_7*%
%TO.N,Drawer_1_A+*%
X208300000Y-105850000D03*
%TO.P,X3,8,Pin_8*%
%TO.N,Drawer_1_A-*%
X208300000Y-103350000D03*
%TD*%
D16*
%TO.P,H1,1*%
%TO.N,N/C*%
X104800000Y-104800000D03*
D17*
X104800000Y-104800000D03*
%TD*%
D22*
%TO.P,U8,29,EXP*%
%TO.N,GND*%
X171800000Y-125300000D03*
X171100000Y-125300000D03*
X170400000Y-125300000D03*
X169700000Y-125300000D03*
X171800000Y-126000000D03*
X171100000Y-126000000D03*
X170400000Y-126000000D03*
X169700000Y-126000000D03*
D23*
X170750000Y-126350000D03*
D22*
X171800000Y-126700000D03*
X171100000Y-126700000D03*
X170400000Y-126700000D03*
X169700000Y-126700000D03*
X171800000Y-127400000D03*
X171100000Y-127400000D03*
X170400000Y-127400000D03*
X169700000Y-127400000D03*
%TD*%
D24*
%TO.P,S1,1*%
%TO.N,Net-(R13-Pad1)*%
X136430000Y-136230000D03*
%TO.P,S1,2*%
%TO.N,Net-(R12-Pad2)*%
X136430000Y-138770000D03*
%TO.P,S1,3*%
%TO.N,Vref*%
X144050000Y-136230000D03*
%TO.P,S1,4*%
X144050000Y-138770000D03*
%TD*%
D21*
%TO.P,X2,1,Pin_1*%
%TO.N,/Ext_Switch_Sensing_Drawer_1/Switch*%
X182900000Y-133900000D03*
D15*
%TO.P,X2,2,Pin_2*%
%TO.N,GND*%
X182900000Y-131400000D03*
%TD*%
D21*
%TO.P,X6,1,Pin_1*%
%TO.N,Drawer_1_OA2*%
X182900000Y-125250000D03*
D15*
%TO.P,X6,2,Pin_2*%
%TO.N,Drawer_1_OA1*%
X182900000Y-122750000D03*
%TO.P,X6,3,Pin_3*%
%TO.N,Drawer_1_OB1*%
X182900000Y-120250000D03*
%TO.P,X6,4,Pin_4*%
%TO.N,Drawer_1_OB2*%
X182900000Y-117750000D03*
%TD*%
D25*
%TO.P,X4,1,Pin_1*%
%TO.N,GND*%
X208580000Y-136550000D03*
D26*
%TO.P,X4,2,Pin_2*%
%TO.N,Lock_1_VDD_Close*%
X208580000Y-139550000D03*
%TO.P,X4,3,Pin_3*%
%TO.N,Lock_1_VDD_Open*%
X208580000Y-142550000D03*
%TO.P,X4,4,Pin_4*%
%TO.N,GND*%
X205580000Y-136550000D03*
%TO.P,X4,5,Pin_5*%
%TO.N,Switch_Output_Lock_1*%
X205580000Y-139550000D03*
%TO.P,X4,6,Pin_6*%
%TO.N,GND*%
X205580000Y-142550000D03*
%TD*%
D16*
%TO.P,H4,1*%
%TO.N,N/C*%
X199000000Y-142200000D03*
D17*
X199000000Y-142200000D03*
%TD*%
D18*
%TO.P,J1,1,Pin_1*%
%TO.N,pe_0_IO0_3*%
X183010000Y-104550000D03*
D19*
%TO.P,J1,2,Pin_2*%
%TO.N,GND*%
X183010000Y-102010000D03*
%TO.P,J1,3,Pin_3*%
%TO.N,pe_0_IO0_4*%
X180470000Y-104550000D03*
%TO.P,J1,4,Pin_4*%
%TO.N,GND*%
X180470000Y-102010000D03*
%TO.P,J1,5,Pin_5*%
%TO.N,pe_0_IO0_5*%
X177930000Y-104550000D03*
%TO.P,J1,6,Pin_6*%
%TO.N,GND*%
X177930000Y-102010000D03*
%TO.P,J1,7,Pin_7*%
%TO.N,pe_0_IO0_7*%
X175390000Y-104550000D03*
%TO.P,J1,8,Pin_8*%
%TO.N,GND*%
X175390000Y-102010000D03*
%TO.P,J1,9,Pin_9*%
%TO.N,pe_0_IO0_6*%
X172850000Y-104550000D03*
%TO.P,J1,10,Pin_10*%
%TO.N,GND*%
X172850000Y-102010000D03*
%TD*%
D18*
%TO.P,JP1,1,A*%
%TO.N,Net-(JP1-A)*%
X113125000Y-122400000D03*
D19*
%TO.P,JP1,2,B*%
%TO.N,+3V3*%
X115665000Y-122400000D03*
%TD*%
D22*
%TO.P,U3,9,AGND*%
%TO.N,GND*%
X155600000Y-141000000D03*
X155600000Y-142300000D03*
X155600000Y-143600000D03*
D27*
X156250000Y-142300000D03*
D22*
X156900000Y-141000000D03*
X156900000Y-142300000D03*
X156900000Y-143600000D03*
%TD*%
D28*
%TO.P,X1,1*%
%TO.N,VBUS_24V*%
X122990000Y-142535000D03*
%TO.P,X1,2*%
X120450000Y-141265000D03*
%TO.P,X1,3*%
%TO.N,GND*%
X122990000Y-139995000D03*
%TO.P,X1,4*%
%TO.N,CAN+*%
X120450000Y-138725000D03*
%TO.P,X1,5*%
%TO.N,CAN-*%
X122990000Y-137455000D03*
%TO.P,X1,6*%
%TO.N,GND*%
X120450000Y-136185000D03*
%TO.P,X1,7*%
X122990000Y-134915000D03*
%TO.P,X1,8*%
%TO.N,VBUS_24V*%
X120450000Y-133645000D03*
D29*
%TO.P,X1,SH*%
%TO.N,GND*%
X110850000Y-130590000D03*
X127250000Y-145590000D03*
%TD*%
D30*
%TO.N,GND*%
X122184467Y-121693107D03*
X169996614Y-131687772D03*
X190226369Y-142764753D03*
X109311860Y-110558046D03*
X168867592Y-110390000D03*
X176650000Y-120937500D03*
X154050000Y-103100000D03*
X176700000Y-107700000D03*
X130200048Y-114759022D03*
X124989999Y-115133839D03*
X143350000Y-107490000D03*
X172672321Y-112252709D03*
X172100000Y-116036889D03*
X140435421Y-118740000D03*
X156020986Y-128439531D03*
X125744637Y-108514826D03*
X204600000Y-116500000D03*
X124237500Y-101825000D03*
X153869168Y-122856592D03*
X147900000Y-129150000D03*
X206650000Y-112700000D03*
X187700000Y-107600000D03*
X107000000Y-117275000D03*
X130850000Y-133500000D03*
X147605388Y-113308771D03*
X178000003Y-136350000D03*
X152300000Y-119250000D03*
X196650000Y-115200000D03*
X196611358Y-113797646D03*
X188999997Y-101000000D03*
X167114445Y-127690000D03*
X125859930Y-112114461D03*
X127992194Y-106592194D03*
X110408453Y-112807499D03*
X202519778Y-136430778D03*
X181700000Y-146100000D03*
X167350000Y-129150000D03*
X163014839Y-127795816D03*
X108000000Y-111225000D03*
X117850000Y-110600000D03*
X157329693Y-146448343D03*
X172000000Y-120300000D03*
X115250000Y-112550000D03*
X142300000Y-133450000D03*
X153207772Y-111759456D03*
X161541643Y-127721111D03*
X134908771Y-133844612D03*
X178529461Y-117596991D03*
X118025303Y-115150242D03*
X172193109Y-110962901D03*
X168525000Y-112339999D03*
X164200000Y-142600000D03*
X131700000Y-139900000D03*
X141850000Y-121550000D03*
X133150000Y-137200000D03*
X135750000Y-124400000D03*
X189000672Y-129913515D03*
X174800000Y-121987500D03*
X109400000Y-107100000D03*
X129364999Y-105365000D03*
X163610343Y-129224272D03*
X152784313Y-116015687D03*
X126183528Y-128135262D03*
X162347240Y-141383563D03*
X131450000Y-101850000D03*
X159513695Y-114538879D03*
X154463049Y-145810000D03*
X172100000Y-113700000D03*
X180200000Y-146100000D03*
X163250000Y-144400000D03*
X172450000Y-144500000D03*
X118507104Y-114374176D03*
X157646717Y-123772429D03*
X144500000Y-146600000D03*
X166550000Y-129750000D03*
X158638110Y-117496921D03*
X148350000Y-111150000D03*
X146650000Y-129250000D03*
X173553215Y-123551769D03*
X109974953Y-116146928D03*
X151919603Y-136592523D03*
X131550242Y-128174697D03*
X148368507Y-113597929D03*
X116375000Y-100575000D03*
X171350000Y-139250000D03*
X131850000Y-106850000D03*
X167550000Y-125400000D03*
X187700000Y-102250000D03*
X153705107Y-124489494D03*
X119250000Y-107500000D03*
X176300000Y-132510000D03*
X190424697Y-105500242D03*
X128750000Y-139875000D03*
X188921238Y-138776579D03*
X192650000Y-110300000D03*
X187100000Y-138900000D03*
X107000000Y-116425000D03*
X150450000Y-130100000D03*
X156756238Y-119184358D03*
X144850000Y-131250000D03*
X163896126Y-133954855D03*
X162350000Y-125200000D03*
X136090000Y-119975478D03*
X152500000Y-139725000D03*
X141051209Y-121294645D03*
X134350000Y-115150000D03*
X133950000Y-107410000D03*
X178500000Y-122250000D03*
X185600000Y-140000000D03*
X172988929Y-130523071D03*
X173040000Y-128924697D03*
X153550000Y-118650000D03*
X194900000Y-100700000D03*
X148950000Y-108200000D03*
X136090000Y-118492404D03*
X174925000Y-129475000D03*
X113950000Y-108300000D03*
X168750000Y-144500000D03*
X117100000Y-106300000D03*
X151550000Y-108150000D03*
X128550000Y-121900000D03*
X161398163Y-119076605D03*
X169600000Y-139050000D03*
X160685873Y-106700310D03*
X170050000Y-118550000D03*
X150625000Y-139700000D03*
X161900000Y-145950000D03*
X167050000Y-132510000D03*
X151100000Y-144300003D03*
X112550000Y-115200000D03*
X126296032Y-111320397D03*
X185585161Y-144336100D03*
X147345833Y-110048441D03*
X156043015Y-107563744D03*
X179150000Y-118700000D03*
X134985173Y-113705363D03*
X136105971Y-128523884D03*
X168752980Y-107885000D03*
X154307772Y-132884456D03*
X147950000Y-138750000D03*
X175596186Y-114903780D03*
X124287500Y-100975000D03*
X146000000Y-145450000D03*
X168698928Y-109137831D03*
X162675000Y-124525000D03*
X133650822Y-139969241D03*
X166860000Y-120350000D03*
X192650000Y-104650000D03*
X178000000Y-114650000D03*
X137116361Y-107490000D03*
X126400000Y-126550000D03*
X169200000Y-116750000D03*
X178450000Y-130300000D03*
X130445910Y-116869703D03*
X117300000Y-125299997D03*
X127284358Y-109106239D03*
X146050000Y-138750000D03*
X144302251Y-107490000D03*
X135649997Y-130550000D03*
X149539515Y-126924934D03*
X123667624Y-115132244D03*
X130761357Y-124002354D03*
X171250000Y-122950000D03*
X147250000Y-108050000D03*
X184890000Y-108358046D03*
X150300000Y-138700000D03*
X123650000Y-106199997D03*
X154307772Y-134315544D03*
X159588797Y-110527545D03*
X110414844Y-114457501D03*
X153792402Y-117310000D03*
X152942542Y-123786929D03*
X148400622Y-112375001D03*
X125650000Y-123500000D03*
X137150000Y-133300000D03*
X179330000Y-141870000D03*
X176650000Y-131350000D03*
X129625000Y-114200000D03*
X117300000Y-126900003D03*
X155287184Y-117096679D03*
X172500000Y-118700000D03*
X153069222Y-126930222D03*
X187700000Y-109050000D03*
X112986837Y-118083187D03*
X117171124Y-114494488D03*
X168790000Y-120313050D03*
X129620533Y-115360000D03*
X171004177Y-130600000D03*
X118491025Y-112746902D03*
X165553098Y-117490000D03*
X170800000Y-141900000D03*
X187700000Y-103500000D03*
X162217255Y-114852829D03*
%TO.N,+5V*%
X125150000Y-109050000D03*
X156850000Y-123700000D03*
X121400000Y-121850000D03*
X187900000Y-138800000D03*
X153950000Y-133600000D03*
X189800000Y-101000000D03*
X204400000Y-112700000D03*
X189800000Y-106000000D03*
X151175000Y-136300000D03*
X126286863Y-127341962D03*
X113750000Y-104000000D03*
X156539573Y-146322982D03*
X125500000Y-111400000D03*
%TO.N,+3V3*%
X147600000Y-128408378D03*
X169249997Y-118550000D03*
X171700000Y-116750000D03*
X179000000Y-116950000D03*
X162150000Y-115650000D03*
X162150000Y-119350000D03*
X156150000Y-127650000D03*
X114934602Y-108270000D03*
X153350000Y-115450000D03*
X119291017Y-112750972D03*
X127950000Y-109550000D03*
X152850000Y-112475000D03*
X152300000Y-127150000D03*
X145575000Y-129150000D03*
X153250000Y-122350000D03*
%TO.N,+24V*%
X169200000Y-121000000D03*
X173500000Y-124350000D03*
X173600000Y-128300000D03*
X170500000Y-138950000D03*
X151100000Y-143500000D03*
%TO.N,/Power Stage/VCC*%
X161550000Y-141450000D03*
X155150000Y-145400000D03*
%TO.N,IO0_BTN*%
X136500000Y-108000000D03*
X149550000Y-126125000D03*
X128550000Y-105200000D03*
X142029888Y-120770485D03*
X123650000Y-107000000D03*
%TO.N,Net-(JP1-A)*%
X109175000Y-116155867D03*
X109967086Y-111017048D03*
%TO.N,EN_ESP32*%
X125150000Y-114350000D03*
X123500000Y-114350000D03*
%TO.N,Sense_Lock_1*%
X140950000Y-119500000D03*
X159412562Y-117697492D03*
%TO.N,Switch_Output_Lock_1*%
X189700000Y-129525000D03*
X202300000Y-137200000D03*
%TO.N,Drawer_DAC_VREF*%
X163888345Y-133154891D03*
X140875000Y-122075000D03*
%TO.N,Sense_Input_Drawer_Closed_1*%
X130700000Y-124800000D03*
X132050000Y-127550000D03*
X177200000Y-136350000D03*
X134250000Y-116000000D03*
%TO.N,USB_D+*%
X117800000Y-114000000D03*
X109708382Y-114057500D03*
%TO.N,USB_D-*%
X117800000Y-113150000D03*
X109708382Y-113207500D03*
%TO.N,SPI_SO*%
X155224930Y-116299103D03*
%TO.N,SPI_CS*%
X146950000Y-112850000D03*
X148062816Y-110403321D03*
X136200000Y-117700000D03*
%TO.N,SPI_SCK*%
X159900000Y-106850000D03*
X153000000Y-117200000D03*
%TO.N,JTAG_TDO*%
X147850000Y-108650000D03*
%TO.N,JTAG_TCK*%
X146575000Y-107575000D03*
%TO.N,JTAG_TMS*%
X156450000Y-106875000D03*
X143278854Y-108286833D03*
%TO.N,JTAG_TDI*%
X145100000Y-107550000D03*
%TO.N,Net-(Q4-D)*%
X185100000Y-143700000D03*
X189500000Y-143100000D03*
%TO.N,RTS*%
X113150000Y-117300000D03*
X118650000Y-115650000D03*
%TO.N,CAN+*%
X134450000Y-139900000D03*
X136450000Y-130550000D03*
%TO.N,CAN-*%
X134450000Y-134500000D03*
X136300000Y-129300000D03*
%TO.N,RXD0*%
X148900000Y-113000000D03*
X129000000Y-115950000D03*
%TO.N,TXD0*%
X148900000Y-111750000D03*
X131000000Y-114750000D03*
%TO.N,SDA*%
X159525000Y-111325000D03*
X158715533Y-114593107D03*
%TO.N,Drawer_1_~EN_TMC2209*%
X178525000Y-114025000D03*
X178352354Y-118638642D03*
%TO.N,Drawer_1_DIAG*%
X172050000Y-111749999D03*
X166649997Y-125400000D03*
%TO.N,UART2_RX*%
X163500000Y-128431916D03*
X153750000Y-123680729D03*
%TO.N,LED_D_in*%
X117300000Y-126100000D03*
X131250000Y-116900000D03*
%TO.N,pe_0_~INT*%
X141050000Y-118150000D03*
X175437263Y-115687838D03*
X169200000Y-115949997D03*
X157800000Y-117500000D03*
%TO.N,Drawer_1_Encoder_A*%
X136163030Y-120772140D03*
X184300000Y-108950000D03*
%TO.N,Drawer_1_Encoder_B*%
X187700000Y-106799997D03*
X147300000Y-124450000D03*
%TO.N,Drawer_1_SPREAD*%
X168200000Y-120900000D03*
X172558771Y-113044612D03*
%TO.N,Drawer_1_INDEX*%
X162293935Y-127448969D03*
X168200000Y-108475000D03*
%TO.N,Drawer_1_DIR*%
X170950000Y-131500000D03*
X169400000Y-112400000D03*
%TO.N,Drawer_1_STEP*%
X168250000Y-109800000D03*
X166400000Y-131950000D03*
%TO.N,Drawer_1_Encoder_N*%
X196550000Y-113000000D03*
X134450000Y-114300000D03*
%TO.N,Drawer_1_STDBY_TMC2209*%
X169564348Y-132360936D03*
X168350000Y-111000000D03*
%TO.N,Drawer_1_OA2*%
X173040000Y-129724700D03*
%TO.N,Net-(Q2-D)*%
X186224697Y-139500242D03*
X189600000Y-139200000D03*
%TD*%
D31*
%TO.N,+24V*%
X170500000Y-138950000D02*
X170500000Y-139450000D01*
X170500000Y-139450000D02*
X170150000Y-139800000D01*
X170150000Y-139800000D02*
X154800000Y-139800000D01*
X154800000Y-139800000D02*
X151100000Y-143500000D01*
%TO.N,+5V*%
X121400000Y-114150000D02*
X123100000Y-112450000D01*
X121400000Y-121850000D02*
X121400000Y-114150000D01*
X123100000Y-112450000D02*
X124450000Y-112450000D01*
X124450000Y-112450000D02*
X125500000Y-111400000D01*
D32*
%TO.N,GND*%
X154060000Y-103100000D02*
X155160000Y-102000000D01*
X154050000Y-103100000D02*
X154060000Y-103100000D01*
D31*
%TO.N,+5V*%
X122750000Y-109050000D02*
X125150000Y-109050000D01*
D32*
X156462555Y-146400000D02*
X156539573Y-146322982D01*
D33*
X187900000Y-138700000D02*
X187900000Y-138800000D01*
D31*
X127919690Y-126800000D02*
X141550000Y-126800000D01*
D32*
X206200000Y-118750000D02*
X206200000Y-114500000D01*
X151215000Y-137890000D02*
X151215000Y-141210000D01*
D33*
X151025000Y-137700000D02*
X186900000Y-137700000D01*
D32*
X156700000Y-122150000D02*
X160350000Y-118500000D01*
D33*
X151025000Y-137700000D02*
X151025000Y-136450000D01*
D32*
X204400000Y-112700000D02*
X202600000Y-110900000D01*
X156850000Y-123700000D02*
X156700000Y-123550000D01*
X166470000Y-107200000D02*
X169130000Y-104540000D01*
X150400000Y-142025000D02*
X150400000Y-145200000D01*
X169200000Y-104510000D02*
X169180000Y-104490000D01*
D31*
X127377728Y-127341962D02*
X127919690Y-126800000D01*
X113750000Y-104000000D02*
X117700000Y-104000000D01*
D33*
X186900000Y-137700000D02*
X187900000Y-138700000D01*
D32*
X160350000Y-118500000D02*
X160350000Y-110600000D01*
X150400000Y-145200000D02*
X151600000Y-146400000D01*
D31*
X117700000Y-104000000D02*
X122750000Y-109050000D01*
X148350000Y-133600000D02*
X153950000Y-133600000D01*
D32*
X189800000Y-106000000D02*
X189800000Y-101000000D01*
X160350000Y-110600000D02*
X163750000Y-107200000D01*
X163750000Y-107200000D02*
X166470000Y-107200000D01*
X151215000Y-141210000D02*
X150400000Y-142025000D01*
X208300000Y-120850000D02*
X206200000Y-118750000D01*
X194700000Y-110900000D02*
X189800000Y-106000000D01*
X206200000Y-114500000D02*
X204400000Y-112700000D01*
D31*
X141550000Y-126800000D02*
X148350000Y-133600000D01*
D32*
X151600000Y-146400000D02*
X156462555Y-146400000D01*
X151025000Y-137700000D02*
X151215000Y-137890000D01*
D33*
X151025000Y-136450000D02*
X151175000Y-136300000D01*
D32*
X202600000Y-110900000D02*
X194700000Y-110900000D01*
X156700000Y-123550000D02*
X156700000Y-122150000D01*
D31*
X126286863Y-127341962D02*
X127377728Y-127341962D01*
D33*
%TO.N,+3V3*%
X119500000Y-112959955D02*
X119291017Y-112750972D01*
X152300000Y-127150000D02*
X152200000Y-127050000D01*
X121950000Y-128250000D02*
X116800000Y-128250000D01*
X152200000Y-127050000D02*
X152200000Y-123400000D01*
X119291017Y-109691017D02*
X119291017Y-110400000D01*
X145575000Y-129150000D02*
X145500000Y-129150000D01*
D32*
X153075000Y-115175000D02*
X153350000Y-115450000D01*
D33*
X115665000Y-127115000D02*
X115665000Y-122400000D01*
D32*
X178850000Y-116800000D02*
X179000000Y-116950000D01*
X169460000Y-118339997D02*
X169249997Y-118550000D01*
X152800000Y-127650000D02*
X152300000Y-127150000D01*
X171700000Y-116750000D02*
X171750000Y-116800000D01*
D33*
X114964602Y-108300000D02*
X117900000Y-108300000D01*
X145500000Y-129150000D02*
X141950000Y-125600000D01*
D32*
X171015613Y-116750000D02*
X169460000Y-118305613D01*
X169460000Y-118305613D02*
X169460000Y-118339997D01*
D33*
X124600000Y-125600000D02*
X121950000Y-128250000D01*
D32*
X162150000Y-115650000D02*
X162150000Y-119350000D01*
X153075000Y-112700000D02*
X153075000Y-115175000D01*
D33*
X127100000Y-110400000D02*
X127950000Y-109550000D01*
X119291017Y-110400000D02*
X127100000Y-110400000D01*
X119291017Y-110400000D02*
X119291017Y-112750972D01*
X146316622Y-128408378D02*
X147600000Y-128408378D01*
D32*
X156150000Y-127650000D02*
X152800000Y-127650000D01*
D33*
X145575000Y-129150000D02*
X146316622Y-128408378D01*
D32*
X171700000Y-116750000D02*
X171015613Y-116750000D01*
D33*
X116800000Y-128250000D02*
X115665000Y-127115000D01*
X114934602Y-108270000D02*
X114964602Y-108300000D01*
X152200000Y-123400000D02*
X153250000Y-122350000D01*
X141950000Y-125600000D02*
X124600000Y-125600000D01*
X119500000Y-118565000D02*
X119500000Y-112959955D01*
X115665000Y-122400000D02*
X119500000Y-118565000D01*
X117900000Y-108300000D02*
X119291017Y-109691017D01*
D32*
X171750000Y-116800000D02*
X178850000Y-116800000D01*
X152850000Y-112475000D02*
X153075000Y-112700000D01*
D33*
%TO.N,+24V*%
X170700000Y-123800000D02*
X169900000Y-123000000D01*
X173050000Y-124350000D02*
X172500000Y-123800000D01*
X169900000Y-123000000D02*
X169900000Y-121700000D01*
X169900000Y-121700000D02*
X169200000Y-121000000D01*
X173600000Y-124450000D02*
X173500000Y-124350000D01*
X172500000Y-123800000D02*
X170700000Y-123800000D01*
X173500000Y-124350000D02*
X173050000Y-124350000D01*
X173600000Y-128300000D02*
X173600000Y-124450000D01*
D32*
%TO.N,/Power Stage/VCC*%
X158200000Y-144800000D02*
X161550000Y-141450000D01*
X155150000Y-145400000D02*
X155450000Y-145400000D01*
X155450000Y-145400000D02*
X156050000Y-144800000D01*
X156050000Y-144800000D02*
X158200000Y-144800000D01*
%TO.N,IO0_BTN*%
X142070485Y-120770485D02*
X142029888Y-120770485D01*
X130850000Y-108000000D02*
X128550000Y-105700000D01*
X126750000Y-107000000D02*
X123650000Y-107000000D01*
X147425000Y-126125000D02*
X142070485Y-120770485D01*
X136500000Y-108000000D02*
X130850000Y-108000000D01*
X128550000Y-105200000D02*
X126750000Y-107000000D01*
X128550000Y-105700000D02*
X128550000Y-105200000D01*
X149550000Y-126125000D02*
X147425000Y-126125000D01*
%TO.N,Net-(JP1-A)*%
X109175000Y-116155867D02*
X108802499Y-115783366D01*
X108802499Y-115783366D02*
X108802499Y-112181635D01*
X108802499Y-112181635D02*
X109967086Y-111017048D01*
%TO.N,EN_ESP32*%
X123500000Y-114350000D02*
X125150000Y-114350000D01*
%TO.N,Sense_Lock_1*%
X159412562Y-117697492D02*
X156660054Y-120450000D01*
X151015613Y-119500000D02*
X140950000Y-119500000D01*
X151965613Y-120450000D02*
X151015613Y-119500000D01*
X156660054Y-120450000D02*
X151965613Y-120450000D01*
%TO.N,Switch_Output_Lock_1*%
X189700000Y-129525000D02*
X189700000Y-130100000D01*
X189700000Y-130100000D02*
X195900000Y-136300000D01*
X195900000Y-136300000D02*
X201400000Y-136300000D01*
X201400000Y-136300000D02*
X202300000Y-137200000D01*
%TO.N,Drawer_DAC_VREF*%
X141940000Y-122140000D02*
X140940000Y-122140000D01*
X140940000Y-122140000D02*
X140875000Y-122075000D01*
X148084387Y-126900000D02*
X146700000Y-126900000D01*
X163888345Y-133154891D02*
X163888345Y-133138345D01*
X146700000Y-126900000D02*
X141940000Y-122140000D01*
X163888345Y-133138345D02*
X161650000Y-130900000D01*
X161650000Y-130900000D02*
X152084387Y-130900000D01*
X152084387Y-130900000D02*
X148084387Y-126900000D01*
%TO.N,Sense_Input_Drawer_Closed_1*%
X140465613Y-127700000D02*
X132200000Y-127700000D01*
X176800000Y-136750000D02*
X157250000Y-136750000D01*
X134250000Y-121450000D02*
X134250000Y-116000000D01*
X130700000Y-124800000D02*
X130900000Y-124800000D01*
X155750000Y-135250000D02*
X148015613Y-135250000D01*
X148015613Y-135250000D02*
X140465613Y-127700000D01*
X132200000Y-127700000D02*
X132050000Y-127550000D01*
X177200000Y-136350000D02*
X176800000Y-136750000D01*
X130900000Y-124800000D02*
X134250000Y-121450000D01*
X157250000Y-136750000D02*
X155750000Y-135250000D01*
D34*
%TO.N,USB_D+*%
X109908381Y-113857501D02*
X117657501Y-113857501D01*
X117657501Y-113857501D02*
X117800000Y-114000000D01*
X109708382Y-114057500D02*
X109908381Y-113857501D01*
%TO.N,USB_D-*%
X117542501Y-113407499D02*
X117800000Y-113150000D01*
X109908381Y-113407499D02*
X117542501Y-113407499D01*
X109708382Y-113207500D02*
X109908381Y-113407499D01*
D32*
%TO.N,SPI_SO*%
X156650000Y-114874033D02*
X156650000Y-112250000D01*
X155224930Y-116299103D02*
X156650000Y-114874033D01*
X156650000Y-112250000D02*
X156800000Y-112100000D01*
X161510000Y-107440000D02*
X161510000Y-104540000D01*
X156800000Y-112100000D02*
X156850000Y-112100000D01*
X156850000Y-112100000D02*
X161510000Y-107440000D01*
%TO.N,SPI_CS*%
X159675000Y-104575000D02*
X161110000Y-103140000D01*
X162910000Y-103140000D02*
X164050000Y-102000000D01*
X136200000Y-113550000D02*
X136800000Y-112950000D01*
X161110000Y-103140000D02*
X162910000Y-103140000D01*
X136800000Y-112950000D02*
X147050000Y-112950000D01*
X159675000Y-104992575D02*
X159675000Y-104575000D01*
X154264254Y-110403321D02*
X159675000Y-104992575D01*
X148062816Y-110403321D02*
X154264254Y-110403321D01*
X136200000Y-117700000D02*
X136200000Y-113550000D01*
%TO.N,SPI_SCK*%
X154950000Y-115250000D02*
X154950000Y-111800000D01*
X153000000Y-117200000D02*
X154950000Y-115250000D01*
X154950000Y-111800000D02*
X159900000Y-106850000D01*
%TO.N,JTAG_TDO*%
X147990000Y-108790000D02*
X152160000Y-108790000D01*
X152160000Y-108790000D02*
X154800000Y-106150000D01*
X147850000Y-108650000D02*
X147990000Y-108790000D01*
X154800000Y-106150000D02*
X156090000Y-106150000D01*
X156090000Y-106150000D02*
X157700000Y-104540000D01*
%TO.N,JTAG_TCK*%
X146700000Y-107450000D02*
X152250000Y-107450000D01*
X146575000Y-107575000D02*
X146700000Y-107450000D01*
X152250000Y-107450000D02*
X155160000Y-104540000D01*
%TO.N,JTAG_TMS*%
X153025000Y-109450000D02*
X145950000Y-109450000D01*
X145950000Y-109450000D02*
X145200000Y-108700000D01*
X156450000Y-106875000D02*
X155600000Y-106875000D01*
X143692021Y-108700000D02*
X143278854Y-108286833D01*
X155600000Y-106875000D02*
X153025000Y-109450000D01*
X145200000Y-108700000D02*
X143692021Y-108700000D01*
%TO.N,JTAG_TDI*%
X152620000Y-102000000D02*
X151150000Y-103470000D01*
X151150000Y-103470000D02*
X151150000Y-106400000D01*
X150700000Y-106850000D02*
X145800000Y-106850000D01*
X151150000Y-106400000D02*
X150700000Y-106850000D01*
X145800000Y-106850000D02*
X145100000Y-107550000D01*
%TO.N,Net-(Q4-D)*%
X188900000Y-143700000D02*
X189500000Y-143100000D01*
X185100000Y-143700000D02*
X188900000Y-143700000D01*
%TO.N,RTS*%
X118650000Y-115650000D02*
X117000000Y-117300000D01*
X117000000Y-117300000D02*
X113150000Y-117300000D01*
D35*
%TO.N,CAN+*%
X136350000Y-133950000D02*
X136350000Y-130650000D01*
X136350000Y-130650000D02*
X136450000Y-130550000D01*
X134450000Y-139900000D02*
X134450000Y-135850000D01*
X134450000Y-135850000D02*
X136350000Y-133950000D01*
%TO.N,CAN-*%
X131700000Y-133200000D02*
X131700000Y-129700000D01*
X135216792Y-128450000D02*
X136066792Y-129300000D01*
X134450000Y-134500000D02*
X133000000Y-134500000D01*
X131700000Y-129700000D02*
X132950000Y-128450000D01*
X133000000Y-134500000D02*
X131700000Y-133200000D01*
X132950000Y-128450000D02*
X135216792Y-128450000D01*
X136066792Y-129300000D02*
X136300000Y-129300000D01*
D32*
%TO.N,RXD0*%
X148191234Y-113000000D02*
X148900000Y-113000000D01*
X135150000Y-112050000D02*
X147241234Y-112050000D01*
X131250000Y-115950000D02*
X135150000Y-112050000D01*
X129000000Y-115950000D02*
X131250000Y-115950000D01*
X147241234Y-112050000D02*
X148191234Y-113000000D01*
%TO.N,TXD0*%
X148115613Y-111750000D02*
X148900000Y-111750000D01*
X147365613Y-111000000D02*
X148115613Y-111750000D01*
X131050000Y-114750000D02*
X134800000Y-111000000D01*
X134800000Y-111000000D02*
X147365613Y-111000000D01*
X131000000Y-114750000D02*
X131050000Y-114750000D01*
%TO.N,SDA*%
X159525000Y-112490842D02*
X158715533Y-113300309D01*
X159525000Y-111325000D02*
X159525000Y-112490842D01*
X158715533Y-113300309D02*
X158715533Y-114593107D01*
%TO.N,Drawer_1_~EN_TMC2209*%
X180000000Y-115000000D02*
X180000000Y-116990996D01*
X178525000Y-114025000D02*
X179025000Y-114025000D01*
X180000000Y-116990996D02*
X178352354Y-118638642D01*
X179025000Y-114025000D02*
X180000000Y-115000000D01*
%TO.N,Drawer_1_DIAG*%
X166200000Y-117992314D02*
X166143098Y-117935412D01*
X166143098Y-113806902D02*
X168200001Y-111749999D01*
X168200001Y-111749999D02*
X172050000Y-111749999D01*
X166649997Y-125400000D02*
X166200000Y-124950003D01*
X166200000Y-124950003D02*
X166200000Y-117992314D01*
X166143098Y-117935412D02*
X166143098Y-113806902D01*
%TO.N,UART2_RX*%
X158481916Y-128431916D02*
X163500000Y-128431916D01*
X153750000Y-123700000D02*
X158481916Y-128431916D01*
X153750000Y-123680729D02*
X153750000Y-123700000D01*
%TO.N,LED_D_in*%
X129350000Y-117950000D02*
X130200000Y-117950000D01*
X117300000Y-126100000D02*
X121200000Y-126100000D01*
X121200000Y-126100000D02*
X129350000Y-117950000D01*
X130200000Y-117950000D02*
X131250000Y-116900000D01*
%TO.N,pe_0_~INT*%
X175437263Y-115687838D02*
X175196314Y-115446889D01*
X169703108Y-115446889D02*
X169200000Y-115949997D01*
X145400000Y-118150000D02*
X141050000Y-118150000D01*
X157800000Y-117500000D02*
X157400000Y-117900000D01*
X175196314Y-115446889D02*
X169703108Y-115446889D01*
X145650000Y-117900000D02*
X145400000Y-118150000D01*
X157400000Y-117900000D02*
X145650000Y-117900000D01*
%TO.N,Drawer_1_Encoder_A*%
X136163030Y-120772140D02*
X136185170Y-120750000D01*
X162650000Y-129250000D02*
X166500000Y-133100000D01*
X184300000Y-114650000D02*
X184300000Y-108950000D01*
X151300000Y-125450000D02*
X151300000Y-127550000D01*
X153000000Y-129250000D02*
X162650000Y-129250000D01*
X139850000Y-120750000D02*
X140419515Y-120180485D01*
X151300000Y-127550000D02*
X153000000Y-129250000D01*
X184900000Y-115250000D02*
X184300000Y-114650000D01*
X166500000Y-133100000D02*
X177900000Y-133100000D01*
X184900000Y-126100000D02*
X184900000Y-115250000D01*
X177900000Y-133100000D02*
X184900000Y-126100000D01*
X140419515Y-120180485D02*
X146030485Y-120180485D01*
X136185170Y-120750000D02*
X139850000Y-120750000D01*
X146030485Y-120180485D02*
X151300000Y-125450000D01*
%TO.N,Drawer_1_Encoder_B*%
X186450000Y-125956399D02*
X178506399Y-133900000D01*
X150450000Y-127900000D02*
X150450000Y-125800000D01*
X188399997Y-106799997D02*
X188800000Y-107200000D01*
X188800000Y-107200000D02*
X188800000Y-111100000D01*
X188800000Y-111100000D02*
X186450000Y-113450000D01*
X150450000Y-125800000D02*
X149100000Y-124450000D01*
X187700000Y-106799997D02*
X188399997Y-106799997D01*
X152550000Y-130000000D02*
X150450000Y-127900000D01*
X162100000Y-130000000D02*
X152550000Y-130000000D01*
X166000000Y-133900000D02*
X162100000Y-130000000D01*
X178506399Y-133900000D02*
X166000000Y-133900000D01*
X149100000Y-124450000D02*
X147300000Y-124450000D01*
X186450000Y-113450000D02*
X186450000Y-125956399D01*
%TO.N,Drawer_1_SPREAD*%
X168200000Y-115250000D02*
X170405388Y-113044612D01*
X170405388Y-113044612D02*
X172558771Y-113044612D01*
X168200000Y-120900000D02*
X168200000Y-115250000D01*
%TO.N,Drawer_1_INDEX*%
X161100000Y-125750000D02*
X162300000Y-126950000D01*
X161100000Y-122500000D02*
X161100000Y-125750000D01*
X162300000Y-126950000D02*
X162300000Y-127442904D01*
X163100000Y-111050000D02*
X163100000Y-120500000D01*
X163100000Y-120500000D02*
X161100000Y-122500000D01*
X168200000Y-108475000D02*
X165675000Y-108475000D01*
X162300000Y-127442904D02*
X162293935Y-127448969D01*
X165675000Y-108475000D02*
X163100000Y-111050000D01*
%TO.N,Drawer_1_DIR*%
X170950000Y-131450000D02*
X168900000Y-129400000D01*
X167450000Y-121300000D02*
X167450000Y-114300000D01*
X169350000Y-112400000D02*
X169400000Y-112400000D01*
X168900000Y-122750000D02*
X167450000Y-121300000D01*
X168900000Y-129400000D02*
X168900000Y-122750000D01*
X170950000Y-131500000D02*
X170950000Y-131450000D01*
X167450000Y-114300000D02*
X169350000Y-112400000D01*
%TO.N,Drawer_1_STEP*%
X166375000Y-109800000D02*
X168250000Y-109800000D01*
X166400000Y-131950000D02*
X166400000Y-131850000D01*
X166400000Y-131850000D02*
X164200343Y-129650343D01*
X164200343Y-111974657D02*
X166375000Y-109800000D01*
X164200343Y-129650343D02*
X164200343Y-111974657D01*
%TO.N,Drawer_1_Encoder_N*%
X141550000Y-123050000D02*
X146250000Y-127750000D01*
X193000000Y-115200000D02*
X195200000Y-113000000D01*
X149100000Y-128950000D02*
X149100000Y-129584387D01*
X157650000Y-132100000D02*
X161200000Y-135650000D01*
X135500000Y-122250000D02*
X136300000Y-123050000D01*
X195200000Y-113000000D02*
X196550000Y-113000000D01*
X146250000Y-127750000D02*
X147900000Y-127750000D01*
X183900000Y-135650000D02*
X187800000Y-131750000D01*
X135500000Y-115350000D02*
X135500000Y-122250000D01*
X136300000Y-123050000D02*
X141550000Y-123050000D01*
X161200000Y-135650000D02*
X183900000Y-135650000D01*
X151615613Y-132100000D02*
X157650000Y-132100000D01*
X149100000Y-129584387D02*
X151615613Y-132100000D01*
X189800000Y-115200000D02*
X193000000Y-115200000D01*
X147900000Y-127750000D02*
X149100000Y-128950000D01*
X187800000Y-131750000D02*
X187800000Y-117200000D01*
X187800000Y-117200000D02*
X189800000Y-115200000D01*
X134450000Y-114300000D02*
X135500000Y-115350000D01*
%TO.N,Drawer_1_STDBY_TMC2209*%
X164963098Y-113436902D02*
X164963098Y-120313098D01*
X165300000Y-120650000D02*
X165300000Y-129434390D01*
X167400000Y-111000000D02*
X164963098Y-113436902D01*
X164963098Y-120313098D02*
X165300000Y-120650000D01*
X168226546Y-132360936D02*
X169564348Y-132360936D01*
X168350000Y-111000000D02*
X167400000Y-111000000D01*
X165300000Y-129434390D02*
X168226546Y-132360936D01*
%TO.N,Drawer_1_OA2*%
X175550000Y-127650000D02*
X179350000Y-127650000D01*
X173040000Y-129724700D02*
X173475300Y-129724700D01*
X173475300Y-129724700D02*
X175550000Y-127650000D01*
X181750000Y-125250000D02*
X182900000Y-125250000D01*
X179350000Y-127650000D02*
X181750000Y-125250000D01*
%TO.N,Net-(Q2-D)*%
X186224697Y-139500242D02*
X189299758Y-139500242D01*
X189299758Y-139500242D02*
X189600000Y-139200000D01*
%TD*%
%TA.AperFunction,Conductor*%
%TO.N,+24V*%
G36*
X170502882Y-138950201D02*
G01*
X170767704Y-139060852D01*
X170774016Y-139067204D01*
X170774487Y-139074702D01*
X170611342Y-139677977D01*
X170605875Y-139685069D01*
X170596994Y-139686217D01*
X170591775Y-139683196D01*
X170255313Y-139346734D01*
X170251989Y-139340008D01*
X170201761Y-138963212D01*
X170204064Y-138954561D01*
X170211812Y-138950071D01*
X170213319Y-138949968D01*
X170498346Y-138949298D01*
X170502882Y-138950201D01*
G37*
%TD.AperFunction*%
%TD*%
%TA.AperFunction,Conductor*%
%TO.N,+24V*%
G36*
X151355099Y-142906572D02*
G01*
X151693427Y-143244900D01*
X151696854Y-143253173D01*
X151694086Y-143260731D01*
X151320318Y-143702457D01*
X151312358Y-143706559D01*
X151303828Y-143703831D01*
X151303140Y-143703200D01*
X151099293Y-143500707D01*
X151099238Y-143500652D01*
X150896799Y-143296859D01*
X150893400Y-143288574D01*
X150896854Y-143280312D01*
X150897523Y-143279697D01*
X151339270Y-142905912D01*
X151347798Y-142903185D01*
X151355099Y-142906572D01*
G37*
%TD.AperFunction*%
%TD*%
%TA.AperFunction,Conductor*%
%TO.N,+5V*%
G36*
X121647507Y-121253427D02*
G01*
X121650894Y-121260728D01*
X121683840Y-121656094D01*
X121683761Y-121658731D01*
X121678820Y-121693106D01*
X121698049Y-121826857D01*
X121698128Y-121827550D01*
X121698947Y-121837370D01*
X121696219Y-121845899D01*
X121688259Y-121850002D01*
X121687326Y-121850042D01*
X121400039Y-121850999D01*
X121399961Y-121850999D01*
X121112673Y-121850042D01*
X121104411Y-121846588D01*
X121101012Y-121838303D01*
X121101052Y-121837370D01*
X121101871Y-121827550D01*
X121149106Y-121260728D01*
X121153208Y-121252768D01*
X121160766Y-121250000D01*
X121639234Y-121250000D01*
X121647507Y-121253427D01*
G37*
%TD.AperFunction*%
%TD*%
%TA.AperFunction,Conductor*%
%TO.N,+5V*%
G36*
X125296171Y-111196168D02*
G01*
X125296859Y-111196799D01*
X125500707Y-111399293D01*
X125500762Y-111399348D01*
X125703200Y-111603140D01*
X125706599Y-111611425D01*
X125703145Y-111619687D01*
X125702456Y-111620318D01*
X125670407Y-111647435D01*
X125666147Y-111649729D01*
X125649877Y-111654507D01*
X125579265Y-111699887D01*
X125528802Y-111732318D01*
X125528800Y-111732319D01*
X125528800Y-111732320D01*
X125434552Y-111841087D01*
X125431234Y-111848352D01*
X125428150Y-111852422D01*
X125260731Y-111994086D01*
X125252201Y-111996814D01*
X125244900Y-111993427D01*
X124906572Y-111655099D01*
X124903145Y-111646826D01*
X124905911Y-111639271D01*
X125279683Y-111197540D01*
X125287641Y-111193440D01*
X125296171Y-111196168D01*
G37*
%TD.AperFunction*%
%TD*%
%TA.AperFunction,Conductor*%
%TO.N,GND*%
G36*
X154387317Y-101679937D02*
G01*
X155156512Y-101998143D01*
X155162846Y-102004472D01*
X155162853Y-102004488D01*
X155480260Y-102773140D01*
X155480251Y-102782095D01*
X155473912Y-102788420D01*
X155472621Y-102788867D01*
X154064875Y-103185805D01*
X154055983Y-103184752D01*
X154050439Y-103177719D01*
X154050000Y-103174544D01*
X154050000Y-103011403D01*
X154050331Y-103008638D01*
X154105420Y-102782095D01*
X154371476Y-101687983D01*
X154376761Y-101680755D01*
X154385610Y-101679380D01*
X154387317Y-101679937D01*
G37*
%TD.AperFunction*%
%TD*%
%TA.AperFunction,Conductor*%
%TO.N,GND*%
G36*
X154420222Y-102623685D02*
G01*
X154536159Y-102739622D01*
X154539586Y-102747895D01*
X154538526Y-102752762D01*
X154331843Y-103204576D01*
X154325285Y-103210674D01*
X154316759Y-103210532D01*
X154053815Y-103102563D01*
X154047463Y-103096251D01*
X154047436Y-103096184D01*
X153939577Y-102833508D01*
X153939604Y-102824553D01*
X153945803Y-102818305D01*
X154407355Y-102621197D01*
X154416308Y-102621100D01*
X154420222Y-102623685D01*
G37*
%TD.AperFunction*%
%TD*%
%TA.AperFunction,Conductor*%
%TO.N,+5V*%
G36*
X125145900Y-108753780D02*
G01*
X125150002Y-108761740D01*
X125150042Y-108762673D01*
X125151000Y-109050000D01*
X125151000Y-109050078D01*
X125150042Y-109337326D01*
X125146588Y-109345588D01*
X125138303Y-109348987D01*
X125137370Y-109348947D01*
X124560728Y-109300894D01*
X124552768Y-109296792D01*
X124550000Y-109289234D01*
X124550000Y-108810766D01*
X124553427Y-108802493D01*
X124560728Y-108799106D01*
X125137371Y-108751052D01*
X125145900Y-108753780D01*
G37*
%TD.AperFunction*%
%TD*%
%TA.AperFunction,Conductor*%
%TO.N,+5V*%
G36*
X151177178Y-136299910D02*
G01*
X151439648Y-136409575D01*
X151445959Y-136415926D01*
X151445932Y-136424881D01*
X151445779Y-136425230D01*
X151444484Y-136428066D01*
X151443986Y-136429035D01*
X151266560Y-136737811D01*
X151207027Y-136841419D01*
X151203374Y-136847776D01*
X151196280Y-136853242D01*
X151193229Y-136853647D01*
X150862240Y-136853647D01*
X150853967Y-136850220D01*
X150850540Y-136841947D01*
X150850552Y-136841419D01*
X150874497Y-136311134D01*
X150878293Y-136303024D01*
X150886143Y-136299962D01*
X151172636Y-136299007D01*
X151177178Y-136299910D01*
G37*
%TD.AperFunction*%
%TD*%
%TA.AperFunction,Conductor*%
%TO.N,+5V*%
G36*
X204046711Y-112215348D02*
G01*
X204504401Y-112418224D01*
X204510575Y-112424708D01*
X204510482Y-112433363D01*
X204402563Y-112696184D01*
X204396251Y-112702536D01*
X204396184Y-112702563D01*
X204133363Y-112810482D01*
X204124408Y-112810455D01*
X204118224Y-112804401D01*
X203915348Y-112346712D01*
X203915129Y-112337762D01*
X203917770Y-112333702D01*
X204033701Y-112217771D01*
X204041973Y-112214345D01*
X204046711Y-112215348D01*
G37*
%TD.AperFunction*%
%TD*%
%TA.AperFunction,Conductor*%
%TO.N,+5V*%
G36*
X168291094Y-104192500D02*
G01*
X169126216Y-104537438D01*
X169132553Y-104543763D01*
X169132562Y-104543784D01*
X169477494Y-105378893D01*
X169477485Y-105387848D01*
X169471147Y-105394174D01*
X169470856Y-105394289D01*
X167749684Y-106051972D01*
X167740733Y-106051724D01*
X167737235Y-106049316D01*
X167620683Y-105932764D01*
X167617256Y-105924491D01*
X167618026Y-105920318D01*
X168275711Y-104199141D01*
X168281864Y-104192638D01*
X168290815Y-104192390D01*
X168291094Y-104192500D01*
G37*
%TD.AperFunction*%
%TD*%
%TA.AperFunction,Conductor*%
%TO.N,+5V*%
G36*
X113762618Y-103701051D02*
G01*
X114339272Y-103749106D01*
X114347232Y-103753208D01*
X114350000Y-103760766D01*
X114350000Y-104239234D01*
X114346573Y-104247507D01*
X114339272Y-104250894D01*
X113762629Y-104298947D01*
X113754099Y-104296219D01*
X113749997Y-104288259D01*
X113749957Y-104287345D01*
X113749000Y-104000000D01*
X113749957Y-103712671D01*
X113753411Y-103704411D01*
X113761696Y-103701012D01*
X113762618Y-103701051D01*
G37*
%TD.AperFunction*%
%TD*%
%TA.AperFunction,Conductor*%
%TO.N,+5V*%
G36*
X187667631Y-138218753D02*
G01*
X188102291Y-138579696D01*
X188106466Y-138587618D01*
X188103817Y-138596172D01*
X188103117Y-138596943D01*
X187902373Y-138799029D01*
X187898516Y-138801606D01*
X187633192Y-138910552D01*
X187624237Y-138910525D01*
X187618131Y-138904646D01*
X187601712Y-138869194D01*
X187600751Y-138865953D01*
X187585165Y-138757543D01*
X187525377Y-138626627D01*
X187484711Y-138579696D01*
X187449119Y-138538619D01*
X187447344Y-138535874D01*
X187415372Y-138466838D01*
X187415005Y-138457891D01*
X187417714Y-138453650D01*
X187651884Y-138219480D01*
X187660156Y-138216054D01*
X187667631Y-138218753D01*
G37*
%TD.AperFunction*%
%TD*%
%TA.AperFunction,Conductor*%
%TO.N,+5V*%
G36*
X153945900Y-133303780D02*
G01*
X153950002Y-133311740D01*
X153950042Y-133312673D01*
X153951000Y-133600000D01*
X153951000Y-133600078D01*
X153950042Y-133887326D01*
X153946588Y-133895588D01*
X153938303Y-133898987D01*
X153937370Y-133898947D01*
X153360728Y-133850894D01*
X153352768Y-133846792D01*
X153350000Y-133839234D01*
X153350000Y-133360766D01*
X153353427Y-133352493D01*
X153360728Y-133349106D01*
X153937371Y-133301052D01*
X153945900Y-133303780D01*
G37*
%TD.AperFunction*%
%TD*%
%TA.AperFunction,Conductor*%
%TO.N,+5V*%
G36*
X189890246Y-105403427D02*
G01*
X189892889Y-105407489D01*
X189920561Y-105479225D01*
X189921226Y-105485100D01*
X189919050Y-105500241D01*
X189939531Y-105642697D01*
X189939532Y-105642699D01*
X189999320Y-105773615D01*
X190056135Y-105839184D01*
X190060707Y-105844460D01*
X190062781Y-105847911D01*
X190073067Y-105874575D01*
X190072847Y-105883527D01*
X190066662Y-105889582D01*
X189804511Y-105999115D01*
X189795556Y-105999142D01*
X189795489Y-105999115D01*
X189533337Y-105889582D01*
X189527025Y-105883230D01*
X189526932Y-105874576D01*
X189707111Y-105407488D01*
X189713286Y-105401004D01*
X189718027Y-105400000D01*
X189881973Y-105400000D01*
X189890246Y-105403427D01*
G37*
%TD.AperFunction*%
%TD*%
%TA.AperFunction,Conductor*%
%TO.N,+5V*%
G36*
X190066662Y-101110417D02*
G01*
X190072974Y-101116769D01*
X190073067Y-101125424D01*
X189892889Y-101592511D01*
X189886714Y-101598996D01*
X189881973Y-101600000D01*
X189718027Y-101600000D01*
X189709754Y-101596573D01*
X189707111Y-101592511D01*
X189526932Y-101125424D01*
X189527152Y-101116472D01*
X189533336Y-101110417D01*
X189795490Y-101000883D01*
X189804444Y-101000857D01*
X190066662Y-101110417D01*
G37*
%TD.AperFunction*%
%TD*%
%TA.AperFunction,Conductor*%
%TO.N,+5V*%
G36*
X206942800Y-119361108D02*
G01*
X208640744Y-119995762D01*
X208647293Y-120001867D01*
X208647606Y-120010816D01*
X208647461Y-120011187D01*
X208303006Y-120845138D01*
X208296680Y-120851476D01*
X208294836Y-120852068D01*
X207335457Y-121074655D01*
X207326624Y-121073187D01*
X207321685Y-121066870D01*
X207251771Y-120851476D01*
X206810687Y-119492569D01*
X206811392Y-119483644D01*
X206813539Y-119480689D01*
X206930434Y-119363794D01*
X206938706Y-119360368D01*
X206942800Y-119361108D01*
G37*
%TD.AperFunction*%
%TD*%
%TA.AperFunction,Conductor*%
%TO.N,+5V*%
G36*
X190075591Y-105889544D02*
G01*
X190081775Y-105895598D01*
X190252953Y-106281776D01*
X190284650Y-106353285D01*
X190284870Y-106362237D01*
X190282227Y-106366299D01*
X190166299Y-106482227D01*
X190158026Y-106485654D01*
X190153285Y-106484650D01*
X189873481Y-106360624D01*
X189695598Y-106281775D01*
X189689424Y-106275291D01*
X189689516Y-106266638D01*
X189797436Y-106003814D01*
X189803746Y-105997464D01*
X190066638Y-105889517D01*
X190075591Y-105889544D01*
G37*
%TD.AperFunction*%
%TD*%
%TA.AperFunction,Conductor*%
%TO.N,+5V*%
G36*
X204675591Y-112589544D02*
G01*
X204681775Y-112595598D01*
X204852953Y-112981776D01*
X204884650Y-113053285D01*
X204884870Y-113062237D01*
X204882227Y-113066299D01*
X204766299Y-113182227D01*
X204758026Y-113185654D01*
X204753285Y-113184650D01*
X204473481Y-113060624D01*
X204295598Y-112981775D01*
X204289424Y-112975291D01*
X204289516Y-112966638D01*
X204397436Y-112703814D01*
X204403746Y-112697464D01*
X204666638Y-112589517D01*
X204675591Y-112589544D01*
G37*
%TD.AperFunction*%
%TD*%
%TA.AperFunction,Conductor*%
%TO.N,+5V*%
G36*
X156429239Y-146056726D02*
G01*
X156429836Y-146057949D01*
X156538688Y-146318471D01*
X156538715Y-146327426D01*
X156538688Y-146327493D01*
X156428587Y-146591004D01*
X156422235Y-146597316D01*
X156415121Y-146597884D01*
X155963923Y-146492116D01*
X155956650Y-146486892D01*
X155954893Y-146480725D01*
X155954893Y-146316844D01*
X155958320Y-146308571D01*
X155960855Y-146306647D01*
X156413309Y-146052260D01*
X156422197Y-146051194D01*
X156429239Y-146056726D01*
G37*
%TD.AperFunction*%
%TD*%
%TA.AperFunction,Conductor*%
%TO.N,+5V*%
G36*
X156792636Y-123149780D02*
G01*
X156793513Y-123150762D01*
X157055633Y-123479712D01*
X157058109Y-123488317D01*
X157054776Y-123495257D01*
X156853446Y-123697537D01*
X156845181Y-123700983D01*
X156845114Y-123700983D01*
X156562992Y-123700043D01*
X156554730Y-123696589D01*
X156551331Y-123688304D01*
X156551397Y-123687100D01*
X156608869Y-123156792D01*
X156613167Y-123148937D01*
X156620501Y-123146353D01*
X156784363Y-123146353D01*
X156792636Y-123149780D01*
G37*
%TD.AperFunction*%
%TD*%
%TA.AperFunction,Conductor*%
%TO.N,+5V*%
G36*
X126299480Y-127043013D02*
G01*
X126302574Y-127043271D01*
X126304887Y-127043702D01*
X126322679Y-127048926D01*
X126328038Y-127050500D01*
X126388827Y-127050500D01*
X126389799Y-127050540D01*
X126876135Y-127091068D01*
X126884095Y-127095170D01*
X126886863Y-127102728D01*
X126886863Y-127581196D01*
X126883436Y-127589469D01*
X126876135Y-127592856D01*
X126299492Y-127640909D01*
X126290962Y-127638181D01*
X126286860Y-127630221D01*
X126286820Y-127629307D01*
X126285863Y-127341962D01*
X126286820Y-127054632D01*
X126290274Y-127046372D01*
X126298559Y-127042973D01*
X126299480Y-127043013D01*
G37*
%TD.AperFunction*%
%TD*%
%TA.AperFunction,Conductor*%
%TO.N,+3V3*%
G36*
X152375600Y-126573318D02*
G01*
X152378057Y-126576928D01*
X152475078Y-126800233D01*
X152572435Y-127024311D01*
X152572589Y-127033264D01*
X152566366Y-127039704D01*
X152566215Y-127039769D01*
X152302182Y-127150088D01*
X152297632Y-127150992D01*
X152012174Y-127150040D01*
X152003912Y-127146586D01*
X152000513Y-127138301D01*
X152000524Y-127137836D01*
X152004948Y-127035195D01*
X152024518Y-126581087D01*
X152028298Y-126572969D01*
X152036207Y-126569891D01*
X152367327Y-126569891D01*
X152375600Y-126573318D01*
G37*
%TD.AperFunction*%
%TD*%
%TA.AperFunction,Conductor*%
%TO.N,+3V3*%
G36*
X153167999Y-114965977D02*
G01*
X153550599Y-115229912D01*
X153555463Y-115237431D01*
X153553586Y-115246187D01*
X153552248Y-115247797D01*
X153353446Y-115447537D01*
X153345181Y-115450983D01*
X153345114Y-115450983D01*
X153060205Y-115450034D01*
X153051943Y-115446580D01*
X153048647Y-115439885D01*
X153022961Y-115247797D01*
X152986772Y-114977159D01*
X152989072Y-114968504D01*
X152996818Y-114964011D01*
X152998369Y-114963908D01*
X153161355Y-114963908D01*
X153167999Y-114965977D01*
G37*
%TD.AperFunction*%
%TD*%
%TA.AperFunction,Conductor*%
%TO.N,+3V3*%
G36*
X115669484Y-122400863D02*
G01*
X116439230Y-122720682D01*
X116445555Y-122727021D01*
X116445546Y-122735976D01*
X116445435Y-122736234D01*
X115843087Y-124093047D01*
X115836598Y-124099218D01*
X115832393Y-124100000D01*
X115497607Y-124100000D01*
X115489334Y-124096573D01*
X115486913Y-124093047D01*
X114884563Y-122736232D01*
X114884340Y-122727282D01*
X114890511Y-122720793D01*
X114890714Y-122720705D01*
X115660511Y-122400864D01*
X115669466Y-122400856D01*
X115669484Y-122400863D01*
G37*
%TD.AperFunction*%
%TD*%
%TA.AperFunction,Conductor*%
%TO.N,+3V3*%
G36*
X152573650Y-127040341D02*
G01*
X152579962Y-127046693D01*
X152580720Y-127049472D01*
X152584056Y-127072677D01*
X152584057Y-127072679D01*
X152643845Y-127203595D01*
X152648453Y-127208913D01*
X152659005Y-127221093D01*
X152660858Y-127224013D01*
X152784650Y-127503285D01*
X152784870Y-127512237D01*
X152782227Y-127516299D01*
X152666299Y-127632227D01*
X152658026Y-127635654D01*
X152653285Y-127634650D01*
X152373481Y-127510624D01*
X152195598Y-127431775D01*
X152189424Y-127425291D01*
X152189516Y-127416638D01*
X152297436Y-127153814D01*
X152303746Y-127147464D01*
X152564697Y-127040314D01*
X152573650Y-127040341D01*
G37*
%TD.AperFunction*%
%TD*%
%TA.AperFunction,Conductor*%
%TO.N,+3V3*%
G36*
X115520046Y-108122631D02*
G01*
X115527110Y-108128134D01*
X115528635Y-108133910D01*
X115528635Y-108465022D01*
X115525208Y-108473295D01*
X115518783Y-108476575D01*
X114948104Y-108567840D01*
X114939393Y-108565763D01*
X114934703Y-108558135D01*
X114934556Y-108556326D01*
X114933609Y-108272362D01*
X114934511Y-108267822D01*
X115045435Y-108002341D01*
X115051786Y-107996031D01*
X115059339Y-107995575D01*
X115520046Y-108122631D01*
G37*
%TD.AperFunction*%
%TD*%
%TA.AperFunction,Conductor*%
%TO.N,+3V3*%
G36*
X145252004Y-128650789D02*
G01*
X145680170Y-128867949D01*
X145685999Y-128874748D01*
X145685701Y-128882828D01*
X145576606Y-129148516D01*
X145574029Y-129152373D01*
X145372212Y-129352849D01*
X145363927Y-129356248D01*
X145355665Y-129352794D01*
X145354755Y-129351763D01*
X145003333Y-128902595D01*
X145000935Y-128893969D01*
X145004275Y-128887115D01*
X145238440Y-128652950D01*
X145246712Y-128649524D01*
X145252004Y-128650789D01*
G37*
%TD.AperFunction*%
%TD*%
%TA.AperFunction,Conductor*%
%TO.N,+3V3*%
G36*
X169592602Y-118057555D02*
G01*
X169703756Y-118168709D01*
X169707183Y-118176982D01*
X169704325Y-118184644D01*
X169624622Y-118276628D01*
X169564834Y-118407544D01*
X169544353Y-118550000D01*
X169551253Y-118597993D01*
X169550593Y-118603857D01*
X169531455Y-118653635D01*
X169525287Y-118660127D01*
X169516335Y-118660357D01*
X169516090Y-118660259D01*
X169253812Y-118552563D01*
X169247460Y-118546251D01*
X169247433Y-118546184D01*
X169139352Y-118282968D01*
X169139379Y-118274013D01*
X169145027Y-118268017D01*
X169579182Y-118055320D01*
X169588119Y-118054759D01*
X169592602Y-118057555D01*
G37*
%TD.AperFunction*%
%TD*%
%TA.AperFunction,Conductor*%
%TO.N,+3V3*%
G36*
X162240246Y-118753427D02*
G01*
X162242889Y-118757489D01*
X162423067Y-119224575D01*
X162422847Y-119233527D01*
X162416662Y-119239582D01*
X162154510Y-119349115D01*
X162145555Y-119349142D01*
X162145502Y-119349120D01*
X161886611Y-119240950D01*
X161880300Y-119234599D01*
X161880327Y-119225644D01*
X161880447Y-119225369D01*
X161883328Y-119219062D01*
X161885677Y-119202722D01*
X161886336Y-119200195D01*
X162057111Y-118757488D01*
X162063286Y-118751004D01*
X162068027Y-118750000D01*
X162231973Y-118750000D01*
X162240246Y-118753427D01*
G37*
%TD.AperFunction*%
%TD*%
%TA.AperFunction,Conductor*%
%TO.N,+3V3*%
G36*
X162416662Y-115760417D02*
G01*
X162422974Y-115766769D01*
X162423067Y-115775424D01*
X162242889Y-116242511D01*
X162236714Y-116248996D01*
X162231973Y-116250000D01*
X162068027Y-116250000D01*
X162059754Y-116246573D01*
X162057111Y-116242511D01*
X161876932Y-115775424D01*
X161877152Y-115766472D01*
X161883336Y-115760417D01*
X162145490Y-115650883D01*
X162154444Y-115650857D01*
X162416662Y-115760417D01*
G37*
%TD.AperFunction*%
%TD*%
%TA.AperFunction,Conductor*%
%TO.N,+3V3*%
G36*
X127681790Y-109438871D02*
G01*
X127738126Y-109462004D01*
X127946184Y-109547436D01*
X127952536Y-109553748D01*
X127952563Y-109553815D01*
X128061127Y-109818208D01*
X128061100Y-109827163D01*
X128056695Y-109832452D01*
X127657431Y-110092821D01*
X127648629Y-110094470D01*
X127642767Y-110091294D01*
X127408705Y-109857232D01*
X127405278Y-109848959D01*
X127407177Y-109842569D01*
X127667548Y-109443302D01*
X127674936Y-109438246D01*
X127681790Y-109438871D01*
G37*
%TD.AperFunction*%
%TD*%
%TA.AperFunction,Conductor*%
%TO.N,+3V3*%
G36*
X119464797Y-112154399D02*
G01*
X119467973Y-112160261D01*
X119566186Y-112626692D01*
X119564537Y-112635494D01*
X119559248Y-112639899D01*
X119295528Y-112750087D01*
X119286573Y-112750114D01*
X119286506Y-112750087D01*
X119022785Y-112639899D01*
X119016473Y-112633547D01*
X119015847Y-112626695D01*
X119114061Y-112160260D01*
X119119119Y-112152872D01*
X119125510Y-112150972D01*
X119456524Y-112150972D01*
X119464797Y-112154399D01*
G37*
%TD.AperFunction*%
%TD*%
%TA.AperFunction,Conductor*%
%TO.N,+3V3*%
G36*
X147484522Y-128134857D02*
G01*
X147488927Y-128140146D01*
X147599115Y-128403867D01*
X147599142Y-128412822D01*
X147599115Y-128412889D01*
X147488927Y-128676609D01*
X147482575Y-128682921D01*
X147475720Y-128683547D01*
X147009289Y-128585333D01*
X147001900Y-128580275D01*
X147000000Y-128573884D01*
X147000000Y-128242871D01*
X147003427Y-128234598D01*
X147009289Y-128231422D01*
X147475722Y-128133208D01*
X147484522Y-128134857D01*
G37*
%TD.AperFunction*%
%TD*%
%TA.AperFunction,Conductor*%
%TO.N,+3V3*%
G36*
X156033527Y-127377152D02*
G01*
X156039582Y-127383337D01*
X156149115Y-127645489D01*
X156149142Y-127654444D01*
X156149115Y-127654511D01*
X156039582Y-127916662D01*
X156033230Y-127922974D01*
X156024575Y-127923067D01*
X155557489Y-127742888D01*
X155551004Y-127736713D01*
X155550000Y-127731972D01*
X155550000Y-127568027D01*
X155553427Y-127559754D01*
X155557489Y-127557111D01*
X156024576Y-127376932D01*
X156033527Y-127377152D01*
G37*
%TD.AperFunction*%
%TD*%
%TA.AperFunction,Conductor*%
%TO.N,+3V3*%
G36*
X145882232Y-128608705D02*
G01*
X146116294Y-128842767D01*
X146119721Y-128851040D01*
X146117821Y-128857431D01*
X145857452Y-129256695D01*
X145850063Y-129261753D01*
X145843208Y-129261127D01*
X145578815Y-129152563D01*
X145572463Y-129146251D01*
X145572436Y-129146184D01*
X145463872Y-128881791D01*
X145463899Y-128872836D01*
X145468302Y-128867549D01*
X145867569Y-128607177D01*
X145876370Y-128605529D01*
X145882232Y-128608705D01*
G37*
%TD.AperFunction*%
%TD*%
%TA.AperFunction,Conductor*%
%TO.N,+3V3*%
G36*
X171583527Y-116477152D02*
G01*
X171589582Y-116483337D01*
X171699115Y-116745489D01*
X171699142Y-116754444D01*
X171699115Y-116754511D01*
X171589582Y-117016662D01*
X171583230Y-117022974D01*
X171574575Y-117023067D01*
X171107489Y-116842888D01*
X171101004Y-116836713D01*
X171100000Y-116831972D01*
X171100000Y-116668027D01*
X171103427Y-116659754D01*
X171107489Y-116657111D01*
X171574576Y-116476932D01*
X171583527Y-116477152D01*
G37*
%TD.AperFunction*%
%TD*%
%TA.AperFunction,Conductor*%
%TO.N,+3V3*%
G36*
X152981790Y-122238871D02*
G01*
X153038126Y-122262004D01*
X153246184Y-122347436D01*
X153252536Y-122353748D01*
X153252563Y-122353815D01*
X153361127Y-122618208D01*
X153361100Y-122627163D01*
X153356695Y-122632452D01*
X152957431Y-122892821D01*
X152948629Y-122894470D01*
X152942767Y-122891294D01*
X152708705Y-122657232D01*
X152705278Y-122648959D01*
X152707177Y-122642569D01*
X152967548Y-122243302D01*
X152974936Y-122238246D01*
X152981790Y-122238871D01*
G37*
%TD.AperFunction*%
%TD*%
%TA.AperFunction,Conductor*%
%TO.N,+3V3*%
G36*
X119581108Y-112750938D02*
G01*
X119589368Y-112754392D01*
X119592614Y-112760752D01*
X119672781Y-113251622D01*
X119670732Y-113260340D01*
X119663120Y-113265055D01*
X119661234Y-113265208D01*
X119330560Y-113265208D01*
X119322287Y-113261781D01*
X119321489Y-113260898D01*
X119085543Y-112971276D01*
X119082975Y-112962697D01*
X119086320Y-112955633D01*
X119287572Y-112753433D01*
X119295834Y-112749988D01*
X119581108Y-112750938D01*
G37*
%TD.AperFunction*%
%TD*%
%TA.AperFunction,Conductor*%
%TO.N,+3V3*%
G36*
X116745190Y-121077132D02*
G01*
X116748716Y-121079553D01*
X116985446Y-121316283D01*
X116988873Y-121324556D01*
X116988091Y-121328761D01*
X116454604Y-122714097D01*
X116448433Y-122720586D01*
X116439481Y-122720810D01*
X116439220Y-122720706D01*
X115668785Y-122402562D01*
X115662447Y-122396238D01*
X115344293Y-121625778D01*
X115344302Y-121616824D01*
X115350641Y-121610499D01*
X115350866Y-121610409D01*
X116736240Y-121076908D01*
X116745190Y-121077132D01*
G37*
%TD.AperFunction*%
%TD*%
%TA.AperFunction,Conductor*%
%TO.N,+3V3*%
G36*
X178995677Y-116653915D02*
G01*
X178999975Y-116661770D01*
X179000043Y-116662992D01*
X179000983Y-116945114D01*
X178997584Y-116953399D01*
X178997537Y-116953446D01*
X178795257Y-117154776D01*
X178786975Y-117158183D01*
X178779712Y-117155633D01*
X178778636Y-117154776D01*
X178525975Y-116953446D01*
X178450762Y-116893513D01*
X178446427Y-116885677D01*
X178446353Y-116884363D01*
X178446353Y-116720500D01*
X178449780Y-116712227D01*
X178456790Y-116708868D01*
X178987084Y-116651399D01*
X178995677Y-116653915D01*
G37*
%TD.AperFunction*%
%TD*%
%TA.AperFunction,Conductor*%
%TO.N,+3V3*%
G36*
X171825288Y-116478096D02*
G01*
X171825997Y-116478421D01*
X172283578Y-116706768D01*
X172289451Y-116713529D01*
X172290054Y-116717237D01*
X172290054Y-116881199D01*
X172286627Y-116889472D01*
X172281598Y-116892440D01*
X171824824Y-117024272D01*
X171815925Y-117023274D01*
X171810785Y-117017543D01*
X171700883Y-116754509D01*
X171700857Y-116745556D01*
X171700862Y-116745542D01*
X171809981Y-116484380D01*
X171816333Y-116478069D01*
X171825288Y-116478096D01*
G37*
%TD.AperFunction*%
%TD*%
%TA.AperFunction,Conductor*%
%TO.N,+3V3*%
G36*
X153138678Y-112474962D02*
G01*
X153146940Y-112478416D01*
X153150334Y-112486316D01*
X153164643Y-112969756D01*
X153161462Y-112978127D01*
X153153294Y-112981797D01*
X153152948Y-112981802D01*
X152989297Y-112981802D01*
X152981725Y-112979022D01*
X152647524Y-112695328D01*
X152643435Y-112687361D01*
X152646176Y-112678836D01*
X152646792Y-112678165D01*
X152846555Y-112477461D01*
X152854817Y-112474016D01*
X153138678Y-112474962D01*
G37*
%TD.AperFunction*%
%TD*%
%TA.AperFunction,Conductor*%
%TO.N,+24V*%
G36*
X169477163Y-120888899D02*
G01*
X169482452Y-120893304D01*
X169742821Y-121292568D01*
X169744470Y-121301370D01*
X169741294Y-121307232D01*
X169507232Y-121541294D01*
X169498959Y-121544721D01*
X169492568Y-121542821D01*
X169093304Y-121282452D01*
X169088246Y-121275063D01*
X169088872Y-121268208D01*
X169197436Y-121003815D01*
X169203746Y-120997464D01*
X169468209Y-120888872D01*
X169477163Y-120888899D01*
G37*
%TD.AperFunction*%
%TD*%
%TA.AperFunction,Conductor*%
%TO.N,+24V*%
G36*
X173496605Y-124055696D02*
G01*
X173500032Y-124063941D01*
X173500701Y-124348344D01*
X173499797Y-124352883D01*
X173389865Y-124615986D01*
X173383513Y-124622298D01*
X173374558Y-124622271D01*
X173374186Y-124622107D01*
X172835469Y-124374693D01*
X172829381Y-124368126D01*
X172829720Y-124359178D01*
X172832076Y-124355791D01*
X173065008Y-124122859D01*
X173071401Y-124119586D01*
X173485095Y-124052420D01*
X173486970Y-124052269D01*
X173488332Y-124052269D01*
X173496605Y-124055696D01*
G37*
%TD.AperFunction*%
%TD*%
%TA.AperFunction,Conductor*%
%TO.N,+24V*%
G36*
X173787826Y-124349959D02*
G01*
X173796087Y-124353413D01*
X173799486Y-124361698D01*
X173799475Y-124362163D01*
X173775482Y-124918913D01*
X173771702Y-124927031D01*
X173763793Y-124930109D01*
X173432673Y-124930109D01*
X173424400Y-124926682D01*
X173421942Y-124923071D01*
X173227563Y-124475687D01*
X173227410Y-124466735D01*
X173233633Y-124460295D01*
X173233729Y-124460253D01*
X173497822Y-124349909D01*
X173502362Y-124349007D01*
X173787826Y-124349959D01*
G37*
%TD.AperFunction*%
%TD*%
%TA.AperFunction,Conductor*%
%TO.N,+24V*%
G36*
X173773780Y-127703427D02*
G01*
X173776956Y-127709289D01*
X173875169Y-128175720D01*
X173873520Y-128184522D01*
X173868231Y-128188927D01*
X173604511Y-128299115D01*
X173595556Y-128299142D01*
X173595489Y-128299115D01*
X173331768Y-128188927D01*
X173325456Y-128182575D01*
X173324830Y-128175723D01*
X173423044Y-127709288D01*
X173428102Y-127701900D01*
X173434493Y-127700000D01*
X173765507Y-127700000D01*
X173773780Y-127703427D01*
G37*
%TD.AperFunction*%
%TD*%
%TA.AperFunction,Conductor*%
%TO.N,/Power Stage/VCC*%
G36*
X161283361Y-141339516D02*
G01*
X161472582Y-141417213D01*
X161546184Y-141447436D01*
X161552536Y-141453748D01*
X161552563Y-141453815D01*
X161660482Y-141716636D01*
X161660455Y-141725591D01*
X161654400Y-141731776D01*
X161196714Y-141934650D01*
X161187762Y-141934870D01*
X161183700Y-141932227D01*
X161067772Y-141816299D01*
X161064345Y-141808026D01*
X161065348Y-141803289D01*
X161268225Y-141345596D01*
X161274708Y-141339424D01*
X161283361Y-141339516D01*
G37*
%TD.AperFunction*%
%TD*%
%TA.AperFunction,Conductor*%
%TO.N,/Power Stage/VCC*%
G36*
X155162278Y-145100663D02*
G01*
X155594018Y-145123987D01*
X155601660Y-145127397D01*
X155717462Y-145243199D01*
X155720889Y-145251472D01*
X155717462Y-145259745D01*
X155717428Y-145259780D01*
X155370377Y-145603954D01*
X155362089Y-145607346D01*
X155353892Y-145603947D01*
X155152758Y-145404149D01*
X155149304Y-145395887D01*
X155149304Y-145395820D01*
X155149971Y-145112319D01*
X155153417Y-145104054D01*
X155161699Y-145100647D01*
X155162278Y-145100663D01*
G37*
%TD.AperFunction*%
%TD*%
%TA.AperFunction,Conductor*%
%TO.N,IO0_BTN*%
G36*
X124242511Y-106907111D02*
G01*
X124248996Y-106913286D01*
X124250000Y-106918027D01*
X124250000Y-107081972D01*
X124246573Y-107090245D01*
X124242511Y-107092888D01*
X123775424Y-107273067D01*
X123766472Y-107272847D01*
X123760417Y-107266662D01*
X123650883Y-107004509D01*
X123650857Y-106995556D01*
X123650862Y-106995542D01*
X123760417Y-106733336D01*
X123766769Y-106727025D01*
X123775423Y-106726932D01*
X124242511Y-106907111D01*
G37*
%TD.AperFunction*%
%TD*%
%TA.AperFunction,Conductor*%
%TO.N,IO0_BTN*%
G36*
X142305983Y-120659822D02*
G01*
X142311922Y-120665358D01*
X142506064Y-121051156D01*
X142530251Y-121099219D01*
X142530909Y-121108149D01*
X142528073Y-121112751D01*
X142412121Y-121228703D01*
X142403848Y-121232130D01*
X142399700Y-121231370D01*
X142108859Y-121121110D01*
X142106682Y-121120013D01*
X142060053Y-121090047D01*
X142060054Y-121090047D01*
X141927604Y-121051156D01*
X141920631Y-121045537D01*
X141919674Y-121036634D01*
X141920077Y-121035486D01*
X142027324Y-120774300D01*
X142033634Y-120767949D01*
X142297030Y-120659795D01*
X142305983Y-120659822D01*
G37*
%TD.AperFunction*%
%TD*%
%TA.AperFunction,Conductor*%
%TO.N,IO0_BTN*%
G36*
X136383527Y-107727152D02*
G01*
X136389582Y-107733337D01*
X136499115Y-107995489D01*
X136499142Y-108004444D01*
X136499115Y-108004511D01*
X136389582Y-108266662D01*
X136383230Y-108272974D01*
X136374575Y-108273067D01*
X135907489Y-108092888D01*
X135901004Y-108086713D01*
X135900000Y-108081972D01*
X135900000Y-107918027D01*
X135903427Y-107909754D01*
X135907489Y-107907111D01*
X136374576Y-107726932D01*
X136383527Y-107727152D01*
G37*
%TD.AperFunction*%
%TD*%
%TA.AperFunction,Conductor*%
%TO.N,IO0_BTN*%
G36*
X128283361Y-105089516D02*
G01*
X128472582Y-105167213D01*
X128546184Y-105197436D01*
X128552536Y-105203748D01*
X128552563Y-105203815D01*
X128660482Y-105466636D01*
X128660455Y-105475591D01*
X128654400Y-105481776D01*
X128196714Y-105684650D01*
X128187762Y-105684870D01*
X128183700Y-105682227D01*
X128067772Y-105566299D01*
X128064345Y-105558026D01*
X128065348Y-105553289D01*
X128268225Y-105095596D01*
X128274708Y-105089424D01*
X128283361Y-105089516D01*
G37*
%TD.AperFunction*%
%TD*%
%TA.AperFunction,Conductor*%
%TO.N,IO0_BTN*%
G36*
X128816833Y-105310510D02*
G01*
X128823157Y-105316850D01*
X128823336Y-105325317D01*
X128685236Y-105704635D01*
X128682515Y-105708905D01*
X128568112Y-105823308D01*
X128559839Y-105826735D01*
X128551566Y-105823308D01*
X128549578Y-105820654D01*
X128279072Y-105326205D01*
X128278108Y-105317304D01*
X128283722Y-105310327D01*
X128284822Y-105309796D01*
X128544795Y-105201171D01*
X128553748Y-105201145D01*
X128816833Y-105310510D01*
G37*
%TD.AperFunction*%
%TD*%
%TA.AperFunction,Conductor*%
%TO.N,IO0_BTN*%
G36*
X149433527Y-125852152D02*
G01*
X149439582Y-125858337D01*
X149549115Y-126120489D01*
X149549142Y-126129444D01*
X149549115Y-126129511D01*
X149439582Y-126391662D01*
X149433230Y-126397974D01*
X149424575Y-126398067D01*
X148957489Y-126217888D01*
X148951004Y-126211713D01*
X148950000Y-126206972D01*
X148950000Y-126043027D01*
X148953427Y-126034754D01*
X148957489Y-126032111D01*
X149424576Y-125851932D01*
X149433527Y-125852152D01*
G37*
%TD.AperFunction*%
%TD*%
%TA.AperFunction,Conductor*%
%TO.N,Net-(JP1-A)*%
G36*
X108894689Y-115711091D02*
G01*
X109279138Y-115874178D01*
X109285416Y-115880564D01*
X109285384Y-115889413D01*
X109176860Y-116152360D01*
X109170536Y-116158700D01*
X109170489Y-116158719D01*
X108909447Y-116265904D01*
X108900492Y-116265877D01*
X108894180Y-116259525D01*
X108893895Y-116258754D01*
X108860811Y-116158700D01*
X108717582Y-115725534D01*
X108718238Y-115716604D01*
X108725017Y-115710754D01*
X108728690Y-115710162D01*
X108890120Y-115710162D01*
X108894689Y-115711091D01*
G37*
%TD.AperFunction*%
%TD*%
%TA.AperFunction,Conductor*%
%TO.N,Net-(JP1-A)*%
G36*
X109700447Y-110906564D02*
G01*
X109889668Y-110984261D01*
X109963270Y-111014484D01*
X109969622Y-111020796D01*
X109969649Y-111020863D01*
X110077568Y-111283684D01*
X110077541Y-111292639D01*
X110071486Y-111298824D01*
X109613800Y-111501698D01*
X109604848Y-111501918D01*
X109600786Y-111499275D01*
X109484858Y-111383347D01*
X109481431Y-111375074D01*
X109482434Y-111370337D01*
X109685311Y-110912644D01*
X109691794Y-110906472D01*
X109700447Y-110906564D01*
G37*
%TD.AperFunction*%
%TD*%
%TA.AperFunction,Conductor*%
%TO.N,EN_ESP32*%
G36*
X124092511Y-114257111D02*
G01*
X124098996Y-114263286D01*
X124100000Y-114268027D01*
X124100000Y-114431972D01*
X124096573Y-114440245D01*
X124092511Y-114442888D01*
X123625424Y-114623067D01*
X123616472Y-114622847D01*
X123610417Y-114616662D01*
X123500883Y-114354509D01*
X123500857Y-114345556D01*
X123500862Y-114345542D01*
X123610417Y-114083336D01*
X123616769Y-114077025D01*
X123625423Y-114076932D01*
X124092511Y-114257111D01*
G37*
%TD.AperFunction*%
%TD*%
%TA.AperFunction,Conductor*%
%TO.N,EN_ESP32*%
G36*
X125033527Y-114077152D02*
G01*
X125039582Y-114083337D01*
X125149115Y-114345489D01*
X125149142Y-114354444D01*
X125149115Y-114354511D01*
X125039582Y-114616662D01*
X125033230Y-114622974D01*
X125024575Y-114623067D01*
X124557489Y-114442888D01*
X124551004Y-114436713D01*
X124550000Y-114431972D01*
X124550000Y-114268027D01*
X124553427Y-114259754D01*
X124557489Y-114257111D01*
X125024576Y-114076932D01*
X125033527Y-114077152D01*
G37*
%TD.AperFunction*%
%TD*%
%TA.AperFunction,Conductor*%
%TO.N,Sense_Lock_1*%
G36*
X159145923Y-117587008D02*
G01*
X159273457Y-117639376D01*
X159408746Y-117694928D01*
X159415098Y-117701240D01*
X159415125Y-117701307D01*
X159523044Y-117964128D01*
X159523017Y-117973083D01*
X159516962Y-117979268D01*
X159059276Y-118182142D01*
X159050324Y-118182362D01*
X159046262Y-118179719D01*
X158930334Y-118063791D01*
X158926907Y-118055518D01*
X158927910Y-118050781D01*
X159039754Y-117798458D01*
X159041596Y-117795557D01*
X159063487Y-117770294D01*
X159123275Y-117639378D01*
X159129290Y-117597541D01*
X159130169Y-117594483D01*
X159130785Y-117593092D01*
X159137266Y-117586918D01*
X159145923Y-117587008D01*
G37*
%TD.AperFunction*%
%TD*%
%TA.AperFunction,Conductor*%
%TO.N,Sense_Lock_1*%
G36*
X141542511Y-119407111D02*
G01*
X141548996Y-119413286D01*
X141550000Y-119418027D01*
X141550000Y-119581972D01*
X141546573Y-119590245D01*
X141542511Y-119592888D01*
X141075424Y-119773067D01*
X141066472Y-119772847D01*
X141060417Y-119766662D01*
X140950883Y-119504509D01*
X140950857Y-119495556D01*
X140950862Y-119495542D01*
X141060417Y-119233336D01*
X141066769Y-119227025D01*
X141075423Y-119226932D01*
X141542511Y-119407111D01*
G37*
%TD.AperFunction*%
%TD*%
%TA.AperFunction,Conductor*%
%TO.N,Switch_Output_Lock_1*%
G36*
X189965832Y-129635094D02*
G01*
X189972156Y-129641434D01*
X189972145Y-129650389D01*
X189971918Y-129650899D01*
X189782185Y-130052202D01*
X189779881Y-130055474D01*
X189666276Y-130169079D01*
X189658003Y-130172506D01*
X189649730Y-130169079D01*
X189647243Y-130165400D01*
X189600309Y-130055474D01*
X189489970Y-129797043D01*
X189489154Y-129794131D01*
X189485837Y-129771058D01*
X189430424Y-129649723D01*
X189430106Y-129640777D01*
X189436208Y-129634223D01*
X189436461Y-129634111D01*
X189694795Y-129526171D01*
X189703748Y-129526145D01*
X189965832Y-129635094D01*
G37*
%TD.AperFunction*%
%TD*%
%TA.AperFunction,Conductor*%
%TO.N,Switch_Output_Lock_1*%
G36*
X201946711Y-136715348D02*
G01*
X202213713Y-136833700D01*
X202236314Y-136843718D01*
X202237898Y-136844571D01*
X202309725Y-136890731D01*
X202402806Y-136918061D01*
X202409777Y-136923679D01*
X202410734Y-136932582D01*
X202410331Y-136933730D01*
X202302563Y-137196184D01*
X202296251Y-137202536D01*
X202296184Y-137202563D01*
X202033363Y-137310482D01*
X202024408Y-137310455D01*
X202018224Y-137304401D01*
X201815348Y-136846712D01*
X201815129Y-136837762D01*
X201817770Y-136833702D01*
X201933701Y-136717771D01*
X201941973Y-136714345D01*
X201946711Y-136715348D01*
G37*
%TD.AperFunction*%
%TD*%
%TA.AperFunction,Conductor*%
%TO.N,Drawer_DAC_VREF*%
G36*
X141000152Y-121803420D02*
G01*
X141001152Y-121803895D01*
X141201727Y-121910990D01*
X141455882Y-122046695D01*
X141461566Y-122053615D01*
X141462071Y-122057016D01*
X141462071Y-122220941D01*
X141458644Y-122229214D01*
X141453301Y-122232268D01*
X140999622Y-122349624D01*
X140990754Y-122348378D01*
X140985896Y-122342808D01*
X140934977Y-122220941D01*
X140875883Y-122079509D01*
X140875857Y-122070556D01*
X140875862Y-122070542D01*
X140984846Y-121809703D01*
X140991197Y-121803393D01*
X141000152Y-121803420D01*
G37*
%TD.AperFunction*%
%TD*%
%TA.AperFunction,Conductor*%
%TO.N,Drawer_DAC_VREF*%
G36*
X163545063Y-132663827D02*
G01*
X163993038Y-132873005D01*
X163999084Y-132879610D01*
X163998911Y-132888050D01*
X163890908Y-133151075D01*
X163884596Y-133157427D01*
X163884529Y-133157454D01*
X163621948Y-133265274D01*
X163612993Y-133265247D01*
X163606704Y-133258950D01*
X163564422Y-133157454D01*
X163413372Y-132794870D01*
X163413355Y-132785918D01*
X163415898Y-132782102D01*
X163531845Y-132666155D01*
X163540117Y-132662729D01*
X163545063Y-132663827D01*
G37*
%TD.AperFunction*%
%TD*%
%TA.AperFunction,Conductor*%
%TO.N,Sense_Input_Drawer_Closed_1*%
G36*
X132270286Y-127344365D02*
G01*
X132599238Y-127606487D01*
X132603573Y-127614321D01*
X132603647Y-127615636D01*
X132603647Y-127779499D01*
X132600220Y-127787772D01*
X132593208Y-127791131D01*
X132062917Y-127848600D01*
X132054322Y-127846084D01*
X132050024Y-127838229D01*
X132049956Y-127837020D01*
X132049016Y-127554884D01*
X132052414Y-127546601D01*
X132254742Y-127345222D01*
X132263024Y-127341816D01*
X132270286Y-127344365D01*
G37*
%TD.AperFunction*%
%TD*%
%TA.AperFunction,Conductor*%
%TO.N,Sense_Input_Drawer_Closed_1*%
G36*
X134516662Y-116110417D02*
G01*
X134522974Y-116116769D01*
X134523067Y-116125424D01*
X134342889Y-116592511D01*
X134336714Y-116598996D01*
X134331973Y-116600000D01*
X134168027Y-116600000D01*
X134159754Y-116596573D01*
X134157111Y-116592511D01*
X133976932Y-116125424D01*
X133977152Y-116116472D01*
X133983336Y-116110417D01*
X134245490Y-116000883D01*
X134254444Y-116000857D01*
X134516662Y-116110417D01*
G37*
%TD.AperFunction*%
%TD*%
%TA.AperFunction,Conductor*%
%TO.N,Sense_Input_Drawer_Closed_1*%
G36*
X176934041Y-136239819D02*
G01*
X177196494Y-136348140D01*
X177202833Y-136354463D01*
X177202852Y-136354510D01*
X177310271Y-136616124D01*
X177310244Y-136625079D01*
X177303892Y-136631391D01*
X177303676Y-136631477D01*
X176781613Y-136833826D01*
X176772661Y-136833621D01*
X176766476Y-136827145D01*
X176765685Y-136822917D01*
X176765685Y-136662093D01*
X176766412Y-136658034D01*
X176776237Y-136631477D01*
X176918623Y-136246582D01*
X176924707Y-136240012D01*
X176933655Y-136239669D01*
X176934041Y-136239819D01*
G37*
%TD.AperFunction*%
%TD*%
%TA.AperFunction,Conductor*%
%TO.N,Sense_Input_Drawer_Closed_1*%
G36*
X131134808Y-124443880D02*
G01*
X131136008Y-124444927D01*
X131251859Y-124560778D01*
X131255286Y-124569051D01*
X131252804Y-124576256D01*
X130920247Y-125001749D01*
X130912453Y-125006157D01*
X130903824Y-125003762D01*
X130902783Y-125002845D01*
X130702758Y-124804149D01*
X130699304Y-124795887D01*
X130699304Y-124795820D01*
X130699966Y-124514526D01*
X130703412Y-124506261D01*
X130711666Y-124502854D01*
X130833318Y-124502854D01*
X130967366Y-124463494D01*
X130969041Y-124463135D01*
X131126148Y-124441608D01*
X131134808Y-124443880D01*
G37*
%TD.AperFunction*%
%TD*%
%TA.AperFunction,Conductor*%
%TO.N,USB_D+*%
G36*
X110225194Y-113760927D02*
G01*
X110228621Y-113769200D01*
X110228621Y-113952698D01*
X110225248Y-113960917D01*
X110162760Y-114024220D01*
X110160759Y-114025844D01*
X110083716Y-114075358D01*
X110083715Y-114075359D01*
X109989465Y-114184130D01*
X109977024Y-114211370D01*
X109974709Y-114214728D01*
X109928767Y-114261270D01*
X109920516Y-114264751D01*
X109912221Y-114261378D01*
X109710843Y-114060945D01*
X109707398Y-114052680D01*
X109707398Y-114052614D01*
X109707488Y-114025844D01*
X109708343Y-113769160D01*
X109711797Y-113760899D01*
X109720042Y-113757500D01*
X110216923Y-113757500D01*
X110225194Y-113760927D01*
G37*
%TD.AperFunction*%
%TD*%
%TA.AperFunction,Conductor*%
%TO.N,USB_D+*%
G36*
X117795726Y-113703885D02*
G01*
X117799982Y-113711764D01*
X117800043Y-113712923D01*
X117800983Y-113995114D01*
X117797584Y-114003399D01*
X117797537Y-114003446D01*
X117597208Y-114202833D01*
X117588926Y-114206240D01*
X117580661Y-114202794D01*
X117580126Y-114202217D01*
X117502252Y-114112345D01*
X117381177Y-114034535D01*
X117361808Y-114028847D01*
X117324855Y-114017997D01*
X117321223Y-114016199D01*
X117246113Y-113961007D01*
X117241475Y-113953347D01*
X117241341Y-113951579D01*
X117241341Y-113768059D01*
X117244768Y-113759786D01*
X117251842Y-113756420D01*
X117787145Y-113701323D01*
X117795726Y-113703885D01*
G37*
%TD.AperFunction*%
%TD*%
%TA.AperFunction,Conductor*%
%TO.N,USB_D-*%
G36*
X117596171Y-112946277D02*
G01*
X117597336Y-112947292D01*
X117797537Y-113146553D01*
X117800983Y-113154818D01*
X117800983Y-113154885D01*
X117800034Y-113439619D01*
X117796580Y-113447881D01*
X117789688Y-113451201D01*
X117319713Y-113505977D01*
X117311099Y-113503531D01*
X117306738Y-113495710D01*
X117306659Y-113494356D01*
X117306659Y-113311444D01*
X117309047Y-113304360D01*
X117422816Y-113154818D01*
X117579775Y-112948504D01*
X117587512Y-112943996D01*
X117596171Y-112946277D01*
G37*
%TD.AperFunction*%
%TD*%
%TA.AperFunction,Conductor*%
%TO.N,USB_D-*%
G36*
X109928731Y-113003693D02*
G01*
X109962816Y-113038222D01*
X109965132Y-113041581D01*
X109983076Y-113080872D01*
X110077325Y-113189642D01*
X110171850Y-113250389D01*
X110173847Y-113252010D01*
X110225248Y-113304082D01*
X110228621Y-113312300D01*
X110228621Y-113495799D01*
X110225194Y-113504072D01*
X110216921Y-113507499D01*
X109720043Y-113507499D01*
X109711770Y-113504072D01*
X109708343Y-113495838D01*
X109707398Y-113212385D01*
X109710796Y-113204101D01*
X109912188Y-113003654D01*
X109920469Y-113000248D01*
X109928731Y-113003693D01*
G37*
%TD.AperFunction*%
%TD*%
%TA.AperFunction,Conductor*%
%TO.N,SPI_SO*%
G36*
X155591229Y-115816875D02*
G01*
X155707157Y-115932803D01*
X155710584Y-115941076D01*
X155709580Y-115945817D01*
X155506706Y-116403503D01*
X155500221Y-116409678D01*
X155491566Y-116409585D01*
X155228745Y-116301666D01*
X155222393Y-116295354D01*
X155222366Y-116295287D01*
X155192143Y-116221685D01*
X155114447Y-116032464D01*
X155114474Y-116023511D01*
X155120526Y-116017328D01*
X155578217Y-115814451D01*
X155587167Y-115814232D01*
X155591229Y-115816875D01*
G37*
%TD.AperFunction*%
%TD*%
%TA.AperFunction,Conductor*%
%TO.N,SPI_SO*%
G36*
X161514489Y-104540865D02*
G01*
X162283656Y-104860444D01*
X162289981Y-104866783D01*
X162289972Y-104875738D01*
X162289608Y-104876530D01*
X161603247Y-106233581D01*
X161596455Y-106239417D01*
X161592806Y-106240000D01*
X161427194Y-106240000D01*
X161418921Y-106236573D01*
X161416753Y-106233581D01*
X160730391Y-104876530D01*
X160729715Y-104867600D01*
X160735551Y-104860808D01*
X160736335Y-104860447D01*
X161505511Y-104540864D01*
X161514466Y-104540856D01*
X161514489Y-104540865D01*
G37*
%TD.AperFunction*%
%TD*%
%TA.AperFunction,Conductor*%
%TO.N,SPI_CS*%
G36*
X163276416Y-101679565D02*
G01*
X164046512Y-101998143D01*
X164052846Y-102004472D01*
X164052853Y-102004488D01*
X164370281Y-102773189D01*
X164370272Y-102782144D01*
X164363933Y-102788469D01*
X164362688Y-102788903D01*
X162837124Y-103225727D01*
X162828227Y-103224710D01*
X162822655Y-103217700D01*
X162822203Y-103214479D01*
X162822203Y-103051837D01*
X162822765Y-103048253D01*
X163260816Y-101686796D01*
X163266612Y-101679971D01*
X163275538Y-101679242D01*
X163276416Y-101679565D01*
G37*
%TD.AperFunction*%
%TD*%
%TA.AperFunction,Conductor*%
%TO.N,SPI_CS*%
G36*
X146839637Y-112583843D02*
G01*
X146840476Y-112585477D01*
X146950088Y-112847817D01*
X146950992Y-112852367D01*
X146950046Y-113135920D01*
X146946592Y-113144182D01*
X146938307Y-113147581D01*
X146936166Y-113147376D01*
X146379411Y-113041805D01*
X146371921Y-113036897D01*
X146369891Y-113030310D01*
X146369891Y-112866528D01*
X146373318Y-112858255D01*
X146375441Y-112856574D01*
X146823537Y-112580030D01*
X146832375Y-112578603D01*
X146839637Y-112583843D01*
G37*
%TD.AperFunction*%
%TD*%
%TA.AperFunction,Conductor*%
%TO.N,SPI_CS*%
G36*
X148655327Y-110310432D02*
G01*
X148661812Y-110316607D01*
X148662816Y-110321348D01*
X148662816Y-110485293D01*
X148659389Y-110493566D01*
X148655327Y-110496209D01*
X148194350Y-110674030D01*
X148193436Y-110674340D01*
X148187116Y-110676196D01*
X148178212Y-110675239D01*
X148173023Y-110669481D01*
X148063699Y-110407830D01*
X148063673Y-110398877D01*
X148063678Y-110398863D01*
X148173233Y-110136657D01*
X148179585Y-110130346D01*
X148188239Y-110130253D01*
X148655327Y-110310432D01*
G37*
%TD.AperFunction*%
%TD*%
%TA.AperFunction,Conductor*%
%TO.N,SPI_CS*%
G36*
X136290246Y-117103427D02*
G01*
X136292889Y-117107489D01*
X136473067Y-117574575D01*
X136472847Y-117583527D01*
X136466662Y-117589582D01*
X136204511Y-117699115D01*
X136195556Y-117699142D01*
X136195489Y-117699115D01*
X135933337Y-117589582D01*
X135927025Y-117583230D01*
X135926932Y-117574576D01*
X136107111Y-117107488D01*
X136113286Y-117101004D01*
X136118027Y-117100000D01*
X136281973Y-117100000D01*
X136290246Y-117103427D01*
G37*
%TD.AperFunction*%
%TD*%
%TA.AperFunction,Conductor*%
%TO.N,SPI_SCK*%
G36*
X153366299Y-116717772D02*
G01*
X153482227Y-116833700D01*
X153485654Y-116841973D01*
X153484650Y-116846714D01*
X153436205Y-116956006D01*
X153434351Y-116958927D01*
X153367024Y-117036628D01*
X153307236Y-117167544D01*
X153290565Y-117283488D01*
X153289680Y-117286564D01*
X153281775Y-117304399D01*
X153275290Y-117310574D01*
X153266635Y-117310481D01*
X153003815Y-117202563D01*
X152997463Y-117196251D01*
X152997436Y-117196184D01*
X152967213Y-117122582D01*
X152889517Y-116933361D01*
X152889544Y-116924408D01*
X152895596Y-116918225D01*
X153353287Y-116715348D01*
X153362237Y-116715129D01*
X153366299Y-116717772D01*
G37*
%TD.AperFunction*%
%TD*%
%TA.AperFunction,Conductor*%
%TO.N,SPI_SCK*%
G36*
X159633361Y-106739516D02*
G01*
X159822582Y-106817213D01*
X159896184Y-106847436D01*
X159902536Y-106853748D01*
X159902563Y-106853815D01*
X160010482Y-107116636D01*
X160010455Y-107125591D01*
X160004400Y-107131776D01*
X159546714Y-107334650D01*
X159537762Y-107334870D01*
X159533700Y-107332227D01*
X159417772Y-107216299D01*
X159414345Y-107208026D01*
X159415348Y-107203289D01*
X159618225Y-106745596D01*
X159624708Y-106739424D01*
X159633361Y-106739516D01*
G37*
%TD.AperFunction*%
%TD*%
%TA.AperFunction,Conductor*%
%TO.N,JTAG_TDO*%
G36*
X148070234Y-108443967D02*
G01*
X148405666Y-108696490D01*
X148410214Y-108704202D01*
X148410329Y-108705836D01*
X148410329Y-108869670D01*
X148406902Y-108877943D01*
X148400079Y-108881280D01*
X147863105Y-108948362D01*
X147854471Y-108945987D01*
X147850045Y-108938202D01*
X147849956Y-108936807D01*
X147849016Y-108654884D01*
X147852414Y-108646601D01*
X148054944Y-108445021D01*
X148063226Y-108441615D01*
X148070234Y-108443967D01*
G37*
%TD.AperFunction*%
%TD*%
%TA.AperFunction,Conductor*%
%TO.N,JTAG_TDO*%
G36*
X156861094Y-104192500D02*
G01*
X157696216Y-104537438D01*
X157702553Y-104543763D01*
X157702562Y-104543784D01*
X158047494Y-105378893D01*
X158047485Y-105387848D01*
X158041147Y-105394174D01*
X158040856Y-105394289D01*
X156319684Y-106051972D01*
X156310733Y-106051724D01*
X156307235Y-106049316D01*
X156190683Y-105932764D01*
X156187256Y-105924491D01*
X156188026Y-105920318D01*
X156845711Y-104199141D01*
X156851864Y-104192638D01*
X156860815Y-104192390D01*
X156861094Y-104192500D01*
G37*
%TD.AperFunction*%
%TD*%
%TA.AperFunction,Conductor*%
%TO.N,JTAG_TCK*%
G36*
X146588379Y-107276994D02*
G01*
X146610328Y-107280265D01*
X147135377Y-107358513D01*
X147143054Y-107363122D01*
X147145352Y-107370085D01*
X147145352Y-107533856D01*
X147141925Y-107542129D01*
X147140296Y-107543487D01*
X147098701Y-107572182D01*
X147095354Y-107573777D01*
X147039946Y-107590047D01*
X146982620Y-107626888D01*
X146918872Y-107667857D01*
X146918870Y-107667858D01*
X146918870Y-107667859D01*
X146858684Y-107737316D01*
X146856486Y-107739285D01*
X146795137Y-107781609D01*
X146786381Y-107783486D01*
X146780239Y-107780271D01*
X146577462Y-107578446D01*
X146574016Y-107570181D01*
X146574016Y-107570114D01*
X146574105Y-107543487D01*
X146574954Y-107288524D01*
X146578408Y-107280265D01*
X146586693Y-107276866D01*
X146588379Y-107276994D01*
G37*
%TD.AperFunction*%
%TD*%
%TA.AperFunction,Conductor*%
%TO.N,JTAG_TCK*%
G36*
X154386339Y-104219524D02*
G01*
X155156215Y-104537438D01*
X155162552Y-104543761D01*
X155162562Y-104543785D01*
X155480469Y-105313645D01*
X155480460Y-105322600D01*
X155474121Y-105328925D01*
X155473304Y-105329228D01*
X154028392Y-105803477D01*
X154019462Y-105802801D01*
X154016470Y-105800633D01*
X153899366Y-105683529D01*
X153895939Y-105675256D01*
X153896522Y-105671607D01*
X154014013Y-105313645D01*
X154370771Y-104226694D01*
X154376607Y-104219903D01*
X154385537Y-104219227D01*
X154386339Y-104219524D01*
G37*
%TD.AperFunction*%
%TD*%
%TA.AperFunction,Conductor*%
%TO.N,JTAG_TMS*%
G36*
X156333527Y-106602152D02*
G01*
X156339582Y-106608337D01*
X156449115Y-106870489D01*
X156449142Y-106879444D01*
X156449115Y-106879511D01*
X156339582Y-107141662D01*
X156333230Y-107147974D01*
X156324574Y-107148067D01*
X156319152Y-107145975D01*
X156317039Y-107144902D01*
X156253068Y-107103791D01*
X156253069Y-107103791D01*
X156114977Y-107063244D01*
X156114976Y-107063244D01*
X156106862Y-107063244D01*
X156102651Y-107062460D01*
X155857489Y-106967888D01*
X155851004Y-106961713D01*
X155850000Y-106956972D01*
X155850000Y-106793027D01*
X155853427Y-106784754D01*
X155857489Y-106782111D01*
X156324576Y-106601932D01*
X156333527Y-106602152D01*
G37*
%TD.AperFunction*%
%TD*%
%TA.AperFunction,Conductor*%
%TO.N,JTAG_TMS*%
G36*
X143553511Y-108176769D02*
G01*
X143559835Y-108183109D01*
X143560075Y-108183743D01*
X143691781Y-108563997D01*
X143707071Y-108608140D01*
X143707715Y-108611969D01*
X143707715Y-108772465D01*
X143704288Y-108780738D01*
X143696015Y-108784165D01*
X143691524Y-108783269D01*
X143174805Y-108568468D01*
X143168481Y-108562128D01*
X143168473Y-108553222D01*
X143276002Y-108291340D01*
X143282310Y-108284993D01*
X143544557Y-108176758D01*
X143553511Y-108176769D01*
G37*
%TD.AperFunction*%
%TD*%
%TA.AperFunction,Conductor*%
%TO.N,JTAG_TDI*%
G36*
X151846339Y-101679524D02*
G01*
X152616215Y-101997438D01*
X152622552Y-102003761D01*
X152622562Y-102003785D01*
X152940469Y-102773645D01*
X152940460Y-102782600D01*
X152934121Y-102788925D01*
X152933304Y-102789228D01*
X151488392Y-103263477D01*
X151479462Y-103262801D01*
X151476470Y-103260633D01*
X151359366Y-103143529D01*
X151355939Y-103135256D01*
X151356522Y-103131607D01*
X151474013Y-102773645D01*
X151830771Y-101686694D01*
X151836607Y-101679903D01*
X151845537Y-101679227D01*
X151846339Y-101679524D01*
G37*
%TD.AperFunction*%
%TD*%
%TA.AperFunction,Conductor*%
%TO.N,JTAG_TDI*%
G36*
X145466299Y-107067772D02*
G01*
X145582227Y-107183700D01*
X145585654Y-107191973D01*
X145584650Y-107196714D01*
X145381776Y-107654400D01*
X145375291Y-107660575D01*
X145366636Y-107660482D01*
X145103815Y-107552563D01*
X145097463Y-107546251D01*
X145097436Y-107546184D01*
X145067213Y-107472582D01*
X144989517Y-107283361D01*
X144989544Y-107274408D01*
X144995596Y-107268225D01*
X145453287Y-107065348D01*
X145462237Y-107065129D01*
X145466299Y-107067772D01*
G37*
%TD.AperFunction*%
%TD*%
%TA.AperFunction,Conductor*%
%TO.N,Net-(Q4-D)*%
G36*
X189233361Y-142989516D02*
G01*
X189422582Y-143067213D01*
X189496184Y-143097436D01*
X189502536Y-143103748D01*
X189502563Y-143103815D01*
X189610482Y-143366636D01*
X189610455Y-143375591D01*
X189604400Y-143381776D01*
X189146714Y-143584650D01*
X189137762Y-143584870D01*
X189133700Y-143582227D01*
X189017772Y-143466299D01*
X189014345Y-143458026D01*
X189015348Y-143453289D01*
X189218225Y-142995596D01*
X189224708Y-142989424D01*
X189233361Y-142989516D01*
G37*
%TD.AperFunction*%
%TD*%
%TA.AperFunction,Conductor*%
%TO.N,Net-(Q4-D)*%
G36*
X185692511Y-143607111D02*
G01*
X185698996Y-143613286D01*
X185700000Y-143618027D01*
X185700000Y-143781972D01*
X185696573Y-143790245D01*
X185692511Y-143792888D01*
X185583821Y-143834816D01*
X185579610Y-143835600D01*
X185513199Y-143835600D01*
X185375108Y-143876147D01*
X185254033Y-143953957D01*
X185254032Y-143953957D01*
X185254029Y-143953960D01*
X185245433Y-143963880D01*
X185240802Y-143967134D01*
X185225424Y-143973067D01*
X185216472Y-143972848D01*
X185210417Y-143966662D01*
X185172598Y-143876147D01*
X185100883Y-143704509D01*
X185100857Y-143695556D01*
X185100862Y-143695542D01*
X185210417Y-143433336D01*
X185216769Y-143427025D01*
X185225423Y-143426932D01*
X185692511Y-143607111D01*
G37*
%TD.AperFunction*%
%TD*%
%TA.AperFunction,Conductor*%
%TO.N,RTS*%
G36*
X118383361Y-115539516D02*
G01*
X118572582Y-115617213D01*
X118646184Y-115647436D01*
X118652536Y-115653748D01*
X118652563Y-115653815D01*
X118760482Y-115916636D01*
X118760455Y-115925591D01*
X118754400Y-115931776D01*
X118296714Y-116134650D01*
X118287762Y-116134870D01*
X118283700Y-116132227D01*
X118167772Y-116016299D01*
X118164345Y-116008026D01*
X118165348Y-116003289D01*
X118368225Y-115545596D01*
X118374708Y-115539424D01*
X118383361Y-115539516D01*
G37*
%TD.AperFunction*%
%TD*%
%TA.AperFunction,Conductor*%
%TO.N,RTS*%
G36*
X113742511Y-117207111D02*
G01*
X113748996Y-117213286D01*
X113750000Y-117218027D01*
X113750000Y-117381972D01*
X113746573Y-117390245D01*
X113742511Y-117392888D01*
X113275424Y-117573067D01*
X113266472Y-117572847D01*
X113260417Y-117566662D01*
X113150883Y-117304509D01*
X113150857Y-117295556D01*
X113150862Y-117295542D01*
X113260417Y-117033336D01*
X113266769Y-117027025D01*
X113275423Y-117026932D01*
X113742511Y-117207111D01*
G37*
%TD.AperFunction*%
%TD*%
%TA.AperFunction,Conductor*%
%TO.N,CAN+*%
G36*
X136692618Y-130650371D02*
G01*
X136714254Y-130659411D01*
X136720566Y-130665763D01*
X136720539Y-130674718D01*
X136719570Y-130676557D01*
X136429957Y-131124759D01*
X136422589Y-131129848D01*
X136420130Y-131130109D01*
X136282939Y-131130109D01*
X136274666Y-131126682D01*
X136271504Y-131120883D01*
X136175378Y-130676557D01*
X136174894Y-130674319D01*
X136176494Y-130665510D01*
X136181815Y-130661053D01*
X136445490Y-130550883D01*
X136454444Y-130550857D01*
X136692618Y-130650371D01*
G37*
%TD.AperFunction*%
%TD*%
%TA.AperFunction,Conductor*%
%TO.N,CAN+*%
G36*
X134526951Y-139303427D02*
G01*
X134529490Y-139307229D01*
X134722708Y-139774422D01*
X134722703Y-139783376D01*
X134716407Y-139789689D01*
X134454511Y-139899115D01*
X134445556Y-139899142D01*
X134445489Y-139899115D01*
X134183592Y-139789689D01*
X134177280Y-139783337D01*
X134177291Y-139774422D01*
X134370510Y-139307229D01*
X134376839Y-139300893D01*
X134381322Y-139300000D01*
X134518678Y-139300000D01*
X134526951Y-139303427D01*
G37*
%TD.AperFunction*%
%TD*%
%TA.AperFunction,Conductor*%
%TO.N,CAN-*%
G36*
X135858215Y-128978317D02*
G01*
X135886619Y-128979711D01*
X135892365Y-128981553D01*
X135895918Y-128983837D01*
X135988816Y-129011114D01*
X136034009Y-129024384D01*
X136034010Y-129024384D01*
X136177932Y-129024384D01*
X136264675Y-128998914D01*
X136268532Y-128998455D01*
X136288900Y-128999455D01*
X136296995Y-129003284D01*
X136300026Y-129011114D01*
X136300695Y-129295821D01*
X136297288Y-129304102D01*
X136297241Y-129304149D01*
X136097080Y-129502980D01*
X136088795Y-129506379D01*
X136080533Y-129502925D01*
X136079722Y-129502018D01*
X135751446Y-129094433D01*
X135748925Y-129085840D01*
X135752284Y-129078822D01*
X135849376Y-128981730D01*
X135857648Y-128978304D01*
X135858215Y-128978317D01*
G37*
%TD.AperFunction*%
%TD*%
%TA.AperFunction,Conductor*%
%TO.N,CAN-*%
G36*
X134333376Y-134227296D02*
G01*
X134339689Y-134233592D01*
X134449115Y-134495489D01*
X134449142Y-134504444D01*
X134449115Y-134504511D01*
X134339689Y-134766407D01*
X134333337Y-134772719D01*
X134324422Y-134772708D01*
X133857229Y-134579489D01*
X133850893Y-134573160D01*
X133850000Y-134568677D01*
X133850000Y-134431322D01*
X133853427Y-134423049D01*
X133857227Y-134420510D01*
X134324423Y-134227291D01*
X134333376Y-134227296D01*
G37*
%TD.AperFunction*%
%TD*%
%TA.AperFunction,Conductor*%
%TO.N,RXD0*%
G36*
X148783527Y-112727152D02*
G01*
X148789582Y-112733337D01*
X148899115Y-112995489D01*
X148899142Y-113004444D01*
X148899115Y-113004511D01*
X148789582Y-113266662D01*
X148783230Y-113272974D01*
X148774575Y-113273067D01*
X148739283Y-113259453D01*
X148734654Y-113256200D01*
X148699635Y-113215786D01*
X148578560Y-113137976D01*
X148509514Y-113117702D01*
X148440469Y-113097429D01*
X148440468Y-113097429D01*
X148321438Y-113097429D01*
X148317227Y-113096645D01*
X148307489Y-113092888D01*
X148301003Y-113086713D01*
X148300000Y-113081972D01*
X148300000Y-112918027D01*
X148303427Y-112909754D01*
X148307489Y-112907111D01*
X148387402Y-112876285D01*
X148391613Y-112875501D01*
X148472583Y-112875501D01*
X148610675Y-112834954D01*
X148731750Y-112757144D01*
X148747662Y-112738779D01*
X148752286Y-112735530D01*
X148774576Y-112726932D01*
X148783527Y-112727152D01*
G37*
%TD.AperFunction*%
%TD*%
%TA.AperFunction,Conductor*%
%TO.N,RXD0*%
G36*
X129284140Y-115738157D02*
G01*
X129288767Y-115741407D01*
X129289405Y-115742143D01*
X129410480Y-115819953D01*
X129517227Y-115851296D01*
X129548571Y-115860500D01*
X129588300Y-115860500D01*
X129596573Y-115863927D01*
X129600000Y-115872200D01*
X129600000Y-116031972D01*
X129596573Y-116040245D01*
X129592511Y-116042888D01*
X129125424Y-116223067D01*
X129116472Y-116222847D01*
X129110417Y-116216662D01*
X129000883Y-115954509D01*
X129000857Y-115945556D01*
X129000862Y-115945542D01*
X129110417Y-115683336D01*
X129116769Y-115677025D01*
X129125423Y-115676932D01*
X129284140Y-115738157D01*
G37*
%TD.AperFunction*%
%TD*%
%TA.AperFunction,Conductor*%
%TO.N,TXD0*%
G36*
X148783527Y-111477152D02*
G01*
X148789582Y-111483337D01*
X148899115Y-111745489D01*
X148899142Y-111754444D01*
X148899115Y-111754511D01*
X148789582Y-112016662D01*
X148783230Y-112022974D01*
X148774575Y-112023067D01*
X148752287Y-112014469D01*
X148747656Y-112011215D01*
X148731750Y-111992858D01*
X148610675Y-111915048D01*
X148541629Y-111894774D01*
X148472584Y-111874501D01*
X148472583Y-111874501D01*
X148391618Y-111874501D01*
X148387407Y-111873717D01*
X148307489Y-111842888D01*
X148301004Y-111836713D01*
X148300000Y-111831972D01*
X148300000Y-111668027D01*
X148303427Y-111659754D01*
X148307489Y-111657111D01*
X148322595Y-111651284D01*
X148326806Y-111650500D01*
X148421961Y-111650500D01*
X148560053Y-111609953D01*
X148681128Y-111532143D01*
X148704163Y-111505558D01*
X148708783Y-111502311D01*
X148774576Y-111476932D01*
X148783527Y-111477152D01*
G37*
%TD.AperFunction*%
%TD*%
%TA.AperFunction,Conductor*%
%TO.N,TXD0*%
G36*
X131382588Y-114295009D02*
G01*
X131385925Y-114297344D01*
X131501876Y-114413295D01*
X131505303Y-114421568D01*
X131503992Y-114426950D01*
X131282090Y-114855296D01*
X131275241Y-114861065D01*
X131267257Y-114860737D01*
X131003815Y-114752563D01*
X130997463Y-114746251D01*
X130997436Y-114746184D01*
X130889819Y-114484098D01*
X130889846Y-114475143D01*
X130896198Y-114468831D01*
X130896621Y-114468667D01*
X131373644Y-114294626D01*
X131382588Y-114295009D01*
G37*
%TD.AperFunction*%
%TD*%
%TA.AperFunction,Conductor*%
%TO.N,SDA*%
G36*
X159791662Y-111435417D02*
G01*
X159797974Y-111441769D01*
X159798067Y-111450424D01*
X159617889Y-111917511D01*
X159611714Y-111923996D01*
X159606973Y-111925000D01*
X159443027Y-111925000D01*
X159434754Y-111921573D01*
X159432111Y-111917511D01*
X159251932Y-111450424D01*
X159252152Y-111441472D01*
X159258336Y-111435417D01*
X159520490Y-111325883D01*
X159529444Y-111325857D01*
X159791662Y-111435417D01*
G37*
%TD.AperFunction*%
%TD*%
%TA.AperFunction,Conductor*%
%TO.N,SDA*%
G36*
X158805779Y-113996534D02*
G01*
X158808422Y-114000596D01*
X158988600Y-114467682D01*
X158988380Y-114476634D01*
X158982195Y-114482689D01*
X158720044Y-114592222D01*
X158711089Y-114592249D01*
X158711022Y-114592222D01*
X158448870Y-114482689D01*
X158442558Y-114476337D01*
X158442465Y-114467683D01*
X158622644Y-114000595D01*
X158628819Y-113994111D01*
X158633560Y-113993107D01*
X158797506Y-113993107D01*
X158805779Y-113996534D01*
G37*
%TD.AperFunction*%
%TD*%
%TA.AperFunction,Conductor*%
%TO.N,Drawer_1_~EN_TMC2209*%
G36*
X178650102Y-113753541D02*
G01*
X178651201Y-113754070D01*
X179145651Y-114024576D01*
X179151264Y-114031552D01*
X179150299Y-114040454D01*
X179148308Y-114043112D01*
X179033905Y-114157515D01*
X179029635Y-114160236D01*
X178650317Y-114298336D01*
X178641370Y-114297946D01*
X178635510Y-114291833D01*
X178580805Y-114160236D01*
X178526163Y-114028793D01*
X178526153Y-114019841D01*
X178634795Y-113759825D01*
X178641147Y-113753514D01*
X178650102Y-113753541D01*
G37*
%TD.AperFunction*%
%TD*%
%TA.AperFunction,Conductor*%
%TO.N,Drawer_1_~EN_TMC2209*%
G36*
X178718653Y-118156414D02*
G01*
X178834581Y-118272342D01*
X178838008Y-118280615D01*
X178837004Y-118285357D01*
X178825502Y-118311303D01*
X178821134Y-118316402D01*
X178818876Y-118317853D01*
X178818871Y-118317858D01*
X178724622Y-118426628D01*
X178664834Y-118557544D01*
X178644353Y-118700000D01*
X178646042Y-118711756D01*
X178645157Y-118718161D01*
X178634129Y-118743041D01*
X178627644Y-118749216D01*
X178618989Y-118749123D01*
X178356169Y-118641205D01*
X178349817Y-118634893D01*
X178349790Y-118634826D01*
X178318057Y-118557544D01*
X178241871Y-118372003D01*
X178241898Y-118363050D01*
X178247950Y-118356867D01*
X178705641Y-118153990D01*
X178714591Y-118153771D01*
X178718653Y-118156414D01*
G37*
%TD.AperFunction*%
%TD*%
%TA.AperFunction,Conductor*%
%TO.N,Drawer_1_DIAG*%
G36*
X171933527Y-111477151D02*
G01*
X171939582Y-111483336D01*
X172049115Y-111745488D01*
X172049142Y-111754443D01*
X172049115Y-111754510D01*
X171939582Y-112016661D01*
X171933230Y-112022973D01*
X171924575Y-112023066D01*
X171457489Y-111842887D01*
X171451004Y-111836712D01*
X171450000Y-111831971D01*
X171450000Y-111668026D01*
X171453427Y-111659753D01*
X171457489Y-111657110D01*
X171924576Y-111476931D01*
X171933527Y-111477151D01*
G37*
%TD.AperFunction*%
%TD*%
%TA.AperFunction,Conductor*%
%TO.N,Drawer_1_DIAG*%
G36*
X166296708Y-124915348D02*
G01*
X166754398Y-125118224D01*
X166760572Y-125124708D01*
X166760479Y-125133363D01*
X166652560Y-125396184D01*
X166646248Y-125402536D01*
X166646181Y-125402563D01*
X166383360Y-125510482D01*
X166374405Y-125510455D01*
X166368221Y-125504401D01*
X166165345Y-125046712D01*
X166165126Y-125037762D01*
X166167767Y-125033702D01*
X166283698Y-124917771D01*
X166291970Y-124914345D01*
X166296708Y-124915348D01*
G37*
%TD.AperFunction*%
%TD*%
%TA.AperFunction,Conductor*%
%TO.N,UART2_RX*%
G36*
X163383528Y-128159068D02*
G01*
X163389582Y-128165253D01*
X163499115Y-128427405D01*
X163499142Y-128436360D01*
X163499115Y-128436427D01*
X163389582Y-128698578D01*
X163383230Y-128704890D01*
X163374575Y-128704983D01*
X162907489Y-128524804D01*
X162901004Y-128518629D01*
X162900000Y-128513888D01*
X162900000Y-128349943D01*
X162903427Y-128341670D01*
X162907489Y-128339027D01*
X163016179Y-128297100D01*
X163020390Y-128296316D01*
X163086800Y-128296316D01*
X163224892Y-128255769D01*
X163345967Y-128177959D01*
X163354568Y-128168032D01*
X163359195Y-128164781D01*
X163374576Y-128158848D01*
X163383528Y-128159068D01*
G37*
%TD.AperFunction*%
%TD*%
%TA.AperFunction,Conductor*%
%TO.N,UART2_RX*%
G36*
X154025311Y-123570388D02*
G01*
X154031617Y-123576725D01*
X154223376Y-124041858D01*
X154223361Y-124050812D01*
X154220832Y-124054590D01*
X154106324Y-124169098D01*
X154098051Y-124172525D01*
X154089778Y-124169098D01*
X154089209Y-124168487D01*
X154036235Y-124107351D01*
X153915160Y-124029541D01*
X153846114Y-124009267D01*
X153777069Y-123988994D01*
X153777068Y-123988994D01*
X153703852Y-123988994D01*
X153698868Y-123987879D01*
X153645258Y-123962632D01*
X153639233Y-123956007D01*
X153639420Y-123947603D01*
X153747436Y-123684544D01*
X153753746Y-123678193D01*
X154016358Y-123570361D01*
X154025311Y-123570388D01*
G37*
%TD.AperFunction*%
%TD*%
%TA.AperFunction,Conductor*%
%TO.N,LED_D_in*%
G36*
X117892511Y-126007111D02*
G01*
X117898996Y-126013286D01*
X117900000Y-126018027D01*
X117900000Y-126181972D01*
X117896573Y-126190245D01*
X117892511Y-126192888D01*
X117425424Y-126373067D01*
X117416472Y-126372847D01*
X117410417Y-126366662D01*
X117300883Y-126104509D01*
X117300857Y-126095556D01*
X117300862Y-126095542D01*
X117410417Y-125833336D01*
X117416769Y-125827025D01*
X117425423Y-125826932D01*
X117892511Y-126007111D01*
G37*
%TD.AperFunction*%
%TD*%
%TA.AperFunction,Conductor*%
%TO.N,LED_D_in*%
G36*
X130983361Y-116789516D02*
G01*
X131104025Y-116839063D01*
X131246184Y-116897436D01*
X131252536Y-116903748D01*
X131252563Y-116903815D01*
X131360482Y-117166636D01*
X131360455Y-117175591D01*
X131354400Y-117181776D01*
X130896714Y-117384650D01*
X130887762Y-117384870D01*
X130883700Y-117382227D01*
X130772865Y-117271392D01*
X130769438Y-117263119D01*
X130772865Y-117254846D01*
X130774813Y-117253276D01*
X130777036Y-117251847D01*
X130777035Y-117251847D01*
X130777038Y-117251846D01*
X130871287Y-117143076D01*
X130931075Y-117012160D01*
X130951557Y-116869703D01*
X130948072Y-116845466D01*
X130948956Y-116839067D01*
X130968225Y-116795596D01*
X130974708Y-116789424D01*
X130983361Y-116789516D01*
G37*
%TD.AperFunction*%
%TD*%
%TA.AperFunction,Conductor*%
%TO.N,pe_0_~INT*%
G36*
X174949469Y-115357656D02*
G01*
X175426322Y-115387161D01*
X175434367Y-115391093D01*
X175437299Y-115398800D01*
X175438246Y-115682952D01*
X175434847Y-115691237D01*
X175434800Y-115691284D01*
X175234412Y-115890732D01*
X175226130Y-115894139D01*
X175217865Y-115890693D01*
X175216992Y-115889711D01*
X174939601Y-115540082D01*
X174937067Y-115532810D01*
X174937067Y-115369335D01*
X174940494Y-115361062D01*
X174948767Y-115357635D01*
X174949469Y-115357656D01*
G37*
%TD.AperFunction*%
%TD*%
%TA.AperFunction,Conductor*%
%TO.N,pe_0_~INT*%
G36*
X169566299Y-115467769D02*
G01*
X169682227Y-115583697D01*
X169685654Y-115591970D01*
X169684650Y-115596711D01*
X169481776Y-116054397D01*
X169475291Y-116060572D01*
X169466636Y-116060479D01*
X169203815Y-115952560D01*
X169197463Y-115946248D01*
X169197436Y-115946181D01*
X169167213Y-115872579D01*
X169089517Y-115683358D01*
X169089544Y-115674405D01*
X169095596Y-115668222D01*
X169553287Y-115465345D01*
X169562237Y-115465126D01*
X169566299Y-115467769D01*
G37*
%TD.AperFunction*%
%TD*%
%TA.AperFunction,Conductor*%
%TO.N,pe_0_~INT*%
G36*
X141642511Y-118057111D02*
G01*
X141648996Y-118063286D01*
X141650000Y-118068027D01*
X141650000Y-118231972D01*
X141646573Y-118240245D01*
X141642511Y-118242888D01*
X141175424Y-118423067D01*
X141166472Y-118422847D01*
X141160417Y-118416662D01*
X141050883Y-118154509D01*
X141050857Y-118145556D01*
X141050862Y-118145542D01*
X141160417Y-117883336D01*
X141166769Y-117877025D01*
X141175423Y-117876932D01*
X141642511Y-118057111D01*
G37*
%TD.AperFunction*%
%TD*%
%TA.AperFunction,Conductor*%
%TO.N,pe_0_~INT*%
G36*
X157534041Y-117389819D02*
G01*
X157796494Y-117498140D01*
X157802833Y-117504463D01*
X157802852Y-117504510D01*
X157910271Y-117766124D01*
X157910244Y-117775079D01*
X157903892Y-117781391D01*
X157903676Y-117781477D01*
X157381613Y-117983826D01*
X157372661Y-117983621D01*
X157366476Y-117977145D01*
X157365685Y-117972917D01*
X157365685Y-117812093D01*
X157366412Y-117808034D01*
X157376237Y-117781477D01*
X157518623Y-117396582D01*
X157524707Y-117390012D01*
X157533655Y-117389669D01*
X157534041Y-117389819D01*
G37*
%TD.AperFunction*%
%TD*%
%TA.AperFunction,Conductor*%
%TO.N,Drawer_1_Encoder_A*%
G36*
X184566662Y-109060417D02*
G01*
X184572974Y-109066769D01*
X184573067Y-109075424D01*
X184392889Y-109542511D01*
X184386714Y-109548996D01*
X184381973Y-109550000D01*
X184218027Y-109550000D01*
X184209754Y-109546573D01*
X184207111Y-109542511D01*
X184026932Y-109075424D01*
X184027152Y-109066472D01*
X184033336Y-109060417D01*
X184295490Y-108950883D01*
X184304444Y-108950857D01*
X184566662Y-109060417D01*
G37*
%TD.AperFunction*%
%TD*%
%TA.AperFunction,Conductor*%
%TO.N,Drawer_1_Encoder_A*%
G36*
X136750725Y-120657288D02*
G01*
X136757437Y-120663214D01*
X136758626Y-120668353D01*
X136758626Y-120832332D01*
X136755199Y-120840605D01*
X136751596Y-120843060D01*
X136288722Y-121044564D01*
X136279769Y-121044724D01*
X136273324Y-121038506D01*
X136273296Y-121038441D01*
X136163913Y-120776649D01*
X136163887Y-120767696D01*
X136163892Y-120767682D01*
X136273609Y-120505088D01*
X136279961Y-120498777D01*
X136288201Y-120498534D01*
X136750725Y-120657288D01*
G37*
%TD.AperFunction*%
%TD*%
%TA.AperFunction,Conductor*%
%TO.N,Drawer_1_Encoder_B*%
G36*
X188292511Y-106707108D02*
G01*
X188298996Y-106713283D01*
X188300000Y-106718024D01*
X188300000Y-106881969D01*
X188296573Y-106890242D01*
X188292511Y-106892885D01*
X187825424Y-107073064D01*
X187816472Y-107072844D01*
X187810417Y-107066659D01*
X187700883Y-106804506D01*
X187700857Y-106795553D01*
X187700862Y-106795539D01*
X187810417Y-106533333D01*
X187816769Y-106527022D01*
X187825423Y-106526929D01*
X188292511Y-106707108D01*
G37*
%TD.AperFunction*%
%TD*%
%TA.AperFunction,Conductor*%
%TO.N,Drawer_1_Encoder_B*%
G36*
X147892511Y-124357111D02*
G01*
X147898996Y-124363286D01*
X147900000Y-124368027D01*
X147900000Y-124531972D01*
X147896573Y-124540245D01*
X147892511Y-124542888D01*
X147425424Y-124723067D01*
X147416472Y-124722847D01*
X147410417Y-124716662D01*
X147300883Y-124454509D01*
X147300857Y-124445556D01*
X147300862Y-124445542D01*
X147410417Y-124183336D01*
X147416769Y-124177025D01*
X147425423Y-124176932D01*
X147892511Y-124357111D01*
G37*
%TD.AperFunction*%
%TD*%
%TA.AperFunction,Conductor*%
%TO.N,Drawer_1_SPREAD*%
G36*
X172442298Y-112771764D02*
G01*
X172448353Y-112777949D01*
X172557886Y-113040101D01*
X172557913Y-113049056D01*
X172557886Y-113049123D01*
X172448353Y-113311274D01*
X172442001Y-113317586D01*
X172433345Y-113317679D01*
X172428216Y-113315700D01*
X172426103Y-113314627D01*
X172310053Y-113240047D01*
X172310054Y-113240047D01*
X172171962Y-113199500D01*
X172171961Y-113199500D01*
X172129163Y-113199500D01*
X172124952Y-113198716D01*
X171966260Y-113137500D01*
X171959775Y-113131325D01*
X171958771Y-113126584D01*
X171958771Y-112962639D01*
X171962198Y-112954366D01*
X171966260Y-112951723D01*
X172433347Y-112771544D01*
X172442298Y-112771764D01*
G37*
%TD.AperFunction*%
%TD*%
%TA.AperFunction,Conductor*%
%TO.N,Drawer_1_SPREAD*%
G36*
X168281000Y-120303427D02*
G01*
X168284427Y-120311700D01*
X168284353Y-120312729D01*
X168284353Y-120313049D01*
X168304834Y-120455505D01*
X168343444Y-120540047D01*
X168364623Y-120586423D01*
X168427928Y-120659481D01*
X168430000Y-120662929D01*
X168473067Y-120774575D01*
X168472847Y-120783527D01*
X168466662Y-120789582D01*
X168204511Y-120899115D01*
X168195556Y-120899142D01*
X168195489Y-120899115D01*
X167933337Y-120789582D01*
X167927025Y-120783230D01*
X167926932Y-120774576D01*
X168107111Y-120307488D01*
X168113286Y-120301004D01*
X168118027Y-120300000D01*
X168272727Y-120300000D01*
X168281000Y-120303427D01*
G37*
%TD.AperFunction*%
%TD*%
%TA.AperFunction,Conductor*%
%TO.N,Drawer_1_INDEX*%
G36*
X162298460Y-126826912D02*
G01*
X162300498Y-126829655D01*
X162565007Y-127322806D01*
X162565897Y-127331716D01*
X162560226Y-127338647D01*
X162559207Y-127339132D01*
X162299141Y-127447796D01*
X162290186Y-127447823D01*
X162290139Y-127447804D01*
X162027255Y-127338522D01*
X162020931Y-127332182D01*
X162020813Y-127323554D01*
X162164884Y-126945388D01*
X162167540Y-126941286D01*
X162281915Y-126826911D01*
X162290187Y-126823485D01*
X162298460Y-126826912D01*
G37*
%TD.AperFunction*%
%TD*%
%TA.AperFunction,Conductor*%
%TO.N,Drawer_1_INDEX*%
G36*
X168083527Y-108202152D02*
G01*
X168089582Y-108208337D01*
X168199115Y-108470489D01*
X168199142Y-108479444D01*
X168199115Y-108479511D01*
X168089582Y-108741662D01*
X168083230Y-108747974D01*
X168074575Y-108748067D01*
X167607489Y-108567888D01*
X167601004Y-108561713D01*
X167600000Y-108556972D01*
X167600000Y-108393027D01*
X167603427Y-108384754D01*
X167607489Y-108382111D01*
X168074576Y-108201932D01*
X168083527Y-108202152D01*
G37*
%TD.AperFunction*%
%TD*%
%TA.AperFunction,Conductor*%
%TO.N,Drawer_1_DIR*%
G36*
X170626947Y-130996006D02*
G01*
X171055297Y-131217910D01*
X171061065Y-131224758D01*
X171060737Y-131232742D01*
X170952563Y-131496184D01*
X170946251Y-131502536D01*
X170946184Y-131502563D01*
X170684098Y-131610180D01*
X170675143Y-131610153D01*
X170668831Y-131603801D01*
X170668663Y-131603367D01*
X170530528Y-131224758D01*
X170494626Y-131126354D01*
X170495009Y-131117411D01*
X170497341Y-131114077D01*
X170613296Y-130998122D01*
X170621568Y-130994696D01*
X170626947Y-130996006D01*
G37*
%TD.AperFunction*%
%TD*%
%TA.AperFunction,Conductor*%
%TO.N,Drawer_1_DIR*%
G36*
X169132740Y-112289261D02*
G01*
X169323189Y-112367463D01*
X169396184Y-112397436D01*
X169402536Y-112403748D01*
X169402563Y-112403815D01*
X169510180Y-112665901D01*
X169510153Y-112674856D01*
X169503801Y-112681168D01*
X169503367Y-112681336D01*
X169026357Y-112855373D01*
X169017411Y-112854990D01*
X169014074Y-112852655D01*
X168898123Y-112736704D01*
X168894696Y-112728431D01*
X168896005Y-112723053D01*
X169117911Y-112294700D01*
X169124758Y-112288934D01*
X169132740Y-112289261D01*
G37*
%TD.AperFunction*%
%TD*%
%TA.AperFunction,Conductor*%
%TO.N,Drawer_1_STEP*%
G36*
X168133527Y-109527152D02*
G01*
X168139582Y-109533337D01*
X168249115Y-109795489D01*
X168249142Y-109804444D01*
X168249115Y-109804511D01*
X168139582Y-110066662D01*
X168133230Y-110072974D01*
X168124575Y-110073067D01*
X167657489Y-109892888D01*
X167651004Y-109886713D01*
X167650000Y-109881972D01*
X167650000Y-109718027D01*
X167653427Y-109709754D01*
X167657489Y-109707111D01*
X168124576Y-109526932D01*
X168133527Y-109527152D01*
G37*
%TD.AperFunction*%
%TD*%
%TA.AperFunction,Conductor*%
%TO.N,Drawer_1_STEP*%
G36*
X166107163Y-131426776D02*
G01*
X166506218Y-131667653D01*
X166511530Y-131674861D01*
X166510995Y-131682113D01*
X166402563Y-131946184D01*
X166396251Y-131952536D01*
X166396184Y-131952563D01*
X166134859Y-132059867D01*
X166125904Y-132059840D01*
X166119592Y-132053488D01*
X166119186Y-132052329D01*
X166088136Y-131946184D01*
X165973989Y-131555975D01*
X165974955Y-131547074D01*
X165976942Y-131544422D01*
X166092845Y-131428519D01*
X166101117Y-131425093D01*
X166107163Y-131426776D01*
G37*
%TD.AperFunction*%
%TD*%
%TA.AperFunction,Conductor*%
%TO.N,Drawer_1_Encoder_N*%
G36*
X196433527Y-112727152D02*
G01*
X196439582Y-112733337D01*
X196549115Y-112995489D01*
X196549142Y-113004444D01*
X196549115Y-113004511D01*
X196439582Y-113266662D01*
X196433230Y-113272974D01*
X196424575Y-113273067D01*
X195957489Y-113092888D01*
X195951004Y-113086713D01*
X195950000Y-113081972D01*
X195950000Y-112918027D01*
X195953427Y-112909754D01*
X195957489Y-112907111D01*
X196424576Y-112726932D01*
X196433527Y-112727152D01*
G37*
%TD.AperFunction*%
%TD*%
%TA.AperFunction,Conductor*%
%TO.N,Drawer_1_Encoder_N*%
G36*
X134725591Y-114189544D02*
G01*
X134731775Y-114195598D01*
X134902953Y-114581776D01*
X134934650Y-114653285D01*
X134934870Y-114662237D01*
X134932227Y-114666299D01*
X134816299Y-114782227D01*
X134808026Y-114785654D01*
X134803285Y-114784650D01*
X134523481Y-114660624D01*
X134345598Y-114581775D01*
X134339424Y-114575291D01*
X134339516Y-114566638D01*
X134447436Y-114303814D01*
X134453746Y-114297464D01*
X134716638Y-114189517D01*
X134725591Y-114189544D01*
G37*
%TD.AperFunction*%
%TD*%
%TA.AperFunction,Conductor*%
%TO.N,Drawer_1_STDBY_TMC2209*%
G36*
X169447875Y-132088088D02*
G01*
X169453930Y-132094273D01*
X169563463Y-132356425D01*
X169563490Y-132365380D01*
X169563463Y-132365447D01*
X169453930Y-132627598D01*
X169447578Y-132633910D01*
X169438923Y-132634003D01*
X168971837Y-132453824D01*
X168965352Y-132447649D01*
X168964348Y-132442908D01*
X168964348Y-132278963D01*
X168967775Y-132270690D01*
X168971837Y-132268047D01*
X169438924Y-132087868D01*
X169447875Y-132088088D01*
G37*
%TD.AperFunction*%
%TD*%
%TA.AperFunction,Conductor*%
%TO.N,Drawer_1_STDBY_TMC2209*%
G36*
X168233527Y-110727152D02*
G01*
X168239582Y-110733337D01*
X168349115Y-110995489D01*
X168349142Y-111004444D01*
X168349115Y-111004511D01*
X168239582Y-111266662D01*
X168233230Y-111272974D01*
X168224575Y-111273067D01*
X167757489Y-111092888D01*
X167751004Y-111086713D01*
X167750000Y-111081972D01*
X167750000Y-110918027D01*
X167753427Y-110909754D01*
X167757489Y-110907111D01*
X168224576Y-110726932D01*
X168233527Y-110727152D01*
G37*
%TD.AperFunction*%
%TD*%
%TA.AperFunction,Conductor*%
%TO.N,Drawer_1_OA2*%
G36*
X173525042Y-129543799D02*
G01*
X173530370Y-129546850D01*
X173645254Y-129661734D01*
X173648681Y-129670007D01*
X173645254Y-129678280D01*
X173643420Y-129679776D01*
X173166595Y-129994091D01*
X173157802Y-129995783D01*
X173150387Y-129990761D01*
X173149360Y-129988833D01*
X173041171Y-129729904D01*
X173041145Y-129720951D01*
X173150901Y-129456926D01*
X173157240Y-129450604D01*
X173164647Y-129450095D01*
X173525042Y-129543799D01*
G37*
%TD.AperFunction*%
%TD*%
%TA.AperFunction,Conductor*%
%TO.N,Drawer_1_OA2*%
G36*
X181934371Y-124655628D02*
G01*
X182888156Y-125241582D01*
X182893412Y-125248832D01*
X182892001Y-125257675D01*
X182890357Y-125259772D01*
X182084738Y-126075492D01*
X182076486Y-126078971D01*
X182072158Y-126078170D01*
X181338626Y-125791827D01*
X181334608Y-125789201D01*
X181216034Y-125670627D01*
X181212607Y-125662354D01*
X181214749Y-125655606D01*
X181918691Y-124658848D01*
X181926263Y-124654068D01*
X181934371Y-124655628D01*
G37*
%TD.AperFunction*%
%TD*%
%TA.AperFunction,Conductor*%
%TO.N,Net-(Q2-D)*%
G36*
X186817208Y-139407353D02*
G01*
X186823693Y-139413528D01*
X186824697Y-139418269D01*
X186824697Y-139582214D01*
X186821270Y-139590487D01*
X186817208Y-139593130D01*
X186350121Y-139773309D01*
X186341169Y-139773089D01*
X186335114Y-139766904D01*
X186225580Y-139504751D01*
X186225554Y-139495798D01*
X186225559Y-139495784D01*
X186335114Y-139233578D01*
X186341466Y-139227267D01*
X186350120Y-139227174D01*
X186817208Y-139407353D01*
G37*
%TD.AperFunction*%
%TD*%
%TA.AperFunction,Conductor*%
%TO.N,Net-(Q2-D)*%
G36*
X189332074Y-139089007D02*
G01*
X189593737Y-139197002D01*
X189600077Y-139203326D01*
X189600973Y-139207856D01*
X189600032Y-139490343D01*
X189596578Y-139498605D01*
X189590513Y-139501799D01*
X189138245Y-139587608D01*
X189129478Y-139585783D01*
X189124569Y-139578294D01*
X189124364Y-139576113D01*
X189124364Y-139413531D01*
X189126077Y-139407435D01*
X189317627Y-139093724D01*
X189324862Y-139088451D01*
X189332074Y-139089007D01*
G37*
%TD.AperFunction*%
%TD*%
M02*
