%TF.GenerationSoftware,KiCad,Pcbnew,8.0.3-8.0.3-0~ubuntu22.04.1*%
%TF.CreationDate,2024-06-05T11:38:55+02:00*%
%TF.ProjectId,Drawer_Controller_v4,44726177-6572-45f4-936f-6e74726f6c6c,rev?*%
%TF.SameCoordinates,Original*%
%TF.FileFunction,Paste,Top*%
%TF.FilePolarity,Positive*%
%FSLAX46Y46*%
G04 Gerber Fmt 4.6, Leading zero omitted, Abs format (unit mm)*
G04 Created by KiCad (PCBNEW 8.0.3-8.0.3-0~ubuntu22.04.1) date 2024-06-05 11:38:55*
%MOMM*%
%LPD*%
G01*
G04 APERTURE LIST*
G04 Aperture macros list*
%AMRoundRect*
0 Rectangle with rounded corners*
0 $1 Rounding radius*
0 $2 $3 $4 $5 $6 $7 $8 $9 X,Y pos of 4 corners*
0 Add a 4 corners polygon primitive as box body*
4,1,4,$2,$3,$4,$5,$6,$7,$8,$9,$2,$3,0*
0 Add four circle primitives for the rounded corners*
1,1,$1+$1,$2,$3*
1,1,$1+$1,$4,$5*
1,1,$1+$1,$6,$7*
1,1,$1+$1,$8,$9*
0 Add four rect primitives between the rounded corners*
20,1,$1+$1,$2,$3,$4,$5,0*
20,1,$1+$1,$4,$5,$6,$7,0*
20,1,$1+$1,$6,$7,$8,$9,0*
20,1,$1+$1,$8,$9,$2,$3,0*%
%AMFreePoly0*
4,1,5,0.625000,-0.750000,-0.625000,-0.750000,-0.625000,0.750000,0.625000,0.750000,0.625000,-0.750000,0.625000,-0.750000,$1*%
%AMFreePoly1*
4,1,19,0.160014,0.182309,0.196624,0.131920,0.201556,0.100778,0.201556,0.026143,0.182309,-0.033093,0.172039,-0.045118,0.045118,-0.172039,-0.010378,-0.200315,-0.026143,-0.201556,-0.100778,-0.201556,-0.160014,-0.182309,-0.196624,-0.131920,-0.201556,-0.100778,-0.201556,0.100778,-0.182309,0.160014,-0.131920,0.196624,-0.100778,0.201556,0.100778,0.201556,0.160014,0.182309,0.160014,0.182309,
$1*%
%AMFreePoly2*
4,1,21,0.052471,0.262932,0.064496,0.252661,0.172039,0.145117,0.200315,0.089622,0.201556,0.073857,0.201556,-0.073857,0.182309,-0.133093,0.172039,-0.145117,0.064496,-0.252661,0.009001,-0.280938,-0.006765,-0.282179,-0.100778,-0.282179,-0.160014,-0.262932,-0.196624,-0.212543,-0.201556,-0.181401,-0.201556,0.181401,-0.182309,0.240637,-0.131920,0.277247,-0.100778,0.282179,-0.006765,0.282179,
0.052471,0.262932,0.052471,0.262932,$1*%
%AMFreePoly3*
4,1,19,0.033093,0.182309,0.045118,0.172039,0.172039,0.045118,0.200315,-0.010378,0.201556,-0.026143,0.201556,-0.100778,0.182309,-0.160014,0.131920,-0.196624,0.100778,-0.201556,-0.100778,-0.201556,-0.160014,-0.182309,-0.196624,-0.131920,-0.201556,-0.100778,-0.201556,0.100778,-0.182309,0.160014,-0.131920,0.196624,-0.100778,0.201556,-0.026143,0.201556,0.033093,0.182309,0.033093,0.182309,
$1*%
%AMFreePoly4*
4,1,21,0.240637,0.182309,0.277247,0.131920,0.282179,0.100778,0.282179,0.006765,0.262932,-0.052471,0.252661,-0.064496,0.145117,-0.172039,0.089622,-0.200315,0.073857,-0.201556,-0.073857,-0.201556,-0.133093,-0.182309,-0.145117,-0.172039,-0.252661,-0.064496,-0.280938,-0.009001,-0.282179,0.006765,-0.282179,0.100778,-0.262932,0.160014,-0.212543,0.196624,-0.181401,0.201556,0.181401,0.201556,
0.240637,0.182309,0.240637,0.182309,$1*%
%AMFreePoly5*
4,1,25,0.153044,0.262299,0.165464,0.251692,0.251692,0.165464,0.280897,0.108147,0.282178,0.091864,0.282178,-0.091864,0.262299,-0.153044,0.251692,-0.165464,0.165464,-0.251692,0.108147,-0.280897,0.091864,-0.282178,-0.091864,-0.282178,-0.153044,-0.262299,-0.165464,-0.251692,-0.251692,-0.165464,-0.280897,-0.108147,-0.282178,-0.091864,-0.282178,0.091864,-0.262299,0.153044,-0.251692,0.165464,
-0.165464,0.251692,-0.108147,0.280897,-0.091864,0.282178,0.091864,0.282178,0.153044,0.262299,0.153044,0.262299,$1*%
%AMFreePoly6*
4,1,21,0.133093,0.182309,0.145117,0.172039,0.252661,0.064496,0.280938,0.009001,0.282179,-0.006765,0.282179,-0.100778,0.262932,-0.160014,0.212543,-0.196624,0.181401,-0.201556,-0.181401,-0.201556,-0.240637,-0.182309,-0.277247,-0.131920,-0.282179,-0.100778,-0.282179,-0.006765,-0.262932,0.052471,-0.252661,0.064496,-0.145117,0.172039,-0.089622,0.200315,-0.073857,0.201556,0.073857,0.201556,
0.133093,0.182309,0.133093,0.182309,$1*%
%AMFreePoly7*
4,1,19,0.160014,0.182309,0.196624,0.131920,0.201556,0.100778,0.201556,-0.100778,0.182309,-0.160014,0.131920,-0.196624,0.100778,-0.201556,0.026143,-0.201556,-0.033093,-0.182309,-0.045118,-0.172039,-0.172039,-0.045118,-0.200315,0.010378,-0.201556,0.026143,-0.201556,0.100778,-0.182309,0.160014,-0.131920,0.196624,-0.100778,0.201556,0.100778,0.201556,0.160014,0.182309,0.160014,0.182309,
$1*%
%AMFreePoly8*
4,1,21,0.160014,0.262932,0.196624,0.212543,0.201556,0.181401,0.201556,-0.181401,0.182309,-0.240637,0.131920,-0.277247,0.100778,-0.282179,0.006765,-0.282179,-0.052471,-0.262932,-0.064496,-0.252661,-0.172039,-0.145117,-0.200315,-0.089622,-0.201556,-0.073857,-0.201556,0.073857,-0.182309,0.133093,-0.172039,0.145117,-0.064496,0.252661,-0.009001,0.280938,0.006765,0.282179,0.100778,0.282179,
0.160014,0.262932,0.160014,0.262932,$1*%
%AMFreePoly9*
4,1,19,0.160014,0.182309,0.196624,0.131920,0.201556,0.100778,0.201556,-0.100778,0.182309,-0.160014,0.131920,-0.196624,0.100778,-0.201556,-0.100778,-0.201556,-0.160014,-0.182309,-0.196624,-0.131920,-0.201556,-0.100778,-0.201556,-0.026143,-0.182309,0.033093,-0.172039,0.045118,-0.045118,0.172039,0.010378,0.200315,0.026143,0.201556,0.100778,0.201556,0.160014,0.182309,0.160014,0.182309,
$1*%
G04 Aperture macros list end*
%ADD10C,0.010000*%
%ADD11RoundRect,0.250000X-1.000000X1.750000X-1.000000X-1.750000X1.000000X-1.750000X1.000000X1.750000X0*%
%ADD12RoundRect,0.250000X-1.750000X-1.000000X1.750000X-1.000000X1.750000X1.000000X-1.750000X1.000000X0*%
%ADD13RoundRect,0.140000X0.140000X0.170000X-0.140000X0.170000X-0.140000X-0.170000X0.140000X-0.170000X0*%
%ADD14RoundRect,0.250000X-1.075000X0.312500X-1.075000X-0.312500X1.075000X-0.312500X1.075000X0.312500X0*%
%ADD15RoundRect,0.250000X-0.650000X1.000000X-0.650000X-1.000000X0.650000X-1.000000X0.650000X1.000000X0*%
%ADD16RoundRect,0.250000X0.650000X-0.325000X0.650000X0.325000X-0.650000X0.325000X-0.650000X-0.325000X0*%
%ADD17RoundRect,0.150000X-0.825000X-0.150000X0.825000X-0.150000X0.825000X0.150000X-0.825000X0.150000X0*%
%ADD18RoundRect,0.135000X0.185000X-0.135000X0.185000X0.135000X-0.185000X0.135000X-0.185000X-0.135000X0*%
%ADD19RoundRect,0.150000X-0.587500X-0.150000X0.587500X-0.150000X0.587500X0.150000X-0.587500X0.150000X0*%
%ADD20RoundRect,0.135000X-0.135000X-0.185000X0.135000X-0.185000X0.135000X0.185000X-0.135000X0.185000X0*%
%ADD21R,1.000000X0.750000*%
%ADD22R,1.350000X0.400000*%
%ADD23FreePoly0,270.000000*%
%ADD24R,1.550000X1.500000*%
%ADD25RoundRect,0.150000X0.200000X-0.150000X0.200000X0.150000X-0.200000X0.150000X-0.200000X-0.150000X0*%
%ADD26RoundRect,0.140000X0.170000X-0.140000X0.170000X0.140000X-0.170000X0.140000X-0.170000X-0.140000X0*%
%ADD27RoundRect,0.200000X-0.200000X-0.275000X0.200000X-0.275000X0.200000X0.275000X-0.200000X0.275000X0*%
%ADD28RoundRect,0.250000X-0.650000X0.325000X-0.650000X-0.325000X0.650000X-0.325000X0.650000X0.325000X0*%
%ADD29RoundRect,0.200000X0.275000X-0.200000X0.275000X0.200000X-0.275000X0.200000X-0.275000X-0.200000X0*%
%ADD30RoundRect,0.140000X-0.140000X-0.170000X0.140000X-0.170000X0.140000X0.170000X-0.140000X0.170000X0*%
%ADD31RoundRect,0.140000X-0.170000X0.140000X-0.170000X-0.140000X0.170000X-0.140000X0.170000X0.140000X0*%
%ADD32RoundRect,0.250000X0.325000X0.650000X-0.325000X0.650000X-0.325000X-0.650000X0.325000X-0.650000X0*%
%ADD33RoundRect,0.225000X0.250000X-0.225000X0.250000X0.225000X-0.250000X0.225000X-0.250000X-0.225000X0*%
%ADD34RoundRect,0.150000X-0.150000X0.587500X-0.150000X-0.587500X0.150000X-0.587500X0.150000X0.587500X0*%
%ADD35RoundRect,0.250000X0.475000X-0.250000X0.475000X0.250000X-0.475000X0.250000X-0.475000X-0.250000X0*%
%ADD36RoundRect,0.375000X-0.625000X-0.375000X0.625000X-0.375000X0.625000X0.375000X-0.625000X0.375000X0*%
%ADD37RoundRect,0.500000X-0.500000X-1.400000X0.500000X-1.400000X0.500000X1.400000X-0.500000X1.400000X0*%
%ADD38RoundRect,0.250000X1.075000X-0.312500X1.075000X0.312500X-1.075000X0.312500X-1.075000X-0.312500X0*%
%ADD39RoundRect,0.135000X-0.185000X0.135000X-0.185000X-0.135000X0.185000X-0.135000X0.185000X0.135000X0*%
%ADD40RoundRect,0.200000X-0.275000X0.200000X-0.275000X-0.200000X0.275000X-0.200000X0.275000X0.200000X0*%
%ADD41R,4.241800X3.810000*%
%ADD42RoundRect,0.225000X-0.225000X-0.250000X0.225000X-0.250000X0.225000X0.250000X-0.225000X0.250000X0*%
%ADD43RoundRect,0.250000X-0.250000X-0.475000X0.250000X-0.475000X0.250000X0.475000X-0.250000X0.475000X0*%
%ADD44RoundRect,0.100000X-0.100000X0.155000X-0.100000X-0.155000X0.100000X-0.155000X0.100000X0.155000X0*%
%ADD45R,1.500000X0.900000*%
%ADD46R,0.900000X1.500000*%
%ADD47R,0.900000X0.900000*%
%ADD48RoundRect,0.150000X0.150000X-0.587500X0.150000X0.587500X-0.150000X0.587500X-0.150000X-0.587500X0*%
%ADD49RoundRect,0.243750X0.243750X0.456250X-0.243750X0.456250X-0.243750X-0.456250X0.243750X-0.456250X0*%
%ADD50RoundRect,0.218750X0.218750X0.256250X-0.218750X0.256250X-0.218750X-0.256250X0.218750X-0.256250X0*%
%ADD51RoundRect,0.725000X-0.725000X1.975000X-0.725000X-1.975000X0.725000X-1.975000X0.725000X1.975000X0*%
%ADD52RoundRect,0.135000X0.135000X0.185000X-0.135000X0.185000X-0.135000X-0.185000X0.135000X-0.185000X0*%
%ADD53FreePoly1,270.000000*%
%ADD54FreePoly2,270.000000*%
%ADD55FreePoly3,270.000000*%
%ADD56FreePoly4,270.000000*%
%ADD57FreePoly5,270.000000*%
%ADD58FreePoly6,270.000000*%
%ADD59FreePoly7,270.000000*%
%ADD60FreePoly8,270.000000*%
%ADD61FreePoly9,270.000000*%
%ADD62RoundRect,0.062500X-0.062500X0.412500X-0.062500X-0.412500X0.062500X-0.412500X0.062500X0.412500X0*%
%ADD63RoundRect,0.062500X-0.412500X0.062500X-0.412500X-0.062500X0.412500X-0.062500X0.412500X0.062500X0*%
%ADD64RoundRect,0.225000X0.225000X0.225000X-0.225000X0.225000X-0.225000X-0.225000X0.225000X-0.225000X0*%
%ADD65RoundRect,0.062500X0.337500X0.062500X-0.337500X0.062500X-0.337500X-0.062500X0.337500X-0.062500X0*%
%ADD66RoundRect,0.062500X0.062500X0.337500X-0.062500X0.337500X-0.062500X-0.337500X0.062500X-0.337500X0*%
%ADD67RoundRect,0.250000X-0.300000X0.300000X-0.300000X-0.300000X0.300000X-0.300000X0.300000X0.300000X0*%
%ADD68RoundRect,0.150000X0.825000X0.150000X-0.825000X0.150000X-0.825000X-0.150000X0.825000X-0.150000X0*%
%ADD69RoundRect,0.250000X-0.475000X0.250000X-0.475000X-0.250000X0.475000X-0.250000X0.475000X0.250000X0*%
%ADD70RoundRect,0.041300X-0.588700X-0.253700X0.588700X-0.253700X0.588700X0.253700X-0.588700X0.253700X0*%
%ADD71RoundRect,0.218750X-0.256250X0.218750X-0.256250X-0.218750X0.256250X-0.218750X0.256250X0.218750X0*%
%ADD72RoundRect,0.222500X-0.297500X-0.222500X0.297500X-0.222500X0.297500X0.222500X-0.297500X0.222500X0*%
%ADD73RoundRect,0.150000X-0.737500X-0.150000X0.737500X-0.150000X0.737500X0.150000X-0.737500X0.150000X0*%
%ADD74RoundRect,0.100000X0.637500X0.100000X-0.637500X0.100000X-0.637500X-0.100000X0.637500X-0.100000X0*%
%ADD75RoundRect,0.150000X-0.150000X-0.200000X0.150000X-0.200000X0.150000X0.200000X-0.150000X0.200000X0*%
%ADD76RoundRect,0.200000X0.200000X0.275000X-0.200000X0.275000X-0.200000X-0.275000X0.200000X-0.275000X0*%
%ADD77RoundRect,0.150000X-0.200000X0.150000X-0.200000X-0.150000X0.200000X-0.150000X0.200000X0.150000X0*%
%ADD78RoundRect,0.225000X0.225000X0.250000X-0.225000X0.250000X-0.225000X-0.250000X0.225000X-0.250000X0*%
%ADD79RoundRect,0.100000X0.100000X-0.155000X0.100000X0.155000X-0.100000X0.155000X-0.100000X-0.155000X0*%
G04 APERTURE END LIST*
D10*
%TO.C,X7*%
X103226000Y-110006000D02*
X103252000Y-110008000D01*
X103278000Y-110011000D01*
X103304000Y-110016000D01*
X103329000Y-110022000D01*
X103355000Y-110029000D01*
X103379000Y-110038000D01*
X103403000Y-110048000D01*
X103427000Y-110059000D01*
X103450000Y-110072000D01*
X103472000Y-110086000D01*
X103494000Y-110100000D01*
X103515000Y-110116000D01*
X103535000Y-110133000D01*
X103554000Y-110151000D01*
X103572000Y-110170000D01*
X103589000Y-110190000D01*
X103605000Y-110211000D01*
X103619000Y-110233000D01*
X103633000Y-110255000D01*
X103646000Y-110278000D01*
X103657000Y-110302000D01*
X103667000Y-110326000D01*
X103676000Y-110350000D01*
X103683000Y-110376000D01*
X103689000Y-110401000D01*
X103694000Y-110427000D01*
X103697000Y-110453000D01*
X103699000Y-110479000D01*
X103700000Y-110505000D01*
X103700000Y-111650000D01*
X102150000Y-111650000D01*
X102150000Y-110505000D01*
X102151000Y-110479000D01*
X102153000Y-110453000D01*
X102156000Y-110427000D01*
X102161000Y-110401000D01*
X102167000Y-110376000D01*
X102174000Y-110350000D01*
X102183000Y-110326000D01*
X102193000Y-110302000D01*
X102204000Y-110278000D01*
X102217000Y-110255000D01*
X102231000Y-110233000D01*
X102245000Y-110211000D01*
X102261000Y-110190000D01*
X102278000Y-110170000D01*
X102296000Y-110151000D01*
X102315000Y-110133000D01*
X102335000Y-110116000D01*
X102356000Y-110100000D01*
X102378000Y-110086000D01*
X102400000Y-110072000D01*
X102423000Y-110059000D01*
X102447000Y-110048000D01*
X102471000Y-110038000D01*
X102495000Y-110029000D01*
X102521000Y-110022000D01*
X102546000Y-110016000D01*
X102572000Y-110011000D01*
X102598000Y-110008000D01*
X102624000Y-110006000D01*
X102650000Y-110005000D01*
X103200000Y-110005000D01*
X103226000Y-110006000D01*
G36*
X103226000Y-110006000D02*
G01*
X103252000Y-110008000D01*
X103278000Y-110011000D01*
X103304000Y-110016000D01*
X103329000Y-110022000D01*
X103355000Y-110029000D01*
X103379000Y-110038000D01*
X103403000Y-110048000D01*
X103427000Y-110059000D01*
X103450000Y-110072000D01*
X103472000Y-110086000D01*
X103494000Y-110100000D01*
X103515000Y-110116000D01*
X103535000Y-110133000D01*
X103554000Y-110151000D01*
X103572000Y-110170000D01*
X103589000Y-110190000D01*
X103605000Y-110211000D01*
X103619000Y-110233000D01*
X103633000Y-110255000D01*
X103646000Y-110278000D01*
X103657000Y-110302000D01*
X103667000Y-110326000D01*
X103676000Y-110350000D01*
X103683000Y-110376000D01*
X103689000Y-110401000D01*
X103694000Y-110427000D01*
X103697000Y-110453000D01*
X103699000Y-110479000D01*
X103700000Y-110505000D01*
X103700000Y-111650000D01*
X102150000Y-111650000D01*
X102150000Y-110505000D01*
X102151000Y-110479000D01*
X102153000Y-110453000D01*
X102156000Y-110427000D01*
X102161000Y-110401000D01*
X102167000Y-110376000D01*
X102174000Y-110350000D01*
X102183000Y-110326000D01*
X102193000Y-110302000D01*
X102204000Y-110278000D01*
X102217000Y-110255000D01*
X102231000Y-110233000D01*
X102245000Y-110211000D01*
X102261000Y-110190000D01*
X102278000Y-110170000D01*
X102296000Y-110151000D01*
X102315000Y-110133000D01*
X102335000Y-110116000D01*
X102356000Y-110100000D01*
X102378000Y-110086000D01*
X102400000Y-110072000D01*
X102423000Y-110059000D01*
X102447000Y-110048000D01*
X102471000Y-110038000D01*
X102495000Y-110029000D01*
X102521000Y-110022000D01*
X102546000Y-110016000D01*
X102572000Y-110011000D01*
X102598000Y-110008000D01*
X102624000Y-110006000D01*
X102650000Y-110005000D01*
X103200000Y-110005000D01*
X103226000Y-110006000D01*
G37*
X103700000Y-117395000D02*
X103699000Y-117421000D01*
X103697000Y-117447000D01*
X103694000Y-117473000D01*
X103689000Y-117499000D01*
X103683000Y-117524000D01*
X103676000Y-117550000D01*
X103667000Y-117574000D01*
X103657000Y-117598000D01*
X103646000Y-117622000D01*
X103633000Y-117645000D01*
X103619000Y-117667000D01*
X103605000Y-117689000D01*
X103589000Y-117710000D01*
X103572000Y-117730000D01*
X103554000Y-117749000D01*
X103535000Y-117767000D01*
X103515000Y-117784000D01*
X103494000Y-117800000D01*
X103472000Y-117814000D01*
X103450000Y-117828000D01*
X103427000Y-117841000D01*
X103403000Y-117852000D01*
X103379000Y-117862000D01*
X103355000Y-117871000D01*
X103329000Y-117878000D01*
X103304000Y-117884000D01*
X103278000Y-117889000D01*
X103252000Y-117892000D01*
X103226000Y-117894000D01*
X103200000Y-117895000D01*
X102650000Y-117895000D01*
X102624000Y-117894000D01*
X102598000Y-117892000D01*
X102572000Y-117889000D01*
X102546000Y-117884000D01*
X102521000Y-117878000D01*
X102495000Y-117871000D01*
X102471000Y-117862000D01*
X102447000Y-117852000D01*
X102423000Y-117841000D01*
X102400000Y-117828000D01*
X102378000Y-117814000D01*
X102356000Y-117800000D01*
X102335000Y-117784000D01*
X102315000Y-117767000D01*
X102296000Y-117749000D01*
X102278000Y-117730000D01*
X102261000Y-117710000D01*
X102245000Y-117689000D01*
X102231000Y-117667000D01*
X102217000Y-117645000D01*
X102204000Y-117622000D01*
X102193000Y-117598000D01*
X102183000Y-117574000D01*
X102174000Y-117550000D01*
X102167000Y-117524000D01*
X102161000Y-117499000D01*
X102156000Y-117473000D01*
X102153000Y-117447000D01*
X102151000Y-117421000D01*
X102150000Y-117395000D01*
X102150000Y-116250000D01*
X103700000Y-116250000D01*
X103700000Y-117395000D01*
G36*
X103700000Y-117395000D02*
G01*
X103699000Y-117421000D01*
X103697000Y-117447000D01*
X103694000Y-117473000D01*
X103689000Y-117499000D01*
X103683000Y-117524000D01*
X103676000Y-117550000D01*
X103667000Y-117574000D01*
X103657000Y-117598000D01*
X103646000Y-117622000D01*
X103633000Y-117645000D01*
X103619000Y-117667000D01*
X103605000Y-117689000D01*
X103589000Y-117710000D01*
X103572000Y-117730000D01*
X103554000Y-117749000D01*
X103535000Y-117767000D01*
X103515000Y-117784000D01*
X103494000Y-117800000D01*
X103472000Y-117814000D01*
X103450000Y-117828000D01*
X103427000Y-117841000D01*
X103403000Y-117852000D01*
X103379000Y-117862000D01*
X103355000Y-117871000D01*
X103329000Y-117878000D01*
X103304000Y-117884000D01*
X103278000Y-117889000D01*
X103252000Y-117892000D01*
X103226000Y-117894000D01*
X103200000Y-117895000D01*
X102650000Y-117895000D01*
X102624000Y-117894000D01*
X102598000Y-117892000D01*
X102572000Y-117889000D01*
X102546000Y-117884000D01*
X102521000Y-117878000D01*
X102495000Y-117871000D01*
X102471000Y-117862000D01*
X102447000Y-117852000D01*
X102423000Y-117841000D01*
X102400000Y-117828000D01*
X102378000Y-117814000D01*
X102356000Y-117800000D01*
X102335000Y-117784000D01*
X102315000Y-117767000D01*
X102296000Y-117749000D01*
X102278000Y-117730000D01*
X102261000Y-117710000D01*
X102245000Y-117689000D01*
X102231000Y-117667000D01*
X102217000Y-117645000D01*
X102204000Y-117622000D01*
X102193000Y-117598000D01*
X102183000Y-117574000D01*
X102174000Y-117550000D01*
X102167000Y-117524000D01*
X102161000Y-117499000D01*
X102156000Y-117473000D01*
X102153000Y-117447000D01*
X102151000Y-117421000D01*
X102150000Y-117395000D01*
X102150000Y-116250000D01*
X103700000Y-116250000D01*
X103700000Y-117395000D01*
G37*
%TD*%
D11*
%TO.C,C37*%
X170700000Y-136450000D03*
X170700000Y-144450000D03*
%TD*%
D12*
%TO.C,C1*%
X120200000Y-123550000D03*
X128200000Y-123550000D03*
%TD*%
D13*
%TO.C,C25*%
X108630000Y-116700000D03*
X107670000Y-116700000D03*
%TD*%
D14*
%TO.C,R43*%
X176650000Y-127400000D03*
X176650000Y-130325000D03*
%TD*%
D15*
%TO.C,D3*%
X111650000Y-104700000D03*
X111650000Y-108700000D03*
%TD*%
D16*
%TO.C,C13*%
X146700000Y-133175000D03*
X146700000Y-130225000D03*
%TD*%
D17*
%TO.C,U9*%
X186200000Y-101000000D03*
X186200000Y-102270000D03*
X186200000Y-103540000D03*
X186200000Y-104810000D03*
X191150000Y-104810000D03*
X191150000Y-103540000D03*
X191150000Y-102270000D03*
X191150000Y-101000000D03*
%TD*%
D18*
%TO.C,R12*%
X133425000Y-139200000D03*
X133425000Y-138180000D03*
%TD*%
D19*
%TO.C,Q4*%
X181737500Y-143387500D03*
X181737500Y-145287500D03*
X183612500Y-144337500D03*
%TD*%
D20*
%TO.C,R23*%
X188005000Y-143800000D03*
X189025000Y-143800000D03*
%TD*%
D21*
%TO.C,S2*%
X125187500Y-101025000D03*
X131187500Y-101025000D03*
X125187500Y-104775000D03*
X131187500Y-104775000D03*
%TD*%
D22*
%TO.C,X7*%
X105600000Y-112650000D03*
X105600000Y-113300000D03*
X105600000Y-113950000D03*
X105600000Y-114600000D03*
X105600000Y-115250000D03*
D23*
X102925000Y-111030000D03*
D24*
X102925000Y-112950000D03*
X102925000Y-114950000D03*
D23*
X102925000Y-116870000D03*
%TD*%
D20*
%TO.C,R9*%
X129880000Y-130650000D03*
X130900000Y-130650000D03*
%TD*%
D25*
%TO.C,F4*%
X107300000Y-111650000D03*
X107300000Y-113050000D03*
%TD*%
D26*
%TO.C,C27*%
X131125000Y-108810000D03*
X131125000Y-107850000D03*
%TD*%
D16*
%TO.C,C12*%
X149100000Y-133150000D03*
X149100000Y-130200000D03*
%TD*%
D27*
%TO.C,R7*%
X159325000Y-145950000D03*
X160975000Y-145950000D03*
%TD*%
D18*
%TO.C,R41*%
X172000000Y-122050000D03*
X172000000Y-121030000D03*
%TD*%
D26*
%TO.C,C7*%
X160500000Y-141130000D03*
X160500000Y-140170000D03*
%TD*%
D19*
%TO.C,Q1*%
X132400000Y-130700000D03*
X132400000Y-132600000D03*
X134275000Y-131650000D03*
%TD*%
D28*
%TO.C,C10*%
X146700000Y-134900000D03*
X146700000Y-137850000D03*
%TD*%
D29*
%TO.C,R4*%
X163637500Y-122175000D03*
X163637500Y-120525000D03*
%TD*%
D30*
%TO.C,C31*%
X170070000Y-122000000D03*
X171030000Y-122000000D03*
%TD*%
D13*
%TO.C,C41*%
X177230000Y-133400000D03*
X176270000Y-133400000D03*
%TD*%
D31*
%TO.C,C23*%
X123700000Y-102420000D03*
X123700000Y-103380000D03*
%TD*%
%TO.C,C33*%
X169100000Y-121690000D03*
X169100000Y-122650000D03*
%TD*%
D32*
%TO.C,C18*%
X188550000Y-141350000D03*
X185600000Y-141350000D03*
%TD*%
D20*
%TO.C,R20*%
X187925000Y-139600000D03*
X188945000Y-139600000D03*
%TD*%
D16*
%TO.C,C5*%
X146900000Y-142600000D03*
X146900000Y-139650000D03*
%TD*%
D33*
%TO.C,C3*%
X153200000Y-121375000D03*
X153200000Y-119825000D03*
%TD*%
D18*
%TO.C,R32*%
X114950000Y-109970000D03*
X114950000Y-108950000D03*
%TD*%
D13*
%TO.C,C34*%
X168280000Y-130000000D03*
X167320000Y-130000000D03*
%TD*%
D19*
%TO.C,Q2*%
X181725000Y-139850000D03*
X181725000Y-141750000D03*
X183600000Y-140800000D03*
%TD*%
D20*
%TO.C,R16*%
X172650000Y-117700000D03*
X173670000Y-117700000D03*
%TD*%
D18*
%TO.C,R1*%
X151800000Y-121810000D03*
X151800000Y-120790000D03*
%TD*%
D25*
%TO.C,F3*%
X203550000Y-136750000D03*
X203550000Y-138150000D03*
%TD*%
D29*
%TO.C,R11*%
X136087500Y-133275000D03*
X136087500Y-131625000D03*
%TD*%
D34*
%TO.C,Q6*%
X123300000Y-112900000D03*
X121400000Y-112900000D03*
X122350000Y-114775000D03*
%TD*%
D31*
%TO.C,C20*%
X124825000Y-102425000D03*
X124825000Y-103385000D03*
%TD*%
D35*
%TO.C,C8*%
X151500000Y-142450000D03*
X151500000Y-140550000D03*
%TD*%
D20*
%TO.C,R18*%
X179215000Y-139850000D03*
X180235000Y-139850000D03*
%TD*%
D31*
%TO.C,C30*%
X170200000Y-130020000D03*
X170200000Y-130980000D03*
%TD*%
D18*
%TO.C,R15*%
X134450000Y-136170000D03*
X134450000Y-135150000D03*
%TD*%
D36*
%TO.C,U2*%
X155250000Y-119300000D03*
X155250000Y-121600000D03*
D37*
X161550000Y-121600000D03*
D36*
X155250000Y-123900000D03*
%TD*%
D28*
%TO.C,C9*%
X149100000Y-134925000D03*
X149100000Y-137875000D03*
%TD*%
D38*
%TO.C,R44*%
X176650000Y-124962500D03*
X176650000Y-122037500D03*
%TD*%
D39*
%TO.C,R22*%
X180162500Y-144317500D03*
X180162500Y-145337500D03*
%TD*%
D30*
%TO.C,C40*%
X204900000Y-112700000D03*
X205860000Y-112700000D03*
%TD*%
D40*
%TO.C,R37*%
X152200000Y-113075000D03*
X152200000Y-114725000D03*
%TD*%
D41*
%TO.C,F2*%
X134012300Y-144000000D03*
X140387700Y-144000000D03*
%TD*%
D42*
%TO.C,C14*%
X145100000Y-128300000D03*
X146650000Y-128300000D03*
%TD*%
D18*
%TO.C,R13*%
X133425000Y-136170000D03*
X133425000Y-135150000D03*
%TD*%
D43*
%TO.C,C11*%
X160800000Y-142600000D03*
X162700000Y-142600000D03*
%TD*%
D18*
%TO.C,R14*%
X134450000Y-139200000D03*
X134450000Y-138180000D03*
%TD*%
D20*
%TO.C,R40*%
X175640000Y-116750000D03*
X176660000Y-116750000D03*
%TD*%
D44*
%TO.C,Q9*%
X108625000Y-115465000D03*
X109625000Y-115465000D03*
X109125000Y-114175000D03*
%TD*%
D45*
%TO.C,U6*%
X132700000Y-107930000D03*
X132700000Y-109200000D03*
X132700000Y-110470000D03*
X132700000Y-111740000D03*
X132700000Y-113010000D03*
X132700000Y-114280000D03*
X132700000Y-115550000D03*
X132700000Y-116820000D03*
X132700000Y-118090000D03*
X132700000Y-119360000D03*
X132700000Y-120630000D03*
X132700000Y-121900000D03*
X132700000Y-123170000D03*
X132700000Y-124440000D03*
D46*
X135735000Y-125690000D03*
X137005000Y-125690000D03*
X138275000Y-125690000D03*
X139545000Y-125690000D03*
X140815000Y-125690000D03*
X142085000Y-125690000D03*
X143355000Y-125690000D03*
X144625000Y-125690000D03*
X145895000Y-125690000D03*
X147165000Y-125690000D03*
D45*
X150200000Y-124440000D03*
X150200000Y-123170000D03*
X150200000Y-121900000D03*
X150200000Y-120630000D03*
X150200000Y-119360000D03*
X150200000Y-118090000D03*
X150200000Y-116820000D03*
X150200000Y-115550000D03*
X150200000Y-114280000D03*
X150200000Y-113010000D03*
X150200000Y-111740000D03*
X150200000Y-110470000D03*
X150200000Y-109200000D03*
X150200000Y-107930000D03*
D47*
X138550000Y-114250000D03*
X138550000Y-115650000D03*
X138550000Y-117050000D03*
X139950000Y-114250000D03*
X139950000Y-115650000D03*
X139950000Y-117050000D03*
X141350000Y-114250000D03*
X141350000Y-115650000D03*
X141350000Y-117050000D03*
%TD*%
D20*
%TO.C,R6*%
X157140000Y-145550000D03*
X158160000Y-145550000D03*
%TD*%
D48*
%TO.C,Q7*%
X121400000Y-108887500D03*
X123300000Y-108887500D03*
X122350000Y-107012500D03*
%TD*%
D39*
%TO.C,R36*%
X131125000Y-109750000D03*
X131125000Y-110770000D03*
%TD*%
D32*
%TO.C,C19*%
X188600000Y-145550000D03*
X185650000Y-145550000D03*
%TD*%
D39*
%TO.C,R27*%
X121400000Y-110377500D03*
X121400000Y-111397500D03*
%TD*%
D49*
%TO.C,D2*%
X165537500Y-118825000D03*
X163662500Y-118825000D03*
%TD*%
D50*
%TO.C,D1*%
X161187500Y-126000000D03*
X159612500Y-126000000D03*
%TD*%
D20*
%TO.C,R28*%
X115040000Y-107400000D03*
X116060000Y-107400000D03*
%TD*%
D51*
%TO.C,L1*%
X161850000Y-133200000D03*
X151950000Y-133200000D03*
%TD*%
D52*
%TO.C,R34*%
X108650000Y-117750000D03*
X107630000Y-117750000D03*
%TD*%
D53*
%TO.C,U8*%
X172050000Y-125050000D03*
D54*
X171450000Y-125050000D03*
X170750000Y-125050000D03*
X170050000Y-125050000D03*
D55*
X169450000Y-125050000D03*
D56*
X172050000Y-125650000D03*
D57*
X171450000Y-125650000D03*
X170750000Y-125650000D03*
X170050000Y-125650000D03*
D58*
X169450000Y-125650000D03*
D56*
X172050000Y-126350000D03*
D57*
X171450000Y-126350000D03*
X170750000Y-126350000D03*
X170050000Y-126350000D03*
D58*
X169450000Y-126350000D03*
D56*
X172050000Y-127050000D03*
D57*
X171450000Y-127050000D03*
X170750000Y-127050000D03*
X170050000Y-127050000D03*
D58*
X169450000Y-127050000D03*
D59*
X172050000Y-127650000D03*
D60*
X171450000Y-127650000D03*
X170750000Y-127650000D03*
X170050000Y-127650000D03*
D61*
X169450000Y-127650000D03*
D62*
X172250000Y-123975000D03*
X171750000Y-123975000D03*
X171250000Y-123975000D03*
X170750000Y-123975000D03*
X170250000Y-123975000D03*
X169750000Y-123975000D03*
X169250000Y-123975000D03*
D63*
X168375000Y-124850000D03*
X168375000Y-125350000D03*
X168375000Y-125850000D03*
X168375000Y-126350000D03*
X168375000Y-126850000D03*
X168375000Y-127350000D03*
X168375000Y-127850000D03*
D62*
X169250000Y-128725000D03*
X169750000Y-128725000D03*
X170250000Y-128725000D03*
X170750000Y-128725000D03*
X171250000Y-128725000D03*
X171750000Y-128725000D03*
X172250000Y-128725000D03*
D63*
X173125000Y-127850000D03*
X173125000Y-127350000D03*
X173125000Y-126850000D03*
X173125000Y-126350000D03*
X173125000Y-125850000D03*
X173125000Y-125350000D03*
X173125000Y-124850000D03*
%TD*%
D40*
%TO.C,R39*%
X152000000Y-124475000D03*
X152000000Y-126125000D03*
%TD*%
D31*
%TO.C,C17*%
X171700000Y-117770000D03*
X171700000Y-118730000D03*
%TD*%
D18*
%TO.C,R35*%
X113925000Y-109970000D03*
X113925000Y-108950000D03*
%TD*%
D27*
%TO.C,R5*%
X160700000Y-144400000D03*
X162350000Y-144400000D03*
%TD*%
D39*
%TO.C,R10*%
X130850000Y-131665000D03*
X130850000Y-132685000D03*
%TD*%
D19*
%TO.C,Q3*%
X190450000Y-139800000D03*
X190450000Y-141700000D03*
X192325000Y-140750000D03*
%TD*%
D30*
%TO.C,C38*%
X193170000Y-100700000D03*
X194130000Y-100700000D03*
%TD*%
D39*
%TO.C,R19*%
X180175000Y-140850000D03*
X180175000Y-141870000D03*
%TD*%
D16*
%TO.C,C28*%
X129400000Y-109550000D03*
X129400000Y-106600000D03*
%TD*%
D39*
%TO.C,R46*%
X179270000Y-133380000D03*
X179270000Y-134400000D03*
%TD*%
%TO.C,R29*%
X115975000Y-108955000D03*
X115975000Y-109975000D03*
%TD*%
D20*
%TO.C,R21*%
X179202500Y-143337500D03*
X180222500Y-143337500D03*
%TD*%
D64*
%TO.C,U5*%
X115020000Y-114987500D03*
X115020000Y-113867500D03*
X115020000Y-112747500D03*
X113900000Y-114987500D03*
X113900000Y-113867500D03*
X113900000Y-112747500D03*
X112780000Y-114987500D03*
X112780000Y-113867500D03*
X112780000Y-112747500D03*
D65*
X116350000Y-115367500D03*
X116350000Y-114867500D03*
X116350000Y-114367500D03*
X116350000Y-113867500D03*
X116350000Y-113367500D03*
X116350000Y-112867500D03*
X116350000Y-112367500D03*
D66*
X115400000Y-111417500D03*
X114900000Y-111417500D03*
X114400000Y-111417500D03*
X113900000Y-111417500D03*
X113400000Y-111417500D03*
X112900000Y-111417500D03*
X112400000Y-111417500D03*
D65*
X111450000Y-112367500D03*
X111450000Y-112867500D03*
X111450000Y-113367500D03*
X111450000Y-113867500D03*
X111450000Y-114367500D03*
X111450000Y-114867500D03*
X111450000Y-115367500D03*
D66*
X112400000Y-116317500D03*
X112900000Y-116317500D03*
X113400000Y-116317500D03*
X113900000Y-116317500D03*
X114400000Y-116317500D03*
X114900000Y-116317500D03*
X115400000Y-116317500D03*
%TD*%
D20*
%TO.C,R2*%
X111790000Y-126100000D03*
X112810000Y-126100000D03*
%TD*%
D18*
%TO.C,R30*%
X117075000Y-109985000D03*
X117075000Y-108965000D03*
%TD*%
D21*
%TO.C,S3*%
X117337500Y-101025000D03*
X123337500Y-101025000D03*
X117337500Y-104775000D03*
X123337500Y-104775000D03*
%TD*%
D16*
%TO.C,C32*%
X166400000Y-124325000D03*
X166400000Y-121375000D03*
%TD*%
D26*
%TO.C,C35*%
X174400000Y-124630000D03*
X174400000Y-123670000D03*
%TD*%
D67*
%TO.C,F1*%
X130300000Y-139900000D03*
X130300000Y-142700000D03*
%TD*%
D19*
%TO.C,Q5*%
X190525000Y-144050000D03*
X190525000Y-145950000D03*
X192400000Y-145000000D03*
%TD*%
D27*
%TO.C,R3*%
X156500000Y-126000000D03*
X158150000Y-126000000D03*
%TD*%
D31*
%TO.C,C36*%
X174400000Y-128000000D03*
X174400000Y-128960000D03*
%TD*%
D16*
%TO.C,C24*%
X119250000Y-111625000D03*
X119250000Y-108675000D03*
%TD*%
D17*
%TO.C,U11*%
X198175000Y-112695000D03*
X198175000Y-113965000D03*
X198175000Y-115235000D03*
X198175000Y-116505000D03*
X203125000Y-116505000D03*
X203125000Y-115235000D03*
X203125000Y-113965000D03*
X203125000Y-112695000D03*
%TD*%
D68*
%TO.C,U4*%
X143050000Y-131790000D03*
X143050000Y-130520000D03*
X143050000Y-129250000D03*
X143050000Y-127980000D03*
X138100000Y-127980000D03*
X138100000Y-129250000D03*
X138100000Y-130520000D03*
X138100000Y-131790000D03*
%TD*%
D69*
%TO.C,C26*%
X129600000Y-111250000D03*
X129600000Y-113150000D03*
%TD*%
D18*
%TO.C,R8*%
X152000000Y-145210000D03*
X152000000Y-144190000D03*
%TD*%
D70*
%TO.C,U1*%
X130040000Y-136250000D03*
X130040000Y-138150000D03*
X132000000Y-137200000D03*
%TD*%
D39*
%TO.C,R17*%
X174650000Y-116740000D03*
X174650000Y-117760000D03*
%TD*%
D16*
%TO.C,C4*%
X149300000Y-142575000D03*
X149300000Y-139625000D03*
%TD*%
D71*
%TO.C,D4*%
X163800000Y-124512500D03*
X163800000Y-126087500D03*
%TD*%
D26*
%TO.C,C15*%
X144850000Y-130510000D03*
X144850000Y-129550000D03*
%TD*%
%TO.C,C21*%
X117550000Y-112250000D03*
X117550000Y-111290000D03*
%TD*%
D72*
%TO.C,U3*%
X155650000Y-141270000D03*
X155650000Y-142300000D03*
X155650000Y-143330000D03*
X156850000Y-141270000D03*
X156850000Y-142300000D03*
X156850000Y-143330000D03*
D73*
X153687500Y-140395000D03*
X153687500Y-141665000D03*
X153687500Y-142935000D03*
X153687500Y-144205000D03*
X158812500Y-144205000D03*
X158812500Y-142935000D03*
X158812500Y-141665000D03*
X158812500Y-140395000D03*
%TD*%
D52*
%TO.C,R33*%
X110595000Y-117750000D03*
X109575000Y-117750000D03*
%TD*%
D18*
%TO.C,R31*%
X117100000Y-108060000D03*
X117100000Y-107040000D03*
%TD*%
D13*
%TO.C,C16*%
X144050000Y-133450000D03*
X143090000Y-133450000D03*
%TD*%
D39*
%TO.C,R45*%
X178220000Y-133390000D03*
X178220000Y-134410000D03*
%TD*%
D13*
%TO.C,C29*%
X170950000Y-116750000D03*
X169990000Y-116750000D03*
%TD*%
D26*
%TO.C,C39*%
X192900000Y-106430000D03*
X192900000Y-105470000D03*
%TD*%
D74*
%TO.C,U7*%
X176662500Y-115625000D03*
X176662500Y-114975000D03*
X176662500Y-114325000D03*
X176662500Y-113675000D03*
X176662500Y-113025000D03*
X176662500Y-112375000D03*
X176662500Y-111725000D03*
X176662500Y-111075000D03*
X176662500Y-110425000D03*
X176662500Y-109775000D03*
X176662500Y-109125000D03*
X176662500Y-108475000D03*
X170937500Y-108475000D03*
X170937500Y-109125000D03*
X170937500Y-109775000D03*
X170937500Y-110425000D03*
X170937500Y-111075000D03*
X170937500Y-111725000D03*
X170937500Y-112375000D03*
X170937500Y-113025000D03*
X170937500Y-113675000D03*
X170937500Y-114325000D03*
X170937500Y-114975000D03*
X170937500Y-115625000D03*
%TD*%
D25*
%TO.C,F7*%
X180520000Y-132850000D03*
X180520000Y-134250000D03*
%TD*%
D75*
%TO.C,F6*%
X108700000Y-110050000D03*
X107300000Y-110050000D03*
%TD*%
D17*
%TO.C,U10*%
X186200000Y-106500000D03*
X186200000Y-107770000D03*
X186200000Y-109040000D03*
X186200000Y-110310000D03*
X191150000Y-110310000D03*
X191150000Y-109040000D03*
X191150000Y-107770000D03*
X191150000Y-106500000D03*
%TD*%
D26*
%TO.C,C22*%
X109350000Y-108810000D03*
X109350000Y-107850000D03*
%TD*%
D76*
%TO.C,R24*%
X116150000Y-119800000D03*
X114500000Y-119800000D03*
%TD*%
D28*
%TO.C,C6*%
X144500000Y-142500000D03*
X144500000Y-145450000D03*
%TD*%
D77*
%TO.C,F5*%
X107300000Y-115625000D03*
X107300000Y-114225000D03*
%TD*%
D39*
%TO.C,R26*%
X123300000Y-110375000D03*
X123300000Y-111395000D03*
%TD*%
D76*
%TO.C,R25*%
X116450000Y-118250000D03*
X114800000Y-118250000D03*
%TD*%
D78*
%TO.C,C2*%
X155075000Y-126000000D03*
X153525000Y-126000000D03*
%TD*%
D76*
%TO.C,R42*%
X166925000Y-126300000D03*
X165275000Y-126300000D03*
%TD*%
D79*
%TO.C,Q8*%
X109625000Y-111800000D03*
X108625000Y-111800000D03*
X109125000Y-113090000D03*
%TD*%
D29*
%TO.C,R38*%
X152200000Y-111675000D03*
X152200000Y-110025000D03*
%TD*%
M02*
