%FSLAX45Y45*%
G04 Gerber Fmt 4.5, Leading zero omitted, Abs format (unit mm)*
G04 Created by KiCad (PCBNEW (6.0.1)) date 2022-05-31 14:36:37*
%MOMM*%
%LPD*%
G01*
G04 APERTURE LIST*
%TA.AperFunction,Profile*%
%ADD10C,0.100000*%
%TD*%
%ADD11C,0.200000*%
%ADD12C,0.040000*%
%ADD13C,0.075000*%
%ADD14C,0.100000*%
%ADD15C,0.102000*%
%ADD16C,0.104000*%
%ADD17C,0.120000*%
G04 APERTURE END LIST*
D10*
X20250000Y-15000000D02*
X10250000Y-15000000D01*
X10250000Y-15000000D02*
X10250000Y-10000000D01*
X10250000Y-10000000D02*
X20250000Y-10000000D01*
X20250000Y-10000000D02*
X20250000Y-15000000D01*
D11*
D12*
X10673400Y-11834180D02*
X10713400Y-11874180D01*
X10713400Y-11834180D02*
X10673400Y-11874180D01*
X10777540Y-11196640D02*
X10817540Y-11236640D01*
X10817540Y-11196640D02*
X10777540Y-11236640D01*
X10995980Y-11399840D02*
X11035980Y-11439840D01*
X11035980Y-11399840D02*
X10995980Y-11439840D01*
X11793540Y-11559860D02*
X11833540Y-11599860D01*
X11833540Y-11559860D02*
X11793540Y-11599860D01*
X12060240Y-12309160D02*
X12100240Y-12349160D01*
X12100240Y-12309160D02*
X12060240Y-12349160D01*
X12065320Y-10079040D02*
X12105320Y-10119040D01*
X12105320Y-10079040D02*
X12065320Y-10119040D01*
X12199940Y-10396540D02*
X12239940Y-10436540D01*
X12239940Y-10396540D02*
X12199940Y-10436540D01*
X12202500Y-12495000D02*
X12242500Y-12535000D01*
X12242500Y-12495000D02*
X12202500Y-12535000D01*
X12300000Y-11302500D02*
X12340000Y-11342500D01*
X12340000Y-11302500D02*
X12300000Y-11342500D01*
X12306620Y-13518200D02*
X12346620Y-13558200D01*
X12346620Y-13518200D02*
X12306620Y-13558200D01*
X12365000Y-12647500D02*
X12405000Y-12687500D01*
X12405000Y-12647500D02*
X12365000Y-12687500D01*
X12419994Y-13287986D02*
X12459994Y-13327986D01*
X12459994Y-13287986D02*
X12419994Y-13327986D01*
X12525000Y-12495000D02*
X12565000Y-12535000D01*
X12565000Y-12495000D02*
X12525000Y-12535000D01*
X12573320Y-14569760D02*
X12613320Y-14609760D01*
X12613320Y-14569760D02*
X12573320Y-14609760D01*
X12824780Y-11260140D02*
X12864780Y-11300140D01*
X12864780Y-11260140D02*
X12824780Y-11300140D01*
X13200700Y-11001060D02*
X13240700Y-11041060D01*
X13240700Y-11001060D02*
X13200700Y-11041060D01*
X13252500Y-10687500D02*
X13292500Y-10727500D01*
X13292500Y-10687500D02*
X13252500Y-10727500D01*
X13257500Y-12505000D02*
X13297500Y-12545000D01*
X13297500Y-12505000D02*
X13257500Y-12545000D01*
X13422500Y-10527500D02*
X13462500Y-10567500D01*
X13462500Y-10527500D02*
X13422500Y-10567500D01*
X13422500Y-12652500D02*
X13462500Y-12692500D01*
X13462500Y-12652500D02*
X13422500Y-12692500D01*
X13480100Y-11625900D02*
X13520100Y-11665900D01*
X13520100Y-11625900D02*
X13480100Y-11665900D01*
X13492800Y-12159300D02*
X13532800Y-12199300D01*
X13532800Y-12159300D02*
X13492800Y-12199300D01*
X13577500Y-10687500D02*
X13617500Y-10727500D01*
X13617500Y-10687500D02*
X13577500Y-10727500D01*
X13617260Y-11239820D02*
X13657260Y-11279820D01*
X13657260Y-11239820D02*
X13617260Y-11279820D01*
X13672500Y-12517500D02*
X13712500Y-12557500D01*
X13712500Y-12517500D02*
X13672500Y-12557500D01*
X13772200Y-11117900D02*
X13812200Y-11157900D01*
X13812200Y-11117900D02*
X13772200Y-11157900D01*
X13865000Y-12400000D02*
X13905000Y-12440000D01*
X13905000Y-12400000D02*
X13865000Y-12440000D01*
X13886500Y-10902000D02*
X13926500Y-10942000D01*
X13926500Y-10902000D02*
X13886500Y-10942000D01*
X13912450Y-11420160D02*
X13952450Y-11460160D01*
X13952450Y-11420160D02*
X13912450Y-11460160D01*
X14120000Y-10750000D02*
X14160000Y-10790000D01*
X14160000Y-10750000D02*
X14120000Y-10790000D01*
X14262500Y-10390000D02*
X14302500Y-10430000D01*
X14302500Y-10390000D02*
X14262500Y-10430000D01*
X14407500Y-10535000D02*
X14447500Y-10575000D01*
X14447500Y-10535000D02*
X14407500Y-10575000D01*
X14437450Y-11379520D02*
X14477450Y-11419520D01*
X14477450Y-11379520D02*
X14437450Y-11419520D01*
X14440220Y-11953560D02*
X14480220Y-11993560D01*
X14480220Y-11953560D02*
X14440220Y-11993560D01*
X14595160Y-12949240D02*
X14635160Y-12989240D01*
X14635160Y-12949240D02*
X14595160Y-12989240D01*
X14735000Y-10812500D02*
X14775000Y-10852500D01*
X14775000Y-10812500D02*
X14735000Y-10852500D01*
X14770420Y-12329480D02*
X14810420Y-12369480D01*
X14810420Y-12329480D02*
X14770420Y-12369480D01*
X14772960Y-12072940D02*
X14812960Y-12112940D01*
X14812960Y-12072940D02*
X14772960Y-12112940D01*
X14830000Y-10655000D02*
X14870000Y-10695000D01*
X14870000Y-10655000D02*
X14830000Y-10695000D01*
X14895000Y-10965000D02*
X14935000Y-11005000D01*
X14935000Y-10965000D02*
X14895000Y-11005000D01*
X14917740Y-11923080D02*
X14957740Y-11963080D01*
X14957740Y-11923080D02*
X14917740Y-11963080D01*
X14930000Y-10355000D02*
X14970000Y-10395000D01*
X14970000Y-10355000D02*
X14930000Y-10395000D01*
X14983780Y-12537760D02*
X15023780Y-12577760D01*
X15023780Y-12537760D02*
X14983780Y-12577760D01*
X15130000Y-10662500D02*
X15170000Y-10702500D01*
X15170000Y-10662500D02*
X15130000Y-10702500D01*
X15308900Y-12230420D02*
X15348900Y-12270420D01*
X15348900Y-12230420D02*
X15308900Y-12270420D01*
X15392720Y-11300780D02*
X15432720Y-11340780D01*
X15432720Y-11300780D02*
X15392720Y-11340780D01*
X15486700Y-12934000D02*
X15526700Y-12974000D01*
X15526700Y-12934000D02*
X15486700Y-12974000D01*
X15509301Y-12649520D02*
X15549301Y-12689520D01*
X15549301Y-12649520D02*
X15509301Y-12689520D01*
X15590840Y-11288080D02*
X15630840Y-11328080D01*
X15630840Y-11288080D02*
X15590840Y-11328080D01*
X15595920Y-11940860D02*
X15635920Y-11980860D01*
X15635920Y-11940860D02*
X15595920Y-11980860D01*
X15657500Y-10890000D02*
X15697500Y-10930000D01*
X15697500Y-10890000D02*
X15657500Y-10930000D01*
X15702600Y-10343200D02*
X15742600Y-10383200D01*
X15742600Y-10343200D02*
X15702600Y-10383200D01*
X15717500Y-12660000D02*
X15757500Y-12700000D01*
X15757500Y-12660000D02*
X15717500Y-12700000D01*
X15781340Y-10521000D02*
X15821340Y-10561000D01*
X15821340Y-10521000D02*
X15781340Y-10561000D01*
X15834680Y-11387140D02*
X15874680Y-11427140D01*
X15874680Y-11387140D02*
X15834680Y-11427140D01*
X15867700Y-12319320D02*
X15907700Y-12359320D01*
X15907700Y-12319320D02*
X15867700Y-12359320D01*
X15870000Y-12525000D02*
X15910000Y-12565000D01*
X15910000Y-12525000D02*
X15870000Y-12565000D01*
X16102500Y-14042500D02*
X16142500Y-14082500D01*
X16142500Y-14042500D02*
X16102500Y-14082500D01*
X16202500Y-10350000D02*
X16242500Y-10390000D01*
X16242500Y-10350000D02*
X16202500Y-10390000D01*
X16205520Y-12885740D02*
X16245520Y-12925740D01*
X16245520Y-12885740D02*
X16205520Y-12925740D01*
X16250000Y-10870000D02*
X16290000Y-10910000D01*
X16290000Y-10870000D02*
X16250000Y-10910000D01*
X16337600Y-11410000D02*
X16377600Y-11450000D01*
X16377600Y-11410000D02*
X16337600Y-11450000D01*
X16400000Y-10502500D02*
X16440000Y-10542500D01*
X16440000Y-10502500D02*
X16400000Y-10542500D01*
X16594140Y-12611420D02*
X16634140Y-12651420D01*
X16634140Y-12611420D02*
X16594140Y-12651420D01*
X16612500Y-14037500D02*
X16652500Y-14077500D01*
X16652500Y-14037500D02*
X16612500Y-14077500D01*
X16632240Y-11006140D02*
X16672240Y-11046140D01*
X16672240Y-11006140D02*
X16632240Y-11046140D01*
X16662720Y-11829100D02*
X16702720Y-11869100D01*
X16702720Y-11829100D02*
X16662720Y-11869100D01*
X16718600Y-11384600D02*
X16758600Y-11424600D01*
X16758600Y-11384600D02*
X16718600Y-11424600D01*
X16749080Y-10399080D02*
X16789080Y-10439080D01*
X16789080Y-10399080D02*
X16749080Y-10439080D01*
X16769400Y-14546900D02*
X16809400Y-14586900D01*
X16809400Y-14546900D02*
X16769400Y-14586900D01*
X16916720Y-10960420D02*
X16956720Y-11000420D01*
X16956720Y-10960420D02*
X16916720Y-11000420D01*
X17000540Y-10239060D02*
X17040540Y-10279060D01*
X17040540Y-10239060D02*
X17000540Y-10279060D01*
X17010700Y-12184700D02*
X17050700Y-12224700D01*
X17050700Y-12184700D02*
X17010700Y-12224700D01*
X17045000Y-14567500D02*
X17085000Y-14607500D01*
X17085000Y-14567500D02*
X17045000Y-14607500D01*
X17086900Y-12578400D02*
X17126900Y-12618400D01*
X17126900Y-12578400D02*
X17086900Y-12618400D01*
X17099600Y-14242100D02*
X17139600Y-14282100D01*
X17139600Y-14242100D02*
X17099600Y-14282100D01*
X17264700Y-12768900D02*
X17304700Y-12808900D01*
X17304700Y-12768900D02*
X17264700Y-12808900D01*
X17391700Y-12299000D02*
X17431700Y-12339000D01*
X17431700Y-12299000D02*
X17391700Y-12339000D01*
X17544100Y-12184700D02*
X17584100Y-12224700D01*
X17584100Y-12184700D02*
X17544100Y-12224700D01*
X17575000Y-14557500D02*
X17615000Y-14597500D01*
X17615000Y-14557500D02*
X17575000Y-14597500D01*
X17645700Y-12718100D02*
X17685700Y-12758100D01*
X17685700Y-12718100D02*
X17645700Y-12758100D01*
X18610900Y-14572300D02*
X18650900Y-14612300D01*
X18650900Y-14572300D02*
X18610900Y-14612300D01*
X19309400Y-12159300D02*
X19349400Y-12199300D01*
X19349400Y-12159300D02*
X19309400Y-12199300D01*
X19454180Y-13050840D02*
X19494180Y-13090840D01*
X19494180Y-13050840D02*
X19454180Y-13090840D01*
X19499900Y-11651300D02*
X19539900Y-11691300D01*
X19539900Y-11651300D02*
X19499900Y-11691300D01*
X19868200Y-11943400D02*
X19908200Y-11983400D01*
X19908200Y-11943400D02*
X19868200Y-11983400D01*
D13*
X18567680Y-13125780D02*
G75*
G03*
X18567680Y-13125780I-37500J0D01*
G01*
X18567680Y-13325780D02*
G75*
G03*
X18567680Y-13325780I-37500J0D01*
G01*
X18610860Y-11685000D02*
G75*
G03*
X18610860Y-11685000I-37500J0D01*
G01*
X18610860Y-11885000D02*
G75*
G03*
X18610860Y-11885000I-37500J0D01*
G01*
D14*
X10573500Y-11354600D02*
X10573500Y-11454600D01*
X10523500Y-11404600D02*
X10623500Y-11404600D01*
X10573500Y-12028600D02*
X10573500Y-12128600D01*
X10523500Y-12078600D02*
X10623500Y-12078600D01*
X10827500Y-11354600D02*
X10827500Y-11454600D01*
X10777500Y-11404600D02*
X10877500Y-11404600D01*
X10827500Y-12028600D02*
X10827500Y-12128600D01*
X10777500Y-12078600D02*
X10877500Y-12078600D01*
X12508500Y-13425000D02*
X12508500Y-13525000D01*
X12458500Y-13475000D02*
X12558500Y-13475000D01*
X12762500Y-13425000D02*
X12762500Y-13525000D01*
X12712500Y-13475000D02*
X12812500Y-13475000D01*
X19508500Y-11775000D02*
X19508500Y-11875000D01*
X19458500Y-11825000D02*
X19558500Y-11825000D01*
X19508500Y-12075000D02*
X19508500Y-12175000D01*
X19458500Y-12125000D02*
X19558500Y-12125000D01*
X19508500Y-12375000D02*
X19508500Y-12475000D01*
X19458500Y-12425000D02*
X19558500Y-12425000D01*
X19508500Y-13200000D02*
X19508500Y-13300000D01*
X19458500Y-13250000D02*
X19558500Y-13250000D01*
X19508500Y-13500000D02*
X19508500Y-13600000D01*
X19458500Y-13550000D02*
X19558500Y-13550000D01*
X19508500Y-13800000D02*
X19508500Y-13900000D01*
X19458500Y-13850000D02*
X19558500Y-13850000D01*
X19808500Y-11775000D02*
X19808500Y-11875000D01*
X19758500Y-11825000D02*
X19858500Y-11825000D01*
X19808500Y-12075000D02*
X19808500Y-12175000D01*
X19758500Y-12125000D02*
X19858500Y-12125000D01*
X19808500Y-12375000D02*
X19808500Y-12475000D01*
X19758500Y-12425000D02*
X19858500Y-12425000D01*
X19808500Y-13200000D02*
X19808500Y-13300000D01*
X19758500Y-13250000D02*
X19858500Y-13250000D01*
X19808500Y-13500000D02*
X19808500Y-13600000D01*
X19758500Y-13550000D02*
X19858500Y-13550000D01*
X19808500Y-13800000D02*
X19808500Y-13900000D01*
X19758500Y-13850000D02*
X19858500Y-13850000D01*
D15*
X11114063Y-12789663D02*
X11114063Y-12717537D01*
X11041937Y-12717537D01*
X11041937Y-12789663D01*
X11114063Y-12789663D01*
X11114063Y-13139663D02*
X11114063Y-13067537D01*
X11041937Y-13067537D01*
X11041937Y-13139663D01*
X11114063Y-13139663D01*
X11574063Y-12789663D02*
X11574063Y-12717537D01*
X11501937Y-12717537D01*
X11501937Y-12789663D01*
X11574063Y-12789663D01*
X11574063Y-13139663D02*
X11574063Y-13067537D01*
X11501937Y-13067537D01*
X11501937Y-13139663D01*
X11574063Y-13139663D01*
X12067963Y-14148563D02*
X12067963Y-14076437D01*
X11995837Y-14076437D01*
X11995837Y-14148563D01*
X12067963Y-14148563D01*
X12067963Y-14498563D02*
X12067963Y-14426437D01*
X11995837Y-14426437D01*
X11995837Y-14498563D01*
X12067963Y-14498563D01*
X12527963Y-14148563D02*
X12527963Y-14076437D01*
X12455837Y-14076437D01*
X12455837Y-14148563D01*
X12527963Y-14148563D01*
X12527963Y-14498563D02*
X12527963Y-14426437D01*
X12455837Y-14426437D01*
X12455837Y-14498563D01*
X12527963Y-14498563D01*
D16*
X12288400Y-10313600D02*
X12340400Y-10261600D01*
X12288400Y-10209600D01*
X12236400Y-10261600D01*
X12288400Y-10313600D01*
X12288400Y-12853600D02*
X12340400Y-12801600D01*
X12288400Y-12749600D01*
X12236400Y-12801600D01*
X12288400Y-12853600D01*
X12542400Y-10313600D02*
X12594400Y-10261600D01*
X12542400Y-10209600D01*
X12490400Y-10261600D01*
X12542400Y-10313600D01*
X12542400Y-12853600D02*
X12594400Y-12801600D01*
X12542400Y-12749600D01*
X12490400Y-12801600D01*
X12542400Y-12853600D01*
X12796400Y-10313600D02*
X12848400Y-10261600D01*
X12796400Y-10209600D01*
X12744400Y-10261600D01*
X12796400Y-10313600D01*
X12796400Y-12853600D02*
X12848400Y-12801600D01*
X12796400Y-12749600D01*
X12744400Y-12801600D01*
X12796400Y-12853600D01*
X13050400Y-10313600D02*
X13102400Y-10261600D01*
X13050400Y-10209600D01*
X12998400Y-10261600D01*
X13050400Y-10313600D01*
X13050400Y-12853600D02*
X13102400Y-12801600D01*
X13050400Y-12749600D01*
X12998400Y-12801600D01*
X13050400Y-12853600D01*
X13304400Y-10313600D02*
X13356400Y-10261600D01*
X13304400Y-10209600D01*
X13252400Y-10261600D01*
X13304400Y-10313600D01*
X13304400Y-12853600D02*
X13356400Y-12801600D01*
X13304400Y-12749600D01*
X13252400Y-12801600D01*
X13304400Y-12853600D01*
X13558400Y-10313600D02*
X13610400Y-10261600D01*
X13558400Y-10209600D01*
X13506400Y-10261600D01*
X13558400Y-10313600D01*
X13558400Y-12853600D02*
X13610400Y-12801600D01*
X13558400Y-12749600D01*
X13506400Y-12801600D01*
X13558400Y-12853600D01*
X13812400Y-10313600D02*
X13864400Y-10261600D01*
X13812400Y-10209600D01*
X13760400Y-10261600D01*
X13812400Y-10313600D01*
X13812400Y-12853600D02*
X13864400Y-12801600D01*
X13812400Y-12749600D01*
X13760400Y-12801600D01*
X13812400Y-12853600D01*
X14066400Y-10313600D02*
X14118400Y-10261600D01*
X14066400Y-10209600D01*
X14014400Y-10261600D01*
X14066400Y-10313600D01*
X14066400Y-12853600D02*
X14118400Y-12801600D01*
X14066400Y-12749600D01*
X14014400Y-12801600D01*
X14066400Y-12853600D01*
X14320400Y-10313600D02*
X14372400Y-10261600D01*
X14320400Y-10209600D01*
X14268400Y-10261600D01*
X14320400Y-10313600D01*
X14320400Y-12853600D02*
X14372400Y-12801600D01*
X14320400Y-12749600D01*
X14268400Y-12801600D01*
X14320400Y-12853600D01*
X14574400Y-10313600D02*
X14626400Y-10261600D01*
X14574400Y-10209600D01*
X14522400Y-10261600D01*
X14574400Y-10313600D01*
X14574400Y-12853600D02*
X14626400Y-12801600D01*
X14574400Y-12749600D01*
X14522400Y-12801600D01*
X14574400Y-12853600D01*
X14828400Y-10313600D02*
X14880400Y-10261600D01*
X14828400Y-10209600D01*
X14776400Y-10261600D01*
X14828400Y-10313600D01*
X14828400Y-12853600D02*
X14880400Y-12801600D01*
X14828400Y-12749600D01*
X14776400Y-12801600D01*
X14828400Y-12853600D01*
X15082400Y-10313600D02*
X15134400Y-10261600D01*
X15082400Y-10209600D01*
X15030400Y-10261600D01*
X15082400Y-10313600D01*
X15082400Y-12853600D02*
X15134400Y-12801600D01*
X15082400Y-12749600D01*
X15030400Y-12801600D01*
X15082400Y-12853600D01*
X15336400Y-10313600D02*
X15388400Y-10261600D01*
X15336400Y-10209600D01*
X15284400Y-10261600D01*
X15336400Y-10313600D01*
X15336400Y-12853600D02*
X15388400Y-12801600D01*
X15336400Y-12749600D01*
X15284400Y-12801600D01*
X15336400Y-12853600D01*
X15590400Y-10313600D02*
X15642400Y-10261600D01*
X15590400Y-10209600D01*
X15538400Y-10261600D01*
X15590400Y-10313600D01*
X15590400Y-12853600D02*
X15642400Y-12801600D01*
X15590400Y-12749600D01*
X15538400Y-12801600D01*
X15590400Y-12853600D01*
X15844400Y-10313600D02*
X15896400Y-10261600D01*
X15844400Y-10209600D01*
X15792400Y-10261600D01*
X15844400Y-10313600D01*
X15844400Y-12853600D02*
X15896400Y-12801600D01*
X15844400Y-12749600D01*
X15792400Y-12801600D01*
X15844400Y-12853600D01*
X16098400Y-10313600D02*
X16150400Y-10261600D01*
X16098400Y-10209600D01*
X16046400Y-10261600D01*
X16098400Y-10313600D01*
X16098400Y-12853600D02*
X16150400Y-12801600D01*
X16098400Y-12749600D01*
X16046400Y-12801600D01*
X16098400Y-12853600D01*
X16352400Y-10313600D02*
X16404400Y-10261600D01*
X16352400Y-10209600D01*
X16300400Y-10261600D01*
X16352400Y-10313600D01*
X16352400Y-12853600D02*
X16404400Y-12801600D01*
X16352400Y-12749600D01*
X16300400Y-12801600D01*
X16352400Y-12853600D01*
X16606400Y-10313600D02*
X16658400Y-10261600D01*
X16606400Y-10209600D01*
X16554400Y-10261600D01*
X16606400Y-10313600D01*
X16606400Y-12853600D02*
X16658400Y-12801600D01*
X16606400Y-12749600D01*
X16554400Y-12801600D01*
X16606400Y-12853600D01*
X16860400Y-10313600D02*
X16912400Y-10261600D01*
X16860400Y-10209600D01*
X16808400Y-10261600D01*
X16860400Y-10313600D01*
X16860400Y-12853600D02*
X16912400Y-12801600D01*
X16860400Y-12749600D01*
X16808400Y-12801600D01*
X16860400Y-12853600D01*
D17*
X19079250Y-10288250D02*
X19199250Y-10408250D01*
X19199250Y-10288250D02*
X19079250Y-10408250D01*
X19199250Y-10348250D02*
G75*
G03*
X19199250Y-10348250I-60000J0D01*
G01*
X19079250Y-10638250D02*
X19199250Y-10758250D01*
X19199250Y-10638250D02*
X19079250Y-10758250D01*
X19199250Y-10698250D02*
G75*
G03*
X19199250Y-10698250I-60000J0D01*
G01*
X19079250Y-10988250D02*
X19199250Y-11108250D01*
X19199250Y-10988250D02*
X19079250Y-11108250D01*
X19199250Y-11048250D02*
G75*
G03*
X19199250Y-11048250I-60000J0D01*
G01*
D11*
X10502619Y-15315476D02*
X10502619Y-15115476D01*
X10550238Y-15115476D01*
X10578810Y-15125000D01*
X10597857Y-15144048D01*
X10607381Y-15163095D01*
X10616905Y-15201190D01*
X10616905Y-15229762D01*
X10607381Y-15267857D01*
X10597857Y-15286905D01*
X10578810Y-15305952D01*
X10550238Y-15315476D01*
X10502619Y-15315476D01*
X10702619Y-15315476D02*
X10702619Y-15182143D01*
X10702619Y-15220238D02*
X10712143Y-15201190D01*
X10721667Y-15191667D01*
X10740714Y-15182143D01*
X10759762Y-15182143D01*
X10826429Y-15315476D02*
X10826429Y-15182143D01*
X10826429Y-15115476D02*
X10816905Y-15125000D01*
X10826429Y-15134524D01*
X10835952Y-15125000D01*
X10826429Y-15115476D01*
X10826429Y-15134524D01*
X10950238Y-15315476D02*
X10931190Y-15305952D01*
X10921667Y-15286905D01*
X10921667Y-15115476D01*
X11055000Y-15315476D02*
X11035952Y-15305952D01*
X11026429Y-15286905D01*
X11026429Y-15115476D01*
X11283571Y-15315476D02*
X11283571Y-15115476D01*
X11350238Y-15258333D01*
X11416905Y-15115476D01*
X11416905Y-15315476D01*
X11597857Y-15315476D02*
X11597857Y-15210714D01*
X11588333Y-15191667D01*
X11569286Y-15182143D01*
X11531190Y-15182143D01*
X11512143Y-15191667D01*
X11597857Y-15305952D02*
X11578809Y-15315476D01*
X11531190Y-15315476D01*
X11512143Y-15305952D01*
X11502619Y-15286905D01*
X11502619Y-15267857D01*
X11512143Y-15248809D01*
X11531190Y-15239286D01*
X11578809Y-15239286D01*
X11597857Y-15229762D01*
X11693095Y-15182143D02*
X11693095Y-15382143D01*
X11693095Y-15191667D02*
X11712143Y-15182143D01*
X11750238Y-15182143D01*
X11769286Y-15191667D01*
X11778809Y-15201190D01*
X11788333Y-15220238D01*
X11788333Y-15277381D01*
X11778809Y-15296428D01*
X11769286Y-15305952D01*
X11750238Y-15315476D01*
X11712143Y-15315476D01*
X11693095Y-15305952D01*
X11874048Y-15296428D02*
X11883571Y-15305952D01*
X11874048Y-15315476D01*
X11864524Y-15305952D01*
X11874048Y-15296428D01*
X11874048Y-15315476D01*
X11874048Y-15191667D02*
X11883571Y-15201190D01*
X11874048Y-15210714D01*
X11864524Y-15201190D01*
X11874048Y-15191667D01*
X11874048Y-15210714D01*
D12*
X10205000Y-15625000D02*
X10245000Y-15665000D01*
X10245000Y-15625000D02*
X10205000Y-15665000D01*
D11*
X10540714Y-15535476D02*
X10559762Y-15535476D01*
X10578810Y-15545000D01*
X10588333Y-15554524D01*
X10597857Y-15573571D01*
X10607381Y-15611667D01*
X10607381Y-15659286D01*
X10597857Y-15697381D01*
X10588333Y-15716428D01*
X10578810Y-15725952D01*
X10559762Y-15735476D01*
X10540714Y-15735476D01*
X10521667Y-15725952D01*
X10512143Y-15716428D01*
X10502619Y-15697381D01*
X10493095Y-15659286D01*
X10493095Y-15611667D01*
X10502619Y-15573571D01*
X10512143Y-15554524D01*
X10521667Y-15545000D01*
X10540714Y-15535476D01*
X10693095Y-15716428D02*
X10702619Y-15725952D01*
X10693095Y-15735476D01*
X10683571Y-15725952D01*
X10693095Y-15716428D01*
X10693095Y-15735476D01*
X10874048Y-15602143D02*
X10874048Y-15735476D01*
X10826429Y-15525952D02*
X10778810Y-15668809D01*
X10902619Y-15668809D01*
X11016905Y-15535476D02*
X11035952Y-15535476D01*
X11055000Y-15545000D01*
X11064524Y-15554524D01*
X11074048Y-15573571D01*
X11083571Y-15611667D01*
X11083571Y-15659286D01*
X11074048Y-15697381D01*
X11064524Y-15716428D01*
X11055000Y-15725952D01*
X11035952Y-15735476D01*
X11016905Y-15735476D01*
X10997857Y-15725952D01*
X10988333Y-15716428D01*
X10978810Y-15697381D01*
X10969286Y-15659286D01*
X10969286Y-15611667D01*
X10978810Y-15573571D01*
X10988333Y-15554524D01*
X10997857Y-15545000D01*
X11016905Y-15535476D01*
X11207381Y-15535476D02*
X11226428Y-15535476D01*
X11245476Y-15545000D01*
X11255000Y-15554524D01*
X11264524Y-15573571D01*
X11274048Y-15611667D01*
X11274048Y-15659286D01*
X11264524Y-15697381D01*
X11255000Y-15716428D01*
X11245476Y-15725952D01*
X11226428Y-15735476D01*
X11207381Y-15735476D01*
X11188333Y-15725952D01*
X11178810Y-15716428D01*
X11169286Y-15697381D01*
X11159762Y-15659286D01*
X11159762Y-15611667D01*
X11169286Y-15573571D01*
X11178810Y-15554524D01*
X11188333Y-15545000D01*
X11207381Y-15535476D01*
X11359762Y-15735476D02*
X11359762Y-15602143D01*
X11359762Y-15621190D02*
X11369286Y-15611667D01*
X11388333Y-15602143D01*
X11416905Y-15602143D01*
X11435952Y-15611667D01*
X11445476Y-15630714D01*
X11445476Y-15735476D01*
X11445476Y-15630714D02*
X11455000Y-15611667D01*
X11474048Y-15602143D01*
X11502619Y-15602143D01*
X11521667Y-15611667D01*
X11531190Y-15630714D01*
X11531190Y-15735476D01*
X11626428Y-15735476D02*
X11626428Y-15602143D01*
X11626428Y-15621190D02*
X11635952Y-15611667D01*
X11655000Y-15602143D01*
X11683571Y-15602143D01*
X11702619Y-15611667D01*
X11712143Y-15630714D01*
X11712143Y-15735476D01*
X11712143Y-15630714D02*
X11721667Y-15611667D01*
X11740714Y-15602143D01*
X11769286Y-15602143D01*
X11788333Y-15611667D01*
X11797857Y-15630714D01*
X11797857Y-15735476D01*
X12188333Y-15525952D02*
X12016905Y-15783095D01*
X12445476Y-15535476D02*
X12464524Y-15535476D01*
X12483571Y-15545000D01*
X12493095Y-15554524D01*
X12502619Y-15573571D01*
X12512143Y-15611667D01*
X12512143Y-15659286D01*
X12502619Y-15697381D01*
X12493095Y-15716428D01*
X12483571Y-15725952D01*
X12464524Y-15735476D01*
X12445476Y-15735476D01*
X12426428Y-15725952D01*
X12416905Y-15716428D01*
X12407381Y-15697381D01*
X12397857Y-15659286D01*
X12397857Y-15611667D01*
X12407381Y-15573571D01*
X12416905Y-15554524D01*
X12426428Y-15545000D01*
X12445476Y-15535476D01*
X12597857Y-15716428D02*
X12607381Y-15725952D01*
X12597857Y-15735476D01*
X12588333Y-15725952D01*
X12597857Y-15716428D01*
X12597857Y-15735476D01*
X12731190Y-15535476D02*
X12750238Y-15535476D01*
X12769286Y-15545000D01*
X12778809Y-15554524D01*
X12788333Y-15573571D01*
X12797857Y-15611667D01*
X12797857Y-15659286D01*
X12788333Y-15697381D01*
X12778809Y-15716428D01*
X12769286Y-15725952D01*
X12750238Y-15735476D01*
X12731190Y-15735476D01*
X12712143Y-15725952D01*
X12702619Y-15716428D01*
X12693095Y-15697381D01*
X12683571Y-15659286D01*
X12683571Y-15611667D01*
X12693095Y-15573571D01*
X12702619Y-15554524D01*
X12712143Y-15545000D01*
X12731190Y-15535476D01*
X12988333Y-15735476D02*
X12874048Y-15735476D01*
X12931190Y-15735476D02*
X12931190Y-15535476D01*
X12912143Y-15564048D01*
X12893095Y-15583095D01*
X12874048Y-15592619D01*
X13169286Y-15535476D02*
X13074048Y-15535476D01*
X13064524Y-15630714D01*
X13074048Y-15621190D01*
X13093095Y-15611667D01*
X13140714Y-15611667D01*
X13159762Y-15621190D01*
X13169286Y-15630714D01*
X13178809Y-15649762D01*
X13178809Y-15697381D01*
X13169286Y-15716428D01*
X13159762Y-15725952D01*
X13140714Y-15735476D01*
X13093095Y-15735476D01*
X13074048Y-15725952D01*
X13064524Y-15716428D01*
X13245476Y-15535476D02*
X13378809Y-15535476D01*
X13293095Y-15735476D01*
X13445476Y-15535476D02*
X13445476Y-15573571D01*
X13521667Y-15535476D02*
X13521667Y-15573571D01*
X13816905Y-15811667D02*
X13807381Y-15802143D01*
X13788333Y-15773571D01*
X13778809Y-15754524D01*
X13769286Y-15725952D01*
X13759762Y-15678333D01*
X13759762Y-15640238D01*
X13769286Y-15592619D01*
X13778809Y-15564048D01*
X13788333Y-15545000D01*
X13807381Y-15516428D01*
X13816905Y-15506905D01*
X13921667Y-15621190D02*
X13902619Y-15611667D01*
X13893095Y-15602143D01*
X13883571Y-15583095D01*
X13883571Y-15573571D01*
X13893095Y-15554524D01*
X13902619Y-15545000D01*
X13921667Y-15535476D01*
X13959762Y-15535476D01*
X13978809Y-15545000D01*
X13988333Y-15554524D01*
X13997857Y-15573571D01*
X13997857Y-15583095D01*
X13988333Y-15602143D01*
X13978809Y-15611667D01*
X13959762Y-15621190D01*
X13921667Y-15621190D01*
X13902619Y-15630714D01*
X13893095Y-15640238D01*
X13883571Y-15659286D01*
X13883571Y-15697381D01*
X13893095Y-15716428D01*
X13902619Y-15725952D01*
X13921667Y-15735476D01*
X13959762Y-15735476D01*
X13978809Y-15725952D01*
X13988333Y-15716428D01*
X13997857Y-15697381D01*
X13997857Y-15659286D01*
X13988333Y-15640238D01*
X13978809Y-15630714D01*
X13959762Y-15621190D01*
X14169286Y-15535476D02*
X14131190Y-15535476D01*
X14112143Y-15545000D01*
X14102619Y-15554524D01*
X14083571Y-15583095D01*
X14074048Y-15621190D01*
X14074048Y-15697381D01*
X14083571Y-15716428D01*
X14093095Y-15725952D01*
X14112143Y-15735476D01*
X14150238Y-15735476D01*
X14169286Y-15725952D01*
X14178809Y-15716428D01*
X14188333Y-15697381D01*
X14188333Y-15649762D01*
X14178809Y-15630714D01*
X14169286Y-15621190D01*
X14150238Y-15611667D01*
X14112143Y-15611667D01*
X14093095Y-15621190D01*
X14083571Y-15630714D01*
X14074048Y-15649762D01*
X14426428Y-15735476D02*
X14426428Y-15535476D01*
X14512143Y-15735476D02*
X14512143Y-15630714D01*
X14502619Y-15611667D01*
X14483571Y-15602143D01*
X14455000Y-15602143D01*
X14435952Y-15611667D01*
X14426428Y-15621190D01*
X14635952Y-15735476D02*
X14616905Y-15725952D01*
X14607381Y-15716428D01*
X14597857Y-15697381D01*
X14597857Y-15640238D01*
X14607381Y-15621190D01*
X14616905Y-15611667D01*
X14635952Y-15602143D01*
X14664524Y-15602143D01*
X14683571Y-15611667D01*
X14693095Y-15621190D01*
X14702619Y-15640238D01*
X14702619Y-15697381D01*
X14693095Y-15716428D01*
X14683571Y-15725952D01*
X14664524Y-15735476D01*
X14635952Y-15735476D01*
X14816905Y-15735476D02*
X14797857Y-15725952D01*
X14788333Y-15706905D01*
X14788333Y-15535476D01*
X14969286Y-15725952D02*
X14950238Y-15735476D01*
X14912143Y-15735476D01*
X14893095Y-15725952D01*
X14883571Y-15706905D01*
X14883571Y-15630714D01*
X14893095Y-15611667D01*
X14912143Y-15602143D01*
X14950238Y-15602143D01*
X14969286Y-15611667D01*
X14978809Y-15630714D01*
X14978809Y-15649762D01*
X14883571Y-15668809D01*
X15055000Y-15725952D02*
X15074048Y-15735476D01*
X15112143Y-15735476D01*
X15131190Y-15725952D01*
X15140714Y-15706905D01*
X15140714Y-15697381D01*
X15131190Y-15678333D01*
X15112143Y-15668809D01*
X15083571Y-15668809D01*
X15064524Y-15659286D01*
X15055000Y-15640238D01*
X15055000Y-15630714D01*
X15064524Y-15611667D01*
X15083571Y-15602143D01*
X15112143Y-15602143D01*
X15131190Y-15611667D01*
X15207381Y-15811667D02*
X15216905Y-15802143D01*
X15235952Y-15773571D01*
X15245476Y-15754524D01*
X15255000Y-15725952D01*
X15264524Y-15678333D01*
X15264524Y-15640238D01*
X15255000Y-15592619D01*
X15245476Y-15564048D01*
X15235952Y-15545000D01*
X15216905Y-15516428D01*
X15207381Y-15506905D01*
D13*
X10245000Y-15909000D02*
G75*
G03*
X10245000Y-15909000I-37500J0D01*
G01*
D11*
X10540714Y-15799476D02*
X10559762Y-15799476D01*
X10578810Y-15809000D01*
X10588333Y-15818524D01*
X10597857Y-15837571D01*
X10607381Y-15875667D01*
X10607381Y-15923286D01*
X10597857Y-15961381D01*
X10588333Y-15980428D01*
X10578810Y-15989952D01*
X10559762Y-15999476D01*
X10540714Y-15999476D01*
X10521667Y-15989952D01*
X10512143Y-15980428D01*
X10502619Y-15961381D01*
X10493095Y-15923286D01*
X10493095Y-15875667D01*
X10502619Y-15837571D01*
X10512143Y-15818524D01*
X10521667Y-15809000D01*
X10540714Y-15799476D01*
X10693095Y-15980428D02*
X10702619Y-15989952D01*
X10693095Y-15999476D01*
X10683571Y-15989952D01*
X10693095Y-15980428D01*
X10693095Y-15999476D01*
X10769286Y-15799476D02*
X10902619Y-15799476D01*
X10816905Y-15999476D01*
X11074048Y-15799476D02*
X10978810Y-15799476D01*
X10969286Y-15894714D01*
X10978810Y-15885190D01*
X10997857Y-15875667D01*
X11045476Y-15875667D01*
X11064524Y-15885190D01*
X11074048Y-15894714D01*
X11083571Y-15913762D01*
X11083571Y-15961381D01*
X11074048Y-15980428D01*
X11064524Y-15989952D01*
X11045476Y-15999476D01*
X10997857Y-15999476D01*
X10978810Y-15989952D01*
X10969286Y-15980428D01*
X11207381Y-15799476D02*
X11226428Y-15799476D01*
X11245476Y-15809000D01*
X11255000Y-15818524D01*
X11264524Y-15837571D01*
X11274048Y-15875667D01*
X11274048Y-15923286D01*
X11264524Y-15961381D01*
X11255000Y-15980428D01*
X11245476Y-15989952D01*
X11226428Y-15999476D01*
X11207381Y-15999476D01*
X11188333Y-15989952D01*
X11178810Y-15980428D01*
X11169286Y-15961381D01*
X11159762Y-15923286D01*
X11159762Y-15875667D01*
X11169286Y-15837571D01*
X11178810Y-15818524D01*
X11188333Y-15809000D01*
X11207381Y-15799476D01*
X11359762Y-15999476D02*
X11359762Y-15866143D01*
X11359762Y-15885190D02*
X11369286Y-15875667D01*
X11388333Y-15866143D01*
X11416905Y-15866143D01*
X11435952Y-15875667D01*
X11445476Y-15894714D01*
X11445476Y-15999476D01*
X11445476Y-15894714D02*
X11455000Y-15875667D01*
X11474048Y-15866143D01*
X11502619Y-15866143D01*
X11521667Y-15875667D01*
X11531190Y-15894714D01*
X11531190Y-15999476D01*
X11626428Y-15999476D02*
X11626428Y-15866143D01*
X11626428Y-15885190D02*
X11635952Y-15875667D01*
X11655000Y-15866143D01*
X11683571Y-15866143D01*
X11702619Y-15875667D01*
X11712143Y-15894714D01*
X11712143Y-15999476D01*
X11712143Y-15894714D02*
X11721667Y-15875667D01*
X11740714Y-15866143D01*
X11769286Y-15866143D01*
X11788333Y-15875667D01*
X11797857Y-15894714D01*
X11797857Y-15999476D01*
X12188333Y-15789952D02*
X12016905Y-16047095D01*
X12445476Y-15799476D02*
X12464524Y-15799476D01*
X12483571Y-15809000D01*
X12493095Y-15818524D01*
X12502619Y-15837571D01*
X12512143Y-15875667D01*
X12512143Y-15923286D01*
X12502619Y-15961381D01*
X12493095Y-15980428D01*
X12483571Y-15989952D01*
X12464524Y-15999476D01*
X12445476Y-15999476D01*
X12426428Y-15989952D01*
X12416905Y-15980428D01*
X12407381Y-15961381D01*
X12397857Y-15923286D01*
X12397857Y-15875667D01*
X12407381Y-15837571D01*
X12416905Y-15818524D01*
X12426428Y-15809000D01*
X12445476Y-15799476D01*
X12597857Y-15980428D02*
X12607381Y-15989952D01*
X12597857Y-15999476D01*
X12588333Y-15989952D01*
X12597857Y-15980428D01*
X12597857Y-15999476D01*
X12731190Y-15799476D02*
X12750238Y-15799476D01*
X12769286Y-15809000D01*
X12778809Y-15818524D01*
X12788333Y-15837571D01*
X12797857Y-15875667D01*
X12797857Y-15923286D01*
X12788333Y-15961381D01*
X12778809Y-15980428D01*
X12769286Y-15989952D01*
X12750238Y-15999476D01*
X12731190Y-15999476D01*
X12712143Y-15989952D01*
X12702619Y-15980428D01*
X12693095Y-15961381D01*
X12683571Y-15923286D01*
X12683571Y-15875667D01*
X12693095Y-15837571D01*
X12702619Y-15818524D01*
X12712143Y-15809000D01*
X12731190Y-15799476D01*
X12874048Y-15818524D02*
X12883571Y-15809000D01*
X12902619Y-15799476D01*
X12950238Y-15799476D01*
X12969286Y-15809000D01*
X12978809Y-15818524D01*
X12988333Y-15837571D01*
X12988333Y-15856619D01*
X12978809Y-15885190D01*
X12864524Y-15999476D01*
X12988333Y-15999476D01*
X13083571Y-15999476D02*
X13121667Y-15999476D01*
X13140714Y-15989952D01*
X13150238Y-15980428D01*
X13169286Y-15951857D01*
X13178809Y-15913762D01*
X13178809Y-15837571D01*
X13169286Y-15818524D01*
X13159762Y-15809000D01*
X13140714Y-15799476D01*
X13102619Y-15799476D01*
X13083571Y-15809000D01*
X13074048Y-15818524D01*
X13064524Y-15837571D01*
X13064524Y-15885190D01*
X13074048Y-15904238D01*
X13083571Y-15913762D01*
X13102619Y-15923286D01*
X13140714Y-15923286D01*
X13159762Y-15913762D01*
X13169286Y-15904238D01*
X13178809Y-15885190D01*
X13359762Y-15799476D02*
X13264524Y-15799476D01*
X13255000Y-15894714D01*
X13264524Y-15885190D01*
X13283571Y-15875667D01*
X13331190Y-15875667D01*
X13350238Y-15885190D01*
X13359762Y-15894714D01*
X13369286Y-15913762D01*
X13369286Y-15961381D01*
X13359762Y-15980428D01*
X13350238Y-15989952D01*
X13331190Y-15999476D01*
X13283571Y-15999476D01*
X13264524Y-15989952D01*
X13255000Y-15980428D01*
X13445476Y-15799476D02*
X13445476Y-15837571D01*
X13521667Y-15799476D02*
X13521667Y-15837571D01*
X13816905Y-16075667D02*
X13807381Y-16066143D01*
X13788333Y-16037571D01*
X13778809Y-16018524D01*
X13769286Y-15989952D01*
X13759762Y-15942333D01*
X13759762Y-15904238D01*
X13769286Y-15856619D01*
X13778809Y-15828048D01*
X13788333Y-15809000D01*
X13807381Y-15780428D01*
X13816905Y-15770905D01*
X13978809Y-15866143D02*
X13978809Y-15999476D01*
X13931190Y-15789952D02*
X13883571Y-15932809D01*
X14007381Y-15932809D01*
X14235952Y-15999476D02*
X14235952Y-15799476D01*
X14321667Y-15999476D02*
X14321667Y-15894714D01*
X14312143Y-15875667D01*
X14293095Y-15866143D01*
X14264524Y-15866143D01*
X14245476Y-15875667D01*
X14235952Y-15885190D01*
X14445476Y-15999476D02*
X14426428Y-15989952D01*
X14416905Y-15980428D01*
X14407381Y-15961381D01*
X14407381Y-15904238D01*
X14416905Y-15885190D01*
X14426428Y-15875667D01*
X14445476Y-15866143D01*
X14474048Y-15866143D01*
X14493095Y-15875667D01*
X14502619Y-15885190D01*
X14512143Y-15904238D01*
X14512143Y-15961381D01*
X14502619Y-15980428D01*
X14493095Y-15989952D01*
X14474048Y-15999476D01*
X14445476Y-15999476D01*
X14626428Y-15999476D02*
X14607381Y-15989952D01*
X14597857Y-15970905D01*
X14597857Y-15799476D01*
X14778809Y-15989952D02*
X14759762Y-15999476D01*
X14721667Y-15999476D01*
X14702619Y-15989952D01*
X14693095Y-15970905D01*
X14693095Y-15894714D01*
X14702619Y-15875667D01*
X14721667Y-15866143D01*
X14759762Y-15866143D01*
X14778809Y-15875667D01*
X14788333Y-15894714D01*
X14788333Y-15913762D01*
X14693095Y-15932809D01*
X14864524Y-15989952D02*
X14883571Y-15999476D01*
X14921667Y-15999476D01*
X14940714Y-15989952D01*
X14950238Y-15970905D01*
X14950238Y-15961381D01*
X14940714Y-15942333D01*
X14921667Y-15932809D01*
X14893095Y-15932809D01*
X14874048Y-15923286D01*
X14864524Y-15904238D01*
X14864524Y-15894714D01*
X14874048Y-15875667D01*
X14893095Y-15866143D01*
X14921667Y-15866143D01*
X14940714Y-15875667D01*
X15016905Y-16075667D02*
X15026428Y-16066143D01*
X15045476Y-16037571D01*
X15055000Y-16018524D01*
X15064524Y-15989952D01*
X15074048Y-15942333D01*
X15074048Y-15904238D01*
X15064524Y-15856619D01*
X15055000Y-15828048D01*
X15045476Y-15809000D01*
X15026428Y-15780428D01*
X15016905Y-15770905D01*
D14*
X10195000Y-16123000D02*
X10195000Y-16223000D01*
X10145000Y-16173000D02*
X10245000Y-16173000D01*
D11*
X10607381Y-16263476D02*
X10493095Y-16263476D01*
X10550238Y-16263476D02*
X10550238Y-16063476D01*
X10531190Y-16092048D01*
X10512143Y-16111095D01*
X10493095Y-16120619D01*
X10693095Y-16244428D02*
X10702619Y-16253952D01*
X10693095Y-16263476D01*
X10683571Y-16253952D01*
X10693095Y-16244428D01*
X10693095Y-16263476D01*
X10826429Y-16063476D02*
X10845476Y-16063476D01*
X10864524Y-16073000D01*
X10874048Y-16082524D01*
X10883571Y-16101571D01*
X10893095Y-16139667D01*
X10893095Y-16187286D01*
X10883571Y-16225381D01*
X10874048Y-16244428D01*
X10864524Y-16253952D01*
X10845476Y-16263476D01*
X10826429Y-16263476D01*
X10807381Y-16253952D01*
X10797857Y-16244428D01*
X10788333Y-16225381D01*
X10778810Y-16187286D01*
X10778810Y-16139667D01*
X10788333Y-16101571D01*
X10797857Y-16082524D01*
X10807381Y-16073000D01*
X10826429Y-16063476D01*
X11016905Y-16063476D02*
X11035952Y-16063476D01*
X11055000Y-16073000D01*
X11064524Y-16082524D01*
X11074048Y-16101571D01*
X11083571Y-16139667D01*
X11083571Y-16187286D01*
X11074048Y-16225381D01*
X11064524Y-16244428D01*
X11055000Y-16253952D01*
X11035952Y-16263476D01*
X11016905Y-16263476D01*
X10997857Y-16253952D01*
X10988333Y-16244428D01*
X10978810Y-16225381D01*
X10969286Y-16187286D01*
X10969286Y-16139667D01*
X10978810Y-16101571D01*
X10988333Y-16082524D01*
X10997857Y-16073000D01*
X11016905Y-16063476D01*
X11207381Y-16063476D02*
X11226428Y-16063476D01*
X11245476Y-16073000D01*
X11255000Y-16082524D01*
X11264524Y-16101571D01*
X11274048Y-16139667D01*
X11274048Y-16187286D01*
X11264524Y-16225381D01*
X11255000Y-16244428D01*
X11245476Y-16253952D01*
X11226428Y-16263476D01*
X11207381Y-16263476D01*
X11188333Y-16253952D01*
X11178810Y-16244428D01*
X11169286Y-16225381D01*
X11159762Y-16187286D01*
X11159762Y-16139667D01*
X11169286Y-16101571D01*
X11178810Y-16082524D01*
X11188333Y-16073000D01*
X11207381Y-16063476D01*
X11359762Y-16263476D02*
X11359762Y-16130143D01*
X11359762Y-16149190D02*
X11369286Y-16139667D01*
X11388333Y-16130143D01*
X11416905Y-16130143D01*
X11435952Y-16139667D01*
X11445476Y-16158714D01*
X11445476Y-16263476D01*
X11445476Y-16158714D02*
X11455000Y-16139667D01*
X11474048Y-16130143D01*
X11502619Y-16130143D01*
X11521667Y-16139667D01*
X11531190Y-16158714D01*
X11531190Y-16263476D01*
X11626428Y-16263476D02*
X11626428Y-16130143D01*
X11626428Y-16149190D02*
X11635952Y-16139667D01*
X11655000Y-16130143D01*
X11683571Y-16130143D01*
X11702619Y-16139667D01*
X11712143Y-16158714D01*
X11712143Y-16263476D01*
X11712143Y-16158714D02*
X11721667Y-16139667D01*
X11740714Y-16130143D01*
X11769286Y-16130143D01*
X11788333Y-16139667D01*
X11797857Y-16158714D01*
X11797857Y-16263476D01*
X12188333Y-16053952D02*
X12016905Y-16311095D01*
X12445476Y-16063476D02*
X12464524Y-16063476D01*
X12483571Y-16073000D01*
X12493095Y-16082524D01*
X12502619Y-16101571D01*
X12512143Y-16139667D01*
X12512143Y-16187286D01*
X12502619Y-16225381D01*
X12493095Y-16244428D01*
X12483571Y-16253952D01*
X12464524Y-16263476D01*
X12445476Y-16263476D01*
X12426428Y-16253952D01*
X12416905Y-16244428D01*
X12407381Y-16225381D01*
X12397857Y-16187286D01*
X12397857Y-16139667D01*
X12407381Y-16101571D01*
X12416905Y-16082524D01*
X12426428Y-16073000D01*
X12445476Y-16063476D01*
X12597857Y-16244428D02*
X12607381Y-16253952D01*
X12597857Y-16263476D01*
X12588333Y-16253952D01*
X12597857Y-16244428D01*
X12597857Y-16263476D01*
X12731190Y-16063476D02*
X12750238Y-16063476D01*
X12769286Y-16073000D01*
X12778809Y-16082524D01*
X12788333Y-16101571D01*
X12797857Y-16139667D01*
X12797857Y-16187286D01*
X12788333Y-16225381D01*
X12778809Y-16244428D01*
X12769286Y-16253952D01*
X12750238Y-16263476D01*
X12731190Y-16263476D01*
X12712143Y-16253952D01*
X12702619Y-16244428D01*
X12693095Y-16225381D01*
X12683571Y-16187286D01*
X12683571Y-16139667D01*
X12693095Y-16101571D01*
X12702619Y-16082524D01*
X12712143Y-16073000D01*
X12731190Y-16063476D01*
X12864524Y-16063476D02*
X12988333Y-16063476D01*
X12921667Y-16139667D01*
X12950238Y-16139667D01*
X12969286Y-16149190D01*
X12978809Y-16158714D01*
X12988333Y-16177762D01*
X12988333Y-16225381D01*
X12978809Y-16244428D01*
X12969286Y-16253952D01*
X12950238Y-16263476D01*
X12893095Y-16263476D01*
X12874048Y-16253952D01*
X12864524Y-16244428D01*
X13083571Y-16263476D02*
X13121667Y-16263476D01*
X13140714Y-16253952D01*
X13150238Y-16244428D01*
X13169286Y-16215857D01*
X13178809Y-16177762D01*
X13178809Y-16101571D01*
X13169286Y-16082524D01*
X13159762Y-16073000D01*
X13140714Y-16063476D01*
X13102619Y-16063476D01*
X13083571Y-16073000D01*
X13074048Y-16082524D01*
X13064524Y-16101571D01*
X13064524Y-16149190D01*
X13074048Y-16168238D01*
X13083571Y-16177762D01*
X13102619Y-16187286D01*
X13140714Y-16187286D01*
X13159762Y-16177762D01*
X13169286Y-16168238D01*
X13178809Y-16149190D01*
X13350238Y-16130143D02*
X13350238Y-16263476D01*
X13302619Y-16053952D02*
X13255000Y-16196809D01*
X13378809Y-16196809D01*
X13445476Y-16063476D02*
X13445476Y-16101571D01*
X13521667Y-16063476D02*
X13521667Y-16101571D01*
X13816905Y-16339667D02*
X13807381Y-16330143D01*
X13788333Y-16301571D01*
X13778809Y-16282524D01*
X13769286Y-16253952D01*
X13759762Y-16206333D01*
X13759762Y-16168238D01*
X13769286Y-16120619D01*
X13778809Y-16092048D01*
X13788333Y-16073000D01*
X13807381Y-16044428D01*
X13816905Y-16034905D01*
X13997857Y-16263476D02*
X13883571Y-16263476D01*
X13940714Y-16263476D02*
X13940714Y-16063476D01*
X13921667Y-16092048D01*
X13902619Y-16111095D01*
X13883571Y-16120619D01*
X14112143Y-16149190D02*
X14093095Y-16139667D01*
X14083571Y-16130143D01*
X14074048Y-16111095D01*
X14074048Y-16101571D01*
X14083571Y-16082524D01*
X14093095Y-16073000D01*
X14112143Y-16063476D01*
X14150238Y-16063476D01*
X14169286Y-16073000D01*
X14178809Y-16082524D01*
X14188333Y-16101571D01*
X14188333Y-16111095D01*
X14178809Y-16130143D01*
X14169286Y-16139667D01*
X14150238Y-16149190D01*
X14112143Y-16149190D01*
X14093095Y-16158714D01*
X14083571Y-16168238D01*
X14074048Y-16187286D01*
X14074048Y-16225381D01*
X14083571Y-16244428D01*
X14093095Y-16253952D01*
X14112143Y-16263476D01*
X14150238Y-16263476D01*
X14169286Y-16253952D01*
X14178809Y-16244428D01*
X14188333Y-16225381D01*
X14188333Y-16187286D01*
X14178809Y-16168238D01*
X14169286Y-16158714D01*
X14150238Y-16149190D01*
X14426428Y-16263476D02*
X14426428Y-16063476D01*
X14512143Y-16263476D02*
X14512143Y-16158714D01*
X14502619Y-16139667D01*
X14483571Y-16130143D01*
X14455000Y-16130143D01*
X14435952Y-16139667D01*
X14426428Y-16149190D01*
X14635952Y-16263476D02*
X14616905Y-16253952D01*
X14607381Y-16244428D01*
X14597857Y-16225381D01*
X14597857Y-16168238D01*
X14607381Y-16149190D01*
X14616905Y-16139667D01*
X14635952Y-16130143D01*
X14664524Y-16130143D01*
X14683571Y-16139667D01*
X14693095Y-16149190D01*
X14702619Y-16168238D01*
X14702619Y-16225381D01*
X14693095Y-16244428D01*
X14683571Y-16253952D01*
X14664524Y-16263476D01*
X14635952Y-16263476D01*
X14816905Y-16263476D02*
X14797857Y-16253952D01*
X14788333Y-16234905D01*
X14788333Y-16063476D01*
X14969286Y-16253952D02*
X14950238Y-16263476D01*
X14912143Y-16263476D01*
X14893095Y-16253952D01*
X14883571Y-16234905D01*
X14883571Y-16158714D01*
X14893095Y-16139667D01*
X14912143Y-16130143D01*
X14950238Y-16130143D01*
X14969286Y-16139667D01*
X14978809Y-16158714D01*
X14978809Y-16177762D01*
X14883571Y-16196809D01*
X15055000Y-16253952D02*
X15074048Y-16263476D01*
X15112143Y-16263476D01*
X15131190Y-16253952D01*
X15140714Y-16234905D01*
X15140714Y-16225381D01*
X15131190Y-16206333D01*
X15112143Y-16196809D01*
X15083571Y-16196809D01*
X15064524Y-16187286D01*
X15055000Y-16168238D01*
X15055000Y-16158714D01*
X15064524Y-16139667D01*
X15083571Y-16130143D01*
X15112143Y-16130143D01*
X15131190Y-16139667D01*
X15207381Y-16339667D02*
X15216905Y-16330143D01*
X15235952Y-16301571D01*
X15245476Y-16282524D01*
X15255000Y-16253952D01*
X15264524Y-16206333D01*
X15264524Y-16168238D01*
X15255000Y-16120619D01*
X15245476Y-16092048D01*
X15235952Y-16073000D01*
X15216905Y-16044428D01*
X15207381Y-16034905D01*
D15*
X10230063Y-16473063D02*
X10230063Y-16400937D01*
X10157937Y-16400937D01*
X10157937Y-16473063D01*
X10230063Y-16473063D01*
D11*
X10607381Y-16527476D02*
X10493095Y-16527476D01*
X10550238Y-16527476D02*
X10550238Y-16327476D01*
X10531190Y-16356048D01*
X10512143Y-16375095D01*
X10493095Y-16384619D01*
X10693095Y-16508428D02*
X10702619Y-16517952D01*
X10693095Y-16527476D01*
X10683571Y-16517952D01*
X10693095Y-16508428D01*
X10693095Y-16527476D01*
X10826429Y-16327476D02*
X10845476Y-16327476D01*
X10864524Y-16337000D01*
X10874048Y-16346524D01*
X10883571Y-16365571D01*
X10893095Y-16403667D01*
X10893095Y-16451286D01*
X10883571Y-16489381D01*
X10874048Y-16508428D01*
X10864524Y-16517952D01*
X10845476Y-16527476D01*
X10826429Y-16527476D01*
X10807381Y-16517952D01*
X10797857Y-16508428D01*
X10788333Y-16489381D01*
X10778810Y-16451286D01*
X10778810Y-16403667D01*
X10788333Y-16365571D01*
X10797857Y-16346524D01*
X10807381Y-16337000D01*
X10826429Y-16327476D01*
X10969286Y-16346524D02*
X10978810Y-16337000D01*
X10997857Y-16327476D01*
X11045476Y-16327476D01*
X11064524Y-16337000D01*
X11074048Y-16346524D01*
X11083571Y-16365571D01*
X11083571Y-16384619D01*
X11074048Y-16413190D01*
X10959762Y-16527476D01*
X11083571Y-16527476D01*
X11207381Y-16327476D02*
X11226428Y-16327476D01*
X11245476Y-16337000D01*
X11255000Y-16346524D01*
X11264524Y-16365571D01*
X11274048Y-16403667D01*
X11274048Y-16451286D01*
X11264524Y-16489381D01*
X11255000Y-16508428D01*
X11245476Y-16517952D01*
X11226428Y-16527476D01*
X11207381Y-16527476D01*
X11188333Y-16517952D01*
X11178810Y-16508428D01*
X11169286Y-16489381D01*
X11159762Y-16451286D01*
X11159762Y-16403667D01*
X11169286Y-16365571D01*
X11178810Y-16346524D01*
X11188333Y-16337000D01*
X11207381Y-16327476D01*
X11359762Y-16527476D02*
X11359762Y-16394143D01*
X11359762Y-16413190D02*
X11369286Y-16403667D01*
X11388333Y-16394143D01*
X11416905Y-16394143D01*
X11435952Y-16403667D01*
X11445476Y-16422714D01*
X11445476Y-16527476D01*
X11445476Y-16422714D02*
X11455000Y-16403667D01*
X11474048Y-16394143D01*
X11502619Y-16394143D01*
X11521667Y-16403667D01*
X11531190Y-16422714D01*
X11531190Y-16527476D01*
X11626428Y-16527476D02*
X11626428Y-16394143D01*
X11626428Y-16413190D02*
X11635952Y-16403667D01*
X11655000Y-16394143D01*
X11683571Y-16394143D01*
X11702619Y-16403667D01*
X11712143Y-16422714D01*
X11712143Y-16527476D01*
X11712143Y-16422714D02*
X11721667Y-16403667D01*
X11740714Y-16394143D01*
X11769286Y-16394143D01*
X11788333Y-16403667D01*
X11797857Y-16422714D01*
X11797857Y-16527476D01*
X12188333Y-16317952D02*
X12016905Y-16575095D01*
X12445476Y-16327476D02*
X12464524Y-16327476D01*
X12483571Y-16337000D01*
X12493095Y-16346524D01*
X12502619Y-16365571D01*
X12512143Y-16403667D01*
X12512143Y-16451286D01*
X12502619Y-16489381D01*
X12493095Y-16508428D01*
X12483571Y-16517952D01*
X12464524Y-16527476D01*
X12445476Y-16527476D01*
X12426428Y-16517952D01*
X12416905Y-16508428D01*
X12407381Y-16489381D01*
X12397857Y-16451286D01*
X12397857Y-16403667D01*
X12407381Y-16365571D01*
X12416905Y-16346524D01*
X12426428Y-16337000D01*
X12445476Y-16327476D01*
X12597857Y-16508428D02*
X12607381Y-16517952D01*
X12597857Y-16527476D01*
X12588333Y-16517952D01*
X12597857Y-16508428D01*
X12597857Y-16527476D01*
X12731190Y-16327476D02*
X12750238Y-16327476D01*
X12769286Y-16337000D01*
X12778809Y-16346524D01*
X12788333Y-16365571D01*
X12797857Y-16403667D01*
X12797857Y-16451286D01*
X12788333Y-16489381D01*
X12778809Y-16508428D01*
X12769286Y-16517952D01*
X12750238Y-16527476D01*
X12731190Y-16527476D01*
X12712143Y-16517952D01*
X12702619Y-16508428D01*
X12693095Y-16489381D01*
X12683571Y-16451286D01*
X12683571Y-16403667D01*
X12693095Y-16365571D01*
X12702619Y-16346524D01*
X12712143Y-16337000D01*
X12731190Y-16327476D01*
X12969286Y-16394143D02*
X12969286Y-16527476D01*
X12921667Y-16317952D02*
X12874048Y-16460809D01*
X12997857Y-16460809D01*
X13112143Y-16327476D02*
X13131190Y-16327476D01*
X13150238Y-16337000D01*
X13159762Y-16346524D01*
X13169286Y-16365571D01*
X13178809Y-16403667D01*
X13178809Y-16451286D01*
X13169286Y-16489381D01*
X13159762Y-16508428D01*
X13150238Y-16517952D01*
X13131190Y-16527476D01*
X13112143Y-16527476D01*
X13093095Y-16517952D01*
X13083571Y-16508428D01*
X13074048Y-16489381D01*
X13064524Y-16451286D01*
X13064524Y-16403667D01*
X13074048Y-16365571D01*
X13083571Y-16346524D01*
X13093095Y-16337000D01*
X13112143Y-16327476D01*
X13255000Y-16346524D02*
X13264524Y-16337000D01*
X13283571Y-16327476D01*
X13331190Y-16327476D01*
X13350238Y-16337000D01*
X13359762Y-16346524D01*
X13369286Y-16365571D01*
X13369286Y-16384619D01*
X13359762Y-16413190D01*
X13245476Y-16527476D01*
X13369286Y-16527476D01*
X13445476Y-16327476D02*
X13445476Y-16365571D01*
X13521667Y-16327476D02*
X13521667Y-16365571D01*
X13816905Y-16603667D02*
X13807381Y-16594143D01*
X13788333Y-16565571D01*
X13778809Y-16546524D01*
X13769286Y-16517952D01*
X13759762Y-16470333D01*
X13759762Y-16432238D01*
X13769286Y-16384619D01*
X13778809Y-16356048D01*
X13788333Y-16337000D01*
X13807381Y-16308428D01*
X13816905Y-16298905D01*
X13921667Y-16413190D02*
X13902619Y-16403667D01*
X13893095Y-16394143D01*
X13883571Y-16375095D01*
X13883571Y-16365571D01*
X13893095Y-16346524D01*
X13902619Y-16337000D01*
X13921667Y-16327476D01*
X13959762Y-16327476D01*
X13978809Y-16337000D01*
X13988333Y-16346524D01*
X13997857Y-16365571D01*
X13997857Y-16375095D01*
X13988333Y-16394143D01*
X13978809Y-16403667D01*
X13959762Y-16413190D01*
X13921667Y-16413190D01*
X13902619Y-16422714D01*
X13893095Y-16432238D01*
X13883571Y-16451286D01*
X13883571Y-16489381D01*
X13893095Y-16508428D01*
X13902619Y-16517952D01*
X13921667Y-16527476D01*
X13959762Y-16527476D01*
X13978809Y-16517952D01*
X13988333Y-16508428D01*
X13997857Y-16489381D01*
X13997857Y-16451286D01*
X13988333Y-16432238D01*
X13978809Y-16422714D01*
X13959762Y-16413190D01*
X14235952Y-16527476D02*
X14235952Y-16327476D01*
X14321667Y-16527476D02*
X14321667Y-16422714D01*
X14312143Y-16403667D01*
X14293095Y-16394143D01*
X14264524Y-16394143D01*
X14245476Y-16403667D01*
X14235952Y-16413190D01*
X14445476Y-16527476D02*
X14426428Y-16517952D01*
X14416905Y-16508428D01*
X14407381Y-16489381D01*
X14407381Y-16432238D01*
X14416905Y-16413190D01*
X14426428Y-16403667D01*
X14445476Y-16394143D01*
X14474048Y-16394143D01*
X14493095Y-16403667D01*
X14502619Y-16413190D01*
X14512143Y-16432238D01*
X14512143Y-16489381D01*
X14502619Y-16508428D01*
X14493095Y-16517952D01*
X14474048Y-16527476D01*
X14445476Y-16527476D01*
X14626428Y-16527476D02*
X14607381Y-16517952D01*
X14597857Y-16498905D01*
X14597857Y-16327476D01*
X14778809Y-16517952D02*
X14759762Y-16527476D01*
X14721667Y-16527476D01*
X14702619Y-16517952D01*
X14693095Y-16498905D01*
X14693095Y-16422714D01*
X14702619Y-16403667D01*
X14721667Y-16394143D01*
X14759762Y-16394143D01*
X14778809Y-16403667D01*
X14788333Y-16422714D01*
X14788333Y-16441762D01*
X14693095Y-16460809D01*
X14864524Y-16517952D02*
X14883571Y-16527476D01*
X14921667Y-16527476D01*
X14940714Y-16517952D01*
X14950238Y-16498905D01*
X14950238Y-16489381D01*
X14940714Y-16470333D01*
X14921667Y-16460809D01*
X14893095Y-16460809D01*
X14874048Y-16451286D01*
X14864524Y-16432238D01*
X14864524Y-16422714D01*
X14874048Y-16403667D01*
X14893095Y-16394143D01*
X14921667Y-16394143D01*
X14940714Y-16403667D01*
X15016905Y-16603667D02*
X15026428Y-16594143D01*
X15045476Y-16565571D01*
X15055000Y-16546524D01*
X15064524Y-16517952D01*
X15074048Y-16470333D01*
X15074048Y-16432238D01*
X15064524Y-16384619D01*
X15055000Y-16356048D01*
X15045476Y-16337000D01*
X15026428Y-16308428D01*
X15016905Y-16298905D01*
D16*
X10193000Y-16753000D02*
X10245000Y-16701000D01*
X10193000Y-16649000D01*
X10141000Y-16701000D01*
X10193000Y-16753000D01*
D11*
X10607381Y-16791476D02*
X10493095Y-16791476D01*
X10550238Y-16791476D02*
X10550238Y-16591476D01*
X10531190Y-16620048D01*
X10512143Y-16639095D01*
X10493095Y-16648619D01*
X10693095Y-16772428D02*
X10702619Y-16781952D01*
X10693095Y-16791476D01*
X10683571Y-16781952D01*
X10693095Y-16772428D01*
X10693095Y-16791476D01*
X10826429Y-16591476D02*
X10845476Y-16591476D01*
X10864524Y-16601000D01*
X10874048Y-16610524D01*
X10883571Y-16629571D01*
X10893095Y-16667667D01*
X10893095Y-16715286D01*
X10883571Y-16753381D01*
X10874048Y-16772428D01*
X10864524Y-16781952D01*
X10845476Y-16791476D01*
X10826429Y-16791476D01*
X10807381Y-16781952D01*
X10797857Y-16772428D01*
X10788333Y-16753381D01*
X10778810Y-16715286D01*
X10778810Y-16667667D01*
X10788333Y-16629571D01*
X10797857Y-16610524D01*
X10807381Y-16601000D01*
X10826429Y-16591476D01*
X11064524Y-16658143D02*
X11064524Y-16791476D01*
X11016905Y-16581952D02*
X10969286Y-16724809D01*
X11093095Y-16724809D01*
X11207381Y-16591476D02*
X11226428Y-16591476D01*
X11245476Y-16601000D01*
X11255000Y-16610524D01*
X11264524Y-16629571D01*
X11274048Y-16667667D01*
X11274048Y-16715286D01*
X11264524Y-16753381D01*
X11255000Y-16772428D01*
X11245476Y-16781952D01*
X11226428Y-16791476D01*
X11207381Y-16791476D01*
X11188333Y-16781952D01*
X11178810Y-16772428D01*
X11169286Y-16753381D01*
X11159762Y-16715286D01*
X11159762Y-16667667D01*
X11169286Y-16629571D01*
X11178810Y-16610524D01*
X11188333Y-16601000D01*
X11207381Y-16591476D01*
X11359762Y-16791476D02*
X11359762Y-16658143D01*
X11359762Y-16677190D02*
X11369286Y-16667667D01*
X11388333Y-16658143D01*
X11416905Y-16658143D01*
X11435952Y-16667667D01*
X11445476Y-16686714D01*
X11445476Y-16791476D01*
X11445476Y-16686714D02*
X11455000Y-16667667D01*
X11474048Y-16658143D01*
X11502619Y-16658143D01*
X11521667Y-16667667D01*
X11531190Y-16686714D01*
X11531190Y-16791476D01*
X11626428Y-16791476D02*
X11626428Y-16658143D01*
X11626428Y-16677190D02*
X11635952Y-16667667D01*
X11655000Y-16658143D01*
X11683571Y-16658143D01*
X11702619Y-16667667D01*
X11712143Y-16686714D01*
X11712143Y-16791476D01*
X11712143Y-16686714D02*
X11721667Y-16667667D01*
X11740714Y-16658143D01*
X11769286Y-16658143D01*
X11788333Y-16667667D01*
X11797857Y-16686714D01*
X11797857Y-16791476D01*
X12188333Y-16581952D02*
X12016905Y-16839095D01*
X12445476Y-16591476D02*
X12464524Y-16591476D01*
X12483571Y-16601000D01*
X12493095Y-16610524D01*
X12502619Y-16629571D01*
X12512143Y-16667667D01*
X12512143Y-16715286D01*
X12502619Y-16753381D01*
X12493095Y-16772428D01*
X12483571Y-16781952D01*
X12464524Y-16791476D01*
X12445476Y-16791476D01*
X12426428Y-16781952D01*
X12416905Y-16772428D01*
X12407381Y-16753381D01*
X12397857Y-16715286D01*
X12397857Y-16667667D01*
X12407381Y-16629571D01*
X12416905Y-16610524D01*
X12426428Y-16601000D01*
X12445476Y-16591476D01*
X12597857Y-16772428D02*
X12607381Y-16781952D01*
X12597857Y-16791476D01*
X12588333Y-16781952D01*
X12597857Y-16772428D01*
X12597857Y-16791476D01*
X12731190Y-16591476D02*
X12750238Y-16591476D01*
X12769286Y-16601000D01*
X12778809Y-16610524D01*
X12788333Y-16629571D01*
X12797857Y-16667667D01*
X12797857Y-16715286D01*
X12788333Y-16753381D01*
X12778809Y-16772428D01*
X12769286Y-16781952D01*
X12750238Y-16791476D01*
X12731190Y-16791476D01*
X12712143Y-16781952D01*
X12702619Y-16772428D01*
X12693095Y-16753381D01*
X12683571Y-16715286D01*
X12683571Y-16667667D01*
X12693095Y-16629571D01*
X12702619Y-16610524D01*
X12712143Y-16601000D01*
X12731190Y-16591476D01*
X12969286Y-16658143D02*
X12969286Y-16791476D01*
X12921667Y-16581952D02*
X12874048Y-16724809D01*
X12997857Y-16724809D01*
X13112143Y-16591476D02*
X13131190Y-16591476D01*
X13150238Y-16601000D01*
X13159762Y-16610524D01*
X13169286Y-16629571D01*
X13178809Y-16667667D01*
X13178809Y-16715286D01*
X13169286Y-16753381D01*
X13159762Y-16772428D01*
X13150238Y-16781952D01*
X13131190Y-16791476D01*
X13112143Y-16791476D01*
X13093095Y-16781952D01*
X13083571Y-16772428D01*
X13074048Y-16753381D01*
X13064524Y-16715286D01*
X13064524Y-16667667D01*
X13074048Y-16629571D01*
X13083571Y-16610524D01*
X13093095Y-16601000D01*
X13112143Y-16591476D01*
X13274048Y-16791476D02*
X13312143Y-16791476D01*
X13331190Y-16781952D01*
X13340714Y-16772428D01*
X13359762Y-16743857D01*
X13369286Y-16705762D01*
X13369286Y-16629571D01*
X13359762Y-16610524D01*
X13350238Y-16601000D01*
X13331190Y-16591476D01*
X13293095Y-16591476D01*
X13274048Y-16601000D01*
X13264524Y-16610524D01*
X13255000Y-16629571D01*
X13255000Y-16677190D01*
X13264524Y-16696238D01*
X13274048Y-16705762D01*
X13293095Y-16715286D01*
X13331190Y-16715286D01*
X13350238Y-16705762D01*
X13359762Y-16696238D01*
X13369286Y-16677190D01*
X13445476Y-16591476D02*
X13445476Y-16629571D01*
X13521667Y-16591476D02*
X13521667Y-16629571D01*
X13816905Y-16867667D02*
X13807381Y-16858143D01*
X13788333Y-16829571D01*
X13778809Y-16810524D01*
X13769286Y-16781952D01*
X13759762Y-16734333D01*
X13759762Y-16696238D01*
X13769286Y-16648619D01*
X13778809Y-16620048D01*
X13788333Y-16601000D01*
X13807381Y-16572428D01*
X13816905Y-16562905D01*
X13874048Y-16591476D02*
X13997857Y-16591476D01*
X13931190Y-16667667D01*
X13959762Y-16667667D01*
X13978809Y-16677190D01*
X13988333Y-16686714D01*
X13997857Y-16705762D01*
X13997857Y-16753381D01*
X13988333Y-16772428D01*
X13978809Y-16781952D01*
X13959762Y-16791476D01*
X13902619Y-16791476D01*
X13883571Y-16781952D01*
X13874048Y-16772428D01*
X14112143Y-16677190D02*
X14093095Y-16667667D01*
X14083571Y-16658143D01*
X14074048Y-16639095D01*
X14074048Y-16629571D01*
X14083571Y-16610524D01*
X14093095Y-16601000D01*
X14112143Y-16591476D01*
X14150238Y-16591476D01*
X14169286Y-16601000D01*
X14178809Y-16610524D01*
X14188333Y-16629571D01*
X14188333Y-16639095D01*
X14178809Y-16658143D01*
X14169286Y-16667667D01*
X14150238Y-16677190D01*
X14112143Y-16677190D01*
X14093095Y-16686714D01*
X14083571Y-16696238D01*
X14074048Y-16715286D01*
X14074048Y-16753381D01*
X14083571Y-16772428D01*
X14093095Y-16781952D01*
X14112143Y-16791476D01*
X14150238Y-16791476D01*
X14169286Y-16781952D01*
X14178809Y-16772428D01*
X14188333Y-16753381D01*
X14188333Y-16715286D01*
X14178809Y-16696238D01*
X14169286Y-16686714D01*
X14150238Y-16677190D01*
X14426428Y-16791476D02*
X14426428Y-16591476D01*
X14512143Y-16791476D02*
X14512143Y-16686714D01*
X14502619Y-16667667D01*
X14483571Y-16658143D01*
X14455000Y-16658143D01*
X14435952Y-16667667D01*
X14426428Y-16677190D01*
X14635952Y-16791476D02*
X14616905Y-16781952D01*
X14607381Y-16772428D01*
X14597857Y-16753381D01*
X14597857Y-16696238D01*
X14607381Y-16677190D01*
X14616905Y-16667667D01*
X14635952Y-16658143D01*
X14664524Y-16658143D01*
X14683571Y-16667667D01*
X14693095Y-16677190D01*
X14702619Y-16696238D01*
X14702619Y-16753381D01*
X14693095Y-16772428D01*
X14683571Y-16781952D01*
X14664524Y-16791476D01*
X14635952Y-16791476D01*
X14816905Y-16791476D02*
X14797857Y-16781952D01*
X14788333Y-16762905D01*
X14788333Y-16591476D01*
X14969286Y-16781952D02*
X14950238Y-16791476D01*
X14912143Y-16791476D01*
X14893095Y-16781952D01*
X14883571Y-16762905D01*
X14883571Y-16686714D01*
X14893095Y-16667667D01*
X14912143Y-16658143D01*
X14950238Y-16658143D01*
X14969286Y-16667667D01*
X14978809Y-16686714D01*
X14978809Y-16705762D01*
X14883571Y-16724809D01*
X15055000Y-16781952D02*
X15074048Y-16791476D01*
X15112143Y-16791476D01*
X15131190Y-16781952D01*
X15140714Y-16762905D01*
X15140714Y-16753381D01*
X15131190Y-16734333D01*
X15112143Y-16724809D01*
X15083571Y-16724809D01*
X15064524Y-16715286D01*
X15055000Y-16696238D01*
X15055000Y-16686714D01*
X15064524Y-16667667D01*
X15083571Y-16658143D01*
X15112143Y-16658143D01*
X15131190Y-16667667D01*
X15207381Y-16867667D02*
X15216905Y-16858143D01*
X15235952Y-16829571D01*
X15245476Y-16810524D01*
X15255000Y-16781952D01*
X15264524Y-16734333D01*
X15264524Y-16696238D01*
X15255000Y-16648619D01*
X15245476Y-16620048D01*
X15235952Y-16601000D01*
X15216905Y-16572428D01*
X15207381Y-16562905D01*
D17*
X10125000Y-16905000D02*
X10245000Y-17025000D01*
X10245000Y-16905000D02*
X10125000Y-17025000D01*
X10245000Y-16965000D02*
G75*
G03*
X10245000Y-16965000I-60000J0D01*
G01*
D11*
X10607381Y-17055476D02*
X10493095Y-17055476D01*
X10550238Y-17055476D02*
X10550238Y-16855476D01*
X10531190Y-16884048D01*
X10512143Y-16903095D01*
X10493095Y-16912619D01*
X10693095Y-17036429D02*
X10702619Y-17045952D01*
X10693095Y-17055476D01*
X10683571Y-17045952D01*
X10693095Y-17036429D01*
X10693095Y-17055476D01*
X10778810Y-16874524D02*
X10788333Y-16865000D01*
X10807381Y-16855476D01*
X10855000Y-16855476D01*
X10874048Y-16865000D01*
X10883571Y-16874524D01*
X10893095Y-16893571D01*
X10893095Y-16912619D01*
X10883571Y-16941190D01*
X10769286Y-17055476D01*
X10893095Y-17055476D01*
X11016905Y-16855476D02*
X11035952Y-16855476D01*
X11055000Y-16865000D01*
X11064524Y-16874524D01*
X11074048Y-16893571D01*
X11083571Y-16931667D01*
X11083571Y-16979286D01*
X11074048Y-17017381D01*
X11064524Y-17036429D01*
X11055000Y-17045952D01*
X11035952Y-17055476D01*
X11016905Y-17055476D01*
X10997857Y-17045952D01*
X10988333Y-17036429D01*
X10978810Y-17017381D01*
X10969286Y-16979286D01*
X10969286Y-16931667D01*
X10978810Y-16893571D01*
X10988333Y-16874524D01*
X10997857Y-16865000D01*
X11016905Y-16855476D01*
X11207381Y-16855476D02*
X11226428Y-16855476D01*
X11245476Y-16865000D01*
X11255000Y-16874524D01*
X11264524Y-16893571D01*
X11274048Y-16931667D01*
X11274048Y-16979286D01*
X11264524Y-17017381D01*
X11255000Y-17036429D01*
X11245476Y-17045952D01*
X11226428Y-17055476D01*
X11207381Y-17055476D01*
X11188333Y-17045952D01*
X11178810Y-17036429D01*
X11169286Y-17017381D01*
X11159762Y-16979286D01*
X11159762Y-16931667D01*
X11169286Y-16893571D01*
X11178810Y-16874524D01*
X11188333Y-16865000D01*
X11207381Y-16855476D01*
X11359762Y-17055476D02*
X11359762Y-16922143D01*
X11359762Y-16941190D02*
X11369286Y-16931667D01*
X11388333Y-16922143D01*
X11416905Y-16922143D01*
X11435952Y-16931667D01*
X11445476Y-16950714D01*
X11445476Y-17055476D01*
X11445476Y-16950714D02*
X11455000Y-16931667D01*
X11474048Y-16922143D01*
X11502619Y-16922143D01*
X11521667Y-16931667D01*
X11531190Y-16950714D01*
X11531190Y-17055476D01*
X11626428Y-17055476D02*
X11626428Y-16922143D01*
X11626428Y-16941190D02*
X11635952Y-16931667D01*
X11655000Y-16922143D01*
X11683571Y-16922143D01*
X11702619Y-16931667D01*
X11712143Y-16950714D01*
X11712143Y-17055476D01*
X11712143Y-16950714D02*
X11721667Y-16931667D01*
X11740714Y-16922143D01*
X11769286Y-16922143D01*
X11788333Y-16931667D01*
X11797857Y-16950714D01*
X11797857Y-17055476D01*
X12188333Y-16845952D02*
X12016905Y-17103095D01*
X12445476Y-16855476D02*
X12464524Y-16855476D01*
X12483571Y-16865000D01*
X12493095Y-16874524D01*
X12502619Y-16893571D01*
X12512143Y-16931667D01*
X12512143Y-16979286D01*
X12502619Y-17017381D01*
X12493095Y-17036429D01*
X12483571Y-17045952D01*
X12464524Y-17055476D01*
X12445476Y-17055476D01*
X12426428Y-17045952D01*
X12416905Y-17036429D01*
X12407381Y-17017381D01*
X12397857Y-16979286D01*
X12397857Y-16931667D01*
X12407381Y-16893571D01*
X12416905Y-16874524D01*
X12426428Y-16865000D01*
X12445476Y-16855476D01*
X12597857Y-17036429D02*
X12607381Y-17045952D01*
X12597857Y-17055476D01*
X12588333Y-17045952D01*
X12597857Y-17036429D01*
X12597857Y-17055476D01*
X12731190Y-16855476D02*
X12750238Y-16855476D01*
X12769286Y-16865000D01*
X12778809Y-16874524D01*
X12788333Y-16893571D01*
X12797857Y-16931667D01*
X12797857Y-16979286D01*
X12788333Y-17017381D01*
X12778809Y-17036429D01*
X12769286Y-17045952D01*
X12750238Y-17055476D01*
X12731190Y-17055476D01*
X12712143Y-17045952D01*
X12702619Y-17036429D01*
X12693095Y-17017381D01*
X12683571Y-16979286D01*
X12683571Y-16931667D01*
X12693095Y-16893571D01*
X12702619Y-16874524D01*
X12712143Y-16865000D01*
X12731190Y-16855476D01*
X12969286Y-16922143D02*
X12969286Y-17055476D01*
X12921667Y-16845952D02*
X12874048Y-16988810D01*
X12997857Y-16988810D01*
X13055000Y-16855476D02*
X13188333Y-16855476D01*
X13102619Y-17055476D01*
X13255000Y-16874524D02*
X13264524Y-16865000D01*
X13283571Y-16855476D01*
X13331190Y-16855476D01*
X13350238Y-16865000D01*
X13359762Y-16874524D01*
X13369286Y-16893571D01*
X13369286Y-16912619D01*
X13359762Y-16941190D01*
X13245476Y-17055476D01*
X13369286Y-17055476D01*
X13445476Y-16855476D02*
X13445476Y-16893571D01*
X13521667Y-16855476D02*
X13521667Y-16893571D01*
X13816905Y-17131667D02*
X13807381Y-17122143D01*
X13788333Y-17093571D01*
X13778809Y-17074524D01*
X13769286Y-17045952D01*
X13759762Y-16998333D01*
X13759762Y-16960238D01*
X13769286Y-16912619D01*
X13778809Y-16884048D01*
X13788333Y-16865000D01*
X13807381Y-16836429D01*
X13816905Y-16826905D01*
X13874048Y-16855476D02*
X13997857Y-16855476D01*
X13931190Y-16931667D01*
X13959762Y-16931667D01*
X13978809Y-16941190D01*
X13988333Y-16950714D01*
X13997857Y-16969762D01*
X13997857Y-17017381D01*
X13988333Y-17036429D01*
X13978809Y-17045952D01*
X13959762Y-17055476D01*
X13902619Y-17055476D01*
X13883571Y-17045952D01*
X13874048Y-17036429D01*
X14235952Y-17055476D02*
X14235952Y-16855476D01*
X14321667Y-17055476D02*
X14321667Y-16950714D01*
X14312143Y-16931667D01*
X14293095Y-16922143D01*
X14264524Y-16922143D01*
X14245476Y-16931667D01*
X14235952Y-16941190D01*
X14445476Y-17055476D02*
X14426428Y-17045952D01*
X14416905Y-17036429D01*
X14407381Y-17017381D01*
X14407381Y-16960238D01*
X14416905Y-16941190D01*
X14426428Y-16931667D01*
X14445476Y-16922143D01*
X14474048Y-16922143D01*
X14493095Y-16931667D01*
X14502619Y-16941190D01*
X14512143Y-16960238D01*
X14512143Y-17017381D01*
X14502619Y-17036429D01*
X14493095Y-17045952D01*
X14474048Y-17055476D01*
X14445476Y-17055476D01*
X14626428Y-17055476D02*
X14607381Y-17045952D01*
X14597857Y-17026905D01*
X14597857Y-16855476D01*
X14778809Y-17045952D02*
X14759762Y-17055476D01*
X14721667Y-17055476D01*
X14702619Y-17045952D01*
X14693095Y-17026905D01*
X14693095Y-16950714D01*
X14702619Y-16931667D01*
X14721667Y-16922143D01*
X14759762Y-16922143D01*
X14778809Y-16931667D01*
X14788333Y-16950714D01*
X14788333Y-16969762D01*
X14693095Y-16988810D01*
X14864524Y-17045952D02*
X14883571Y-17055476D01*
X14921667Y-17055476D01*
X14940714Y-17045952D01*
X14950238Y-17026905D01*
X14950238Y-17017381D01*
X14940714Y-16998333D01*
X14921667Y-16988810D01*
X14893095Y-16988810D01*
X14874048Y-16979286D01*
X14864524Y-16960238D01*
X14864524Y-16950714D01*
X14874048Y-16931667D01*
X14893095Y-16922143D01*
X14921667Y-16922143D01*
X14940714Y-16931667D01*
X15016905Y-17131667D02*
X15026428Y-17122143D01*
X15045476Y-17093571D01*
X15055000Y-17074524D01*
X15064524Y-17045952D01*
X15074048Y-16998333D01*
X15074048Y-16960238D01*
X15064524Y-16912619D01*
X15055000Y-16884048D01*
X15045476Y-16865000D01*
X15026428Y-16836429D01*
X15016905Y-16826905D01*
M02*
