%FSLAX45Y45*%
G04 Gerber Fmt 4.5, Leading zero omitted, Abs format (unit mm)*
G04 Created by KiCad (PCBNEW (6.0.1)) date 2022-05-31 14:36:37*
%MOMM*%
%LPD*%
G01*
G04 APERTURE LIST*
%TA.AperFunction,Profile*%
%ADD10C,0.100000*%
%TD*%
%ADD11C,0.200000*%
%ADD12C,0.100000*%
%ADD13C,0.160000*%
%ADD14C,0.320000*%
G04 APERTURE END LIST*
D10*
X20250000Y-15000000D02*
X10250000Y-15000000D01*
X10250000Y-15000000D02*
X10250000Y-10000000D01*
X10250000Y-10000000D02*
X20250000Y-10000000D01*
X20250000Y-10000000D02*
X20250000Y-15000000D01*
D11*
D12*
X19852500Y-11475000D02*
X19952500Y-11575000D01*
X19952500Y-11475000D02*
X19852500Y-11575000D01*
X19852500Y-12675000D02*
X19952500Y-12775000D01*
X19952500Y-12675000D02*
X19852500Y-12775000D01*
X19852500Y-12900000D02*
X19952500Y-13000000D01*
X19952500Y-12900000D02*
X19852500Y-13000000D01*
X19852500Y-14100000D02*
X19952500Y-14200000D01*
X19952500Y-14100000D02*
X19852500Y-14200000D01*
D13*
X11841000Y-12928600D02*
G75*
G03*
X11841000Y-12928600I-80000J0D01*
G01*
X12794900Y-14287500D02*
G75*
G03*
X12794900Y-14287500I-80000J0D01*
G01*
D14*
X10650000Y-10240000D02*
X10650000Y-10560000D01*
X10490000Y-10400000D02*
X10810000Y-10400000D01*
X10650000Y-14440000D02*
X10650000Y-14760000D01*
X10490000Y-14600000D02*
X10810000Y-14600000D01*
X19850000Y-10240000D02*
X19850000Y-10560000D01*
X19690000Y-10400000D02*
X20010000Y-10400000D01*
X19850000Y-14440000D02*
X19850000Y-14760000D01*
X19690000Y-14600000D02*
X20010000Y-14600000D01*
D11*
X10502619Y-15315476D02*
X10502619Y-15115476D01*
X10550238Y-15115476D01*
X10578810Y-15125000D01*
X10597857Y-15144048D01*
X10607381Y-15163095D01*
X10616905Y-15201190D01*
X10616905Y-15229762D01*
X10607381Y-15267857D01*
X10597857Y-15286905D01*
X10578810Y-15305952D01*
X10550238Y-15315476D01*
X10502619Y-15315476D01*
X10702619Y-15315476D02*
X10702619Y-15182143D01*
X10702619Y-15220238D02*
X10712143Y-15201190D01*
X10721667Y-15191667D01*
X10740714Y-15182143D01*
X10759762Y-15182143D01*
X10826429Y-15315476D02*
X10826429Y-15182143D01*
X10826429Y-15115476D02*
X10816905Y-15125000D01*
X10826429Y-15134524D01*
X10835952Y-15125000D01*
X10826429Y-15115476D01*
X10826429Y-15134524D01*
X10950238Y-15315476D02*
X10931190Y-15305952D01*
X10921667Y-15286905D01*
X10921667Y-15115476D01*
X11055000Y-15315476D02*
X11035952Y-15305952D01*
X11026429Y-15286905D01*
X11026429Y-15115476D01*
X11283571Y-15315476D02*
X11283571Y-15115476D01*
X11350238Y-15258333D01*
X11416905Y-15115476D01*
X11416905Y-15315476D01*
X11597857Y-15315476D02*
X11597857Y-15210714D01*
X11588333Y-15191667D01*
X11569286Y-15182143D01*
X11531190Y-15182143D01*
X11512143Y-15191667D01*
X11597857Y-15305952D02*
X11578809Y-15315476D01*
X11531190Y-15315476D01*
X11512143Y-15305952D01*
X11502619Y-15286905D01*
X11502619Y-15267857D01*
X11512143Y-15248809D01*
X11531190Y-15239286D01*
X11578809Y-15239286D01*
X11597857Y-15229762D01*
X11693095Y-15182143D02*
X11693095Y-15382143D01*
X11693095Y-15191667D02*
X11712143Y-15182143D01*
X11750238Y-15182143D01*
X11769286Y-15191667D01*
X11778809Y-15201190D01*
X11788333Y-15220238D01*
X11788333Y-15277381D01*
X11778809Y-15296428D01*
X11769286Y-15305952D01*
X11750238Y-15315476D01*
X11712143Y-15315476D01*
X11693095Y-15305952D01*
X11874048Y-15296428D02*
X11883571Y-15305952D01*
X11874048Y-15315476D01*
X11864524Y-15305952D01*
X11874048Y-15296428D01*
X11874048Y-15315476D01*
X11874048Y-15191667D02*
X11883571Y-15201190D01*
X11874048Y-15210714D01*
X11864524Y-15201190D01*
X11874048Y-15191667D01*
X11874048Y-15210714D01*
D12*
X10145000Y-15595000D02*
X10245000Y-15695000D01*
X10245000Y-15595000D02*
X10145000Y-15695000D01*
D11*
X10607381Y-15735476D02*
X10493095Y-15735476D01*
X10550238Y-15735476D02*
X10550238Y-15535476D01*
X10531190Y-15564048D01*
X10512143Y-15583095D01*
X10493095Y-15592619D01*
X10693095Y-15716428D02*
X10702619Y-15725952D01*
X10693095Y-15735476D01*
X10683571Y-15725952D01*
X10693095Y-15716428D01*
X10693095Y-15735476D01*
X10826429Y-15535476D02*
X10845476Y-15535476D01*
X10864524Y-15545000D01*
X10874048Y-15554524D01*
X10883571Y-15573571D01*
X10893095Y-15611667D01*
X10893095Y-15659286D01*
X10883571Y-15697381D01*
X10874048Y-15716428D01*
X10864524Y-15725952D01*
X10845476Y-15735476D01*
X10826429Y-15735476D01*
X10807381Y-15725952D01*
X10797857Y-15716428D01*
X10788333Y-15697381D01*
X10778810Y-15659286D01*
X10778810Y-15611667D01*
X10788333Y-15573571D01*
X10797857Y-15554524D01*
X10807381Y-15545000D01*
X10826429Y-15535476D01*
X11016905Y-15535476D02*
X11035952Y-15535476D01*
X11055000Y-15545000D01*
X11064524Y-15554524D01*
X11074048Y-15573571D01*
X11083571Y-15611667D01*
X11083571Y-15659286D01*
X11074048Y-15697381D01*
X11064524Y-15716428D01*
X11055000Y-15725952D01*
X11035952Y-15735476D01*
X11016905Y-15735476D01*
X10997857Y-15725952D01*
X10988333Y-15716428D01*
X10978810Y-15697381D01*
X10969286Y-15659286D01*
X10969286Y-15611667D01*
X10978810Y-15573571D01*
X10988333Y-15554524D01*
X10997857Y-15545000D01*
X11016905Y-15535476D01*
X11207381Y-15535476D02*
X11226428Y-15535476D01*
X11245476Y-15545000D01*
X11255000Y-15554524D01*
X11264524Y-15573571D01*
X11274048Y-15611667D01*
X11274048Y-15659286D01*
X11264524Y-15697381D01*
X11255000Y-15716428D01*
X11245476Y-15725952D01*
X11226428Y-15735476D01*
X11207381Y-15735476D01*
X11188333Y-15725952D01*
X11178810Y-15716428D01*
X11169286Y-15697381D01*
X11159762Y-15659286D01*
X11159762Y-15611667D01*
X11169286Y-15573571D01*
X11178810Y-15554524D01*
X11188333Y-15545000D01*
X11207381Y-15535476D01*
X11359762Y-15735476D02*
X11359762Y-15602143D01*
X11359762Y-15621190D02*
X11369286Y-15611667D01*
X11388333Y-15602143D01*
X11416905Y-15602143D01*
X11435952Y-15611667D01*
X11445476Y-15630714D01*
X11445476Y-15735476D01*
X11445476Y-15630714D02*
X11455000Y-15611667D01*
X11474048Y-15602143D01*
X11502619Y-15602143D01*
X11521667Y-15611667D01*
X11531190Y-15630714D01*
X11531190Y-15735476D01*
X11626428Y-15735476D02*
X11626428Y-15602143D01*
X11626428Y-15621190D02*
X11635952Y-15611667D01*
X11655000Y-15602143D01*
X11683571Y-15602143D01*
X11702619Y-15611667D01*
X11712143Y-15630714D01*
X11712143Y-15735476D01*
X11712143Y-15630714D02*
X11721667Y-15611667D01*
X11740714Y-15602143D01*
X11769286Y-15602143D01*
X11788333Y-15611667D01*
X11797857Y-15630714D01*
X11797857Y-15735476D01*
X12188333Y-15525952D02*
X12016905Y-15783095D01*
X12445476Y-15535476D02*
X12464524Y-15535476D01*
X12483571Y-15545000D01*
X12493095Y-15554524D01*
X12502619Y-15573571D01*
X12512143Y-15611667D01*
X12512143Y-15659286D01*
X12502619Y-15697381D01*
X12493095Y-15716428D01*
X12483571Y-15725952D01*
X12464524Y-15735476D01*
X12445476Y-15735476D01*
X12426428Y-15725952D01*
X12416905Y-15716428D01*
X12407381Y-15697381D01*
X12397857Y-15659286D01*
X12397857Y-15611667D01*
X12407381Y-15573571D01*
X12416905Y-15554524D01*
X12426428Y-15545000D01*
X12445476Y-15535476D01*
X12597857Y-15716428D02*
X12607381Y-15725952D01*
X12597857Y-15735476D01*
X12588333Y-15725952D01*
X12597857Y-15716428D01*
X12597857Y-15735476D01*
X12731190Y-15535476D02*
X12750238Y-15535476D01*
X12769286Y-15545000D01*
X12778809Y-15554524D01*
X12788333Y-15573571D01*
X12797857Y-15611667D01*
X12797857Y-15659286D01*
X12788333Y-15697381D01*
X12778809Y-15716428D01*
X12769286Y-15725952D01*
X12750238Y-15735476D01*
X12731190Y-15735476D01*
X12712143Y-15725952D01*
X12702619Y-15716428D01*
X12693095Y-15697381D01*
X12683571Y-15659286D01*
X12683571Y-15611667D01*
X12693095Y-15573571D01*
X12702619Y-15554524D01*
X12712143Y-15545000D01*
X12731190Y-15535476D01*
X12864524Y-15535476D02*
X12988333Y-15535476D01*
X12921667Y-15611667D01*
X12950238Y-15611667D01*
X12969286Y-15621190D01*
X12978809Y-15630714D01*
X12988333Y-15649762D01*
X12988333Y-15697381D01*
X12978809Y-15716428D01*
X12969286Y-15725952D01*
X12950238Y-15735476D01*
X12893095Y-15735476D01*
X12874048Y-15725952D01*
X12864524Y-15716428D01*
X13083571Y-15735476D02*
X13121667Y-15735476D01*
X13140714Y-15725952D01*
X13150238Y-15716428D01*
X13169286Y-15687857D01*
X13178809Y-15649762D01*
X13178809Y-15573571D01*
X13169286Y-15554524D01*
X13159762Y-15545000D01*
X13140714Y-15535476D01*
X13102619Y-15535476D01*
X13083571Y-15545000D01*
X13074048Y-15554524D01*
X13064524Y-15573571D01*
X13064524Y-15621190D01*
X13074048Y-15640238D01*
X13083571Y-15649762D01*
X13102619Y-15659286D01*
X13140714Y-15659286D01*
X13159762Y-15649762D01*
X13169286Y-15640238D01*
X13178809Y-15621190D01*
X13350238Y-15602143D02*
X13350238Y-15735476D01*
X13302619Y-15525952D02*
X13255000Y-15668809D01*
X13378809Y-15668809D01*
X13445476Y-15535476D02*
X13445476Y-15573571D01*
X13521667Y-15535476D02*
X13521667Y-15573571D01*
X13816905Y-15811667D02*
X13807381Y-15802143D01*
X13788333Y-15773571D01*
X13778809Y-15754524D01*
X13769286Y-15725952D01*
X13759762Y-15678333D01*
X13759762Y-15640238D01*
X13769286Y-15592619D01*
X13778809Y-15564048D01*
X13788333Y-15545000D01*
X13807381Y-15516428D01*
X13816905Y-15506905D01*
X13978809Y-15602143D02*
X13978809Y-15735476D01*
X13931190Y-15525952D02*
X13883571Y-15668809D01*
X14007381Y-15668809D01*
X14235952Y-15735476D02*
X14235952Y-15535476D01*
X14321667Y-15735476D02*
X14321667Y-15630714D01*
X14312143Y-15611667D01*
X14293095Y-15602143D01*
X14264524Y-15602143D01*
X14245476Y-15611667D01*
X14235952Y-15621190D01*
X14445476Y-15735476D02*
X14426428Y-15725952D01*
X14416905Y-15716428D01*
X14407381Y-15697381D01*
X14407381Y-15640238D01*
X14416905Y-15621190D01*
X14426428Y-15611667D01*
X14445476Y-15602143D01*
X14474048Y-15602143D01*
X14493095Y-15611667D01*
X14502619Y-15621190D01*
X14512143Y-15640238D01*
X14512143Y-15697381D01*
X14502619Y-15716428D01*
X14493095Y-15725952D01*
X14474048Y-15735476D01*
X14445476Y-15735476D01*
X14626428Y-15735476D02*
X14607381Y-15725952D01*
X14597857Y-15706905D01*
X14597857Y-15535476D01*
X14778809Y-15725952D02*
X14759762Y-15735476D01*
X14721667Y-15735476D01*
X14702619Y-15725952D01*
X14693095Y-15706905D01*
X14693095Y-15630714D01*
X14702619Y-15611667D01*
X14721667Y-15602143D01*
X14759762Y-15602143D01*
X14778809Y-15611667D01*
X14788333Y-15630714D01*
X14788333Y-15649762D01*
X14693095Y-15668809D01*
X14864524Y-15725952D02*
X14883571Y-15735476D01*
X14921667Y-15735476D01*
X14940714Y-15725952D01*
X14950238Y-15706905D01*
X14950238Y-15697381D01*
X14940714Y-15678333D01*
X14921667Y-15668809D01*
X14893095Y-15668809D01*
X14874048Y-15659286D01*
X14864524Y-15640238D01*
X14864524Y-15630714D01*
X14874048Y-15611667D01*
X14893095Y-15602143D01*
X14921667Y-15602143D01*
X14940714Y-15611667D01*
X15016905Y-15811667D02*
X15026428Y-15802143D01*
X15045476Y-15773571D01*
X15055000Y-15754524D01*
X15064524Y-15725952D01*
X15074048Y-15678333D01*
X15074048Y-15640238D01*
X15064524Y-15592619D01*
X15055000Y-15564048D01*
X15045476Y-15545000D01*
X15026428Y-15516428D01*
X15016905Y-15506905D01*
X15378809Y-15811667D02*
X15369286Y-15802143D01*
X15350238Y-15773571D01*
X15340714Y-15754524D01*
X15331190Y-15725952D01*
X15321667Y-15678333D01*
X15321667Y-15640238D01*
X15331190Y-15592619D01*
X15340714Y-15564048D01*
X15350238Y-15545000D01*
X15369286Y-15516428D01*
X15378809Y-15506905D01*
X15455000Y-15602143D02*
X15455000Y-15735476D01*
X15455000Y-15621190D02*
X15464524Y-15611667D01*
X15483571Y-15602143D01*
X15512143Y-15602143D01*
X15531190Y-15611667D01*
X15540714Y-15630714D01*
X15540714Y-15735476D01*
X15664524Y-15735476D02*
X15645476Y-15725952D01*
X15635952Y-15716428D01*
X15626428Y-15697381D01*
X15626428Y-15640238D01*
X15635952Y-15621190D01*
X15645476Y-15611667D01*
X15664524Y-15602143D01*
X15693095Y-15602143D01*
X15712143Y-15611667D01*
X15721667Y-15621190D01*
X15731190Y-15640238D01*
X15731190Y-15697381D01*
X15721667Y-15716428D01*
X15712143Y-15725952D01*
X15693095Y-15735476D01*
X15664524Y-15735476D01*
X15788333Y-15602143D02*
X15864524Y-15602143D01*
X15816905Y-15535476D02*
X15816905Y-15706905D01*
X15826428Y-15725952D01*
X15845476Y-15735476D01*
X15864524Y-15735476D01*
X16083571Y-15602143D02*
X16083571Y-15802143D01*
X16083571Y-15611667D02*
X16102619Y-15602143D01*
X16140714Y-15602143D01*
X16159762Y-15611667D01*
X16169286Y-15621190D01*
X16178809Y-15640238D01*
X16178809Y-15697381D01*
X16169286Y-15716428D01*
X16159762Y-15725952D01*
X16140714Y-15735476D01*
X16102619Y-15735476D01*
X16083571Y-15725952D01*
X16293095Y-15735476D02*
X16274048Y-15725952D01*
X16264524Y-15706905D01*
X16264524Y-15535476D01*
X16455000Y-15735476D02*
X16455000Y-15630714D01*
X16445476Y-15611667D01*
X16426428Y-15602143D01*
X16388333Y-15602143D01*
X16369286Y-15611667D01*
X16455000Y-15725952D02*
X16435952Y-15735476D01*
X16388333Y-15735476D01*
X16369286Y-15725952D01*
X16359762Y-15706905D01*
X16359762Y-15687857D01*
X16369286Y-15668809D01*
X16388333Y-15659286D01*
X16435952Y-15659286D01*
X16455000Y-15649762D01*
X16521667Y-15602143D02*
X16597857Y-15602143D01*
X16550238Y-15535476D02*
X16550238Y-15706905D01*
X16559762Y-15725952D01*
X16578809Y-15735476D01*
X16597857Y-15735476D01*
X16740714Y-15725952D02*
X16721667Y-15735476D01*
X16683571Y-15735476D01*
X16664524Y-15725952D01*
X16655000Y-15706905D01*
X16655000Y-15630714D01*
X16664524Y-15611667D01*
X16683571Y-15602143D01*
X16721667Y-15602143D01*
X16740714Y-15611667D01*
X16750238Y-15630714D01*
X16750238Y-15649762D01*
X16655000Y-15668809D01*
X16921667Y-15735476D02*
X16921667Y-15535476D01*
X16921667Y-15725952D02*
X16902619Y-15735476D01*
X16864524Y-15735476D01*
X16845476Y-15725952D01*
X16835952Y-15716428D01*
X16826429Y-15697381D01*
X16826429Y-15640238D01*
X16835952Y-15621190D01*
X16845476Y-15611667D01*
X16864524Y-15602143D01*
X16902619Y-15602143D01*
X16921667Y-15611667D01*
X16997857Y-15811667D02*
X17007381Y-15802143D01*
X17026429Y-15773571D01*
X17035952Y-15754524D01*
X17045476Y-15725952D01*
X17055000Y-15678333D01*
X17055000Y-15640238D01*
X17045476Y-15592619D01*
X17035952Y-15564048D01*
X17026429Y-15545000D01*
X17007381Y-15516428D01*
X16997857Y-15506905D01*
D13*
X10245000Y-15909000D02*
G75*
G03*
X10245000Y-15909000I-80000J0D01*
G01*
D11*
X10607381Y-15999476D02*
X10493095Y-15999476D01*
X10550238Y-15999476D02*
X10550238Y-15799476D01*
X10531190Y-15828048D01*
X10512143Y-15847095D01*
X10493095Y-15856619D01*
X10693095Y-15980428D02*
X10702619Y-15989952D01*
X10693095Y-15999476D01*
X10683571Y-15989952D01*
X10693095Y-15980428D01*
X10693095Y-15999476D01*
X10874048Y-15799476D02*
X10835952Y-15799476D01*
X10816905Y-15809000D01*
X10807381Y-15818524D01*
X10788333Y-15847095D01*
X10778810Y-15885190D01*
X10778810Y-15961381D01*
X10788333Y-15980428D01*
X10797857Y-15989952D01*
X10816905Y-15999476D01*
X10855000Y-15999476D01*
X10874048Y-15989952D01*
X10883571Y-15980428D01*
X10893095Y-15961381D01*
X10893095Y-15913762D01*
X10883571Y-15894714D01*
X10874048Y-15885190D01*
X10855000Y-15875667D01*
X10816905Y-15875667D01*
X10797857Y-15885190D01*
X10788333Y-15894714D01*
X10778810Y-15913762D01*
X11016905Y-15799476D02*
X11035952Y-15799476D01*
X11055000Y-15809000D01*
X11064524Y-15818524D01*
X11074048Y-15837571D01*
X11083571Y-15875667D01*
X11083571Y-15923286D01*
X11074048Y-15961381D01*
X11064524Y-15980428D01*
X11055000Y-15989952D01*
X11035952Y-15999476D01*
X11016905Y-15999476D01*
X10997857Y-15989952D01*
X10988333Y-15980428D01*
X10978810Y-15961381D01*
X10969286Y-15923286D01*
X10969286Y-15875667D01*
X10978810Y-15837571D01*
X10988333Y-15818524D01*
X10997857Y-15809000D01*
X11016905Y-15799476D01*
X11207381Y-15799476D02*
X11226428Y-15799476D01*
X11245476Y-15809000D01*
X11255000Y-15818524D01*
X11264524Y-15837571D01*
X11274048Y-15875667D01*
X11274048Y-15923286D01*
X11264524Y-15961381D01*
X11255000Y-15980428D01*
X11245476Y-15989952D01*
X11226428Y-15999476D01*
X11207381Y-15999476D01*
X11188333Y-15989952D01*
X11178810Y-15980428D01*
X11169286Y-15961381D01*
X11159762Y-15923286D01*
X11159762Y-15875667D01*
X11169286Y-15837571D01*
X11178810Y-15818524D01*
X11188333Y-15809000D01*
X11207381Y-15799476D01*
X11359762Y-15999476D02*
X11359762Y-15866143D01*
X11359762Y-15885190D02*
X11369286Y-15875667D01*
X11388333Y-15866143D01*
X11416905Y-15866143D01*
X11435952Y-15875667D01*
X11445476Y-15894714D01*
X11445476Y-15999476D01*
X11445476Y-15894714D02*
X11455000Y-15875667D01*
X11474048Y-15866143D01*
X11502619Y-15866143D01*
X11521667Y-15875667D01*
X11531190Y-15894714D01*
X11531190Y-15999476D01*
X11626428Y-15999476D02*
X11626428Y-15866143D01*
X11626428Y-15885190D02*
X11635952Y-15875667D01*
X11655000Y-15866143D01*
X11683571Y-15866143D01*
X11702619Y-15875667D01*
X11712143Y-15894714D01*
X11712143Y-15999476D01*
X11712143Y-15894714D02*
X11721667Y-15875667D01*
X11740714Y-15866143D01*
X11769286Y-15866143D01*
X11788333Y-15875667D01*
X11797857Y-15894714D01*
X11797857Y-15999476D01*
X12188333Y-15789952D02*
X12016905Y-16047095D01*
X12445476Y-15799476D02*
X12464524Y-15799476D01*
X12483571Y-15809000D01*
X12493095Y-15818524D01*
X12502619Y-15837571D01*
X12512143Y-15875667D01*
X12512143Y-15923286D01*
X12502619Y-15961381D01*
X12493095Y-15980428D01*
X12483571Y-15989952D01*
X12464524Y-15999476D01*
X12445476Y-15999476D01*
X12426428Y-15989952D01*
X12416905Y-15980428D01*
X12407381Y-15961381D01*
X12397857Y-15923286D01*
X12397857Y-15875667D01*
X12407381Y-15837571D01*
X12416905Y-15818524D01*
X12426428Y-15809000D01*
X12445476Y-15799476D01*
X12597857Y-15980428D02*
X12607381Y-15989952D01*
X12597857Y-15999476D01*
X12588333Y-15989952D01*
X12597857Y-15980428D01*
X12597857Y-15999476D01*
X12731190Y-15799476D02*
X12750238Y-15799476D01*
X12769286Y-15809000D01*
X12778809Y-15818524D01*
X12788333Y-15837571D01*
X12797857Y-15875667D01*
X12797857Y-15923286D01*
X12788333Y-15961381D01*
X12778809Y-15980428D01*
X12769286Y-15989952D01*
X12750238Y-15999476D01*
X12731190Y-15999476D01*
X12712143Y-15989952D01*
X12702619Y-15980428D01*
X12693095Y-15961381D01*
X12683571Y-15923286D01*
X12683571Y-15875667D01*
X12693095Y-15837571D01*
X12702619Y-15818524D01*
X12712143Y-15809000D01*
X12731190Y-15799476D01*
X12969286Y-15799476D02*
X12931190Y-15799476D01*
X12912143Y-15809000D01*
X12902619Y-15818524D01*
X12883571Y-15847095D01*
X12874048Y-15885190D01*
X12874048Y-15961381D01*
X12883571Y-15980428D01*
X12893095Y-15989952D01*
X12912143Y-15999476D01*
X12950238Y-15999476D01*
X12969286Y-15989952D01*
X12978809Y-15980428D01*
X12988333Y-15961381D01*
X12988333Y-15913762D01*
X12978809Y-15894714D01*
X12969286Y-15885190D01*
X12950238Y-15875667D01*
X12912143Y-15875667D01*
X12893095Y-15885190D01*
X12883571Y-15894714D01*
X12874048Y-15913762D01*
X13055000Y-15799476D02*
X13178809Y-15799476D01*
X13112143Y-15875667D01*
X13140714Y-15875667D01*
X13159762Y-15885190D01*
X13169286Y-15894714D01*
X13178809Y-15913762D01*
X13178809Y-15961381D01*
X13169286Y-15980428D01*
X13159762Y-15989952D01*
X13140714Y-15999476D01*
X13083571Y-15999476D01*
X13064524Y-15989952D01*
X13055000Y-15980428D01*
X13302619Y-15799476D02*
X13321667Y-15799476D01*
X13340714Y-15809000D01*
X13350238Y-15818524D01*
X13359762Y-15837571D01*
X13369286Y-15875667D01*
X13369286Y-15923286D01*
X13359762Y-15961381D01*
X13350238Y-15980428D01*
X13340714Y-15989952D01*
X13321667Y-15999476D01*
X13302619Y-15999476D01*
X13283571Y-15989952D01*
X13274048Y-15980428D01*
X13264524Y-15961381D01*
X13255000Y-15923286D01*
X13255000Y-15875667D01*
X13264524Y-15837571D01*
X13274048Y-15818524D01*
X13283571Y-15809000D01*
X13302619Y-15799476D01*
X13445476Y-15799476D02*
X13445476Y-15837571D01*
X13521667Y-15799476D02*
X13521667Y-15837571D01*
X13816905Y-16075667D02*
X13807381Y-16066143D01*
X13788333Y-16037571D01*
X13778809Y-16018524D01*
X13769286Y-15989952D01*
X13759762Y-15942333D01*
X13759762Y-15904238D01*
X13769286Y-15856619D01*
X13778809Y-15828048D01*
X13788333Y-15809000D01*
X13807381Y-15780428D01*
X13816905Y-15770905D01*
X13883571Y-15818524D02*
X13893095Y-15809000D01*
X13912143Y-15799476D01*
X13959762Y-15799476D01*
X13978809Y-15809000D01*
X13988333Y-15818524D01*
X13997857Y-15837571D01*
X13997857Y-15856619D01*
X13988333Y-15885190D01*
X13874048Y-15999476D01*
X13997857Y-15999476D01*
X14235952Y-15999476D02*
X14235952Y-15799476D01*
X14321667Y-15999476D02*
X14321667Y-15894714D01*
X14312143Y-15875667D01*
X14293095Y-15866143D01*
X14264524Y-15866143D01*
X14245476Y-15875667D01*
X14235952Y-15885190D01*
X14445476Y-15999476D02*
X14426428Y-15989952D01*
X14416905Y-15980428D01*
X14407381Y-15961381D01*
X14407381Y-15904238D01*
X14416905Y-15885190D01*
X14426428Y-15875667D01*
X14445476Y-15866143D01*
X14474048Y-15866143D01*
X14493095Y-15875667D01*
X14502619Y-15885190D01*
X14512143Y-15904238D01*
X14512143Y-15961381D01*
X14502619Y-15980428D01*
X14493095Y-15989952D01*
X14474048Y-15999476D01*
X14445476Y-15999476D01*
X14626428Y-15999476D02*
X14607381Y-15989952D01*
X14597857Y-15970905D01*
X14597857Y-15799476D01*
X14778809Y-15989952D02*
X14759762Y-15999476D01*
X14721667Y-15999476D01*
X14702619Y-15989952D01*
X14693095Y-15970905D01*
X14693095Y-15894714D01*
X14702619Y-15875667D01*
X14721667Y-15866143D01*
X14759762Y-15866143D01*
X14778809Y-15875667D01*
X14788333Y-15894714D01*
X14788333Y-15913762D01*
X14693095Y-15932809D01*
X14864524Y-15989952D02*
X14883571Y-15999476D01*
X14921667Y-15999476D01*
X14940714Y-15989952D01*
X14950238Y-15970905D01*
X14950238Y-15961381D01*
X14940714Y-15942333D01*
X14921667Y-15932809D01*
X14893095Y-15932809D01*
X14874048Y-15923286D01*
X14864524Y-15904238D01*
X14864524Y-15894714D01*
X14874048Y-15875667D01*
X14893095Y-15866143D01*
X14921667Y-15866143D01*
X14940714Y-15875667D01*
X15016905Y-16075667D02*
X15026428Y-16066143D01*
X15045476Y-16037571D01*
X15055000Y-16018524D01*
X15064524Y-15989952D01*
X15074048Y-15942333D01*
X15074048Y-15904238D01*
X15064524Y-15856619D01*
X15055000Y-15828048D01*
X15045476Y-15809000D01*
X15026428Y-15780428D01*
X15016905Y-15770905D01*
X15378809Y-16075667D02*
X15369286Y-16066143D01*
X15350238Y-16037571D01*
X15340714Y-16018524D01*
X15331190Y-15989952D01*
X15321667Y-15942333D01*
X15321667Y-15904238D01*
X15331190Y-15856619D01*
X15340714Y-15828048D01*
X15350238Y-15809000D01*
X15369286Y-15780428D01*
X15378809Y-15770905D01*
X15455000Y-15866143D02*
X15455000Y-15999476D01*
X15455000Y-15885190D02*
X15464524Y-15875667D01*
X15483571Y-15866143D01*
X15512143Y-15866143D01*
X15531190Y-15875667D01*
X15540714Y-15894714D01*
X15540714Y-15999476D01*
X15664524Y-15999476D02*
X15645476Y-15989952D01*
X15635952Y-15980428D01*
X15626428Y-15961381D01*
X15626428Y-15904238D01*
X15635952Y-15885190D01*
X15645476Y-15875667D01*
X15664524Y-15866143D01*
X15693095Y-15866143D01*
X15712143Y-15875667D01*
X15721667Y-15885190D01*
X15731190Y-15904238D01*
X15731190Y-15961381D01*
X15721667Y-15980428D01*
X15712143Y-15989952D01*
X15693095Y-15999476D01*
X15664524Y-15999476D01*
X15788333Y-15866143D02*
X15864524Y-15866143D01*
X15816905Y-15799476D02*
X15816905Y-15970905D01*
X15826428Y-15989952D01*
X15845476Y-15999476D01*
X15864524Y-15999476D01*
X16083571Y-15866143D02*
X16083571Y-16066143D01*
X16083571Y-15875667D02*
X16102619Y-15866143D01*
X16140714Y-15866143D01*
X16159762Y-15875667D01*
X16169286Y-15885190D01*
X16178809Y-15904238D01*
X16178809Y-15961381D01*
X16169286Y-15980428D01*
X16159762Y-15989952D01*
X16140714Y-15999476D01*
X16102619Y-15999476D01*
X16083571Y-15989952D01*
X16293095Y-15999476D02*
X16274048Y-15989952D01*
X16264524Y-15970905D01*
X16264524Y-15799476D01*
X16455000Y-15999476D02*
X16455000Y-15894714D01*
X16445476Y-15875667D01*
X16426428Y-15866143D01*
X16388333Y-15866143D01*
X16369286Y-15875667D01*
X16455000Y-15989952D02*
X16435952Y-15999476D01*
X16388333Y-15999476D01*
X16369286Y-15989952D01*
X16359762Y-15970905D01*
X16359762Y-15951857D01*
X16369286Y-15932809D01*
X16388333Y-15923286D01*
X16435952Y-15923286D01*
X16455000Y-15913762D01*
X16521667Y-15866143D02*
X16597857Y-15866143D01*
X16550238Y-15799476D02*
X16550238Y-15970905D01*
X16559762Y-15989952D01*
X16578809Y-15999476D01*
X16597857Y-15999476D01*
X16740714Y-15989952D02*
X16721667Y-15999476D01*
X16683571Y-15999476D01*
X16664524Y-15989952D01*
X16655000Y-15970905D01*
X16655000Y-15894714D01*
X16664524Y-15875667D01*
X16683571Y-15866143D01*
X16721667Y-15866143D01*
X16740714Y-15875667D01*
X16750238Y-15894714D01*
X16750238Y-15913762D01*
X16655000Y-15932809D01*
X16921667Y-15999476D02*
X16921667Y-15799476D01*
X16921667Y-15989952D02*
X16902619Y-15999476D01*
X16864524Y-15999476D01*
X16845476Y-15989952D01*
X16835952Y-15980428D01*
X16826429Y-15961381D01*
X16826429Y-15904238D01*
X16835952Y-15885190D01*
X16845476Y-15875667D01*
X16864524Y-15866143D01*
X16902619Y-15866143D01*
X16921667Y-15875667D01*
X16997857Y-16075667D02*
X17007381Y-16066143D01*
X17026429Y-16037571D01*
X17035952Y-16018524D01*
X17045476Y-15989952D01*
X17055000Y-15942333D01*
X17055000Y-15904238D01*
X17045476Y-15856619D01*
X17035952Y-15828048D01*
X17026429Y-15809000D01*
X17007381Y-15780428D01*
X16997857Y-15770905D01*
X10145000Y-16089000D02*
X10145000Y-16289000D01*
X10045000Y-16189000D02*
X10245000Y-16189000D01*
X10483571Y-16079476D02*
X10607381Y-16079476D01*
X10540714Y-16155667D01*
X10569286Y-16155667D01*
X10588333Y-16165190D01*
X10597857Y-16174714D01*
X10607381Y-16193762D01*
X10607381Y-16241381D01*
X10597857Y-16260428D01*
X10588333Y-16269952D01*
X10569286Y-16279476D01*
X10512143Y-16279476D01*
X10493095Y-16269952D01*
X10483571Y-16260428D01*
X10693095Y-16260428D02*
X10702619Y-16269952D01*
X10693095Y-16279476D01*
X10683571Y-16269952D01*
X10693095Y-16260428D01*
X10693095Y-16279476D01*
X10778810Y-16098524D02*
X10788333Y-16089000D01*
X10807381Y-16079476D01*
X10855000Y-16079476D01*
X10874048Y-16089000D01*
X10883571Y-16098524D01*
X10893095Y-16117571D01*
X10893095Y-16136619D01*
X10883571Y-16165190D01*
X10769286Y-16279476D01*
X10893095Y-16279476D01*
X11016905Y-16079476D02*
X11035952Y-16079476D01*
X11055000Y-16089000D01*
X11064524Y-16098524D01*
X11074048Y-16117571D01*
X11083571Y-16155667D01*
X11083571Y-16203286D01*
X11074048Y-16241381D01*
X11064524Y-16260428D01*
X11055000Y-16269952D01*
X11035952Y-16279476D01*
X11016905Y-16279476D01*
X10997857Y-16269952D01*
X10988333Y-16260428D01*
X10978810Y-16241381D01*
X10969286Y-16203286D01*
X10969286Y-16155667D01*
X10978810Y-16117571D01*
X10988333Y-16098524D01*
X10997857Y-16089000D01*
X11016905Y-16079476D01*
X11207381Y-16079476D02*
X11226428Y-16079476D01*
X11245476Y-16089000D01*
X11255000Y-16098524D01*
X11264524Y-16117571D01*
X11274048Y-16155667D01*
X11274048Y-16203286D01*
X11264524Y-16241381D01*
X11255000Y-16260428D01*
X11245476Y-16269952D01*
X11226428Y-16279476D01*
X11207381Y-16279476D01*
X11188333Y-16269952D01*
X11178810Y-16260428D01*
X11169286Y-16241381D01*
X11159762Y-16203286D01*
X11159762Y-16155667D01*
X11169286Y-16117571D01*
X11178810Y-16098524D01*
X11188333Y-16089000D01*
X11207381Y-16079476D01*
X11359762Y-16279476D02*
X11359762Y-16146143D01*
X11359762Y-16165190D02*
X11369286Y-16155667D01*
X11388333Y-16146143D01*
X11416905Y-16146143D01*
X11435952Y-16155667D01*
X11445476Y-16174714D01*
X11445476Y-16279476D01*
X11445476Y-16174714D02*
X11455000Y-16155667D01*
X11474048Y-16146143D01*
X11502619Y-16146143D01*
X11521667Y-16155667D01*
X11531190Y-16174714D01*
X11531190Y-16279476D01*
X11626428Y-16279476D02*
X11626428Y-16146143D01*
X11626428Y-16165190D02*
X11635952Y-16155667D01*
X11655000Y-16146143D01*
X11683571Y-16146143D01*
X11702619Y-16155667D01*
X11712143Y-16174714D01*
X11712143Y-16279476D01*
X11712143Y-16174714D02*
X11721667Y-16155667D01*
X11740714Y-16146143D01*
X11769286Y-16146143D01*
X11788333Y-16155667D01*
X11797857Y-16174714D01*
X11797857Y-16279476D01*
X12188333Y-16069952D02*
X12016905Y-16327095D01*
X12445476Y-16079476D02*
X12464524Y-16079476D01*
X12483571Y-16089000D01*
X12493095Y-16098524D01*
X12502619Y-16117571D01*
X12512143Y-16155667D01*
X12512143Y-16203286D01*
X12502619Y-16241381D01*
X12493095Y-16260428D01*
X12483571Y-16269952D01*
X12464524Y-16279476D01*
X12445476Y-16279476D01*
X12426428Y-16269952D01*
X12416905Y-16260428D01*
X12407381Y-16241381D01*
X12397857Y-16203286D01*
X12397857Y-16155667D01*
X12407381Y-16117571D01*
X12416905Y-16098524D01*
X12426428Y-16089000D01*
X12445476Y-16079476D01*
X12597857Y-16260428D02*
X12607381Y-16269952D01*
X12597857Y-16279476D01*
X12588333Y-16269952D01*
X12597857Y-16260428D01*
X12597857Y-16279476D01*
X12797857Y-16279476D02*
X12683571Y-16279476D01*
X12740714Y-16279476D02*
X12740714Y-16079476D01*
X12721667Y-16108048D01*
X12702619Y-16127095D01*
X12683571Y-16136619D01*
X12874048Y-16098524D02*
X12883571Y-16089000D01*
X12902619Y-16079476D01*
X12950238Y-16079476D01*
X12969286Y-16089000D01*
X12978809Y-16098524D01*
X12988333Y-16117571D01*
X12988333Y-16136619D01*
X12978809Y-16165190D01*
X12864524Y-16279476D01*
X12988333Y-16279476D01*
X13159762Y-16079476D02*
X13121667Y-16079476D01*
X13102619Y-16089000D01*
X13093095Y-16098524D01*
X13074048Y-16127095D01*
X13064524Y-16165190D01*
X13064524Y-16241381D01*
X13074048Y-16260428D01*
X13083571Y-16269952D01*
X13102619Y-16279476D01*
X13140714Y-16279476D01*
X13159762Y-16269952D01*
X13169286Y-16260428D01*
X13178809Y-16241381D01*
X13178809Y-16193762D01*
X13169286Y-16174714D01*
X13159762Y-16165190D01*
X13140714Y-16155667D01*
X13102619Y-16155667D01*
X13083571Y-16165190D01*
X13074048Y-16174714D01*
X13064524Y-16193762D01*
X13302619Y-16079476D02*
X13321667Y-16079476D01*
X13340714Y-16089000D01*
X13350238Y-16098524D01*
X13359762Y-16117571D01*
X13369286Y-16155667D01*
X13369286Y-16203286D01*
X13359762Y-16241381D01*
X13350238Y-16260428D01*
X13340714Y-16269952D01*
X13321667Y-16279476D01*
X13302619Y-16279476D01*
X13283571Y-16269952D01*
X13274048Y-16260428D01*
X13264524Y-16241381D01*
X13255000Y-16203286D01*
X13255000Y-16155667D01*
X13264524Y-16117571D01*
X13274048Y-16098524D01*
X13283571Y-16089000D01*
X13302619Y-16079476D01*
X13445476Y-16079476D02*
X13445476Y-16117571D01*
X13521667Y-16079476D02*
X13521667Y-16117571D01*
X13816905Y-16355667D02*
X13807381Y-16346143D01*
X13788333Y-16317571D01*
X13778809Y-16298524D01*
X13769286Y-16269952D01*
X13759762Y-16222333D01*
X13759762Y-16184238D01*
X13769286Y-16136619D01*
X13778809Y-16108048D01*
X13788333Y-16089000D01*
X13807381Y-16060428D01*
X13816905Y-16050905D01*
X13978809Y-16146143D02*
X13978809Y-16279476D01*
X13931190Y-16069952D02*
X13883571Y-16212809D01*
X14007381Y-16212809D01*
X14235952Y-16279476D02*
X14235952Y-16079476D01*
X14321667Y-16279476D02*
X14321667Y-16174714D01*
X14312143Y-16155667D01*
X14293095Y-16146143D01*
X14264524Y-16146143D01*
X14245476Y-16155667D01*
X14235952Y-16165190D01*
X14445476Y-16279476D02*
X14426428Y-16269952D01*
X14416905Y-16260428D01*
X14407381Y-16241381D01*
X14407381Y-16184238D01*
X14416905Y-16165190D01*
X14426428Y-16155667D01*
X14445476Y-16146143D01*
X14474048Y-16146143D01*
X14493095Y-16155667D01*
X14502619Y-16165190D01*
X14512143Y-16184238D01*
X14512143Y-16241381D01*
X14502619Y-16260428D01*
X14493095Y-16269952D01*
X14474048Y-16279476D01*
X14445476Y-16279476D01*
X14626428Y-16279476D02*
X14607381Y-16269952D01*
X14597857Y-16250905D01*
X14597857Y-16079476D01*
X14778809Y-16269952D02*
X14759762Y-16279476D01*
X14721667Y-16279476D01*
X14702619Y-16269952D01*
X14693095Y-16250905D01*
X14693095Y-16174714D01*
X14702619Y-16155667D01*
X14721667Y-16146143D01*
X14759762Y-16146143D01*
X14778809Y-16155667D01*
X14788333Y-16174714D01*
X14788333Y-16193762D01*
X14693095Y-16212809D01*
X14864524Y-16269952D02*
X14883571Y-16279476D01*
X14921667Y-16279476D01*
X14940714Y-16269952D01*
X14950238Y-16250905D01*
X14950238Y-16241381D01*
X14940714Y-16222333D01*
X14921667Y-16212809D01*
X14893095Y-16212809D01*
X14874048Y-16203286D01*
X14864524Y-16184238D01*
X14864524Y-16174714D01*
X14874048Y-16155667D01*
X14893095Y-16146143D01*
X14921667Y-16146143D01*
X14940714Y-16155667D01*
X15016905Y-16355667D02*
X15026428Y-16346143D01*
X15045476Y-16317571D01*
X15055000Y-16298524D01*
X15064524Y-16269952D01*
X15074048Y-16222333D01*
X15074048Y-16184238D01*
X15064524Y-16136619D01*
X15055000Y-16108048D01*
X15045476Y-16089000D01*
X15026428Y-16060428D01*
X15016905Y-16050905D01*
X15378809Y-16355667D02*
X15369286Y-16346143D01*
X15350238Y-16317571D01*
X15340714Y-16298524D01*
X15331190Y-16269952D01*
X15321667Y-16222333D01*
X15321667Y-16184238D01*
X15331190Y-16136619D01*
X15340714Y-16108048D01*
X15350238Y-16089000D01*
X15369286Y-16060428D01*
X15378809Y-16050905D01*
X15455000Y-16146143D02*
X15455000Y-16279476D01*
X15455000Y-16165190D02*
X15464524Y-16155667D01*
X15483571Y-16146143D01*
X15512143Y-16146143D01*
X15531190Y-16155667D01*
X15540714Y-16174714D01*
X15540714Y-16279476D01*
X15664524Y-16279476D02*
X15645476Y-16269952D01*
X15635952Y-16260428D01*
X15626428Y-16241381D01*
X15626428Y-16184238D01*
X15635952Y-16165190D01*
X15645476Y-16155667D01*
X15664524Y-16146143D01*
X15693095Y-16146143D01*
X15712143Y-16155667D01*
X15721667Y-16165190D01*
X15731190Y-16184238D01*
X15731190Y-16241381D01*
X15721667Y-16260428D01*
X15712143Y-16269952D01*
X15693095Y-16279476D01*
X15664524Y-16279476D01*
X15788333Y-16146143D02*
X15864524Y-16146143D01*
X15816905Y-16079476D02*
X15816905Y-16250905D01*
X15826428Y-16269952D01*
X15845476Y-16279476D01*
X15864524Y-16279476D01*
X16083571Y-16146143D02*
X16083571Y-16346143D01*
X16083571Y-16155667D02*
X16102619Y-16146143D01*
X16140714Y-16146143D01*
X16159762Y-16155667D01*
X16169286Y-16165190D01*
X16178809Y-16184238D01*
X16178809Y-16241381D01*
X16169286Y-16260428D01*
X16159762Y-16269952D01*
X16140714Y-16279476D01*
X16102619Y-16279476D01*
X16083571Y-16269952D01*
X16293095Y-16279476D02*
X16274048Y-16269952D01*
X16264524Y-16250905D01*
X16264524Y-16079476D01*
X16455000Y-16279476D02*
X16455000Y-16174714D01*
X16445476Y-16155667D01*
X16426428Y-16146143D01*
X16388333Y-16146143D01*
X16369286Y-16155667D01*
X16455000Y-16269952D02*
X16435952Y-16279476D01*
X16388333Y-16279476D01*
X16369286Y-16269952D01*
X16359762Y-16250905D01*
X16359762Y-16231857D01*
X16369286Y-16212809D01*
X16388333Y-16203286D01*
X16435952Y-16203286D01*
X16455000Y-16193762D01*
X16521667Y-16146143D02*
X16597857Y-16146143D01*
X16550238Y-16079476D02*
X16550238Y-16250905D01*
X16559762Y-16269952D01*
X16578809Y-16279476D01*
X16597857Y-16279476D01*
X16740714Y-16269952D02*
X16721667Y-16279476D01*
X16683571Y-16279476D01*
X16664524Y-16269952D01*
X16655000Y-16250905D01*
X16655000Y-16174714D01*
X16664524Y-16155667D01*
X16683571Y-16146143D01*
X16721667Y-16146143D01*
X16740714Y-16155667D01*
X16750238Y-16174714D01*
X16750238Y-16193762D01*
X16655000Y-16212809D01*
X16921667Y-16279476D02*
X16921667Y-16079476D01*
X16921667Y-16269952D02*
X16902619Y-16279476D01*
X16864524Y-16279476D01*
X16845476Y-16269952D01*
X16835952Y-16260428D01*
X16826429Y-16241381D01*
X16826429Y-16184238D01*
X16835952Y-16165190D01*
X16845476Y-16155667D01*
X16864524Y-16146143D01*
X16902619Y-16146143D01*
X16921667Y-16155667D01*
X16997857Y-16355667D02*
X17007381Y-16346143D01*
X17026429Y-16317571D01*
X17035952Y-16298524D01*
X17045476Y-16269952D01*
X17055000Y-16222333D01*
X17055000Y-16184238D01*
X17045476Y-16136619D01*
X17035952Y-16108048D01*
X17026429Y-16089000D01*
X17007381Y-16060428D01*
X16997857Y-16050905D01*
M02*
