G04 #@! TF.GenerationSoftware,KiCad,Pcbnew,7.0.5-4d25ed1034~172~ubuntu22.04.1*
G04 #@! TF.CreationDate,2023-05-31T13:41:02+02:00*
G04 #@! TF.ProjectId,Drawer_Controller,44726177-6572-45f4-936f-6e74726f6c6c,rev?*
G04 #@! TF.SameCoordinates,Original*
G04 #@! TF.FileFunction,Profile,NP*
%FSLAX46Y46*%
G04 Gerber Fmt 4.6, Leading zero omitted, Abs format (unit mm)*
G04 Created by KiCad (PCBNEW 7.0.5-4d25ed1034~172~ubuntu22.04.1) date 2023-05-31 13:41:02*
%MOMM*%
%LPD*%
G01*
G04 APERTURE LIST*
G04 #@! TA.AperFunction,Profile*
%ADD10C,0.100000*%
G04 #@! TD*
G04 APERTURE END LIST*
D10*
X185500000Y-97000000D02*
G75*
G03*
X183000000Y-99500000I0J-2500000D01*
G01*
X178000000Y-99500000D02*
X183000000Y-99500000D01*
X178000000Y-99500000D02*
X173000000Y-99500000D01*
X122000000Y-97000000D02*
G75*
G03*
X118000000Y-101000000I0J-4000000D01*
G01*
X118000000Y-114000000D02*
X118000000Y-101000000D01*
X118000000Y-145000000D02*
X118000000Y-132000000D01*
X269000000Y-149000000D02*
G75*
G03*
X273000000Y-145000000I0J4000000D01*
G01*
X133000000Y-126000000D02*
X133000000Y-120000000D01*
X170500000Y-97000000D02*
X172500000Y-97000000D01*
X178000000Y-146500000D02*
X183000000Y-146500000D01*
X173000000Y-99500000D02*
X173000000Y-97500000D01*
X122000000Y-128000000D02*
G75*
G03*
X118000000Y-132000000I0J-4000000D01*
G01*
X185500000Y-149000000D02*
X269000000Y-149000000D01*
X170500000Y-97000000D02*
X122000000Y-97000000D01*
X118000000Y-114000000D02*
G75*
G03*
X122000000Y-118000000I4000000J0D01*
G01*
X131000000Y-118000000D02*
X122000000Y-118000000D01*
X131000000Y-128000000D02*
G75*
G03*
X133000000Y-126000000I0J2000000D01*
G01*
X122000000Y-128000000D02*
X131000000Y-128000000D01*
X170500000Y-149000000D02*
G75*
G03*
X173000000Y-146500000I0J2500000D01*
G01*
X273000000Y-101000000D02*
G75*
G03*
X269000000Y-97000000I-4000000J0D01*
G01*
X173000000Y-97500000D02*
G75*
G03*
X172500000Y-97000000I-500000J0D01*
G01*
X170500000Y-149000000D02*
X122000000Y-149000000D01*
X273000000Y-145000000D02*
X273000000Y-101000000D01*
X118000000Y-145000000D02*
G75*
G03*
X122000000Y-149000000I4000000J0D01*
G01*
X178000000Y-146500000D02*
X173000000Y-146500000D01*
X183000000Y-146500000D02*
G75*
G03*
X185500000Y-149000000I2500000J0D01*
G01*
X133000000Y-120000000D02*
G75*
G03*
X131000000Y-118000000I-2000000J0D01*
G01*
X185500000Y-97000000D02*
X269000000Y-97000000D01*
M02*
