M48
; DRILL file {KiCad 7.0.5-4d25ed1034~172~ubuntu22.04.1} date Mi 31 Mai 2023 11:26:35 CEST
; FORMAT={-:-/ absolute / metric / decimal}
; #@! TF.CreationDate,2023-05-31T11:26:35+02:00
; #@! TF.GenerationSoftware,Kicad,Pcbnew,7.0.5-4d25ed1034~172~ubuntu22.04.1
; #@! TF.FileFunction,Plated,1,4,PTH
FMAT,2
METRIC
; #@! TA.AperFunction,Plated,PTH,ComponentDrill
T1C0.200
; #@! TA.AperFunction,Plated,PTH,ViaDrill
T2C0.300
; #@! TA.AperFunction,Plated,PTH,ComponentDrill
T3C0.600
; #@! TA.AperFunction,Plated,PTH,ComponentDrill
T4C0.850
; #@! TA.AperFunction,Plated,PTH,ComponentDrill
T5C0.900
; #@! TA.AperFunction,Plated,PTH,ComponentDrill
T6C1.000
; #@! TA.AperFunction,Plated,PTH,ComponentDrill
T7C1.020
; #@! TA.AperFunction,Plated,PTH,ComponentDrill
T8C1.100
%
G90
G05
T1
X156.45Y-111.9
X156.45Y-113.3
X157.15Y-111.2
X157.15Y-112.6
X157.15Y-114.0
X157.85Y-111.9
X157.85Y-113.3
X158.55Y-111.2
X158.55Y-112.6
X158.55Y-114.0
X159.25Y-111.9
X159.25Y-113.3
X204.95Y-142.188
X204.95Y-143.487
X204.95Y-144.787
X204.95Y-146.088
X206.25Y-142.188
X206.25Y-143.487
X206.25Y-144.787
X206.25Y-146.088
T2
X124.1Y-110.95
X125.35Y-104.95
X125.4Y-107.3
X126.1Y-110.55
X127.05Y-111.75
X127.1Y-107.65
X127.4Y-112.95
X127.45Y-110.326
X127.65Y-115.35
X127.763Y-114.559
X127.8Y-108.8
X127.8Y-109.6
X128.352Y-108.222
X128.45Y-147.5
X128.5Y-99.3
X128.5Y-129.55
X128.567Y-98.428
X129.775Y-107.85
X129.775Y-110.3
X130.65Y-107.95
X130.65Y-110.45
X130.9Y-147.45
X131.1Y-129.6
X131.2Y-99.15
X131.769Y-106.161
X131.9Y-106.95
X132.05Y-114.5
X132.924Y-114.5
X133.33Y-113.01
X133.5Y-110.7
X133.5Y-129.65
X133.5Y-147.45
X133.55Y-108.2
X134.087Y-112.753
X134.8Y-104.075
X134.9Y-116.95
X135.8Y-103.924
X136.05Y-108.2
X136.1Y-110.75
X136.131Y-101.301
X136.15Y-102.1
X136.75Y-116.0
X137.1Y-113.45
X137.65Y-112.8
X138.05Y-98.35
X138.146Y-109.65
X138.149Y-110.449
X138.15Y-108.75
X138.45Y-106.325
X139.05Y-135.95
X139.05Y-136.95
X139.05Y-140.0
X139.1Y-107.05
X139.175Y-108.825
X139.6Y-103.8
X140.6Y-103.8
X140.651Y-109.888
X141.35Y-109.5
X141.6Y-114.25
X142.05Y-105.025
X142.15Y-147.65
X142.9Y-140.1
X142.95Y-135.95
X142.95Y-137.0
X143.125Y-142.8
X143.25Y-148.3
X143.3Y-134.05
X144.083Y-117.917
X144.35Y-147.65
X144.75Y-99.05
X144.9Y-117.7
X144.95Y-114.0
X144.95Y-114.8
X145.05Y-134.025
X145.05Y-128.15
X145.129Y-123.34
X145.15Y-142.975
X145.225Y-110.545
X145.3Y-137.7
X145.3Y-139.4
X145.791Y-140.031
X145.831Y-137.102
X145.85Y-128.15
X145.89Y-109.9
X145.9Y-123.55
X146.9Y-108.55
X147.54Y-109.03
X148.05Y-103.975
X148.35Y-110.65
X149.345Y-119.089
X149.363Y-118.289
X149.4Y-104.4
X149.972Y-130.369
X150.7Y-130.7
X151.4Y-139.6
X151.837Y-118.289
X152.5Y-136.8
X152.5Y-142.2
X152.51Y-118.721
X152.7Y-122.6
X152.742Y-121.142
X152.8Y-120.25
X153.6Y-139.6
X153.7Y-123.9
X154.467Y-140.615
X154.9Y-123.95
X155.25Y-140.1
X155.75Y-124.0
X155.792Y-119.255
X156.25Y-118.6
X156.25Y-144.8
X156.25Y-145.7
X156.25Y-146.65
X156.3Y-143.9
X156.308Y-147.531
X157.132Y-146.7
X157.15Y-144.7
X157.321Y-136.689
X157.45Y-135.9
X158.015Y-119.681
X158.275Y-118.925
X158.4Y-135.05
X158.568Y-134.268
X158.7Y-137.389
X158.7Y-139.55
X159.4Y-137.9
X159.4Y-139.1
X159.9Y-118.93
X160.15Y-108.7
X160.166Y-111.85
X160.598Y-118.539
X160.7Y-111.2
X160.7Y-131.35
X160.888Y-108.392
X161.15Y-133.8
X161.358Y-141.592
X161.4Y-120.1
X161.4Y-127.4
X162.0Y-126.2
X162.068Y-119.66
X162.529Y-125.54
X162.95Y-135.4
X163.3Y-125.75
X163.928Y-113.496
X163.98Y-135.419
X164.0Y-112.7
X164.1Y-125.75
X164.2Y-134.65
X164.45Y-110.05
X164.72Y-125.246
X164.856Y-109.361
X164.974Y-134.45
X165.971Y-108.695
X166.8Y-108.7
X166.9Y-104.9
X166.975Y-135.375
X167.0Y-125.9
X168.0Y-126.4
X168.1Y-104.0
X168.3Y-127.8
X168.799Y-128.424
X169.2Y-113.8
X169.2Y-116.3
X169.3Y-139.7
X169.306Y-122.094
X169.35Y-112.947
X169.368Y-117.082
X169.4Y-121.3
X170.0Y-139.0
X170.493Y-112.266
X170.55Y-107.35
X170.65Y-109.2
X170.65Y-113.05
X170.961Y-146.501
X171.3Y-111.315
X171.35Y-147.2
X172.083Y-110.067
X172.565Y-103.417
X172.6Y-122.6
X172.635Y-120.265
X172.674Y-104.224
X172.9Y-110.05
X173.176Y-116.756
X173.2Y-119.7
X173.239Y-115.959
X173.35Y-144.175
X173.65Y-105.6
X173.8Y-144.85
X173.83Y-104.735
X174.1Y-118.85
X174.2Y-119.8
X174.479Y-114.213
X174.623Y-113.427
X175.123Y-108.963
X175.2Y-106.7
X175.205Y-116.19
X175.216Y-108.129
X175.3Y-114.25
X175.4Y-133.15
X175.451Y-115.429
X175.5Y-113.35
X175.55Y-121.84
X175.55Y-122.639
X175.65Y-112.35
X175.65Y-120.2
X175.703Y-119.402
X175.75Y-107.464
X176.019Y-132.645
X176.034Y-106.658
X176.05Y-117.25
X176.1Y-131.408
X176.252Y-108.087
X176.4Y-102.1
X176.5Y-103.436
X176.55Y-130.119
X176.577Y-132.072
X176.65Y-116.7
X176.739Y-127.763
X176.75Y-130.9
X176.8Y-106.2
X176.9Y-105.4
X176.944Y-102.771
X177.05Y-132.8
X177.153Y-118.52
X177.246Y-102.088
X177.32Y-131.461
X177.35Y-129.913
X177.411Y-128.389
X177.414Y-127.335
X177.5Y-120.4
X177.5Y-121.25
X178.1Y-130.261
X178.4Y-128.559
X178.4Y-143.1
X178.78Y-113.045
X179.15Y-115.5
X179.2Y-116.4
X179.2Y-129.011
X179.5Y-120.7
X179.6Y-114.631
X179.8Y-100.1
X179.8Y-103.7
X179.848Y-113.833
X179.9Y-115.81
X181.0Y-106.85
X181.05Y-110.4
X181.05Y-111.15
X181.1Y-136.4
X181.172Y-109.602
X181.3Y-134.5
X181.542Y-127.558
X181.733Y-109.033
X181.75Y-112.65
X182.107Y-126.948
X182.211Y-104.018
X182.218Y-100.017
X182.275Y-108.428
X182.3Y-102.07
X182.381Y-112.159
X182.6Y-113.6
X182.65Y-130.7
X182.75Y-120.0
X182.85Y-131.9
X183.004Y-108.063
X183.007Y-106.869
X183.1Y-112.8
X183.122Y-102.024
X183.381Y-130.375
X183.425Y-120.474
X183.5Y-133.25
X183.608Y-107.458
X183.641Y-132.013
X183.7Y-128.197
X183.95Y-115.75
X184.0Y-124.95
X184.242Y-133.547
X184.4Y-127.6
X185.3Y-124.95
X186.275Y-111.125
X186.3Y-112.6
X186.433Y-104.633
X186.85Y-117.15
X186.95Y-120.474
X186.95Y-121.5
X186.998Y-104.068
X187.117Y-111.117
X187.55Y-112.6
X187.6Y-119.8
X187.7Y-121.9
X187.75Y-133.3
X187.759Y-134.448
X188.0Y-135.21
X188.159Y-121.387
X188.75Y-112.6
X188.85Y-133.375
X188.875Y-132.45
X188.95Y-121.5
X189.6Y-122.15
X190.225Y-134.55
X190.699Y-100.374
X190.85Y-98.65
X190.85Y-122.1
X190.9Y-99.5
X191.55Y-139.925
X191.65Y-121.9
X191.703Y-98.577
X192.0Y-144.45
X192.25Y-117.1
X192.3Y-145.3
X192.302Y-104.225
X192.45Y-131.7
X192.6Y-100.7
X192.984Y-103.42
X193.09Y-104.36
X193.138Y-100.108
X193.225Y-140.525
X193.5Y-145.55
X193.75Y-99.5
X193.75Y-103.189
X193.95Y-139.975
X194.0Y-115.95
X194.297Y-115.208
X194.378Y-98.821
X195.25Y-124.95
X195.475Y-140.55
X196.5Y-124.95
X196.55Y-139.925
X196.625Y-129.825
X197.475Y-129.8
X197.5Y-112.6
X197.75Y-117.2
X197.975Y-140.55
X198.75Y-126.775
X199.1Y-139.925
X199.2Y-119.0
X199.2Y-119.8
X199.2Y-123.15
X199.888Y-123.558
X200.295Y-146.09
X200.5Y-146.9
X200.625Y-140.75
X202.075Y-141.375
X202.4Y-124.9
X202.55Y-116.35
X202.85Y-112.6
X203.4Y-141.35
X203.65Y-124.9
X204.7Y-116.9
X205.35Y-112.55
X206.6Y-119.85
X207.304Y-120.474
X207.85Y-124.95
X209.1Y-147.05
X209.15Y-124.95
X210.125Y-144.075
X210.272Y-144.963
X210.3Y-116.9
X212.05Y-119.8
X212.765Y-120.158
X213.3Y-142.85
X213.4Y-124.95
X214.1Y-112.55
X214.225Y-144.05
X214.65Y-124.95
X214.95Y-114.0
X215.9Y-116.95
X216.2Y-134.15
X216.2Y-134.95
X217.698Y-128.343
X217.8Y-127.55
X217.9Y-129.4
X219.1Y-134.2
X219.585Y-134.845
X219.9Y-123.1
X219.9Y-126.7
X220.1Y-141.9
X220.7Y-134.9
X220.749Y-133.741
X220.75Y-127.15
X220.8Y-129.376
X220.8Y-130.175
X220.9Y-132.424
X221.0Y-125.0
X221.345Y-133.145
X221.664Y-127.94
X221.8Y-135.0
X222.35Y-128.35
X222.45Y-104.25
X222.467Y-103.433
X222.5Y-134.3
X222.9Y-140.7
X222.9Y-143.1
X223.0Y-129.5
X223.0Y-130.4
X223.0Y-131.3
X223.0Y-132.2
X223.449Y-134.577
X223.5Y-136.95
X223.706Y-135.392
X223.9Y-129.5
X223.9Y-130.4
X223.9Y-131.3
X223.9Y-132.2
X224.292Y-136.811
X224.8Y-129.5
X224.8Y-130.4
X224.8Y-131.3
X224.8Y-132.2
X224.828Y-134.833
X225.45Y-109.15
X225.6Y-129.5
X225.6Y-130.4
X225.6Y-131.3
X225.6Y-132.2
X225.7Y-141.9
X225.761Y-134.94
X225.889Y-134.151
X226.247Y-109.211
X226.3Y-128.35
X226.439Y-133.57
X226.55Y-139.4
X226.839Y-132.845
X226.991Y-127.947
X227.225Y-133.545
X227.417Y-139.416
X227.451Y-140.215
X227.7Y-127.15
X227.75Y-124.95
X227.866Y-131.704
X228.651Y-131.858
X228.711Y-129.253
X228.9Y-123.1
X228.9Y-126.7
X229.15Y-135.3
X229.25Y-128.6
X229.557Y-134.398
X229.615Y-133.439
X229.946Y-135.372
X230.3Y-130.4
X230.45Y-108.75
X231.3Y-108.65
X232.6Y-118.4
X232.6Y-124.9
X232.95Y-134.25
X233.189Y-119.131
X234.75Y-141.1
X234.75Y-141.9
X234.75Y-142.65
X234.9Y-109.25
X234.95Y-127.45
X235.5Y-109.8
X235.696Y-127.163
X236.6Y-103.611
X237.3Y-104.25
X237.6Y-129.9
X237.752Y-127.368
X238.317Y-127.933
X238.4Y-135.1
X239.25Y-134.975
X239.4Y-126.7
X239.5Y-123.1
X240.066Y-134.868
X240.13Y-129.667
X240.4Y-127.35
X240.5Y-124.9
X240.5Y-130.375
X240.513Y-133.434
X240.645Y-132.645
X240.858Y-134.975
X241.21Y-137.444
X241.293Y-128.177
X241.756Y-134.638
X242.0Y-128.55
X242.0Y-137.567
X242.7Y-129.7
X242.7Y-130.6
X242.7Y-131.5
X242.7Y-132.4
X243.1Y-135.3
X243.268Y-134.518
X243.6Y-129.7
X243.6Y-130.6
X243.6Y-131.5
X243.6Y-132.4
X243.9Y-141.9
X244.5Y-129.7
X244.5Y-130.6
X244.5Y-131.5
X244.5Y-132.4
X244.589Y-135.286
X245.0Y-134.6
X245.3Y-129.7
X245.3Y-130.6
X245.3Y-131.5
X245.3Y-132.4
X245.758Y-134.347
X246.0Y-128.55
X246.135Y-133.598
X246.681Y-128.131
X246.7Y-140.7
X246.7Y-143.1
X246.734Y-133.07
X246.911Y-133.849
X247.416Y-127.084
X247.49Y-131.842
X247.6Y-124.9
X248.3Y-131.841
X248.312Y-134.963
X248.4Y-129.6
X248.7Y-123.1
X248.7Y-126.7
X248.876Y-130.282
X249.087Y-135.161
X249.2Y-131.675
X249.265Y-129.583
X249.492Y-136.835
X249.5Y-141.9
X249.51Y-130.939
X249.85Y-137.55
X250.7Y-135.1
X251.913Y-130.263
X252.7Y-134.6
X252.775Y-129.9
X253.581Y-104.9
X253.6Y-133.3
X254.1Y-106.8
X255.22Y-139.726
X255.3Y-137.6
X255.6Y-104.1
X255.6Y-114.5
X255.915Y-115.235
X256.0Y-128.2
X256.1Y-139.9
X256.3Y-103.55
X256.5Y-113.2
X256.5Y-119.4
X257.3Y-103.5
X257.3Y-129.1
X257.3Y-135.1
X257.4Y-119.5
X257.55Y-110.0
X257.611Y-109.203
X259.35Y-131.05
X260.135Y-131.2
X261.6Y-130.15
X262.351Y-129.877
X262.5Y-120.6
X262.5Y-123.4
X263.7Y-120.3
X263.7Y-123.1
X265.4Y-114.5
X266.205Y-114.245
X270.1Y-129.95
X270.9Y-129.95
T4
X123.0Y-107.0
X123.0Y-112.0
T5
X266.05Y-118.5
X266.05Y-120.5
X266.05Y-125.5
X266.05Y-127.5
T6
X129.7Y-112.06
X129.7Y-114.6
X161.76Y-145.3
X164.3Y-145.3
X166.84Y-145.3
X171.0Y-99.0
X171.0Y-101.54
X171.0Y-104.08
T7
X259.68Y-105.0
X259.68Y-108.0
X259.68Y-111.0
X259.68Y-135.0
X259.68Y-138.0
X259.68Y-141.0
X262.68Y-105.0
X262.68Y-108.0
X262.68Y-111.0
X262.68Y-135.0
X262.68Y-138.0
X262.68Y-141.0
T8
X148.08Y-120.46
X148.08Y-123.0
X148.08Y-125.54
T3
X120.65Y-106.0G85X119.95Y-106.0
G05
X120.65Y-113.0G85X119.95Y-113.0
G05
T0
M30
