G04 #@! TF.GenerationSoftware,KiCad,Pcbnew,7.0.5-4d25ed1034~172~ubuntu22.04.1*
G04 #@! TF.CreationDate,2023-05-31T13:41:02+02:00*
G04 #@! TF.ProjectId,Drawer_Controller,44726177-6572-45f4-936f-6e74726f6c6c,rev?*
G04 #@! TF.SameCoordinates,Original*
G04 #@! TF.FileFunction,Copper,L4,Bot*
G04 #@! TF.FilePolarity,Positive*
%FSLAX46Y46*%
G04 Gerber Fmt 4.6, Leading zero omitted, Abs format (unit mm)*
G04 Created by KiCad (PCBNEW 7.0.5-4d25ed1034~172~ubuntu22.04.1) date 2023-05-31 13:41:02*
%MOMM*%
%LPD*%
G01*
G04 APERTURE LIST*
G04 #@! TA.AperFunction,ComponentPad*
%ADD10C,0.300000*%
G04 #@! TD*
G04 #@! TA.AperFunction,ComponentPad*
%ADD11R,1.650000X1.650000*%
G04 #@! TD*
G04 #@! TA.AperFunction,ComponentPad*
%ADD12C,1.650000*%
G04 #@! TD*
G04 #@! TA.AperFunction,ComponentPad*
%ADD13R,1.700000X1.700000*%
G04 #@! TD*
G04 #@! TA.AperFunction,ComponentPad*
%ADD14O,1.700000X1.700000*%
G04 #@! TD*
G04 #@! TA.AperFunction,ComponentPad*
%ADD15R,1.520000X1.520000*%
G04 #@! TD*
G04 #@! TA.AperFunction,ComponentPad*
%ADD16C,1.520000*%
G04 #@! TD*
G04 #@! TA.AperFunction,ComponentPad*
%ADD17R,1.350000X1.350000*%
G04 #@! TD*
G04 #@! TA.AperFunction,ComponentPad*
%ADD18C,1.350000*%
G04 #@! TD*
G04 #@! TA.AperFunction,ComponentPad*
%ADD19C,1.450000*%
G04 #@! TD*
G04 #@! TA.AperFunction,ComponentPad*
%ADD20O,1.900000X0.950000*%
G04 #@! TD*
G04 #@! TA.AperFunction,ViaPad*
%ADD21C,0.600000*%
G04 #@! TD*
G04 #@! TA.AperFunction,Conductor*
%ADD22C,0.750000*%
G04 #@! TD*
G04 #@! TA.AperFunction,Conductor*
%ADD23C,0.180000*%
G04 #@! TD*
G04 #@! TA.AperFunction,Conductor*
%ADD24C,1.000000*%
G04 #@! TD*
G04 #@! TA.AperFunction,Conductor*
%ADD25C,0.350000*%
G04 #@! TD*
G04 #@! TA.AperFunction,Conductor*
%ADD26C,0.500000*%
G04 #@! TD*
G04 #@! TA.AperFunction,Conductor*
%ADD27C,0.250000*%
G04 #@! TD*
G04 #@! TA.AperFunction,Conductor*
%ADD28C,0.200000*%
G04 #@! TD*
G04 #@! TA.AperFunction,Conductor*
%ADD29C,0.153000*%
G04 #@! TD*
G04 APERTURE END LIST*
D10*
X204950000Y-142187500D03*
X206250000Y-142187500D03*
X204950000Y-143487500D03*
X206250000Y-143487500D03*
X204950000Y-144787500D03*
X206250000Y-144787500D03*
X204950000Y-146087500D03*
X206250000Y-146087500D03*
D11*
X148080000Y-120460000D03*
D12*
X148080000Y-123000000D03*
X148080000Y-125540000D03*
D13*
X161760000Y-145300000D03*
D14*
X164300000Y-145300000D03*
X166840000Y-145300000D03*
D10*
X157150000Y-111200000D03*
X158550000Y-111200000D03*
X156450000Y-111900000D03*
X157850000Y-111900000D03*
X159250000Y-111900000D03*
X157150000Y-112600000D03*
X158550000Y-112600000D03*
X156450000Y-113300000D03*
X157850000Y-113300000D03*
X159250000Y-113300000D03*
X157150000Y-114000000D03*
X158550000Y-114000000D03*
D15*
X262680000Y-105000000D03*
D16*
X262680000Y-108000000D03*
X262680000Y-111000000D03*
X259680000Y-105000000D03*
X259680000Y-108000000D03*
X259680000Y-111000000D03*
D13*
X171000000Y-104080000D03*
D14*
X171000000Y-101540000D03*
X171000000Y-99000000D03*
D13*
X129700000Y-114600000D03*
D14*
X129700000Y-112060000D03*
D17*
X266050000Y-120500000D03*
D18*
X266050000Y-118500000D03*
D15*
X262680000Y-135000000D03*
D16*
X262680000Y-138000000D03*
X262680000Y-141000000D03*
X259680000Y-135000000D03*
X259680000Y-138000000D03*
X259680000Y-141000000D03*
D17*
X266050000Y-127500000D03*
D18*
X266050000Y-125500000D03*
D19*
X123000000Y-107000000D03*
X123000000Y-112000000D03*
D20*
X120300000Y-106000000D03*
X120300000Y-113000000D03*
D21*
X184400000Y-127600000D03*
X246000000Y-128550000D03*
X166975000Y-135375000D03*
X135800000Y-103924500D03*
X226838887Y-132844568D03*
X249850000Y-137550000D03*
X168300000Y-127800000D03*
X171350000Y-147200000D03*
X145890000Y-109900000D03*
X177411472Y-128388528D03*
X145850000Y-128150000D03*
X173800000Y-144850000D03*
X255300000Y-137600000D03*
X145900000Y-123550000D03*
X188000000Y-135210500D03*
X255600000Y-104100000D03*
X262500000Y-123400000D03*
X246734292Y-133069776D03*
X216200000Y-134950000D03*
X259350000Y-131050000D03*
X222500000Y-134300000D03*
X192450000Y-131700000D03*
X131900000Y-106950000D03*
X141350000Y-109500000D03*
X262500000Y-120600000D03*
X181541840Y-127558160D03*
X198750000Y-126775000D03*
X222900000Y-143100000D03*
X136131474Y-101300712D03*
X223900000Y-129500000D03*
X233189500Y-119130594D03*
X133500000Y-110700000D03*
X149400000Y-104400000D03*
X160700000Y-131350000D03*
X223000000Y-129500000D03*
X140600000Y-103800000D03*
X226438891Y-133570254D03*
X190850000Y-122100000D03*
X129775500Y-110300000D03*
X136100000Y-110750000D03*
X183700000Y-128197074D03*
X158700000Y-139550000D03*
X165971150Y-108695170D03*
X202550000Y-116350000D03*
X145050497Y-128150000D03*
X153600000Y-139600000D03*
X166900000Y-104900000D03*
X162529118Y-125539814D03*
X197500000Y-112600000D03*
X248700000Y-123100000D03*
X257611365Y-109202856D03*
X139050000Y-136950000D03*
X243600000Y-132400000D03*
X154466547Y-140614845D03*
X176900000Y-105400000D03*
X222900000Y-140700000D03*
X169305646Y-122093916D03*
X227700000Y-127150000D03*
X187750000Y-133300000D03*
X257400000Y-119500000D03*
X139050000Y-140000000D03*
X179900000Y-115810500D03*
X210272146Y-144962808D03*
X229615335Y-133438517D03*
X187758530Y-134448335D03*
X137650000Y-112800000D03*
X270899503Y-129950000D03*
X225700000Y-141900000D03*
X158567519Y-134268245D03*
X193750000Y-99500000D03*
X227224695Y-133544822D03*
X157150000Y-144700000D03*
X192250000Y-117100000D03*
X224800000Y-132200000D03*
X205350000Y-112550000D03*
X246700000Y-140700000D03*
X193225000Y-140525000D03*
X178400000Y-143100000D03*
X224800000Y-129500000D03*
X249492452Y-136834903D03*
X160597571Y-118539361D03*
X142900000Y-140100000D03*
X220750000Y-127150000D03*
X177050000Y-132800000D03*
X196500000Y-124950000D03*
X175550000Y-122639003D03*
X246134500Y-133598411D03*
X138149500Y-110449497D03*
X255219861Y-139725906D03*
X242700000Y-130600000D03*
X220100000Y-141900000D03*
X145790847Y-140031089D03*
X240858411Y-134975500D03*
X161400000Y-127400000D03*
X214100000Y-112550000D03*
X164720493Y-125245828D03*
X163980360Y-135418741D03*
X245300000Y-131500000D03*
X178100000Y-130260500D03*
X194296928Y-115207680D03*
X244500000Y-129700000D03*
X187116840Y-111116840D03*
X253600000Y-133300000D03*
X237751506Y-127367827D03*
X182107174Y-126948074D03*
X176650000Y-116700000D03*
X173350000Y-144175500D03*
X207850000Y-124950000D03*
X249500000Y-141900000D03*
X186850000Y-117150000D03*
X183007218Y-106868660D03*
X176251806Y-108086619D03*
X240500000Y-124900000D03*
X139600000Y-103800000D03*
X152500000Y-136800000D03*
X242000000Y-137566840D03*
X188850000Y-133375000D03*
X160165662Y-111850000D03*
X247600000Y-124900000D03*
X138050000Y-98350000D03*
X204700000Y-116900000D03*
X128500000Y-129550000D03*
X220800000Y-130175500D03*
X172565172Y-103417005D03*
X185300000Y-124950000D03*
X181050000Y-111150000D03*
X228900000Y-123100000D03*
X142050000Y-105025000D03*
X245300000Y-132400000D03*
X186300000Y-112600000D03*
X164855585Y-109361012D03*
X142950000Y-137000000D03*
X176800000Y-106200000D03*
X193750000Y-103189500D03*
X133329646Y-113009988D03*
X263700000Y-120300000D03*
X243267519Y-134518245D03*
X227417297Y-139416383D03*
X243600000Y-130600000D03*
X256500000Y-119400000D03*
X213300000Y-142850000D03*
X244500000Y-130600000D03*
X186950000Y-120474500D03*
X169300000Y-139700000D03*
X186998494Y-104067826D03*
X145128669Y-123339637D03*
X244500000Y-132400000D03*
X193090474Y-104359525D03*
X251912626Y-130262626D03*
X189600000Y-122150000D03*
X144083160Y-117916840D03*
X145831160Y-137102444D03*
X190699196Y-100374196D03*
X177319635Y-131461000D03*
X140651109Y-109888272D03*
X247415967Y-127084033D03*
X197975000Y-140550000D03*
X133500000Y-147450000D03*
X197475000Y-129800000D03*
X193950000Y-139975000D03*
X179500000Y-120700000D03*
X144750000Y-99050000D03*
X184242320Y-133546928D03*
X125350000Y-104950000D03*
X200294662Y-146090087D03*
X236600000Y-103610500D03*
X131768563Y-106161376D03*
X257300000Y-135100000D03*
X225600000Y-130400000D03*
X155791515Y-119254977D03*
X227750000Y-124950000D03*
X245300000Y-129700000D03*
X199887673Y-123557812D03*
X257300000Y-103500000D03*
X170961204Y-146501400D03*
X228650906Y-131858466D03*
X161358160Y-141591840D03*
X199200000Y-119000497D03*
X151400000Y-139600000D03*
X230300000Y-130400000D03*
X246911223Y-133849456D03*
X263700000Y-123100000D03*
X188875000Y-132450000D03*
X175450500Y-115429500D03*
X183424509Y-120474500D03*
X242700000Y-129700000D03*
X127450000Y-110326000D03*
X239500000Y-123100000D03*
X202850000Y-112600000D03*
X158700000Y-137389500D03*
X162000000Y-126200000D03*
X181050000Y-110400000D03*
X177152516Y-118520407D03*
X229250000Y-128600000D03*
X243600000Y-131500000D03*
X139050000Y-135950000D03*
X152500000Y-142200000D03*
X225760839Y-134940175D03*
X182211116Y-104017547D03*
X250700000Y-135100000D03*
X223900000Y-131300000D03*
X248300000Y-131841245D03*
X176033691Y-106658131D03*
X131100000Y-129600000D03*
X174100000Y-118850000D03*
X173239002Y-115959300D03*
X219585357Y-134845311D03*
X157321384Y-136689090D03*
X156308102Y-147530986D03*
X168000000Y-126400000D03*
X160888002Y-108392499D03*
X223900000Y-132200000D03*
X252700000Y-134600000D03*
X143250000Y-148300000D03*
X191550000Y-139925000D03*
X176738621Y-127762832D03*
X181750000Y-112650000D03*
X261600000Y-130150000D03*
X196625000Y-129825000D03*
X223900000Y-130400000D03*
X145150000Y-142975000D03*
X125400000Y-107300000D03*
X217698086Y-128342980D03*
X149972159Y-130369163D03*
X217900000Y-129400000D03*
X210300000Y-116900000D03*
X181000000Y-106850000D03*
X255600000Y-114500000D03*
X229946219Y-135372384D03*
X170000000Y-139000000D03*
X219900000Y-123100000D03*
X209100000Y-147050000D03*
X249264789Y-129583442D03*
X221000000Y-125000000D03*
X190850000Y-98650000D03*
X225600000Y-129500000D03*
X196550000Y-139925000D03*
X181100000Y-136400000D03*
X240512812Y-133433518D03*
X149362913Y-118289330D03*
X153700000Y-123900000D03*
X245000000Y-134600000D03*
X192600000Y-100700000D03*
X207303939Y-120474500D03*
X127400000Y-112950000D03*
X243900000Y-141900000D03*
X223000000Y-131300000D03*
X231300000Y-108650000D03*
X143125000Y-142800000D03*
X240400000Y-127350000D03*
X129775500Y-107850000D03*
X147539602Y-109029702D03*
X155750000Y-124000000D03*
X225600000Y-132200000D03*
X235696212Y-127162995D03*
X195250000Y-124950000D03*
X130900000Y-147450000D03*
X248700000Y-126700000D03*
X187700000Y-121900000D03*
X256300000Y-103550000D03*
X225600000Y-131300000D03*
X202400000Y-124900000D03*
X199100000Y-139925000D03*
X176019493Y-132644597D03*
X224292134Y-136810538D03*
X139100000Y-107050000D03*
X156300000Y-143900000D03*
X132924500Y-114500000D03*
X213400000Y-124950000D03*
X202075000Y-141375000D03*
X164974082Y-134449995D03*
X175650000Y-120200000D03*
X151837087Y-118289330D03*
X232950000Y-134250000D03*
X216200000Y-134150497D03*
X260135317Y-131199938D03*
X183641467Y-132013067D03*
X256500000Y-113200000D03*
X176550000Y-130118885D03*
X163927616Y-113496219D03*
X219900000Y-126700000D03*
X245300000Y-130600000D03*
X242700000Y-131500000D03*
X209150000Y-124950000D03*
X169349502Y-112947236D03*
X124100000Y-110950000D03*
X170493205Y-112266023D03*
X177246073Y-102087607D03*
X144350000Y-147650000D03*
X178400000Y-128559385D03*
X179847938Y-113832936D03*
X175300000Y-114250000D03*
X133550000Y-108200000D03*
X246700000Y-143100000D03*
X197750000Y-117200000D03*
X173830466Y-104734962D03*
X168799446Y-128424306D03*
X223000000Y-132200000D03*
X175650000Y-112350000D03*
X128450000Y-147500000D03*
X188750000Y-112600000D03*
X223000000Y-130400000D03*
X246681149Y-128131383D03*
X145225500Y-110544722D03*
X167000000Y-125900000D03*
X177500000Y-120400000D03*
X249087060Y-135160643D03*
X253580500Y-104900000D03*
X168100000Y-104000000D03*
X127763067Y-114558533D03*
X128567071Y-98428075D03*
X228900000Y-126700000D03*
X172083408Y-110067089D03*
X131200000Y-99150000D03*
X226990593Y-127947154D03*
X173200000Y-119700000D03*
X181300000Y-134500000D03*
X235500000Y-109800000D03*
X136050000Y-108200000D03*
X162067822Y-119660434D03*
X215900000Y-116950000D03*
X169367519Y-117081755D03*
X184000000Y-124950000D03*
X176943740Y-102771045D03*
X188158533Y-121386933D03*
X144950000Y-114799503D03*
X152700000Y-122600000D03*
X221800000Y-135000000D03*
X152741840Y-121141840D03*
X176100000Y-131407570D03*
X222467089Y-103433408D03*
X182217500Y-100017500D03*
X183380594Y-130375292D03*
X256000000Y-128200000D03*
X239400000Y-126700000D03*
X226247147Y-109211319D03*
X241292641Y-128177379D03*
X143300000Y-134050000D03*
X133500000Y-129650000D03*
X221344742Y-133145304D03*
X182275000Y-108427660D03*
X157131714Y-146699500D03*
X128351619Y-108221774D03*
X145050000Y-134025000D03*
X134800000Y-104074500D03*
X214225000Y-144050000D03*
X183122238Y-102024300D03*
X179800000Y-100100000D03*
X195475000Y-140550000D03*
X257300000Y-129100000D03*
X223448909Y-134576874D03*
X214650000Y-124950000D03*
X243600000Y-129700000D03*
X224800000Y-130400000D03*
X158015470Y-119681207D03*
X242700000Y-132400000D03*
X224800000Y-131300000D03*
X138450000Y-106324500D03*
X172600000Y-122600000D03*
X240500000Y-130375500D03*
X178780300Y-113044840D03*
X175500000Y-113350000D03*
X190225000Y-134550000D03*
X237600000Y-129900000D03*
X212765097Y-120157549D03*
X148350000Y-110650000D03*
X148050000Y-103975000D03*
X221663665Y-127939942D03*
X142150000Y-147650000D03*
X203400000Y-141350000D03*
X214950000Y-114000000D03*
X139175000Y-108825000D03*
X203650000Y-124900000D03*
X183950000Y-115750000D03*
X179800000Y-103700000D03*
X127050000Y-111750000D03*
X183100000Y-112800000D03*
X249509975Y-130938534D03*
X266204977Y-114245023D03*
X244500000Y-131500000D03*
X142950000Y-135950000D03*
X239250500Y-134975500D03*
X200625000Y-140750000D03*
X170650000Y-109200000D03*
X265400000Y-114500000D03*
X174200000Y-119800000D03*
X176500000Y-103436100D03*
X199200000Y-123150000D03*
X175550000Y-121839500D03*
X128500000Y-99300000D03*
X262351367Y-129876776D03*
X130650000Y-110450000D03*
X270100000Y-129950000D03*
X171300000Y-111315100D03*
X187600000Y-119800000D03*
X132050000Y-114500000D03*
X199200000Y-119800000D03*
X173650000Y-105600000D03*
X130650000Y-107950000D03*
X172673680Y-104223681D03*
X182750000Y-120000000D03*
X194000000Y-115950000D03*
X175703182Y-119402268D03*
X206600000Y-119850000D03*
X212050000Y-119800000D03*
X176050000Y-117250000D03*
X257550000Y-110000000D03*
X187550000Y-112600000D03*
X179200000Y-116400000D03*
X256100000Y-139900000D03*
X252775500Y-129900000D03*
X186275000Y-111125000D03*
X179150000Y-115500000D03*
X182600000Y-113600000D03*
X179600000Y-114631000D03*
X182381089Y-112159153D03*
X192300000Y-145300000D03*
X242000000Y-128550000D03*
X156250000Y-145700000D03*
X192000000Y-144450000D03*
X220700000Y-134900000D03*
X193500000Y-145550000D03*
X234750000Y-142650000D03*
X234750000Y-141900000D03*
X156250000Y-146650000D03*
X156250000Y-144800000D03*
X222350000Y-128350000D03*
X240066118Y-134868377D03*
X234750000Y-141100000D03*
X226300000Y-128350000D03*
X136150000Y-102100000D03*
X146900000Y-108550000D03*
X144950000Y-114000000D03*
X127100000Y-107650000D03*
X126100000Y-110550000D03*
X127800000Y-109600000D03*
X138146451Y-109650000D03*
X138150000Y-108750000D03*
X127800000Y-108800497D03*
X134086672Y-112752856D03*
X141600000Y-114250000D03*
X137100000Y-113450000D03*
X161150000Y-133800000D03*
X175122564Y-108962775D03*
X186433160Y-104633160D03*
X192302411Y-104224761D03*
X190900000Y-99500000D03*
X193137804Y-100108416D03*
X177500000Y-121250000D03*
X175204675Y-116190272D03*
X194377952Y-98820655D03*
X254100000Y-106800000D03*
X255914939Y-115234859D03*
X191702762Y-98577473D03*
X182300000Y-102069800D03*
X192984366Y-103419737D03*
X134900000Y-116950000D03*
X166800000Y-108700000D03*
X136750000Y-116000000D03*
X164450000Y-110050000D03*
X144900000Y-117700000D03*
X169400000Y-121300000D03*
X127650000Y-115350000D03*
X149344505Y-119088620D03*
X220800000Y-129375997D03*
X181171726Y-109601908D03*
X245758474Y-134347175D03*
X172634666Y-120265334D03*
X225889500Y-134151092D03*
X232600000Y-124900000D03*
X229557080Y-134397583D03*
X174479265Y-114213410D03*
X232600000Y-118400000D03*
X240130430Y-129666541D03*
X183003725Y-108062595D03*
X248312500Y-134962500D03*
X222450000Y-104250000D03*
X237300000Y-104250000D03*
X174623056Y-113426944D03*
X173175655Y-116756289D03*
X172900000Y-110050000D03*
X170550000Y-107350000D03*
X170650000Y-113050000D03*
X164000000Y-112700000D03*
X164100000Y-125750000D03*
X169200000Y-113800000D03*
X163300497Y-125750000D03*
X169200000Y-116300000D03*
X234900000Y-109250000D03*
X175200000Y-106700000D03*
X234950000Y-127450000D03*
X240645023Y-132645023D03*
X225450000Y-109150000D03*
X220900000Y-132424500D03*
X217800000Y-127550000D03*
X175215934Y-108128590D03*
X248876358Y-130282245D03*
X176400000Y-102100000D03*
X175750000Y-107464209D03*
X230450000Y-108750000D03*
X177414227Y-127335326D03*
X161400000Y-120100000D03*
X160150000Y-108700000D03*
X160700000Y-111200000D03*
X177349802Y-129913081D03*
X158275000Y-118925000D03*
X159900000Y-118930000D03*
X179200000Y-129010500D03*
X176577370Y-132071903D03*
X154900000Y-123950000D03*
X188950000Y-121500000D03*
X182850000Y-131900000D03*
X183500000Y-133250000D03*
X175400000Y-133150000D03*
X152800000Y-120250000D03*
X191650000Y-121900000D03*
X152510265Y-118720648D03*
X227450634Y-140215190D03*
X249200000Y-131675500D03*
X155250000Y-140100000D03*
X150700000Y-130700000D03*
X238316840Y-127933160D03*
X186950000Y-121500000D03*
X156250000Y-118600000D03*
X176750000Y-130900000D03*
X182650000Y-130700000D03*
X157450000Y-135900000D03*
X226550000Y-139400000D03*
X229150000Y-135300000D03*
X227866378Y-131704452D03*
X247490109Y-131841745D03*
X158400000Y-135050000D03*
X241210026Y-137443773D03*
X243100000Y-135300000D03*
X162950000Y-135400000D03*
X244588659Y-135285567D03*
X224828497Y-134833167D03*
X223706452Y-135392345D03*
X223500000Y-136950000D03*
X164200000Y-134650000D03*
X228711037Y-129252981D03*
X181733031Y-109032575D03*
X248400000Y-129600000D03*
X183608160Y-107458160D03*
X200500000Y-146900000D03*
X210125000Y-144075000D03*
X219100000Y-134200000D03*
X220749500Y-133741128D03*
X238400000Y-135100000D03*
X241755707Y-134638447D03*
X145300000Y-137700000D03*
X159400000Y-137900000D03*
X145300000Y-139400000D03*
X159400000Y-139100000D03*
D22*
X234750000Y-142650000D02*
X234750000Y-141900000D01*
X234750000Y-141100000D02*
X234750000Y-141900000D01*
X234750000Y-141900000D02*
X234750000Y-142300000D01*
D23*
X232600000Y-124900000D02*
X232600000Y-131775000D01*
X232600000Y-131775000D02*
X229977417Y-134397583D01*
X229977417Y-134397583D02*
X229557080Y-134397583D01*
D22*
X156250000Y-146650000D02*
X156250000Y-146250000D01*
X156250000Y-146250000D02*
X156800000Y-145700000D01*
D24*
X156250000Y-145700000D02*
X156800000Y-145700000D01*
X156800000Y-145700000D02*
X157546428Y-145700000D01*
D22*
X156250000Y-144800000D02*
X156250000Y-145150000D01*
X156250000Y-145150000D02*
X156800000Y-145700000D01*
X156250000Y-144800000D02*
X156250000Y-145700000D01*
X156250000Y-146650000D02*
X156250000Y-145700000D01*
D25*
X192450000Y-131700000D02*
X191775000Y-131700000D01*
X191775000Y-131700000D02*
X188264500Y-135210500D01*
X188264500Y-135210500D02*
X188000000Y-135210500D01*
X192450000Y-131700000D02*
X192500000Y-131700000D01*
X192500000Y-131700000D02*
X195750000Y-134950000D01*
X195750000Y-134950000D02*
X216200000Y-134950000D01*
D23*
X227866378Y-131704452D02*
X227866378Y-131966378D01*
X227866378Y-131966378D02*
X228850000Y-132950000D01*
X228850000Y-132950000D02*
X228850000Y-135000000D01*
X228850000Y-135000000D02*
X229150000Y-135300000D01*
D26*
X220700000Y-134900000D02*
X222100000Y-133500000D01*
X222100000Y-133500000D02*
X222100000Y-128600000D01*
X222100000Y-128600000D02*
X222350000Y-128350000D01*
D23*
X219300000Y-135600000D02*
X222125000Y-135600000D01*
X216250000Y-135000000D02*
X218700000Y-135000000D01*
X218700000Y-135000000D02*
X219300000Y-135600000D01*
X222125000Y-135600000D02*
X222500000Y-135225000D01*
X222500000Y-135225000D02*
X222500000Y-134300000D01*
X158275000Y-118925000D02*
X158650000Y-119300000D01*
X176220615Y-129529385D02*
X176966106Y-129529385D01*
X158650000Y-119300000D02*
X158650000Y-127000000D01*
X158650000Y-127000000D02*
X161550000Y-129900000D01*
X161550000Y-129900000D02*
X175850000Y-129900000D01*
X175850000Y-129900000D02*
X176220615Y-129529385D01*
X176966106Y-129529385D02*
X177349802Y-129913081D01*
X144900000Y-117700000D02*
X144950000Y-117650000D01*
X144950000Y-117650000D02*
X165750000Y-117650000D01*
X165750000Y-117650000D02*
X169400000Y-121300000D01*
X191650000Y-121900000D02*
X191647720Y-121902280D01*
X191647720Y-121902280D02*
X191647720Y-125102280D01*
X191647720Y-125102280D02*
X183500000Y-133250000D01*
X234900000Y-109250000D02*
X234900000Y-106450000D01*
X191947149Y-97987473D02*
X186662527Y-97987473D01*
X234900000Y-106450000D02*
X227800000Y-99350000D01*
X227800000Y-99350000D02*
X196500000Y-99350000D01*
X183350000Y-101300000D02*
X180000000Y-101300000D01*
X196500000Y-99350000D02*
X195250000Y-98100000D01*
X195250000Y-98100000D02*
X192059676Y-98100000D01*
X180000000Y-101300000D02*
X175200000Y-106100000D01*
X192059676Y-98100000D02*
X191947149Y-97987473D01*
X186662527Y-97987473D02*
X183350000Y-101300000D01*
X175200000Y-106100000D02*
X175200000Y-106700000D01*
X194377952Y-98820655D02*
X194307297Y-98750000D01*
X194307297Y-98750000D02*
X191875289Y-98750000D01*
X191875289Y-98750000D02*
X191702762Y-98577473D01*
X193137804Y-100108416D02*
X191508416Y-100108416D01*
X191508416Y-100108416D02*
X190900000Y-99500000D01*
D27*
X168300000Y-127800000D02*
X168350000Y-127750000D01*
X168350000Y-127750000D02*
X175841905Y-127750000D01*
X175841905Y-127750000D02*
X176480433Y-128388528D01*
X176480433Y-128388528D02*
X177411472Y-128388528D01*
D23*
X181171726Y-109601908D02*
X182069818Y-110500000D01*
X182069818Y-110500000D02*
X207300000Y-110500000D01*
X207300000Y-110500000D02*
X218300000Y-121500000D01*
X218300000Y-121500000D02*
X218300000Y-126300000D01*
X218300000Y-126300000D02*
X220800000Y-128800000D01*
X220800000Y-128800000D02*
X220800000Y-129375997D01*
X228200000Y-135450000D02*
X228200000Y-133685740D01*
X246672927Y-133008411D02*
X243841589Y-133008411D01*
D25*
X137550000Y-106950000D02*
X137575000Y-106975000D01*
D27*
X262500000Y-120083884D02*
X262500000Y-120600000D01*
X259350000Y-131050000D02*
X260550000Y-129850000D01*
D23*
X228200000Y-133685740D02*
X227358828Y-132844568D01*
D27*
X255850000Y-104350000D02*
X255850000Y-113433884D01*
X255850000Y-113433884D02*
X262500000Y-120083884D01*
X262500000Y-123400000D02*
X262500000Y-120600000D01*
D25*
X137575000Y-106975000D02*
X138450000Y-107850000D01*
X145859722Y-109869722D02*
X141719722Y-109869722D01*
X145900000Y-123550000D02*
X145900000Y-128100000D01*
X145890000Y-109900000D02*
X145859722Y-109869722D01*
X138450000Y-107850000D02*
X139700000Y-107850000D01*
X173700000Y-144850000D02*
X171700000Y-146850000D01*
D27*
X255600000Y-104100000D02*
X255850000Y-104350000D01*
D25*
X139700000Y-107850000D02*
X141350000Y-109500000D01*
D23*
X242500000Y-135200000D02*
X241685000Y-136015000D01*
X224030432Y-132844568D02*
X222575000Y-134300000D01*
D27*
X255250000Y-137550000D02*
X255300000Y-137600000D01*
D25*
X135800000Y-103924500D02*
X135800000Y-105200000D01*
D23*
X222575000Y-134300000D02*
X222500000Y-134300000D01*
D27*
X260550000Y-129850000D02*
X260550000Y-125350000D01*
D23*
X243841589Y-133008411D02*
X242500000Y-134350000D01*
D25*
X141719722Y-109869722D02*
X141350000Y-109500000D01*
D27*
X260550000Y-125350000D02*
X262500000Y-123400000D01*
D25*
X131900000Y-106950000D02*
X137550000Y-106950000D01*
D23*
X241685000Y-136015000D02*
X228765000Y-136015000D01*
X228765000Y-136015000D02*
X228200000Y-135450000D01*
X226838887Y-132844568D02*
X224030432Y-132844568D01*
D25*
X173800000Y-144850000D02*
X173700000Y-144850000D01*
D27*
X181556254Y-127572574D02*
X184372574Y-127572574D01*
D25*
X145900000Y-128100000D02*
X145850000Y-128150000D01*
X171350000Y-147200000D02*
X171700000Y-146850000D01*
D23*
X242500000Y-134350000D02*
X242500000Y-135200000D01*
X227358828Y-132844568D02*
X226838887Y-132844568D01*
D25*
X135800000Y-105200000D02*
X137575000Y-106975000D01*
D27*
X181541840Y-127558160D02*
X181556254Y-127572574D01*
D23*
X246734292Y-133069776D02*
X246672927Y-133008411D01*
D27*
X249850000Y-137550000D02*
X255250000Y-137550000D01*
D25*
X187550000Y-112600000D02*
X187600000Y-112650000D01*
D28*
X175977150Y-103436100D02*
X173813250Y-105600000D01*
D26*
X132050000Y-114500000D02*
X132050000Y-114450000D01*
D28*
X170950000Y-109500000D02*
X170950000Y-110650000D01*
D26*
X257550000Y-110050000D02*
X257550000Y-110000000D01*
D25*
X206650000Y-119800000D02*
X209600000Y-119800000D01*
D22*
X128500000Y-102700000D02*
X128500000Y-99300000D01*
D25*
X209600000Y-119800000D02*
X212050000Y-119800000D01*
X176050000Y-119450000D02*
X180500000Y-119450000D01*
X194000000Y-119800000D02*
X199200000Y-119800000D01*
D22*
X132050000Y-111850000D02*
X130650000Y-110450000D01*
D25*
X194000000Y-119800000D02*
X194000000Y-115950000D01*
D28*
X174200000Y-120489500D02*
X175550000Y-121839500D01*
D26*
X257600000Y-110100000D02*
X257550000Y-110050000D01*
X257500000Y-110000000D02*
X257550000Y-110050000D01*
D25*
X182950000Y-119800000D02*
X187600000Y-119800000D01*
D26*
X199200000Y-123150000D02*
X199200000Y-119800000D01*
X257600000Y-112650000D02*
X257600000Y-110100000D01*
D25*
X206600000Y-119850000D02*
X206650000Y-119800000D01*
X212050000Y-119800000D02*
X211950000Y-119800000D01*
D28*
X176500000Y-103436100D02*
X175977150Y-103436100D01*
X176050000Y-117250000D02*
X176050000Y-119450000D01*
D25*
X180500000Y-119450000D02*
X181050000Y-120000000D01*
X181050000Y-120000000D02*
X182750000Y-120000000D01*
D26*
X259450000Y-114500000D02*
X257600000Y-112650000D01*
D25*
X175703182Y-119402268D02*
X175750914Y-119450000D01*
D26*
X257550000Y-110000000D02*
X257500000Y-110000000D01*
D28*
X170650000Y-109200000D02*
X170950000Y-109500000D01*
D22*
X130650000Y-107950000D02*
X130650000Y-104850000D01*
D26*
X262424591Y-129950000D02*
X262351367Y-129876776D01*
D28*
X172673680Y-104623680D02*
X173650000Y-105600000D01*
D22*
X130650000Y-104850000D02*
X128500000Y-102700000D01*
D28*
X174200000Y-119800000D02*
X174200000Y-120489500D01*
X171300000Y-111000000D02*
X171300000Y-111315100D01*
D25*
X199200000Y-119800000D02*
X206550000Y-119800000D01*
D22*
X132050000Y-114500000D02*
X132050000Y-111850000D01*
D26*
X270100000Y-129950000D02*
X262424591Y-129950000D01*
D28*
X172673680Y-104223681D02*
X172673680Y-104623680D01*
D25*
X175703182Y-119402268D02*
X175685948Y-119402268D01*
D28*
X170950000Y-110650000D02*
X171300000Y-111000000D01*
D25*
X187600000Y-112650000D02*
X187600000Y-119800000D01*
X206550000Y-119800000D02*
X206600000Y-119850000D01*
X187600000Y-119800000D02*
X194000000Y-119800000D01*
X175750914Y-119450000D02*
X176050000Y-119450000D01*
D28*
X173813250Y-105600000D02*
X173650000Y-105600000D01*
D26*
X265400000Y-114500000D02*
X259450000Y-114500000D01*
D23*
X256100000Y-134000000D02*
X256100000Y-139900000D01*
X252775500Y-129900000D02*
X252775500Y-130675500D01*
X186275000Y-111125000D02*
X181000000Y-116400000D01*
X252775500Y-130675500D02*
X256100000Y-134000000D01*
X181000000Y-116400000D02*
X179200000Y-116400000D01*
X182600000Y-113600000D02*
X180979500Y-115220500D01*
X180979500Y-115220500D02*
X179429500Y-115220500D01*
X179429500Y-115220500D02*
X179150000Y-115500000D01*
X182381089Y-112159153D02*
X182381089Y-112853298D01*
X182381089Y-112853298D02*
X180603387Y-114631000D01*
X180603387Y-114631000D02*
X179600000Y-114631000D01*
D26*
X241900000Y-128650000D02*
X242000000Y-128550000D01*
X240066118Y-134868377D02*
X240066118Y-134707132D01*
X241900000Y-129000000D02*
X241900000Y-128950000D01*
D22*
X196050000Y-148250000D02*
X230900000Y-148250000D01*
X234750000Y-144400000D02*
X234750000Y-142650000D01*
D24*
X192000000Y-144450000D02*
X192000000Y-145000000D01*
D26*
X240547750Y-134225500D02*
X240874500Y-134225500D01*
X241900000Y-133200000D02*
X241900000Y-129000000D01*
D24*
X192300000Y-145300000D02*
X193250000Y-145300000D01*
D26*
X240874500Y-134225500D02*
X241900000Y-133200000D01*
X244500000Y-128550000D02*
X246000000Y-128550000D01*
X222350000Y-128350000D02*
X223900000Y-128350000D01*
D22*
X193500000Y-145550000D02*
X193550000Y-145550000D01*
D24*
X174300000Y-141700000D02*
X189250000Y-141700000D01*
X189250000Y-141700000D02*
X192000000Y-144450000D01*
X157546428Y-145700000D02*
X159646428Y-147800000D01*
D26*
X223900000Y-128350000D02*
X226300000Y-128350000D01*
D22*
X230900000Y-148250000D02*
X234750000Y-144400000D01*
D24*
X193500000Y-145550000D02*
X193100000Y-145550000D01*
D26*
X241900000Y-128950000D02*
X242300000Y-128550000D01*
X242000000Y-128550000D02*
X242300000Y-128550000D01*
D22*
X193550000Y-145550000D02*
X196050000Y-148050000D01*
D24*
X159646428Y-147800000D02*
X168200000Y-147800000D01*
X192000000Y-145000000D02*
X192300000Y-145300000D01*
X193100000Y-145550000D02*
X192000000Y-144450000D01*
X193250000Y-145300000D02*
X193500000Y-145550000D01*
D26*
X242300000Y-128550000D02*
X244500000Y-128550000D01*
X240066118Y-134707132D02*
X240547750Y-134225500D01*
X241900000Y-129000000D02*
X241900000Y-128650000D01*
X246000000Y-128550000D02*
X245950000Y-128550000D01*
D24*
X168200000Y-147800000D02*
X174300000Y-141700000D01*
D23*
X144950000Y-114000000D02*
X146900000Y-112050000D01*
X146900000Y-112050000D02*
X146900000Y-108550000D01*
X136150000Y-102100000D02*
X142550000Y-108500000D01*
X142550000Y-108500000D02*
X146850000Y-108500000D01*
X146850000Y-108500000D02*
X146900000Y-108550000D01*
X126100000Y-108650000D02*
X127100000Y-107650000D01*
X126100000Y-110550000D02*
X126100000Y-108650000D01*
D29*
X137874700Y-109378249D02*
X138146451Y-109650000D01*
X128021751Y-109378249D02*
X137874700Y-109378249D01*
X127800000Y-109600000D02*
X128021751Y-109378249D01*
X127800000Y-108800497D02*
X128021752Y-109022249D01*
X128021752Y-109022249D02*
X137877751Y-109022249D01*
X137877751Y-109022249D02*
X138150000Y-108750000D01*
D23*
X137100000Y-113450000D02*
X140800000Y-113450000D01*
X134086672Y-112752856D02*
X134633816Y-113300000D01*
X140800000Y-113450000D02*
X141600000Y-114250000D01*
X134633816Y-113300000D02*
X136950000Y-113300000D01*
X136950000Y-113300000D02*
X137100000Y-113450000D01*
X172010000Y-122844387D02*
X175015613Y-125850000D01*
X172010000Y-119240000D02*
X172010000Y-122844387D01*
X179900000Y-131650000D02*
X177750000Y-133800000D01*
X174350000Y-112150000D02*
X173450000Y-113050000D01*
X174350000Y-109735339D02*
X174350000Y-112150000D01*
X173450000Y-114900000D02*
X174350000Y-115800000D01*
X172750000Y-118400000D02*
X172750000Y-118500000D01*
X179900000Y-128150000D02*
X179900000Y-131650000D01*
X175122564Y-108962775D02*
X174350000Y-109735339D01*
X177600000Y-125850000D02*
X179900000Y-128150000D01*
X173450000Y-113050000D02*
X173450000Y-114900000D01*
X172750000Y-118500000D02*
X172010000Y-119240000D01*
X174350000Y-115800000D02*
X174350000Y-116800000D01*
X174350000Y-116800000D02*
X172750000Y-118400000D01*
X177750000Y-133800000D02*
X161150000Y-133800000D01*
X175015613Y-125850000D02*
X177600000Y-125850000D01*
X192302411Y-104224761D02*
X192277650Y-104200000D01*
X187700707Y-104200000D02*
X187242881Y-104657826D01*
X187242881Y-104657826D02*
X186457826Y-104657826D01*
X186457826Y-104657826D02*
X186433160Y-104633160D01*
X192277650Y-104200000D02*
X187700707Y-104200000D01*
X175204675Y-116190272D02*
X175200000Y-116194947D01*
X175000000Y-118950000D02*
X175000000Y-120384387D01*
X175865613Y-121250000D02*
X177500000Y-121250000D01*
X175200000Y-118750000D02*
X175000000Y-118950000D01*
X175200000Y-116194947D02*
X175200000Y-118750000D01*
X175000000Y-120384387D02*
X175865613Y-121250000D01*
X255010000Y-114744387D02*
X255500472Y-115234859D01*
X255500472Y-115234859D02*
X255914939Y-115234859D01*
X254500000Y-114000000D02*
X255010000Y-114510000D01*
X254100000Y-106800000D02*
X254500000Y-107200000D01*
X255010000Y-114510000D02*
X255010000Y-114744387D01*
X254500000Y-107200000D02*
X254500000Y-114000000D01*
X192964629Y-103400000D02*
X185700000Y-103400000D01*
X185700000Y-103400000D02*
X185000000Y-102700000D01*
X185000000Y-102700000D02*
X182930200Y-102700000D01*
X182930200Y-102700000D02*
X182300000Y-102069800D01*
X192984366Y-103419737D02*
X192964629Y-103400000D01*
X158550000Y-116950000D02*
X166800000Y-108700000D01*
X134900000Y-116950000D02*
X158550000Y-116950000D01*
X164450000Y-110050000D02*
X164400000Y-110100000D01*
X158350000Y-116000000D02*
X164300000Y-110050000D01*
X136750000Y-116000000D02*
X158350000Y-116000000D01*
X164300000Y-110050000D02*
X164450000Y-110050000D01*
X149045740Y-119079112D02*
X148816628Y-118850000D01*
X134150000Y-118850000D02*
X131650000Y-116350000D01*
X128650000Y-116350000D02*
X127650000Y-115350000D01*
X149334997Y-119079112D02*
X149045740Y-119079112D01*
X148816628Y-118850000D02*
X134150000Y-118850000D01*
X131650000Y-116350000D02*
X128650000Y-116350000D01*
X149344505Y-119088620D02*
X149334997Y-119079112D01*
X226400000Y-136000000D02*
X226200000Y-136200000D01*
X218600000Y-136200000D02*
X226200000Y-136200000D01*
X225889500Y-134151092D02*
X226400000Y-134661592D01*
X244300000Y-136750000D02*
X227350000Y-136750000D01*
X226200000Y-136200000D02*
X226550000Y-136200000D01*
X181200000Y-128050000D02*
X181200000Y-132400000D01*
X226400000Y-136050000D02*
X226550000Y-136200000D01*
X174600000Y-123050000D02*
X175950000Y-124400000D01*
X174600000Y-121950000D02*
X174600000Y-123050000D01*
X226400000Y-134661592D02*
X226400000Y-136000000D01*
X227350000Y-136750000D02*
X226800000Y-136200000D01*
X218200000Y-135800000D02*
X218600000Y-136200000D01*
X177550000Y-124400000D02*
X181200000Y-128050000D01*
X172634666Y-120265334D02*
X172915334Y-120265334D01*
X181200000Y-132400000D02*
X184600000Y-135800000D01*
X226400000Y-136000000D02*
X226400000Y-136050000D01*
X245758474Y-135291526D02*
X244300000Y-136750000D01*
X245758474Y-134347175D02*
X245758474Y-135291526D01*
X184600000Y-135800000D02*
X218200000Y-135800000D01*
X172915334Y-120265334D02*
X174600000Y-121950000D01*
X175950000Y-124400000D02*
X177550000Y-124400000D01*
X226550000Y-136200000D02*
X226800000Y-136200000D01*
X232600000Y-117600000D02*
X232600000Y-118400000D01*
X220400000Y-105400000D02*
X232600000Y-117600000D01*
X176400000Y-113984387D02*
X176400000Y-112100000D01*
X174479265Y-114263652D02*
X175055613Y-114840000D01*
X176400000Y-112100000D02*
X180800000Y-107700000D01*
X199750000Y-105400000D02*
X220400000Y-105400000D01*
X175055613Y-114840000D02*
X175544387Y-114840000D01*
X198200000Y-106950000D02*
X199750000Y-105400000D01*
X184150000Y-106950000D02*
X198200000Y-106950000D01*
X182571340Y-106278660D02*
X183478660Y-106278660D01*
X183478660Y-106278660D02*
X184150000Y-106950000D01*
X174479265Y-114213410D02*
X174479265Y-114263652D01*
X175544387Y-114840000D02*
X176400000Y-113984387D01*
X181150000Y-107700000D02*
X182571340Y-106278660D01*
X180800000Y-107700000D02*
X181150000Y-107700000D01*
X183028391Y-108087261D02*
X217637261Y-108087261D01*
X239216541Y-129666541D02*
X240130430Y-129666541D01*
X183003725Y-108062595D02*
X183028391Y-108087261D01*
X217637261Y-108087261D02*
X239216541Y-129666541D01*
X221850000Y-103650000D02*
X199450000Y-103650000D01*
X196650000Y-106450000D02*
X185300000Y-106450000D01*
X253350000Y-112200000D02*
X247075000Y-105925000D01*
X251100000Y-132175000D02*
X251100000Y-129850000D01*
X222450000Y-104250000D02*
X221850000Y-103650000D01*
X180410000Y-106755613D02*
X174623056Y-112542557D01*
X237300000Y-104250000D02*
X245400000Y-104250000D01*
X245400000Y-104250000D02*
X247075000Y-105925000D01*
X174623056Y-112542557D02*
X174623056Y-113426944D01*
X199450000Y-103650000D02*
X196650000Y-106450000D01*
X181265613Y-105750000D02*
X180410000Y-106605613D01*
X253350000Y-127600000D02*
X253350000Y-112200000D01*
X248312500Y-134962500D02*
X251100000Y-132175000D01*
X185300000Y-106450000D02*
X184600000Y-105750000D01*
X180410000Y-106605613D02*
X180410000Y-106755613D01*
X184600000Y-105750000D02*
X181265613Y-105750000D01*
X251100000Y-129850000D02*
X253350000Y-127600000D01*
X172350000Y-112200000D02*
X172350000Y-115930634D01*
X172350000Y-115930634D02*
X173175655Y-116756289D01*
X172900000Y-109600000D02*
X170650000Y-107350000D01*
X170650000Y-107350000D02*
X170550000Y-107350000D01*
X172900000Y-110050000D02*
X172900000Y-111650000D01*
X172900000Y-110050000D02*
X172900000Y-109600000D01*
X172900000Y-111650000D02*
X172350000Y-112200000D01*
X164433890Y-112700000D02*
X164000000Y-112700000D01*
X164776654Y-112357236D02*
X169593889Y-112357236D01*
X169593889Y-112357236D02*
X170286653Y-113050000D01*
X164433890Y-112700000D02*
X164776654Y-112357236D01*
X170286653Y-113050000D02*
X170650000Y-113050000D01*
X169400000Y-124650000D02*
X171200000Y-122850000D01*
X171200000Y-122850000D02*
X171200000Y-117400000D01*
X164100000Y-125031934D02*
X164481934Y-124650000D01*
X164481934Y-124650000D02*
X169400000Y-124650000D01*
X164100000Y-125750000D02*
X164100000Y-125031934D01*
X171200000Y-117400000D02*
X171700000Y-116900000D01*
X169850000Y-113800000D02*
X169200000Y-113800000D01*
X171700000Y-115650000D02*
X169850000Y-113800000D01*
X171700000Y-116900000D02*
X171700000Y-115650000D01*
X169957519Y-116757519D02*
X169500000Y-116300000D01*
X169957519Y-117326142D02*
X169957519Y-116757519D01*
X169950000Y-117333661D02*
X169957519Y-117326142D01*
X169990000Y-122660000D02*
X169990000Y-121055613D01*
X164100000Y-123700000D02*
X168950000Y-123700000D01*
X163300497Y-125750000D02*
X163300497Y-124499503D01*
X163300497Y-124499503D02*
X164100000Y-123700000D01*
X169500000Y-116300000D02*
X169200000Y-116300000D01*
X169990000Y-121055613D02*
X169950000Y-121015613D01*
X169950000Y-121015613D02*
X169950000Y-117333661D01*
X168950000Y-123700000D02*
X169990000Y-122660000D01*
X240645023Y-132645023D02*
X239510636Y-132645023D01*
X239510636Y-132645023D02*
X234950000Y-128084387D01*
X234950000Y-128084387D02*
X234950000Y-127450000D01*
X199050000Y-102100000D02*
X223600000Y-102100000D01*
X217800000Y-127550000D02*
X219250000Y-129000000D01*
X185600000Y-105800000D02*
X195350000Y-105800000D01*
X175215934Y-108128590D02*
X175763963Y-108676619D01*
X219250000Y-130774500D02*
X220900000Y-132424500D01*
X219250000Y-129000000D02*
X219250000Y-130774500D01*
X176496193Y-108676619D02*
X176841806Y-108331006D01*
X223600000Y-102100000D02*
X225450000Y-103950000D01*
X225450000Y-103950000D02*
X225450000Y-109150000D01*
X176841806Y-108331006D02*
X176841806Y-108158194D01*
X176841806Y-108158194D02*
X179850000Y-105150000D01*
X184950000Y-105150000D02*
X185600000Y-105800000D01*
X175763963Y-108676619D02*
X176496193Y-108676619D01*
X179850000Y-105150000D02*
X184950000Y-105150000D01*
X195350000Y-105800000D02*
X199050000Y-102100000D01*
X239750000Y-106100000D02*
X250700000Y-117050000D01*
X249854789Y-129145211D02*
X249854789Y-129827829D01*
X182807500Y-100261887D02*
X182807500Y-100192500D01*
X228965613Y-97550000D02*
X237515613Y-106100000D01*
X185450000Y-97550000D02*
X228965613Y-97550000D01*
X182319387Y-100750000D02*
X182807500Y-100261887D01*
X176400000Y-102100000D02*
X177750000Y-100750000D01*
X250700000Y-128300000D02*
X249854789Y-129145211D01*
X249854789Y-129827829D02*
X249400373Y-130282245D01*
X237515613Y-106100000D02*
X239750000Y-106100000D01*
X177750000Y-100750000D02*
X182319387Y-100750000D01*
X250700000Y-117050000D02*
X250700000Y-128300000D01*
X249400373Y-130282245D02*
X248876358Y-130282245D01*
X182807500Y-100192500D02*
X185450000Y-97550000D01*
X230450000Y-105700000D02*
X225450000Y-100700000D01*
X186700707Y-105200000D02*
X186677547Y-105223160D01*
X181959182Y-104600000D02*
X179234387Y-104600000D01*
X225450000Y-100700000D02*
X198250000Y-100700000D01*
X186677547Y-105223160D02*
X185973160Y-105223160D01*
X230450000Y-108750000D02*
X230450000Y-105700000D01*
X182463050Y-104600000D02*
X182455503Y-104607547D01*
X193750000Y-105200000D02*
X186700707Y-105200000D01*
X198250000Y-100700000D02*
X193750000Y-105200000D01*
X179234387Y-104600000D02*
X176370178Y-107464209D01*
X185350000Y-104600000D02*
X182463050Y-104600000D01*
X182455503Y-104607547D02*
X181966729Y-104607547D01*
X181966729Y-104607547D02*
X181959182Y-104600000D01*
X185973160Y-105223160D02*
X185350000Y-104600000D01*
X176370178Y-107464209D02*
X175750000Y-107464209D01*
X161400000Y-126434387D02*
X161400000Y-120100000D01*
X160700000Y-110200000D02*
X160700000Y-111200000D01*
X177414227Y-127335326D02*
X177128901Y-127050000D01*
X162015613Y-127050000D02*
X161400000Y-126434387D01*
X160700000Y-109250000D02*
X160700000Y-110200000D01*
X160150000Y-108700000D02*
X160700000Y-109250000D01*
X177128901Y-127050000D02*
X162015613Y-127050000D01*
X159900000Y-118930000D02*
X160150000Y-119180000D01*
X177238557Y-129050000D02*
X162215613Y-129050000D01*
X179200000Y-129010500D02*
X179061115Y-129149385D01*
X162215613Y-129050000D02*
X160150000Y-126984387D01*
X179061115Y-129149385D02*
X177337942Y-129149385D01*
X177337942Y-129149385D02*
X177238557Y-129050000D01*
X160150000Y-126984387D02*
X160150000Y-119180000D01*
X188750000Y-121700000D02*
X188950000Y-121500000D01*
X154900000Y-123950000D02*
X154900000Y-126384387D01*
X176560064Y-132054597D02*
X176577370Y-132071903D01*
X182850000Y-131900000D02*
X188750000Y-126000000D01*
X188750000Y-126000000D02*
X188750000Y-121700000D01*
X160570210Y-132054597D02*
X176560064Y-132054597D01*
X154900000Y-126384387D02*
X160570210Y-132054597D01*
X151800000Y-121250000D02*
X151800000Y-125600000D01*
X152800000Y-120250000D02*
X151800000Y-121250000D01*
X175250000Y-133000000D02*
X175400000Y-133150000D01*
X159200000Y-133000000D02*
X175250000Y-133000000D01*
X151800000Y-125600000D02*
X159200000Y-133000000D01*
X155250000Y-140100000D02*
X155550000Y-140400000D01*
X170900000Y-141300000D02*
X171850000Y-140350000D01*
X238323680Y-127940000D02*
X240644387Y-127940000D01*
X227345444Y-140110000D02*
X227450634Y-140215190D01*
X246997547Y-127500000D02*
X247400000Y-127902453D01*
X190150000Y-140350000D02*
X191250000Y-141450000D01*
X152510265Y-118720648D02*
X150700000Y-120530913D01*
X198500000Y-141450000D02*
X199840000Y-140110000D01*
X161000000Y-140400000D02*
X161900000Y-141300000D01*
X240644387Y-127940000D02*
X241084387Y-127500000D01*
X161900000Y-141300000D02*
X170900000Y-141300000D01*
X191250000Y-141450000D02*
X198500000Y-141450000D01*
X155550000Y-140400000D02*
X161000000Y-140400000D01*
X241084387Y-127500000D02*
X246997547Y-127500000D01*
X247400000Y-127902453D02*
X247400000Y-129875500D01*
X199840000Y-140110000D02*
X227345444Y-140110000D01*
X150700000Y-120530913D02*
X150700000Y-130700000D01*
X247400000Y-129875500D02*
X249200000Y-131675500D01*
X171850000Y-140350000D02*
X190150000Y-140350000D01*
X175450000Y-130900000D02*
X175532430Y-130817570D01*
X175532430Y-130817570D02*
X176667570Y-130817570D01*
X156250000Y-118600000D02*
X156850000Y-119200000D01*
X156850000Y-119200000D02*
X156850000Y-126650000D01*
X176667570Y-130817570D02*
X176750000Y-130900000D01*
X182650000Y-130700000D02*
X182650000Y-130250000D01*
X182650000Y-130250000D02*
X186950000Y-125950000D01*
X156850000Y-126650000D02*
X161100000Y-130900000D01*
X161100000Y-130900000D02*
X175450000Y-130900000D01*
X186950000Y-125950000D02*
X186950000Y-121500000D01*
X158350000Y-136800000D02*
X157450000Y-135900000D01*
X171315000Y-139335000D02*
X170250000Y-140400000D01*
X161100000Y-136800000D02*
X158350000Y-136800000D01*
X170250000Y-140400000D02*
X164700000Y-140400000D01*
X164700000Y-140400000D02*
X161100000Y-136800000D01*
X226485000Y-139335000D02*
X171315000Y-139335000D01*
X226550000Y-139400000D02*
X226485000Y-139335000D01*
X243150000Y-138950000D02*
X231300000Y-138950000D01*
X164750000Y-138650000D02*
X162000000Y-135900000D01*
X169755613Y-138410000D02*
X169515613Y-138650000D01*
X170384387Y-138550000D02*
X170244387Y-138410000D01*
X247490109Y-131841745D02*
X247490109Y-131865741D01*
X247900000Y-132275632D02*
X247900000Y-134200000D01*
X247490109Y-131865741D02*
X247900000Y-132275632D01*
X169515613Y-138650000D02*
X164750000Y-138650000D01*
X170244387Y-138410000D02*
X169755613Y-138410000D01*
X162000000Y-135900000D02*
X159250000Y-135900000D01*
X247900000Y-134200000D02*
X243150000Y-138950000D01*
X230900000Y-138550000D02*
X170384387Y-138550000D01*
X231300000Y-138950000D02*
X230900000Y-138550000D01*
X159250000Y-135900000D02*
X158400000Y-135050000D01*
X240903799Y-137750000D02*
X165300000Y-137750000D01*
X241210026Y-137443773D02*
X240903799Y-137750000D01*
X165300000Y-137750000D02*
X162950000Y-135400000D01*
X244588659Y-135285567D02*
X243114433Y-135285567D01*
X181344387Y-136990000D02*
X166540000Y-136990000D01*
X224269319Y-135392345D02*
X224828497Y-134833167D01*
X223450000Y-136900000D02*
X181434387Y-136900000D01*
X181434387Y-136900000D02*
X181344387Y-136990000D01*
X166540000Y-136990000D02*
X164200000Y-134650000D01*
X223706452Y-135392345D02*
X224269319Y-135392345D01*
X228350000Y-126940000D02*
X228350000Y-128891944D01*
X211514393Y-109130006D02*
X227160000Y-124775613D01*
X181733031Y-109032575D02*
X181830462Y-109130006D01*
X227160000Y-124775613D02*
X227160000Y-125750000D01*
X181830462Y-109130006D02*
X211514393Y-109130006D01*
X227160000Y-125750000D02*
X228350000Y-126940000D01*
X228350000Y-128891944D02*
X228711037Y-129252981D01*
X238290000Y-125990000D02*
X239990000Y-125990000D01*
X183608160Y-107458160D02*
X183616320Y-107450000D01*
X240494033Y-126494033D02*
X247660354Y-126494033D01*
X183616320Y-107450000D02*
X219750000Y-107450000D01*
X219750000Y-107450000D02*
X238290000Y-125990000D01*
X247660354Y-126494033D02*
X248400000Y-127233679D01*
X248400000Y-127233679D02*
X248400000Y-129600000D01*
X239990000Y-125990000D02*
X240494033Y-126494033D01*
D26*
X207100000Y-146750000D02*
X209775000Y-144075000D01*
X200500000Y-146900000D02*
X200650000Y-146750000D01*
X209775000Y-144075000D02*
X210125000Y-144075000D01*
X200650000Y-146750000D02*
X207100000Y-146750000D01*
D27*
X219558872Y-133741128D02*
X219100000Y-134200000D01*
X220749500Y-133741128D02*
X219558872Y-133741128D01*
X241755707Y-134638447D02*
X241755707Y-135044293D01*
X238900000Y-135600000D02*
X238400000Y-135100000D01*
X241200000Y-135600000D02*
X238900000Y-135600000D01*
X241755707Y-135044293D02*
X241200000Y-135600000D01*
D29*
X145300000Y-137700000D02*
X145972000Y-138372000D01*
X158928000Y-138372000D02*
X159400000Y-137900000D01*
X145972000Y-138372000D02*
X158928000Y-138372000D01*
X145972000Y-138728000D02*
X159028000Y-138728000D01*
X159028000Y-138728000D02*
X159400000Y-139100000D01*
X145300000Y-139400000D02*
X145972000Y-138728000D01*
M02*
