G04 #@! TF.GenerationSoftware,KiCad,Pcbnew,7.0.5-4d25ed1034~172~ubuntu22.04.1*
G04 #@! TF.CreationDate,2023-05-31T11:26:29+02:00*
G04 #@! TF.ProjectId,Drawer_Controller,44726177-6572-45f4-936f-6e74726f6c6c,rev?*
G04 #@! TF.SameCoordinates,Original*
G04 #@! TF.FileFunction,Soldermask,Top*
G04 #@! TF.FilePolarity,Negative*
%FSLAX46Y46*%
G04 Gerber Fmt 4.6, Leading zero omitted, Abs format (unit mm)*
G04 Created by KiCad (PCBNEW 7.0.5-4d25ed1034~172~ubuntu22.04.1) date 2023-05-31 11:26:29*
%MOMM*%
%LPD*%
G01*
G04 APERTURE LIST*
G04 Aperture macros list*
%AMRoundRect*
0 Rectangle with rounded corners*
0 $1 Rounding radius*
0 $2 $3 $4 $5 $6 $7 $8 $9 X,Y pos of 4 corners*
0 Add a 4 corners polygon primitive as box body*
4,1,4,$2,$3,$4,$5,$6,$7,$8,$9,$2,$3,0*
0 Add four circle primitives for the rounded corners*
1,1,$1+$1,$2,$3*
1,1,$1+$1,$4,$5*
1,1,$1+$1,$6,$7*
1,1,$1+$1,$8,$9*
0 Add four rect primitives between the rounded corners*
20,1,$1+$1,$2,$3,$4,$5,0*
20,1,$1+$1,$4,$5,$6,$7,0*
20,1,$1+$1,$6,$7,$8,$9,0*
20,1,$1+$1,$8,$9,$2,$3,0*%
G04 Aperture macros list end*
%ADD10C,0.150000*%
%ADD11C,0.300000*%
%ADD12RoundRect,0.225000X0.250000X-0.225000X0.250000X0.225000X-0.250000X0.225000X-0.250000X-0.225000X0*%
%ADD13RoundRect,0.150000X0.150000X-0.587500X0.150000X0.587500X-0.150000X0.587500X-0.150000X-0.587500X0*%
%ADD14RoundRect,0.250000X-0.300000X0.300000X-0.300000X-0.300000X0.300000X-0.300000X0.300000X0.300000X0*%
%ADD15RoundRect,0.135000X0.135000X0.185000X-0.135000X0.185000X-0.135000X-0.185000X0.135000X-0.185000X0*%
%ADD16RoundRect,0.140000X0.140000X0.170000X-0.140000X0.170000X-0.140000X-0.170000X0.140000X-0.170000X0*%
%ADD17RoundRect,0.135000X0.185000X-0.135000X0.185000X0.135000X-0.185000X0.135000X-0.185000X-0.135000X0*%
%ADD18RoundRect,0.135000X-0.185000X0.135000X-0.185000X-0.135000X0.185000X-0.135000X0.185000X0.135000X0*%
%ADD19RoundRect,0.225000X-0.250000X0.225000X-0.250000X-0.225000X0.250000X-0.225000X0.250000X0.225000X0*%
%ADD20RoundRect,0.250000X0.312500X1.075000X-0.312500X1.075000X-0.312500X-1.075000X0.312500X-1.075000X0*%
%ADD21C,3.250000*%
%ADD22R,3.050000X0.610000*%
%ADD23R,3.900000X1.945000*%
%ADD24R,0.400000X0.555000*%
%ADD25RoundRect,0.140000X0.170000X-0.140000X0.170000X0.140000X-0.170000X0.140000X-0.170000X-0.140000X0*%
%ADD26RoundRect,0.135000X-0.135000X-0.185000X0.135000X-0.185000X0.135000X0.185000X-0.135000X0.185000X0*%
%ADD27R,1.300000X4.500000*%
%ADD28R,1.800000X3.900000*%
%ADD29RoundRect,0.250000X-0.337500X-0.475000X0.337500X-0.475000X0.337500X0.475000X-0.337500X0.475000X0*%
%ADD30RoundRect,0.250000X0.650000X-0.325000X0.650000X0.325000X-0.650000X0.325000X-0.650000X-0.325000X0*%
%ADD31R,4.241800X3.810000*%
%ADD32RoundRect,0.140000X-0.170000X0.140000X-0.170000X-0.140000X0.170000X-0.140000X0.170000X0.140000X0*%
%ADD33RoundRect,0.225000X0.225000X0.250000X-0.225000X0.250000X-0.225000X-0.250000X0.225000X-0.250000X0*%
%ADD34RoundRect,0.250000X-0.475000X0.250000X-0.475000X-0.250000X0.475000X-0.250000X0.475000X0.250000X0*%
%ADD35RoundRect,0.140000X-0.140000X-0.170000X0.140000X-0.170000X0.140000X0.170000X-0.140000X0.170000X0*%
%ADD36R,0.400000X0.510000*%
%ADD37RoundRect,0.042000X0.258000X-0.943000X0.258000X0.943000X-0.258000X0.943000X-0.258000X-0.943000X0*%
%ADD38R,1.650000X1.650000*%
%ADD39C,1.650000*%
%ADD40C,3.200000*%
%ADD41RoundRect,0.250000X-0.250000X-0.475000X0.250000X-0.475000X0.250000X0.475000X-0.250000X0.475000X0*%
%ADD42RoundRect,0.218750X0.256250X-0.218750X0.256250X0.218750X-0.256250X0.218750X-0.256250X-0.218750X0*%
%ADD43RoundRect,0.150000X0.150000X-0.875000X0.150000X0.875000X-0.150000X0.875000X-0.150000X-0.875000X0*%
%ADD44R,1.700000X1.700000*%
%ADD45O,1.700000X1.700000*%
%ADD46RoundRect,0.250000X-0.650000X0.325000X-0.650000X-0.325000X0.650000X-0.325000X0.650000X0.325000X0*%
%ADD47RoundRect,0.150000X-0.150000X0.587500X-0.150000X-0.587500X0.150000X-0.587500X0.150000X0.587500X0*%
%ADD48R,0.800000X0.600000*%
%ADD49RoundRect,0.350000X-1.950000X-0.350000X1.950000X-0.350000X1.950000X0.350000X-1.950000X0.350000X0*%
%ADD50RoundRect,0.243750X0.456250X-0.243750X0.456250X0.243750X-0.456250X0.243750X-0.456250X-0.243750X0*%
%ADD51RoundRect,0.250000X0.475000X-0.250000X0.475000X0.250000X-0.475000X0.250000X-0.475000X-0.250000X0*%
%ADD52R,1.500000X0.900000*%
%ADD53R,0.900000X1.500000*%
%ADD54R,0.900000X0.900000*%
%ADD55R,0.400000X0.480000*%
%ADD56RoundRect,0.350000X1.950000X0.350000X-1.950000X0.350000X-1.950000X-0.350000X1.950000X-0.350000X0*%
%ADD57R,1.000000X0.750000*%
%ADD58RoundRect,0.008100X-0.396900X-0.126900X0.396900X-0.126900X0.396900X0.126900X-0.396900X0.126900X0*%
%ADD59RoundRect,0.027000X-0.108000X-0.378000X0.108000X-0.378000X0.108000X0.378000X-0.108000X0.378000X0*%
%ADD60R,3.700000X3.700000*%
%ADD61C,3.000000*%
%ADD62R,1.520000X1.520000*%
%ADD63C,1.520000*%
%ADD64RoundRect,0.150000X-0.587500X-0.150000X0.587500X-0.150000X0.587500X0.150000X-0.587500X0.150000X0*%
%ADD65R,4.500000X2.000000*%
%ADD66RoundRect,0.218750X-0.256250X0.218750X-0.256250X-0.218750X0.256250X-0.218750X0.256250X0.218750X0*%
%ADD67RoundRect,0.225000X-0.225000X-0.250000X0.225000X-0.250000X0.225000X0.250000X-0.225000X0.250000X0*%
%ADD68R,1.473200X0.355600*%
%ADD69R,1.500000X2.000000*%
%ADD70R,3.800000X2.000000*%
%ADD71R,0.600000X1.700000*%
%ADD72R,1.000000X2.700000*%
%ADD73RoundRect,0.155000X-0.155000X0.212500X-0.155000X-0.212500X0.155000X-0.212500X0.155000X0.212500X0*%
%ADD74RoundRect,0.725000X-0.725000X1.975000X-0.725000X-1.975000X0.725000X-1.975000X0.725000X1.975000X0*%
%ADD75R,1.350000X1.350000*%
%ADD76C,1.350000*%
%ADD77RoundRect,0.250000X-0.312500X-1.075000X0.312500X-1.075000X0.312500X1.075000X-0.312500X1.075000X0*%
%ADD78RoundRect,0.100000X-0.100000X0.637500X-0.100000X-0.637500X0.100000X-0.637500X0.100000X0.637500X0*%
%ADD79RoundRect,0.250000X-0.650000X1.000000X-0.650000X-1.000000X0.650000X-1.000000X0.650000X1.000000X0*%
%ADD80RoundRect,0.062500X0.337500X0.062500X-0.337500X0.062500X-0.337500X-0.062500X0.337500X-0.062500X0*%
%ADD81RoundRect,0.062500X0.062500X0.337500X-0.062500X0.337500X-0.062500X-0.337500X0.062500X-0.337500X0*%
%ADD82R,3.350000X3.350000*%
%ADD83RoundRect,0.250000X0.337500X0.475000X-0.337500X0.475000X-0.337500X-0.475000X0.337500X-0.475000X0*%
%ADD84RoundRect,0.150000X0.825000X0.150000X-0.825000X0.150000X-0.825000X-0.150000X0.825000X-0.150000X0*%
%ADD85R,1.350000X0.400000*%
%ADD86C,1.450000*%
%ADD87O,1.900000X0.950000*%
%ADD88R,1.900000X1.200000*%
%ADD89R,1.900000X1.500000*%
%ADD90RoundRect,0.250000X0.300000X-0.300000X0.300000X0.300000X-0.300000X0.300000X-0.300000X-0.300000X0*%
%ADD91RoundRect,0.350000X0.350000X-1.950000X0.350000X1.950000X-0.350000X1.950000X-0.350000X-1.950000X0*%
G04 APERTURE END LIST*
D10*
X206955000Y-145837500D02*
X204245000Y-145837500D01*
X204245000Y-142437500D01*
X206955000Y-142437500D01*
X206955000Y-145837500D01*
G36*
X206955000Y-145837500D02*
G01*
X204245000Y-145837500D01*
X204245000Y-142437500D01*
X206955000Y-142437500D01*
X206955000Y-145837500D01*
G37*
X203703000Y-141863500D02*
X203705000Y-141863500D01*
X203708000Y-141864500D01*
X203710000Y-141864500D01*
X203713000Y-141865500D01*
X203715000Y-141866500D01*
X203718000Y-141867500D01*
X203720000Y-141869500D01*
X203722000Y-141870500D01*
X203724000Y-141872500D01*
X203726000Y-141873500D01*
X203728000Y-141875500D01*
X203730000Y-141877500D01*
X203732000Y-141879500D01*
X203734000Y-141881500D01*
X203735000Y-141883500D01*
X203737000Y-141885500D01*
X203738000Y-141887500D01*
X203740000Y-141889500D01*
X203741000Y-141892500D01*
X203742000Y-141894500D01*
X203743000Y-141897500D01*
X203743000Y-141899500D01*
X203744000Y-141902500D01*
X203744000Y-141904500D01*
X203745000Y-141907500D01*
X203745000Y-141909500D01*
X203745000Y-141912500D01*
X203745000Y-142552500D01*
X203745000Y-142555500D01*
X203745000Y-142557500D01*
X203744000Y-142560500D01*
X203744000Y-142562500D01*
X203743000Y-142565500D01*
X203743000Y-142567500D01*
X203742000Y-142570500D01*
X203741000Y-142572500D01*
X203740000Y-142575500D01*
X203738000Y-142577500D01*
X203737000Y-142579500D01*
X203735000Y-142581500D01*
X203734000Y-142583500D01*
X203732000Y-142585500D01*
X203730000Y-142587500D01*
X203728000Y-142589500D01*
X203726000Y-142591500D01*
X203724000Y-142592500D01*
X203722000Y-142594500D01*
X203720000Y-142595500D01*
X203718000Y-142597500D01*
X203715000Y-142598500D01*
X203713000Y-142599500D01*
X203710000Y-142600500D01*
X203708000Y-142600500D01*
X203705000Y-142601500D01*
X203703000Y-142601500D01*
X203700000Y-142602500D01*
X203698000Y-142602500D01*
X203695000Y-142602500D01*
X202105000Y-142602500D01*
X202102000Y-142602500D01*
X202100000Y-142602500D01*
X202097000Y-142601500D01*
X202095000Y-142601500D01*
X202092000Y-142600500D01*
X202090000Y-142600500D01*
X202087000Y-142599500D01*
X202085000Y-142598500D01*
X202082000Y-142597500D01*
X202080000Y-142595500D01*
X202078000Y-142594500D01*
X202076000Y-142592500D01*
X202074000Y-142591500D01*
X202072000Y-142589500D01*
X202070000Y-142587500D01*
X202068000Y-142585500D01*
X202066000Y-142583500D01*
X202065000Y-142581500D01*
X202063000Y-142579500D01*
X202062000Y-142577500D01*
X202060000Y-142575500D01*
X202059000Y-142572500D01*
X202058000Y-142570500D01*
X202057000Y-142567500D01*
X202057000Y-142565500D01*
X202056000Y-142562500D01*
X202056000Y-142560500D01*
X202055000Y-142557500D01*
X202055000Y-142555500D01*
X202055000Y-142552500D01*
X202055000Y-141912500D01*
X202055000Y-141909500D01*
X202055000Y-141907500D01*
X202056000Y-141904500D01*
X202056000Y-141902500D01*
X202057000Y-141899500D01*
X202057000Y-141897500D01*
X202058000Y-141894500D01*
X202059000Y-141892500D01*
X202060000Y-141889500D01*
X202062000Y-141887500D01*
X202063000Y-141885500D01*
X202065000Y-141883500D01*
X202066000Y-141881500D01*
X202068000Y-141879500D01*
X202070000Y-141877500D01*
X202072000Y-141875500D01*
X202074000Y-141873500D01*
X202076000Y-141872500D01*
X202078000Y-141870500D01*
X202080000Y-141869500D01*
X202082000Y-141867500D01*
X202085000Y-141866500D01*
X202087000Y-141865500D01*
X202090000Y-141864500D01*
X202092000Y-141864500D01*
X202095000Y-141863500D01*
X202097000Y-141863500D01*
X202100000Y-141862500D01*
X202102000Y-141862500D01*
X202105000Y-141862500D01*
X203695000Y-141862500D01*
X203698000Y-141862500D01*
X203700000Y-141862500D01*
X203703000Y-141863500D01*
G36*
X203703000Y-141863500D02*
G01*
X203705000Y-141863500D01*
X203708000Y-141864500D01*
X203710000Y-141864500D01*
X203713000Y-141865500D01*
X203715000Y-141866500D01*
X203718000Y-141867500D01*
X203720000Y-141869500D01*
X203722000Y-141870500D01*
X203724000Y-141872500D01*
X203726000Y-141873500D01*
X203728000Y-141875500D01*
X203730000Y-141877500D01*
X203732000Y-141879500D01*
X203734000Y-141881500D01*
X203735000Y-141883500D01*
X203737000Y-141885500D01*
X203738000Y-141887500D01*
X203740000Y-141889500D01*
X203741000Y-141892500D01*
X203742000Y-141894500D01*
X203743000Y-141897500D01*
X203743000Y-141899500D01*
X203744000Y-141902500D01*
X203744000Y-141904500D01*
X203745000Y-141907500D01*
X203745000Y-141909500D01*
X203745000Y-141912500D01*
X203745000Y-142552500D01*
X203745000Y-142555500D01*
X203745000Y-142557500D01*
X203744000Y-142560500D01*
X203744000Y-142562500D01*
X203743000Y-142565500D01*
X203743000Y-142567500D01*
X203742000Y-142570500D01*
X203741000Y-142572500D01*
X203740000Y-142575500D01*
X203738000Y-142577500D01*
X203737000Y-142579500D01*
X203735000Y-142581500D01*
X203734000Y-142583500D01*
X203732000Y-142585500D01*
X203730000Y-142587500D01*
X203728000Y-142589500D01*
X203726000Y-142591500D01*
X203724000Y-142592500D01*
X203722000Y-142594500D01*
X203720000Y-142595500D01*
X203718000Y-142597500D01*
X203715000Y-142598500D01*
X203713000Y-142599500D01*
X203710000Y-142600500D01*
X203708000Y-142600500D01*
X203705000Y-142601500D01*
X203703000Y-142601500D01*
X203700000Y-142602500D01*
X203698000Y-142602500D01*
X203695000Y-142602500D01*
X202105000Y-142602500D01*
X202102000Y-142602500D01*
X202100000Y-142602500D01*
X202097000Y-142601500D01*
X202095000Y-142601500D01*
X202092000Y-142600500D01*
X202090000Y-142600500D01*
X202087000Y-142599500D01*
X202085000Y-142598500D01*
X202082000Y-142597500D01*
X202080000Y-142595500D01*
X202078000Y-142594500D01*
X202076000Y-142592500D01*
X202074000Y-142591500D01*
X202072000Y-142589500D01*
X202070000Y-142587500D01*
X202068000Y-142585500D01*
X202066000Y-142583500D01*
X202065000Y-142581500D01*
X202063000Y-142579500D01*
X202062000Y-142577500D01*
X202060000Y-142575500D01*
X202059000Y-142572500D01*
X202058000Y-142570500D01*
X202057000Y-142567500D01*
X202057000Y-142565500D01*
X202056000Y-142562500D01*
X202056000Y-142560500D01*
X202055000Y-142557500D01*
X202055000Y-142555500D01*
X202055000Y-142552500D01*
X202055000Y-141912500D01*
X202055000Y-141909500D01*
X202055000Y-141907500D01*
X202056000Y-141904500D01*
X202056000Y-141902500D01*
X202057000Y-141899500D01*
X202057000Y-141897500D01*
X202058000Y-141894500D01*
X202059000Y-141892500D01*
X202060000Y-141889500D01*
X202062000Y-141887500D01*
X202063000Y-141885500D01*
X202065000Y-141883500D01*
X202066000Y-141881500D01*
X202068000Y-141879500D01*
X202070000Y-141877500D01*
X202072000Y-141875500D01*
X202074000Y-141873500D01*
X202076000Y-141872500D01*
X202078000Y-141870500D01*
X202080000Y-141869500D01*
X202082000Y-141867500D01*
X202085000Y-141866500D01*
X202087000Y-141865500D01*
X202090000Y-141864500D01*
X202092000Y-141864500D01*
X202095000Y-141863500D01*
X202097000Y-141863500D01*
X202100000Y-141862500D01*
X202102000Y-141862500D01*
X202105000Y-141862500D01*
X203695000Y-141862500D01*
X203698000Y-141862500D01*
X203700000Y-141862500D01*
X203703000Y-141863500D01*
G37*
X203703000Y-143133500D02*
X203705000Y-143133500D01*
X203708000Y-143134500D01*
X203710000Y-143134500D01*
X203713000Y-143135500D01*
X203715000Y-143136500D01*
X203718000Y-143137500D01*
X203720000Y-143139500D01*
X203722000Y-143140500D01*
X203724000Y-143142500D01*
X203726000Y-143143500D01*
X203728000Y-143145500D01*
X203730000Y-143147500D01*
X203732000Y-143149500D01*
X203734000Y-143151500D01*
X203735000Y-143153500D01*
X203737000Y-143155500D01*
X203738000Y-143157500D01*
X203740000Y-143159500D01*
X203741000Y-143162500D01*
X203742000Y-143164500D01*
X203743000Y-143167500D01*
X203743000Y-143169500D01*
X203744000Y-143172500D01*
X203744000Y-143174500D01*
X203745000Y-143177500D01*
X203745000Y-143179500D01*
X203745000Y-143182500D01*
X203745000Y-143822500D01*
X203745000Y-143825500D01*
X203745000Y-143827500D01*
X203744000Y-143830500D01*
X203744000Y-143832500D01*
X203743000Y-143835500D01*
X203743000Y-143837500D01*
X203742000Y-143840500D01*
X203741000Y-143842500D01*
X203740000Y-143845500D01*
X203738000Y-143847500D01*
X203737000Y-143849500D01*
X203735000Y-143851500D01*
X203734000Y-143853500D01*
X203732000Y-143855500D01*
X203730000Y-143857500D01*
X203728000Y-143859500D01*
X203726000Y-143861500D01*
X203724000Y-143862500D01*
X203722000Y-143864500D01*
X203720000Y-143865500D01*
X203718000Y-143867500D01*
X203715000Y-143868500D01*
X203713000Y-143869500D01*
X203710000Y-143870500D01*
X203708000Y-143870500D01*
X203705000Y-143871500D01*
X203703000Y-143871500D01*
X203700000Y-143872500D01*
X203698000Y-143872500D01*
X203695000Y-143872500D01*
X202105000Y-143872500D01*
X202102000Y-143872500D01*
X202100000Y-143872500D01*
X202097000Y-143871500D01*
X202095000Y-143871500D01*
X202092000Y-143870500D01*
X202090000Y-143870500D01*
X202087000Y-143869500D01*
X202085000Y-143868500D01*
X202082000Y-143867500D01*
X202080000Y-143865500D01*
X202078000Y-143864500D01*
X202076000Y-143862500D01*
X202074000Y-143861500D01*
X202072000Y-143859500D01*
X202070000Y-143857500D01*
X202068000Y-143855500D01*
X202066000Y-143853500D01*
X202065000Y-143851500D01*
X202063000Y-143849500D01*
X202062000Y-143847500D01*
X202060000Y-143845500D01*
X202059000Y-143842500D01*
X202058000Y-143840500D01*
X202057000Y-143837500D01*
X202057000Y-143835500D01*
X202056000Y-143832500D01*
X202056000Y-143830500D01*
X202055000Y-143827500D01*
X202055000Y-143825500D01*
X202055000Y-143822500D01*
X202055000Y-143182500D01*
X202055000Y-143179500D01*
X202055000Y-143177500D01*
X202056000Y-143174500D01*
X202056000Y-143172500D01*
X202057000Y-143169500D01*
X202057000Y-143167500D01*
X202058000Y-143164500D01*
X202059000Y-143162500D01*
X202060000Y-143159500D01*
X202062000Y-143157500D01*
X202063000Y-143155500D01*
X202065000Y-143153500D01*
X202066000Y-143151500D01*
X202068000Y-143149500D01*
X202070000Y-143147500D01*
X202072000Y-143145500D01*
X202074000Y-143143500D01*
X202076000Y-143142500D01*
X202078000Y-143140500D01*
X202080000Y-143139500D01*
X202082000Y-143137500D01*
X202085000Y-143136500D01*
X202087000Y-143135500D01*
X202090000Y-143134500D01*
X202092000Y-143134500D01*
X202095000Y-143133500D01*
X202097000Y-143133500D01*
X202100000Y-143132500D01*
X202102000Y-143132500D01*
X202105000Y-143132500D01*
X203695000Y-143132500D01*
X203698000Y-143132500D01*
X203700000Y-143132500D01*
X203703000Y-143133500D01*
G36*
X203703000Y-143133500D02*
G01*
X203705000Y-143133500D01*
X203708000Y-143134500D01*
X203710000Y-143134500D01*
X203713000Y-143135500D01*
X203715000Y-143136500D01*
X203718000Y-143137500D01*
X203720000Y-143139500D01*
X203722000Y-143140500D01*
X203724000Y-143142500D01*
X203726000Y-143143500D01*
X203728000Y-143145500D01*
X203730000Y-143147500D01*
X203732000Y-143149500D01*
X203734000Y-143151500D01*
X203735000Y-143153500D01*
X203737000Y-143155500D01*
X203738000Y-143157500D01*
X203740000Y-143159500D01*
X203741000Y-143162500D01*
X203742000Y-143164500D01*
X203743000Y-143167500D01*
X203743000Y-143169500D01*
X203744000Y-143172500D01*
X203744000Y-143174500D01*
X203745000Y-143177500D01*
X203745000Y-143179500D01*
X203745000Y-143182500D01*
X203745000Y-143822500D01*
X203745000Y-143825500D01*
X203745000Y-143827500D01*
X203744000Y-143830500D01*
X203744000Y-143832500D01*
X203743000Y-143835500D01*
X203743000Y-143837500D01*
X203742000Y-143840500D01*
X203741000Y-143842500D01*
X203740000Y-143845500D01*
X203738000Y-143847500D01*
X203737000Y-143849500D01*
X203735000Y-143851500D01*
X203734000Y-143853500D01*
X203732000Y-143855500D01*
X203730000Y-143857500D01*
X203728000Y-143859500D01*
X203726000Y-143861500D01*
X203724000Y-143862500D01*
X203722000Y-143864500D01*
X203720000Y-143865500D01*
X203718000Y-143867500D01*
X203715000Y-143868500D01*
X203713000Y-143869500D01*
X203710000Y-143870500D01*
X203708000Y-143870500D01*
X203705000Y-143871500D01*
X203703000Y-143871500D01*
X203700000Y-143872500D01*
X203698000Y-143872500D01*
X203695000Y-143872500D01*
X202105000Y-143872500D01*
X202102000Y-143872500D01*
X202100000Y-143872500D01*
X202097000Y-143871500D01*
X202095000Y-143871500D01*
X202092000Y-143870500D01*
X202090000Y-143870500D01*
X202087000Y-143869500D01*
X202085000Y-143868500D01*
X202082000Y-143867500D01*
X202080000Y-143865500D01*
X202078000Y-143864500D01*
X202076000Y-143862500D01*
X202074000Y-143861500D01*
X202072000Y-143859500D01*
X202070000Y-143857500D01*
X202068000Y-143855500D01*
X202066000Y-143853500D01*
X202065000Y-143851500D01*
X202063000Y-143849500D01*
X202062000Y-143847500D01*
X202060000Y-143845500D01*
X202059000Y-143842500D01*
X202058000Y-143840500D01*
X202057000Y-143837500D01*
X202057000Y-143835500D01*
X202056000Y-143832500D01*
X202056000Y-143830500D01*
X202055000Y-143827500D01*
X202055000Y-143825500D01*
X202055000Y-143822500D01*
X202055000Y-143182500D01*
X202055000Y-143179500D01*
X202055000Y-143177500D01*
X202056000Y-143174500D01*
X202056000Y-143172500D01*
X202057000Y-143169500D01*
X202057000Y-143167500D01*
X202058000Y-143164500D01*
X202059000Y-143162500D01*
X202060000Y-143159500D01*
X202062000Y-143157500D01*
X202063000Y-143155500D01*
X202065000Y-143153500D01*
X202066000Y-143151500D01*
X202068000Y-143149500D01*
X202070000Y-143147500D01*
X202072000Y-143145500D01*
X202074000Y-143143500D01*
X202076000Y-143142500D01*
X202078000Y-143140500D01*
X202080000Y-143139500D01*
X202082000Y-143137500D01*
X202085000Y-143136500D01*
X202087000Y-143135500D01*
X202090000Y-143134500D01*
X202092000Y-143134500D01*
X202095000Y-143133500D01*
X202097000Y-143133500D01*
X202100000Y-143132500D01*
X202102000Y-143132500D01*
X202105000Y-143132500D01*
X203695000Y-143132500D01*
X203698000Y-143132500D01*
X203700000Y-143132500D01*
X203703000Y-143133500D01*
G37*
X203703000Y-144403500D02*
X203705000Y-144403500D01*
X203708000Y-144404500D01*
X203710000Y-144404500D01*
X203713000Y-144405500D01*
X203715000Y-144406500D01*
X203718000Y-144407500D01*
X203720000Y-144409500D01*
X203722000Y-144410500D01*
X203724000Y-144412500D01*
X203726000Y-144413500D01*
X203728000Y-144415500D01*
X203730000Y-144417500D01*
X203732000Y-144419500D01*
X203734000Y-144421500D01*
X203735000Y-144423500D01*
X203737000Y-144425500D01*
X203738000Y-144427500D01*
X203740000Y-144429500D01*
X203741000Y-144432500D01*
X203742000Y-144434500D01*
X203743000Y-144437500D01*
X203743000Y-144439500D01*
X203744000Y-144442500D01*
X203744000Y-144444500D01*
X203745000Y-144447500D01*
X203745000Y-144449500D01*
X203745000Y-144452500D01*
X203745000Y-145092500D01*
X203745000Y-145095500D01*
X203745000Y-145097500D01*
X203744000Y-145100500D01*
X203744000Y-145102500D01*
X203743000Y-145105500D01*
X203743000Y-145107500D01*
X203742000Y-145110500D01*
X203741000Y-145112500D01*
X203740000Y-145115500D01*
X203738000Y-145117500D01*
X203737000Y-145119500D01*
X203735000Y-145121500D01*
X203734000Y-145123500D01*
X203732000Y-145125500D01*
X203730000Y-145127500D01*
X203728000Y-145129500D01*
X203726000Y-145131500D01*
X203724000Y-145132500D01*
X203722000Y-145134500D01*
X203720000Y-145135500D01*
X203718000Y-145137500D01*
X203715000Y-145138500D01*
X203713000Y-145139500D01*
X203710000Y-145140500D01*
X203708000Y-145140500D01*
X203705000Y-145141500D01*
X203703000Y-145141500D01*
X203700000Y-145142500D01*
X203698000Y-145142500D01*
X203695000Y-145142500D01*
X202105000Y-145142500D01*
X202102000Y-145142500D01*
X202100000Y-145142500D01*
X202097000Y-145141500D01*
X202095000Y-145141500D01*
X202092000Y-145140500D01*
X202090000Y-145140500D01*
X202087000Y-145139500D01*
X202085000Y-145138500D01*
X202082000Y-145137500D01*
X202080000Y-145135500D01*
X202078000Y-145134500D01*
X202076000Y-145132500D01*
X202074000Y-145131500D01*
X202072000Y-145129500D01*
X202070000Y-145127500D01*
X202068000Y-145125500D01*
X202066000Y-145123500D01*
X202065000Y-145121500D01*
X202063000Y-145119500D01*
X202062000Y-145117500D01*
X202060000Y-145115500D01*
X202059000Y-145112500D01*
X202058000Y-145110500D01*
X202057000Y-145107500D01*
X202057000Y-145105500D01*
X202056000Y-145102500D01*
X202056000Y-145100500D01*
X202055000Y-145097500D01*
X202055000Y-145095500D01*
X202055000Y-145092500D01*
X202055000Y-144452500D01*
X202055000Y-144449500D01*
X202055000Y-144447500D01*
X202056000Y-144444500D01*
X202056000Y-144442500D01*
X202057000Y-144439500D01*
X202057000Y-144437500D01*
X202058000Y-144434500D01*
X202059000Y-144432500D01*
X202060000Y-144429500D01*
X202062000Y-144427500D01*
X202063000Y-144425500D01*
X202065000Y-144423500D01*
X202066000Y-144421500D01*
X202068000Y-144419500D01*
X202070000Y-144417500D01*
X202072000Y-144415500D01*
X202074000Y-144413500D01*
X202076000Y-144412500D01*
X202078000Y-144410500D01*
X202080000Y-144409500D01*
X202082000Y-144407500D01*
X202085000Y-144406500D01*
X202087000Y-144405500D01*
X202090000Y-144404500D01*
X202092000Y-144404500D01*
X202095000Y-144403500D01*
X202097000Y-144403500D01*
X202100000Y-144402500D01*
X202102000Y-144402500D01*
X202105000Y-144402500D01*
X203695000Y-144402500D01*
X203698000Y-144402500D01*
X203700000Y-144402500D01*
X203703000Y-144403500D01*
G36*
X203703000Y-144403500D02*
G01*
X203705000Y-144403500D01*
X203708000Y-144404500D01*
X203710000Y-144404500D01*
X203713000Y-144405500D01*
X203715000Y-144406500D01*
X203718000Y-144407500D01*
X203720000Y-144409500D01*
X203722000Y-144410500D01*
X203724000Y-144412500D01*
X203726000Y-144413500D01*
X203728000Y-144415500D01*
X203730000Y-144417500D01*
X203732000Y-144419500D01*
X203734000Y-144421500D01*
X203735000Y-144423500D01*
X203737000Y-144425500D01*
X203738000Y-144427500D01*
X203740000Y-144429500D01*
X203741000Y-144432500D01*
X203742000Y-144434500D01*
X203743000Y-144437500D01*
X203743000Y-144439500D01*
X203744000Y-144442500D01*
X203744000Y-144444500D01*
X203745000Y-144447500D01*
X203745000Y-144449500D01*
X203745000Y-144452500D01*
X203745000Y-145092500D01*
X203745000Y-145095500D01*
X203745000Y-145097500D01*
X203744000Y-145100500D01*
X203744000Y-145102500D01*
X203743000Y-145105500D01*
X203743000Y-145107500D01*
X203742000Y-145110500D01*
X203741000Y-145112500D01*
X203740000Y-145115500D01*
X203738000Y-145117500D01*
X203737000Y-145119500D01*
X203735000Y-145121500D01*
X203734000Y-145123500D01*
X203732000Y-145125500D01*
X203730000Y-145127500D01*
X203728000Y-145129500D01*
X203726000Y-145131500D01*
X203724000Y-145132500D01*
X203722000Y-145134500D01*
X203720000Y-145135500D01*
X203718000Y-145137500D01*
X203715000Y-145138500D01*
X203713000Y-145139500D01*
X203710000Y-145140500D01*
X203708000Y-145140500D01*
X203705000Y-145141500D01*
X203703000Y-145141500D01*
X203700000Y-145142500D01*
X203698000Y-145142500D01*
X203695000Y-145142500D01*
X202105000Y-145142500D01*
X202102000Y-145142500D01*
X202100000Y-145142500D01*
X202097000Y-145141500D01*
X202095000Y-145141500D01*
X202092000Y-145140500D01*
X202090000Y-145140500D01*
X202087000Y-145139500D01*
X202085000Y-145138500D01*
X202082000Y-145137500D01*
X202080000Y-145135500D01*
X202078000Y-145134500D01*
X202076000Y-145132500D01*
X202074000Y-145131500D01*
X202072000Y-145129500D01*
X202070000Y-145127500D01*
X202068000Y-145125500D01*
X202066000Y-145123500D01*
X202065000Y-145121500D01*
X202063000Y-145119500D01*
X202062000Y-145117500D01*
X202060000Y-145115500D01*
X202059000Y-145112500D01*
X202058000Y-145110500D01*
X202057000Y-145107500D01*
X202057000Y-145105500D01*
X202056000Y-145102500D01*
X202056000Y-145100500D01*
X202055000Y-145097500D01*
X202055000Y-145095500D01*
X202055000Y-145092500D01*
X202055000Y-144452500D01*
X202055000Y-144449500D01*
X202055000Y-144447500D01*
X202056000Y-144444500D01*
X202056000Y-144442500D01*
X202057000Y-144439500D01*
X202057000Y-144437500D01*
X202058000Y-144434500D01*
X202059000Y-144432500D01*
X202060000Y-144429500D01*
X202062000Y-144427500D01*
X202063000Y-144425500D01*
X202065000Y-144423500D01*
X202066000Y-144421500D01*
X202068000Y-144419500D01*
X202070000Y-144417500D01*
X202072000Y-144415500D01*
X202074000Y-144413500D01*
X202076000Y-144412500D01*
X202078000Y-144410500D01*
X202080000Y-144409500D01*
X202082000Y-144407500D01*
X202085000Y-144406500D01*
X202087000Y-144405500D01*
X202090000Y-144404500D01*
X202092000Y-144404500D01*
X202095000Y-144403500D01*
X202097000Y-144403500D01*
X202100000Y-144402500D01*
X202102000Y-144402500D01*
X202105000Y-144402500D01*
X203695000Y-144402500D01*
X203698000Y-144402500D01*
X203700000Y-144402500D01*
X203703000Y-144403500D01*
G37*
X203703000Y-145673500D02*
X203705000Y-145673500D01*
X203708000Y-145674500D01*
X203710000Y-145674500D01*
X203713000Y-145675500D01*
X203715000Y-145676500D01*
X203718000Y-145677500D01*
X203720000Y-145679500D01*
X203722000Y-145680500D01*
X203724000Y-145682500D01*
X203726000Y-145683500D01*
X203728000Y-145685500D01*
X203730000Y-145687500D01*
X203732000Y-145689500D01*
X203734000Y-145691500D01*
X203735000Y-145693500D01*
X203737000Y-145695500D01*
X203738000Y-145697500D01*
X203740000Y-145699500D01*
X203741000Y-145702500D01*
X203742000Y-145704500D01*
X203743000Y-145707500D01*
X203743000Y-145709500D01*
X203744000Y-145712500D01*
X203744000Y-145714500D01*
X203745000Y-145717500D01*
X203745000Y-145719500D01*
X203745000Y-145722500D01*
X203745000Y-146362500D01*
X203745000Y-146365500D01*
X203745000Y-146367500D01*
X203744000Y-146370500D01*
X203744000Y-146372500D01*
X203743000Y-146375500D01*
X203743000Y-146377500D01*
X203742000Y-146380500D01*
X203741000Y-146382500D01*
X203740000Y-146385500D01*
X203738000Y-146387500D01*
X203737000Y-146389500D01*
X203735000Y-146391500D01*
X203734000Y-146393500D01*
X203732000Y-146395500D01*
X203730000Y-146397500D01*
X203728000Y-146399500D01*
X203726000Y-146401500D01*
X203724000Y-146402500D01*
X203722000Y-146404500D01*
X203720000Y-146405500D01*
X203718000Y-146407500D01*
X203715000Y-146408500D01*
X203713000Y-146409500D01*
X203710000Y-146410500D01*
X203708000Y-146410500D01*
X203705000Y-146411500D01*
X203703000Y-146411500D01*
X203700000Y-146412500D01*
X203698000Y-146412500D01*
X203695000Y-146412500D01*
X202105000Y-146412500D01*
X202102000Y-146412500D01*
X202100000Y-146412500D01*
X202097000Y-146411500D01*
X202095000Y-146411500D01*
X202092000Y-146410500D01*
X202090000Y-146410500D01*
X202087000Y-146409500D01*
X202085000Y-146408500D01*
X202082000Y-146407500D01*
X202080000Y-146405500D01*
X202078000Y-146404500D01*
X202076000Y-146402500D01*
X202074000Y-146401500D01*
X202072000Y-146399500D01*
X202070000Y-146397500D01*
X202068000Y-146395500D01*
X202066000Y-146393500D01*
X202065000Y-146391500D01*
X202063000Y-146389500D01*
X202062000Y-146387500D01*
X202060000Y-146385500D01*
X202059000Y-146382500D01*
X202058000Y-146380500D01*
X202057000Y-146377500D01*
X202057000Y-146375500D01*
X202056000Y-146372500D01*
X202056000Y-146370500D01*
X202055000Y-146367500D01*
X202055000Y-146365500D01*
X202055000Y-146362500D01*
X202055000Y-145722500D01*
X202055000Y-145719500D01*
X202055000Y-145717500D01*
X202056000Y-145714500D01*
X202056000Y-145712500D01*
X202057000Y-145709500D01*
X202057000Y-145707500D01*
X202058000Y-145704500D01*
X202059000Y-145702500D01*
X202060000Y-145699500D01*
X202062000Y-145697500D01*
X202063000Y-145695500D01*
X202065000Y-145693500D01*
X202066000Y-145691500D01*
X202068000Y-145689500D01*
X202070000Y-145687500D01*
X202072000Y-145685500D01*
X202074000Y-145683500D01*
X202076000Y-145682500D01*
X202078000Y-145680500D01*
X202080000Y-145679500D01*
X202082000Y-145677500D01*
X202085000Y-145676500D01*
X202087000Y-145675500D01*
X202090000Y-145674500D01*
X202092000Y-145674500D01*
X202095000Y-145673500D01*
X202097000Y-145673500D01*
X202100000Y-145672500D01*
X202102000Y-145672500D01*
X202105000Y-145672500D01*
X203695000Y-145672500D01*
X203698000Y-145672500D01*
X203700000Y-145672500D01*
X203703000Y-145673500D01*
G36*
X203703000Y-145673500D02*
G01*
X203705000Y-145673500D01*
X203708000Y-145674500D01*
X203710000Y-145674500D01*
X203713000Y-145675500D01*
X203715000Y-145676500D01*
X203718000Y-145677500D01*
X203720000Y-145679500D01*
X203722000Y-145680500D01*
X203724000Y-145682500D01*
X203726000Y-145683500D01*
X203728000Y-145685500D01*
X203730000Y-145687500D01*
X203732000Y-145689500D01*
X203734000Y-145691500D01*
X203735000Y-145693500D01*
X203737000Y-145695500D01*
X203738000Y-145697500D01*
X203740000Y-145699500D01*
X203741000Y-145702500D01*
X203742000Y-145704500D01*
X203743000Y-145707500D01*
X203743000Y-145709500D01*
X203744000Y-145712500D01*
X203744000Y-145714500D01*
X203745000Y-145717500D01*
X203745000Y-145719500D01*
X203745000Y-145722500D01*
X203745000Y-146362500D01*
X203745000Y-146365500D01*
X203745000Y-146367500D01*
X203744000Y-146370500D01*
X203744000Y-146372500D01*
X203743000Y-146375500D01*
X203743000Y-146377500D01*
X203742000Y-146380500D01*
X203741000Y-146382500D01*
X203740000Y-146385500D01*
X203738000Y-146387500D01*
X203737000Y-146389500D01*
X203735000Y-146391500D01*
X203734000Y-146393500D01*
X203732000Y-146395500D01*
X203730000Y-146397500D01*
X203728000Y-146399500D01*
X203726000Y-146401500D01*
X203724000Y-146402500D01*
X203722000Y-146404500D01*
X203720000Y-146405500D01*
X203718000Y-146407500D01*
X203715000Y-146408500D01*
X203713000Y-146409500D01*
X203710000Y-146410500D01*
X203708000Y-146410500D01*
X203705000Y-146411500D01*
X203703000Y-146411500D01*
X203700000Y-146412500D01*
X203698000Y-146412500D01*
X203695000Y-146412500D01*
X202105000Y-146412500D01*
X202102000Y-146412500D01*
X202100000Y-146412500D01*
X202097000Y-146411500D01*
X202095000Y-146411500D01*
X202092000Y-146410500D01*
X202090000Y-146410500D01*
X202087000Y-146409500D01*
X202085000Y-146408500D01*
X202082000Y-146407500D01*
X202080000Y-146405500D01*
X202078000Y-146404500D01*
X202076000Y-146402500D01*
X202074000Y-146401500D01*
X202072000Y-146399500D01*
X202070000Y-146397500D01*
X202068000Y-146395500D01*
X202066000Y-146393500D01*
X202065000Y-146391500D01*
X202063000Y-146389500D01*
X202062000Y-146387500D01*
X202060000Y-146385500D01*
X202059000Y-146382500D01*
X202058000Y-146380500D01*
X202057000Y-146377500D01*
X202057000Y-146375500D01*
X202056000Y-146372500D01*
X202056000Y-146370500D01*
X202055000Y-146367500D01*
X202055000Y-146365500D01*
X202055000Y-146362500D01*
X202055000Y-145722500D01*
X202055000Y-145719500D01*
X202055000Y-145717500D01*
X202056000Y-145714500D01*
X202056000Y-145712500D01*
X202057000Y-145709500D01*
X202057000Y-145707500D01*
X202058000Y-145704500D01*
X202059000Y-145702500D01*
X202060000Y-145699500D01*
X202062000Y-145697500D01*
X202063000Y-145695500D01*
X202065000Y-145693500D01*
X202066000Y-145691500D01*
X202068000Y-145689500D01*
X202070000Y-145687500D01*
X202072000Y-145685500D01*
X202074000Y-145683500D01*
X202076000Y-145682500D01*
X202078000Y-145680500D01*
X202080000Y-145679500D01*
X202082000Y-145677500D01*
X202085000Y-145676500D01*
X202087000Y-145675500D01*
X202090000Y-145674500D01*
X202092000Y-145674500D01*
X202095000Y-145673500D01*
X202097000Y-145673500D01*
X202100000Y-145672500D01*
X202102000Y-145672500D01*
X202105000Y-145672500D01*
X203695000Y-145672500D01*
X203698000Y-145672500D01*
X203700000Y-145672500D01*
X203703000Y-145673500D01*
G37*
X209103000Y-141863500D02*
X209105000Y-141863500D01*
X209108000Y-141864500D01*
X209110000Y-141864500D01*
X209113000Y-141865500D01*
X209115000Y-141866500D01*
X209118000Y-141867500D01*
X209120000Y-141869500D01*
X209122000Y-141870500D01*
X209124000Y-141872500D01*
X209126000Y-141873500D01*
X209128000Y-141875500D01*
X209130000Y-141877500D01*
X209132000Y-141879500D01*
X209134000Y-141881500D01*
X209135000Y-141883500D01*
X209137000Y-141885500D01*
X209138000Y-141887500D01*
X209140000Y-141889500D01*
X209141000Y-141892500D01*
X209142000Y-141894500D01*
X209143000Y-141897500D01*
X209143000Y-141899500D01*
X209144000Y-141902500D01*
X209144000Y-141904500D01*
X209145000Y-141907500D01*
X209145000Y-141909500D01*
X209145000Y-141912500D01*
X209145000Y-142552500D01*
X209145000Y-142555500D01*
X209145000Y-142557500D01*
X209144000Y-142560500D01*
X209144000Y-142562500D01*
X209143000Y-142565500D01*
X209143000Y-142567500D01*
X209142000Y-142570500D01*
X209141000Y-142572500D01*
X209140000Y-142575500D01*
X209138000Y-142577500D01*
X209137000Y-142579500D01*
X209135000Y-142581500D01*
X209134000Y-142583500D01*
X209132000Y-142585500D01*
X209130000Y-142587500D01*
X209128000Y-142589500D01*
X209126000Y-142591500D01*
X209124000Y-142592500D01*
X209122000Y-142594500D01*
X209120000Y-142595500D01*
X209118000Y-142597500D01*
X209115000Y-142598500D01*
X209113000Y-142599500D01*
X209110000Y-142600500D01*
X209108000Y-142600500D01*
X209105000Y-142601500D01*
X209103000Y-142601500D01*
X209100000Y-142602500D01*
X209098000Y-142602500D01*
X209095000Y-142602500D01*
X207505000Y-142602500D01*
X207502000Y-142602500D01*
X207500000Y-142602500D01*
X207497000Y-142601500D01*
X207495000Y-142601500D01*
X207492000Y-142600500D01*
X207490000Y-142600500D01*
X207487000Y-142599500D01*
X207485000Y-142598500D01*
X207482000Y-142597500D01*
X207480000Y-142595500D01*
X207478000Y-142594500D01*
X207476000Y-142592500D01*
X207474000Y-142591500D01*
X207472000Y-142589500D01*
X207470000Y-142587500D01*
X207468000Y-142585500D01*
X207466000Y-142583500D01*
X207465000Y-142581500D01*
X207463000Y-142579500D01*
X207462000Y-142577500D01*
X207460000Y-142575500D01*
X207459000Y-142572500D01*
X207458000Y-142570500D01*
X207457000Y-142567500D01*
X207457000Y-142565500D01*
X207456000Y-142562500D01*
X207456000Y-142560500D01*
X207455000Y-142557500D01*
X207455000Y-142555500D01*
X207455000Y-142552500D01*
X207455000Y-141912500D01*
X207455000Y-141909500D01*
X207455000Y-141907500D01*
X207456000Y-141904500D01*
X207456000Y-141902500D01*
X207457000Y-141899500D01*
X207457000Y-141897500D01*
X207458000Y-141894500D01*
X207459000Y-141892500D01*
X207460000Y-141889500D01*
X207462000Y-141887500D01*
X207463000Y-141885500D01*
X207465000Y-141883500D01*
X207466000Y-141881500D01*
X207468000Y-141879500D01*
X207470000Y-141877500D01*
X207472000Y-141875500D01*
X207474000Y-141873500D01*
X207476000Y-141872500D01*
X207478000Y-141870500D01*
X207480000Y-141869500D01*
X207482000Y-141867500D01*
X207485000Y-141866500D01*
X207487000Y-141865500D01*
X207490000Y-141864500D01*
X207492000Y-141864500D01*
X207495000Y-141863500D01*
X207497000Y-141863500D01*
X207500000Y-141862500D01*
X207502000Y-141862500D01*
X207505000Y-141862500D01*
X209095000Y-141862500D01*
X209098000Y-141862500D01*
X209100000Y-141862500D01*
X209103000Y-141863500D01*
G36*
X209103000Y-141863500D02*
G01*
X209105000Y-141863500D01*
X209108000Y-141864500D01*
X209110000Y-141864500D01*
X209113000Y-141865500D01*
X209115000Y-141866500D01*
X209118000Y-141867500D01*
X209120000Y-141869500D01*
X209122000Y-141870500D01*
X209124000Y-141872500D01*
X209126000Y-141873500D01*
X209128000Y-141875500D01*
X209130000Y-141877500D01*
X209132000Y-141879500D01*
X209134000Y-141881500D01*
X209135000Y-141883500D01*
X209137000Y-141885500D01*
X209138000Y-141887500D01*
X209140000Y-141889500D01*
X209141000Y-141892500D01*
X209142000Y-141894500D01*
X209143000Y-141897500D01*
X209143000Y-141899500D01*
X209144000Y-141902500D01*
X209144000Y-141904500D01*
X209145000Y-141907500D01*
X209145000Y-141909500D01*
X209145000Y-141912500D01*
X209145000Y-142552500D01*
X209145000Y-142555500D01*
X209145000Y-142557500D01*
X209144000Y-142560500D01*
X209144000Y-142562500D01*
X209143000Y-142565500D01*
X209143000Y-142567500D01*
X209142000Y-142570500D01*
X209141000Y-142572500D01*
X209140000Y-142575500D01*
X209138000Y-142577500D01*
X209137000Y-142579500D01*
X209135000Y-142581500D01*
X209134000Y-142583500D01*
X209132000Y-142585500D01*
X209130000Y-142587500D01*
X209128000Y-142589500D01*
X209126000Y-142591500D01*
X209124000Y-142592500D01*
X209122000Y-142594500D01*
X209120000Y-142595500D01*
X209118000Y-142597500D01*
X209115000Y-142598500D01*
X209113000Y-142599500D01*
X209110000Y-142600500D01*
X209108000Y-142600500D01*
X209105000Y-142601500D01*
X209103000Y-142601500D01*
X209100000Y-142602500D01*
X209098000Y-142602500D01*
X209095000Y-142602500D01*
X207505000Y-142602500D01*
X207502000Y-142602500D01*
X207500000Y-142602500D01*
X207497000Y-142601500D01*
X207495000Y-142601500D01*
X207492000Y-142600500D01*
X207490000Y-142600500D01*
X207487000Y-142599500D01*
X207485000Y-142598500D01*
X207482000Y-142597500D01*
X207480000Y-142595500D01*
X207478000Y-142594500D01*
X207476000Y-142592500D01*
X207474000Y-142591500D01*
X207472000Y-142589500D01*
X207470000Y-142587500D01*
X207468000Y-142585500D01*
X207466000Y-142583500D01*
X207465000Y-142581500D01*
X207463000Y-142579500D01*
X207462000Y-142577500D01*
X207460000Y-142575500D01*
X207459000Y-142572500D01*
X207458000Y-142570500D01*
X207457000Y-142567500D01*
X207457000Y-142565500D01*
X207456000Y-142562500D01*
X207456000Y-142560500D01*
X207455000Y-142557500D01*
X207455000Y-142555500D01*
X207455000Y-142552500D01*
X207455000Y-141912500D01*
X207455000Y-141909500D01*
X207455000Y-141907500D01*
X207456000Y-141904500D01*
X207456000Y-141902500D01*
X207457000Y-141899500D01*
X207457000Y-141897500D01*
X207458000Y-141894500D01*
X207459000Y-141892500D01*
X207460000Y-141889500D01*
X207462000Y-141887500D01*
X207463000Y-141885500D01*
X207465000Y-141883500D01*
X207466000Y-141881500D01*
X207468000Y-141879500D01*
X207470000Y-141877500D01*
X207472000Y-141875500D01*
X207474000Y-141873500D01*
X207476000Y-141872500D01*
X207478000Y-141870500D01*
X207480000Y-141869500D01*
X207482000Y-141867500D01*
X207485000Y-141866500D01*
X207487000Y-141865500D01*
X207490000Y-141864500D01*
X207492000Y-141864500D01*
X207495000Y-141863500D01*
X207497000Y-141863500D01*
X207500000Y-141862500D01*
X207502000Y-141862500D01*
X207505000Y-141862500D01*
X209095000Y-141862500D01*
X209098000Y-141862500D01*
X209100000Y-141862500D01*
X209103000Y-141863500D01*
G37*
X209103000Y-143133500D02*
X209105000Y-143133500D01*
X209108000Y-143134500D01*
X209110000Y-143134500D01*
X209113000Y-143135500D01*
X209115000Y-143136500D01*
X209118000Y-143137500D01*
X209120000Y-143139500D01*
X209122000Y-143140500D01*
X209124000Y-143142500D01*
X209126000Y-143143500D01*
X209128000Y-143145500D01*
X209130000Y-143147500D01*
X209132000Y-143149500D01*
X209134000Y-143151500D01*
X209135000Y-143153500D01*
X209137000Y-143155500D01*
X209138000Y-143157500D01*
X209140000Y-143159500D01*
X209141000Y-143162500D01*
X209142000Y-143164500D01*
X209143000Y-143167500D01*
X209143000Y-143169500D01*
X209144000Y-143172500D01*
X209144000Y-143174500D01*
X209145000Y-143177500D01*
X209145000Y-143179500D01*
X209145000Y-143182500D01*
X209145000Y-143822500D01*
X209145000Y-143825500D01*
X209145000Y-143827500D01*
X209144000Y-143830500D01*
X209144000Y-143832500D01*
X209143000Y-143835500D01*
X209143000Y-143837500D01*
X209142000Y-143840500D01*
X209141000Y-143842500D01*
X209140000Y-143845500D01*
X209138000Y-143847500D01*
X209137000Y-143849500D01*
X209135000Y-143851500D01*
X209134000Y-143853500D01*
X209132000Y-143855500D01*
X209130000Y-143857500D01*
X209128000Y-143859500D01*
X209126000Y-143861500D01*
X209124000Y-143862500D01*
X209122000Y-143864500D01*
X209120000Y-143865500D01*
X209118000Y-143867500D01*
X209115000Y-143868500D01*
X209113000Y-143869500D01*
X209110000Y-143870500D01*
X209108000Y-143870500D01*
X209105000Y-143871500D01*
X209103000Y-143871500D01*
X209100000Y-143872500D01*
X209098000Y-143872500D01*
X209095000Y-143872500D01*
X207505000Y-143872500D01*
X207502000Y-143872500D01*
X207500000Y-143872500D01*
X207497000Y-143871500D01*
X207495000Y-143871500D01*
X207492000Y-143870500D01*
X207490000Y-143870500D01*
X207487000Y-143869500D01*
X207485000Y-143868500D01*
X207482000Y-143867500D01*
X207480000Y-143865500D01*
X207478000Y-143864500D01*
X207476000Y-143862500D01*
X207474000Y-143861500D01*
X207472000Y-143859500D01*
X207470000Y-143857500D01*
X207468000Y-143855500D01*
X207466000Y-143853500D01*
X207465000Y-143851500D01*
X207463000Y-143849500D01*
X207462000Y-143847500D01*
X207460000Y-143845500D01*
X207459000Y-143842500D01*
X207458000Y-143840500D01*
X207457000Y-143837500D01*
X207457000Y-143835500D01*
X207456000Y-143832500D01*
X207456000Y-143830500D01*
X207455000Y-143827500D01*
X207455000Y-143825500D01*
X207455000Y-143822500D01*
X207455000Y-143182500D01*
X207455000Y-143179500D01*
X207455000Y-143177500D01*
X207456000Y-143174500D01*
X207456000Y-143172500D01*
X207457000Y-143169500D01*
X207457000Y-143167500D01*
X207458000Y-143164500D01*
X207459000Y-143162500D01*
X207460000Y-143159500D01*
X207462000Y-143157500D01*
X207463000Y-143155500D01*
X207465000Y-143153500D01*
X207466000Y-143151500D01*
X207468000Y-143149500D01*
X207470000Y-143147500D01*
X207472000Y-143145500D01*
X207474000Y-143143500D01*
X207476000Y-143142500D01*
X207478000Y-143140500D01*
X207480000Y-143139500D01*
X207482000Y-143137500D01*
X207485000Y-143136500D01*
X207487000Y-143135500D01*
X207490000Y-143134500D01*
X207492000Y-143134500D01*
X207495000Y-143133500D01*
X207497000Y-143133500D01*
X207500000Y-143132500D01*
X207502000Y-143132500D01*
X207505000Y-143132500D01*
X209095000Y-143132500D01*
X209098000Y-143132500D01*
X209100000Y-143132500D01*
X209103000Y-143133500D01*
G36*
X209103000Y-143133500D02*
G01*
X209105000Y-143133500D01*
X209108000Y-143134500D01*
X209110000Y-143134500D01*
X209113000Y-143135500D01*
X209115000Y-143136500D01*
X209118000Y-143137500D01*
X209120000Y-143139500D01*
X209122000Y-143140500D01*
X209124000Y-143142500D01*
X209126000Y-143143500D01*
X209128000Y-143145500D01*
X209130000Y-143147500D01*
X209132000Y-143149500D01*
X209134000Y-143151500D01*
X209135000Y-143153500D01*
X209137000Y-143155500D01*
X209138000Y-143157500D01*
X209140000Y-143159500D01*
X209141000Y-143162500D01*
X209142000Y-143164500D01*
X209143000Y-143167500D01*
X209143000Y-143169500D01*
X209144000Y-143172500D01*
X209144000Y-143174500D01*
X209145000Y-143177500D01*
X209145000Y-143179500D01*
X209145000Y-143182500D01*
X209145000Y-143822500D01*
X209145000Y-143825500D01*
X209145000Y-143827500D01*
X209144000Y-143830500D01*
X209144000Y-143832500D01*
X209143000Y-143835500D01*
X209143000Y-143837500D01*
X209142000Y-143840500D01*
X209141000Y-143842500D01*
X209140000Y-143845500D01*
X209138000Y-143847500D01*
X209137000Y-143849500D01*
X209135000Y-143851500D01*
X209134000Y-143853500D01*
X209132000Y-143855500D01*
X209130000Y-143857500D01*
X209128000Y-143859500D01*
X209126000Y-143861500D01*
X209124000Y-143862500D01*
X209122000Y-143864500D01*
X209120000Y-143865500D01*
X209118000Y-143867500D01*
X209115000Y-143868500D01*
X209113000Y-143869500D01*
X209110000Y-143870500D01*
X209108000Y-143870500D01*
X209105000Y-143871500D01*
X209103000Y-143871500D01*
X209100000Y-143872500D01*
X209098000Y-143872500D01*
X209095000Y-143872500D01*
X207505000Y-143872500D01*
X207502000Y-143872500D01*
X207500000Y-143872500D01*
X207497000Y-143871500D01*
X207495000Y-143871500D01*
X207492000Y-143870500D01*
X207490000Y-143870500D01*
X207487000Y-143869500D01*
X207485000Y-143868500D01*
X207482000Y-143867500D01*
X207480000Y-143865500D01*
X207478000Y-143864500D01*
X207476000Y-143862500D01*
X207474000Y-143861500D01*
X207472000Y-143859500D01*
X207470000Y-143857500D01*
X207468000Y-143855500D01*
X207466000Y-143853500D01*
X207465000Y-143851500D01*
X207463000Y-143849500D01*
X207462000Y-143847500D01*
X207460000Y-143845500D01*
X207459000Y-143842500D01*
X207458000Y-143840500D01*
X207457000Y-143837500D01*
X207457000Y-143835500D01*
X207456000Y-143832500D01*
X207456000Y-143830500D01*
X207455000Y-143827500D01*
X207455000Y-143825500D01*
X207455000Y-143822500D01*
X207455000Y-143182500D01*
X207455000Y-143179500D01*
X207455000Y-143177500D01*
X207456000Y-143174500D01*
X207456000Y-143172500D01*
X207457000Y-143169500D01*
X207457000Y-143167500D01*
X207458000Y-143164500D01*
X207459000Y-143162500D01*
X207460000Y-143159500D01*
X207462000Y-143157500D01*
X207463000Y-143155500D01*
X207465000Y-143153500D01*
X207466000Y-143151500D01*
X207468000Y-143149500D01*
X207470000Y-143147500D01*
X207472000Y-143145500D01*
X207474000Y-143143500D01*
X207476000Y-143142500D01*
X207478000Y-143140500D01*
X207480000Y-143139500D01*
X207482000Y-143137500D01*
X207485000Y-143136500D01*
X207487000Y-143135500D01*
X207490000Y-143134500D01*
X207492000Y-143134500D01*
X207495000Y-143133500D01*
X207497000Y-143133500D01*
X207500000Y-143132500D01*
X207502000Y-143132500D01*
X207505000Y-143132500D01*
X209095000Y-143132500D01*
X209098000Y-143132500D01*
X209100000Y-143132500D01*
X209103000Y-143133500D01*
G37*
X209103000Y-144403500D02*
X209105000Y-144403500D01*
X209108000Y-144404500D01*
X209110000Y-144404500D01*
X209113000Y-144405500D01*
X209115000Y-144406500D01*
X209118000Y-144407500D01*
X209120000Y-144409500D01*
X209122000Y-144410500D01*
X209124000Y-144412500D01*
X209126000Y-144413500D01*
X209128000Y-144415500D01*
X209130000Y-144417500D01*
X209132000Y-144419500D01*
X209134000Y-144421500D01*
X209135000Y-144423500D01*
X209137000Y-144425500D01*
X209138000Y-144427500D01*
X209140000Y-144429500D01*
X209141000Y-144432500D01*
X209142000Y-144434500D01*
X209143000Y-144437500D01*
X209143000Y-144439500D01*
X209144000Y-144442500D01*
X209144000Y-144444500D01*
X209145000Y-144447500D01*
X209145000Y-144449500D01*
X209145000Y-144452500D01*
X209145000Y-145092500D01*
X209145000Y-145095500D01*
X209145000Y-145097500D01*
X209144000Y-145100500D01*
X209144000Y-145102500D01*
X209143000Y-145105500D01*
X209143000Y-145107500D01*
X209142000Y-145110500D01*
X209141000Y-145112500D01*
X209140000Y-145115500D01*
X209138000Y-145117500D01*
X209137000Y-145119500D01*
X209135000Y-145121500D01*
X209134000Y-145123500D01*
X209132000Y-145125500D01*
X209130000Y-145127500D01*
X209128000Y-145129500D01*
X209126000Y-145131500D01*
X209124000Y-145132500D01*
X209122000Y-145134500D01*
X209120000Y-145135500D01*
X209118000Y-145137500D01*
X209115000Y-145138500D01*
X209113000Y-145139500D01*
X209110000Y-145140500D01*
X209108000Y-145140500D01*
X209105000Y-145141500D01*
X209103000Y-145141500D01*
X209100000Y-145142500D01*
X209098000Y-145142500D01*
X209095000Y-145142500D01*
X207505000Y-145142500D01*
X207502000Y-145142500D01*
X207500000Y-145142500D01*
X207497000Y-145141500D01*
X207495000Y-145141500D01*
X207492000Y-145140500D01*
X207490000Y-145140500D01*
X207487000Y-145139500D01*
X207485000Y-145138500D01*
X207482000Y-145137500D01*
X207480000Y-145135500D01*
X207478000Y-145134500D01*
X207476000Y-145132500D01*
X207474000Y-145131500D01*
X207472000Y-145129500D01*
X207470000Y-145127500D01*
X207468000Y-145125500D01*
X207466000Y-145123500D01*
X207465000Y-145121500D01*
X207463000Y-145119500D01*
X207462000Y-145117500D01*
X207460000Y-145115500D01*
X207459000Y-145112500D01*
X207458000Y-145110500D01*
X207457000Y-145107500D01*
X207457000Y-145105500D01*
X207456000Y-145102500D01*
X207456000Y-145100500D01*
X207455000Y-145097500D01*
X207455000Y-145095500D01*
X207455000Y-145092500D01*
X207455000Y-144452500D01*
X207455000Y-144449500D01*
X207455000Y-144447500D01*
X207456000Y-144444500D01*
X207456000Y-144442500D01*
X207457000Y-144439500D01*
X207457000Y-144437500D01*
X207458000Y-144434500D01*
X207459000Y-144432500D01*
X207460000Y-144429500D01*
X207462000Y-144427500D01*
X207463000Y-144425500D01*
X207465000Y-144423500D01*
X207466000Y-144421500D01*
X207468000Y-144419500D01*
X207470000Y-144417500D01*
X207472000Y-144415500D01*
X207474000Y-144413500D01*
X207476000Y-144412500D01*
X207478000Y-144410500D01*
X207480000Y-144409500D01*
X207482000Y-144407500D01*
X207485000Y-144406500D01*
X207487000Y-144405500D01*
X207490000Y-144404500D01*
X207492000Y-144404500D01*
X207495000Y-144403500D01*
X207497000Y-144403500D01*
X207500000Y-144402500D01*
X207502000Y-144402500D01*
X207505000Y-144402500D01*
X209095000Y-144402500D01*
X209098000Y-144402500D01*
X209100000Y-144402500D01*
X209103000Y-144403500D01*
G36*
X209103000Y-144403500D02*
G01*
X209105000Y-144403500D01*
X209108000Y-144404500D01*
X209110000Y-144404500D01*
X209113000Y-144405500D01*
X209115000Y-144406500D01*
X209118000Y-144407500D01*
X209120000Y-144409500D01*
X209122000Y-144410500D01*
X209124000Y-144412500D01*
X209126000Y-144413500D01*
X209128000Y-144415500D01*
X209130000Y-144417500D01*
X209132000Y-144419500D01*
X209134000Y-144421500D01*
X209135000Y-144423500D01*
X209137000Y-144425500D01*
X209138000Y-144427500D01*
X209140000Y-144429500D01*
X209141000Y-144432500D01*
X209142000Y-144434500D01*
X209143000Y-144437500D01*
X209143000Y-144439500D01*
X209144000Y-144442500D01*
X209144000Y-144444500D01*
X209145000Y-144447500D01*
X209145000Y-144449500D01*
X209145000Y-144452500D01*
X209145000Y-145092500D01*
X209145000Y-145095500D01*
X209145000Y-145097500D01*
X209144000Y-145100500D01*
X209144000Y-145102500D01*
X209143000Y-145105500D01*
X209143000Y-145107500D01*
X209142000Y-145110500D01*
X209141000Y-145112500D01*
X209140000Y-145115500D01*
X209138000Y-145117500D01*
X209137000Y-145119500D01*
X209135000Y-145121500D01*
X209134000Y-145123500D01*
X209132000Y-145125500D01*
X209130000Y-145127500D01*
X209128000Y-145129500D01*
X209126000Y-145131500D01*
X209124000Y-145132500D01*
X209122000Y-145134500D01*
X209120000Y-145135500D01*
X209118000Y-145137500D01*
X209115000Y-145138500D01*
X209113000Y-145139500D01*
X209110000Y-145140500D01*
X209108000Y-145140500D01*
X209105000Y-145141500D01*
X209103000Y-145141500D01*
X209100000Y-145142500D01*
X209098000Y-145142500D01*
X209095000Y-145142500D01*
X207505000Y-145142500D01*
X207502000Y-145142500D01*
X207500000Y-145142500D01*
X207497000Y-145141500D01*
X207495000Y-145141500D01*
X207492000Y-145140500D01*
X207490000Y-145140500D01*
X207487000Y-145139500D01*
X207485000Y-145138500D01*
X207482000Y-145137500D01*
X207480000Y-145135500D01*
X207478000Y-145134500D01*
X207476000Y-145132500D01*
X207474000Y-145131500D01*
X207472000Y-145129500D01*
X207470000Y-145127500D01*
X207468000Y-145125500D01*
X207466000Y-145123500D01*
X207465000Y-145121500D01*
X207463000Y-145119500D01*
X207462000Y-145117500D01*
X207460000Y-145115500D01*
X207459000Y-145112500D01*
X207458000Y-145110500D01*
X207457000Y-145107500D01*
X207457000Y-145105500D01*
X207456000Y-145102500D01*
X207456000Y-145100500D01*
X207455000Y-145097500D01*
X207455000Y-145095500D01*
X207455000Y-145092500D01*
X207455000Y-144452500D01*
X207455000Y-144449500D01*
X207455000Y-144447500D01*
X207456000Y-144444500D01*
X207456000Y-144442500D01*
X207457000Y-144439500D01*
X207457000Y-144437500D01*
X207458000Y-144434500D01*
X207459000Y-144432500D01*
X207460000Y-144429500D01*
X207462000Y-144427500D01*
X207463000Y-144425500D01*
X207465000Y-144423500D01*
X207466000Y-144421500D01*
X207468000Y-144419500D01*
X207470000Y-144417500D01*
X207472000Y-144415500D01*
X207474000Y-144413500D01*
X207476000Y-144412500D01*
X207478000Y-144410500D01*
X207480000Y-144409500D01*
X207482000Y-144407500D01*
X207485000Y-144406500D01*
X207487000Y-144405500D01*
X207490000Y-144404500D01*
X207492000Y-144404500D01*
X207495000Y-144403500D01*
X207497000Y-144403500D01*
X207500000Y-144402500D01*
X207502000Y-144402500D01*
X207505000Y-144402500D01*
X209095000Y-144402500D01*
X209098000Y-144402500D01*
X209100000Y-144402500D01*
X209103000Y-144403500D01*
G37*
X209103000Y-145673500D02*
X209105000Y-145673500D01*
X209108000Y-145674500D01*
X209110000Y-145674500D01*
X209113000Y-145675500D01*
X209115000Y-145676500D01*
X209118000Y-145677500D01*
X209120000Y-145679500D01*
X209122000Y-145680500D01*
X209124000Y-145682500D01*
X209126000Y-145683500D01*
X209128000Y-145685500D01*
X209130000Y-145687500D01*
X209132000Y-145689500D01*
X209134000Y-145691500D01*
X209135000Y-145693500D01*
X209137000Y-145695500D01*
X209138000Y-145697500D01*
X209140000Y-145699500D01*
X209141000Y-145702500D01*
X209142000Y-145704500D01*
X209143000Y-145707500D01*
X209143000Y-145709500D01*
X209144000Y-145712500D01*
X209144000Y-145714500D01*
X209145000Y-145717500D01*
X209145000Y-145719500D01*
X209145000Y-145722500D01*
X209145000Y-146362500D01*
X209145000Y-146365500D01*
X209145000Y-146367500D01*
X209144000Y-146370500D01*
X209144000Y-146372500D01*
X209143000Y-146375500D01*
X209143000Y-146377500D01*
X209142000Y-146380500D01*
X209141000Y-146382500D01*
X209140000Y-146385500D01*
X209138000Y-146387500D01*
X209137000Y-146389500D01*
X209135000Y-146391500D01*
X209134000Y-146393500D01*
X209132000Y-146395500D01*
X209130000Y-146397500D01*
X209128000Y-146399500D01*
X209126000Y-146401500D01*
X209124000Y-146402500D01*
X209122000Y-146404500D01*
X209120000Y-146405500D01*
X209118000Y-146407500D01*
X209115000Y-146408500D01*
X209113000Y-146409500D01*
X209110000Y-146410500D01*
X209108000Y-146410500D01*
X209105000Y-146411500D01*
X209103000Y-146411500D01*
X209100000Y-146412500D01*
X209098000Y-146412500D01*
X209095000Y-146412500D01*
X207505000Y-146412500D01*
X207502000Y-146412500D01*
X207500000Y-146412500D01*
X207497000Y-146411500D01*
X207495000Y-146411500D01*
X207492000Y-146410500D01*
X207490000Y-146410500D01*
X207487000Y-146409500D01*
X207485000Y-146408500D01*
X207482000Y-146407500D01*
X207480000Y-146405500D01*
X207478000Y-146404500D01*
X207476000Y-146402500D01*
X207474000Y-146401500D01*
X207472000Y-146399500D01*
X207470000Y-146397500D01*
X207468000Y-146395500D01*
X207466000Y-146393500D01*
X207465000Y-146391500D01*
X207463000Y-146389500D01*
X207462000Y-146387500D01*
X207460000Y-146385500D01*
X207459000Y-146382500D01*
X207458000Y-146380500D01*
X207457000Y-146377500D01*
X207457000Y-146375500D01*
X207456000Y-146372500D01*
X207456000Y-146370500D01*
X207455000Y-146367500D01*
X207455000Y-146365500D01*
X207455000Y-146362500D01*
X207455000Y-145722500D01*
X207455000Y-145719500D01*
X207455000Y-145717500D01*
X207456000Y-145714500D01*
X207456000Y-145712500D01*
X207457000Y-145709500D01*
X207457000Y-145707500D01*
X207458000Y-145704500D01*
X207459000Y-145702500D01*
X207460000Y-145699500D01*
X207462000Y-145697500D01*
X207463000Y-145695500D01*
X207465000Y-145693500D01*
X207466000Y-145691500D01*
X207468000Y-145689500D01*
X207470000Y-145687500D01*
X207472000Y-145685500D01*
X207474000Y-145683500D01*
X207476000Y-145682500D01*
X207478000Y-145680500D01*
X207480000Y-145679500D01*
X207482000Y-145677500D01*
X207485000Y-145676500D01*
X207487000Y-145675500D01*
X207490000Y-145674500D01*
X207492000Y-145674500D01*
X207495000Y-145673500D01*
X207497000Y-145673500D01*
X207500000Y-145672500D01*
X207502000Y-145672500D01*
X207505000Y-145672500D01*
X209095000Y-145672500D01*
X209098000Y-145672500D01*
X209100000Y-145672500D01*
X209103000Y-145673500D01*
G36*
X209103000Y-145673500D02*
G01*
X209105000Y-145673500D01*
X209108000Y-145674500D01*
X209110000Y-145674500D01*
X209113000Y-145675500D01*
X209115000Y-145676500D01*
X209118000Y-145677500D01*
X209120000Y-145679500D01*
X209122000Y-145680500D01*
X209124000Y-145682500D01*
X209126000Y-145683500D01*
X209128000Y-145685500D01*
X209130000Y-145687500D01*
X209132000Y-145689500D01*
X209134000Y-145691500D01*
X209135000Y-145693500D01*
X209137000Y-145695500D01*
X209138000Y-145697500D01*
X209140000Y-145699500D01*
X209141000Y-145702500D01*
X209142000Y-145704500D01*
X209143000Y-145707500D01*
X209143000Y-145709500D01*
X209144000Y-145712500D01*
X209144000Y-145714500D01*
X209145000Y-145717500D01*
X209145000Y-145719500D01*
X209145000Y-145722500D01*
X209145000Y-146362500D01*
X209145000Y-146365500D01*
X209145000Y-146367500D01*
X209144000Y-146370500D01*
X209144000Y-146372500D01*
X209143000Y-146375500D01*
X209143000Y-146377500D01*
X209142000Y-146380500D01*
X209141000Y-146382500D01*
X209140000Y-146385500D01*
X209138000Y-146387500D01*
X209137000Y-146389500D01*
X209135000Y-146391500D01*
X209134000Y-146393500D01*
X209132000Y-146395500D01*
X209130000Y-146397500D01*
X209128000Y-146399500D01*
X209126000Y-146401500D01*
X209124000Y-146402500D01*
X209122000Y-146404500D01*
X209120000Y-146405500D01*
X209118000Y-146407500D01*
X209115000Y-146408500D01*
X209113000Y-146409500D01*
X209110000Y-146410500D01*
X209108000Y-146410500D01*
X209105000Y-146411500D01*
X209103000Y-146411500D01*
X209100000Y-146412500D01*
X209098000Y-146412500D01*
X209095000Y-146412500D01*
X207505000Y-146412500D01*
X207502000Y-146412500D01*
X207500000Y-146412500D01*
X207497000Y-146411500D01*
X207495000Y-146411500D01*
X207492000Y-146410500D01*
X207490000Y-146410500D01*
X207487000Y-146409500D01*
X207485000Y-146408500D01*
X207482000Y-146407500D01*
X207480000Y-146405500D01*
X207478000Y-146404500D01*
X207476000Y-146402500D01*
X207474000Y-146401500D01*
X207472000Y-146399500D01*
X207470000Y-146397500D01*
X207468000Y-146395500D01*
X207466000Y-146393500D01*
X207465000Y-146391500D01*
X207463000Y-146389500D01*
X207462000Y-146387500D01*
X207460000Y-146385500D01*
X207459000Y-146382500D01*
X207458000Y-146380500D01*
X207457000Y-146377500D01*
X207457000Y-146375500D01*
X207456000Y-146372500D01*
X207456000Y-146370500D01*
X207455000Y-146367500D01*
X207455000Y-146365500D01*
X207455000Y-146362500D01*
X207455000Y-145722500D01*
X207455000Y-145719500D01*
X207455000Y-145717500D01*
X207456000Y-145714500D01*
X207456000Y-145712500D01*
X207457000Y-145709500D01*
X207457000Y-145707500D01*
X207458000Y-145704500D01*
X207459000Y-145702500D01*
X207460000Y-145699500D01*
X207462000Y-145697500D01*
X207463000Y-145695500D01*
X207465000Y-145693500D01*
X207466000Y-145691500D01*
X207468000Y-145689500D01*
X207470000Y-145687500D01*
X207472000Y-145685500D01*
X207474000Y-145683500D01*
X207476000Y-145682500D01*
X207478000Y-145680500D01*
X207480000Y-145679500D01*
X207482000Y-145677500D01*
X207485000Y-145676500D01*
X207487000Y-145675500D01*
X207490000Y-145674500D01*
X207492000Y-145674500D01*
X207495000Y-145673500D01*
X207497000Y-145673500D01*
X207500000Y-145672500D01*
X207502000Y-145672500D01*
X207505000Y-145672500D01*
X209095000Y-145672500D01*
X209098000Y-145672500D01*
X209100000Y-145672500D01*
X209103000Y-145673500D01*
G37*
D11*
X204950000Y-142187500D03*
X206250000Y-142187500D03*
X204950000Y-143487500D03*
X206250000Y-143487500D03*
X204950000Y-144787500D03*
X206250000Y-144787500D03*
X204950000Y-146087500D03*
X206250000Y-146087500D03*
D12*
X249100000Y-134175000D03*
X249100000Y-132625000D03*
D13*
X254750000Y-109237500D03*
X256650000Y-109237500D03*
X255700000Y-107362500D03*
D14*
X143250000Y-144850000D03*
X143250000Y-147650000D03*
D15*
X212560000Y-146050000D03*
X211540000Y-146050000D03*
D16*
X188430000Y-116750000D03*
X187470000Y-116750000D03*
D17*
X178500000Y-121400000D03*
X178500000Y-120380000D03*
D18*
X135800000Y-104640000D03*
X135800000Y-105660000D03*
D19*
X197000000Y-127225000D03*
X197000000Y-128775000D03*
D20*
X228862500Y-124950000D03*
X225937500Y-124950000D03*
D21*
X130977500Y-132150000D03*
X130977500Y-144850000D03*
D22*
X140977500Y-142056000D03*
X140977500Y-141040000D03*
X140977500Y-140024000D03*
X140977500Y-139008000D03*
X140977500Y-137992000D03*
X140977500Y-136976000D03*
X140977500Y-135960000D03*
X140977500Y-134944000D03*
D23*
X130977500Y-129552500D03*
D24*
X132727500Y-130800000D03*
X129227500Y-130800000D03*
D23*
X130977500Y-147447500D03*
D24*
X132727500Y-146200000D03*
X129227500Y-146200000D03*
D16*
X242180000Y-127350000D03*
X241220000Y-127350000D03*
D25*
X183200000Y-116680000D03*
X183200000Y-115720000D03*
D19*
X137100000Y-103825000D03*
X137100000Y-105375000D03*
D26*
X253790000Y-114762500D03*
X254810000Y-114762500D03*
D25*
X250400000Y-131480000D03*
X250400000Y-130520000D03*
D27*
X247750000Y-117275000D03*
X245250000Y-117275000D03*
X242750000Y-117275000D03*
X240250000Y-117275000D03*
D28*
X250950000Y-110475000D03*
X237050000Y-110475000D03*
D29*
X179362500Y-143200000D03*
X181437500Y-143200000D03*
D19*
X160325000Y-137725000D03*
X160325000Y-139275000D03*
D30*
X237800000Y-133975000D03*
X237800000Y-131025000D03*
D18*
X262500000Y-124130000D03*
X262500000Y-125150000D03*
D31*
X147312300Y-145900000D03*
X153687700Y-145900000D03*
D32*
X173500000Y-122640000D03*
X173500000Y-123600000D03*
D33*
X143675000Y-116600000D03*
X142125000Y-116600000D03*
D34*
X148400000Y-107850000D03*
X148400000Y-109750000D03*
D35*
X180720000Y-114400000D03*
X181680000Y-114400000D03*
D36*
X127100000Y-107310000D03*
X126100000Y-107310000D03*
X126600000Y-108600000D03*
D18*
X137400000Y-114090000D03*
X137400000Y-115110000D03*
D37*
X188345000Y-123470000D03*
X189615000Y-123470000D03*
X190885000Y-123470000D03*
X192155000Y-123470000D03*
X192155000Y-118530000D03*
X190885000Y-118530000D03*
X189615000Y-118530000D03*
X188345000Y-118530000D03*
D38*
X148080000Y-120460000D03*
D39*
X148080000Y-123000000D03*
X148080000Y-125540000D03*
D40*
X187000000Y-145000000D03*
D27*
X229750000Y-117275000D03*
X227250000Y-117275000D03*
X224750000Y-117275000D03*
X222250000Y-117275000D03*
D28*
X232950000Y-110475000D03*
X219050000Y-110475000D03*
D41*
X211375000Y-144050000D03*
X213275000Y-144050000D03*
D15*
X239310000Y-129500000D03*
X238290000Y-129500000D03*
D42*
X250700000Y-134187500D03*
X250700000Y-132612500D03*
D17*
X176500000Y-121400000D03*
X176500000Y-120380000D03*
D25*
X229525000Y-131405000D03*
X229525000Y-130445000D03*
D43*
X170210000Y-135100000D03*
X171480000Y-135100000D03*
X172750000Y-135100000D03*
X174020000Y-135100000D03*
X175290000Y-135100000D03*
X176560000Y-135100000D03*
X177830000Y-135100000D03*
X179100000Y-135100000D03*
X180370000Y-135100000D03*
X180370000Y-125800000D03*
X179100000Y-125800000D03*
X177830000Y-125800000D03*
X176560000Y-125800000D03*
X175290000Y-125800000D03*
X174020000Y-125800000D03*
X172750000Y-125800000D03*
X171480000Y-125800000D03*
X170210000Y-125800000D03*
D12*
X198750000Y-132525000D03*
X198750000Y-130975000D03*
D44*
X161760000Y-145300000D03*
D45*
X164300000Y-145300000D03*
X166840000Y-145300000D03*
D19*
X148100000Y-115525000D03*
X148100000Y-117075000D03*
D35*
X166020000Y-134600000D03*
X166980000Y-134600000D03*
D40*
X122000000Y-132000000D03*
D30*
X147200000Y-106075000D03*
X147200000Y-103125000D03*
D46*
X191000000Y-136025000D03*
X191000000Y-138975000D03*
D18*
X254400000Y-104780000D03*
X254400000Y-105800000D03*
D47*
X255400000Y-134550000D03*
X253500000Y-134550000D03*
X254450000Y-136425000D03*
D48*
X138640000Y-114662500D03*
X138640000Y-116562500D03*
X140660000Y-115612500D03*
D49*
X231900000Y-141900000D03*
X222900000Y-141900000D03*
D50*
X187750000Y-132375000D03*
X187750000Y-130500000D03*
D14*
X144200000Y-139425000D03*
X144200000Y-142225000D03*
D42*
X231950000Y-134237500D03*
X231950000Y-132662500D03*
D26*
X145890000Y-107600000D03*
X146910000Y-107600000D03*
D51*
X200750000Y-143950000D03*
X200750000Y-142050000D03*
D52*
X150600000Y-104880000D03*
X150600000Y-106150000D03*
X150600000Y-107420000D03*
X150600000Y-108690000D03*
X150600000Y-109960000D03*
X150600000Y-111230000D03*
X150600000Y-112500000D03*
X150600000Y-113770000D03*
X150600000Y-115040000D03*
X150600000Y-116310000D03*
X150600000Y-117580000D03*
X150600000Y-118850000D03*
X150600000Y-120120000D03*
X150600000Y-121390000D03*
D53*
X153635000Y-122640000D03*
X154905000Y-122640000D03*
X156175000Y-122640000D03*
X157445000Y-122640000D03*
X158715000Y-122640000D03*
X159985000Y-122640000D03*
X161255000Y-122640000D03*
X162525000Y-122640000D03*
X163795000Y-122640000D03*
X165065000Y-122640000D03*
D52*
X168100000Y-121390000D03*
X168100000Y-120120000D03*
X168100000Y-118850000D03*
X168100000Y-117580000D03*
X168100000Y-116310000D03*
X168100000Y-115040000D03*
X168100000Y-113770000D03*
X168100000Y-112500000D03*
X168100000Y-111230000D03*
X168100000Y-109960000D03*
X168100000Y-108690000D03*
X168100000Y-107420000D03*
X168100000Y-106150000D03*
X168100000Y-104880000D03*
D54*
X156450000Y-111200000D03*
X157850000Y-111200000D03*
X159250000Y-111200000D03*
X156450000Y-112600000D03*
X157850000Y-112600000D03*
X159250000Y-112600000D03*
X156450000Y-114000000D03*
X157850000Y-114000000D03*
X159250000Y-114000000D03*
D37*
X212095000Y-123470000D03*
X213365000Y-123470000D03*
X214635000Y-123470000D03*
X215905000Y-123470000D03*
X215905000Y-118530000D03*
X214635000Y-118530000D03*
X213365000Y-118530000D03*
X212095000Y-118530000D03*
D32*
X247700000Y-132620000D03*
X247700000Y-133580000D03*
D25*
X169300000Y-138980000D03*
X169300000Y-138020000D03*
X167300000Y-127680000D03*
X167300000Y-126720000D03*
D17*
X180400000Y-123910000D03*
X180400000Y-122890000D03*
D15*
X260910000Y-120000000D03*
X259890000Y-120000000D03*
X126930000Y-113500000D03*
X125910000Y-113500000D03*
D47*
X254450000Y-138525000D03*
X252550000Y-138525000D03*
X253500000Y-140400000D03*
D15*
X259720000Y-129600000D03*
X258700000Y-129600000D03*
D55*
X124750000Y-108597500D03*
X124750000Y-107277500D03*
D40*
X187000000Y-101000000D03*
D15*
X255400000Y-132950000D03*
X254380000Y-132950000D03*
D35*
X200770000Y-116700000D03*
X201730000Y-116700000D03*
D30*
X218000000Y-133475000D03*
X218000000Y-130525000D03*
D56*
X237700000Y-141900000D03*
X246700000Y-141900000D03*
D40*
X122000000Y-145000000D03*
D37*
X193940000Y-123470000D03*
X195210000Y-123470000D03*
X196480000Y-123470000D03*
X197750000Y-123470000D03*
X197750000Y-118530000D03*
X196480000Y-118530000D03*
X195210000Y-118530000D03*
X193940000Y-118530000D03*
D57*
X131200000Y-98325000D03*
X137200000Y-98325000D03*
X131200000Y-102075000D03*
X137200000Y-102075000D03*
D58*
X221850000Y-129300000D03*
X221850000Y-129800000D03*
X221850000Y-130300000D03*
X221850000Y-130800000D03*
X221850000Y-131300000D03*
X221850000Y-131800000D03*
X221850000Y-132300000D03*
D59*
X222800000Y-133250000D03*
X223300000Y-133250000D03*
X223800000Y-133250000D03*
X224300000Y-133250000D03*
X224800000Y-133250000D03*
X225300000Y-133250000D03*
X225800000Y-133250000D03*
D58*
X226750000Y-132300000D03*
X226750000Y-131800000D03*
X226750000Y-131300000D03*
X226750000Y-130800000D03*
X226750000Y-130300000D03*
X226750000Y-129800000D03*
X226750000Y-129300000D03*
D59*
X225800000Y-128350000D03*
X225300000Y-128350000D03*
X224800000Y-128350000D03*
X224300000Y-128350000D03*
X223800000Y-128350000D03*
X223300000Y-128350000D03*
X222800000Y-128350000D03*
D60*
X224300000Y-130800000D03*
D35*
X180720000Y-115400000D03*
X181680000Y-115400000D03*
D12*
X230350000Y-134225000D03*
X230350000Y-132675000D03*
D61*
X267000000Y-108000000D03*
D62*
X262680000Y-105000000D03*
D63*
X262680000Y-108000000D03*
X262680000Y-111000000D03*
X259680000Y-105000000D03*
X259680000Y-108000000D03*
X259680000Y-111000000D03*
D37*
X206595000Y-123470000D03*
X207865000Y-123470000D03*
X209135000Y-123470000D03*
X210405000Y-123470000D03*
X210405000Y-118530000D03*
X209135000Y-118530000D03*
X207865000Y-118530000D03*
X206595000Y-118530000D03*
D12*
X134250000Y-116000000D03*
X134250000Y-114450000D03*
D46*
X196000000Y-136025000D03*
X196000000Y-138975000D03*
D35*
X245820000Y-127350000D03*
X246780000Y-127350000D03*
D64*
X257462500Y-116750000D03*
X257462500Y-118650000D03*
X259337500Y-117700000D03*
D20*
X248662500Y-124900000D03*
X245737500Y-124900000D03*
D55*
X124750000Y-106160000D03*
X124750000Y-104840000D03*
D65*
X182750000Y-139500000D03*
X174250000Y-139500000D03*
D17*
X160650000Y-141560000D03*
X160650000Y-140540000D03*
D16*
X193930000Y-116800000D03*
X192970000Y-116800000D03*
D55*
X256900000Y-105660000D03*
X256900000Y-104340000D03*
D25*
X239500000Y-133480000D03*
X239500000Y-132520000D03*
D48*
X142140000Y-113012500D03*
X142140000Y-114912500D03*
X144160000Y-113962500D03*
D16*
X206480000Y-116750000D03*
X205520000Y-116750000D03*
D17*
X169800000Y-108810000D03*
X169800000Y-107790000D03*
D15*
X219610000Y-129100000D03*
X218590000Y-129100000D03*
D66*
X198750000Y-127712500D03*
X198750000Y-129287500D03*
D67*
X253900000Y-131650000D03*
X255450000Y-131650000D03*
D40*
X254000000Y-101000000D03*
D12*
X254562500Y-119275000D03*
X254562500Y-117725000D03*
D16*
X222430000Y-127150000D03*
X221470000Y-127150000D03*
D18*
X255600000Y-104780000D03*
X255600000Y-105800000D03*
D33*
X255375000Y-116062500D03*
X253825000Y-116062500D03*
D68*
X181021000Y-104686000D03*
X181021000Y-104025600D03*
X181021000Y-103365200D03*
X181021000Y-102730200D03*
X181021000Y-102069800D03*
X181021000Y-101434800D03*
X181021000Y-100774400D03*
X181021000Y-100114000D03*
X175179000Y-100114000D03*
X175179000Y-100774400D03*
X175179000Y-101434800D03*
X175179000Y-102069800D03*
X175179000Y-102730200D03*
X175179000Y-103365200D03*
X175179000Y-104025600D03*
X175179000Y-104686000D03*
D35*
X172220000Y-118900000D03*
X173180000Y-118900000D03*
D69*
X190200000Y-133150000D03*
X192500000Y-133150000D03*
D70*
X192500000Y-126850000D03*
D69*
X194800000Y-133150000D03*
D71*
X197500000Y-113850000D03*
X196250000Y-113850000D03*
X195000000Y-113850000D03*
X193750000Y-113850000D03*
X192500000Y-113850000D03*
X191250000Y-113850000D03*
X190000000Y-113850000D03*
X188750000Y-113850000D03*
X187500000Y-113850000D03*
X186250000Y-113850000D03*
D72*
X199350000Y-110650000D03*
X184400000Y-110650000D03*
D35*
X226020000Y-127150000D03*
X226980000Y-127150000D03*
D15*
X172410000Y-112300000D03*
X171390000Y-112300000D03*
D17*
X173400000Y-103410000D03*
X173400000Y-102390000D03*
D73*
X137600000Y-99632500D03*
X137600000Y-100767500D03*
D35*
X173920000Y-112300000D03*
X174880000Y-112300000D03*
D30*
X196000000Y-144450000D03*
X196000000Y-141500000D03*
D19*
X210250000Y-146075000D03*
X210250000Y-147625000D03*
D17*
X180400000Y-121910000D03*
X180400000Y-120890000D03*
D19*
X188000000Y-127225000D03*
X188000000Y-128775000D03*
D26*
X171530000Y-109000000D03*
X172550000Y-109000000D03*
D25*
X126000000Y-106230000D03*
X126000000Y-105270000D03*
D71*
X214105000Y-113850000D03*
X212855000Y-113850000D03*
X211605000Y-113850000D03*
X210355000Y-113850000D03*
X209105000Y-113850000D03*
X207855000Y-113850000D03*
X206605000Y-113850000D03*
X205355000Y-113850000D03*
X204105000Y-113850000D03*
X202855000Y-113850000D03*
D72*
X215955000Y-110650000D03*
X201005000Y-110650000D03*
D44*
X171000000Y-104080000D03*
D45*
X171000000Y-101540000D03*
X171000000Y-99000000D03*
D18*
X261400000Y-121367500D03*
X261400000Y-122387500D03*
D74*
X211450000Y-134537500D03*
X201550000Y-134537500D03*
D17*
X252200000Y-137050000D03*
X252200000Y-136030000D03*
X160700000Y-133110000D03*
X160700000Y-132090000D03*
D44*
X129700000Y-114600000D03*
D45*
X129700000Y-112060000D03*
D17*
X174500000Y-123620000D03*
X174500000Y-122600000D03*
D75*
X266050000Y-120500000D03*
D76*
X266050000Y-118500000D03*
D77*
X219937500Y-124950000D03*
X222862500Y-124950000D03*
D78*
X165950000Y-127387500D03*
X165300000Y-127387500D03*
X164650000Y-127387500D03*
X164000000Y-127387500D03*
X163350000Y-127387500D03*
X162700000Y-127387500D03*
X162050000Y-127387500D03*
X162050000Y-133112500D03*
X162700000Y-133112500D03*
X163350000Y-133112500D03*
X164000000Y-133112500D03*
X164650000Y-133112500D03*
X165300000Y-133112500D03*
X165950000Y-133112500D03*
D73*
X145337500Y-99632500D03*
X145337500Y-100767500D03*
D46*
X193500000Y-136025000D03*
X193500000Y-138975000D03*
D61*
X267000000Y-138000000D03*
D62*
X262680000Y-135000000D03*
D63*
X262680000Y-138000000D03*
X262680000Y-141000000D03*
X259680000Y-135000000D03*
X259680000Y-138000000D03*
X259680000Y-141000000D03*
D55*
X263700000Y-125060000D03*
X263700000Y-123740000D03*
D17*
X178500000Y-123410000D03*
X178500000Y-122390000D03*
X176500000Y-123410000D03*
X176500000Y-122390000D03*
D36*
X126100000Y-111040000D03*
X127100000Y-111040000D03*
X126600000Y-109750000D03*
D18*
X257000000Y-110752500D03*
X257000000Y-111772500D03*
D35*
X175220000Y-105600000D03*
X176180000Y-105600000D03*
D19*
X138600000Y-103825000D03*
X138600000Y-105375000D03*
D79*
X128400000Y-101200000D03*
X128400000Y-105200000D03*
D12*
X254510000Y-127950000D03*
X254510000Y-126400000D03*
D80*
X137250000Y-110950000D03*
X137250000Y-110450000D03*
X137250000Y-109950000D03*
X137250000Y-109450000D03*
X137250000Y-108950000D03*
X137250000Y-108450000D03*
X137250000Y-107950000D03*
D81*
X136300000Y-107000000D03*
X135800000Y-107000000D03*
X135300000Y-107000000D03*
X134800000Y-107000000D03*
X134300000Y-107000000D03*
X133800000Y-107000000D03*
X133300000Y-107000000D03*
D80*
X132350000Y-107950000D03*
X132350000Y-108450000D03*
X132350000Y-108950000D03*
X132350000Y-109450000D03*
X132350000Y-109950000D03*
X132350000Y-110450000D03*
X132350000Y-110950000D03*
D81*
X133300000Y-111900000D03*
X133800000Y-111900000D03*
X134300000Y-111900000D03*
X134800000Y-111900000D03*
X135300000Y-111900000D03*
X135800000Y-111900000D03*
X136300000Y-111900000D03*
D82*
X134800000Y-109450000D03*
D77*
X239437500Y-124900000D03*
X242362500Y-124900000D03*
D32*
X227950000Y-132520000D03*
X227950000Y-133480000D03*
D40*
X122000000Y-101000000D03*
D68*
X177844900Y-117986000D03*
X177844900Y-117325600D03*
X177844900Y-116665200D03*
X177844900Y-116030200D03*
X177844900Y-115369800D03*
X177844900Y-114734800D03*
X177844900Y-114074400D03*
X177844900Y-113414000D03*
X172002900Y-113414000D03*
X172002900Y-114074400D03*
X172002900Y-114734800D03*
X172002900Y-115369800D03*
X172002900Y-116030200D03*
X172002900Y-116665200D03*
X172002900Y-117325600D03*
X172002900Y-117986000D03*
D55*
X124750000Y-109740000D03*
X124750000Y-111060000D03*
D40*
X254000000Y-145000000D03*
D35*
X180720000Y-113400000D03*
X181680000Y-113400000D03*
D30*
X193500000Y-144450000D03*
X193500000Y-141500000D03*
D55*
X263700000Y-122297500D03*
X263700000Y-120977500D03*
D26*
X179990000Y-105750000D03*
X181010000Y-105750000D03*
D13*
X253750000Y-113200000D03*
X255650000Y-113200000D03*
X254700000Y-111325000D03*
D26*
X255890000Y-138200000D03*
X256910000Y-138200000D03*
D12*
X135800000Y-116000000D03*
X135800000Y-114450000D03*
D64*
X261235000Y-127350000D03*
X261235000Y-129250000D03*
X263110000Y-128300000D03*
D26*
X255890000Y-139200000D03*
X256910000Y-139200000D03*
X125910000Y-115000000D03*
X126930000Y-115000000D03*
D35*
X180720000Y-116400000D03*
X181680000Y-116400000D03*
D83*
X177337500Y-143200000D03*
X175262500Y-143200000D03*
D75*
X266050000Y-127500000D03*
D76*
X266050000Y-125500000D03*
D18*
X255862500Y-117690000D03*
X255862500Y-118710000D03*
D57*
X138937500Y-98325000D03*
X144937500Y-98325000D03*
X138937500Y-102075000D03*
X144937500Y-102075000D03*
D30*
X198500000Y-141500000D03*
X198500000Y-144450000D03*
D84*
X167475000Y-140405000D03*
X167475000Y-139135000D03*
X167475000Y-137865000D03*
X167475000Y-136595000D03*
X162525000Y-136595000D03*
X162525000Y-137865000D03*
X162525000Y-139135000D03*
X162525000Y-140405000D03*
D25*
X149000000Y-106080000D03*
X149000000Y-105120000D03*
D15*
X180510000Y-117400000D03*
X179490000Y-117400000D03*
D64*
X257335000Y-126350000D03*
X257335000Y-128250000D03*
X259210000Y-127300000D03*
D15*
X172520000Y-123620000D03*
X171500000Y-123620000D03*
D25*
X138450000Y-107930000D03*
X138450000Y-106970000D03*
D18*
X261400000Y-124130000D03*
X261400000Y-125150000D03*
D17*
X169700000Y-119060000D03*
X169700000Y-118040000D03*
D30*
X140600000Y-107975000D03*
X140600000Y-105025000D03*
D58*
X241550000Y-129500000D03*
X241550000Y-130000000D03*
X241550000Y-130500000D03*
X241550000Y-131000000D03*
X241550000Y-131500000D03*
X241550000Y-132000000D03*
X241550000Y-132500000D03*
D59*
X242500000Y-133450000D03*
X243000000Y-133450000D03*
X243500000Y-133450000D03*
X244000000Y-133450000D03*
X244500000Y-133450000D03*
X245000000Y-133450000D03*
X245500000Y-133450000D03*
D58*
X246450000Y-132500000D03*
X246450000Y-132000000D03*
X246450000Y-131500000D03*
X246450000Y-131000000D03*
X246450000Y-130500000D03*
X246450000Y-130000000D03*
X246450000Y-129500000D03*
D59*
X245500000Y-128550000D03*
X245000000Y-128550000D03*
X244500000Y-128550000D03*
X244000000Y-128550000D03*
X243500000Y-128550000D03*
X243000000Y-128550000D03*
X242500000Y-128550000D03*
D60*
X244000000Y-131000000D03*
D64*
X261462500Y-116550000D03*
X261462500Y-118450000D03*
X263337500Y-117500000D03*
D85*
X123000000Y-108200000D03*
X123000000Y-108850000D03*
X123000000Y-109500000D03*
X123000000Y-110150000D03*
X123000000Y-110800000D03*
D86*
X123000000Y-107000000D03*
X123000000Y-112000000D03*
D87*
X120300000Y-106000000D03*
D88*
X120300000Y-106600000D03*
D89*
X120300000Y-108500000D03*
X120300000Y-110500000D03*
D88*
X120300000Y-112400000D03*
D87*
X120300000Y-113000000D03*
D25*
X219800000Y-131280000D03*
X219800000Y-130320000D03*
D18*
X255810000Y-126390000D03*
X255810000Y-127410000D03*
D12*
X197000000Y-132500000D03*
X197000000Y-130950000D03*
D17*
X134800000Y-105660000D03*
X134800000Y-104640000D03*
D35*
X167720000Y-125700000D03*
X168680000Y-125700000D03*
D68*
X179821000Y-111386000D03*
X179821000Y-110725600D03*
X179821000Y-110065200D03*
X179821000Y-109430200D03*
X179821000Y-108769800D03*
X179821000Y-108134800D03*
X179821000Y-107474400D03*
X179821000Y-106814000D03*
X173979000Y-106814000D03*
X173979000Y-107474400D03*
X173979000Y-108134800D03*
X173979000Y-108769800D03*
X173979000Y-109430200D03*
X173979000Y-110065200D03*
X173979000Y-110725600D03*
X173979000Y-111386000D03*
D37*
X201095000Y-123470000D03*
X202365000Y-123470000D03*
X203635000Y-123470000D03*
X204905000Y-123470000D03*
X204905000Y-118530000D03*
X203635000Y-118530000D03*
X202365000Y-118530000D03*
X201095000Y-118530000D03*
D90*
X144200000Y-137725000D03*
X144200000Y-134925000D03*
D16*
X211980000Y-116750000D03*
X211020000Y-116750000D03*
D26*
X138440000Y-111900000D03*
X139460000Y-111900000D03*
D17*
X201300000Y-147060000D03*
X201300000Y-146040000D03*
D25*
X239500000Y-131580000D03*
X239500000Y-130620000D03*
D18*
X169800000Y-109890000D03*
X169800000Y-110910000D03*
D25*
X210000000Y-143210000D03*
X210000000Y-142250000D03*
D91*
X152500000Y-139500000D03*
X152500000Y-130500000D03*
D37*
X182745000Y-123470000D03*
X184015000Y-123470000D03*
X185285000Y-123470000D03*
X186555000Y-123470000D03*
X186555000Y-118530000D03*
X185285000Y-118530000D03*
X184015000Y-118530000D03*
X182745000Y-118530000D03*
D55*
X256900000Y-137160000D03*
X256900000Y-135840000D03*
D35*
X125940000Y-112400000D03*
X126900000Y-112400000D03*
D25*
X220000000Y-133180000D03*
X220000000Y-132220000D03*
D18*
X262500000Y-121367500D03*
X262500000Y-122387500D03*
D46*
X198500000Y-136025000D03*
X198500000Y-138975000D03*
M02*
