G04 #@! TF.GenerationSoftware,KiCad,Pcbnew,7.0.5-4d25ed1034~172~ubuntu22.04.1*
G04 #@! TF.CreationDate,2023-05-31T13:41:02+02:00*
G04 #@! TF.ProjectId,Drawer_Controller,44726177-6572-45f4-936f-6e74726f6c6c,rev?*
G04 #@! TF.SameCoordinates,Original*
G04 #@! TF.FileFunction,Legend,Bot*
G04 #@! TF.FilePolarity,Positive*
%FSLAX46Y46*%
G04 Gerber Fmt 4.6, Leading zero omitted, Abs format (unit mm)*
G04 Created by KiCad (PCBNEW 7.0.5-4d25ed1034~172~ubuntu22.04.1) date 2023-05-31 13:41:02*
%MOMM*%
%LPD*%
G01*
G04 APERTURE LIST*
%ADD10C,0.300000*%
%ADD11C,3.250000*%
%ADD12R,1.650000X1.650000*%
%ADD13C,1.650000*%
%ADD14C,3.200000*%
%ADD15R,1.700000X1.700000*%
%ADD16O,1.700000X1.700000*%
%ADD17C,3.000000*%
%ADD18R,1.520000X1.520000*%
%ADD19C,1.520000*%
%ADD20R,1.350000X1.350000*%
%ADD21C,1.350000*%
%ADD22C,1.450000*%
%ADD23O,1.900000X0.950000*%
G04 APERTURE END LIST*
G36*
X161562107Y-131851187D02*
G01*
X161374160Y-132722552D01*
X160965101Y-134053854D01*
X160437972Y-135282800D01*
X159813215Y-136364326D01*
X159111275Y-137253368D01*
X158509997Y-137830218D01*
X157638672Y-138477435D01*
X156654281Y-139003267D01*
X155526575Y-139420627D01*
X154225304Y-139742429D01*
X152720219Y-139981584D01*
X152455292Y-140004360D01*
X151879003Y-140023386D01*
X151152081Y-140024310D01*
X150330900Y-140009190D01*
X149471833Y-139980082D01*
X148631253Y-139939045D01*
X147865535Y-139888136D01*
X147231052Y-139829412D01*
X146784177Y-139764931D01*
X146570176Y-139720662D01*
X145335333Y-139399295D01*
X144236017Y-138998476D01*
X143324747Y-138536848D01*
X143161541Y-138432162D01*
X142484718Y-137899231D01*
X141805096Y-137228234D01*
X141190258Y-136490910D01*
X140707788Y-135758997D01*
X140471139Y-135287772D01*
X140150534Y-134525186D01*
X139848872Y-133684782D01*
X139598828Y-132859289D01*
X139433077Y-132141440D01*
X139391935Y-131897771D01*
X139367232Y-131641476D01*
X139406217Y-131543735D01*
X139516013Y-131554088D01*
X139586510Y-131577490D01*
X139873459Y-131675258D01*
X140296826Y-131821087D01*
X140792935Y-131993084D01*
X141925074Y-132340228D01*
X143619762Y-132725914D01*
X145467054Y-133015507D01*
X147425333Y-133208323D01*
X149452983Y-133303681D01*
X151508389Y-133300897D01*
X153549936Y-133199289D01*
X155536007Y-132998173D01*
X157424987Y-132696867D01*
X159175259Y-132294688D01*
X159386599Y-132235515D01*
X159989667Y-132050942D01*
X160554289Y-131858386D01*
X160981120Y-131691054D01*
X161643961Y-131397914D01*
X161562107Y-131851187D01*
G37*
G36*
X139256998Y-129013280D02*
G01*
X140048928Y-129330397D01*
X141624381Y-129831932D01*
X143427426Y-130260074D01*
X145454354Y-130613865D01*
X145893606Y-130668792D01*
X146782485Y-130743090D01*
X147833326Y-130797288D01*
X148995458Y-130831385D01*
X150218210Y-130845383D01*
X151450913Y-130839280D01*
X152642895Y-130813076D01*
X153743487Y-130766773D01*
X154702017Y-130700369D01*
X155467815Y-130613865D01*
X156117322Y-130513253D01*
X157696622Y-130221930D01*
X159110331Y-129883827D01*
X160414498Y-129484431D01*
X161665171Y-129009232D01*
X161700232Y-128997006D01*
X161822699Y-129027015D01*
X161878868Y-129219214D01*
X161871685Y-129598665D01*
X161804099Y-130190430D01*
X161773201Y-130397029D01*
X161709595Y-130607471D01*
X161576764Y-130754747D01*
X161321875Y-130889332D01*
X160892092Y-131061698D01*
X160606779Y-131169486D01*
X159011846Y-131673507D01*
X157238575Y-132085445D01*
X155330411Y-132396474D01*
X153330796Y-132597767D01*
X150943708Y-132697803D01*
X148571271Y-132658657D01*
X146284628Y-132480910D01*
X144114805Y-132167993D01*
X142092828Y-131723339D01*
X140249720Y-131150382D01*
X139197009Y-130766354D01*
X139120153Y-130205623D01*
X139103229Y-130073238D01*
X139060437Y-129635053D01*
X139043296Y-129282525D01*
X139048633Y-129131727D01*
X139105661Y-128988622D01*
X139256998Y-129013280D01*
G37*
G36*
X164073208Y-122770608D02*
G01*
X164696505Y-123001213D01*
X165165282Y-123404163D01*
X165203619Y-123453949D01*
X165310852Y-123623451D01*
X165376646Y-123820261D01*
X165408411Y-124098537D01*
X165413555Y-124512439D01*
X165399487Y-125116128D01*
X165391637Y-125354900D01*
X165361389Y-125921818D01*
X165315191Y-126306519D01*
X165245672Y-126555398D01*
X165145459Y-126714849D01*
X165105912Y-126763450D01*
X165031145Y-126910583D01*
X164980873Y-127134746D01*
X164950569Y-127477718D01*
X164935706Y-127981279D01*
X164931758Y-128687208D01*
X164931361Y-128876714D01*
X164915514Y-129663827D01*
X164868774Y-130251247D01*
X164780529Y-130675374D01*
X164640165Y-130972606D01*
X164437071Y-131179340D01*
X164160634Y-131331976D01*
X163779905Y-131450500D01*
X163374786Y-131505931D01*
X162977911Y-131510711D01*
X162977911Y-127114557D01*
X162977911Y-122718403D01*
X163531353Y-122718403D01*
X164073208Y-122770608D01*
G37*
G36*
X137944258Y-127130438D02*
G01*
X137944258Y-131542474D01*
X137379884Y-131478860D01*
X137302867Y-131469114D01*
X136828072Y-131330925D01*
X136433490Y-131033539D01*
X136051469Y-130651831D01*
X135987012Y-128730550D01*
X135955526Y-127955036D01*
X135916620Y-127364856D01*
X135866336Y-126942031D01*
X135800016Y-126647679D01*
X135713004Y-126442922D01*
X135603201Y-126154869D01*
X135514955Y-125635133D01*
X135486446Y-125025212D01*
X135516670Y-124407100D01*
X135604626Y-123862790D01*
X135749311Y-123474276D01*
X136135427Y-123065351D01*
X136693413Y-122807442D01*
X137390816Y-122718403D01*
X137944258Y-122718403D01*
X137944258Y-127130438D01*
G37*
G36*
X161881610Y-119546556D02*
G01*
X161987980Y-120852381D01*
X162065918Y-122236117D01*
X162112980Y-123634016D01*
X162126721Y-124982332D01*
X162104700Y-126217317D01*
X162044472Y-127275226D01*
X161965841Y-128205436D01*
X161098078Y-128565321D01*
X160330999Y-128856985D01*
X158882069Y-129298548D01*
X157278682Y-129669100D01*
X155573518Y-129957163D01*
X153819258Y-130151259D01*
X152795960Y-130220903D01*
X150706932Y-130281605D01*
X148638734Y-130236865D01*
X146626250Y-130090630D01*
X144704363Y-129846844D01*
X142907958Y-129509450D01*
X141271919Y-129082393D01*
X139831130Y-128569617D01*
X138956765Y-128205618D01*
X138878647Y-127202155D01*
X138865743Y-127025893D01*
X138811408Y-125811798D01*
X138800044Y-124446341D01*
X138828827Y-122995223D01*
X138894938Y-121524144D01*
X138995552Y-120098803D01*
X139103374Y-119027971D01*
X144656403Y-119027971D01*
X144775829Y-120092957D01*
X145056585Y-121102410D01*
X145490341Y-121985711D01*
X145824028Y-122448926D01*
X146575810Y-123226555D01*
X147462767Y-123882962D01*
X148426658Y-124378219D01*
X149409242Y-124672397D01*
X149817036Y-124733194D01*
X150960487Y-124748231D01*
X152059803Y-124544221D01*
X153089118Y-124139669D01*
X154022568Y-123553080D01*
X154834290Y-122802958D01*
X155498418Y-121907807D01*
X155989090Y-120886132D01*
X156280439Y-119756438D01*
X156342121Y-119132946D01*
X156276485Y-117996349D01*
X155991448Y-116905084D01*
X155503122Y-115889220D01*
X154827614Y-114978829D01*
X153981034Y-114203979D01*
X152979492Y-113594743D01*
X152565871Y-113403486D01*
X152191922Y-113262769D01*
X151822941Y-113177195D01*
X151375862Y-113128061D01*
X150767619Y-113096660D01*
X150536793Y-113088235D01*
X149956226Y-113081497D01*
X149512104Y-113110221D01*
X149123960Y-113182636D01*
X148711329Y-113306974D01*
X147978411Y-113604119D01*
X146952365Y-114222709D01*
X146091468Y-115016033D01*
X145407377Y-115972511D01*
X144911750Y-117080566D01*
X144706636Y-117978074D01*
X144656403Y-119027971D01*
X139103374Y-119027971D01*
X139127849Y-118784901D01*
X139289007Y-117648138D01*
X139521908Y-116482445D01*
X139950286Y-114962252D01*
X140484705Y-113637190D01*
X141120814Y-112517495D01*
X141854262Y-111613400D01*
X142555066Y-110901631D01*
X141830932Y-109666267D01*
X141700189Y-109446416D01*
X141337708Y-108882206D01*
X141068266Y-108543720D01*
X140891823Y-108430903D01*
X140801807Y-108418703D01*
X140505624Y-108258274D01*
X140234959Y-107973374D01*
X140071777Y-107642777D01*
X140058767Y-107329276D01*
X140213153Y-106932504D01*
X140511543Y-106609334D01*
X140897489Y-106415848D01*
X141314540Y-106408127D01*
X141433758Y-106443009D01*
X141821382Y-106674651D01*
X142032504Y-107058017D01*
X142079929Y-107613264D01*
X142075813Y-107872338D01*
X142108984Y-108149768D01*
X142206060Y-108438555D01*
X142390033Y-108803219D01*
X142683891Y-109308282D01*
X143317384Y-110368835D01*
X144202696Y-109963762D01*
X144477428Y-109842293D01*
X145356577Y-109512895D01*
X146279174Y-109263395D01*
X147284273Y-109088129D01*
X148410931Y-108981433D01*
X149698202Y-108937643D01*
X151185140Y-108951095D01*
X151509674Y-108959597D01*
X152331120Y-108986621D01*
X152977500Y-109020419D01*
X153500575Y-109066354D01*
X153952108Y-109129790D01*
X154383862Y-109216092D01*
X154847599Y-109330623D01*
X155106123Y-109401767D01*
X155751441Y-109601778D01*
X156367640Y-109819422D01*
X156850209Y-110018786D01*
X156893274Y-110038871D01*
X157276091Y-110210996D01*
X157553959Y-110324728D01*
X157669300Y-110356338D01*
X157707673Y-110293473D01*
X157845348Y-110055360D01*
X158057218Y-109683707D01*
X158316881Y-109224653D01*
X158551312Y-108801062D01*
X158748254Y-108407395D01*
X158853063Y-108117066D01*
X158885652Y-107871599D01*
X158865939Y-107612519D01*
X158863330Y-107593328D01*
X158843534Y-107245873D01*
X158930725Y-106998971D01*
X159167653Y-106727182D01*
X159342785Y-106571616D01*
X159745636Y-106375690D01*
X160142015Y-106422497D01*
X160544997Y-106711894D01*
X160675874Y-106860316D01*
X160884285Y-107293737D01*
X160860182Y-107728539D01*
X160602212Y-108131165D01*
X160584686Y-108148306D01*
X160310770Y-108348465D01*
X160065576Y-108430903D01*
X159937947Y-108481524D01*
X159743838Y-108683640D01*
X159485156Y-109061992D01*
X159144160Y-109639860D01*
X158896997Y-110080608D01*
X158670152Y-110494477D01*
X158516302Y-110786284D01*
X158459642Y-110911094D01*
X158466465Y-110926977D01*
X158586606Y-111079276D01*
X158825657Y-111347130D01*
X159143156Y-111684741D01*
X159823629Y-112543156D01*
X160429482Y-113622051D01*
X160947149Y-114896404D01*
X161368965Y-116347319D01*
X161687264Y-117955903D01*
X161749249Y-118382388D01*
X161834584Y-119132946D01*
X161881610Y-119546556D01*
G37*
G36*
X154502700Y-117955903D02*
G01*
X154549136Y-118145700D01*
X154631615Y-118610047D01*
X154633672Y-118984967D01*
X154633899Y-119026401D01*
X154560989Y-119529789D01*
X154301632Y-120449146D01*
X153838207Y-121321137D01*
X153200633Y-122031254D01*
X152401210Y-122566118D01*
X151452233Y-122912349D01*
X150952754Y-123019689D01*
X150493773Y-123063930D01*
X150041869Y-123023514D01*
X149479289Y-122897559D01*
X149006080Y-122747134D01*
X148162850Y-122310161D01*
X147470278Y-121719906D01*
X146937183Y-121008464D01*
X146572387Y-120207932D01*
X146384710Y-119350407D01*
X146384248Y-119115535D01*
X147958473Y-119115535D01*
X148104258Y-119396865D01*
X148336937Y-119519571D01*
X148666894Y-119517228D01*
X148933326Y-119361816D01*
X148982503Y-119284208D01*
X149023097Y-118984967D01*
X148916609Y-118687961D01*
X148694740Y-118506796D01*
X148474624Y-118480826D01*
X148187642Y-118591214D01*
X148000930Y-118824884D01*
X147958473Y-119115535D01*
X146384248Y-119115535D01*
X146382973Y-118467983D01*
X146575995Y-117592758D01*
X146827948Y-117061712D01*
X148568296Y-117061712D01*
X148613162Y-117445165D01*
X148852460Y-117915040D01*
X149302337Y-118261889D01*
X149613085Y-118388994D01*
X149874972Y-118441584D01*
X149934136Y-118438580D01*
X150375919Y-118301418D01*
X150788666Y-118007559D01*
X151077059Y-117621992D01*
X151116675Y-117529889D01*
X151201290Y-117018093D01*
X151080665Y-116537988D01*
X150786842Y-116136620D01*
X150351862Y-115861036D01*
X149807767Y-115758283D01*
X149786396Y-115758533D01*
X149342988Y-115879626D01*
X148952386Y-116179023D01*
X148674264Y-116593969D01*
X148568296Y-117061712D01*
X146827948Y-117061712D01*
X146972599Y-116756827D01*
X147581604Y-115992288D01*
X148254605Y-115416831D01*
X148974804Y-115028455D01*
X149772369Y-114833183D01*
X150705315Y-114809038D01*
X151105622Y-114846432D01*
X152074722Y-115090352D01*
X152913865Y-115535594D01*
X153608167Y-116169824D01*
X154142740Y-116980706D01*
X154156540Y-117018093D01*
X154502700Y-117955903D01*
G37*
G36*
X257997942Y-136265074D02*
G01*
X257910314Y-136997826D01*
X257762044Y-137631853D01*
X257562815Y-138100750D01*
X257522261Y-138161064D01*
X257219453Y-138464945D01*
X256835302Y-138705006D01*
X256343097Y-138853594D01*
X255707655Y-138927680D01*
X255058890Y-138911979D01*
X254503427Y-138802055D01*
X254212483Y-138682807D01*
X253804499Y-138396651D01*
X253506876Y-137987005D01*
X253308324Y-137428250D01*
X253197552Y-136694767D01*
X253163272Y-135760936D01*
X253989994Y-135760936D01*
X253990127Y-135797387D01*
X254011745Y-136542585D01*
X254077141Y-137098280D01*
X254198552Y-137506322D01*
X254388214Y-137808563D01*
X254658364Y-138046854D01*
X254729399Y-138087950D01*
X255093383Y-138190760D01*
X255557775Y-138225096D01*
X256024819Y-138189054D01*
X256396759Y-138080728D01*
X256580728Y-137964207D01*
X256843536Y-137651383D01*
X257020902Y-137186816D01*
X257120781Y-136545429D01*
X257151127Y-135702140D01*
X257122151Y-134911030D01*
X257021772Y-134266518D01*
X256835266Y-133805362D01*
X256547913Y-133504509D01*
X256144990Y-133340904D01*
X255611775Y-133291492D01*
X255399608Y-133295946D01*
X254896605Y-133364523D01*
X254523234Y-133535886D01*
X254262691Y-133835622D01*
X254098173Y-134289318D01*
X254012875Y-134922561D01*
X253989994Y-135760936D01*
X253163272Y-135760936D01*
X253186449Y-134988186D01*
X253292289Y-134170726D01*
X253496653Y-133543841D01*
X253813556Y-133089036D01*
X254257012Y-132787814D01*
X254841037Y-132621681D01*
X255579645Y-132572143D01*
X256274794Y-132621563D01*
X256878239Y-132795763D01*
X257333488Y-133114568D01*
X257659062Y-133597627D01*
X257873478Y-134264590D01*
X257995256Y-135135104D01*
X258015245Y-135500001D01*
X258010673Y-135702140D01*
X257997942Y-136265074D01*
G37*
G36*
X251077631Y-135723541D02*
G01*
X251079208Y-135878529D01*
X251108966Y-138802348D01*
X250783650Y-138851523D01*
X250429255Y-138886876D01*
X249897257Y-138909180D01*
X249300636Y-138913047D01*
X248714217Y-138899244D01*
X248212829Y-138868538D01*
X247871296Y-138821695D01*
X247574755Y-138720649D01*
X247155731Y-138406285D01*
X246897958Y-137941001D01*
X246830920Y-137483008D01*
X247592663Y-137483008D01*
X247668966Y-137710253D01*
X247851833Y-137927626D01*
X247976207Y-138042783D01*
X248142401Y-138144641D01*
X248365124Y-138201067D01*
X248703903Y-138225251D01*
X249218266Y-138230381D01*
X250281944Y-138230381D01*
X250281944Y-137054455D01*
X250281944Y-135878529D01*
X249605787Y-135881334D01*
X249271193Y-135891104D01*
X248640824Y-135962098D01*
X248147355Y-136092796D01*
X247838332Y-136272671D01*
X247778893Y-136360229D01*
X247672616Y-136657628D01*
X247605575Y-137036901D01*
X247595741Y-137147579D01*
X247592663Y-137483008D01*
X246830920Y-137483008D01*
X246810873Y-137346052D01*
X246903912Y-136642693D01*
X247027468Y-136258468D01*
X247203476Y-136011344D01*
X247499244Y-135808914D01*
X247950341Y-135556329D01*
X247638486Y-135478059D01*
X247517773Y-135430985D01*
X247252852Y-135175552D01*
X247076423Y-134776040D01*
X247016338Y-134393099D01*
X247776339Y-134393099D01*
X247861769Y-134796785D01*
X248050479Y-135081289D01*
X248154697Y-135151090D01*
X248394523Y-135234882D01*
X248756014Y-135278222D01*
X249295435Y-135290566D01*
X250281944Y-135290566D01*
X250281944Y-134291029D01*
X250281944Y-133291492D01*
X249241836Y-133291492D01*
X249083753Y-133291914D01*
X248617951Y-133303893D01*
X248317045Y-133340148D01*
X248125679Y-133411085D01*
X247988496Y-133527111D01*
X247930294Y-133603787D01*
X247797932Y-133964132D01*
X247776339Y-134393099D01*
X247016338Y-134393099D01*
X247000208Y-134290294D01*
X247035933Y-133776162D01*
X247195321Y-133291492D01*
X247283988Y-133138788D01*
X247505068Y-132906290D01*
X247821357Y-132746712D01*
X248267178Y-132650681D01*
X248876854Y-132608827D01*
X249684708Y-132611777D01*
X251046296Y-132644733D01*
X251052878Y-133291492D01*
X251077631Y-135723541D01*
G37*
G36*
X244946075Y-136587762D02*
G01*
X244799623Y-137440771D01*
X244536275Y-138093540D01*
X244155161Y-138548348D01*
X243655413Y-138807472D01*
X243561627Y-138832213D01*
X242988712Y-138913682D01*
X242349911Y-138917247D01*
X241742464Y-138846994D01*
X241263612Y-138707007D01*
X241134135Y-138643416D01*
X240782570Y-138393471D01*
X240526871Y-138051008D01*
X240352561Y-137581130D01*
X240245164Y-136948943D01*
X240190204Y-136119549D01*
X240180777Y-135763519D01*
X240182293Y-135695984D01*
X240992129Y-135695984D01*
X241001481Y-136198493D01*
X241066656Y-136919209D01*
X241200656Y-137452202D01*
X241411303Y-137823345D01*
X241706421Y-138058510D01*
X242072460Y-138188755D01*
X242617877Y-138236883D01*
X243146441Y-138148120D01*
X243566704Y-137928841D01*
X243672918Y-137830906D01*
X243906095Y-137511334D01*
X244058178Y-137088012D01*
X244140856Y-136518645D01*
X244165818Y-135760936D01*
X244142891Y-135055897D01*
X244052286Y-134406203D01*
X243885224Y-133922127D01*
X243633633Y-133570454D01*
X243544889Y-133488494D01*
X243336812Y-133364758D01*
X243051752Y-133306236D01*
X242611140Y-133291492D01*
X242460683Y-133293660D01*
X241939742Y-133353860D01*
X241552384Y-133515814D01*
X241281275Y-133805263D01*
X241109084Y-134247948D01*
X241018479Y-134869607D01*
X240992129Y-135695984D01*
X240182293Y-135695984D01*
X240202328Y-134803490D01*
X240310513Y-134043072D01*
X240518193Y-133463342D01*
X240838231Y-133045378D01*
X241283489Y-132770259D01*
X241866829Y-132619064D01*
X242601114Y-132572871D01*
X242856945Y-132577150D01*
X243499407Y-132648912D01*
X243979665Y-132826749D01*
X244343134Y-133133407D01*
X244635227Y-133591629D01*
X244646859Y-133614995D01*
X244789139Y-133948793D01*
X244881548Y-134302902D01*
X244937694Y-134748888D01*
X244971187Y-135358319D01*
X244976501Y-135532234D01*
X244969909Y-135760936D01*
X244946075Y-136587762D01*
G37*
G36*
X227023109Y-132603816D02*
G01*
X227448642Y-132629263D01*
X228045377Y-132722899D01*
X228480334Y-132896578D01*
X228797343Y-133171245D01*
X229040237Y-133567851D01*
X229093309Y-133690614D01*
X229265542Y-134294854D01*
X229371966Y-135031857D01*
X229404633Y-135825254D01*
X229355598Y-136598678D01*
X229321857Y-136838188D01*
X229141663Y-137609276D01*
X228869381Y-138182389D01*
X228493329Y-138576614D01*
X228001828Y-138811040D01*
X227761439Y-138859573D01*
X227276927Y-138905924D01*
X226708755Y-138922777D01*
X226145489Y-138908249D01*
X225675694Y-138860460D01*
X225415908Y-138801468D01*
X225268858Y-138690107D01*
X225234458Y-138479578D01*
X225234195Y-138171585D01*
X226342247Y-138208833D01*
X227010426Y-138210017D01*
X227572231Y-138140144D01*
X227978981Y-137970192D01*
X228254269Y-137673729D01*
X228421691Y-137224320D01*
X228504841Y-136595533D01*
X228527315Y-135760936D01*
X228510518Y-134974628D01*
X228441534Y-134342608D01*
X228297144Y-133888860D01*
X228054176Y-133585129D01*
X227689456Y-133403161D01*
X227179814Y-133314700D01*
X226502075Y-133291492D01*
X226267531Y-133291361D01*
X225822256Y-133286280D01*
X225551521Y-133265598D01*
X225411902Y-133218294D01*
X225359974Y-133133351D01*
X225352315Y-132999751D01*
X225355964Y-132930267D01*
X225418383Y-132768614D01*
X225583520Y-132662912D01*
X225884162Y-132605392D01*
X226353096Y-132588283D01*
X227023109Y-132603816D01*
G37*
G36*
X213006008Y-132604020D02*
G01*
X213153894Y-132609169D01*
X213651572Y-132632068D01*
X213980138Y-132666684D01*
X214193012Y-132726400D01*
X214343614Y-132824600D01*
X214485364Y-132974670D01*
X214555183Y-133060776D01*
X214688659Y-133298238D01*
X214752575Y-133601573D01*
X214768981Y-134054746D01*
X214755361Y-134521301D01*
X214677542Y-135000958D01*
X214500638Y-135352012D01*
X214190935Y-135612659D01*
X213714721Y-135821093D01*
X213038281Y-136015509D01*
X212655572Y-136115878D01*
X212174363Y-136266782D01*
X211864738Y-136422185D01*
X211689558Y-136613238D01*
X211611686Y-136871088D01*
X211593981Y-137226887D01*
X211594069Y-137261247D01*
X211617362Y-137636775D01*
X211705344Y-137901292D01*
X211892008Y-138073854D01*
X212211349Y-138173518D01*
X212697360Y-138219341D01*
X213384035Y-138230381D01*
X213743395Y-138234293D01*
X214228418Y-138256469D01*
X214548658Y-138295433D01*
X214669028Y-138347973D01*
X214687038Y-138581040D01*
X214605597Y-138746070D01*
X214357407Y-138832674D01*
X214185928Y-138861497D01*
X213709431Y-138902684D01*
X213141116Y-138918350D01*
X212562438Y-138908977D01*
X212054849Y-138875043D01*
X211699804Y-138817028D01*
X211412424Y-138713888D01*
X211080026Y-138469482D01*
X210884371Y-138090596D01*
X210794184Y-137532880D01*
X210783817Y-137216559D01*
X210846838Y-136603887D01*
X211016694Y-136125277D01*
X211281096Y-135823864D01*
X211357124Y-135783282D01*
X211661311Y-135660498D01*
X212095796Y-135512833D01*
X212593277Y-135363880D01*
X213125473Y-135198038D01*
X213600093Y-134999077D01*
X213857398Y-134813389D01*
X213878763Y-134785573D01*
X214035774Y-134398024D01*
X214036970Y-133950852D01*
X213880369Y-133552842D01*
X213840213Y-133498695D01*
X213737262Y-133403164D01*
X213582859Y-133342530D01*
X213331076Y-133308941D01*
X212935987Y-133294546D01*
X212351665Y-133291492D01*
X211006018Y-133291492D01*
X211006018Y-133002839D01*
X211019462Y-132896325D01*
X211118806Y-132752533D01*
X211338870Y-132657042D01*
X211707916Y-132604217D01*
X212254208Y-132588422D01*
X213006008Y-132604020D01*
G37*
G36*
X207230576Y-132604020D02*
G01*
X207577476Y-132617837D01*
X208025218Y-132649099D01*
X208320503Y-132698725D01*
X208515857Y-132777411D01*
X208663802Y-132895851D01*
X208847852Y-133156821D01*
X209002955Y-133635451D01*
X209045070Y-134185261D01*
X208977798Y-134735075D01*
X208804741Y-135213716D01*
X208529499Y-135550007D01*
X208495708Y-135572929D01*
X208203611Y-135714526D01*
X207776695Y-135870398D01*
X207294777Y-136010761D01*
X206880501Y-136119663D01*
X206404605Y-136270220D01*
X206098707Y-136425540D01*
X205925902Y-136616303D01*
X205849283Y-136873191D01*
X205831944Y-137226887D01*
X205831975Y-137247360D01*
X205854068Y-137627903D01*
X205940375Y-137896108D01*
X206124980Y-138071216D01*
X206441967Y-138172469D01*
X206925418Y-138219110D01*
X207609417Y-138230381D01*
X207941599Y-138231863D01*
X208408299Y-138244926D01*
X208702374Y-138276226D01*
X208864554Y-138331475D01*
X208935567Y-138416387D01*
X208997389Y-138659818D01*
X208908267Y-138788116D01*
X208624768Y-138850870D01*
X208502760Y-138864555D01*
X207960875Y-138901600D01*
X207360151Y-138914446D01*
X206773871Y-138904018D01*
X206275315Y-138871238D01*
X205937767Y-138817028D01*
X205592083Y-138686112D01*
X205288390Y-138435802D01*
X205111752Y-138050431D01*
X205031247Y-137484546D01*
X205030460Y-137472048D01*
X205024558Y-136861828D01*
X205112000Y-136395592D01*
X205321081Y-136041931D01*
X205680097Y-135769436D01*
X206217343Y-135546696D01*
X206961116Y-135342302D01*
X207473380Y-135187622D01*
X207944500Y-134934211D01*
X208214945Y-134607451D01*
X208301389Y-134193044D01*
X208251349Y-133861990D01*
X208118332Y-133552842D01*
X208078175Y-133498695D01*
X207975225Y-133403164D01*
X207820822Y-133342530D01*
X207569039Y-133308941D01*
X207173950Y-133294546D01*
X206589628Y-133291492D01*
X205243981Y-133291492D01*
X205243981Y-133002839D01*
X205256013Y-132901590D01*
X205352891Y-132755616D01*
X205570553Y-132658540D01*
X205937231Y-132604695D01*
X206481161Y-132588410D01*
X207230576Y-132604020D01*
G37*
G36*
X198424526Y-132604020D02*
G01*
X198572413Y-132609169D01*
X199070091Y-132632068D01*
X199398657Y-132666684D01*
X199611531Y-132726400D01*
X199762132Y-132824600D01*
X199903882Y-132974670D01*
X199973702Y-133060776D01*
X200107177Y-133298238D01*
X200171094Y-133601573D01*
X200187500Y-134054746D01*
X200173879Y-134521301D01*
X200096060Y-135000958D01*
X199919156Y-135352012D01*
X199609454Y-135612659D01*
X199133239Y-135821093D01*
X198456799Y-136015509D01*
X198074091Y-136115878D01*
X197592881Y-136266782D01*
X197283256Y-136422185D01*
X197108077Y-136613238D01*
X197030204Y-136871088D01*
X197012500Y-137226887D01*
X197012587Y-137261247D01*
X197035881Y-137636775D01*
X197123863Y-137901292D01*
X197310527Y-138073854D01*
X197629867Y-138173518D01*
X198115878Y-138219341D01*
X198802554Y-138230381D01*
X199161913Y-138234293D01*
X199646937Y-138256469D01*
X199967177Y-138295433D01*
X200087546Y-138347973D01*
X200105557Y-138581040D01*
X200024116Y-138746070D01*
X199775926Y-138832674D01*
X199604447Y-138861497D01*
X199127950Y-138902684D01*
X198559635Y-138918350D01*
X197980956Y-138908977D01*
X197473367Y-138875043D01*
X197118322Y-138817028D01*
X196830943Y-138713888D01*
X196498545Y-138469482D01*
X196302890Y-138090596D01*
X196212702Y-137532880D01*
X196202335Y-137216559D01*
X196265356Y-136603887D01*
X196435212Y-136125277D01*
X196699614Y-135823864D01*
X196775643Y-135783282D01*
X197079829Y-135660498D01*
X197514315Y-135512833D01*
X198011796Y-135363880D01*
X198543991Y-135198038D01*
X199018611Y-134999077D01*
X199275916Y-134813389D01*
X199297281Y-134785573D01*
X199454293Y-134398024D01*
X199455489Y-133950852D01*
X199298887Y-133552842D01*
X199258731Y-133498695D01*
X199155781Y-133403164D01*
X199001378Y-133342530D01*
X198749595Y-133308941D01*
X198354506Y-133294546D01*
X197770184Y-133291492D01*
X196424537Y-133291492D01*
X196424537Y-133002839D01*
X196437981Y-132896325D01*
X196537324Y-132752533D01*
X196757388Y-132657042D01*
X197126435Y-132604217D01*
X197672727Y-132588422D01*
X198424526Y-132604020D01*
G37*
G36*
X264040278Y-135702140D02*
G01*
X264040278Y-138818344D01*
X263628703Y-138818344D01*
X263217129Y-138818344D01*
X263217129Y-137524825D01*
X263217129Y-136231307D01*
X262416457Y-136231307D01*
X262049518Y-136244555D01*
X261646388Y-136298297D01*
X261407526Y-136383589D01*
X261345883Y-136455251D01*
X261200806Y-136731749D01*
X261034314Y-137148158D01*
X260870524Y-137647709D01*
X260541780Y-138759548D01*
X260119118Y-138795832D01*
X259696456Y-138832117D01*
X259870604Y-138266666D01*
X259925612Y-138087216D01*
X260080867Y-137575417D01*
X260227431Y-137086409D01*
X260266992Y-136964679D01*
X260472299Y-136526084D01*
X260714442Y-136232216D01*
X260742547Y-136209827D01*
X260923196Y-136046859D01*
X260971424Y-135965077D01*
X260966946Y-135962523D01*
X260824897Y-135887431D01*
X260572997Y-135757382D01*
X260446064Y-135683930D01*
X260146111Y-135386511D01*
X259979112Y-134955317D01*
X259931567Y-134408622D01*
X260747685Y-134408622D01*
X260759804Y-134732836D01*
X260830786Y-135063957D01*
X260982870Y-135290566D01*
X260993465Y-135301009D01*
X261150517Y-135415924D01*
X261368179Y-135484312D01*
X261704515Y-135517235D01*
X262217592Y-135525751D01*
X263217129Y-135525751D01*
X263217129Y-134408622D01*
X263217129Y-133291492D01*
X262217592Y-133291492D01*
X262047920Y-133292547D01*
X261483819Y-133326101D01*
X261107752Y-133427121D01*
X260883711Y-133622971D01*
X260775690Y-133941017D01*
X260747685Y-134408622D01*
X259931567Y-134408622D01*
X259926453Y-134349825D01*
X259937903Y-134054419D01*
X260068727Y-133439291D01*
X260340674Y-132997046D01*
X260747685Y-132739564D01*
X261003380Y-132687069D01*
X261445123Y-132639802D01*
X261998518Y-132606616D01*
X262599768Y-132592574D01*
X264040278Y-132585936D01*
X264040278Y-133291492D01*
X264040278Y-135702140D01*
G37*
G36*
X238757870Y-132936279D02*
G01*
X238757870Y-133291492D01*
X237758333Y-133291492D01*
X236758796Y-133291492D01*
X236758796Y-136054918D01*
X236758796Y-138818344D01*
X236347222Y-138818344D01*
X235935648Y-138818344D01*
X235935648Y-136054918D01*
X235935648Y-133291492D01*
X234928300Y-133291492D01*
X233920952Y-133291492D01*
X233958161Y-132968112D01*
X233995370Y-132644733D01*
X236376620Y-132612900D01*
X238757870Y-132581067D01*
X238757870Y-132936279D01*
G37*
G36*
X231849305Y-132607884D02*
G01*
X232231481Y-132644733D01*
X232262832Y-135731538D01*
X232294182Y-138818344D01*
X231880656Y-138818344D01*
X231467129Y-138818344D01*
X231467129Y-135694690D01*
X231467129Y-132571035D01*
X231849305Y-132607884D01*
G37*
G36*
X220739474Y-136406901D02*
G01*
X220969317Y-137084938D01*
X221170135Y-137692568D01*
X221329259Y-138193509D01*
X221434023Y-138551479D01*
X221471759Y-138730197D01*
X221470192Y-138738106D01*
X221345416Y-138795030D01*
X221082117Y-138818344D01*
X220897462Y-138810933D01*
X220763546Y-138758424D01*
X220660658Y-138615546D01*
X220556967Y-138337029D01*
X220420643Y-137877603D01*
X220148812Y-136936862D01*
X218827551Y-136936862D01*
X217506290Y-136936862D01*
X217238426Y-137877603D01*
X217107595Y-138326151D01*
X217004885Y-138609458D01*
X216903231Y-138755716D01*
X216770693Y-138810239D01*
X216575327Y-138818344D01*
X216535916Y-138818185D01*
X216283357Y-138807858D01*
X216180092Y-138786352D01*
X216186840Y-138743962D01*
X216253787Y-138504428D01*
X216382372Y-138098737D01*
X216560169Y-137562255D01*
X216774749Y-136930351D01*
X217013686Y-136238391D01*
X217047039Y-136143112D01*
X217823304Y-136143112D01*
X217826049Y-136151959D01*
X217962842Y-136200335D01*
X218258599Y-136227660D01*
X218647708Y-136235377D01*
X219064560Y-136224931D01*
X219443543Y-136197765D01*
X219719048Y-136155324D01*
X219825463Y-136099051D01*
X219825008Y-136084319D01*
X219780688Y-135851328D01*
X219676842Y-135481918D01*
X219531785Y-135027712D01*
X219363832Y-134540331D01*
X219191297Y-134071396D01*
X219032496Y-133672531D01*
X218905745Y-133395355D01*
X218829358Y-133291492D01*
X218816093Y-133299163D01*
X218727871Y-133453759D01*
X218593221Y-133768297D01*
X218430232Y-134191505D01*
X218256993Y-134672113D01*
X218091592Y-135158849D01*
X217952118Y-135600442D01*
X217856659Y-135945620D01*
X217823304Y-136143112D01*
X217047039Y-136143112D01*
X217264552Y-135521744D01*
X217514920Y-134815777D01*
X217752363Y-134155857D01*
X217964452Y-133577352D01*
X218138761Y-133115630D01*
X218262862Y-132806057D01*
X218324328Y-132684002D01*
X218400774Y-132646846D01*
X218731154Y-132591453D01*
X219100580Y-132622177D01*
X219377898Y-132732927D01*
X219381879Y-132736868D01*
X219460225Y-132891877D01*
X219598214Y-133230450D01*
X219783181Y-133716303D01*
X220002458Y-134313157D01*
X220243377Y-134984728D01*
X220493271Y-135694737D01*
X220633047Y-136099051D01*
X220739474Y-136406901D01*
G37*
G36*
X203009722Y-135694690D02*
G01*
X203009722Y-138818344D01*
X202596196Y-138818344D01*
X202182669Y-138818344D01*
X202214020Y-135731538D01*
X202245370Y-132644733D01*
X202627546Y-132607884D01*
X203009722Y-132571035D01*
X203009722Y-135694690D01*
G37*
G36*
X194778241Y-132938714D02*
G01*
X194778241Y-133291492D01*
X193778703Y-133291492D01*
X192779166Y-133291492D01*
X192779166Y-136054918D01*
X192779166Y-138818344D01*
X192367592Y-138818344D01*
X191956018Y-138818344D01*
X191956018Y-136054918D01*
X191956018Y-133291492D01*
X190956481Y-133291492D01*
X189956944Y-133291492D01*
X189956944Y-132938714D01*
X189956944Y-132585936D01*
X192367592Y-132585936D01*
X194778241Y-132585936D01*
X194778241Y-132938714D01*
G37*
G36*
X189470679Y-138818344D02*
G01*
X189071982Y-138818344D01*
X188892843Y-138812214D01*
X188750734Y-138763541D01*
X188641757Y-138626796D01*
X188531655Y-138356457D01*
X188386170Y-137907001D01*
X188099054Y-136995659D01*
X186804646Y-136962511D01*
X185510237Y-136929364D01*
X185195693Y-137873854D01*
X185044614Y-138317348D01*
X184926873Y-138603117D01*
X184816919Y-138752280D01*
X184681454Y-138809226D01*
X184487179Y-138818344D01*
X184093209Y-138818344D01*
X184975558Y-136201909D01*
X185726150Y-136201909D01*
X185752409Y-136208479D01*
X185955608Y-136220190D01*
X186316222Y-136228285D01*
X186781944Y-136231307D01*
X187018344Y-136230562D01*
X187439612Y-136224890D01*
X187730398Y-136214853D01*
X187838353Y-136201909D01*
X187837819Y-136199168D01*
X187796654Y-136059983D01*
X187699522Y-135744968D01*
X187559917Y-135297610D01*
X187391335Y-134761399D01*
X187243710Y-134311399D01*
X187049437Y-133787864D01*
X186894452Y-133462286D01*
X186785463Y-133350288D01*
X186717770Y-133401068D01*
X186576861Y-133657645D01*
X186394190Y-134116442D01*
X186176687Y-134761399D01*
X186156341Y-134825506D01*
X185989282Y-135353661D01*
X185852837Y-135788081D01*
X185760596Y-136085314D01*
X185726150Y-136201909D01*
X184975558Y-136201909D01*
X185114197Y-135790803D01*
X185220288Y-135476525D01*
X185505263Y-134638502D01*
X185731163Y-133990113D01*
X185908928Y-133505819D01*
X186049496Y-133160081D01*
X186163806Y-132927359D01*
X186262795Y-132782115D01*
X186357401Y-132698808D01*
X186458565Y-132651899D01*
X186646305Y-132608165D01*
X187105324Y-132651899D01*
X187139268Y-132664584D01*
X187237127Y-132720421D01*
X187331951Y-132820876D01*
X187434677Y-132991490D01*
X187556245Y-133257800D01*
X187707592Y-133645347D01*
X187899656Y-134179671D01*
X188143377Y-134886310D01*
X188449691Y-135790803D01*
X188588330Y-136201909D01*
X189470679Y-138818344D01*
G37*
G36*
X178107523Y-132607737D02*
G01*
X178491666Y-132644733D01*
X178510731Y-135329229D01*
X178514331Y-135753489D01*
X178523461Y-136482981D01*
X178535107Y-137112194D01*
X178548452Y-137607402D01*
X178562678Y-137934879D01*
X178576967Y-138060897D01*
X178622794Y-137997955D01*
X178757085Y-137749812D01*
X178965157Y-137339818D01*
X179233199Y-136795707D01*
X179547401Y-136145216D01*
X179893951Y-135416080D01*
X180206200Y-134755604D01*
X180543534Y-134053403D01*
X180811480Y-133522239D01*
X181027196Y-133138195D01*
X181207840Y-132877348D01*
X181370569Y-132715780D01*
X181532542Y-132629569D01*
X181710917Y-132594797D01*
X181922850Y-132587542D01*
X182067200Y-132591900D01*
X182219525Y-132626888D01*
X182335849Y-132718561D01*
X182421010Y-132892419D01*
X182479842Y-133173961D01*
X182517183Y-133588684D01*
X182537867Y-134162088D01*
X182546731Y-134919670D01*
X182548611Y-135886928D01*
X182548611Y-138818344D01*
X182137037Y-138818344D01*
X181725463Y-138818344D01*
X181725463Y-136094115D01*
X181724160Y-135616523D01*
X181716848Y-134901852D01*
X181703968Y-134296830D01*
X181686514Y-133832841D01*
X181665480Y-133541267D01*
X181641860Y-133453490D01*
X181597714Y-133527140D01*
X181461106Y-133790199D01*
X181249605Y-134213801D01*
X180977977Y-134767990D01*
X180660988Y-135422814D01*
X180313405Y-136148320D01*
X179068553Y-138759548D01*
X178427332Y-138759548D01*
X177786111Y-138759548D01*
X177754745Y-135665145D01*
X177723380Y-132570742D01*
X178107523Y-132607737D01*
G37*
G36*
X175963426Y-132933958D02*
G01*
X175963426Y-133281981D01*
X174993287Y-133316134D01*
X174023148Y-133350288D01*
X173991583Y-136084316D01*
X173960017Y-138818344D01*
X173611574Y-138818344D01*
X173263131Y-138818344D01*
X173231565Y-136084316D01*
X173200000Y-133350288D01*
X172229861Y-133316134D01*
X171259722Y-133281981D01*
X171259722Y-132933958D01*
X171259722Y-132585936D01*
X173611574Y-132585936D01*
X175963426Y-132585936D01*
X175963426Y-132933958D01*
G37*
G36*
X233696317Y-119230524D02*
G01*
X233946338Y-119293732D01*
X234297662Y-119407632D01*
X234308479Y-119411428D01*
X234934355Y-119615450D01*
X235536472Y-119773756D01*
X236157913Y-119891568D01*
X236841764Y-119974108D01*
X237631108Y-120026599D01*
X238569029Y-120054264D01*
X239698611Y-120062325D01*
X239779907Y-120062295D01*
X240880994Y-120053628D01*
X241794669Y-120025897D01*
X242565358Y-119973785D01*
X243237488Y-119891977D01*
X243855482Y-119775158D01*
X244463767Y-119618011D01*
X245106769Y-119415222D01*
X245390992Y-119326099D01*
X245673378Y-119255187D01*
X245802275Y-119247625D01*
X245807757Y-119356486D01*
X245752244Y-119637181D01*
X245647109Y-120026100D01*
X245510183Y-120463024D01*
X245359300Y-120887732D01*
X245212292Y-121240002D01*
X245019952Y-121599850D01*
X244433484Y-122350707D01*
X243671319Y-122959381D01*
X242749360Y-123414760D01*
X241683512Y-123705730D01*
X240995564Y-123800602D01*
X239904442Y-123861350D01*
X238797740Y-123832605D01*
X237791890Y-123714117D01*
X237396550Y-123633786D01*
X236372416Y-123308783D01*
X235526300Y-122841434D01*
X234845367Y-122223363D01*
X234316785Y-121446195D01*
X234285986Y-121386575D01*
X234114695Y-121005606D01*
X233943152Y-120557140D01*
X233789380Y-120098145D01*
X233671402Y-119685588D01*
X233607239Y-119376436D01*
X233614915Y-119227657D01*
X233696317Y-119230524D01*
G37*
G36*
X195897204Y-106784928D02*
G01*
X196678060Y-106816060D01*
X197320543Y-106866205D01*
X197776664Y-106935754D01*
X197980581Y-106984888D01*
X198931995Y-107300939D01*
X199689319Y-107727216D01*
X200268396Y-108282720D01*
X200685071Y-108986448D01*
X200955185Y-109857401D01*
X201094583Y-110914576D01*
X201115061Y-111465035D01*
X201031489Y-112542456D01*
X200768476Y-113483305D01*
X200320121Y-114304736D01*
X199680520Y-115023902D01*
X199395837Y-115266160D01*
X199013502Y-115540619D01*
X198556089Y-115813926D01*
X197993949Y-116101059D01*
X197297434Y-116416998D01*
X196436892Y-116776723D01*
X195382675Y-117195211D01*
X194875939Y-117397969D01*
X194269636Y-117654565D01*
X193756163Y-117887519D01*
X193378047Y-118077363D01*
X193177814Y-118204627D01*
X193067986Y-118320817D01*
X192933716Y-118595755D01*
X192896759Y-118998377D01*
X192896760Y-119001507D01*
X192911662Y-119299713D01*
X192970118Y-119542243D01*
X193093383Y-119733937D01*
X193302717Y-119879629D01*
X193619376Y-119984157D01*
X194064619Y-120052357D01*
X194659702Y-120089066D01*
X195425884Y-120099122D01*
X196384423Y-120087359D01*
X197556575Y-120058616D01*
X198028902Y-120045658D01*
X198855959Y-120024506D01*
X199487932Y-120012369D01*
X199951872Y-120010415D01*
X200274832Y-120019811D01*
X200483863Y-120041725D01*
X200606017Y-120077326D01*
X200668346Y-120127782D01*
X200697903Y-120194261D01*
X200707384Y-120233812D01*
X200743062Y-120488048D01*
X200780268Y-120881573D01*
X200815986Y-121361007D01*
X200847197Y-121872970D01*
X200870884Y-122364083D01*
X200884028Y-122780967D01*
X200883612Y-123070242D01*
X200866618Y-123178529D01*
X200798942Y-123188864D01*
X200539804Y-123237360D01*
X200137066Y-123316516D01*
X199642482Y-123416282D01*
X199464224Y-123451317D01*
X198758674Y-123572583D01*
X198013285Y-123679720D01*
X197362450Y-123752888D01*
X196683506Y-123805895D01*
X195123832Y-123867161D01*
X193710815Y-123833570D01*
X192458934Y-123706973D01*
X191382670Y-123489223D01*
X190496500Y-123182170D01*
X189814906Y-122787667D01*
X189539401Y-122549613D01*
X189049704Y-121919424D01*
X188704203Y-121124950D01*
X188499319Y-120156402D01*
X188431473Y-119003992D01*
X188438398Y-118623049D01*
X188553382Y-117563397D01*
X188820038Y-116662769D01*
X189251612Y-115895353D01*
X189861351Y-115235341D01*
X190662500Y-114656921D01*
X190943503Y-114508127D01*
X191421546Y-114287073D01*
X192027445Y-114027167D01*
X192711978Y-113749463D01*
X193425926Y-113475011D01*
X194175302Y-113193536D01*
X194950088Y-112893358D01*
X195545160Y-112644390D01*
X195984022Y-112431305D01*
X196290181Y-112238776D01*
X196487145Y-112051478D01*
X196598418Y-111854083D01*
X196647508Y-111631265D01*
X196657921Y-111367698D01*
X196657855Y-111351631D01*
X196650323Y-111086809D01*
X196615039Y-110873950D01*
X196528955Y-110707381D01*
X196369022Y-110581427D01*
X196112193Y-110490416D01*
X195735421Y-110428675D01*
X195215656Y-110390529D01*
X194529852Y-110370307D01*
X193654959Y-110362333D01*
X192567932Y-110360936D01*
X189166236Y-110360936D01*
X189087493Y-109449594D01*
X189086606Y-109439340D01*
X189037897Y-108909637D01*
X188985814Y-108393738D01*
X188941485Y-108001954D01*
X188874220Y-107465656D01*
X189327387Y-107330386D01*
X189444459Y-107298227D01*
X189840654Y-107204656D01*
X190352054Y-107096733D01*
X190897685Y-106991911D01*
X190993600Y-106975472D01*
X191596932Y-106900753D01*
X192349823Y-106842696D01*
X193204284Y-106801693D01*
X194112327Y-106778136D01*
X195025964Y-106772417D01*
X195897204Y-106784928D01*
G37*
G36*
X230879166Y-115302066D02*
G01*
X230879075Y-116324758D01*
X230879059Y-116358159D01*
X230878370Y-117778091D01*
X230876624Y-119022512D01*
X230873436Y-120074182D01*
X230868399Y-120949264D01*
X230861113Y-121663919D01*
X230851172Y-122234310D01*
X230838173Y-122676596D01*
X230821714Y-123006941D01*
X230801390Y-123241506D01*
X230776798Y-123396453D01*
X230747535Y-123487942D01*
X230713196Y-123532137D01*
X230673379Y-123545198D01*
X230651276Y-123546636D01*
X230418633Y-123560703D01*
X230012255Y-123584559D01*
X229482591Y-123615261D01*
X228880092Y-123649865D01*
X228796565Y-123654507D01*
X227971644Y-123688874D01*
X227046688Y-123710086D01*
X226058933Y-123718852D01*
X225045615Y-123715876D01*
X224043971Y-123701866D01*
X223091234Y-123677530D01*
X222224642Y-123643573D01*
X221481429Y-123600703D01*
X220898833Y-123549626D01*
X220514087Y-123491050D01*
X220189696Y-123409758D01*
X219327721Y-123092322D01*
X218649856Y-122657705D01*
X218143979Y-122089313D01*
X217797971Y-121370555D01*
X217599712Y-120484836D01*
X217537080Y-119415566D01*
X217538990Y-119213352D01*
X217591017Y-118538793D01*
X222004361Y-118538793D01*
X222014153Y-119012561D01*
X222080809Y-119561658D01*
X222226450Y-119951603D01*
X222469765Y-120225117D01*
X222829443Y-120424925D01*
X222991800Y-120476405D01*
X223404412Y-120541595D01*
X224006120Y-120579331D01*
X224819371Y-120591492D01*
X226410648Y-120591492D01*
X226410648Y-118474825D01*
X226410648Y-116358159D01*
X224819371Y-116358159D01*
X224404813Y-116361067D01*
X223609841Y-116396814D01*
X223010071Y-116489861D01*
X222578793Y-116660898D01*
X222289294Y-116930617D01*
X222114864Y-117319712D01*
X222028790Y-117848873D01*
X222004361Y-118538793D01*
X217591017Y-118538793D01*
X217623070Y-118123212D01*
X217837644Y-117219335D01*
X218191005Y-116488432D01*
X218691443Y-115917215D01*
X219347248Y-115492394D01*
X220166712Y-115200682D01*
X220556245Y-115096308D01*
X220829642Y-114998710D01*
X220883172Y-114922026D01*
X220722835Y-114852742D01*
X220354629Y-114777344D01*
X219657880Y-114564287D01*
X219047237Y-114157932D01*
X218583962Y-113569816D01*
X218268857Y-112801375D01*
X218102726Y-111854041D01*
X218101459Y-111766876D01*
X222356038Y-111766876D01*
X222358403Y-111940881D01*
X222418535Y-112588410D01*
X222570335Y-113049207D01*
X222828178Y-113353072D01*
X223206438Y-113529805D01*
X223441622Y-113571801D01*
X223882518Y-113613609D01*
X224434163Y-113642155D01*
X225028935Y-113652873D01*
X226410648Y-113653529D01*
X226410648Y-111830844D01*
X226410648Y-110008159D01*
X224889599Y-110008159D01*
X224835681Y-110008228D01*
X224237752Y-110018159D01*
X223707444Y-110042483D01*
X223300600Y-110077749D01*
X223073064Y-110120502D01*
X222788926Y-110280873D01*
X222538741Y-110604721D01*
X222398605Y-111090501D01*
X222356038Y-111766876D01*
X218101459Y-111766876D01*
X218086373Y-110729250D01*
X218086982Y-110716825D01*
X218196030Y-109728089D01*
X218427802Y-108926038D01*
X218801666Y-108286269D01*
X219336989Y-107784380D01*
X220053139Y-107395968D01*
X220969483Y-107096631D01*
X221130911Y-107058175D01*
X221388939Y-107010295D01*
X221693094Y-106972432D01*
X222070384Y-106943503D01*
X222547815Y-106922425D01*
X223152393Y-106908117D01*
X223911125Y-106899493D01*
X224851016Y-106895473D01*
X225999074Y-106894974D01*
X226902510Y-106897597D01*
X227833718Y-106904642D01*
X228674632Y-106915490D01*
X229396274Y-106929566D01*
X229969665Y-106946294D01*
X230365829Y-106965100D01*
X230555787Y-106985408D01*
X230879166Y-107072825D01*
X230879166Y-110008159D01*
X230879166Y-115302066D01*
G37*
G36*
X215334346Y-116509718D02*
G01*
X215707263Y-117775020D01*
X216058384Y-118965052D01*
X216382141Y-120061018D01*
X216672966Y-121044123D01*
X216925294Y-121895570D01*
X217133557Y-122596563D01*
X217292188Y-123128307D01*
X217395620Y-123472006D01*
X217438285Y-123608863D01*
X217440471Y-123615628D01*
X217413287Y-123669419D01*
X217282337Y-123709289D01*
X217021345Y-123737085D01*
X216604037Y-123754653D01*
X216004139Y-123763840D01*
X215195377Y-123766492D01*
X212891981Y-123766492D01*
X212811199Y-123443112D01*
X212798430Y-123392287D01*
X212724685Y-123101416D01*
X212609843Y-122650437D01*
X212466985Y-122090670D01*
X212309190Y-121473436D01*
X211887963Y-119827140D01*
X209348220Y-119795498D01*
X206808478Y-119763857D01*
X206296019Y-121765174D01*
X205783560Y-123766492D01*
X203501949Y-123766492D01*
X201220337Y-123766492D01*
X201287412Y-123501909D01*
X201288150Y-123499002D01*
X201384886Y-123138621D01*
X201536811Y-122599195D01*
X201737159Y-121903204D01*
X201979167Y-121073125D01*
X202256067Y-120131436D01*
X202561096Y-119100617D01*
X202887489Y-118003144D01*
X203228480Y-116861496D01*
X203326626Y-116534176D01*
X207693456Y-116534176D01*
X207711013Y-116540977D01*
X207906582Y-116561550D01*
X208279426Y-116578174D01*
X208785140Y-116589292D01*
X209379321Y-116593344D01*
X209806084Y-116591512D01*
X210370067Y-116578789D01*
X210740343Y-116551928D01*
X210943004Y-116508570D01*
X211004143Y-116446353D01*
X211003329Y-116436216D01*
X210966161Y-116249260D01*
X210880162Y-115877582D01*
X210754295Y-115358266D01*
X210597525Y-114728393D01*
X210418817Y-114025045D01*
X210409697Y-113989462D01*
X210224130Y-113250805D01*
X210055479Y-112553316D01*
X209914520Y-111943551D01*
X209812029Y-111468068D01*
X209758783Y-111173424D01*
X209726756Y-110953171D01*
X209662228Y-110714560D01*
X209550864Y-110615669D01*
X209349901Y-110596122D01*
X209136321Y-110621099D01*
X209016007Y-110745483D01*
X208947454Y-111037094D01*
X208937161Y-111094574D01*
X208871314Y-111404840D01*
X208760669Y-111888906D01*
X208614811Y-112506036D01*
X208443325Y-113215492D01*
X208255798Y-113976537D01*
X208176924Y-114296038D01*
X208008190Y-114997747D01*
X207868086Y-115606026D01*
X207764002Y-116087264D01*
X207703329Y-116407851D01*
X207693456Y-116534176D01*
X203326626Y-116534176D01*
X203577304Y-115698152D01*
X203927197Y-114535589D01*
X204271392Y-113396286D01*
X204603126Y-112302721D01*
X204915633Y-111277372D01*
X205202149Y-110342717D01*
X205455907Y-109521235D01*
X205670143Y-108835403D01*
X205838092Y-108307700D01*
X205952990Y-107960605D01*
X206008070Y-107816594D01*
X206068240Y-107730333D01*
X206234725Y-107551226D01*
X206451516Y-107415529D01*
X206749399Y-107317464D01*
X207159159Y-107251252D01*
X207711584Y-107211113D01*
X208437460Y-107191267D01*
X209367572Y-107185936D01*
X209710917Y-107186507D01*
X210561824Y-107196402D01*
X211219239Y-107223114D01*
X211714051Y-107272487D01*
X212077146Y-107350362D01*
X212339414Y-107462582D01*
X212531741Y-107614990D01*
X212685015Y-107813428D01*
X212710755Y-107872137D01*
X212805125Y-108142941D01*
X212956282Y-108609764D01*
X213158381Y-109253481D01*
X213405576Y-110054967D01*
X213692024Y-110995098D01*
X214011879Y-112054747D01*
X214359296Y-113214790D01*
X214728431Y-114456102D01*
X215113439Y-115759558D01*
X215315686Y-116446353D01*
X215334346Y-116509718D01*
G37*
G36*
X261327371Y-110978009D02*
G01*
X261332130Y-112208428D01*
X261334808Y-113646810D01*
X261335648Y-115306765D01*
X261335648Y-123531307D01*
X259101389Y-123531307D01*
X256867129Y-123531307D01*
X256867129Y-120415103D01*
X256867129Y-117298899D01*
X255620781Y-117298899D01*
X254894537Y-117318641D01*
X254316983Y-117389868D01*
X253905823Y-117523873D01*
X253627482Y-117731878D01*
X253448390Y-118025107D01*
X253426780Y-118084846D01*
X253338743Y-118381087D01*
X253211708Y-118852361D01*
X253055744Y-119459757D01*
X252880923Y-120164365D01*
X252697313Y-120927273D01*
X252094080Y-123472510D01*
X249736744Y-123504284D01*
X247379408Y-123536058D01*
X248123890Y-120740858D01*
X248136267Y-120694389D01*
X248391082Y-119741422D01*
X248597008Y-118986000D01*
X248764401Y-118399439D01*
X248903618Y-117953052D01*
X249025016Y-117618153D01*
X249138950Y-117366057D01*
X249255778Y-117168076D01*
X249385857Y-116995525D01*
X249539542Y-116819718D01*
X249629271Y-116723847D01*
X249863748Y-116514642D01*
X250149539Y-116332651D01*
X250544151Y-116144743D01*
X251105092Y-115917788D01*
X251233026Y-115861977D01*
X251265377Y-115806481D01*
X251123029Y-115749514D01*
X250777828Y-115669737D01*
X250022447Y-115445430D01*
X249334761Y-115068366D01*
X248796862Y-114537880D01*
X248377369Y-113829918D01*
X248319155Y-113698894D01*
X248225013Y-113440124D01*
X248163605Y-113159640D01*
X248128382Y-112804097D01*
X248112794Y-112320151D01*
X248111874Y-112075208D01*
X252575000Y-112075208D01*
X252575304Y-112148052D01*
X252618844Y-112796013D01*
X252749632Y-113267151D01*
X252987102Y-113606122D01*
X253350687Y-113857582D01*
X253463249Y-113896521D01*
X253850592Y-113955188D01*
X254450923Y-113991567D01*
X255250231Y-114004573D01*
X256867129Y-114006307D01*
X256867129Y-111993888D01*
X256867129Y-109981469D01*
X255250231Y-110030072D01*
X254971980Y-110039593D01*
X254170747Y-110090499D01*
X253568366Y-110186269D01*
X253137287Y-110347963D01*
X252849962Y-110596643D01*
X252678838Y-110953369D01*
X252596368Y-111439204D01*
X252575000Y-112075208D01*
X248111874Y-112075208D01*
X248110293Y-111654455D01*
X248131820Y-110763399D01*
X248202564Y-110050035D01*
X248337976Y-109477486D01*
X248553529Y-108999577D01*
X248864694Y-108570137D01*
X249286944Y-108142992D01*
X249350162Y-108086290D01*
X249902957Y-107677756D01*
X250543049Y-107363580D01*
X251318810Y-107124318D01*
X252278608Y-106940529D01*
X252502612Y-106917303D01*
X252957932Y-106892229D01*
X253567803Y-106872925D01*
X254299748Y-106859212D01*
X255121292Y-106850911D01*
X255999959Y-106847840D01*
X256903274Y-106849819D01*
X257798761Y-106856669D01*
X258653944Y-106868210D01*
X259436348Y-106884260D01*
X260113497Y-106904640D01*
X260652915Y-106929170D01*
X261022127Y-106957670D01*
X261188657Y-106989959D01*
X261215620Y-107045021D01*
X261241672Y-107200708D01*
X261263961Y-107469106D01*
X261282727Y-107863820D01*
X261298210Y-108398460D01*
X261310651Y-109086633D01*
X261320292Y-109941947D01*
X261320562Y-109981469D01*
X261327371Y-110978009D01*
G37*
G36*
X187957870Y-108773436D02*
G01*
X187957870Y-110478529D01*
X185606018Y-110478529D01*
X183254166Y-110478529D01*
X183254166Y-117004918D01*
X183254166Y-123531307D01*
X180961111Y-123531307D01*
X178668055Y-123531307D01*
X178668055Y-117004918D01*
X178668055Y-110478529D01*
X176316203Y-110478529D01*
X173964352Y-110478529D01*
X173964352Y-108773436D01*
X173964352Y-107068344D01*
X180961111Y-107068344D01*
X187957870Y-107068344D01*
X187957870Y-108773436D01*
G37*
G36*
X233469543Y-117801269D02*
G01*
X233700966Y-117872853D01*
X234036195Y-117997371D01*
X234075024Y-118012589D01*
X234796672Y-118262119D01*
X235551132Y-118454240D01*
X236378480Y-118594321D01*
X237318792Y-118687730D01*
X238412144Y-118739839D01*
X239698611Y-118756015D01*
X239773701Y-118755970D01*
X241048712Y-118737990D01*
X242132773Y-118683788D01*
X243065959Y-118587994D01*
X243888347Y-118445240D01*
X244640010Y-118250155D01*
X245361027Y-117997371D01*
X245608416Y-117904681D01*
X245879842Y-117817891D01*
X246001479Y-117800533D01*
X246007685Y-117816058D01*
X246005882Y-117992477D01*
X245968640Y-118288546D01*
X245918112Y-118514702D01*
X245773041Y-118746371D01*
X245477138Y-118911654D01*
X245111347Y-119043024D01*
X244537184Y-119212092D01*
X243873000Y-119381453D01*
X243195060Y-119531833D01*
X242579629Y-119643957D01*
X242508034Y-119653364D01*
X242119920Y-119682255D01*
X241556870Y-119703618D01*
X240865776Y-119716475D01*
X240093533Y-119719846D01*
X239287037Y-119712750D01*
X238686784Y-119700854D01*
X237659472Y-119663134D01*
X236798619Y-119601089D01*
X236058958Y-119508322D01*
X235395221Y-119378436D01*
X234762140Y-119205031D01*
X234114449Y-118981712D01*
X233880184Y-118889626D01*
X233637839Y-118753418D01*
X233516280Y-118577654D01*
X233450690Y-118295307D01*
X233434529Y-118192207D01*
X233402241Y-117919931D01*
X233404517Y-117794358D01*
X233469543Y-117801269D01*
G37*
G36*
X247345954Y-114400383D02*
G01*
X247704193Y-114603555D01*
X247815856Y-114734403D01*
X247891628Y-114918900D01*
X247909898Y-115194661D01*
X247882969Y-115632490D01*
X247870103Y-115787284D01*
X247825795Y-116330219D01*
X247775118Y-116961545D01*
X247726692Y-117574168D01*
X247694829Y-117951820D01*
X247644736Y-118374054D01*
X247581259Y-118647334D01*
X247490485Y-118823872D01*
X247358500Y-118955881D01*
X247108944Y-119109072D01*
X246858732Y-119180381D01*
X246824656Y-119178784D01*
X246758255Y-119152225D01*
X246709616Y-119069540D01*
X246675987Y-118900886D01*
X246654618Y-118616421D01*
X246642760Y-118186302D01*
X246637662Y-117580687D01*
X246636574Y-116769733D01*
X246636574Y-114359085D01*
X247048148Y-114359085D01*
X247345954Y-114400383D01*
G37*
G36*
X232760648Y-116769733D02*
G01*
X232760501Y-117139495D01*
X232758053Y-117860011D01*
X232750433Y-118387801D01*
X232734891Y-118752710D01*
X232708675Y-118984580D01*
X232669037Y-119113253D01*
X232613225Y-119168573D01*
X232538490Y-119180381D01*
X232314716Y-119121191D01*
X232042355Y-118958528D01*
X231937840Y-118859350D01*
X231842095Y-118700612D01*
X231774708Y-118457640D01*
X231722816Y-118080189D01*
X231673556Y-117518018D01*
X231650333Y-117222572D01*
X231600370Y-116602689D01*
X231552627Y-116028257D01*
X231514898Y-115593807D01*
X231496573Y-115360680D01*
X231497003Y-115028585D01*
X231559419Y-114809358D01*
X231698862Y-114623668D01*
X231912093Y-114460084D01*
X232353655Y-114359085D01*
X232760648Y-114359085D01*
X232760648Y-116769733D01*
G37*
G36*
X246016955Y-113018532D02*
G01*
X246085779Y-113937208D01*
X246127500Y-114833860D01*
X246137306Y-115644199D01*
X246110379Y-116303934D01*
X246025547Y-117322326D01*
X245507074Y-117551672D01*
X245305880Y-117634170D01*
X244659764Y-117848928D01*
X243888521Y-118052975D01*
X243070899Y-118226774D01*
X242285648Y-118350792D01*
X241956386Y-118379274D01*
X241395142Y-118404800D01*
X240705064Y-118420034D01*
X239943911Y-118423787D01*
X239169444Y-118414871D01*
X238806748Y-118406000D01*
X237601753Y-118349793D01*
X236573768Y-118251547D01*
X235678902Y-118104512D01*
X234873264Y-117901935D01*
X234112963Y-117637066D01*
X233407407Y-117357320D01*
X233332876Y-116416767D01*
X233325846Y-116315198D01*
X233308599Y-115718909D01*
X233315019Y-114973390D01*
X233341913Y-114142703D01*
X233386088Y-113290910D01*
X233444352Y-112482072D01*
X233467969Y-112242418D01*
X236527342Y-112242418D01*
X236531004Y-112401433D01*
X236678041Y-113254827D01*
X237031814Y-114003351D01*
X237581387Y-114629441D01*
X238315827Y-115115528D01*
X238338306Y-115126611D01*
X239114131Y-115380619D01*
X239922543Y-115422426D01*
X240718341Y-115261023D01*
X241456323Y-114905401D01*
X242091287Y-114364551D01*
X242353039Y-114051305D01*
X242686149Y-113503458D01*
X242863998Y-112909377D01*
X242919016Y-112183622D01*
X242917170Y-111935404D01*
X242880190Y-111499488D01*
X242776640Y-111135893D01*
X242580562Y-110733385D01*
X242543976Y-110667754D01*
X242020487Y-109948591D01*
X241383261Y-109435108D01*
X240629750Y-109125758D01*
X239757407Y-109018994D01*
X239655183Y-109019722D01*
X238793821Y-109144033D01*
X238037824Y-109464059D01*
X237410186Y-109956856D01*
X236933898Y-110599478D01*
X236631952Y-111368981D01*
X236527342Y-112242418D01*
X233467969Y-112242418D01*
X233513513Y-111780253D01*
X233590378Y-111249513D01*
X233807924Y-110361134D01*
X234145275Y-109462864D01*
X234562099Y-108706683D01*
X235037452Y-108137627D01*
X235343321Y-107854595D01*
X234965582Y-107167488D01*
X234759243Y-106827342D01*
X234568477Y-106576290D01*
X234441308Y-106480381D01*
X234284965Y-106397235D01*
X234102149Y-106186399D01*
X233997852Y-106009554D01*
X233977729Y-105828589D01*
X234102149Y-105598436D01*
X234280221Y-105412415D01*
X234564742Y-105322320D01*
X234836206Y-105405206D01*
X235032323Y-105636342D01*
X235090804Y-105990993D01*
X235109439Y-106166706D01*
X235221684Y-106521064D01*
X235404490Y-106906360D01*
X235742153Y-107507048D01*
X236253216Y-107280981D01*
X237058183Y-107009031D01*
X238045342Y-106819735D01*
X239126641Y-106724803D01*
X240240361Y-106724178D01*
X241324784Y-106817799D01*
X242318188Y-107005609D01*
X243158855Y-107287549D01*
X243684766Y-107520185D01*
X244048974Y-106874843D01*
X244196088Y-106587095D01*
X244326294Y-106239520D01*
X244346230Y-106018553D01*
X244357191Y-105806292D01*
X244497345Y-105538302D01*
X244513847Y-105518278D01*
X244742162Y-105339688D01*
X245021396Y-105345797D01*
X245176475Y-105408036D01*
X245387369Y-105635350D01*
X245440791Y-105933623D01*
X245333941Y-106230137D01*
X245064016Y-106452176D01*
X244912017Y-106566522D01*
X244669531Y-106846037D01*
X244433519Y-107204975D01*
X244077539Y-107832696D01*
X244544387Y-108341205D01*
X244896060Y-108778599D01*
X245200276Y-109305548D01*
X245457814Y-109951280D01*
X245696194Y-110773921D01*
X245817265Y-111372274D01*
X245925845Y-112142124D01*
X245930159Y-112183622D01*
X246016955Y-113018532D01*
G37*
G36*
X241860054Y-111445305D02*
G01*
X241993043Y-112080528D01*
X241978182Y-112222819D01*
X241922276Y-112758110D01*
X241692172Y-113323676D01*
X241266771Y-113874394D01*
X240711799Y-114258236D01*
X240576019Y-114316236D01*
X239912111Y-114463474D01*
X239243468Y-114415996D01*
X238620555Y-114190414D01*
X238093838Y-113803339D01*
X237713783Y-113271384D01*
X237494333Y-112585428D01*
X237488706Y-112255216D01*
X238353012Y-112255216D01*
X238437800Y-112463274D01*
X238651807Y-112584893D01*
X238812916Y-112499433D01*
X238875463Y-112222819D01*
X238841979Y-112097188D01*
X238652859Y-112007233D01*
X238450821Y-112073151D01*
X238353012Y-112255216D01*
X237488706Y-112255216D01*
X237482657Y-111900293D01*
X237655565Y-111297230D01*
X238660810Y-111297230D01*
X238823334Y-111628290D01*
X238851118Y-111664471D01*
X239142715Y-111851942D01*
X239511718Y-111877998D01*
X239867223Y-111733479D01*
X239971654Y-111626623D01*
X240075265Y-111318993D01*
X240022557Y-110976662D01*
X239817875Y-110691422D01*
X239526844Y-110518391D01*
X239210537Y-110519722D01*
X238895961Y-110750691D01*
X238704025Y-111007424D01*
X238660810Y-111297230D01*
X237655565Y-111297230D01*
X237665516Y-111262525D01*
X238025502Y-110710103D01*
X238545210Y-110281002D01*
X239207230Y-110013199D01*
X239230047Y-110007847D01*
X239914126Y-109958443D01*
X240550345Y-110109009D01*
X241107526Y-110428023D01*
X241554489Y-110883962D01*
X241791297Y-111318993D01*
X241860054Y-111445305D01*
G37*
%LPC*%
D10*
X204950000Y-142187500D03*
X206250000Y-142187500D03*
X204950000Y-143487500D03*
X206250000Y-143487500D03*
X204950000Y-144787500D03*
X206250000Y-144787500D03*
X204950000Y-146087500D03*
X206250000Y-146087500D03*
D11*
X130977500Y-132150000D03*
X130977500Y-144850000D03*
D12*
X148080000Y-120460000D03*
D13*
X148080000Y-123000000D03*
X148080000Y-125540000D03*
D14*
X187000000Y-145000000D03*
D15*
X161760000Y-145300000D03*
D16*
X164300000Y-145300000D03*
X166840000Y-145300000D03*
D14*
X122000000Y-132000000D03*
X187000000Y-101000000D03*
X122000000Y-145000000D03*
D17*
X267000000Y-108000000D03*
D18*
X262680000Y-105000000D03*
D19*
X262680000Y-108000000D03*
X262680000Y-111000000D03*
X259680000Y-105000000D03*
X259680000Y-108000000D03*
X259680000Y-111000000D03*
D14*
X254000000Y-101000000D03*
D15*
X171000000Y-104080000D03*
D16*
X171000000Y-101540000D03*
X171000000Y-99000000D03*
D15*
X129700000Y-114600000D03*
D16*
X129700000Y-112060000D03*
D20*
X266050000Y-120500000D03*
D21*
X266050000Y-118500000D03*
D17*
X267000000Y-138000000D03*
D18*
X262680000Y-135000000D03*
D19*
X262680000Y-138000000D03*
X262680000Y-141000000D03*
X259680000Y-135000000D03*
X259680000Y-138000000D03*
X259680000Y-141000000D03*
D14*
X122000000Y-101000000D03*
X254000000Y-145000000D03*
D20*
X266050000Y-127500000D03*
D21*
X266050000Y-125500000D03*
D22*
X123000000Y-107000000D03*
X123000000Y-112000000D03*
D23*
X120300000Y-106000000D03*
X120300000Y-113000000D03*
%LPD*%
M02*
