%TF.GenerationSoftware,KiCad,Pcbnew,7.0.5-4d25ed1034~172~ubuntu22.04.1*%
%TF.CreationDate,2023-05-31T11:26:36+02:00*%
%TF.ProjectId,Drawer_Controller,44726177-6572-45f4-936f-6e74726f6c6c,rev?*%
%TF.SameCoordinates,Original*%
%TF.FileFunction,Drillmap*%
%TF.FilePolarity,Positive*%
%FSLAX45Y45*%
G04 Gerber Fmt 4.5, Leading zero omitted, Abs format (unit mm)*
G04 Created by KiCad (PCBNEW 7.0.5-4d25ed1034~172~ubuntu22.04.1) date 2023-05-31 11:26:36*
%MOMM*%
%LPD*%
G01*
G04 APERTURE LIST*
%ADD10C,0.100000*%
%ADD11C,0.200000*%
%ADD12C,0.300000*%
%ADD13C,0.320000*%
%ADD14C,0.325000*%
G04 APERTURE END LIST*
D10*
X18550000Y-9700000D02*
G75*
G03*
X18300000Y-9950000I0J-250000D01*
G01*
X17800000Y-9950000D02*
X18300000Y-9950000D01*
X17800000Y-9950000D02*
X17300000Y-9950000D01*
X12200000Y-9700000D02*
G75*
G03*
X11800000Y-10100000I0J-400000D01*
G01*
X11800000Y-11400000D02*
X11800000Y-10100000D01*
X11800000Y-14500000D02*
X11800000Y-13200000D01*
X26900000Y-14900000D02*
G75*
G03*
X27300000Y-14500000I0J400000D01*
G01*
X13300000Y-12600000D02*
X13300000Y-12000000D01*
X17050000Y-9700000D02*
X17250000Y-9700000D01*
X17800000Y-14650000D02*
X18300000Y-14650000D01*
X17300000Y-9950000D02*
X17300000Y-9750000D01*
X12200000Y-12800000D02*
G75*
G03*
X11800000Y-13200000I0J-400000D01*
G01*
X18550000Y-14900000D02*
X26900000Y-14900000D01*
X17050000Y-9700000D02*
X12200000Y-9700000D01*
X11800000Y-11400000D02*
G75*
G03*
X12200000Y-11800000I400000J0D01*
G01*
X13100000Y-11800000D02*
X12200000Y-11800000D01*
X13100000Y-12800000D02*
G75*
G03*
X13300000Y-12600000I0J200000D01*
G01*
X12200000Y-12800000D02*
X13100000Y-12800000D01*
X17050000Y-14900000D02*
G75*
G03*
X17300000Y-14650000I0J250000D01*
G01*
X27300000Y-10100000D02*
G75*
G03*
X26900000Y-9700000I-400000J0D01*
G01*
X17300000Y-9750000D02*
G75*
G03*
X17250000Y-9700000I-50000J0D01*
G01*
X17050000Y-14900000D02*
X12200000Y-14900000D01*
X27300000Y-14500000D02*
X27300000Y-10100000D01*
X11800000Y-14500000D02*
G75*
G03*
X12200000Y-14900000I400000J0D01*
G01*
X17800000Y-14650000D02*
X17300000Y-14650000D01*
X18300000Y-14650000D02*
G75*
G03*
X18550000Y-14900000I250000J0D01*
G01*
X13300000Y-12000000D02*
G75*
G03*
X13100000Y-11800000I-200000J0D01*
G01*
X18550000Y-9700000D02*
X26900000Y-9700000D01*
D11*
D12*
X26550000Y-10650000D02*
X26850000Y-10950000D01*
X26850000Y-10650000D02*
X26550000Y-10950000D01*
X26550000Y-13650000D02*
X26850000Y-13950000D01*
X26850000Y-13650000D02*
X26550000Y-13950000D01*
D13*
X12360000Y-10100000D02*
G75*
G03*
X12360000Y-10100000I-160000J0D01*
G01*
X12360000Y-13200000D02*
G75*
G03*
X12360000Y-13200000I-160000J0D01*
G01*
X12360000Y-14500000D02*
G75*
G03*
X12360000Y-14500000I-160000J0D01*
G01*
X18860000Y-10100000D02*
G75*
G03*
X18860000Y-10100000I-160000J0D01*
G01*
X18860000Y-14500000D02*
G75*
G03*
X18860000Y-14500000I-160000J0D01*
G01*
X25560000Y-10100000D02*
G75*
G03*
X25560000Y-10100000I-160000J0D01*
G01*
X25560000Y-14500000D02*
G75*
G03*
X25560000Y-14500000I-160000J0D01*
G01*
D14*
X13097750Y-13052500D02*
X13097750Y-13377500D01*
X12935250Y-13215000D02*
X13260250Y-13215000D01*
X13097750Y-14322500D02*
X13097750Y-14647500D01*
X12935250Y-14485000D02*
X13260250Y-14485000D01*
D11*
X12055777Y-15216484D02*
X12055777Y-15016484D01*
X12055777Y-15016484D02*
X12103396Y-15016484D01*
X12103396Y-15016484D02*
X12131967Y-15026008D01*
X12131967Y-15026008D02*
X12151015Y-15045055D01*
X12151015Y-15045055D02*
X12160539Y-15064103D01*
X12160539Y-15064103D02*
X12170062Y-15102198D01*
X12170062Y-15102198D02*
X12170062Y-15130769D01*
X12170062Y-15130769D02*
X12160539Y-15168865D01*
X12160539Y-15168865D02*
X12151015Y-15187912D01*
X12151015Y-15187912D02*
X12131967Y-15206960D01*
X12131967Y-15206960D02*
X12103396Y-15216484D01*
X12103396Y-15216484D02*
X12055777Y-15216484D01*
X12255777Y-15216484D02*
X12255777Y-15083150D01*
X12255777Y-15121246D02*
X12265301Y-15102198D01*
X12265301Y-15102198D02*
X12274824Y-15092674D01*
X12274824Y-15092674D02*
X12293872Y-15083150D01*
X12293872Y-15083150D02*
X12312920Y-15083150D01*
X12379586Y-15216484D02*
X12379586Y-15083150D01*
X12379586Y-15016484D02*
X12370062Y-15026008D01*
X12370062Y-15026008D02*
X12379586Y-15035531D01*
X12379586Y-15035531D02*
X12389110Y-15026008D01*
X12389110Y-15026008D02*
X12379586Y-15016484D01*
X12379586Y-15016484D02*
X12379586Y-15035531D01*
X12503396Y-15216484D02*
X12484348Y-15206960D01*
X12484348Y-15206960D02*
X12474824Y-15187912D01*
X12474824Y-15187912D02*
X12474824Y-15016484D01*
X12608158Y-15216484D02*
X12589110Y-15206960D01*
X12589110Y-15206960D02*
X12579586Y-15187912D01*
X12579586Y-15187912D02*
X12579586Y-15016484D01*
X12836729Y-15216484D02*
X12836729Y-15016484D01*
X12836729Y-15016484D02*
X12903396Y-15159341D01*
X12903396Y-15159341D02*
X12970062Y-15016484D01*
X12970062Y-15016484D02*
X12970062Y-15216484D01*
X13151015Y-15216484D02*
X13151015Y-15111722D01*
X13151015Y-15111722D02*
X13141491Y-15092674D01*
X13141491Y-15092674D02*
X13122443Y-15083150D01*
X13122443Y-15083150D02*
X13084348Y-15083150D01*
X13084348Y-15083150D02*
X13065301Y-15092674D01*
X13151015Y-15206960D02*
X13131967Y-15216484D01*
X13131967Y-15216484D02*
X13084348Y-15216484D01*
X13084348Y-15216484D02*
X13065301Y-15206960D01*
X13065301Y-15206960D02*
X13055777Y-15187912D01*
X13055777Y-15187912D02*
X13055777Y-15168865D01*
X13055777Y-15168865D02*
X13065301Y-15149817D01*
X13065301Y-15149817D02*
X13084348Y-15140293D01*
X13084348Y-15140293D02*
X13131967Y-15140293D01*
X13131967Y-15140293D02*
X13151015Y-15130769D01*
X13246253Y-15083150D02*
X13246253Y-15283150D01*
X13246253Y-15092674D02*
X13265301Y-15083150D01*
X13265301Y-15083150D02*
X13303396Y-15083150D01*
X13303396Y-15083150D02*
X13322443Y-15092674D01*
X13322443Y-15092674D02*
X13331967Y-15102198D01*
X13331967Y-15102198D02*
X13341491Y-15121246D01*
X13341491Y-15121246D02*
X13341491Y-15178388D01*
X13341491Y-15178388D02*
X13331967Y-15197436D01*
X13331967Y-15197436D02*
X13322443Y-15206960D01*
X13322443Y-15206960D02*
X13303396Y-15216484D01*
X13303396Y-15216484D02*
X13265301Y-15216484D01*
X13265301Y-15216484D02*
X13246253Y-15206960D01*
X13427205Y-15197436D02*
X13436729Y-15206960D01*
X13436729Y-15206960D02*
X13427205Y-15216484D01*
X13427205Y-15216484D02*
X13417682Y-15206960D01*
X13417682Y-15206960D02*
X13427205Y-15197436D01*
X13427205Y-15197436D02*
X13427205Y-15216484D01*
X13427205Y-15092674D02*
X13436729Y-15102198D01*
X13436729Y-15102198D02*
X13427205Y-15111722D01*
X13427205Y-15111722D02*
X13417682Y-15102198D01*
X13417682Y-15102198D02*
X13427205Y-15092674D01*
X13427205Y-15092674D02*
X13427205Y-15111722D01*
X11595000Y-15445000D02*
X11795000Y-15645000D01*
X11795000Y-15445000D02*
X11595000Y-15645000D01*
X12036729Y-15436484D02*
X12160539Y-15436484D01*
X12160539Y-15436484D02*
X12093872Y-15512674D01*
X12093872Y-15512674D02*
X12122443Y-15512674D01*
X12122443Y-15512674D02*
X12141491Y-15522198D01*
X12141491Y-15522198D02*
X12151015Y-15531722D01*
X12151015Y-15531722D02*
X12160539Y-15550769D01*
X12160539Y-15550769D02*
X12160539Y-15598388D01*
X12160539Y-15598388D02*
X12151015Y-15617436D01*
X12151015Y-15617436D02*
X12141491Y-15626960D01*
X12141491Y-15626960D02*
X12122443Y-15636484D01*
X12122443Y-15636484D02*
X12065301Y-15636484D01*
X12065301Y-15636484D02*
X12046253Y-15626960D01*
X12046253Y-15626960D02*
X12036729Y-15617436D01*
X12246253Y-15617436D02*
X12255777Y-15626960D01*
X12255777Y-15626960D02*
X12246253Y-15636484D01*
X12246253Y-15636484D02*
X12236729Y-15626960D01*
X12236729Y-15626960D02*
X12246253Y-15617436D01*
X12246253Y-15617436D02*
X12246253Y-15636484D01*
X12379586Y-15436484D02*
X12398634Y-15436484D01*
X12398634Y-15436484D02*
X12417682Y-15446008D01*
X12417682Y-15446008D02*
X12427205Y-15455531D01*
X12427205Y-15455531D02*
X12436729Y-15474579D01*
X12436729Y-15474579D02*
X12446253Y-15512674D01*
X12446253Y-15512674D02*
X12446253Y-15560293D01*
X12446253Y-15560293D02*
X12436729Y-15598388D01*
X12436729Y-15598388D02*
X12427205Y-15617436D01*
X12427205Y-15617436D02*
X12417682Y-15626960D01*
X12417682Y-15626960D02*
X12398634Y-15636484D01*
X12398634Y-15636484D02*
X12379586Y-15636484D01*
X12379586Y-15636484D02*
X12360539Y-15626960D01*
X12360539Y-15626960D02*
X12351015Y-15617436D01*
X12351015Y-15617436D02*
X12341491Y-15598388D01*
X12341491Y-15598388D02*
X12331967Y-15560293D01*
X12331967Y-15560293D02*
X12331967Y-15512674D01*
X12331967Y-15512674D02*
X12341491Y-15474579D01*
X12341491Y-15474579D02*
X12351015Y-15455531D01*
X12351015Y-15455531D02*
X12360539Y-15446008D01*
X12360539Y-15446008D02*
X12379586Y-15436484D01*
X12570062Y-15436484D02*
X12589110Y-15436484D01*
X12589110Y-15436484D02*
X12608158Y-15446008D01*
X12608158Y-15446008D02*
X12617682Y-15455531D01*
X12617682Y-15455531D02*
X12627205Y-15474579D01*
X12627205Y-15474579D02*
X12636729Y-15512674D01*
X12636729Y-15512674D02*
X12636729Y-15560293D01*
X12636729Y-15560293D02*
X12627205Y-15598388D01*
X12627205Y-15598388D02*
X12617682Y-15617436D01*
X12617682Y-15617436D02*
X12608158Y-15626960D01*
X12608158Y-15626960D02*
X12589110Y-15636484D01*
X12589110Y-15636484D02*
X12570062Y-15636484D01*
X12570062Y-15636484D02*
X12551015Y-15626960D01*
X12551015Y-15626960D02*
X12541491Y-15617436D01*
X12541491Y-15617436D02*
X12531967Y-15598388D01*
X12531967Y-15598388D02*
X12522443Y-15560293D01*
X12522443Y-15560293D02*
X12522443Y-15512674D01*
X12522443Y-15512674D02*
X12531967Y-15474579D01*
X12531967Y-15474579D02*
X12541491Y-15455531D01*
X12541491Y-15455531D02*
X12551015Y-15446008D01*
X12551015Y-15446008D02*
X12570062Y-15436484D01*
X12760539Y-15436484D02*
X12779586Y-15436484D01*
X12779586Y-15436484D02*
X12798634Y-15446008D01*
X12798634Y-15446008D02*
X12808158Y-15455531D01*
X12808158Y-15455531D02*
X12817682Y-15474579D01*
X12817682Y-15474579D02*
X12827205Y-15512674D01*
X12827205Y-15512674D02*
X12827205Y-15560293D01*
X12827205Y-15560293D02*
X12817682Y-15598388D01*
X12817682Y-15598388D02*
X12808158Y-15617436D01*
X12808158Y-15617436D02*
X12798634Y-15626960D01*
X12798634Y-15626960D02*
X12779586Y-15636484D01*
X12779586Y-15636484D02*
X12760539Y-15636484D01*
X12760539Y-15636484D02*
X12741491Y-15626960D01*
X12741491Y-15626960D02*
X12731967Y-15617436D01*
X12731967Y-15617436D02*
X12722443Y-15598388D01*
X12722443Y-15598388D02*
X12712920Y-15560293D01*
X12712920Y-15560293D02*
X12712920Y-15512674D01*
X12712920Y-15512674D02*
X12722443Y-15474579D01*
X12722443Y-15474579D02*
X12731967Y-15455531D01*
X12731967Y-15455531D02*
X12741491Y-15446008D01*
X12741491Y-15446008D02*
X12760539Y-15436484D01*
X12912920Y-15636484D02*
X12912920Y-15503150D01*
X12912920Y-15522198D02*
X12922443Y-15512674D01*
X12922443Y-15512674D02*
X12941491Y-15503150D01*
X12941491Y-15503150D02*
X12970063Y-15503150D01*
X12970063Y-15503150D02*
X12989110Y-15512674D01*
X12989110Y-15512674D02*
X12998634Y-15531722D01*
X12998634Y-15531722D02*
X12998634Y-15636484D01*
X12998634Y-15531722D02*
X13008158Y-15512674D01*
X13008158Y-15512674D02*
X13027205Y-15503150D01*
X13027205Y-15503150D02*
X13055777Y-15503150D01*
X13055777Y-15503150D02*
X13074824Y-15512674D01*
X13074824Y-15512674D02*
X13084348Y-15531722D01*
X13084348Y-15531722D02*
X13084348Y-15636484D01*
X13179586Y-15636484D02*
X13179586Y-15503150D01*
X13179586Y-15522198D02*
X13189110Y-15512674D01*
X13189110Y-15512674D02*
X13208158Y-15503150D01*
X13208158Y-15503150D02*
X13236729Y-15503150D01*
X13236729Y-15503150D02*
X13255777Y-15512674D01*
X13255777Y-15512674D02*
X13265301Y-15531722D01*
X13265301Y-15531722D02*
X13265301Y-15636484D01*
X13265301Y-15531722D02*
X13274824Y-15512674D01*
X13274824Y-15512674D02*
X13293872Y-15503150D01*
X13293872Y-15503150D02*
X13322443Y-15503150D01*
X13322443Y-15503150D02*
X13341491Y-15512674D01*
X13341491Y-15512674D02*
X13351015Y-15531722D01*
X13351015Y-15531722D02*
X13351015Y-15636484D01*
X13741491Y-15426960D02*
X13570063Y-15684103D01*
X13998634Y-15436484D02*
X14017682Y-15436484D01*
X14017682Y-15436484D02*
X14036729Y-15446008D01*
X14036729Y-15446008D02*
X14046253Y-15455531D01*
X14046253Y-15455531D02*
X14055777Y-15474579D01*
X14055777Y-15474579D02*
X14065301Y-15512674D01*
X14065301Y-15512674D02*
X14065301Y-15560293D01*
X14065301Y-15560293D02*
X14055777Y-15598388D01*
X14055777Y-15598388D02*
X14046253Y-15617436D01*
X14046253Y-15617436D02*
X14036729Y-15626960D01*
X14036729Y-15626960D02*
X14017682Y-15636484D01*
X14017682Y-15636484D02*
X13998634Y-15636484D01*
X13998634Y-15636484D02*
X13979586Y-15626960D01*
X13979586Y-15626960D02*
X13970063Y-15617436D01*
X13970063Y-15617436D02*
X13960539Y-15598388D01*
X13960539Y-15598388D02*
X13951015Y-15560293D01*
X13951015Y-15560293D02*
X13951015Y-15512674D01*
X13951015Y-15512674D02*
X13960539Y-15474579D01*
X13960539Y-15474579D02*
X13970063Y-15455531D01*
X13970063Y-15455531D02*
X13979586Y-15446008D01*
X13979586Y-15446008D02*
X13998634Y-15436484D01*
X14151015Y-15617436D02*
X14160539Y-15626960D01*
X14160539Y-15626960D02*
X14151015Y-15636484D01*
X14151015Y-15636484D02*
X14141491Y-15626960D01*
X14141491Y-15626960D02*
X14151015Y-15617436D01*
X14151015Y-15617436D02*
X14151015Y-15636484D01*
X14351015Y-15636484D02*
X14236729Y-15636484D01*
X14293872Y-15636484D02*
X14293872Y-15436484D01*
X14293872Y-15436484D02*
X14274825Y-15465055D01*
X14274825Y-15465055D02*
X14255777Y-15484103D01*
X14255777Y-15484103D02*
X14236729Y-15493627D01*
X14541491Y-15636484D02*
X14427206Y-15636484D01*
X14484348Y-15636484D02*
X14484348Y-15436484D01*
X14484348Y-15436484D02*
X14465301Y-15465055D01*
X14465301Y-15465055D02*
X14446253Y-15484103D01*
X14446253Y-15484103D02*
X14427206Y-15493627D01*
X14655777Y-15522198D02*
X14636729Y-15512674D01*
X14636729Y-15512674D02*
X14627206Y-15503150D01*
X14627206Y-15503150D02*
X14617682Y-15484103D01*
X14617682Y-15484103D02*
X14617682Y-15474579D01*
X14617682Y-15474579D02*
X14627206Y-15455531D01*
X14627206Y-15455531D02*
X14636729Y-15446008D01*
X14636729Y-15446008D02*
X14655777Y-15436484D01*
X14655777Y-15436484D02*
X14693872Y-15436484D01*
X14693872Y-15436484D02*
X14712920Y-15446008D01*
X14712920Y-15446008D02*
X14722444Y-15455531D01*
X14722444Y-15455531D02*
X14731967Y-15474579D01*
X14731967Y-15474579D02*
X14731967Y-15484103D01*
X14731967Y-15484103D02*
X14722444Y-15503150D01*
X14722444Y-15503150D02*
X14712920Y-15512674D01*
X14712920Y-15512674D02*
X14693872Y-15522198D01*
X14693872Y-15522198D02*
X14655777Y-15522198D01*
X14655777Y-15522198D02*
X14636729Y-15531722D01*
X14636729Y-15531722D02*
X14627206Y-15541246D01*
X14627206Y-15541246D02*
X14617682Y-15560293D01*
X14617682Y-15560293D02*
X14617682Y-15598388D01*
X14617682Y-15598388D02*
X14627206Y-15617436D01*
X14627206Y-15617436D02*
X14636729Y-15626960D01*
X14636729Y-15626960D02*
X14655777Y-15636484D01*
X14655777Y-15636484D02*
X14693872Y-15636484D01*
X14693872Y-15636484D02*
X14712920Y-15626960D01*
X14712920Y-15626960D02*
X14722444Y-15617436D01*
X14722444Y-15617436D02*
X14731967Y-15598388D01*
X14731967Y-15598388D02*
X14731967Y-15560293D01*
X14731967Y-15560293D02*
X14722444Y-15541246D01*
X14722444Y-15541246D02*
X14712920Y-15531722D01*
X14712920Y-15531722D02*
X14693872Y-15522198D01*
X14922444Y-15636484D02*
X14808158Y-15636484D01*
X14865301Y-15636484D02*
X14865301Y-15436484D01*
X14865301Y-15436484D02*
X14846253Y-15465055D01*
X14846253Y-15465055D02*
X14827206Y-15484103D01*
X14827206Y-15484103D02*
X14808158Y-15493627D01*
X14998634Y-15436484D02*
X14998634Y-15474579D01*
X15074825Y-15436484D02*
X15074825Y-15474579D01*
X15370063Y-15712674D02*
X15360539Y-15703150D01*
X15360539Y-15703150D02*
X15341491Y-15674579D01*
X15341491Y-15674579D02*
X15331968Y-15655531D01*
X15331968Y-15655531D02*
X15322444Y-15626960D01*
X15322444Y-15626960D02*
X15312920Y-15579341D01*
X15312920Y-15579341D02*
X15312920Y-15541246D01*
X15312920Y-15541246D02*
X15322444Y-15493627D01*
X15322444Y-15493627D02*
X15331968Y-15465055D01*
X15331968Y-15465055D02*
X15341491Y-15446008D01*
X15341491Y-15446008D02*
X15360539Y-15417436D01*
X15360539Y-15417436D02*
X15370063Y-15407912D01*
X15436729Y-15455531D02*
X15446253Y-15446008D01*
X15446253Y-15446008D02*
X15465301Y-15436484D01*
X15465301Y-15436484D02*
X15512920Y-15436484D01*
X15512920Y-15436484D02*
X15531968Y-15446008D01*
X15531968Y-15446008D02*
X15541491Y-15455531D01*
X15541491Y-15455531D02*
X15551015Y-15474579D01*
X15551015Y-15474579D02*
X15551015Y-15493627D01*
X15551015Y-15493627D02*
X15541491Y-15522198D01*
X15541491Y-15522198D02*
X15427206Y-15636484D01*
X15427206Y-15636484D02*
X15551015Y-15636484D01*
X15789110Y-15636484D02*
X15789110Y-15436484D01*
X15874825Y-15636484D02*
X15874825Y-15531722D01*
X15874825Y-15531722D02*
X15865301Y-15512674D01*
X15865301Y-15512674D02*
X15846253Y-15503150D01*
X15846253Y-15503150D02*
X15817682Y-15503150D01*
X15817682Y-15503150D02*
X15798634Y-15512674D01*
X15798634Y-15512674D02*
X15789110Y-15522198D01*
X15998634Y-15636484D02*
X15979587Y-15626960D01*
X15979587Y-15626960D02*
X15970063Y-15617436D01*
X15970063Y-15617436D02*
X15960539Y-15598388D01*
X15960539Y-15598388D02*
X15960539Y-15541246D01*
X15960539Y-15541246D02*
X15970063Y-15522198D01*
X15970063Y-15522198D02*
X15979587Y-15512674D01*
X15979587Y-15512674D02*
X15998634Y-15503150D01*
X15998634Y-15503150D02*
X16027206Y-15503150D01*
X16027206Y-15503150D02*
X16046253Y-15512674D01*
X16046253Y-15512674D02*
X16055777Y-15522198D01*
X16055777Y-15522198D02*
X16065301Y-15541246D01*
X16065301Y-15541246D02*
X16065301Y-15598388D01*
X16065301Y-15598388D02*
X16055777Y-15617436D01*
X16055777Y-15617436D02*
X16046253Y-15626960D01*
X16046253Y-15626960D02*
X16027206Y-15636484D01*
X16027206Y-15636484D02*
X15998634Y-15636484D01*
X16179587Y-15636484D02*
X16160539Y-15626960D01*
X16160539Y-15626960D02*
X16151015Y-15607912D01*
X16151015Y-15607912D02*
X16151015Y-15436484D01*
X16331968Y-15626960D02*
X16312920Y-15636484D01*
X16312920Y-15636484D02*
X16274825Y-15636484D01*
X16274825Y-15636484D02*
X16255777Y-15626960D01*
X16255777Y-15626960D02*
X16246253Y-15607912D01*
X16246253Y-15607912D02*
X16246253Y-15531722D01*
X16246253Y-15531722D02*
X16255777Y-15512674D01*
X16255777Y-15512674D02*
X16274825Y-15503150D01*
X16274825Y-15503150D02*
X16312920Y-15503150D01*
X16312920Y-15503150D02*
X16331968Y-15512674D01*
X16331968Y-15512674D02*
X16341491Y-15531722D01*
X16341491Y-15531722D02*
X16341491Y-15550769D01*
X16341491Y-15550769D02*
X16246253Y-15569817D01*
X16417682Y-15626960D02*
X16436730Y-15636484D01*
X16436730Y-15636484D02*
X16474825Y-15636484D01*
X16474825Y-15636484D02*
X16493872Y-15626960D01*
X16493872Y-15626960D02*
X16503396Y-15607912D01*
X16503396Y-15607912D02*
X16503396Y-15598388D01*
X16503396Y-15598388D02*
X16493872Y-15579341D01*
X16493872Y-15579341D02*
X16474825Y-15569817D01*
X16474825Y-15569817D02*
X16446253Y-15569817D01*
X16446253Y-15569817D02*
X16427206Y-15560293D01*
X16427206Y-15560293D02*
X16417682Y-15541246D01*
X16417682Y-15541246D02*
X16417682Y-15531722D01*
X16417682Y-15531722D02*
X16427206Y-15512674D01*
X16427206Y-15512674D02*
X16446253Y-15503150D01*
X16446253Y-15503150D02*
X16474825Y-15503150D01*
X16474825Y-15503150D02*
X16493872Y-15512674D01*
X16570063Y-15712674D02*
X16579587Y-15703150D01*
X16579587Y-15703150D02*
X16598634Y-15674579D01*
X16598634Y-15674579D02*
X16608158Y-15655531D01*
X16608158Y-15655531D02*
X16617682Y-15626960D01*
X16617682Y-15626960D02*
X16627206Y-15579341D01*
X16627206Y-15579341D02*
X16627206Y-15541246D01*
X16627206Y-15541246D02*
X16617682Y-15493627D01*
X16617682Y-15493627D02*
X16608158Y-15465055D01*
X16608158Y-15465055D02*
X16598634Y-15446008D01*
X16598634Y-15446008D02*
X16579587Y-15417436D01*
X16579587Y-15417436D02*
X16570063Y-15407912D01*
X16931968Y-15712674D02*
X16922444Y-15703150D01*
X16922444Y-15703150D02*
X16903396Y-15674579D01*
X16903396Y-15674579D02*
X16893873Y-15655531D01*
X16893873Y-15655531D02*
X16884349Y-15626960D01*
X16884349Y-15626960D02*
X16874825Y-15579341D01*
X16874825Y-15579341D02*
X16874825Y-15541246D01*
X16874825Y-15541246D02*
X16884349Y-15493627D01*
X16884349Y-15493627D02*
X16893873Y-15465055D01*
X16893873Y-15465055D02*
X16903396Y-15446008D01*
X16903396Y-15446008D02*
X16922444Y-15417436D01*
X16922444Y-15417436D02*
X16931968Y-15407912D01*
X17008158Y-15503150D02*
X17008158Y-15636484D01*
X17008158Y-15522198D02*
X17017682Y-15512674D01*
X17017682Y-15512674D02*
X17036730Y-15503150D01*
X17036730Y-15503150D02*
X17065301Y-15503150D01*
X17065301Y-15503150D02*
X17084349Y-15512674D01*
X17084349Y-15512674D02*
X17093873Y-15531722D01*
X17093873Y-15531722D02*
X17093873Y-15636484D01*
X17217682Y-15636484D02*
X17198634Y-15626960D01*
X17198634Y-15626960D02*
X17189111Y-15617436D01*
X17189111Y-15617436D02*
X17179587Y-15598388D01*
X17179587Y-15598388D02*
X17179587Y-15541246D01*
X17179587Y-15541246D02*
X17189111Y-15522198D01*
X17189111Y-15522198D02*
X17198634Y-15512674D01*
X17198634Y-15512674D02*
X17217682Y-15503150D01*
X17217682Y-15503150D02*
X17246254Y-15503150D01*
X17246254Y-15503150D02*
X17265301Y-15512674D01*
X17265301Y-15512674D02*
X17274825Y-15522198D01*
X17274825Y-15522198D02*
X17284349Y-15541246D01*
X17284349Y-15541246D02*
X17284349Y-15598388D01*
X17284349Y-15598388D02*
X17274825Y-15617436D01*
X17274825Y-15617436D02*
X17265301Y-15626960D01*
X17265301Y-15626960D02*
X17246254Y-15636484D01*
X17246254Y-15636484D02*
X17217682Y-15636484D01*
X17341492Y-15503150D02*
X17417682Y-15503150D01*
X17370063Y-15436484D02*
X17370063Y-15607912D01*
X17370063Y-15607912D02*
X17379587Y-15626960D01*
X17379587Y-15626960D02*
X17398634Y-15636484D01*
X17398634Y-15636484D02*
X17417682Y-15636484D01*
X17636730Y-15503150D02*
X17636730Y-15703150D01*
X17636730Y-15512674D02*
X17655777Y-15503150D01*
X17655777Y-15503150D02*
X17693873Y-15503150D01*
X17693873Y-15503150D02*
X17712920Y-15512674D01*
X17712920Y-15512674D02*
X17722444Y-15522198D01*
X17722444Y-15522198D02*
X17731968Y-15541246D01*
X17731968Y-15541246D02*
X17731968Y-15598388D01*
X17731968Y-15598388D02*
X17722444Y-15617436D01*
X17722444Y-15617436D02*
X17712920Y-15626960D01*
X17712920Y-15626960D02*
X17693873Y-15636484D01*
X17693873Y-15636484D02*
X17655777Y-15636484D01*
X17655777Y-15636484D02*
X17636730Y-15626960D01*
X17846254Y-15636484D02*
X17827206Y-15626960D01*
X17827206Y-15626960D02*
X17817682Y-15607912D01*
X17817682Y-15607912D02*
X17817682Y-15436484D01*
X18008158Y-15636484D02*
X18008158Y-15531722D01*
X18008158Y-15531722D02*
X17998635Y-15512674D01*
X17998635Y-15512674D02*
X17979587Y-15503150D01*
X17979587Y-15503150D02*
X17941492Y-15503150D01*
X17941492Y-15503150D02*
X17922444Y-15512674D01*
X18008158Y-15626960D02*
X17989111Y-15636484D01*
X17989111Y-15636484D02*
X17941492Y-15636484D01*
X17941492Y-15636484D02*
X17922444Y-15626960D01*
X17922444Y-15626960D02*
X17912920Y-15607912D01*
X17912920Y-15607912D02*
X17912920Y-15588865D01*
X17912920Y-15588865D02*
X17922444Y-15569817D01*
X17922444Y-15569817D02*
X17941492Y-15560293D01*
X17941492Y-15560293D02*
X17989111Y-15560293D01*
X17989111Y-15560293D02*
X18008158Y-15550769D01*
X18074825Y-15503150D02*
X18151015Y-15503150D01*
X18103396Y-15436484D02*
X18103396Y-15607912D01*
X18103396Y-15607912D02*
X18112920Y-15626960D01*
X18112920Y-15626960D02*
X18131968Y-15636484D01*
X18131968Y-15636484D02*
X18151015Y-15636484D01*
X18293873Y-15626960D02*
X18274825Y-15636484D01*
X18274825Y-15636484D02*
X18236730Y-15636484D01*
X18236730Y-15636484D02*
X18217682Y-15626960D01*
X18217682Y-15626960D02*
X18208158Y-15607912D01*
X18208158Y-15607912D02*
X18208158Y-15531722D01*
X18208158Y-15531722D02*
X18217682Y-15512674D01*
X18217682Y-15512674D02*
X18236730Y-15503150D01*
X18236730Y-15503150D02*
X18274825Y-15503150D01*
X18274825Y-15503150D02*
X18293873Y-15512674D01*
X18293873Y-15512674D02*
X18303396Y-15531722D01*
X18303396Y-15531722D02*
X18303396Y-15550769D01*
X18303396Y-15550769D02*
X18208158Y-15569817D01*
X18474825Y-15636484D02*
X18474825Y-15436484D01*
X18474825Y-15626960D02*
X18455777Y-15636484D01*
X18455777Y-15636484D02*
X18417682Y-15636484D01*
X18417682Y-15636484D02*
X18398635Y-15626960D01*
X18398635Y-15626960D02*
X18389111Y-15617436D01*
X18389111Y-15617436D02*
X18379587Y-15598388D01*
X18379587Y-15598388D02*
X18379587Y-15541246D01*
X18379587Y-15541246D02*
X18389111Y-15522198D01*
X18389111Y-15522198D02*
X18398635Y-15512674D01*
X18398635Y-15512674D02*
X18417682Y-15503150D01*
X18417682Y-15503150D02*
X18455777Y-15503150D01*
X18455777Y-15503150D02*
X18474825Y-15512674D01*
X18551016Y-15712674D02*
X18560539Y-15703150D01*
X18560539Y-15703150D02*
X18579587Y-15674579D01*
X18579587Y-15674579D02*
X18589111Y-15655531D01*
X18589111Y-15655531D02*
X18598635Y-15626960D01*
X18598635Y-15626960D02*
X18608158Y-15579341D01*
X18608158Y-15579341D02*
X18608158Y-15541246D01*
X18608158Y-15541246D02*
X18598635Y-15493627D01*
X18598635Y-15493627D02*
X18589111Y-15465055D01*
X18589111Y-15465055D02*
X18579587Y-15446008D01*
X18579587Y-15446008D02*
X18560539Y-15417436D01*
X18560539Y-15417436D02*
X18551016Y-15407912D01*
X11795000Y-15865000D02*
G75*
G03*
X11795000Y-15865000I-100000J0D01*
G01*
X12036729Y-15756484D02*
X12160539Y-15756484D01*
X12160539Y-15756484D02*
X12093872Y-15832674D01*
X12093872Y-15832674D02*
X12122443Y-15832674D01*
X12122443Y-15832674D02*
X12141491Y-15842198D01*
X12141491Y-15842198D02*
X12151015Y-15851722D01*
X12151015Y-15851722D02*
X12160539Y-15870769D01*
X12160539Y-15870769D02*
X12160539Y-15918388D01*
X12160539Y-15918388D02*
X12151015Y-15937436D01*
X12151015Y-15937436D02*
X12141491Y-15946960D01*
X12141491Y-15946960D02*
X12122443Y-15956484D01*
X12122443Y-15956484D02*
X12065301Y-15956484D01*
X12065301Y-15956484D02*
X12046253Y-15946960D01*
X12046253Y-15946960D02*
X12036729Y-15937436D01*
X12246253Y-15937436D02*
X12255777Y-15946960D01*
X12255777Y-15946960D02*
X12246253Y-15956484D01*
X12246253Y-15956484D02*
X12236729Y-15946960D01*
X12236729Y-15946960D02*
X12246253Y-15937436D01*
X12246253Y-15937436D02*
X12246253Y-15956484D01*
X12331967Y-15775531D02*
X12341491Y-15766008D01*
X12341491Y-15766008D02*
X12360539Y-15756484D01*
X12360539Y-15756484D02*
X12408158Y-15756484D01*
X12408158Y-15756484D02*
X12427205Y-15766008D01*
X12427205Y-15766008D02*
X12436729Y-15775531D01*
X12436729Y-15775531D02*
X12446253Y-15794579D01*
X12446253Y-15794579D02*
X12446253Y-15813627D01*
X12446253Y-15813627D02*
X12436729Y-15842198D01*
X12436729Y-15842198D02*
X12322443Y-15956484D01*
X12322443Y-15956484D02*
X12446253Y-15956484D01*
X12570062Y-15756484D02*
X12589110Y-15756484D01*
X12589110Y-15756484D02*
X12608158Y-15766008D01*
X12608158Y-15766008D02*
X12617682Y-15775531D01*
X12617682Y-15775531D02*
X12627205Y-15794579D01*
X12627205Y-15794579D02*
X12636729Y-15832674D01*
X12636729Y-15832674D02*
X12636729Y-15880293D01*
X12636729Y-15880293D02*
X12627205Y-15918388D01*
X12627205Y-15918388D02*
X12617682Y-15937436D01*
X12617682Y-15937436D02*
X12608158Y-15946960D01*
X12608158Y-15946960D02*
X12589110Y-15956484D01*
X12589110Y-15956484D02*
X12570062Y-15956484D01*
X12570062Y-15956484D02*
X12551015Y-15946960D01*
X12551015Y-15946960D02*
X12541491Y-15937436D01*
X12541491Y-15937436D02*
X12531967Y-15918388D01*
X12531967Y-15918388D02*
X12522443Y-15880293D01*
X12522443Y-15880293D02*
X12522443Y-15832674D01*
X12522443Y-15832674D02*
X12531967Y-15794579D01*
X12531967Y-15794579D02*
X12541491Y-15775531D01*
X12541491Y-15775531D02*
X12551015Y-15766008D01*
X12551015Y-15766008D02*
X12570062Y-15756484D01*
X12760539Y-15756484D02*
X12779586Y-15756484D01*
X12779586Y-15756484D02*
X12798634Y-15766008D01*
X12798634Y-15766008D02*
X12808158Y-15775531D01*
X12808158Y-15775531D02*
X12817682Y-15794579D01*
X12817682Y-15794579D02*
X12827205Y-15832674D01*
X12827205Y-15832674D02*
X12827205Y-15880293D01*
X12827205Y-15880293D02*
X12817682Y-15918388D01*
X12817682Y-15918388D02*
X12808158Y-15937436D01*
X12808158Y-15937436D02*
X12798634Y-15946960D01*
X12798634Y-15946960D02*
X12779586Y-15956484D01*
X12779586Y-15956484D02*
X12760539Y-15956484D01*
X12760539Y-15956484D02*
X12741491Y-15946960D01*
X12741491Y-15946960D02*
X12731967Y-15937436D01*
X12731967Y-15937436D02*
X12722443Y-15918388D01*
X12722443Y-15918388D02*
X12712920Y-15880293D01*
X12712920Y-15880293D02*
X12712920Y-15832674D01*
X12712920Y-15832674D02*
X12722443Y-15794579D01*
X12722443Y-15794579D02*
X12731967Y-15775531D01*
X12731967Y-15775531D02*
X12741491Y-15766008D01*
X12741491Y-15766008D02*
X12760539Y-15756484D01*
X12912920Y-15956484D02*
X12912920Y-15823150D01*
X12912920Y-15842198D02*
X12922443Y-15832674D01*
X12922443Y-15832674D02*
X12941491Y-15823150D01*
X12941491Y-15823150D02*
X12970063Y-15823150D01*
X12970063Y-15823150D02*
X12989110Y-15832674D01*
X12989110Y-15832674D02*
X12998634Y-15851722D01*
X12998634Y-15851722D02*
X12998634Y-15956484D01*
X12998634Y-15851722D02*
X13008158Y-15832674D01*
X13008158Y-15832674D02*
X13027205Y-15823150D01*
X13027205Y-15823150D02*
X13055777Y-15823150D01*
X13055777Y-15823150D02*
X13074824Y-15832674D01*
X13074824Y-15832674D02*
X13084348Y-15851722D01*
X13084348Y-15851722D02*
X13084348Y-15956484D01*
X13179586Y-15956484D02*
X13179586Y-15823150D01*
X13179586Y-15842198D02*
X13189110Y-15832674D01*
X13189110Y-15832674D02*
X13208158Y-15823150D01*
X13208158Y-15823150D02*
X13236729Y-15823150D01*
X13236729Y-15823150D02*
X13255777Y-15832674D01*
X13255777Y-15832674D02*
X13265301Y-15851722D01*
X13265301Y-15851722D02*
X13265301Y-15956484D01*
X13265301Y-15851722D02*
X13274824Y-15832674D01*
X13274824Y-15832674D02*
X13293872Y-15823150D01*
X13293872Y-15823150D02*
X13322443Y-15823150D01*
X13322443Y-15823150D02*
X13341491Y-15832674D01*
X13341491Y-15832674D02*
X13351015Y-15851722D01*
X13351015Y-15851722D02*
X13351015Y-15956484D01*
X13741491Y-15746960D02*
X13570063Y-16004103D01*
X13998634Y-15756484D02*
X14017682Y-15756484D01*
X14017682Y-15756484D02*
X14036729Y-15766008D01*
X14036729Y-15766008D02*
X14046253Y-15775531D01*
X14046253Y-15775531D02*
X14055777Y-15794579D01*
X14055777Y-15794579D02*
X14065301Y-15832674D01*
X14065301Y-15832674D02*
X14065301Y-15880293D01*
X14065301Y-15880293D02*
X14055777Y-15918388D01*
X14055777Y-15918388D02*
X14046253Y-15937436D01*
X14046253Y-15937436D02*
X14036729Y-15946960D01*
X14036729Y-15946960D02*
X14017682Y-15956484D01*
X14017682Y-15956484D02*
X13998634Y-15956484D01*
X13998634Y-15956484D02*
X13979586Y-15946960D01*
X13979586Y-15946960D02*
X13970063Y-15937436D01*
X13970063Y-15937436D02*
X13960539Y-15918388D01*
X13960539Y-15918388D02*
X13951015Y-15880293D01*
X13951015Y-15880293D02*
X13951015Y-15832674D01*
X13951015Y-15832674D02*
X13960539Y-15794579D01*
X13960539Y-15794579D02*
X13970063Y-15775531D01*
X13970063Y-15775531D02*
X13979586Y-15766008D01*
X13979586Y-15766008D02*
X13998634Y-15756484D01*
X14151015Y-15937436D02*
X14160539Y-15946960D01*
X14160539Y-15946960D02*
X14151015Y-15956484D01*
X14151015Y-15956484D02*
X14141491Y-15946960D01*
X14141491Y-15946960D02*
X14151015Y-15937436D01*
X14151015Y-15937436D02*
X14151015Y-15956484D01*
X14351015Y-15956484D02*
X14236729Y-15956484D01*
X14293872Y-15956484D02*
X14293872Y-15756484D01*
X14293872Y-15756484D02*
X14274825Y-15785055D01*
X14274825Y-15785055D02*
X14255777Y-15804103D01*
X14255777Y-15804103D02*
X14236729Y-15813627D01*
X14427206Y-15775531D02*
X14436729Y-15766008D01*
X14436729Y-15766008D02*
X14455777Y-15756484D01*
X14455777Y-15756484D02*
X14503396Y-15756484D01*
X14503396Y-15756484D02*
X14522444Y-15766008D01*
X14522444Y-15766008D02*
X14531967Y-15775531D01*
X14531967Y-15775531D02*
X14541491Y-15794579D01*
X14541491Y-15794579D02*
X14541491Y-15813627D01*
X14541491Y-15813627D02*
X14531967Y-15842198D01*
X14531967Y-15842198D02*
X14417682Y-15956484D01*
X14417682Y-15956484D02*
X14541491Y-15956484D01*
X14712920Y-15756484D02*
X14674825Y-15756484D01*
X14674825Y-15756484D02*
X14655777Y-15766008D01*
X14655777Y-15766008D02*
X14646253Y-15775531D01*
X14646253Y-15775531D02*
X14627206Y-15804103D01*
X14627206Y-15804103D02*
X14617682Y-15842198D01*
X14617682Y-15842198D02*
X14617682Y-15918388D01*
X14617682Y-15918388D02*
X14627206Y-15937436D01*
X14627206Y-15937436D02*
X14636729Y-15946960D01*
X14636729Y-15946960D02*
X14655777Y-15956484D01*
X14655777Y-15956484D02*
X14693872Y-15956484D01*
X14693872Y-15956484D02*
X14712920Y-15946960D01*
X14712920Y-15946960D02*
X14722444Y-15937436D01*
X14722444Y-15937436D02*
X14731967Y-15918388D01*
X14731967Y-15918388D02*
X14731967Y-15870769D01*
X14731967Y-15870769D02*
X14722444Y-15851722D01*
X14722444Y-15851722D02*
X14712920Y-15842198D01*
X14712920Y-15842198D02*
X14693872Y-15832674D01*
X14693872Y-15832674D02*
X14655777Y-15832674D01*
X14655777Y-15832674D02*
X14636729Y-15842198D01*
X14636729Y-15842198D02*
X14627206Y-15851722D01*
X14627206Y-15851722D02*
X14617682Y-15870769D01*
X14855777Y-15756484D02*
X14874825Y-15756484D01*
X14874825Y-15756484D02*
X14893872Y-15766008D01*
X14893872Y-15766008D02*
X14903396Y-15775531D01*
X14903396Y-15775531D02*
X14912920Y-15794579D01*
X14912920Y-15794579D02*
X14922444Y-15832674D01*
X14922444Y-15832674D02*
X14922444Y-15880293D01*
X14922444Y-15880293D02*
X14912920Y-15918388D01*
X14912920Y-15918388D02*
X14903396Y-15937436D01*
X14903396Y-15937436D02*
X14893872Y-15946960D01*
X14893872Y-15946960D02*
X14874825Y-15956484D01*
X14874825Y-15956484D02*
X14855777Y-15956484D01*
X14855777Y-15956484D02*
X14836729Y-15946960D01*
X14836729Y-15946960D02*
X14827206Y-15937436D01*
X14827206Y-15937436D02*
X14817682Y-15918388D01*
X14817682Y-15918388D02*
X14808158Y-15880293D01*
X14808158Y-15880293D02*
X14808158Y-15832674D01*
X14808158Y-15832674D02*
X14817682Y-15794579D01*
X14817682Y-15794579D02*
X14827206Y-15775531D01*
X14827206Y-15775531D02*
X14836729Y-15766008D01*
X14836729Y-15766008D02*
X14855777Y-15756484D01*
X14998634Y-15756484D02*
X14998634Y-15794579D01*
X15074825Y-15756484D02*
X15074825Y-15794579D01*
X15370063Y-16032674D02*
X15360539Y-16023150D01*
X15360539Y-16023150D02*
X15341491Y-15994579D01*
X15341491Y-15994579D02*
X15331968Y-15975531D01*
X15331968Y-15975531D02*
X15322444Y-15946960D01*
X15322444Y-15946960D02*
X15312920Y-15899341D01*
X15312920Y-15899341D02*
X15312920Y-15861246D01*
X15312920Y-15861246D02*
X15322444Y-15813627D01*
X15322444Y-15813627D02*
X15331968Y-15785055D01*
X15331968Y-15785055D02*
X15341491Y-15766008D01*
X15341491Y-15766008D02*
X15360539Y-15737436D01*
X15360539Y-15737436D02*
X15370063Y-15727912D01*
X15427206Y-15756484D02*
X15560539Y-15756484D01*
X15560539Y-15756484D02*
X15474825Y-15956484D01*
X15789110Y-15956484D02*
X15789110Y-15756484D01*
X15874825Y-15956484D02*
X15874825Y-15851722D01*
X15874825Y-15851722D02*
X15865301Y-15832674D01*
X15865301Y-15832674D02*
X15846253Y-15823150D01*
X15846253Y-15823150D02*
X15817682Y-15823150D01*
X15817682Y-15823150D02*
X15798634Y-15832674D01*
X15798634Y-15832674D02*
X15789110Y-15842198D01*
X15998634Y-15956484D02*
X15979587Y-15946960D01*
X15979587Y-15946960D02*
X15970063Y-15937436D01*
X15970063Y-15937436D02*
X15960539Y-15918388D01*
X15960539Y-15918388D02*
X15960539Y-15861246D01*
X15960539Y-15861246D02*
X15970063Y-15842198D01*
X15970063Y-15842198D02*
X15979587Y-15832674D01*
X15979587Y-15832674D02*
X15998634Y-15823150D01*
X15998634Y-15823150D02*
X16027206Y-15823150D01*
X16027206Y-15823150D02*
X16046253Y-15832674D01*
X16046253Y-15832674D02*
X16055777Y-15842198D01*
X16055777Y-15842198D02*
X16065301Y-15861246D01*
X16065301Y-15861246D02*
X16065301Y-15918388D01*
X16065301Y-15918388D02*
X16055777Y-15937436D01*
X16055777Y-15937436D02*
X16046253Y-15946960D01*
X16046253Y-15946960D02*
X16027206Y-15956484D01*
X16027206Y-15956484D02*
X15998634Y-15956484D01*
X16179587Y-15956484D02*
X16160539Y-15946960D01*
X16160539Y-15946960D02*
X16151015Y-15927912D01*
X16151015Y-15927912D02*
X16151015Y-15756484D01*
X16331968Y-15946960D02*
X16312920Y-15956484D01*
X16312920Y-15956484D02*
X16274825Y-15956484D01*
X16274825Y-15956484D02*
X16255777Y-15946960D01*
X16255777Y-15946960D02*
X16246253Y-15927912D01*
X16246253Y-15927912D02*
X16246253Y-15851722D01*
X16246253Y-15851722D02*
X16255777Y-15832674D01*
X16255777Y-15832674D02*
X16274825Y-15823150D01*
X16274825Y-15823150D02*
X16312920Y-15823150D01*
X16312920Y-15823150D02*
X16331968Y-15832674D01*
X16331968Y-15832674D02*
X16341491Y-15851722D01*
X16341491Y-15851722D02*
X16341491Y-15870769D01*
X16341491Y-15870769D02*
X16246253Y-15889817D01*
X16417682Y-15946960D02*
X16436730Y-15956484D01*
X16436730Y-15956484D02*
X16474825Y-15956484D01*
X16474825Y-15956484D02*
X16493872Y-15946960D01*
X16493872Y-15946960D02*
X16503396Y-15927912D01*
X16503396Y-15927912D02*
X16503396Y-15918388D01*
X16503396Y-15918388D02*
X16493872Y-15899341D01*
X16493872Y-15899341D02*
X16474825Y-15889817D01*
X16474825Y-15889817D02*
X16446253Y-15889817D01*
X16446253Y-15889817D02*
X16427206Y-15880293D01*
X16427206Y-15880293D02*
X16417682Y-15861246D01*
X16417682Y-15861246D02*
X16417682Y-15851722D01*
X16417682Y-15851722D02*
X16427206Y-15832674D01*
X16427206Y-15832674D02*
X16446253Y-15823150D01*
X16446253Y-15823150D02*
X16474825Y-15823150D01*
X16474825Y-15823150D02*
X16493872Y-15832674D01*
X16570063Y-16032674D02*
X16579587Y-16023150D01*
X16579587Y-16023150D02*
X16598634Y-15994579D01*
X16598634Y-15994579D02*
X16608158Y-15975531D01*
X16608158Y-15975531D02*
X16617682Y-15946960D01*
X16617682Y-15946960D02*
X16627206Y-15899341D01*
X16627206Y-15899341D02*
X16627206Y-15861246D01*
X16627206Y-15861246D02*
X16617682Y-15813627D01*
X16617682Y-15813627D02*
X16608158Y-15785055D01*
X16608158Y-15785055D02*
X16598634Y-15766008D01*
X16598634Y-15766008D02*
X16579587Y-15737436D01*
X16579587Y-15737436D02*
X16570063Y-15727912D01*
X16931968Y-16032674D02*
X16922444Y-16023150D01*
X16922444Y-16023150D02*
X16903396Y-15994579D01*
X16903396Y-15994579D02*
X16893873Y-15975531D01*
X16893873Y-15975531D02*
X16884349Y-15946960D01*
X16884349Y-15946960D02*
X16874825Y-15899341D01*
X16874825Y-15899341D02*
X16874825Y-15861246D01*
X16874825Y-15861246D02*
X16884349Y-15813627D01*
X16884349Y-15813627D02*
X16893873Y-15785055D01*
X16893873Y-15785055D02*
X16903396Y-15766008D01*
X16903396Y-15766008D02*
X16922444Y-15737436D01*
X16922444Y-15737436D02*
X16931968Y-15727912D01*
X17008158Y-15823150D02*
X17008158Y-15956484D01*
X17008158Y-15842198D02*
X17017682Y-15832674D01*
X17017682Y-15832674D02*
X17036730Y-15823150D01*
X17036730Y-15823150D02*
X17065301Y-15823150D01*
X17065301Y-15823150D02*
X17084349Y-15832674D01*
X17084349Y-15832674D02*
X17093873Y-15851722D01*
X17093873Y-15851722D02*
X17093873Y-15956484D01*
X17217682Y-15956484D02*
X17198634Y-15946960D01*
X17198634Y-15946960D02*
X17189111Y-15937436D01*
X17189111Y-15937436D02*
X17179587Y-15918388D01*
X17179587Y-15918388D02*
X17179587Y-15861246D01*
X17179587Y-15861246D02*
X17189111Y-15842198D01*
X17189111Y-15842198D02*
X17198634Y-15832674D01*
X17198634Y-15832674D02*
X17217682Y-15823150D01*
X17217682Y-15823150D02*
X17246254Y-15823150D01*
X17246254Y-15823150D02*
X17265301Y-15832674D01*
X17265301Y-15832674D02*
X17274825Y-15842198D01*
X17274825Y-15842198D02*
X17284349Y-15861246D01*
X17284349Y-15861246D02*
X17284349Y-15918388D01*
X17284349Y-15918388D02*
X17274825Y-15937436D01*
X17274825Y-15937436D02*
X17265301Y-15946960D01*
X17265301Y-15946960D02*
X17246254Y-15956484D01*
X17246254Y-15956484D02*
X17217682Y-15956484D01*
X17341492Y-15823150D02*
X17417682Y-15823150D01*
X17370063Y-15756484D02*
X17370063Y-15927912D01*
X17370063Y-15927912D02*
X17379587Y-15946960D01*
X17379587Y-15946960D02*
X17398634Y-15956484D01*
X17398634Y-15956484D02*
X17417682Y-15956484D01*
X17636730Y-15823150D02*
X17636730Y-16023150D01*
X17636730Y-15832674D02*
X17655777Y-15823150D01*
X17655777Y-15823150D02*
X17693873Y-15823150D01*
X17693873Y-15823150D02*
X17712920Y-15832674D01*
X17712920Y-15832674D02*
X17722444Y-15842198D01*
X17722444Y-15842198D02*
X17731968Y-15861246D01*
X17731968Y-15861246D02*
X17731968Y-15918388D01*
X17731968Y-15918388D02*
X17722444Y-15937436D01*
X17722444Y-15937436D02*
X17712920Y-15946960D01*
X17712920Y-15946960D02*
X17693873Y-15956484D01*
X17693873Y-15956484D02*
X17655777Y-15956484D01*
X17655777Y-15956484D02*
X17636730Y-15946960D01*
X17846254Y-15956484D02*
X17827206Y-15946960D01*
X17827206Y-15946960D02*
X17817682Y-15927912D01*
X17817682Y-15927912D02*
X17817682Y-15756484D01*
X18008158Y-15956484D02*
X18008158Y-15851722D01*
X18008158Y-15851722D02*
X17998635Y-15832674D01*
X17998635Y-15832674D02*
X17979587Y-15823150D01*
X17979587Y-15823150D02*
X17941492Y-15823150D01*
X17941492Y-15823150D02*
X17922444Y-15832674D01*
X18008158Y-15946960D02*
X17989111Y-15956484D01*
X17989111Y-15956484D02*
X17941492Y-15956484D01*
X17941492Y-15956484D02*
X17922444Y-15946960D01*
X17922444Y-15946960D02*
X17912920Y-15927912D01*
X17912920Y-15927912D02*
X17912920Y-15908865D01*
X17912920Y-15908865D02*
X17922444Y-15889817D01*
X17922444Y-15889817D02*
X17941492Y-15880293D01*
X17941492Y-15880293D02*
X17989111Y-15880293D01*
X17989111Y-15880293D02*
X18008158Y-15870769D01*
X18074825Y-15823150D02*
X18151015Y-15823150D01*
X18103396Y-15756484D02*
X18103396Y-15927912D01*
X18103396Y-15927912D02*
X18112920Y-15946960D01*
X18112920Y-15946960D02*
X18131968Y-15956484D01*
X18131968Y-15956484D02*
X18151015Y-15956484D01*
X18293873Y-15946960D02*
X18274825Y-15956484D01*
X18274825Y-15956484D02*
X18236730Y-15956484D01*
X18236730Y-15956484D02*
X18217682Y-15946960D01*
X18217682Y-15946960D02*
X18208158Y-15927912D01*
X18208158Y-15927912D02*
X18208158Y-15851722D01*
X18208158Y-15851722D02*
X18217682Y-15832674D01*
X18217682Y-15832674D02*
X18236730Y-15823150D01*
X18236730Y-15823150D02*
X18274825Y-15823150D01*
X18274825Y-15823150D02*
X18293873Y-15832674D01*
X18293873Y-15832674D02*
X18303396Y-15851722D01*
X18303396Y-15851722D02*
X18303396Y-15870769D01*
X18303396Y-15870769D02*
X18208158Y-15889817D01*
X18474825Y-15956484D02*
X18474825Y-15756484D01*
X18474825Y-15946960D02*
X18455777Y-15956484D01*
X18455777Y-15956484D02*
X18417682Y-15956484D01*
X18417682Y-15956484D02*
X18398635Y-15946960D01*
X18398635Y-15946960D02*
X18389111Y-15937436D01*
X18389111Y-15937436D02*
X18379587Y-15918388D01*
X18379587Y-15918388D02*
X18379587Y-15861246D01*
X18379587Y-15861246D02*
X18389111Y-15842198D01*
X18389111Y-15842198D02*
X18398635Y-15832674D01*
X18398635Y-15832674D02*
X18417682Y-15823150D01*
X18417682Y-15823150D02*
X18455777Y-15823150D01*
X18455777Y-15823150D02*
X18474825Y-15832674D01*
X18551016Y-16032674D02*
X18560539Y-16023150D01*
X18560539Y-16023150D02*
X18579587Y-15994579D01*
X18579587Y-15994579D02*
X18589111Y-15975531D01*
X18589111Y-15975531D02*
X18598635Y-15946960D01*
X18598635Y-15946960D02*
X18608158Y-15899341D01*
X18608158Y-15899341D02*
X18608158Y-15861246D01*
X18608158Y-15861246D02*
X18598635Y-15813627D01*
X18598635Y-15813627D02*
X18589111Y-15785055D01*
X18589111Y-15785055D02*
X18579587Y-15766008D01*
X18579587Y-15766008D02*
X18560539Y-15737436D01*
X18560539Y-15737436D02*
X18551016Y-15727912D01*
X11695000Y-16085000D02*
X11695000Y-16285000D01*
X11595000Y-16185000D02*
X11795000Y-16185000D01*
X12036729Y-16076484D02*
X12160539Y-16076484D01*
X12160539Y-16076484D02*
X12093872Y-16152674D01*
X12093872Y-16152674D02*
X12122443Y-16152674D01*
X12122443Y-16152674D02*
X12141491Y-16162198D01*
X12141491Y-16162198D02*
X12151015Y-16171722D01*
X12151015Y-16171722D02*
X12160539Y-16190769D01*
X12160539Y-16190769D02*
X12160539Y-16238388D01*
X12160539Y-16238388D02*
X12151015Y-16257436D01*
X12151015Y-16257436D02*
X12141491Y-16266960D01*
X12141491Y-16266960D02*
X12122443Y-16276484D01*
X12122443Y-16276484D02*
X12065301Y-16276484D01*
X12065301Y-16276484D02*
X12046253Y-16266960D01*
X12046253Y-16266960D02*
X12036729Y-16257436D01*
X12246253Y-16257436D02*
X12255777Y-16266960D01*
X12255777Y-16266960D02*
X12246253Y-16276484D01*
X12246253Y-16276484D02*
X12236729Y-16266960D01*
X12236729Y-16266960D02*
X12246253Y-16257436D01*
X12246253Y-16257436D02*
X12246253Y-16276484D01*
X12331967Y-16095531D02*
X12341491Y-16086008D01*
X12341491Y-16086008D02*
X12360539Y-16076484D01*
X12360539Y-16076484D02*
X12408158Y-16076484D01*
X12408158Y-16076484D02*
X12427205Y-16086008D01*
X12427205Y-16086008D02*
X12436729Y-16095531D01*
X12436729Y-16095531D02*
X12446253Y-16114579D01*
X12446253Y-16114579D02*
X12446253Y-16133627D01*
X12446253Y-16133627D02*
X12436729Y-16162198D01*
X12436729Y-16162198D02*
X12322443Y-16276484D01*
X12322443Y-16276484D02*
X12446253Y-16276484D01*
X12627205Y-16076484D02*
X12531967Y-16076484D01*
X12531967Y-16076484D02*
X12522443Y-16171722D01*
X12522443Y-16171722D02*
X12531967Y-16162198D01*
X12531967Y-16162198D02*
X12551015Y-16152674D01*
X12551015Y-16152674D02*
X12598634Y-16152674D01*
X12598634Y-16152674D02*
X12617682Y-16162198D01*
X12617682Y-16162198D02*
X12627205Y-16171722D01*
X12627205Y-16171722D02*
X12636729Y-16190769D01*
X12636729Y-16190769D02*
X12636729Y-16238388D01*
X12636729Y-16238388D02*
X12627205Y-16257436D01*
X12627205Y-16257436D02*
X12617682Y-16266960D01*
X12617682Y-16266960D02*
X12598634Y-16276484D01*
X12598634Y-16276484D02*
X12551015Y-16276484D01*
X12551015Y-16276484D02*
X12531967Y-16266960D01*
X12531967Y-16266960D02*
X12522443Y-16257436D01*
X12760539Y-16076484D02*
X12779586Y-16076484D01*
X12779586Y-16076484D02*
X12798634Y-16086008D01*
X12798634Y-16086008D02*
X12808158Y-16095531D01*
X12808158Y-16095531D02*
X12817682Y-16114579D01*
X12817682Y-16114579D02*
X12827205Y-16152674D01*
X12827205Y-16152674D02*
X12827205Y-16200293D01*
X12827205Y-16200293D02*
X12817682Y-16238388D01*
X12817682Y-16238388D02*
X12808158Y-16257436D01*
X12808158Y-16257436D02*
X12798634Y-16266960D01*
X12798634Y-16266960D02*
X12779586Y-16276484D01*
X12779586Y-16276484D02*
X12760539Y-16276484D01*
X12760539Y-16276484D02*
X12741491Y-16266960D01*
X12741491Y-16266960D02*
X12731967Y-16257436D01*
X12731967Y-16257436D02*
X12722443Y-16238388D01*
X12722443Y-16238388D02*
X12712920Y-16200293D01*
X12712920Y-16200293D02*
X12712920Y-16152674D01*
X12712920Y-16152674D02*
X12722443Y-16114579D01*
X12722443Y-16114579D02*
X12731967Y-16095531D01*
X12731967Y-16095531D02*
X12741491Y-16086008D01*
X12741491Y-16086008D02*
X12760539Y-16076484D01*
X12912920Y-16276484D02*
X12912920Y-16143150D01*
X12912920Y-16162198D02*
X12922443Y-16152674D01*
X12922443Y-16152674D02*
X12941491Y-16143150D01*
X12941491Y-16143150D02*
X12970063Y-16143150D01*
X12970063Y-16143150D02*
X12989110Y-16152674D01*
X12989110Y-16152674D02*
X12998634Y-16171722D01*
X12998634Y-16171722D02*
X12998634Y-16276484D01*
X12998634Y-16171722D02*
X13008158Y-16152674D01*
X13008158Y-16152674D02*
X13027205Y-16143150D01*
X13027205Y-16143150D02*
X13055777Y-16143150D01*
X13055777Y-16143150D02*
X13074824Y-16152674D01*
X13074824Y-16152674D02*
X13084348Y-16171722D01*
X13084348Y-16171722D02*
X13084348Y-16276484D01*
X13179586Y-16276484D02*
X13179586Y-16143150D01*
X13179586Y-16162198D02*
X13189110Y-16152674D01*
X13189110Y-16152674D02*
X13208158Y-16143150D01*
X13208158Y-16143150D02*
X13236729Y-16143150D01*
X13236729Y-16143150D02*
X13255777Y-16152674D01*
X13255777Y-16152674D02*
X13265301Y-16171722D01*
X13265301Y-16171722D02*
X13265301Y-16276484D01*
X13265301Y-16171722D02*
X13274824Y-16152674D01*
X13274824Y-16152674D02*
X13293872Y-16143150D01*
X13293872Y-16143150D02*
X13322443Y-16143150D01*
X13322443Y-16143150D02*
X13341491Y-16152674D01*
X13341491Y-16152674D02*
X13351015Y-16171722D01*
X13351015Y-16171722D02*
X13351015Y-16276484D01*
X13741491Y-16066960D02*
X13570063Y-16324103D01*
X13998634Y-16076484D02*
X14017682Y-16076484D01*
X14017682Y-16076484D02*
X14036729Y-16086008D01*
X14036729Y-16086008D02*
X14046253Y-16095531D01*
X14046253Y-16095531D02*
X14055777Y-16114579D01*
X14055777Y-16114579D02*
X14065301Y-16152674D01*
X14065301Y-16152674D02*
X14065301Y-16200293D01*
X14065301Y-16200293D02*
X14055777Y-16238388D01*
X14055777Y-16238388D02*
X14046253Y-16257436D01*
X14046253Y-16257436D02*
X14036729Y-16266960D01*
X14036729Y-16266960D02*
X14017682Y-16276484D01*
X14017682Y-16276484D02*
X13998634Y-16276484D01*
X13998634Y-16276484D02*
X13979586Y-16266960D01*
X13979586Y-16266960D02*
X13970063Y-16257436D01*
X13970063Y-16257436D02*
X13960539Y-16238388D01*
X13960539Y-16238388D02*
X13951015Y-16200293D01*
X13951015Y-16200293D02*
X13951015Y-16152674D01*
X13951015Y-16152674D02*
X13960539Y-16114579D01*
X13960539Y-16114579D02*
X13970063Y-16095531D01*
X13970063Y-16095531D02*
X13979586Y-16086008D01*
X13979586Y-16086008D02*
X13998634Y-16076484D01*
X14151015Y-16257436D02*
X14160539Y-16266960D01*
X14160539Y-16266960D02*
X14151015Y-16276484D01*
X14151015Y-16276484D02*
X14141491Y-16266960D01*
X14141491Y-16266960D02*
X14151015Y-16257436D01*
X14151015Y-16257436D02*
X14151015Y-16276484D01*
X14351015Y-16276484D02*
X14236729Y-16276484D01*
X14293872Y-16276484D02*
X14293872Y-16076484D01*
X14293872Y-16076484D02*
X14274825Y-16105055D01*
X14274825Y-16105055D02*
X14255777Y-16124103D01*
X14255777Y-16124103D02*
X14236729Y-16133627D01*
X14427206Y-16095531D02*
X14436729Y-16086008D01*
X14436729Y-16086008D02*
X14455777Y-16076484D01*
X14455777Y-16076484D02*
X14503396Y-16076484D01*
X14503396Y-16076484D02*
X14522444Y-16086008D01*
X14522444Y-16086008D02*
X14531967Y-16095531D01*
X14531967Y-16095531D02*
X14541491Y-16114579D01*
X14541491Y-16114579D02*
X14541491Y-16133627D01*
X14541491Y-16133627D02*
X14531967Y-16162198D01*
X14531967Y-16162198D02*
X14417682Y-16276484D01*
X14417682Y-16276484D02*
X14541491Y-16276484D01*
X14655777Y-16162198D02*
X14636729Y-16152674D01*
X14636729Y-16152674D02*
X14627206Y-16143150D01*
X14627206Y-16143150D02*
X14617682Y-16124103D01*
X14617682Y-16124103D02*
X14617682Y-16114579D01*
X14617682Y-16114579D02*
X14627206Y-16095531D01*
X14627206Y-16095531D02*
X14636729Y-16086008D01*
X14636729Y-16086008D02*
X14655777Y-16076484D01*
X14655777Y-16076484D02*
X14693872Y-16076484D01*
X14693872Y-16076484D02*
X14712920Y-16086008D01*
X14712920Y-16086008D02*
X14722444Y-16095531D01*
X14722444Y-16095531D02*
X14731967Y-16114579D01*
X14731967Y-16114579D02*
X14731967Y-16124103D01*
X14731967Y-16124103D02*
X14722444Y-16143150D01*
X14722444Y-16143150D02*
X14712920Y-16152674D01*
X14712920Y-16152674D02*
X14693872Y-16162198D01*
X14693872Y-16162198D02*
X14655777Y-16162198D01*
X14655777Y-16162198D02*
X14636729Y-16171722D01*
X14636729Y-16171722D02*
X14627206Y-16181246D01*
X14627206Y-16181246D02*
X14617682Y-16200293D01*
X14617682Y-16200293D02*
X14617682Y-16238388D01*
X14617682Y-16238388D02*
X14627206Y-16257436D01*
X14627206Y-16257436D02*
X14636729Y-16266960D01*
X14636729Y-16266960D02*
X14655777Y-16276484D01*
X14655777Y-16276484D02*
X14693872Y-16276484D01*
X14693872Y-16276484D02*
X14712920Y-16266960D01*
X14712920Y-16266960D02*
X14722444Y-16257436D01*
X14722444Y-16257436D02*
X14731967Y-16238388D01*
X14731967Y-16238388D02*
X14731967Y-16200293D01*
X14731967Y-16200293D02*
X14722444Y-16181246D01*
X14722444Y-16181246D02*
X14712920Y-16171722D01*
X14712920Y-16171722D02*
X14693872Y-16162198D01*
X14855777Y-16076484D02*
X14874825Y-16076484D01*
X14874825Y-16076484D02*
X14893872Y-16086008D01*
X14893872Y-16086008D02*
X14903396Y-16095531D01*
X14903396Y-16095531D02*
X14912920Y-16114579D01*
X14912920Y-16114579D02*
X14922444Y-16152674D01*
X14922444Y-16152674D02*
X14922444Y-16200293D01*
X14922444Y-16200293D02*
X14912920Y-16238388D01*
X14912920Y-16238388D02*
X14903396Y-16257436D01*
X14903396Y-16257436D02*
X14893872Y-16266960D01*
X14893872Y-16266960D02*
X14874825Y-16276484D01*
X14874825Y-16276484D02*
X14855777Y-16276484D01*
X14855777Y-16276484D02*
X14836729Y-16266960D01*
X14836729Y-16266960D02*
X14827206Y-16257436D01*
X14827206Y-16257436D02*
X14817682Y-16238388D01*
X14817682Y-16238388D02*
X14808158Y-16200293D01*
X14808158Y-16200293D02*
X14808158Y-16152674D01*
X14808158Y-16152674D02*
X14817682Y-16114579D01*
X14817682Y-16114579D02*
X14827206Y-16095531D01*
X14827206Y-16095531D02*
X14836729Y-16086008D01*
X14836729Y-16086008D02*
X14855777Y-16076484D01*
X14998634Y-16076484D02*
X14998634Y-16114579D01*
X15074825Y-16076484D02*
X15074825Y-16114579D01*
X15370063Y-16352674D02*
X15360539Y-16343150D01*
X15360539Y-16343150D02*
X15341491Y-16314579D01*
X15341491Y-16314579D02*
X15331968Y-16295531D01*
X15331968Y-16295531D02*
X15322444Y-16266960D01*
X15322444Y-16266960D02*
X15312920Y-16219341D01*
X15312920Y-16219341D02*
X15312920Y-16181246D01*
X15312920Y-16181246D02*
X15322444Y-16133627D01*
X15322444Y-16133627D02*
X15331968Y-16105055D01*
X15331968Y-16105055D02*
X15341491Y-16086008D01*
X15341491Y-16086008D02*
X15360539Y-16057436D01*
X15360539Y-16057436D02*
X15370063Y-16047912D01*
X15436729Y-16095531D02*
X15446253Y-16086008D01*
X15446253Y-16086008D02*
X15465301Y-16076484D01*
X15465301Y-16076484D02*
X15512920Y-16076484D01*
X15512920Y-16076484D02*
X15531968Y-16086008D01*
X15531968Y-16086008D02*
X15541491Y-16095531D01*
X15541491Y-16095531D02*
X15551015Y-16114579D01*
X15551015Y-16114579D02*
X15551015Y-16133627D01*
X15551015Y-16133627D02*
X15541491Y-16162198D01*
X15541491Y-16162198D02*
X15427206Y-16276484D01*
X15427206Y-16276484D02*
X15551015Y-16276484D01*
X15789110Y-16276484D02*
X15789110Y-16076484D01*
X15874825Y-16276484D02*
X15874825Y-16171722D01*
X15874825Y-16171722D02*
X15865301Y-16152674D01*
X15865301Y-16152674D02*
X15846253Y-16143150D01*
X15846253Y-16143150D02*
X15817682Y-16143150D01*
X15817682Y-16143150D02*
X15798634Y-16152674D01*
X15798634Y-16152674D02*
X15789110Y-16162198D01*
X15998634Y-16276484D02*
X15979587Y-16266960D01*
X15979587Y-16266960D02*
X15970063Y-16257436D01*
X15970063Y-16257436D02*
X15960539Y-16238388D01*
X15960539Y-16238388D02*
X15960539Y-16181246D01*
X15960539Y-16181246D02*
X15970063Y-16162198D01*
X15970063Y-16162198D02*
X15979587Y-16152674D01*
X15979587Y-16152674D02*
X15998634Y-16143150D01*
X15998634Y-16143150D02*
X16027206Y-16143150D01*
X16027206Y-16143150D02*
X16046253Y-16152674D01*
X16046253Y-16152674D02*
X16055777Y-16162198D01*
X16055777Y-16162198D02*
X16065301Y-16181246D01*
X16065301Y-16181246D02*
X16065301Y-16238388D01*
X16065301Y-16238388D02*
X16055777Y-16257436D01*
X16055777Y-16257436D02*
X16046253Y-16266960D01*
X16046253Y-16266960D02*
X16027206Y-16276484D01*
X16027206Y-16276484D02*
X15998634Y-16276484D01*
X16179587Y-16276484D02*
X16160539Y-16266960D01*
X16160539Y-16266960D02*
X16151015Y-16247912D01*
X16151015Y-16247912D02*
X16151015Y-16076484D01*
X16331968Y-16266960D02*
X16312920Y-16276484D01*
X16312920Y-16276484D02*
X16274825Y-16276484D01*
X16274825Y-16276484D02*
X16255777Y-16266960D01*
X16255777Y-16266960D02*
X16246253Y-16247912D01*
X16246253Y-16247912D02*
X16246253Y-16171722D01*
X16246253Y-16171722D02*
X16255777Y-16152674D01*
X16255777Y-16152674D02*
X16274825Y-16143150D01*
X16274825Y-16143150D02*
X16312920Y-16143150D01*
X16312920Y-16143150D02*
X16331968Y-16152674D01*
X16331968Y-16152674D02*
X16341491Y-16171722D01*
X16341491Y-16171722D02*
X16341491Y-16190769D01*
X16341491Y-16190769D02*
X16246253Y-16209817D01*
X16417682Y-16266960D02*
X16436730Y-16276484D01*
X16436730Y-16276484D02*
X16474825Y-16276484D01*
X16474825Y-16276484D02*
X16493872Y-16266960D01*
X16493872Y-16266960D02*
X16503396Y-16247912D01*
X16503396Y-16247912D02*
X16503396Y-16238388D01*
X16503396Y-16238388D02*
X16493872Y-16219341D01*
X16493872Y-16219341D02*
X16474825Y-16209817D01*
X16474825Y-16209817D02*
X16446253Y-16209817D01*
X16446253Y-16209817D02*
X16427206Y-16200293D01*
X16427206Y-16200293D02*
X16417682Y-16181246D01*
X16417682Y-16181246D02*
X16417682Y-16171722D01*
X16417682Y-16171722D02*
X16427206Y-16152674D01*
X16427206Y-16152674D02*
X16446253Y-16143150D01*
X16446253Y-16143150D02*
X16474825Y-16143150D01*
X16474825Y-16143150D02*
X16493872Y-16152674D01*
X16570063Y-16352674D02*
X16579587Y-16343150D01*
X16579587Y-16343150D02*
X16598634Y-16314579D01*
X16598634Y-16314579D02*
X16608158Y-16295531D01*
X16608158Y-16295531D02*
X16617682Y-16266960D01*
X16617682Y-16266960D02*
X16627206Y-16219341D01*
X16627206Y-16219341D02*
X16627206Y-16181246D01*
X16627206Y-16181246D02*
X16617682Y-16133627D01*
X16617682Y-16133627D02*
X16608158Y-16105055D01*
X16608158Y-16105055D02*
X16598634Y-16086008D01*
X16598634Y-16086008D02*
X16579587Y-16057436D01*
X16579587Y-16057436D02*
X16570063Y-16047912D01*
X16931968Y-16352674D02*
X16922444Y-16343150D01*
X16922444Y-16343150D02*
X16903396Y-16314579D01*
X16903396Y-16314579D02*
X16893873Y-16295531D01*
X16893873Y-16295531D02*
X16884349Y-16266960D01*
X16884349Y-16266960D02*
X16874825Y-16219341D01*
X16874825Y-16219341D02*
X16874825Y-16181246D01*
X16874825Y-16181246D02*
X16884349Y-16133627D01*
X16884349Y-16133627D02*
X16893873Y-16105055D01*
X16893873Y-16105055D02*
X16903396Y-16086008D01*
X16903396Y-16086008D02*
X16922444Y-16057436D01*
X16922444Y-16057436D02*
X16931968Y-16047912D01*
X17008158Y-16143150D02*
X17008158Y-16276484D01*
X17008158Y-16162198D02*
X17017682Y-16152674D01*
X17017682Y-16152674D02*
X17036730Y-16143150D01*
X17036730Y-16143150D02*
X17065301Y-16143150D01*
X17065301Y-16143150D02*
X17084349Y-16152674D01*
X17084349Y-16152674D02*
X17093873Y-16171722D01*
X17093873Y-16171722D02*
X17093873Y-16276484D01*
X17217682Y-16276484D02*
X17198634Y-16266960D01*
X17198634Y-16266960D02*
X17189111Y-16257436D01*
X17189111Y-16257436D02*
X17179587Y-16238388D01*
X17179587Y-16238388D02*
X17179587Y-16181246D01*
X17179587Y-16181246D02*
X17189111Y-16162198D01*
X17189111Y-16162198D02*
X17198634Y-16152674D01*
X17198634Y-16152674D02*
X17217682Y-16143150D01*
X17217682Y-16143150D02*
X17246254Y-16143150D01*
X17246254Y-16143150D02*
X17265301Y-16152674D01*
X17265301Y-16152674D02*
X17274825Y-16162198D01*
X17274825Y-16162198D02*
X17284349Y-16181246D01*
X17284349Y-16181246D02*
X17284349Y-16238388D01*
X17284349Y-16238388D02*
X17274825Y-16257436D01*
X17274825Y-16257436D02*
X17265301Y-16266960D01*
X17265301Y-16266960D02*
X17246254Y-16276484D01*
X17246254Y-16276484D02*
X17217682Y-16276484D01*
X17341492Y-16143150D02*
X17417682Y-16143150D01*
X17370063Y-16076484D02*
X17370063Y-16247912D01*
X17370063Y-16247912D02*
X17379587Y-16266960D01*
X17379587Y-16266960D02*
X17398634Y-16276484D01*
X17398634Y-16276484D02*
X17417682Y-16276484D01*
X17636730Y-16143150D02*
X17636730Y-16343150D01*
X17636730Y-16152674D02*
X17655777Y-16143150D01*
X17655777Y-16143150D02*
X17693873Y-16143150D01*
X17693873Y-16143150D02*
X17712920Y-16152674D01*
X17712920Y-16152674D02*
X17722444Y-16162198D01*
X17722444Y-16162198D02*
X17731968Y-16181246D01*
X17731968Y-16181246D02*
X17731968Y-16238388D01*
X17731968Y-16238388D02*
X17722444Y-16257436D01*
X17722444Y-16257436D02*
X17712920Y-16266960D01*
X17712920Y-16266960D02*
X17693873Y-16276484D01*
X17693873Y-16276484D02*
X17655777Y-16276484D01*
X17655777Y-16276484D02*
X17636730Y-16266960D01*
X17846254Y-16276484D02*
X17827206Y-16266960D01*
X17827206Y-16266960D02*
X17817682Y-16247912D01*
X17817682Y-16247912D02*
X17817682Y-16076484D01*
X18008158Y-16276484D02*
X18008158Y-16171722D01*
X18008158Y-16171722D02*
X17998635Y-16152674D01*
X17998635Y-16152674D02*
X17979587Y-16143150D01*
X17979587Y-16143150D02*
X17941492Y-16143150D01*
X17941492Y-16143150D02*
X17922444Y-16152674D01*
X18008158Y-16266960D02*
X17989111Y-16276484D01*
X17989111Y-16276484D02*
X17941492Y-16276484D01*
X17941492Y-16276484D02*
X17922444Y-16266960D01*
X17922444Y-16266960D02*
X17912920Y-16247912D01*
X17912920Y-16247912D02*
X17912920Y-16228865D01*
X17912920Y-16228865D02*
X17922444Y-16209817D01*
X17922444Y-16209817D02*
X17941492Y-16200293D01*
X17941492Y-16200293D02*
X17989111Y-16200293D01*
X17989111Y-16200293D02*
X18008158Y-16190769D01*
X18074825Y-16143150D02*
X18151015Y-16143150D01*
X18103396Y-16076484D02*
X18103396Y-16247912D01*
X18103396Y-16247912D02*
X18112920Y-16266960D01*
X18112920Y-16266960D02*
X18131968Y-16276484D01*
X18131968Y-16276484D02*
X18151015Y-16276484D01*
X18293873Y-16266960D02*
X18274825Y-16276484D01*
X18274825Y-16276484D02*
X18236730Y-16276484D01*
X18236730Y-16276484D02*
X18217682Y-16266960D01*
X18217682Y-16266960D02*
X18208158Y-16247912D01*
X18208158Y-16247912D02*
X18208158Y-16171722D01*
X18208158Y-16171722D02*
X18217682Y-16152674D01*
X18217682Y-16152674D02*
X18236730Y-16143150D01*
X18236730Y-16143150D02*
X18274825Y-16143150D01*
X18274825Y-16143150D02*
X18293873Y-16152674D01*
X18293873Y-16152674D02*
X18303396Y-16171722D01*
X18303396Y-16171722D02*
X18303396Y-16190769D01*
X18303396Y-16190769D02*
X18208158Y-16209817D01*
X18474825Y-16276484D02*
X18474825Y-16076484D01*
X18474825Y-16266960D02*
X18455777Y-16276484D01*
X18455777Y-16276484D02*
X18417682Y-16276484D01*
X18417682Y-16276484D02*
X18398635Y-16266960D01*
X18398635Y-16266960D02*
X18389111Y-16257436D01*
X18389111Y-16257436D02*
X18379587Y-16238388D01*
X18379587Y-16238388D02*
X18379587Y-16181246D01*
X18379587Y-16181246D02*
X18389111Y-16162198D01*
X18389111Y-16162198D02*
X18398635Y-16152674D01*
X18398635Y-16152674D02*
X18417682Y-16143150D01*
X18417682Y-16143150D02*
X18455777Y-16143150D01*
X18455777Y-16143150D02*
X18474825Y-16152674D01*
X18551016Y-16352674D02*
X18560539Y-16343150D01*
X18560539Y-16343150D02*
X18579587Y-16314579D01*
X18579587Y-16314579D02*
X18589111Y-16295531D01*
X18589111Y-16295531D02*
X18598635Y-16266960D01*
X18598635Y-16266960D02*
X18608158Y-16219341D01*
X18608158Y-16219341D02*
X18608158Y-16181246D01*
X18608158Y-16181246D02*
X18598635Y-16133627D01*
X18598635Y-16133627D02*
X18589111Y-16105055D01*
X18589111Y-16105055D02*
X18579587Y-16086008D01*
X18579587Y-16086008D02*
X18560539Y-16057436D01*
X18560539Y-16057436D02*
X18551016Y-16047912D01*
M02*
