G04 #@! TF.GenerationSoftware,KiCad,Pcbnew,7.0.5-4d25ed1034~172~ubuntu22.04.1*
G04 #@! TF.CreationDate,2023-05-31T11:26:29+02:00*
G04 #@! TF.ProjectId,Drawer_Controller,44726177-6572-45f4-936f-6e74726f6c6c,rev?*
G04 #@! TF.SameCoordinates,Original*
G04 #@! TF.FileFunction,Copper,L1,Top*
G04 #@! TF.FilePolarity,Positive*
%FSLAX46Y46*%
G04 Gerber Fmt 4.6, Leading zero omitted, Abs format (unit mm)*
G04 Created by KiCad (PCBNEW 7.0.5-4d25ed1034~172~ubuntu22.04.1) date 2023-05-31 11:26:29*
%MOMM*%
%LPD*%
G01*
G04 APERTURE LIST*
G04 Aperture macros list*
%AMRoundRect*
0 Rectangle with rounded corners*
0 $1 Rounding radius*
0 $2 $3 $4 $5 $6 $7 $8 $9 X,Y pos of 4 corners*
0 Add a 4 corners polygon primitive as box body*
4,1,4,$2,$3,$4,$5,$6,$7,$8,$9,$2,$3,0*
0 Add four circle primitives for the rounded corners*
1,1,$1+$1,$2,$3*
1,1,$1+$1,$4,$5*
1,1,$1+$1,$6,$7*
1,1,$1+$1,$8,$9*
0 Add four rect primitives between the rounded corners*
20,1,$1+$1,$2,$3,$4,$5,0*
20,1,$1+$1,$4,$5,$6,$7,0*
20,1,$1+$1,$6,$7,$8,$9,0*
20,1,$1+$1,$8,$9,$2,$3,0*%
G04 Aperture macros list end*
G04 #@! TA.AperFunction,SMDPad,CuDef*
%ADD10RoundRect,0.006000X-0.769000X-0.294000X0.769000X-0.294000X0.769000X0.294000X-0.769000X0.294000X0*%
G04 #@! TD*
G04 #@! TA.AperFunction,SMDPad,CuDef*
%ADD11R,2.950000X4.900000*%
G04 #@! TD*
G04 #@! TA.AperFunction,ComponentPad*
%ADD12C,0.300000*%
G04 #@! TD*
G04 #@! TA.AperFunction,SMDPad,CuDef*
%ADD13RoundRect,0.225000X0.250000X-0.225000X0.250000X0.225000X-0.250000X0.225000X-0.250000X-0.225000X0*%
G04 #@! TD*
G04 #@! TA.AperFunction,SMDPad,CuDef*
%ADD14RoundRect,0.150000X0.150000X-0.587500X0.150000X0.587500X-0.150000X0.587500X-0.150000X-0.587500X0*%
G04 #@! TD*
G04 #@! TA.AperFunction,SMDPad,CuDef*
%ADD15RoundRect,0.250000X-0.300000X0.300000X-0.300000X-0.300000X0.300000X-0.300000X0.300000X0.300000X0*%
G04 #@! TD*
G04 #@! TA.AperFunction,SMDPad,CuDef*
%ADD16RoundRect,0.135000X0.135000X0.185000X-0.135000X0.185000X-0.135000X-0.185000X0.135000X-0.185000X0*%
G04 #@! TD*
G04 #@! TA.AperFunction,SMDPad,CuDef*
%ADD17RoundRect,0.140000X0.140000X0.170000X-0.140000X0.170000X-0.140000X-0.170000X0.140000X-0.170000X0*%
G04 #@! TD*
G04 #@! TA.AperFunction,SMDPad,CuDef*
%ADD18RoundRect,0.135000X0.185000X-0.135000X0.185000X0.135000X-0.185000X0.135000X-0.185000X-0.135000X0*%
G04 #@! TD*
G04 #@! TA.AperFunction,SMDPad,CuDef*
%ADD19RoundRect,0.135000X-0.185000X0.135000X-0.185000X-0.135000X0.185000X-0.135000X0.185000X0.135000X0*%
G04 #@! TD*
G04 #@! TA.AperFunction,SMDPad,CuDef*
%ADD20RoundRect,0.225000X-0.250000X0.225000X-0.250000X-0.225000X0.250000X-0.225000X0.250000X0.225000X0*%
G04 #@! TD*
G04 #@! TA.AperFunction,SMDPad,CuDef*
%ADD21RoundRect,0.250000X0.312500X1.075000X-0.312500X1.075000X-0.312500X-1.075000X0.312500X-1.075000X0*%
G04 #@! TD*
G04 #@! TA.AperFunction,SMDPad,CuDef*
%ADD22R,3.050000X0.610000*%
G04 #@! TD*
G04 #@! TA.AperFunction,SMDPad,CuDef*
%ADD23R,3.900000X1.945000*%
G04 #@! TD*
G04 #@! TA.AperFunction,SMDPad,CuDef*
%ADD24R,0.400000X0.555000*%
G04 #@! TD*
G04 #@! TA.AperFunction,SMDPad,CuDef*
%ADD25RoundRect,0.140000X0.170000X-0.140000X0.170000X0.140000X-0.170000X0.140000X-0.170000X-0.140000X0*%
G04 #@! TD*
G04 #@! TA.AperFunction,SMDPad,CuDef*
%ADD26RoundRect,0.135000X-0.135000X-0.185000X0.135000X-0.185000X0.135000X0.185000X-0.135000X0.185000X0*%
G04 #@! TD*
G04 #@! TA.AperFunction,SMDPad,CuDef*
%ADD27R,1.300000X4.500000*%
G04 #@! TD*
G04 #@! TA.AperFunction,SMDPad,CuDef*
%ADD28R,1.800000X3.900000*%
G04 #@! TD*
G04 #@! TA.AperFunction,SMDPad,CuDef*
%ADD29RoundRect,0.250000X-0.337500X-0.475000X0.337500X-0.475000X0.337500X0.475000X-0.337500X0.475000X0*%
G04 #@! TD*
G04 #@! TA.AperFunction,SMDPad,CuDef*
%ADD30RoundRect,0.250000X0.650000X-0.325000X0.650000X0.325000X-0.650000X0.325000X-0.650000X-0.325000X0*%
G04 #@! TD*
G04 #@! TA.AperFunction,SMDPad,CuDef*
%ADD31R,4.241800X3.810000*%
G04 #@! TD*
G04 #@! TA.AperFunction,SMDPad,CuDef*
%ADD32RoundRect,0.140000X-0.170000X0.140000X-0.170000X-0.140000X0.170000X-0.140000X0.170000X0.140000X0*%
G04 #@! TD*
G04 #@! TA.AperFunction,SMDPad,CuDef*
%ADD33RoundRect,0.225000X0.225000X0.250000X-0.225000X0.250000X-0.225000X-0.250000X0.225000X-0.250000X0*%
G04 #@! TD*
G04 #@! TA.AperFunction,SMDPad,CuDef*
%ADD34RoundRect,0.250000X-0.475000X0.250000X-0.475000X-0.250000X0.475000X-0.250000X0.475000X0.250000X0*%
G04 #@! TD*
G04 #@! TA.AperFunction,SMDPad,CuDef*
%ADD35RoundRect,0.140000X-0.140000X-0.170000X0.140000X-0.170000X0.140000X0.170000X-0.140000X0.170000X0*%
G04 #@! TD*
G04 #@! TA.AperFunction,SMDPad,CuDef*
%ADD36R,0.400000X0.510000*%
G04 #@! TD*
G04 #@! TA.AperFunction,SMDPad,CuDef*
%ADD37RoundRect,0.042000X0.258000X-0.943000X0.258000X0.943000X-0.258000X0.943000X-0.258000X-0.943000X0*%
G04 #@! TD*
G04 #@! TA.AperFunction,ComponentPad*
%ADD38R,1.650000X1.650000*%
G04 #@! TD*
G04 #@! TA.AperFunction,ComponentPad*
%ADD39C,1.650000*%
G04 #@! TD*
G04 #@! TA.AperFunction,SMDPad,CuDef*
%ADD40RoundRect,0.250000X-0.250000X-0.475000X0.250000X-0.475000X0.250000X0.475000X-0.250000X0.475000X0*%
G04 #@! TD*
G04 #@! TA.AperFunction,SMDPad,CuDef*
%ADD41RoundRect,0.218750X0.256250X-0.218750X0.256250X0.218750X-0.256250X0.218750X-0.256250X-0.218750X0*%
G04 #@! TD*
G04 #@! TA.AperFunction,SMDPad,CuDef*
%ADD42RoundRect,0.150000X0.150000X-0.875000X0.150000X0.875000X-0.150000X0.875000X-0.150000X-0.875000X0*%
G04 #@! TD*
G04 #@! TA.AperFunction,ComponentPad*
%ADD43R,1.700000X1.700000*%
G04 #@! TD*
G04 #@! TA.AperFunction,ComponentPad*
%ADD44O,1.700000X1.700000*%
G04 #@! TD*
G04 #@! TA.AperFunction,SMDPad,CuDef*
%ADD45RoundRect,0.250000X-0.650000X0.325000X-0.650000X-0.325000X0.650000X-0.325000X0.650000X0.325000X0*%
G04 #@! TD*
G04 #@! TA.AperFunction,SMDPad,CuDef*
%ADD46RoundRect,0.150000X-0.150000X0.587500X-0.150000X-0.587500X0.150000X-0.587500X0.150000X0.587500X0*%
G04 #@! TD*
G04 #@! TA.AperFunction,SMDPad,CuDef*
%ADD47R,0.800000X0.600000*%
G04 #@! TD*
G04 #@! TA.AperFunction,SMDPad,CuDef*
%ADD48RoundRect,0.350000X-1.950000X-0.350000X1.950000X-0.350000X1.950000X0.350000X-1.950000X0.350000X0*%
G04 #@! TD*
G04 #@! TA.AperFunction,SMDPad,CuDef*
%ADD49RoundRect,0.243750X0.456250X-0.243750X0.456250X0.243750X-0.456250X0.243750X-0.456250X-0.243750X0*%
G04 #@! TD*
G04 #@! TA.AperFunction,SMDPad,CuDef*
%ADD50RoundRect,0.250000X0.475000X-0.250000X0.475000X0.250000X-0.475000X0.250000X-0.475000X-0.250000X0*%
G04 #@! TD*
G04 #@! TA.AperFunction,SMDPad,CuDef*
%ADD51R,1.500000X0.900000*%
G04 #@! TD*
G04 #@! TA.AperFunction,SMDPad,CuDef*
%ADD52R,0.900000X1.500000*%
G04 #@! TD*
G04 #@! TA.AperFunction,SMDPad,CuDef*
%ADD53R,0.900000X0.900000*%
G04 #@! TD*
G04 #@! TA.AperFunction,SMDPad,CuDef*
%ADD54R,0.400000X0.480000*%
G04 #@! TD*
G04 #@! TA.AperFunction,SMDPad,CuDef*
%ADD55RoundRect,0.350000X1.950000X0.350000X-1.950000X0.350000X-1.950000X-0.350000X1.950000X-0.350000X0*%
G04 #@! TD*
G04 #@! TA.AperFunction,SMDPad,CuDef*
%ADD56R,1.000000X0.750000*%
G04 #@! TD*
G04 #@! TA.AperFunction,SMDPad,CuDef*
%ADD57RoundRect,0.008100X-0.396900X-0.126900X0.396900X-0.126900X0.396900X0.126900X-0.396900X0.126900X0*%
G04 #@! TD*
G04 #@! TA.AperFunction,SMDPad,CuDef*
%ADD58RoundRect,0.027000X-0.108000X-0.378000X0.108000X-0.378000X0.108000X0.378000X-0.108000X0.378000X0*%
G04 #@! TD*
G04 #@! TA.AperFunction,SMDPad,CuDef*
%ADD59R,3.700000X3.700000*%
G04 #@! TD*
G04 #@! TA.AperFunction,ComponentPad*
%ADD60R,1.520000X1.520000*%
G04 #@! TD*
G04 #@! TA.AperFunction,ComponentPad*
%ADD61C,1.520000*%
G04 #@! TD*
G04 #@! TA.AperFunction,SMDPad,CuDef*
%ADD62RoundRect,0.150000X-0.587500X-0.150000X0.587500X-0.150000X0.587500X0.150000X-0.587500X0.150000X0*%
G04 #@! TD*
G04 #@! TA.AperFunction,SMDPad,CuDef*
%ADD63R,4.500000X2.000000*%
G04 #@! TD*
G04 #@! TA.AperFunction,SMDPad,CuDef*
%ADD64RoundRect,0.218750X-0.256250X0.218750X-0.256250X-0.218750X0.256250X-0.218750X0.256250X0.218750X0*%
G04 #@! TD*
G04 #@! TA.AperFunction,SMDPad,CuDef*
%ADD65RoundRect,0.225000X-0.225000X-0.250000X0.225000X-0.250000X0.225000X0.250000X-0.225000X0.250000X0*%
G04 #@! TD*
G04 #@! TA.AperFunction,SMDPad,CuDef*
%ADD66R,1.473200X0.355600*%
G04 #@! TD*
G04 #@! TA.AperFunction,SMDPad,CuDef*
%ADD67R,1.500000X2.000000*%
G04 #@! TD*
G04 #@! TA.AperFunction,SMDPad,CuDef*
%ADD68R,3.800000X2.000000*%
G04 #@! TD*
G04 #@! TA.AperFunction,SMDPad,CuDef*
%ADD69R,0.600000X1.700000*%
G04 #@! TD*
G04 #@! TA.AperFunction,SMDPad,CuDef*
%ADD70R,1.000000X2.700000*%
G04 #@! TD*
G04 #@! TA.AperFunction,SMDPad,CuDef*
%ADD71RoundRect,0.155000X-0.155000X0.212500X-0.155000X-0.212500X0.155000X-0.212500X0.155000X0.212500X0*%
G04 #@! TD*
G04 #@! TA.AperFunction,SMDPad,CuDef*
%ADD72RoundRect,0.725000X-0.725000X1.975000X-0.725000X-1.975000X0.725000X-1.975000X0.725000X1.975000X0*%
G04 #@! TD*
G04 #@! TA.AperFunction,ComponentPad*
%ADD73R,1.350000X1.350000*%
G04 #@! TD*
G04 #@! TA.AperFunction,ComponentPad*
%ADD74C,1.350000*%
G04 #@! TD*
G04 #@! TA.AperFunction,SMDPad,CuDef*
%ADD75RoundRect,0.250000X-0.312500X-1.075000X0.312500X-1.075000X0.312500X1.075000X-0.312500X1.075000X0*%
G04 #@! TD*
G04 #@! TA.AperFunction,SMDPad,CuDef*
%ADD76RoundRect,0.100000X-0.100000X0.637500X-0.100000X-0.637500X0.100000X-0.637500X0.100000X0.637500X0*%
G04 #@! TD*
G04 #@! TA.AperFunction,SMDPad,CuDef*
%ADD77RoundRect,0.250000X-0.650000X1.000000X-0.650000X-1.000000X0.650000X-1.000000X0.650000X1.000000X0*%
G04 #@! TD*
G04 #@! TA.AperFunction,SMDPad,CuDef*
%ADD78RoundRect,0.062500X0.337500X0.062500X-0.337500X0.062500X-0.337500X-0.062500X0.337500X-0.062500X0*%
G04 #@! TD*
G04 #@! TA.AperFunction,SMDPad,CuDef*
%ADD79RoundRect,0.062500X0.062500X0.337500X-0.062500X0.337500X-0.062500X-0.337500X0.062500X-0.337500X0*%
G04 #@! TD*
G04 #@! TA.AperFunction,SMDPad,CuDef*
%ADD80R,3.350000X3.350000*%
G04 #@! TD*
G04 #@! TA.AperFunction,SMDPad,CuDef*
%ADD81RoundRect,0.250000X0.337500X0.475000X-0.337500X0.475000X-0.337500X-0.475000X0.337500X-0.475000X0*%
G04 #@! TD*
G04 #@! TA.AperFunction,SMDPad,CuDef*
%ADD82RoundRect,0.150000X0.825000X0.150000X-0.825000X0.150000X-0.825000X-0.150000X0.825000X-0.150000X0*%
G04 #@! TD*
G04 #@! TA.AperFunction,SMDPad,CuDef*
%ADD83R,1.350000X0.400000*%
G04 #@! TD*
G04 #@! TA.AperFunction,ComponentPad*
%ADD84C,1.450000*%
G04 #@! TD*
G04 #@! TA.AperFunction,ComponentPad*
%ADD85O,1.900000X0.950000*%
G04 #@! TD*
G04 #@! TA.AperFunction,SMDPad,CuDef*
%ADD86R,1.900000X1.200000*%
G04 #@! TD*
G04 #@! TA.AperFunction,SMDPad,CuDef*
%ADD87R,1.900000X1.500000*%
G04 #@! TD*
G04 #@! TA.AperFunction,SMDPad,CuDef*
%ADD88RoundRect,0.250000X0.300000X-0.300000X0.300000X0.300000X-0.300000X0.300000X-0.300000X-0.300000X0*%
G04 #@! TD*
G04 #@! TA.AperFunction,SMDPad,CuDef*
%ADD89RoundRect,0.350000X0.350000X-1.950000X0.350000X1.950000X-0.350000X1.950000X-0.350000X-1.950000X0*%
G04 #@! TD*
G04 #@! TA.AperFunction,ViaPad*
%ADD90C,0.600000*%
G04 #@! TD*
G04 #@! TA.AperFunction,Conductor*
%ADD91C,0.350000*%
G04 #@! TD*
G04 #@! TA.AperFunction,Conductor*
%ADD92C,0.180000*%
G04 #@! TD*
G04 #@! TA.AperFunction,Conductor*
%ADD93C,1.000000*%
G04 #@! TD*
G04 #@! TA.AperFunction,Conductor*
%ADD94C,0.250000*%
G04 #@! TD*
G04 #@! TA.AperFunction,Conductor*
%ADD95C,0.500000*%
G04 #@! TD*
G04 #@! TA.AperFunction,Conductor*
%ADD96C,0.200000*%
G04 #@! TD*
G04 #@! TA.AperFunction,Conductor*
%ADD97C,0.153000*%
G04 #@! TD*
G04 #@! TA.AperFunction,Conductor*
%ADD98C,0.750000*%
G04 #@! TD*
G04 #@! TA.AperFunction,Conductor*
%ADD99C,1.500000*%
G04 #@! TD*
G04 APERTURE END LIST*
D10*
X202900000Y-142232500D03*
X202900000Y-143502500D03*
X202900000Y-144772500D03*
X202900000Y-146042500D03*
X208300000Y-146042500D03*
X208300000Y-144772500D03*
X208300000Y-143502500D03*
X208300000Y-142232500D03*
D11*
X205600000Y-144137500D03*
D12*
X204950000Y-142187500D03*
X206250000Y-142187500D03*
X204950000Y-143487500D03*
X206250000Y-143487500D03*
X204950000Y-144787500D03*
X206250000Y-144787500D03*
X204950000Y-146087500D03*
X206250000Y-146087500D03*
D13*
X249100000Y-134175000D03*
X249100000Y-132625000D03*
D14*
X254750000Y-109237500D03*
X256650000Y-109237500D03*
X255700000Y-107362500D03*
D15*
X143250000Y-144850000D03*
X143250000Y-147650000D03*
D16*
X212560000Y-146050000D03*
X211540000Y-146050000D03*
D17*
X188430000Y-116750000D03*
X187470000Y-116750000D03*
D18*
X178500000Y-121400000D03*
X178500000Y-120380000D03*
D19*
X135800000Y-104640000D03*
X135800000Y-105660000D03*
D20*
X197000000Y-127225000D03*
X197000000Y-128775000D03*
D21*
X228862500Y-124950000D03*
X225937500Y-124950000D03*
D22*
X140977500Y-142056000D03*
X140977500Y-141040000D03*
X140977500Y-140024000D03*
X140977500Y-139008000D03*
X140977500Y-137992000D03*
X140977500Y-136976000D03*
X140977500Y-135960000D03*
X140977500Y-134944000D03*
D23*
X130977500Y-129552500D03*
D24*
X132727500Y-130800000D03*
X129227500Y-130800000D03*
D23*
X130977500Y-147447500D03*
D24*
X132727500Y-146200000D03*
X129227500Y-146200000D03*
D17*
X242180000Y-127350000D03*
X241220000Y-127350000D03*
D25*
X183200000Y-116680000D03*
X183200000Y-115720000D03*
D20*
X137100000Y-103825000D03*
X137100000Y-105375000D03*
D26*
X253790000Y-114762500D03*
X254810000Y-114762500D03*
D25*
X250400000Y-131480000D03*
X250400000Y-130520000D03*
D27*
X247750000Y-117275000D03*
X245250000Y-117275000D03*
X242750000Y-117275000D03*
X240250000Y-117275000D03*
D28*
X250950000Y-110475000D03*
X237050000Y-110475000D03*
D29*
X179362500Y-143200000D03*
X181437500Y-143200000D03*
D20*
X160325000Y-137725000D03*
X160325000Y-139275000D03*
D30*
X237800000Y-133975000D03*
X237800000Y-131025000D03*
D19*
X262500000Y-124130000D03*
X262500000Y-125150000D03*
D31*
X147312300Y-145900000D03*
X153687700Y-145900000D03*
D32*
X173500000Y-122640000D03*
X173500000Y-123600000D03*
D33*
X143675000Y-116600000D03*
X142125000Y-116600000D03*
D34*
X148400000Y-107850000D03*
X148400000Y-109750000D03*
D35*
X180720000Y-114400000D03*
X181680000Y-114400000D03*
D36*
X127100000Y-107310000D03*
X126100000Y-107310000D03*
X126600000Y-108600000D03*
D19*
X137400000Y-114090000D03*
X137400000Y-115110000D03*
D37*
X188345000Y-123470000D03*
X189615000Y-123470000D03*
X190885000Y-123470000D03*
X192155000Y-123470000D03*
X192155000Y-118530000D03*
X190885000Y-118530000D03*
X189615000Y-118530000D03*
X188345000Y-118530000D03*
D38*
X148080000Y-120460000D03*
D39*
X148080000Y-123000000D03*
X148080000Y-125540000D03*
D27*
X229750000Y-117275000D03*
X227250000Y-117275000D03*
X224750000Y-117275000D03*
X222250000Y-117275000D03*
D28*
X232950000Y-110475000D03*
X219050000Y-110475000D03*
D40*
X211375000Y-144050000D03*
X213275000Y-144050000D03*
D16*
X239310000Y-129500000D03*
X238290000Y-129500000D03*
D41*
X250700000Y-134187500D03*
X250700000Y-132612500D03*
D18*
X176500000Y-121400000D03*
X176500000Y-120380000D03*
D25*
X229525000Y-131405000D03*
X229525000Y-130445000D03*
D42*
X170210000Y-135100000D03*
X171480000Y-135100000D03*
X172750000Y-135100000D03*
X174020000Y-135100000D03*
X175290000Y-135100000D03*
X176560000Y-135100000D03*
X177830000Y-135100000D03*
X179100000Y-135100000D03*
X180370000Y-135100000D03*
X180370000Y-125800000D03*
X179100000Y-125800000D03*
X177830000Y-125800000D03*
X176560000Y-125800000D03*
X175290000Y-125800000D03*
X174020000Y-125800000D03*
X172750000Y-125800000D03*
X171480000Y-125800000D03*
X170210000Y-125800000D03*
D13*
X198750000Y-132525000D03*
X198750000Y-130975000D03*
D43*
X161760000Y-145300000D03*
D44*
X164300000Y-145300000D03*
X166840000Y-145300000D03*
D20*
X148100000Y-115525000D03*
X148100000Y-117075000D03*
D35*
X166020000Y-134600000D03*
X166980000Y-134600000D03*
D30*
X147200000Y-106075000D03*
X147200000Y-103125000D03*
D45*
X191000000Y-136025000D03*
X191000000Y-138975000D03*
D19*
X254400000Y-104780000D03*
X254400000Y-105800000D03*
D46*
X255400000Y-134550000D03*
X253500000Y-134550000D03*
X254450000Y-136425000D03*
D47*
X138640000Y-114662500D03*
X138640000Y-116562500D03*
X140660000Y-115612500D03*
D48*
X231900000Y-141900000D03*
X222900000Y-141900000D03*
D49*
X187750000Y-132375000D03*
X187750000Y-130500000D03*
D15*
X144200000Y-139425000D03*
X144200000Y-142225000D03*
D41*
X231950000Y-134237500D03*
X231950000Y-132662500D03*
D26*
X145890000Y-107600000D03*
X146910000Y-107600000D03*
D50*
X200750000Y-143950000D03*
X200750000Y-142050000D03*
D51*
X150600000Y-104880000D03*
X150600000Y-106150000D03*
X150600000Y-107420000D03*
X150600000Y-108690000D03*
X150600000Y-109960000D03*
X150600000Y-111230000D03*
X150600000Y-112500000D03*
X150600000Y-113770000D03*
X150600000Y-115040000D03*
X150600000Y-116310000D03*
X150600000Y-117580000D03*
X150600000Y-118850000D03*
X150600000Y-120120000D03*
X150600000Y-121390000D03*
D52*
X153635000Y-122640000D03*
X154905000Y-122640000D03*
X156175000Y-122640000D03*
X157445000Y-122640000D03*
X158715000Y-122640000D03*
X159985000Y-122640000D03*
X161255000Y-122640000D03*
X162525000Y-122640000D03*
X163795000Y-122640000D03*
X165065000Y-122640000D03*
D51*
X168100000Y-121390000D03*
X168100000Y-120120000D03*
X168100000Y-118850000D03*
X168100000Y-117580000D03*
X168100000Y-116310000D03*
X168100000Y-115040000D03*
X168100000Y-113770000D03*
X168100000Y-112500000D03*
X168100000Y-111230000D03*
X168100000Y-109960000D03*
X168100000Y-108690000D03*
X168100000Y-107420000D03*
X168100000Y-106150000D03*
X168100000Y-104880000D03*
D53*
X156450000Y-111200000D03*
X157850000Y-111200000D03*
X159250000Y-111200000D03*
X156450000Y-112600000D03*
X157850000Y-112600000D03*
X159250000Y-112600000D03*
X156450000Y-114000000D03*
X157850000Y-114000000D03*
X159250000Y-114000000D03*
D12*
X157150000Y-111200000D03*
X158550000Y-111200000D03*
X156450000Y-111900000D03*
X157850000Y-111900000D03*
X159250000Y-111900000D03*
X157150000Y-112600000D03*
X158550000Y-112600000D03*
X156450000Y-113300000D03*
X157850000Y-113300000D03*
X159250000Y-113300000D03*
X157150000Y-114000000D03*
X158550000Y-114000000D03*
D37*
X212095000Y-123470000D03*
X213365000Y-123470000D03*
X214635000Y-123470000D03*
X215905000Y-123470000D03*
X215905000Y-118530000D03*
X214635000Y-118530000D03*
X213365000Y-118530000D03*
X212095000Y-118530000D03*
D32*
X247700000Y-132620000D03*
X247700000Y-133580000D03*
D25*
X169300000Y-138980000D03*
X169300000Y-138020000D03*
X167300000Y-127680000D03*
X167300000Y-126720000D03*
D18*
X180400000Y-123910000D03*
X180400000Y-122890000D03*
D16*
X260910000Y-120000000D03*
X259890000Y-120000000D03*
X126930000Y-113500000D03*
X125910000Y-113500000D03*
D46*
X254450000Y-138525000D03*
X252550000Y-138525000D03*
X253500000Y-140400000D03*
D16*
X259720000Y-129600000D03*
X258700000Y-129600000D03*
D54*
X124750000Y-108597500D03*
X124750000Y-107277500D03*
D16*
X255400000Y-132950000D03*
X254380000Y-132950000D03*
D35*
X200770000Y-116700000D03*
X201730000Y-116700000D03*
D30*
X218000000Y-133475000D03*
X218000000Y-130525000D03*
D55*
X237700000Y-141900000D03*
X246700000Y-141900000D03*
D37*
X193940000Y-123470000D03*
X195210000Y-123470000D03*
X196480000Y-123470000D03*
X197750000Y-123470000D03*
X197750000Y-118530000D03*
X196480000Y-118530000D03*
X195210000Y-118530000D03*
X193940000Y-118530000D03*
D56*
X131200000Y-98325000D03*
X137200000Y-98325000D03*
X131200000Y-102075000D03*
X137200000Y-102075000D03*
D57*
X221850000Y-129300000D03*
X221850000Y-129800000D03*
X221850000Y-130300000D03*
X221850000Y-130800000D03*
X221850000Y-131300000D03*
X221850000Y-131800000D03*
X221850000Y-132300000D03*
D58*
X222800000Y-133250000D03*
X223300000Y-133250000D03*
X223800000Y-133250000D03*
X224300000Y-133250000D03*
X224800000Y-133250000D03*
X225300000Y-133250000D03*
X225800000Y-133250000D03*
D57*
X226750000Y-132300000D03*
X226750000Y-131800000D03*
X226750000Y-131300000D03*
X226750000Y-130800000D03*
X226750000Y-130300000D03*
X226750000Y-129800000D03*
X226750000Y-129300000D03*
D58*
X225800000Y-128350000D03*
X225300000Y-128350000D03*
X224800000Y-128350000D03*
X224300000Y-128350000D03*
X223800000Y-128350000D03*
X223300000Y-128350000D03*
X222800000Y-128350000D03*
D59*
X224300000Y-130800000D03*
D35*
X180720000Y-115400000D03*
X181680000Y-115400000D03*
D13*
X230350000Y-134225000D03*
X230350000Y-132675000D03*
D60*
X262680000Y-105000000D03*
D61*
X262680000Y-108000000D03*
X262680000Y-111000000D03*
X259680000Y-105000000D03*
X259680000Y-108000000D03*
X259680000Y-111000000D03*
D37*
X206595000Y-123470000D03*
X207865000Y-123470000D03*
X209135000Y-123470000D03*
X210405000Y-123470000D03*
X210405000Y-118530000D03*
X209135000Y-118530000D03*
X207865000Y-118530000D03*
X206595000Y-118530000D03*
D13*
X134250000Y-116000000D03*
X134250000Y-114450000D03*
D45*
X196000000Y-136025000D03*
X196000000Y-138975000D03*
D35*
X245820000Y-127350000D03*
X246780000Y-127350000D03*
D62*
X257462500Y-116750000D03*
X257462500Y-118650000D03*
X259337500Y-117700000D03*
D21*
X248662500Y-124900000D03*
X245737500Y-124900000D03*
D54*
X124750000Y-106160000D03*
X124750000Y-104840000D03*
D63*
X182750000Y-139500000D03*
X174250000Y-139500000D03*
D18*
X160650000Y-141560000D03*
X160650000Y-140540000D03*
D17*
X193930000Y-116800000D03*
X192970000Y-116800000D03*
D54*
X256900000Y-105660000D03*
X256900000Y-104340000D03*
D25*
X239500000Y-133480000D03*
X239500000Y-132520000D03*
D47*
X142140000Y-113012500D03*
X142140000Y-114912500D03*
X144160000Y-113962500D03*
D17*
X206480000Y-116750000D03*
X205520000Y-116750000D03*
D18*
X169800000Y-108810000D03*
X169800000Y-107790000D03*
D16*
X219610000Y-129100000D03*
X218590000Y-129100000D03*
D64*
X198750000Y-127712500D03*
X198750000Y-129287500D03*
D65*
X253900000Y-131650000D03*
X255450000Y-131650000D03*
D13*
X254562500Y-119275000D03*
X254562500Y-117725000D03*
D17*
X222430000Y-127150000D03*
X221470000Y-127150000D03*
D19*
X255600000Y-104780000D03*
X255600000Y-105800000D03*
D33*
X255375000Y-116062500D03*
X253825000Y-116062500D03*
D66*
X181021000Y-104686000D03*
X181021000Y-104025600D03*
X181021000Y-103365200D03*
X181021000Y-102730200D03*
X181021000Y-102069800D03*
X181021000Y-101434800D03*
X181021000Y-100774400D03*
X181021000Y-100114000D03*
X175179000Y-100114000D03*
X175179000Y-100774400D03*
X175179000Y-101434800D03*
X175179000Y-102069800D03*
X175179000Y-102730200D03*
X175179000Y-103365200D03*
X175179000Y-104025600D03*
X175179000Y-104686000D03*
D35*
X172220000Y-118900000D03*
X173180000Y-118900000D03*
D67*
X190200000Y-133150000D03*
X192500000Y-133150000D03*
D68*
X192500000Y-126850000D03*
D67*
X194800000Y-133150000D03*
D69*
X197500000Y-113850000D03*
X196250000Y-113850000D03*
X195000000Y-113850000D03*
X193750000Y-113850000D03*
X192500000Y-113850000D03*
X191250000Y-113850000D03*
X190000000Y-113850000D03*
X188750000Y-113850000D03*
X187500000Y-113850000D03*
X186250000Y-113850000D03*
D70*
X199350000Y-110650000D03*
X184400000Y-110650000D03*
D35*
X226020000Y-127150000D03*
X226980000Y-127150000D03*
D16*
X172410000Y-112300000D03*
X171390000Y-112300000D03*
D18*
X173400000Y-103410000D03*
X173400000Y-102390000D03*
D71*
X137600000Y-99632500D03*
X137600000Y-100767500D03*
D35*
X173920000Y-112300000D03*
X174880000Y-112300000D03*
D30*
X196000000Y-144450000D03*
X196000000Y-141500000D03*
D20*
X210250000Y-146075000D03*
X210250000Y-147625000D03*
D18*
X180400000Y-121910000D03*
X180400000Y-120890000D03*
D20*
X188000000Y-127225000D03*
X188000000Y-128775000D03*
D26*
X171530000Y-109000000D03*
X172550000Y-109000000D03*
D25*
X126000000Y-106230000D03*
X126000000Y-105270000D03*
D69*
X214105000Y-113850000D03*
X212855000Y-113850000D03*
X211605000Y-113850000D03*
X210355000Y-113850000D03*
X209105000Y-113850000D03*
X207855000Y-113850000D03*
X206605000Y-113850000D03*
X205355000Y-113850000D03*
X204105000Y-113850000D03*
X202855000Y-113850000D03*
D70*
X215955000Y-110650000D03*
X201005000Y-110650000D03*
D43*
X171000000Y-104080000D03*
D44*
X171000000Y-101540000D03*
X171000000Y-99000000D03*
D19*
X261400000Y-121367500D03*
X261400000Y-122387500D03*
D72*
X211450000Y-134537500D03*
X201550000Y-134537500D03*
D18*
X252200000Y-137050000D03*
X252200000Y-136030000D03*
X160700000Y-133110000D03*
X160700000Y-132090000D03*
D43*
X129700000Y-114600000D03*
D44*
X129700000Y-112060000D03*
D18*
X174500000Y-123620000D03*
X174500000Y-122600000D03*
D73*
X266050000Y-120500000D03*
D74*
X266050000Y-118500000D03*
D75*
X219937500Y-124950000D03*
X222862500Y-124950000D03*
D76*
X165950000Y-127387500D03*
X165300000Y-127387500D03*
X164650000Y-127387500D03*
X164000000Y-127387500D03*
X163350000Y-127387500D03*
X162700000Y-127387500D03*
X162050000Y-127387500D03*
X162050000Y-133112500D03*
X162700000Y-133112500D03*
X163350000Y-133112500D03*
X164000000Y-133112500D03*
X164650000Y-133112500D03*
X165300000Y-133112500D03*
X165950000Y-133112500D03*
D71*
X145337500Y-99632500D03*
X145337500Y-100767500D03*
D45*
X193500000Y-136025000D03*
X193500000Y-138975000D03*
D60*
X262680000Y-135000000D03*
D61*
X262680000Y-138000000D03*
X262680000Y-141000000D03*
X259680000Y-135000000D03*
X259680000Y-138000000D03*
X259680000Y-141000000D03*
D54*
X263700000Y-125060000D03*
X263700000Y-123740000D03*
D18*
X178500000Y-123410000D03*
X178500000Y-122390000D03*
X176500000Y-123410000D03*
X176500000Y-122390000D03*
D36*
X126100000Y-111040000D03*
X127100000Y-111040000D03*
X126600000Y-109750000D03*
D19*
X257000000Y-110752500D03*
X257000000Y-111772500D03*
D35*
X175220000Y-105600000D03*
X176180000Y-105600000D03*
D20*
X138600000Y-103825000D03*
X138600000Y-105375000D03*
D77*
X128400000Y-101200000D03*
X128400000Y-105200000D03*
D13*
X254510000Y-127950000D03*
X254510000Y-126400000D03*
D78*
X137250000Y-110950000D03*
X137250000Y-110450000D03*
X137250000Y-109950000D03*
X137250000Y-109450000D03*
X137250000Y-108950000D03*
X137250000Y-108450000D03*
X137250000Y-107950000D03*
D79*
X136300000Y-107000000D03*
X135800000Y-107000000D03*
X135300000Y-107000000D03*
X134800000Y-107000000D03*
X134300000Y-107000000D03*
X133800000Y-107000000D03*
X133300000Y-107000000D03*
D78*
X132350000Y-107950000D03*
X132350000Y-108450000D03*
X132350000Y-108950000D03*
X132350000Y-109450000D03*
X132350000Y-109950000D03*
X132350000Y-110450000D03*
X132350000Y-110950000D03*
D79*
X133300000Y-111900000D03*
X133800000Y-111900000D03*
X134300000Y-111900000D03*
X134800000Y-111900000D03*
X135300000Y-111900000D03*
X135800000Y-111900000D03*
X136300000Y-111900000D03*
D80*
X134800000Y-109450000D03*
D75*
X239437500Y-124900000D03*
X242362500Y-124900000D03*
D32*
X227950000Y-132520000D03*
X227950000Y-133480000D03*
D66*
X177844900Y-117986000D03*
X177844900Y-117325600D03*
X177844900Y-116665200D03*
X177844900Y-116030200D03*
X177844900Y-115369800D03*
X177844900Y-114734800D03*
X177844900Y-114074400D03*
X177844900Y-113414000D03*
X172002900Y-113414000D03*
X172002900Y-114074400D03*
X172002900Y-114734800D03*
X172002900Y-115369800D03*
X172002900Y-116030200D03*
X172002900Y-116665200D03*
X172002900Y-117325600D03*
X172002900Y-117986000D03*
D54*
X124750000Y-109740000D03*
X124750000Y-111060000D03*
D35*
X180720000Y-113400000D03*
X181680000Y-113400000D03*
D30*
X193500000Y-144450000D03*
X193500000Y-141500000D03*
D54*
X263700000Y-122297500D03*
X263700000Y-120977500D03*
D26*
X179990000Y-105750000D03*
X181010000Y-105750000D03*
D14*
X253750000Y-113200000D03*
X255650000Y-113200000D03*
X254700000Y-111325000D03*
D26*
X255890000Y-138200000D03*
X256910000Y-138200000D03*
D13*
X135800000Y-116000000D03*
X135800000Y-114450000D03*
D62*
X261235000Y-127350000D03*
X261235000Y-129250000D03*
X263110000Y-128300000D03*
D26*
X255890000Y-139200000D03*
X256910000Y-139200000D03*
X125910000Y-115000000D03*
X126930000Y-115000000D03*
D35*
X180720000Y-116400000D03*
X181680000Y-116400000D03*
D81*
X177337500Y-143200000D03*
X175262500Y-143200000D03*
D73*
X266050000Y-127500000D03*
D74*
X266050000Y-125500000D03*
D19*
X255862500Y-117690000D03*
X255862500Y-118710000D03*
D56*
X138937500Y-98325000D03*
X144937500Y-98325000D03*
X138937500Y-102075000D03*
X144937500Y-102075000D03*
D30*
X198500000Y-141500000D03*
X198500000Y-144450000D03*
D82*
X167475000Y-140405000D03*
X167475000Y-139135000D03*
X167475000Y-137865000D03*
X167475000Y-136595000D03*
X162525000Y-136595000D03*
X162525000Y-137865000D03*
X162525000Y-139135000D03*
X162525000Y-140405000D03*
D25*
X149000000Y-106080000D03*
X149000000Y-105120000D03*
D16*
X180510000Y-117400000D03*
X179490000Y-117400000D03*
D62*
X257335000Y-126350000D03*
X257335000Y-128250000D03*
X259210000Y-127300000D03*
D16*
X172520000Y-123620000D03*
X171500000Y-123620000D03*
D25*
X138450000Y-107930000D03*
X138450000Y-106970000D03*
D19*
X261400000Y-124130000D03*
X261400000Y-125150000D03*
D18*
X169700000Y-119060000D03*
X169700000Y-118040000D03*
D30*
X140600000Y-107975000D03*
X140600000Y-105025000D03*
D57*
X241550000Y-129500000D03*
X241550000Y-130000000D03*
X241550000Y-130500000D03*
X241550000Y-131000000D03*
X241550000Y-131500000D03*
X241550000Y-132000000D03*
X241550000Y-132500000D03*
D58*
X242500000Y-133450000D03*
X243000000Y-133450000D03*
X243500000Y-133450000D03*
X244000000Y-133450000D03*
X244500000Y-133450000D03*
X245000000Y-133450000D03*
X245500000Y-133450000D03*
D57*
X246450000Y-132500000D03*
X246450000Y-132000000D03*
X246450000Y-131500000D03*
X246450000Y-131000000D03*
X246450000Y-130500000D03*
X246450000Y-130000000D03*
X246450000Y-129500000D03*
D58*
X245500000Y-128550000D03*
X245000000Y-128550000D03*
X244500000Y-128550000D03*
X244000000Y-128550000D03*
X243500000Y-128550000D03*
X243000000Y-128550000D03*
X242500000Y-128550000D03*
D59*
X244000000Y-131000000D03*
D62*
X261462500Y-116550000D03*
X261462500Y-118450000D03*
X263337500Y-117500000D03*
D83*
X123000000Y-108200000D03*
X123000000Y-108850000D03*
X123000000Y-109500000D03*
X123000000Y-110150000D03*
X123000000Y-110800000D03*
D84*
X123000000Y-107000000D03*
X123000000Y-112000000D03*
D85*
X120300000Y-106000000D03*
D86*
X120300000Y-106600000D03*
D87*
X120300000Y-108500000D03*
X120300000Y-110500000D03*
D86*
X120300000Y-112400000D03*
D85*
X120300000Y-113000000D03*
D25*
X219800000Y-131280000D03*
X219800000Y-130320000D03*
D19*
X255810000Y-126390000D03*
X255810000Y-127410000D03*
D13*
X197000000Y-132500000D03*
X197000000Y-130950000D03*
D18*
X134800000Y-105660000D03*
X134800000Y-104640000D03*
D35*
X167720000Y-125700000D03*
X168680000Y-125700000D03*
D66*
X179821000Y-111386000D03*
X179821000Y-110725600D03*
X179821000Y-110065200D03*
X179821000Y-109430200D03*
X179821000Y-108769800D03*
X179821000Y-108134800D03*
X179821000Y-107474400D03*
X179821000Y-106814000D03*
X173979000Y-106814000D03*
X173979000Y-107474400D03*
X173979000Y-108134800D03*
X173979000Y-108769800D03*
X173979000Y-109430200D03*
X173979000Y-110065200D03*
X173979000Y-110725600D03*
X173979000Y-111386000D03*
D37*
X201095000Y-123470000D03*
X202365000Y-123470000D03*
X203635000Y-123470000D03*
X204905000Y-123470000D03*
X204905000Y-118530000D03*
X203635000Y-118530000D03*
X202365000Y-118530000D03*
X201095000Y-118530000D03*
D88*
X144200000Y-137725000D03*
X144200000Y-134925000D03*
D17*
X211980000Y-116750000D03*
X211020000Y-116750000D03*
D26*
X138440000Y-111900000D03*
X139460000Y-111900000D03*
D18*
X201300000Y-147060000D03*
X201300000Y-146040000D03*
D25*
X239500000Y-131580000D03*
X239500000Y-130620000D03*
D19*
X169800000Y-109890000D03*
X169800000Y-110910000D03*
D25*
X210000000Y-143210000D03*
X210000000Y-142250000D03*
D89*
X152500000Y-139500000D03*
X152500000Y-130500000D03*
D37*
X182745000Y-123470000D03*
X184015000Y-123470000D03*
X185285000Y-123470000D03*
X186555000Y-123470000D03*
X186555000Y-118530000D03*
X185285000Y-118530000D03*
X184015000Y-118530000D03*
X182745000Y-118530000D03*
D54*
X256900000Y-137160000D03*
X256900000Y-135840000D03*
D35*
X125940000Y-112400000D03*
X126900000Y-112400000D03*
D25*
X220000000Y-133180000D03*
X220000000Y-132220000D03*
D19*
X262500000Y-121367500D03*
X262500000Y-122387500D03*
D45*
X198500000Y-136025000D03*
X198500000Y-138975000D03*
D90*
X184400000Y-127600000D03*
X246000000Y-128550000D03*
X166975000Y-135375000D03*
X135800000Y-103924500D03*
X226838887Y-132844568D03*
X249850000Y-137550000D03*
X168300000Y-127800000D03*
X171350000Y-147200000D03*
X145890000Y-109900000D03*
X177411472Y-128388528D03*
X145850000Y-128150000D03*
X173800000Y-144850000D03*
X255300000Y-137600000D03*
X145900000Y-123550000D03*
X188000000Y-135210500D03*
X255600000Y-104100000D03*
X262500000Y-123400000D03*
X246734292Y-133069776D03*
X216200000Y-134950000D03*
X259350000Y-131050000D03*
X222500000Y-134300000D03*
X192450000Y-131700000D03*
X131900000Y-106950000D03*
X141350000Y-109500000D03*
X262500000Y-120600000D03*
X181541840Y-127558160D03*
X198750000Y-126775000D03*
X222900000Y-143100000D03*
X136131474Y-101300712D03*
X223900000Y-129500000D03*
X233189500Y-119130594D03*
X133500000Y-110700000D03*
X149400000Y-104400000D03*
X160700000Y-131350000D03*
X223000000Y-129500000D03*
X140600000Y-103800000D03*
X226438891Y-133570254D03*
X190850000Y-122100000D03*
X129775500Y-110300000D03*
X136100000Y-110750000D03*
X183700000Y-128197074D03*
X158700000Y-139550000D03*
X165971150Y-108695170D03*
X202550000Y-116350000D03*
X145050497Y-128150000D03*
X153600000Y-139600000D03*
X166900000Y-104900000D03*
X162529118Y-125539814D03*
X197500000Y-112600000D03*
X248700000Y-123100000D03*
X257611365Y-109202856D03*
X139050000Y-136950000D03*
X243600000Y-132400000D03*
X154466547Y-140614845D03*
X176900000Y-105400000D03*
X222900000Y-140700000D03*
X169305646Y-122093916D03*
X227700000Y-127150000D03*
X187750000Y-133300000D03*
X257400000Y-119500000D03*
X139050000Y-140000000D03*
X179900000Y-115810500D03*
X210272146Y-144962808D03*
X229615335Y-133438517D03*
X187758530Y-134448335D03*
X137650000Y-112800000D03*
X270899503Y-129950000D03*
X225700000Y-141900000D03*
X158567519Y-134268245D03*
X193750000Y-99500000D03*
X227224695Y-133544822D03*
X157150000Y-144700000D03*
X192250000Y-117100000D03*
X224800000Y-132200000D03*
X205350000Y-112550000D03*
X246700000Y-140700000D03*
X193225000Y-140525000D03*
X178400000Y-143100000D03*
X224800000Y-129500000D03*
X249492452Y-136834903D03*
X160597571Y-118539361D03*
X142900000Y-140100000D03*
X220750000Y-127150000D03*
X177050000Y-132800000D03*
X196500000Y-124950000D03*
X175550000Y-122639003D03*
X246134500Y-133598411D03*
X138149500Y-110449497D03*
X255219861Y-139725906D03*
X242700000Y-130600000D03*
X220100000Y-141900000D03*
X145790847Y-140031089D03*
X240858411Y-134975500D03*
X161400000Y-127400000D03*
X214100000Y-112550000D03*
X164720493Y-125245828D03*
X163980360Y-135418741D03*
X245300000Y-131500000D03*
X178100000Y-130260500D03*
X194296928Y-115207680D03*
X244500000Y-129700000D03*
X187116840Y-111116840D03*
X253600000Y-133300000D03*
X237751506Y-127367827D03*
X182107174Y-126948074D03*
X176650000Y-116700000D03*
X173350000Y-144175500D03*
X207850000Y-124950000D03*
X249500000Y-141900000D03*
X186850000Y-117150000D03*
X183007218Y-106868660D03*
X176251806Y-108086619D03*
X240500000Y-124900000D03*
X139600000Y-103800000D03*
X152500000Y-136800000D03*
X242000000Y-137566840D03*
X188850000Y-133375000D03*
X160165662Y-111850000D03*
X247600000Y-124900000D03*
X138050000Y-98350000D03*
X204700000Y-116900000D03*
X128500000Y-129550000D03*
X220800000Y-130175500D03*
X172565172Y-103417005D03*
X185300000Y-124950000D03*
X181050000Y-111150000D03*
X228900000Y-123100000D03*
X142050000Y-105025000D03*
X245300000Y-132400000D03*
X186300000Y-112600000D03*
X164855585Y-109361012D03*
X142950000Y-137000000D03*
X176800000Y-106200000D03*
X193750000Y-103189500D03*
X133329646Y-113009988D03*
X263700000Y-120300000D03*
X243267519Y-134518245D03*
X227417297Y-139416383D03*
X243600000Y-130600000D03*
X256500000Y-119400000D03*
X213300000Y-142850000D03*
X244500000Y-130600000D03*
X186950000Y-120474500D03*
X169300000Y-139700000D03*
X186998494Y-104067826D03*
X145128669Y-123339637D03*
X244500000Y-132400000D03*
X193090474Y-104359525D03*
X251912626Y-130262626D03*
X189600000Y-122150000D03*
X144083160Y-117916840D03*
X145831160Y-137102444D03*
X190699196Y-100374196D03*
X177319635Y-131461000D03*
X140651109Y-109888272D03*
X247415967Y-127084033D03*
X197975000Y-140550000D03*
X133500000Y-147450000D03*
X197475000Y-129800000D03*
X193950000Y-139975000D03*
X179500000Y-120700000D03*
X144750000Y-99050000D03*
X184242320Y-133546928D03*
X125350000Y-104950000D03*
X200294662Y-146090087D03*
X236600000Y-103610500D03*
X131768563Y-106161376D03*
X257300000Y-135100000D03*
X225600000Y-130400000D03*
X155791515Y-119254977D03*
X227750000Y-124950000D03*
X245300000Y-129700000D03*
X199887673Y-123557812D03*
X257300000Y-103500000D03*
X170961204Y-146501400D03*
X228650906Y-131858466D03*
X161358160Y-141591840D03*
X199200000Y-119000497D03*
X151400000Y-139600000D03*
X230300000Y-130400000D03*
X246911223Y-133849456D03*
X263700000Y-123100000D03*
X188875000Y-132450000D03*
X175450500Y-115429500D03*
X183424509Y-120474500D03*
X242700000Y-129700000D03*
X127450000Y-110326000D03*
X239500000Y-123100000D03*
X202850000Y-112600000D03*
X158700000Y-137389500D03*
X162000000Y-126200000D03*
X181050000Y-110400000D03*
X177152516Y-118520407D03*
X229250000Y-128600000D03*
X243600000Y-131500000D03*
X139050000Y-135950000D03*
X152500000Y-142200000D03*
X225760839Y-134940175D03*
X182211116Y-104017547D03*
X250700000Y-135100000D03*
X223900000Y-131300000D03*
X248300000Y-131841245D03*
X176033691Y-106658131D03*
X131100000Y-129600000D03*
X174100000Y-118850000D03*
X173239002Y-115959300D03*
X219585357Y-134845311D03*
X157321384Y-136689090D03*
X156308102Y-147530986D03*
X168000000Y-126400000D03*
X160888002Y-108392499D03*
X223900000Y-132200000D03*
X252700000Y-134600000D03*
X143250000Y-148300000D03*
X191550000Y-139925000D03*
X176738621Y-127762832D03*
X181750000Y-112650000D03*
X261600000Y-130150000D03*
X196625000Y-129825000D03*
X223900000Y-130400000D03*
X145150000Y-142975000D03*
X125400000Y-107300000D03*
X217698086Y-128342980D03*
X149972159Y-130369163D03*
X217900000Y-129400000D03*
X210300000Y-116900000D03*
X181000000Y-106850000D03*
X255600000Y-114500000D03*
X229946219Y-135372384D03*
X170000000Y-139000000D03*
X219900000Y-123100000D03*
X209100000Y-147050000D03*
X249264789Y-129583442D03*
X221000000Y-125000000D03*
X190850000Y-98650000D03*
X225600000Y-129500000D03*
X196550000Y-139925000D03*
X181100000Y-136400000D03*
X240512812Y-133433518D03*
X149362913Y-118289330D03*
X153700000Y-123900000D03*
X245000000Y-134600000D03*
X192600000Y-100700000D03*
X207303939Y-120474500D03*
X127400000Y-112950000D03*
X243900000Y-141900000D03*
X223000000Y-131300000D03*
X231300000Y-108650000D03*
X143125000Y-142800000D03*
X240400000Y-127350000D03*
X129775500Y-107850000D03*
X147539602Y-109029702D03*
X155750000Y-124000000D03*
X225600000Y-132200000D03*
X235696212Y-127162995D03*
X195250000Y-124950000D03*
X130900000Y-147450000D03*
X248700000Y-126700000D03*
X187700000Y-121900000D03*
X256300000Y-103550000D03*
X225600000Y-131300000D03*
X202400000Y-124900000D03*
X199100000Y-139925000D03*
X176019493Y-132644597D03*
X224292134Y-136810538D03*
X139100000Y-107050000D03*
X156300000Y-143900000D03*
X132924500Y-114500000D03*
X213400000Y-124950000D03*
X202075000Y-141375000D03*
X164974082Y-134449995D03*
X175650000Y-120200000D03*
X151837087Y-118289330D03*
X232950000Y-134250000D03*
X216200000Y-134150497D03*
X260135317Y-131199938D03*
X183641467Y-132013067D03*
X256500000Y-113200000D03*
X176550000Y-130118885D03*
X163927616Y-113496219D03*
X219900000Y-126700000D03*
X245300000Y-130600000D03*
X242700000Y-131500000D03*
X209150000Y-124950000D03*
X169349502Y-112947236D03*
X124100000Y-110950000D03*
X170493205Y-112266023D03*
X177246073Y-102087607D03*
X144350000Y-147650000D03*
X178400000Y-128559385D03*
X179847938Y-113832936D03*
X175300000Y-114250000D03*
X133550000Y-108200000D03*
X246700000Y-143100000D03*
X197750000Y-117200000D03*
X173830466Y-104734962D03*
X168799446Y-128424306D03*
X223000000Y-132200000D03*
X175650000Y-112350000D03*
X128450000Y-147500000D03*
X188750000Y-112600000D03*
X223000000Y-130400000D03*
X246681149Y-128131383D03*
X145225500Y-110544722D03*
X167000000Y-125900000D03*
X177500000Y-120400000D03*
X249087060Y-135160643D03*
X253580500Y-104900000D03*
X168100000Y-104000000D03*
X127763067Y-114558533D03*
X128567071Y-98428075D03*
X228900000Y-126700000D03*
X172083408Y-110067089D03*
X131200000Y-99150000D03*
X226990593Y-127947154D03*
X173200000Y-119700000D03*
X181300000Y-134500000D03*
X235500000Y-109800000D03*
X136050000Y-108200000D03*
X162067822Y-119660434D03*
X215900000Y-116950000D03*
X169367519Y-117081755D03*
X184000000Y-124950000D03*
X176943740Y-102771045D03*
X188158533Y-121386933D03*
X144950000Y-114799503D03*
X152700000Y-122600000D03*
X221800000Y-135000000D03*
X152741840Y-121141840D03*
X176100000Y-131407570D03*
X222467089Y-103433408D03*
X182217500Y-100017500D03*
X183380594Y-130375292D03*
X256000000Y-128200000D03*
X239400000Y-126700000D03*
X226247147Y-109211319D03*
X241292641Y-128177379D03*
X143300000Y-134050000D03*
X133500000Y-129650000D03*
X221344742Y-133145304D03*
X182275000Y-108427660D03*
X157131714Y-146699500D03*
X128351619Y-108221774D03*
X145050000Y-134025000D03*
X134800000Y-104074500D03*
X214225000Y-144050000D03*
X183122238Y-102024300D03*
X179800000Y-100100000D03*
X195475000Y-140550000D03*
X257300000Y-129100000D03*
X223448909Y-134576874D03*
X214650000Y-124950000D03*
X243600000Y-129700000D03*
X224800000Y-130400000D03*
X158015470Y-119681207D03*
X242700000Y-132400000D03*
X224800000Y-131300000D03*
X138450000Y-106324500D03*
X172600000Y-122600000D03*
X240500000Y-130375500D03*
X178780300Y-113044840D03*
X175500000Y-113350000D03*
X190225000Y-134550000D03*
X237600000Y-129900000D03*
X212765097Y-120157549D03*
X148350000Y-110650000D03*
X148050000Y-103975000D03*
X221663665Y-127939942D03*
X142150000Y-147650000D03*
X203400000Y-141350000D03*
X214950000Y-114000000D03*
X139175000Y-108825000D03*
X203650000Y-124900000D03*
X183950000Y-115750000D03*
X179800000Y-103700000D03*
X127050000Y-111750000D03*
X183100000Y-112800000D03*
X249509975Y-130938534D03*
X266204977Y-114245023D03*
X244500000Y-131500000D03*
X142950000Y-135950000D03*
X239250500Y-134975500D03*
X200625000Y-140750000D03*
X170650000Y-109200000D03*
X265400000Y-114500000D03*
X174200000Y-119800000D03*
X176500000Y-103436100D03*
X199200000Y-123150000D03*
X175550000Y-121839500D03*
X128500000Y-99300000D03*
X262351367Y-129876776D03*
X130650000Y-110450000D03*
X270100000Y-129950000D03*
X171300000Y-111315100D03*
X187600000Y-119800000D03*
X132050000Y-114500000D03*
X199200000Y-119800000D03*
X173650000Y-105600000D03*
X130650000Y-107950000D03*
X172673680Y-104223681D03*
X182750000Y-120000000D03*
X194000000Y-115950000D03*
X175703182Y-119402268D03*
X206600000Y-119850000D03*
X212050000Y-119800000D03*
X176050000Y-117250000D03*
X257550000Y-110000000D03*
X187550000Y-112600000D03*
X179200000Y-116400000D03*
X256100000Y-139900000D03*
X252775500Y-129900000D03*
X186275000Y-111125000D03*
X179150000Y-115500000D03*
X182600000Y-113600000D03*
X179600000Y-114631000D03*
X182381089Y-112159153D03*
X192300000Y-145300000D03*
X242000000Y-128550000D03*
X156250000Y-145700000D03*
X192000000Y-144450000D03*
X220700000Y-134900000D03*
X193500000Y-145550000D03*
X234750000Y-142650000D03*
X234750000Y-141900000D03*
X156250000Y-146650000D03*
X156250000Y-144800000D03*
X222350000Y-128350000D03*
X240066118Y-134868377D03*
X234750000Y-141100000D03*
X226300000Y-128350000D03*
X136150000Y-102100000D03*
X146900000Y-108550000D03*
X144950000Y-114000000D03*
X127100000Y-107650000D03*
X126100000Y-110550000D03*
X127800000Y-109600000D03*
X138146451Y-109650000D03*
X138150000Y-108750000D03*
X127800000Y-108800497D03*
X134086672Y-112752856D03*
X141600000Y-114250000D03*
X137100000Y-113450000D03*
X161150000Y-133800000D03*
X175122564Y-108962775D03*
X186433160Y-104633160D03*
X192302411Y-104224761D03*
X190900000Y-99500000D03*
X193137804Y-100108416D03*
X177500000Y-121250000D03*
X175204675Y-116190272D03*
X194377952Y-98820655D03*
X254100000Y-106800000D03*
X255914939Y-115234859D03*
X191702762Y-98577473D03*
X182300000Y-102069800D03*
X192984366Y-103419737D03*
X134900000Y-116950000D03*
X166800000Y-108700000D03*
X136750000Y-116000000D03*
X164450000Y-110050000D03*
X144900000Y-117700000D03*
X169400000Y-121300000D03*
X127650000Y-115350000D03*
X149344505Y-119088620D03*
X220800000Y-129375997D03*
X181171726Y-109601908D03*
X245758474Y-134347175D03*
X172634666Y-120265334D03*
X225889500Y-134151092D03*
X232600000Y-124900000D03*
X229557080Y-134397583D03*
X174479265Y-114213410D03*
X232600000Y-118400000D03*
X240130430Y-129666541D03*
X183003725Y-108062595D03*
X248312500Y-134962500D03*
X222450000Y-104250000D03*
X237300000Y-104250000D03*
X174623056Y-113426944D03*
X173175655Y-116756289D03*
X172900000Y-110050000D03*
X170550000Y-107350000D03*
X170650000Y-113050000D03*
X164000000Y-112700000D03*
X164100000Y-125750000D03*
X169200000Y-113800000D03*
X163300497Y-125750000D03*
X169200000Y-116300000D03*
X234900000Y-109250000D03*
X175200000Y-106700000D03*
X234950000Y-127450000D03*
X240645023Y-132645023D03*
X225450000Y-109150000D03*
X220900000Y-132424500D03*
X217800000Y-127550000D03*
X175215934Y-108128590D03*
X248876358Y-130282245D03*
X176400000Y-102100000D03*
X175750000Y-107464209D03*
X230450000Y-108750000D03*
X177414227Y-127335326D03*
X161400000Y-120100000D03*
X160150000Y-108700000D03*
X160700000Y-111200000D03*
X177349802Y-129913081D03*
X158275000Y-118925000D03*
X159900000Y-118930000D03*
X179200000Y-129010500D03*
X176577370Y-132071903D03*
X154900000Y-123950000D03*
X188950000Y-121500000D03*
X182850000Y-131900000D03*
X183500000Y-133250000D03*
X175400000Y-133150000D03*
X152800000Y-120250000D03*
X191650000Y-121900000D03*
X152510265Y-118720648D03*
X227450634Y-140215190D03*
X249200000Y-131675500D03*
X155250000Y-140100000D03*
X150700000Y-130700000D03*
X238316840Y-127933160D03*
X186950000Y-121500000D03*
X156250000Y-118600000D03*
X176750000Y-130900000D03*
X182650000Y-130700000D03*
X157450000Y-135900000D03*
X226550000Y-139400000D03*
X229150000Y-135300000D03*
X227866378Y-131704452D03*
X247490109Y-131841745D03*
X158400000Y-135050000D03*
X241210026Y-137443773D03*
X243100000Y-135300000D03*
X162950000Y-135400000D03*
X244588659Y-135285567D03*
X224828497Y-134833167D03*
X223706452Y-135392345D03*
X223500000Y-136950000D03*
X164200000Y-134650000D03*
X228711037Y-129252981D03*
X181733031Y-109032575D03*
X248400000Y-129600000D03*
X183608160Y-107458160D03*
X200500000Y-146900000D03*
X210125000Y-144075000D03*
X219100000Y-134200000D03*
X220749500Y-133741128D03*
X238400000Y-135100000D03*
X241755707Y-134638447D03*
X145300000Y-137700000D03*
X159400000Y-137900000D03*
X145300000Y-139400000D03*
X159400000Y-139100000D03*
D91*
X212050000Y-119800000D02*
X212050000Y-118575000D01*
D92*
X230200000Y-130420000D02*
X230113787Y-130420000D01*
D91*
X184775000Y-127225000D02*
X188000000Y-127225000D01*
X184400000Y-127600000D02*
X184775000Y-127225000D01*
X184400000Y-127600000D02*
X184450000Y-127550000D01*
D92*
X184410000Y-102710000D02*
X181041200Y-102710000D01*
D93*
X234750000Y-141900000D02*
X237700000Y-141900000D01*
X234750000Y-141900000D02*
X231900000Y-141900000D01*
D92*
X233200000Y-130350000D02*
X232750000Y-130800000D01*
X232750000Y-130800000D02*
X230780000Y-130800000D01*
X230780000Y-130800000D02*
X230330000Y-131250000D01*
X227497467Y-131100000D02*
X227297467Y-131300000D01*
X230330000Y-131250000D02*
X228900000Y-131250000D01*
X227297467Y-131300000D02*
X226750000Y-131300000D01*
X228900000Y-131250000D02*
X228750000Y-131100000D01*
X228750000Y-131100000D02*
X227497467Y-131100000D01*
X230200000Y-130420000D02*
X229550000Y-130420000D01*
X229550000Y-130420000D02*
X229335260Y-130634740D01*
X229335260Y-130634740D02*
X227425325Y-130634740D01*
X227425325Y-130634740D02*
X227260065Y-130800000D01*
X227260065Y-130800000D02*
X226750000Y-130800000D01*
D94*
X243500000Y-128550000D02*
X243500000Y-118025000D01*
X243500000Y-118025000D02*
X242750000Y-117275000D01*
X244500000Y-121300000D02*
X244500000Y-128550000D01*
X245250000Y-120550000D02*
X244500000Y-121300000D01*
X245250000Y-117275000D02*
X245250000Y-120550000D01*
X245000000Y-128550000D02*
X245000000Y-126925000D01*
X245000000Y-126925000D02*
X245737500Y-126187500D01*
X245737500Y-126187500D02*
X245737500Y-124900000D01*
D95*
X192450000Y-131700000D02*
X192450000Y-126900000D01*
X192450000Y-126900000D02*
X192500000Y-126850000D01*
D96*
X257000000Y-111772500D02*
X255972500Y-111772500D01*
X255972500Y-111772500D02*
X255525000Y-111325000D01*
X255525000Y-111325000D02*
X254700000Y-111325000D01*
D95*
X192450000Y-131700000D02*
X192450000Y-133100000D01*
X192450000Y-133100000D02*
X192500000Y-133150000D01*
D96*
X166980000Y-134600000D02*
X166980000Y-135370000D01*
X166980000Y-135370000D02*
X166975000Y-135375000D01*
D92*
X227770830Y-131800000D02*
X226750000Y-131800000D01*
X227866378Y-131704452D02*
X227770830Y-131800000D01*
D96*
X227950000Y-132520000D02*
X227795000Y-132520000D01*
X227795000Y-132520000D02*
X227575000Y-132300000D01*
X227575000Y-132300000D02*
X226750000Y-132300000D01*
D94*
X138450000Y-106970000D02*
X139020000Y-106970000D01*
X139020000Y-106970000D02*
X139100000Y-107050000D01*
X138450000Y-106324500D02*
X138450000Y-106970000D01*
D91*
X138450000Y-106324500D02*
X139100000Y-106974500D01*
X139100000Y-106974500D02*
X139100000Y-107050000D01*
D92*
X183003725Y-108062595D02*
X182779290Y-107838160D01*
X182779290Y-107838160D02*
X181611840Y-107838160D01*
X181611840Y-107838160D02*
X181315200Y-108134800D01*
X181315200Y-108134800D02*
X179821000Y-108134800D01*
X183608160Y-107458160D02*
X179837240Y-107458160D01*
X179837240Y-107458160D02*
X179821000Y-107474400D01*
X152510265Y-118720648D02*
X152550000Y-118680913D01*
X152550000Y-118680913D02*
X152550000Y-118050000D01*
X152550000Y-118050000D02*
X152080000Y-117580000D01*
X152080000Y-117580000D02*
X150600000Y-117580000D01*
D95*
X240066118Y-134868377D02*
X240066118Y-134416118D01*
X240066118Y-134416118D02*
X239500000Y-133850000D01*
X239500000Y-133850000D02*
X239500000Y-133480000D01*
D92*
X190900000Y-99500000D02*
X190700000Y-99500000D01*
X190700000Y-99500000D02*
X189900000Y-98700000D01*
X189900000Y-98700000D02*
X186100000Y-98700000D01*
X186100000Y-98700000D02*
X183365200Y-101434800D01*
X183365200Y-101434800D02*
X181021000Y-101434800D01*
X191702762Y-98577473D02*
X191702762Y-98490117D01*
X191702762Y-98490117D02*
X191012645Y-97800000D01*
X191012645Y-97800000D02*
X185600000Y-97800000D01*
X185600000Y-97800000D02*
X183890000Y-99510000D01*
X183890000Y-100194387D02*
X183309987Y-100774400D01*
X183890000Y-99510000D02*
X183890000Y-100194387D01*
X183309987Y-100774400D02*
X181021000Y-100774400D01*
X176577370Y-132071903D02*
X176655467Y-132150000D01*
X176655467Y-132150000D02*
X182600000Y-132150000D01*
X182600000Y-132150000D02*
X182850000Y-131900000D01*
X191650000Y-121900000D02*
X191700000Y-121950000D01*
X191700000Y-121950000D02*
X200500000Y-121950000D01*
X200500000Y-121950000D02*
X201095000Y-122545000D01*
X201095000Y-122545000D02*
X201095000Y-123470000D01*
X253085000Y-115599180D02*
X253085000Y-117797500D01*
X193137804Y-100108416D02*
X193146220Y-100100000D01*
X193146220Y-100100000D02*
X246000000Y-100100000D01*
X246000000Y-100100000D02*
X253100000Y-107200000D01*
X253100000Y-107200000D02*
X253100000Y-115584180D01*
X253100000Y-115584180D02*
X253085000Y-115599180D01*
X253085000Y-117797500D02*
X254562500Y-119275000D01*
X175400000Y-133150000D02*
X175650000Y-133400000D01*
X175650000Y-133400000D02*
X183350000Y-133400000D01*
X183350000Y-133400000D02*
X183500000Y-133250000D01*
D93*
X197000000Y-127225000D02*
X192875000Y-127225000D01*
D91*
X247184068Y-132620000D02*
X247700000Y-132620000D01*
D92*
X222765116Y-134300000D02*
X223300000Y-133765116D01*
D91*
X151075000Y-143075000D02*
X148450000Y-140450000D01*
D95*
X145890000Y-106960000D02*
X146775000Y-106075000D01*
D91*
X138450000Y-108030000D02*
X140545000Y-108030000D01*
D94*
X255600000Y-104100000D02*
X255600000Y-104780000D01*
D91*
X158450000Y-146850000D02*
X158450000Y-144600000D01*
D94*
X181165115Y-127934885D02*
X181541840Y-127558160D01*
D92*
X255300000Y-137600000D02*
X255300000Y-137610000D01*
D94*
X256250000Y-136650000D02*
X255300000Y-137600000D01*
X256250000Y-134150000D02*
X256250000Y-136650000D01*
D96*
X131450000Y-111512081D02*
X130902081Y-112060000D01*
D94*
X226838887Y-132844568D02*
X226838887Y-132388887D01*
D91*
X182200000Y-144850000D02*
X186750000Y-140300000D01*
D94*
X218200000Y-142950000D02*
X218200000Y-136950000D01*
D93*
X188000000Y-127225000D02*
X192125000Y-127225000D01*
D91*
X246734292Y-133069776D02*
X247184068Y-132620000D01*
X171350000Y-147200000D02*
X170700000Y-147850000D01*
X135800000Y-103924500D02*
X135800000Y-104640000D01*
D95*
X147275000Y-106150000D02*
X147200000Y-106075000D01*
D94*
X219000000Y-143750000D02*
X218200000Y-142950000D01*
D91*
X173800000Y-144850000D02*
X182200000Y-144850000D01*
D95*
X146775000Y-106075000D02*
X147200000Y-106075000D01*
D94*
X246734292Y-132784292D02*
X246450000Y-132500000D01*
D96*
X130902081Y-112060000D02*
X129700000Y-112060000D01*
D92*
X255300000Y-137610000D02*
X255890000Y-138200000D01*
D91*
X138370000Y-107950000D02*
X138450000Y-108030000D01*
X186750000Y-137550000D02*
X188000000Y-136300000D01*
D94*
X242200000Y-143150000D02*
X241600000Y-143750000D01*
D91*
X168300000Y-127800000D02*
X168180000Y-127680000D01*
D95*
X145890000Y-107600000D02*
X145890000Y-106960000D01*
D91*
X145900000Y-128200000D02*
X145850000Y-128150000D01*
X137250000Y-108450000D02*
X137250000Y-107950000D01*
X137250000Y-108450000D02*
X137670000Y-108030000D01*
D92*
X262500000Y-123400000D02*
X262500000Y-124130000D01*
D95*
X150600000Y-106150000D02*
X147275000Y-106150000D01*
D91*
X188000000Y-136300000D02*
X188000000Y-135210500D01*
D93*
X192875000Y-127225000D02*
X192500000Y-126850000D01*
D94*
X226838887Y-132388887D02*
X226750000Y-132300000D01*
X242200000Y-141650000D02*
X242200000Y-143150000D01*
D95*
X166242500Y-127680000D02*
X167300000Y-127680000D01*
D91*
X145890000Y-109900000D02*
X145900000Y-109910000D01*
X145900000Y-109910000D02*
X145900000Y-123550000D01*
X145890000Y-109900000D02*
X145890000Y-107600000D01*
X148450000Y-132850000D02*
X145900000Y-130300000D01*
D94*
X246300000Y-137550000D02*
X242200000Y-141650000D01*
X247580000Y-132500000D02*
X247700000Y-132620000D01*
D91*
X140545000Y-108030000D02*
X140600000Y-107975000D01*
X141350000Y-109500000D02*
X141350000Y-108725000D01*
D95*
X165950000Y-127387500D02*
X166242500Y-127680000D01*
D94*
X246900000Y-132500000D02*
X247580000Y-132500000D01*
X241600000Y-143750000D02*
X219000000Y-143750000D01*
X177865115Y-127934885D02*
X181165115Y-127934885D01*
D91*
X141350000Y-108725000D02*
X140600000Y-107975000D01*
X137250000Y-107950000D02*
X138370000Y-107950000D01*
X137670000Y-108030000D02*
X138450000Y-108030000D01*
X159450000Y-147850000D02*
X158450000Y-146850000D01*
D92*
X223300000Y-133765116D02*
X223300000Y-133250000D01*
D94*
X259350000Y-131050000D02*
X256250000Y-134150000D01*
X218200000Y-136950000D02*
X216200000Y-134950000D01*
D96*
X131450000Y-107400000D02*
X131450000Y-111512081D01*
D92*
X262500000Y-120600000D02*
X262500000Y-121367500D01*
X222500000Y-134300000D02*
X222765116Y-134300000D01*
D91*
X186750000Y-140300000D02*
X186750000Y-137550000D01*
X156925000Y-143075000D02*
X151075000Y-143075000D01*
D94*
X249850000Y-137550000D02*
X246300000Y-137550000D01*
D91*
X170700000Y-147850000D02*
X159450000Y-147850000D01*
D94*
X246734292Y-132665708D02*
X246900000Y-132500000D01*
X246450000Y-132500000D02*
X246900000Y-132500000D01*
D96*
X131900000Y-106950000D02*
X131450000Y-107400000D01*
D91*
X158450000Y-144600000D02*
X156925000Y-143075000D01*
X145900000Y-130300000D02*
X145900000Y-128200000D01*
D94*
X177411472Y-128388528D02*
X177865115Y-127934885D01*
D91*
X148450000Y-140450000D02*
X148450000Y-132850000D01*
D94*
X246734292Y-133069776D02*
X246734292Y-132665708D01*
X246734292Y-133069776D02*
X246734292Y-132784292D01*
D93*
X192125000Y-127225000D02*
X192500000Y-126850000D01*
D91*
X168180000Y-127680000D02*
X167300000Y-127680000D01*
D94*
X243267519Y-134518245D02*
X243500000Y-134285764D01*
D95*
X167000000Y-125900000D02*
X167520000Y-125900000D01*
X246780000Y-127350000D02*
X247150000Y-127350000D01*
D91*
X257156250Y-118956250D02*
X257462500Y-118650000D01*
X180057000Y-110961600D02*
X180618600Y-110400000D01*
X139575000Y-103825000D02*
X139600000Y-103800000D01*
D95*
X123575000Y-111375000D02*
X123000000Y-110800000D01*
D91*
X176180000Y-105600000D02*
X176700000Y-105600000D01*
D95*
X228900000Y-123100000D02*
X228900000Y-124912500D01*
X181750000Y-112650000D02*
X181750000Y-115400000D01*
X130975000Y-129550000D02*
X130977500Y-129552500D01*
X143125000Y-142800000D02*
X143625000Y-142800000D01*
X188750000Y-112600000D02*
X188750000Y-113850000D01*
X197000000Y-130200000D02*
X196625000Y-129825000D01*
X123575000Y-111475000D02*
X123575000Y-111375000D01*
D91*
X172600000Y-122600000D02*
X173460000Y-122600000D01*
D94*
X256900000Y-103900000D02*
X257300000Y-103500000D01*
D91*
X157850000Y-112600000D02*
X157850000Y-114000000D01*
X157850000Y-111200000D02*
X157850000Y-112600000D01*
D95*
X220750000Y-127150000D02*
X221470000Y-127150000D01*
X243900000Y-141900000D02*
X246700000Y-141900000D01*
X181750000Y-116330000D02*
X181680000Y-116400000D01*
D93*
X196000000Y-141500000D02*
X193500000Y-141500000D01*
D94*
X253600000Y-133300000D02*
X254030000Y-133300000D01*
X255810000Y-127410000D02*
X255810000Y-128010000D01*
D91*
X179800000Y-100100000D02*
X181007000Y-100100000D01*
D95*
X207865000Y-124935000D02*
X207850000Y-124950000D01*
X226990593Y-127947154D02*
X226990593Y-127160593D01*
D94*
X253600000Y-133300000D02*
X253600000Y-134450000D01*
D95*
X214635000Y-123470000D02*
X214635000Y-124935000D01*
X130850000Y-147500000D02*
X130900000Y-147450000D01*
D91*
X180695400Y-103700000D02*
X181021000Y-104025600D01*
D95*
X197500000Y-112600000D02*
X197500000Y-113850000D01*
X214635000Y-124935000D02*
X214650000Y-124950000D01*
D94*
X256900000Y-104150000D02*
X256900000Y-104340000D01*
D92*
X138937500Y-98325000D02*
X137200000Y-98325000D01*
D95*
X247600000Y-124900000D02*
X248662500Y-124900000D01*
X219900000Y-123100000D02*
X219900000Y-124912500D01*
X204905000Y-117105000D02*
X204700000Y-116900000D01*
D94*
X227224695Y-133544822D02*
X227835178Y-133544822D01*
D95*
X196480000Y-124930000D02*
X196500000Y-124950000D01*
D91*
X134800000Y-104074500D02*
X134800000Y-104640000D01*
X138600000Y-103825000D02*
X139575000Y-103825000D01*
D97*
X138130653Y-110449497D02*
X138149500Y-110449497D01*
D93*
X152500000Y-136800000D02*
X152500000Y-139500000D01*
D91*
X156450000Y-114000000D02*
X159250000Y-114000000D01*
D95*
X123450000Y-110800000D02*
X123850000Y-111200000D01*
X197000000Y-128775000D02*
X197000000Y-129450000D01*
X123850000Y-111200000D02*
X124100000Y-110950000D01*
D94*
X243500000Y-134285764D02*
X243500000Y-133450000D01*
D95*
X214950000Y-114000000D02*
X214255000Y-114000000D01*
D91*
X182121000Y-100114000D02*
X182217500Y-100017500D01*
D94*
X256300000Y-103550000D02*
X256900000Y-104150000D01*
D91*
X179180000Y-120380000D02*
X179500000Y-120700000D01*
D95*
X143625000Y-142800000D02*
X144200000Y-142225000D01*
D91*
X181021000Y-100114000D02*
X182121000Y-100114000D01*
D95*
X178400000Y-143100000D02*
X179262500Y-143100000D01*
D97*
X137631156Y-109950000D02*
X138130653Y-110449497D01*
D92*
X126900000Y-112450000D02*
X127400000Y-112950000D01*
D95*
X148050000Y-103975000D02*
X148955000Y-104880000D01*
D96*
X174050000Y-118900000D02*
X173180000Y-118900000D01*
D91*
X174930000Y-112350000D02*
X174880000Y-112300000D01*
D95*
X239400000Y-124937500D02*
X239437500Y-124900000D01*
X219900000Y-124912500D02*
X219937500Y-124950000D01*
X187470000Y-116750000D02*
X187250000Y-116750000D01*
X167680000Y-126720000D02*
X168000000Y-126400000D01*
X162000000Y-126200000D02*
X162000000Y-127337500D01*
X219900000Y-126700000D02*
X219900000Y-124987500D01*
X228900000Y-124912500D02*
X228862500Y-124950000D01*
X145150000Y-142975000D02*
X144950000Y-142975000D01*
X182800000Y-115750000D02*
X182770000Y-115720000D01*
D91*
X180618600Y-110400000D02*
X180750000Y-110400000D01*
D95*
X167500000Y-126400000D02*
X167000000Y-125900000D01*
X215900000Y-116950000D02*
X215900000Y-118525000D01*
X197750000Y-117200000D02*
X197750000Y-118530000D01*
D94*
X220924500Y-130300000D02*
X221850000Y-130300000D01*
X223800000Y-130300000D02*
X224300000Y-130800000D01*
D95*
X162000000Y-127337500D02*
X162050000Y-127387500D01*
X202850000Y-112600000D02*
X202850000Y-113845000D01*
X123000000Y-112000000D02*
X123050000Y-112000000D01*
D94*
X237600000Y-129900000D02*
X237600000Y-130825000D01*
D95*
X202850000Y-113845000D02*
X202855000Y-113850000D01*
X246700000Y-143100000D02*
X246700000Y-141900000D01*
D91*
X180064000Y-111386000D02*
X180650000Y-110800000D01*
D95*
X168000000Y-126400000D02*
X167720000Y-126120000D01*
X197000000Y-130275000D02*
X197475000Y-129800000D01*
D91*
X257400000Y-119500000D02*
X257156250Y-119256250D01*
X126000000Y-105270000D02*
X125670000Y-105270000D01*
X148850000Y-104412500D02*
X148850000Y-104490000D01*
D95*
X213300000Y-144025000D02*
X213275000Y-144050000D01*
X221000000Y-125000000D02*
X220950000Y-124950000D01*
X181300000Y-134500000D02*
X180970000Y-134500000D01*
D91*
X255862500Y-118762500D02*
X256500000Y-119400000D01*
X257156250Y-119256250D02*
X257156250Y-118956250D01*
X149000000Y-104925000D02*
X149000000Y-105120000D01*
D96*
X174100000Y-118850000D02*
X174050000Y-118900000D01*
D92*
X161326320Y-141560000D02*
X161358160Y-141591840D01*
D95*
X192670000Y-117100000D02*
X192970000Y-116800000D01*
D91*
X148850000Y-104490000D02*
X149240000Y-104880000D01*
D95*
X214225000Y-144050000D02*
X213275000Y-144050000D01*
D94*
X238290000Y-129500000D02*
X238000000Y-129500000D01*
D97*
X137250000Y-109950000D02*
X137631156Y-109950000D01*
D94*
X252700000Y-134600000D02*
X253450000Y-134600000D01*
D95*
X246700000Y-140700000D02*
X246700000Y-141900000D01*
D91*
X181800000Y-103700000D02*
X181000000Y-103700000D01*
D95*
X143250000Y-148300000D02*
X143250000Y-147650000D01*
D91*
X157150000Y-111200000D02*
X157850000Y-111200000D01*
D92*
X249443186Y-130871745D02*
X249509975Y-130938534D01*
D95*
X187250000Y-116750000D02*
X186850000Y-117150000D01*
X147200000Y-103125000D02*
X148050000Y-103975000D01*
D91*
X177686923Y-117986000D02*
X177152516Y-118520407D01*
D95*
X189600000Y-122150000D02*
X189600000Y-123455000D01*
X149400000Y-104400000D02*
X148475000Y-104400000D01*
X142150000Y-147650000D02*
X143250000Y-147650000D01*
D98*
X140600000Y-105025000D02*
X140600000Y-103800000D01*
D95*
X198750000Y-126775000D02*
X198750000Y-127712500D01*
X227700000Y-127150000D02*
X226980000Y-127150000D01*
D92*
X251655252Y-130520000D02*
X250400000Y-130520000D01*
D96*
X124750000Y-111060000D02*
X124210000Y-111060000D01*
D95*
X143175000Y-135950000D02*
X144200000Y-134925000D01*
D91*
X175650000Y-120200000D02*
X175830000Y-120380000D01*
D95*
X228900000Y-126700000D02*
X228900000Y-124987500D01*
D91*
X179500000Y-120700000D02*
X180210000Y-120700000D01*
D94*
X220800000Y-130175500D02*
X220924500Y-130300000D01*
D91*
X181007000Y-100100000D02*
X181021000Y-100114000D01*
D95*
X205370000Y-116900000D02*
X205520000Y-116750000D01*
X197000000Y-130950000D02*
X197000000Y-130275000D01*
X133450000Y-129600000D02*
X133500000Y-129650000D01*
D98*
X140600000Y-103800000D02*
X139600000Y-103800000D01*
D95*
X202200000Y-116700000D02*
X202550000Y-116350000D01*
X197000000Y-129450000D02*
X196625000Y-129825000D01*
D94*
X256000000Y-128200000D02*
X257285000Y-128200000D01*
D95*
X226990593Y-127160593D02*
X226980000Y-127150000D01*
D94*
X254810000Y-114762500D02*
X255337500Y-114762500D01*
D95*
X241292641Y-128092641D02*
X241200000Y-128000000D01*
D91*
X169300000Y-139700000D02*
X169300000Y-138980000D01*
X179800000Y-103700000D02*
X180695400Y-103700000D01*
D96*
X124210000Y-111060000D02*
X124100000Y-110950000D01*
D95*
X182450000Y-115400000D02*
X182770000Y-115720000D01*
X128500000Y-129550000D02*
X130975000Y-129550000D01*
X249500000Y-141900000D02*
X246700000Y-141900000D01*
D94*
X217900000Y-130425000D02*
X218000000Y-130525000D01*
X232950000Y-134250000D02*
X231962500Y-134250000D01*
D95*
X197000000Y-130950000D02*
X197000000Y-128775000D01*
D91*
X142050000Y-105025000D02*
X140600000Y-105025000D01*
D95*
X227750000Y-124950000D02*
X228862500Y-124950000D01*
X123575000Y-111475000D02*
X123850000Y-111200000D01*
D94*
X255600000Y-113250000D02*
X255650000Y-113200000D01*
D91*
X159250000Y-112600000D02*
X159250000Y-114000000D01*
D95*
X161937500Y-127400000D02*
X162000000Y-127337500D01*
D91*
X181893569Y-103700000D02*
X182211116Y-104017547D01*
D92*
X160650000Y-141560000D02*
X161326320Y-141560000D01*
D91*
X173460000Y-122600000D02*
X173500000Y-122640000D01*
D93*
X198500000Y-141500000D02*
X196000000Y-141500000D01*
D95*
X209135000Y-124935000D02*
X209150000Y-124950000D01*
D94*
X238000000Y-129500000D02*
X237600000Y-129900000D01*
D95*
X123000000Y-112000000D02*
X123000000Y-110800000D01*
D94*
X243267519Y-134518245D02*
X243000000Y-134250726D01*
D91*
X176700000Y-105600000D02*
X176900000Y-105400000D01*
X177810100Y-116700000D02*
X177844900Y-116665200D01*
X181000000Y-106850000D02*
X179857000Y-106850000D01*
D95*
X179262500Y-143100000D02*
X179362500Y-143200000D01*
D91*
X180057000Y-111150000D02*
X180057000Y-110961600D01*
X179821000Y-111386000D02*
X180064000Y-111386000D01*
D95*
X196480000Y-123470000D02*
X196480000Y-124930000D01*
X197000000Y-130950000D02*
X197000000Y-130200000D01*
D91*
X176900000Y-105520000D02*
X176900000Y-105400000D01*
D95*
X221470000Y-127150000D02*
X221470000Y-127746277D01*
X144350000Y-147650000D02*
X143250000Y-147650000D01*
X184015000Y-123470000D02*
X184015000Y-124935000D01*
X215900000Y-118525000D02*
X215905000Y-118530000D01*
X204700000Y-116900000D02*
X205370000Y-116900000D01*
X239500000Y-123100000D02*
X239500000Y-124837500D01*
D91*
X180155800Y-110400000D02*
X180146600Y-110400000D01*
D95*
X123050000Y-112000000D02*
X123575000Y-111475000D01*
X248700000Y-124862500D02*
X248662500Y-124900000D01*
X197000000Y-129325000D02*
X197475000Y-129800000D01*
X142800000Y-140000000D02*
X142900000Y-140100000D01*
X168100000Y-104000000D02*
X168100000Y-104880000D01*
X210870000Y-116900000D02*
X211020000Y-116750000D01*
D91*
X257462500Y-119437500D02*
X257400000Y-119500000D01*
X149400000Y-104400000D02*
X149387500Y-104412500D01*
D95*
X222900000Y-143100000D02*
X222900000Y-140700000D01*
D96*
X148350000Y-109800000D02*
X148400000Y-109750000D01*
D91*
X176200000Y-105600000D02*
X176800000Y-106200000D01*
D94*
X246911223Y-133849456D02*
X247430544Y-133849456D01*
D91*
X180700000Y-110800000D02*
X180650000Y-110800000D01*
X167475000Y-139135000D02*
X169145000Y-139135000D01*
X156450000Y-112600000D02*
X156450000Y-114000000D01*
D92*
X144937500Y-99232500D02*
X145337500Y-99632500D01*
D91*
X180210000Y-120700000D02*
X180400000Y-120890000D01*
D93*
X200550000Y-142050000D02*
X200000000Y-141500000D01*
D91*
X181050000Y-111150000D02*
X180700000Y-110800000D01*
D95*
X239500000Y-124837500D02*
X239437500Y-124900000D01*
X220100000Y-141900000D02*
X222900000Y-141900000D01*
D91*
X160700000Y-132090000D02*
X160700000Y-131350000D01*
X180057000Y-111150000D02*
X179821000Y-110914000D01*
D96*
X123000000Y-110800000D02*
X123950000Y-110800000D01*
D94*
X241550000Y-130500000D02*
X240624500Y-130500000D01*
X218200000Y-129100000D02*
X217900000Y-129400000D01*
D95*
X166900000Y-104900000D02*
X168080000Y-104900000D01*
X204905000Y-118530000D02*
X204905000Y-117105000D01*
D91*
X179821000Y-111386000D02*
X179821000Y-110914000D01*
X178500000Y-120380000D02*
X179180000Y-120380000D01*
D95*
X210405000Y-117005000D02*
X210300000Y-116900000D01*
X247150000Y-127350000D02*
X247415967Y-127084033D01*
D91*
X156450000Y-111200000D02*
X157150000Y-111200000D01*
D92*
X250700000Y-134187500D02*
X250700000Y-135100000D01*
D95*
X150600000Y-104880000D02*
X149880000Y-104880000D01*
X153700000Y-122705000D02*
X153635000Y-122640000D01*
X153595000Y-122600000D02*
X153635000Y-122640000D01*
D92*
X223800000Y-134225783D02*
X223800000Y-133250000D01*
D98*
X140600000Y-105025000D02*
X139400000Y-103825000D01*
D95*
X220950000Y-124950000D02*
X219937500Y-124950000D01*
X167000000Y-126420000D02*
X167300000Y-126720000D01*
D93*
X200000000Y-141500000D02*
X198500000Y-141500000D01*
D94*
X255600000Y-114500000D02*
X255600000Y-113250000D01*
D95*
X186555000Y-117445000D02*
X186850000Y-117150000D01*
X190850000Y-122100000D02*
X190850000Y-123435000D01*
X202365000Y-123470000D02*
X202365000Y-124865000D01*
D91*
X180686200Y-103700000D02*
X181021000Y-103365200D01*
X175650000Y-112350000D02*
X174930000Y-112350000D01*
D92*
X223448909Y-134576874D02*
X223800000Y-134225783D01*
D93*
X200150000Y-141650000D02*
X200000000Y-141500000D01*
D95*
X248700000Y-126700000D02*
X248700000Y-124937500D01*
X214255000Y-114000000D02*
X214105000Y-113850000D01*
D91*
X150360000Y-105120000D02*
X150600000Y-104880000D01*
D96*
X126100000Y-107310000D02*
X124782500Y-107310000D01*
D95*
X181750000Y-115400000D02*
X181750000Y-116330000D01*
D92*
X137250000Y-109950000D02*
X135300000Y-109950000D01*
D91*
X157850000Y-111200000D02*
X159250000Y-111200000D01*
D92*
X127100000Y-112200000D02*
X126900000Y-112400000D01*
D91*
X156450000Y-111200000D02*
X156450000Y-112600000D01*
D95*
X190850000Y-123435000D02*
X190885000Y-123470000D01*
X181100000Y-136400000D02*
X181100000Y-135830000D01*
D91*
X180057000Y-111150000D02*
X179821000Y-111386000D01*
D95*
X167520000Y-125900000D02*
X167720000Y-125700000D01*
X144200000Y-141400000D02*
X142900000Y-140100000D01*
D92*
X225760839Y-134940175D02*
X225300000Y-134479336D01*
D91*
X176650000Y-116700000D02*
X177810100Y-116700000D01*
D95*
X214100000Y-113845000D02*
X214105000Y-113850000D01*
D91*
X177844900Y-117986000D02*
X177686923Y-117986000D01*
D94*
X253600000Y-134450000D02*
X253500000Y-134550000D01*
X256900000Y-104340000D02*
X256900000Y-103900000D01*
D92*
X127100000Y-111040000D02*
X127100000Y-110676000D01*
D91*
X124750000Y-104840000D02*
X125240000Y-104840000D01*
D95*
X239400000Y-126700000D02*
X239400000Y-124937500D01*
X205350000Y-112550000D02*
X205350000Y-113845000D01*
D91*
X180155800Y-110400000D02*
X179821000Y-110065200D01*
D94*
X257300000Y-128285000D02*
X257335000Y-128250000D01*
D95*
X184015000Y-124935000D02*
X184000000Y-124950000D01*
X168080000Y-104900000D02*
X168100000Y-104880000D01*
D92*
X246450000Y-131000000D02*
X246960065Y-131000000D01*
X144937500Y-98325000D02*
X144937500Y-99232500D01*
D93*
X152500000Y-142200000D02*
X152500000Y-139500000D01*
D91*
X176500000Y-120380000D02*
X178500000Y-120380000D01*
D95*
X186555000Y-118530000D02*
X186555000Y-117445000D01*
D91*
X257462500Y-118650000D02*
X257462500Y-119437500D01*
D95*
X123000000Y-110800000D02*
X123450000Y-110800000D01*
X167300000Y-126720000D02*
X167680000Y-126720000D01*
D91*
X150600000Y-104880000D02*
X149240000Y-104880000D01*
D95*
X183200000Y-115720000D02*
X182770000Y-115720000D01*
D92*
X137200000Y-98325000D02*
X137200000Y-99232500D01*
X177844900Y-113414000D02*
X178411140Y-113414000D01*
D95*
X192250000Y-118435000D02*
X192155000Y-118530000D01*
D92*
X245000000Y-133450000D02*
X245000000Y-134600000D01*
D95*
X241220000Y-127980000D02*
X241220000Y-127350000D01*
X240400000Y-127350000D02*
X241220000Y-127350000D01*
D91*
X125670000Y-105270000D02*
X125350000Y-104950000D01*
D96*
X123950000Y-110800000D02*
X124100000Y-110950000D01*
D94*
X255650000Y-113200000D02*
X256500000Y-113200000D01*
D95*
X139050000Y-135950000D02*
X142950000Y-135950000D01*
X144250000Y-141650000D02*
X144250000Y-141400000D01*
X144250000Y-141400000D02*
X144200000Y-141400000D01*
D94*
X263700000Y-120300000D02*
X263700000Y-120977500D01*
D92*
X126900000Y-112400000D02*
X126900000Y-112450000D01*
D95*
X142900000Y-136950000D02*
X142950000Y-137000000D01*
X192250000Y-117100000D02*
X192670000Y-117100000D01*
D94*
X218590000Y-129100000D02*
X218200000Y-129100000D01*
D95*
X202900000Y-142232500D02*
X200932500Y-142232500D01*
X201730000Y-116700000D02*
X202200000Y-116700000D01*
X167720000Y-126120000D02*
X167720000Y-125700000D01*
D91*
X175830000Y-120380000D02*
X176500000Y-120380000D01*
D95*
X248700000Y-124937500D02*
X248662500Y-124900000D01*
X139050000Y-136950000D02*
X142900000Y-136950000D01*
D94*
X253450000Y-134600000D02*
X253500000Y-134550000D01*
D91*
X176180000Y-105600000D02*
X176200000Y-105600000D01*
D95*
X143325000Y-134050000D02*
X144200000Y-134925000D01*
D91*
X169145000Y-139135000D02*
X169300000Y-138980000D01*
D95*
X153700000Y-123900000D02*
X153700000Y-122705000D01*
X186300000Y-113800000D02*
X186250000Y-113850000D01*
X210300000Y-116900000D02*
X210870000Y-116900000D01*
D91*
X181000000Y-103700000D02*
X181893569Y-103700000D01*
X174880000Y-112730000D02*
X174880000Y-112300000D01*
D95*
X248700000Y-123100000D02*
X248700000Y-124862500D01*
X185285000Y-123470000D02*
X185285000Y-124935000D01*
D94*
X255810000Y-128010000D02*
X256000000Y-128200000D01*
D95*
X197000000Y-128775000D02*
X197000000Y-129325000D01*
D94*
X217900000Y-129400000D02*
X217900000Y-130425000D01*
D95*
X161400000Y-127400000D02*
X161937500Y-127400000D01*
X185285000Y-124935000D02*
X185300000Y-124950000D01*
D91*
X173200000Y-119700000D02*
X173200000Y-118920000D01*
D94*
X256900000Y-135500000D02*
X256900000Y-135840000D01*
D91*
X149240000Y-104880000D02*
X149000000Y-105120000D01*
D95*
X200932500Y-142232500D02*
X200750000Y-142050000D01*
D94*
X257285000Y-128200000D02*
X257335000Y-128250000D01*
D95*
X202365000Y-124865000D02*
X202400000Y-124900000D01*
X144950000Y-142975000D02*
X144200000Y-142225000D01*
D91*
X256712500Y-119400000D02*
X257156250Y-118956250D01*
D92*
X246960065Y-131000000D02*
X247088321Y-130871745D01*
D95*
X168000000Y-126400000D02*
X167500000Y-126400000D01*
X246780000Y-127350000D02*
X246780000Y-128032532D01*
D92*
X137200000Y-99232500D02*
X137600000Y-99632500D01*
D95*
X192250000Y-117100000D02*
X192250000Y-118435000D01*
X148955000Y-104880000D02*
X149240000Y-104880000D01*
X142950000Y-135950000D02*
X143175000Y-135950000D01*
D91*
X125240000Y-104840000D02*
X125350000Y-104950000D01*
D94*
X247430544Y-133849456D02*
X247700000Y-133580000D01*
D92*
X251912626Y-130262626D02*
X251655252Y-130520000D01*
D95*
X145050000Y-134075000D02*
X144200000Y-134925000D01*
D91*
X175500000Y-113350000D02*
X174880000Y-112730000D01*
D94*
X243000000Y-134250726D02*
X243000000Y-133450000D01*
D91*
X179800000Y-103700000D02*
X180686200Y-103700000D01*
D93*
X153600000Y-139600000D02*
X151400000Y-139600000D01*
D92*
X127400000Y-112950000D02*
X127400000Y-113030000D01*
D91*
X180750000Y-110400000D02*
X180155800Y-110400000D01*
D92*
X127100000Y-111040000D02*
X127100000Y-112200000D01*
D91*
X170000000Y-139000000D02*
X169320000Y-139000000D01*
D95*
X131100000Y-129600000D02*
X133450000Y-129600000D01*
X214100000Y-112550000D02*
X214100000Y-113845000D01*
D94*
X240624500Y-130500000D02*
X240500000Y-130375500D01*
D91*
X180650000Y-110800000D02*
X181050000Y-110400000D01*
X149400000Y-104400000D02*
X149240000Y-104560000D01*
D95*
X203635000Y-123470000D02*
X203635000Y-124885000D01*
D91*
X179800000Y-103700000D02*
X181000000Y-103700000D01*
D96*
X148350000Y-110650000D02*
X148350000Y-109800000D01*
D95*
X225700000Y-141900000D02*
X222900000Y-141900000D01*
X228900000Y-124987500D02*
X228862500Y-124950000D01*
D93*
X120300000Y-106600000D02*
X120300000Y-112400000D01*
D94*
X254030000Y-133300000D02*
X254380000Y-132950000D01*
D92*
X249928509Y-130520000D02*
X249509975Y-130938534D01*
D95*
X177437500Y-143100000D02*
X177337500Y-143200000D01*
X189600000Y-123455000D02*
X189615000Y-123470000D01*
X152700000Y-122600000D02*
X153595000Y-122600000D01*
X207865000Y-123470000D02*
X207865000Y-124935000D01*
D96*
X124782500Y-107310000D02*
X124750000Y-107277500D01*
D95*
X221470000Y-127746277D02*
X221663665Y-127939942D01*
X181680000Y-115400000D02*
X182450000Y-115400000D01*
X205350000Y-113845000D02*
X205355000Y-113850000D01*
X145050000Y-134025000D02*
X145050000Y-134075000D01*
D94*
X257300000Y-135100000D02*
X256900000Y-135500000D01*
X257300000Y-129100000D02*
X257300000Y-128285000D01*
D95*
X246780000Y-128032532D02*
X246681149Y-128131383D01*
D91*
X181050000Y-111150000D02*
X180057000Y-111150000D01*
X180057000Y-110961600D02*
X179821000Y-110725600D01*
D95*
X139050000Y-140000000D02*
X142800000Y-140000000D01*
X167000000Y-125900000D02*
X167000000Y-126420000D01*
X219900000Y-124987500D02*
X219937500Y-124950000D01*
D91*
X176800000Y-106200000D02*
X176800000Y-105620000D01*
X169320000Y-139000000D02*
X169300000Y-138980000D01*
D95*
X241292641Y-128177379D02*
X241292641Y-128092641D01*
D92*
X127100000Y-110676000D02*
X127450000Y-110326000D01*
D95*
X186300000Y-112600000D02*
X186300000Y-113800000D01*
D92*
X127400000Y-113030000D02*
X126930000Y-113500000D01*
D91*
X181050000Y-110400000D02*
X180750000Y-110400000D01*
D95*
X183950000Y-115750000D02*
X182800000Y-115750000D01*
D91*
X179857000Y-106850000D02*
X179821000Y-106814000D01*
D92*
X247088321Y-130871745D02*
X249443186Y-130871745D01*
D91*
X179821000Y-110914000D02*
X179821000Y-110065200D01*
D95*
X213365000Y-124915000D02*
X213400000Y-124950000D01*
X181100000Y-135830000D02*
X180370000Y-135100000D01*
D92*
X178411140Y-113414000D02*
X178780300Y-113044840D01*
D95*
X209135000Y-123470000D02*
X209135000Y-124935000D01*
D91*
X176800000Y-105620000D02*
X176900000Y-105520000D01*
D95*
X130900000Y-147450000D02*
X133500000Y-147450000D01*
X213365000Y-123470000D02*
X213365000Y-124915000D01*
D92*
X250400000Y-130520000D02*
X249928509Y-130520000D01*
D94*
X263700000Y-123100000D02*
X263700000Y-123740000D01*
D95*
X213300000Y-142850000D02*
X213300000Y-144025000D01*
D91*
X255862500Y-118710000D02*
X255862500Y-118762500D01*
D95*
X240500000Y-124900000D02*
X239437500Y-124900000D01*
X241200000Y-128000000D02*
X241220000Y-127980000D01*
D94*
X255337500Y-114762500D02*
X255600000Y-114500000D01*
D95*
X180970000Y-134500000D02*
X180370000Y-135100000D01*
D94*
X237600000Y-130825000D02*
X237800000Y-131025000D01*
D95*
X149880000Y-104880000D02*
X149400000Y-104400000D01*
D91*
X173200000Y-118920000D02*
X173180000Y-118900000D01*
D92*
X135300000Y-109950000D02*
X134800000Y-109450000D01*
D95*
X210405000Y-118530000D02*
X210405000Y-117005000D01*
D91*
X156450000Y-112600000D02*
X159250000Y-112600000D01*
D96*
X147539602Y-109029702D02*
X147679702Y-109029702D01*
D95*
X195210000Y-123470000D02*
X195210000Y-124910000D01*
X203635000Y-124885000D02*
X203650000Y-124900000D01*
X195210000Y-124910000D02*
X195250000Y-124950000D01*
D92*
X131200000Y-98325000D02*
X131200000Y-99150000D01*
D95*
X128450000Y-147500000D02*
X130850000Y-147500000D01*
D96*
X147679702Y-109029702D02*
X148400000Y-109750000D01*
D93*
X200750000Y-142050000D02*
X200550000Y-142050000D01*
D95*
X143300000Y-134050000D02*
X143325000Y-134050000D01*
D91*
X256500000Y-119400000D02*
X256712500Y-119400000D01*
X159250000Y-111200000D02*
X159250000Y-112600000D01*
D94*
X227835178Y-133544822D02*
X228000000Y-133380000D01*
D91*
X180146600Y-110400000D02*
X179821000Y-110725600D01*
D92*
X225300000Y-134479336D02*
X225300000Y-133250000D01*
D95*
X178400000Y-143100000D02*
X177437500Y-143100000D01*
D91*
X149000000Y-105120000D02*
X150360000Y-105120000D01*
X149240000Y-104560000D02*
X149240000Y-104880000D01*
D98*
X139400000Y-103825000D02*
X138600000Y-103825000D01*
D95*
X148475000Y-104400000D02*
X148050000Y-103975000D01*
D91*
X200770000Y-116700000D02*
X200770000Y-116621680D01*
X200770000Y-116621680D02*
X201941680Y-115450000D01*
X260910000Y-119390000D02*
X260910000Y-120000000D01*
X188345000Y-119055000D02*
X187600000Y-119800000D01*
D95*
X206600000Y-117200000D02*
X206595000Y-117205000D01*
X193930000Y-116800000D02*
X193930000Y-118520000D01*
X200770000Y-117220000D02*
X201095000Y-117545000D01*
X216100000Y-141150000D02*
X214950000Y-140000000D01*
D91*
X260300000Y-129600000D02*
X259720000Y-129600000D01*
D95*
X250950000Y-142450000D02*
X251500000Y-141900000D01*
D91*
X167475000Y-137865000D02*
X169145000Y-137865000D01*
D96*
X172600000Y-106678600D02*
X173650000Y-105628600D01*
D95*
X211980000Y-118415000D02*
X212095000Y-118530000D01*
D98*
X166050000Y-142900000D02*
X164750000Y-142900000D01*
D95*
X128500000Y-101100000D02*
X128400000Y-101200000D01*
D91*
X206600000Y-118535000D02*
X206595000Y-118530000D01*
D98*
X168850000Y-142900000D02*
X166050000Y-142900000D01*
D95*
X266050000Y-144200000D02*
X257300000Y-144200000D01*
D98*
X189000000Y-139650000D02*
X182800000Y-145850000D01*
X130650000Y-110450000D02*
X130650000Y-107950000D01*
D91*
X175703182Y-119402268D02*
X174975457Y-118674543D01*
X199200000Y-119800000D02*
X199825000Y-119800000D01*
X173979000Y-111386000D02*
X173979000Y-112241000D01*
D95*
X201095000Y-117545000D02*
X201095000Y-118530000D01*
D91*
X172000000Y-118550000D02*
X172002900Y-118547100D01*
D95*
X169800000Y-109890000D02*
X169960000Y-109890000D01*
D91*
X212050000Y-118575000D02*
X212095000Y-118530000D01*
D98*
X159750000Y-142900000D02*
X156850000Y-140000000D01*
D95*
X201550000Y-133400000D02*
X201550000Y-134537500D01*
D91*
X266425000Y-115525000D02*
X266825000Y-115925000D01*
D95*
X270100000Y-119200000D02*
X266425000Y-115525000D01*
D91*
X173920000Y-112300000D02*
X172410000Y-112300000D01*
D95*
X262351367Y-129876776D02*
X262351367Y-129840706D01*
X206480000Y-116750000D02*
X206480000Y-117080000D01*
D98*
X140590000Y-125540000D02*
X132050000Y-117000000D01*
D91*
X165300000Y-137900000D02*
X165300000Y-138200000D01*
X174286914Y-117986000D02*
X172002900Y-117986000D01*
D98*
X191000000Y-136025000D02*
X190225000Y-136025000D01*
D95*
X169800000Y-108810000D02*
X169800000Y-109200000D01*
X257550000Y-110202500D02*
X257000000Y-110752500D01*
D96*
X173979000Y-111386000D02*
X175886000Y-111386000D01*
D91*
X187550000Y-113800000D02*
X187500000Y-113850000D01*
D95*
X169800000Y-109200000D02*
X169800000Y-109890000D01*
D96*
X170210000Y-123340000D02*
X171750000Y-121800000D01*
D95*
X251500000Y-141900000D02*
X251500000Y-139575000D01*
D91*
X266825000Y-115925000D02*
X264300000Y-118450000D01*
X182750000Y-118535000D02*
X182745000Y-118530000D01*
D96*
X176500000Y-103436100D02*
X177486100Y-103436100D01*
D91*
X165335000Y-137865000D02*
X165300000Y-137900000D01*
D98*
X156850000Y-140000000D02*
X156850000Y-138500000D01*
D96*
X171530000Y-109000000D02*
X171550000Y-108980000D01*
D91*
X199825000Y-119800000D02*
X201095000Y-118530000D01*
D95*
X188345000Y-117605000D02*
X188430000Y-117520000D01*
D96*
X179800000Y-105750000D02*
X179990000Y-105750000D01*
D93*
X148080000Y-125540000D02*
X148080000Y-126080000D01*
D91*
X261462500Y-118450000D02*
X261462500Y-118837500D01*
D95*
X170850000Y-109000000D02*
X171530000Y-109000000D01*
X201550000Y-127500000D02*
X199137673Y-125087673D01*
D91*
X165600000Y-137865000D02*
X165600000Y-137900000D01*
D95*
X170210000Y-125800000D02*
X168780000Y-125800000D01*
D91*
X165300000Y-135800000D02*
X165300000Y-137550000D01*
D96*
X174500000Y-122600000D02*
X175260500Y-121839500D01*
D95*
X128500000Y-99300000D02*
X128500000Y-101100000D01*
D96*
X176500000Y-112000000D02*
X176500000Y-114950000D01*
D95*
X257300000Y-144200000D02*
X255550000Y-142450000D01*
D96*
X175886000Y-111386000D02*
X176500000Y-112000000D01*
D95*
X193930000Y-118520000D02*
X193940000Y-118530000D01*
X248100000Y-145300000D02*
X250950000Y-142450000D01*
D98*
X156050000Y-136200000D02*
X152500000Y-132650000D01*
X189000000Y-137250000D02*
X189000000Y-139650000D01*
D95*
X261760661Y-129250000D02*
X261235000Y-129250000D01*
X168780000Y-125800000D02*
X168680000Y-125700000D01*
D93*
X148080000Y-126080000D02*
X152500000Y-130500000D01*
D96*
X175150457Y-118849543D02*
X174975457Y-118674543D01*
D95*
X183200000Y-116680000D02*
X183200000Y-116850000D01*
X169960000Y-109890000D02*
X170650000Y-109200000D01*
D91*
X169145000Y-137865000D02*
X169300000Y-138020000D01*
X252550000Y-138525000D02*
X252550000Y-138050000D01*
D96*
X172673680Y-104156320D02*
X173400000Y-103430000D01*
D91*
X166020000Y-135080000D02*
X165300000Y-135800000D01*
D98*
X156850000Y-138500000D02*
X156050000Y-137700000D01*
D91*
X201941680Y-115450000D02*
X203155000Y-115450000D01*
D96*
X176050000Y-115400000D02*
X176050000Y-117250000D01*
D95*
X199137673Y-123212327D02*
X199200000Y-123150000D01*
X206595000Y-117205000D02*
X206595000Y-118530000D01*
D96*
X172410000Y-111810000D02*
X171915100Y-111315100D01*
D95*
X170850000Y-109000000D02*
X169990000Y-109000000D01*
D96*
X170210000Y-125800000D02*
X170210000Y-123340000D01*
D91*
X167475000Y-137865000D02*
X165600000Y-137865000D01*
D98*
X152500000Y-132650000D02*
X152500000Y-130500000D01*
X165650000Y-142900000D02*
X165400000Y-142650000D01*
D95*
X257000000Y-110752500D02*
X257000000Y-110350000D01*
X201550000Y-134537500D02*
X201550000Y-127500000D01*
X212560000Y-146050000D02*
X215350000Y-146050000D01*
D98*
X171800000Y-145850000D02*
X168850000Y-142900000D01*
D95*
X182745000Y-117305000D02*
X182745000Y-118530000D01*
D91*
X260650000Y-129250000D02*
X260300000Y-129600000D01*
D96*
X172410000Y-112300000D02*
X172410000Y-111810000D01*
D95*
X251500000Y-139575000D02*
X252550000Y-138525000D01*
D91*
X261235000Y-129250000D02*
X260650000Y-129250000D01*
X264300000Y-118450000D02*
X261462500Y-118450000D01*
X172220000Y-118770000D02*
X172000000Y-118550000D01*
D95*
X206480000Y-117080000D02*
X206600000Y-117200000D01*
D91*
X166020000Y-134600000D02*
X166020000Y-135080000D01*
X165300000Y-138200000D02*
X165300000Y-142650000D01*
X165600000Y-137865000D02*
X165600000Y-137850000D01*
D98*
X156050000Y-137700000D02*
X156050000Y-136200000D01*
D95*
X257550000Y-110000000D02*
X257550000Y-110202500D01*
X211980000Y-116750000D02*
X211980000Y-118415000D01*
D98*
X182800000Y-145850000D02*
X171800000Y-145850000D01*
D95*
X257550000Y-110000000D02*
X256650000Y-110000000D01*
D91*
X165600000Y-137850000D02*
X165300000Y-137550000D01*
X175179000Y-104686000D02*
X175179000Y-105559000D01*
D95*
X200770000Y-116700000D02*
X200770000Y-117220000D01*
D96*
X173678600Y-105600000D02*
X175220000Y-105600000D01*
D91*
X172002900Y-118547100D02*
X172002900Y-117986000D01*
D95*
X257000000Y-110350000D02*
X256650000Y-110000000D01*
D91*
X252200000Y-137700000D02*
X252200000Y-137050000D01*
X194000000Y-115950000D02*
X194000000Y-116730000D01*
D95*
X188430000Y-117520000D02*
X188430000Y-116750000D01*
D91*
X206600000Y-119850000D02*
X206600000Y-118535000D01*
D95*
X215350000Y-146050000D02*
X216100000Y-145300000D01*
D96*
X171550000Y-108200000D02*
X172600000Y-107150000D01*
D95*
X214950000Y-131500000D02*
X213550000Y-130100000D01*
D91*
X174975457Y-118674543D02*
X174286914Y-117986000D01*
D95*
X255550000Y-142450000D02*
X250950000Y-142450000D01*
D96*
X174200000Y-119800000D02*
X175150457Y-118849543D01*
X172673680Y-104223681D02*
X172673680Y-104156320D01*
X172600000Y-107150000D02*
X172600000Y-106678600D01*
D91*
X173979000Y-112241000D02*
X173920000Y-112300000D01*
X194000000Y-116730000D02*
X193930000Y-116800000D01*
D98*
X164750000Y-142900000D02*
X159750000Y-142900000D01*
D96*
X173400000Y-103430000D02*
X173400000Y-103410000D01*
X176500000Y-114950000D02*
X176050000Y-115400000D01*
D95*
X216100000Y-145300000D02*
X216100000Y-141150000D01*
D98*
X165300000Y-142650000D02*
X165050000Y-142900000D01*
D95*
X270100000Y-140150000D02*
X266050000Y-144200000D01*
D91*
X203155000Y-115450000D02*
X204105000Y-114500000D01*
D96*
X171550000Y-108980000D02*
X171550000Y-108200000D01*
D95*
X180510000Y-117400000D02*
X182650000Y-117400000D01*
X199137673Y-125087673D02*
X199137673Y-123212327D01*
X270100000Y-129950000D02*
X270100000Y-119200000D01*
X169800000Y-109200000D02*
X170650000Y-109200000D01*
D98*
X165050000Y-142900000D02*
X164750000Y-142900000D01*
D95*
X169990000Y-109000000D02*
X169800000Y-108810000D01*
D91*
X165300000Y-137550000D02*
X165300000Y-137900000D01*
X172220000Y-118900000D02*
X172220000Y-118770000D01*
D98*
X190225000Y-136025000D02*
X189000000Y-137250000D01*
X148080000Y-125540000D02*
X140590000Y-125540000D01*
D91*
X187550000Y-112600000D02*
X187550000Y-113800000D01*
X188345000Y-118530000D02*
X188345000Y-119055000D01*
D95*
X188345000Y-118530000D02*
X188345000Y-117605000D01*
X183200000Y-116850000D02*
X182745000Y-117305000D01*
D91*
X165600000Y-137865000D02*
X165335000Y-137865000D01*
X182750000Y-120000000D02*
X182750000Y-118535000D01*
X165600000Y-137900000D02*
X165300000Y-138200000D01*
D98*
X166050000Y-142900000D02*
X165650000Y-142900000D01*
D95*
X166921472Y-137865000D02*
X166886472Y-137900000D01*
D91*
X252550000Y-138050000D02*
X252200000Y-137700000D01*
D95*
X262351367Y-129840706D02*
X261760661Y-129250000D01*
X214950000Y-140000000D02*
X214950000Y-131500000D01*
X213550000Y-130100000D02*
X204850000Y-130100000D01*
D96*
X171915100Y-111315100D02*
X171300000Y-111315100D01*
D95*
X204850000Y-130100000D02*
X201550000Y-133400000D01*
X170650000Y-109200000D02*
X170850000Y-109000000D01*
D96*
X171750000Y-121800000D02*
X175510500Y-121800000D01*
D91*
X175179000Y-105559000D02*
X175220000Y-105600000D01*
D95*
X270100000Y-129950000D02*
X270100000Y-140150000D01*
X216100000Y-145300000D02*
X248100000Y-145300000D01*
D98*
X132050000Y-117000000D02*
X132050000Y-114500000D01*
D91*
X256650000Y-109237500D02*
X256650000Y-110000000D01*
D96*
X177486100Y-103436100D02*
X179800000Y-105750000D01*
D95*
X266425000Y-115525000D02*
X265400000Y-114500000D01*
D91*
X204105000Y-114500000D02*
X204105000Y-113850000D01*
D95*
X165950000Y-133112500D02*
X165950000Y-134670000D01*
X182650000Y-117400000D02*
X182745000Y-117305000D01*
D91*
X261462500Y-118837500D02*
X260910000Y-119390000D01*
X173500000Y-123600000D02*
X174480000Y-123600000D01*
X174480000Y-123600000D02*
X174500000Y-123620000D01*
X173480000Y-123620000D02*
X173500000Y-123600000D01*
X172520000Y-123620000D02*
X173480000Y-123620000D01*
D92*
X179200000Y-116400000D02*
X180720000Y-116400000D01*
X179000000Y-116400000D02*
X178630200Y-116030200D01*
X255890000Y-139690000D02*
X256100000Y-139900000D01*
X249700000Y-121137402D02*
X251700000Y-123137402D01*
X255890000Y-139200000D02*
X255890000Y-139690000D01*
X179200000Y-116400000D02*
X179000000Y-116400000D01*
X242725196Y-108000000D02*
X249700000Y-114974804D01*
X178630200Y-116030200D02*
X177844900Y-116030200D01*
X251700000Y-123137402D02*
X251700000Y-128824500D01*
X186275000Y-111125000D02*
X189400000Y-108000000D01*
X249700000Y-114974804D02*
X249700000Y-121137402D01*
X189400000Y-108000000D02*
X242725196Y-108000000D01*
X251700000Y-128824500D02*
X252775500Y-129900000D01*
X185500000Y-109650000D02*
X192550500Y-102599500D01*
X192550500Y-102599500D02*
X193994387Y-102599500D01*
X183880000Y-113600000D02*
X185500000Y-111980000D01*
X193994387Y-102599500D02*
X194169454Y-102424433D01*
X180540500Y-115220500D02*
X179464444Y-115220500D01*
X244524433Y-102424433D02*
X249600000Y-107500000D01*
X179150000Y-115534944D02*
X179149976Y-115534968D01*
X251600000Y-119400000D02*
X256330000Y-124130000D01*
X180720000Y-115400000D02*
X180540500Y-115220500D01*
X179150000Y-115500000D02*
X179150000Y-115534944D01*
X256330000Y-124130000D02*
X261400000Y-124130000D01*
X194169454Y-102424433D02*
X244524433Y-102424433D01*
X249600000Y-107500000D02*
X249600000Y-112600000D01*
X177844900Y-115369800D02*
X178984808Y-115369800D01*
X182600000Y-113600000D02*
X183880000Y-113600000D01*
X249600000Y-112600000D02*
X251600000Y-114600000D01*
X179184944Y-115500000D02*
X179150000Y-115500000D01*
X251600000Y-114600000D02*
X251600000Y-119400000D01*
X185500000Y-111980000D02*
X185500000Y-109650000D01*
X179464444Y-115220500D02*
X179184944Y-115500000D01*
X178984808Y-115369800D02*
X179149976Y-115534968D01*
X183850000Y-108800000D02*
X184600000Y-108800000D01*
X245600000Y-101500000D02*
X252300000Y-108200000D01*
X178969000Y-114631000D02*
X179600000Y-114631000D01*
X178865200Y-114734800D02*
X178969000Y-114631000D01*
X182381089Y-112159153D02*
X182381089Y-110268911D01*
X180489000Y-114631000D02*
X180720000Y-114400000D01*
X177844900Y-114734800D02*
X178865200Y-114734800D01*
X252300000Y-118600000D02*
X255067500Y-121367500D01*
X182381089Y-110268911D02*
X183850000Y-108800000D01*
X252300000Y-108200000D02*
X252300000Y-118600000D01*
X255067500Y-121367500D02*
X261400000Y-121367500D01*
X184600000Y-108800000D02*
X191900000Y-101500000D01*
X179600000Y-114631000D02*
X180489000Y-114631000D01*
X191900000Y-101500000D02*
X245600000Y-101500000D01*
X179049209Y-113797763D02*
X178772572Y-114074400D01*
X181640000Y-111819228D02*
X180720000Y-112739228D01*
X247220000Y-97600000D02*
X194300000Y-97600000D01*
X254400000Y-104780000D02*
X247220000Y-97600000D01*
X179604036Y-113242936D02*
X180582936Y-113242936D01*
X180720000Y-112739228D02*
X180720000Y-113400000D01*
X180582936Y-113242936D02*
X180740000Y-113400000D01*
X179049209Y-113797763D02*
X179604036Y-113242936D01*
X194300000Y-97600000D02*
X181640000Y-110260000D01*
X178772572Y-114074400D02*
X177844900Y-114074400D01*
X181640000Y-110260000D02*
X181640000Y-111819228D01*
D95*
X222430000Y-127150000D02*
X222430000Y-128080000D01*
X226020000Y-127150000D02*
X226000000Y-127170000D01*
X156250000Y-146650000D02*
X154587700Y-146650000D01*
X155300000Y-145750000D02*
X156250000Y-144800000D01*
D99*
X200250000Y-144450000D02*
X200750000Y-143950000D01*
D95*
X153687700Y-145750000D02*
X155300000Y-145750000D01*
D99*
X192000000Y-144450000D02*
X193500000Y-144450000D01*
D95*
X240066118Y-134868377D02*
X240066118Y-139533882D01*
X226000000Y-127170000D02*
X226000000Y-128235000D01*
X226000000Y-128235000D02*
X225885000Y-128350000D01*
D98*
X236950000Y-142650000D02*
X237700000Y-141900000D01*
D99*
X193500000Y-145550000D02*
X193500000Y-144450000D01*
D95*
X222430000Y-128080000D02*
X222700000Y-128350000D01*
X227100000Y-141900000D02*
X231900000Y-141900000D01*
D99*
X193500000Y-144450000D02*
X198500000Y-144450000D01*
D95*
X154587700Y-146650000D02*
X153687700Y-145750000D01*
D98*
X234750000Y-142650000D02*
X236950000Y-142650000D01*
X234750000Y-141100000D02*
X232700000Y-141100000D01*
D95*
X220700000Y-134900000D02*
X220000000Y-134200000D01*
X220700000Y-134900000D02*
X220700000Y-135500000D01*
D93*
X202900000Y-143502500D02*
X202900000Y-144772500D01*
D95*
X156250000Y-144800000D02*
X156250000Y-146650000D01*
D99*
X192650000Y-145300000D02*
X193500000Y-144450000D01*
D95*
X220000000Y-134200000D02*
X220000000Y-133180000D01*
X246000000Y-128550000D02*
X245585000Y-128550000D01*
D99*
X200750000Y-143950000D02*
X202452500Y-143950000D01*
D95*
X242180000Y-128370000D02*
X242000000Y-128550000D01*
X245820000Y-128315000D02*
X245585000Y-128550000D01*
D98*
X234750000Y-141100000D02*
X236900000Y-141100000D01*
D99*
X192300000Y-145300000D02*
X192650000Y-145300000D01*
D98*
X234750000Y-142650000D02*
X232650000Y-142650000D01*
D95*
X222700000Y-128350000D02*
X222715000Y-128350000D01*
D93*
X153687700Y-145750000D02*
X155350000Y-145750000D01*
X200572500Y-144772500D02*
X200250000Y-144450000D01*
D98*
X232700000Y-141100000D02*
X231900000Y-141900000D01*
D93*
X155350000Y-145750000D02*
X156132510Y-146532510D01*
D95*
X242180000Y-127350000D02*
X242180000Y-128370000D01*
D93*
X156200000Y-145750000D02*
X156250000Y-145700000D01*
D98*
X232650000Y-142650000D02*
X231900000Y-141900000D01*
X236900000Y-141100000D02*
X237700000Y-141900000D01*
D95*
X220700000Y-135500000D02*
X227100000Y-141900000D01*
X242000000Y-128550000D02*
X242415000Y-128550000D01*
D93*
X202900000Y-144772500D02*
X200572500Y-144772500D01*
X153687700Y-145750000D02*
X156200000Y-145750000D01*
D99*
X198500000Y-144450000D02*
X200250000Y-144450000D01*
D95*
X240066118Y-139533882D02*
X237700000Y-141900000D01*
X245820000Y-127350000D02*
X245820000Y-128315000D01*
D92*
X141050000Y-116600000D02*
X142125000Y-116600000D01*
X143150000Y-115575000D02*
X142125000Y-116600000D01*
X144937500Y-102075000D02*
X144937500Y-104762500D01*
X140660000Y-115612500D02*
X140660000Y-116210000D01*
X144937500Y-101167500D02*
X145337500Y-100767500D01*
X144937500Y-102075000D02*
X144937500Y-101167500D01*
X144937500Y-104762500D02*
X143150000Y-106550000D01*
X140660000Y-116210000D02*
X141050000Y-116600000D01*
X143150000Y-106550000D02*
X143150000Y-115575000D01*
X144937500Y-102075000D02*
X138937500Y-102075000D01*
X137200000Y-102075000D02*
X136175000Y-102075000D01*
X137200000Y-102075000D02*
X137200000Y-101167500D01*
X148830000Y-107420000D02*
X150600000Y-107420000D01*
X136150000Y-102100000D02*
X136125000Y-102075000D01*
X146910000Y-107600000D02*
X148150000Y-107600000D01*
X146910000Y-108540000D02*
X146910000Y-107600000D01*
X144912500Y-113962500D02*
X144537500Y-113962500D01*
X148400000Y-107850000D02*
X148830000Y-107420000D01*
X148150000Y-107600000D02*
X148400000Y-107850000D01*
X136175000Y-102075000D02*
X136150000Y-102100000D01*
X136125000Y-102075000D02*
X131200000Y-102075000D01*
X144950000Y-114000000D02*
X144912500Y-113962500D01*
X137200000Y-101167500D02*
X137600000Y-100767500D01*
X144912500Y-113962500D02*
X144160000Y-113962500D01*
D95*
X210000000Y-143210000D02*
X209740000Y-143210000D01*
X209447500Y-143502500D02*
X208300000Y-143502500D01*
X209740000Y-143210000D02*
X209447500Y-143502500D01*
D92*
X126550000Y-116150000D02*
X128150000Y-116150000D01*
X125940000Y-113470000D02*
X125910000Y-113500000D01*
X125940000Y-112400000D02*
X125940000Y-113470000D01*
X125910000Y-115510000D02*
X126550000Y-116150000D01*
X125910000Y-113500000D02*
X125910000Y-115000000D01*
X128150000Y-116150000D02*
X129700000Y-114600000D01*
X126100000Y-110550000D02*
X126100000Y-112240000D01*
X125910000Y-115000000D02*
X125910000Y-115510000D01*
X126100000Y-112240000D02*
X125940000Y-112400000D01*
X126100000Y-111040000D02*
X126100000Y-110550000D01*
D94*
X219820000Y-131300000D02*
X219800000Y-131280000D01*
X221850000Y-131300000D02*
X219820000Y-131300000D01*
X220060616Y-130320000D02*
X219800000Y-130320000D01*
X220540616Y-130800000D02*
X220060616Y-130320000D01*
X221850000Y-130800000D02*
X220540616Y-130800000D01*
X220420000Y-131800000D02*
X220000000Y-132220000D01*
X221850000Y-131800000D02*
X220420000Y-131800000D01*
X240400000Y-132000000D02*
X239880000Y-132520000D01*
X241550000Y-132000000D02*
X240400000Y-132000000D01*
X239880000Y-132520000D02*
X239500000Y-132520000D01*
X241550000Y-131500000D02*
X239580000Y-131500000D01*
X239580000Y-131500000D02*
X239500000Y-131580000D01*
X239880000Y-131000000D02*
X239500000Y-130620000D01*
X241550000Y-131000000D02*
X239880000Y-131000000D01*
D95*
X198750000Y-130975000D02*
X198750000Y-129287500D01*
X188000000Y-128775000D02*
X188000000Y-130250000D01*
X188000000Y-130250000D02*
X187750000Y-130500000D01*
D97*
X123000000Y-109500000D02*
X123800000Y-109500000D01*
X123800000Y-109500000D02*
X124040000Y-109740000D01*
X138146451Y-109650000D02*
X137946451Y-109450000D01*
X127650000Y-109750000D02*
X127800000Y-109600000D01*
X124750000Y-109740000D02*
X126590000Y-109740000D01*
X126590000Y-109740000D02*
X126600000Y-109750000D01*
X137946451Y-109450000D02*
X137250000Y-109450000D01*
X124040000Y-109740000D02*
X124750000Y-109740000D01*
X126600000Y-109750000D02*
X127650000Y-109750000D01*
X123000000Y-108850000D02*
X123800000Y-108850000D01*
X127599503Y-108600000D02*
X127800000Y-108800497D01*
X123800000Y-108850000D02*
X124052500Y-108597500D01*
X137950000Y-108950000D02*
X137250000Y-108950000D01*
X138150000Y-108750000D02*
X137950000Y-108950000D01*
X124750000Y-108597500D02*
X126597500Y-108597500D01*
X124052500Y-108597500D02*
X124750000Y-108597500D01*
X126600000Y-108600000D02*
X127599503Y-108600000D01*
X126597500Y-108597500D02*
X126600000Y-108600000D01*
D91*
X124750000Y-106160000D02*
X125930000Y-106160000D01*
X123475000Y-108200000D02*
X124175000Y-107500000D01*
X124175000Y-106735000D02*
X124750000Y-106160000D01*
X126000000Y-106230000D02*
X127370000Y-106230000D01*
X130350000Y-103250000D02*
X136525000Y-103250000D01*
X127370000Y-106230000D02*
X128400000Y-105200000D01*
X128400000Y-105200000D02*
X130350000Y-103250000D01*
X123000000Y-108200000D02*
X123475000Y-108200000D01*
X136525000Y-103250000D02*
X137100000Y-103825000D01*
X125930000Y-106160000D02*
X126000000Y-106230000D01*
X124175000Y-107500000D02*
X124175000Y-106735000D01*
D92*
X230350000Y-132675000D02*
X231937500Y-132675000D01*
X249100000Y-132625000D02*
X250687500Y-132625000D01*
X250687500Y-132625000D02*
X250700000Y-132612500D01*
X256910000Y-138200000D02*
X256910000Y-139200000D01*
D94*
X258840000Y-137160000D02*
X259680000Y-138000000D01*
X256900000Y-137160000D02*
X258840000Y-137160000D01*
D92*
X256900000Y-137160000D02*
X256900000Y-138190000D01*
X256900000Y-138190000D02*
X256910000Y-138200000D01*
X256900000Y-105660000D02*
X257340000Y-105660000D01*
X255600000Y-105800000D02*
X254400000Y-105800000D01*
X257340000Y-105660000D02*
X259680000Y-108000000D01*
X255600000Y-105800000D02*
X256760000Y-105800000D01*
X256760000Y-105800000D02*
X256900000Y-105660000D01*
D94*
X263700000Y-125150000D02*
X266050000Y-127500000D01*
X263700000Y-125060000D02*
X263700000Y-125150000D01*
D92*
X262500000Y-125150000D02*
X263610000Y-125150000D01*
X261400000Y-125150000D02*
X262500000Y-125150000D01*
X263610000Y-125150000D02*
X263700000Y-125060000D01*
X262590000Y-122297500D02*
X262500000Y-122387500D01*
D94*
X264252500Y-122297500D02*
X263700000Y-122297500D01*
D92*
X262500000Y-122387500D02*
X261500000Y-122387500D01*
D94*
X266050000Y-120500000D02*
X264252500Y-122297500D01*
D92*
X263700000Y-122297500D02*
X262590000Y-122297500D01*
D91*
X256962500Y-107362500D02*
X258900000Y-109300000D01*
X258900000Y-109300000D02*
X261380000Y-109300000D01*
X255700000Y-107362500D02*
X256962500Y-107362500D01*
X261380000Y-109300000D02*
X262680000Y-108000000D01*
X262680000Y-112680000D02*
X262680000Y-111000000D01*
X263337500Y-113337500D02*
X262680000Y-112680000D01*
X263337500Y-117500000D02*
X263337500Y-113337500D01*
X265100000Y-132300000D02*
X263500000Y-130700000D01*
X263500000Y-130700000D02*
X263500000Y-128690000D01*
X263500000Y-128690000D02*
X263110000Y-128300000D01*
X262680000Y-138000000D02*
X263400000Y-138000000D01*
X265100000Y-136300000D02*
X265100000Y-132300000D01*
X263400000Y-138000000D02*
X265100000Y-136300000D01*
X253500000Y-140400000D02*
X254000000Y-140900000D01*
X254000000Y-140900000D02*
X255800000Y-140900000D01*
X257700000Y-142800000D02*
X260880000Y-142800000D01*
X260880000Y-142800000D02*
X262680000Y-141000000D01*
X255800000Y-140900000D02*
X257700000Y-142800000D01*
D94*
X247300000Y-129500000D02*
X250200000Y-126600000D01*
X247750000Y-120250000D02*
X247750000Y-117275000D01*
X250200000Y-122700000D02*
X247750000Y-120250000D01*
X246450000Y-129500000D02*
X247300000Y-129500000D01*
X250200000Y-126600000D02*
X250200000Y-122700000D01*
X241550000Y-129500000D02*
X241091541Y-129041541D01*
X240541541Y-129041541D02*
X238300000Y-126800000D01*
X238300000Y-126800000D02*
X238300000Y-119225000D01*
X238300000Y-119225000D02*
X240250000Y-117275000D01*
X241091541Y-129041541D02*
X240541541Y-129041541D01*
X224800000Y-128350000D02*
X224800000Y-122600000D01*
X227250000Y-120150000D02*
X227250000Y-117275000D01*
X224800000Y-122600000D02*
X227250000Y-120150000D01*
X227600000Y-129300000D02*
X230100000Y-126800000D01*
X229750000Y-119900000D02*
X229750000Y-117275000D01*
X230100000Y-120250000D02*
X229750000Y-119900000D01*
X230100000Y-126800000D02*
X230100000Y-120250000D01*
X226750000Y-129300000D02*
X227600000Y-129300000D01*
X224200000Y-117825000D02*
X224750000Y-117275000D01*
X223800000Y-127847000D02*
X224200000Y-127447000D01*
X224200000Y-127447000D02*
X224200000Y-117825000D01*
X223800000Y-128350000D02*
X223800000Y-127847000D01*
X222250000Y-119400000D02*
X222250000Y-117275000D01*
X218800000Y-122850000D02*
X222250000Y-119400000D01*
X221616116Y-129300000D02*
X218800000Y-126483884D01*
X218800000Y-126483884D02*
X218800000Y-122850000D01*
X221850000Y-129300000D02*
X221616116Y-129300000D01*
D97*
X214178000Y-117388000D02*
X214178000Y-117076268D01*
X214635000Y-117845000D02*
X214178000Y-117388000D01*
X214635000Y-118530000D02*
X214635000Y-117845000D01*
X214178000Y-117076268D02*
X212855000Y-115753268D01*
X212855000Y-115753268D02*
X212855000Y-113850000D01*
X213365000Y-118530000D02*
X213365000Y-117845000D01*
X213365000Y-117845000D02*
X213550000Y-117660000D01*
X211605000Y-114400000D02*
X211605000Y-113850000D01*
X213550000Y-117100000D02*
X212052000Y-115602000D01*
X212052000Y-114847000D02*
X211605000Y-114400000D01*
X213550000Y-117660000D02*
X213550000Y-117100000D01*
X212052000Y-115602000D02*
X212052000Y-114847000D01*
X209908000Y-115742000D02*
X209135000Y-116515000D01*
X209908000Y-114847000D02*
X209908000Y-115742000D01*
X210355000Y-114400000D02*
X209908000Y-114847000D01*
X209135000Y-116515000D02*
X209135000Y-118530000D01*
X210355000Y-113850000D02*
X210355000Y-114400000D01*
X208322000Y-116576268D02*
X208322000Y-117388000D01*
X209300000Y-115598268D02*
X208322000Y-116576268D01*
X208322000Y-117388000D02*
X207865000Y-117845000D01*
X209105000Y-113850000D02*
X209105000Y-114400000D01*
X209105000Y-114400000D02*
X209300000Y-114595000D01*
X209300000Y-114595000D02*
X209300000Y-115598268D01*
X207865000Y-117845000D02*
X207865000Y-118530000D01*
X203650000Y-117300000D02*
X203650000Y-116900000D01*
X204700000Y-115850000D02*
X206550000Y-115850000D01*
X207855000Y-114545000D02*
X207855000Y-113850000D01*
X206550000Y-115850000D02*
X207855000Y-114545000D01*
X203650000Y-116900000D02*
X204700000Y-115850000D01*
X203635000Y-118530000D02*
X203635000Y-117315000D01*
X203635000Y-117315000D02*
X203650000Y-117300000D01*
X204526268Y-115322000D02*
X206276268Y-115322000D01*
X206605000Y-114993268D02*
X206605000Y-113850000D01*
X202822000Y-117026268D02*
X204526268Y-115322000D01*
X206276268Y-115322000D02*
X206605000Y-114993268D01*
X202822000Y-117388000D02*
X202822000Y-117026268D01*
X202365000Y-118530000D02*
X202365000Y-117845000D01*
X202365000Y-117845000D02*
X202822000Y-117388000D01*
X196250000Y-118300000D02*
X196480000Y-118530000D01*
X196250000Y-113850000D02*
X196250000Y-118300000D01*
X195210000Y-118530000D02*
X195212500Y-118527500D01*
X195212500Y-118527500D02*
X195212500Y-115337500D01*
X195000000Y-113850000D02*
X195000000Y-115125001D01*
X195000000Y-115125001D02*
X195212500Y-115337500D01*
X193750000Y-113850000D02*
X193750000Y-114400000D01*
X193750000Y-114400000D02*
X190885000Y-117265000D01*
X190885000Y-117265000D02*
X190885000Y-118530000D01*
X189615000Y-117335000D02*
X189615000Y-118530000D01*
X192500000Y-113850000D02*
X192500000Y-114450000D01*
X192500000Y-114450000D02*
X189615000Y-117335000D01*
X191250000Y-114400000D02*
X189650000Y-116000000D01*
X187100000Y-116000000D02*
X185285000Y-117815000D01*
X191250000Y-113850000D02*
X191250000Y-114400000D01*
X189650000Y-116000000D02*
X187100000Y-116000000D01*
X185285000Y-117815000D02*
X185285000Y-118530000D01*
X190000000Y-114400000D02*
X188900000Y-115500000D01*
X186663573Y-115500000D02*
X184015000Y-118148573D01*
X184015000Y-118148573D02*
X184015000Y-118530000D01*
X190000000Y-113850000D02*
X190000000Y-114400000D01*
X188900000Y-115500000D02*
X186663573Y-115500000D01*
D91*
X255400000Y-132950000D02*
X255400000Y-134550000D01*
X255450000Y-132900000D02*
X255400000Y-132950000D01*
X255450000Y-131650000D02*
X255450000Y-132900000D01*
X254055000Y-136030000D02*
X254450000Y-136425000D01*
X254450000Y-136425000D02*
X254450000Y-138525000D01*
X252200000Y-136030000D02*
X254055000Y-136030000D01*
X256110000Y-117690000D02*
X257050000Y-116750000D01*
X255862500Y-117690000D02*
X254597500Y-117690000D01*
X255862500Y-117690000D02*
X256110000Y-117690000D01*
X257050000Y-116750000D02*
X257462500Y-116750000D01*
X254597500Y-117690000D02*
X254562500Y-117725000D01*
X259890000Y-120000000D02*
X259890000Y-119990000D01*
X259890000Y-119990000D02*
X259300000Y-119400000D01*
X259300000Y-119400000D02*
X259300000Y-117737500D01*
X259300000Y-117737500D02*
X259337500Y-117700000D01*
X260487500Y-116550000D02*
X259337500Y-117700000D01*
X261462500Y-116550000D02*
X260487500Y-116550000D01*
X253750000Y-114722500D02*
X253790000Y-114762500D01*
X253750000Y-113200000D02*
X253750000Y-114722500D01*
X253790000Y-114762500D02*
X253790000Y-116027500D01*
X253790000Y-116027500D02*
X253825000Y-116062500D01*
X254750000Y-111275000D02*
X254700000Y-111325000D01*
X254750000Y-109237500D02*
X254750000Y-111275000D01*
X254520000Y-126390000D02*
X254510000Y-126400000D01*
X255810000Y-126390000D02*
X254520000Y-126390000D01*
X255850000Y-126350000D02*
X255810000Y-126390000D01*
X257335000Y-126350000D02*
X255850000Y-126350000D01*
X259260000Y-127350000D02*
X259210000Y-127300000D01*
X259210000Y-128590000D02*
X259210000Y-127300000D01*
X261235000Y-127350000D02*
X259260000Y-127350000D01*
X258700000Y-129100000D02*
X259210000Y-128590000D01*
X258700000Y-129600000D02*
X258700000Y-129100000D01*
D92*
X141312500Y-113012500D02*
X142140000Y-113012500D01*
X140200000Y-111900000D02*
X141312500Y-113012500D01*
X139460000Y-111900000D02*
X140200000Y-111900000D01*
X142140000Y-114912500D02*
X142140000Y-114790000D01*
X134300000Y-111900000D02*
X134300000Y-112539528D01*
X134300000Y-112539528D02*
X134086672Y-112752856D01*
X137400000Y-114090000D02*
X137400000Y-113750000D01*
X142140000Y-114790000D02*
X141600000Y-114250000D01*
X137400000Y-113750000D02*
X137100000Y-113450000D01*
X138192500Y-115110000D02*
X138640000Y-114662500D01*
X137400000Y-115110000D02*
X138192500Y-115110000D01*
X139600000Y-115100000D02*
X139600000Y-113650000D01*
X138640000Y-116562500D02*
X138640000Y-116060000D01*
X138440000Y-112490000D02*
X138440000Y-111900000D01*
X139600000Y-113650000D02*
X138440000Y-112490000D01*
X138640000Y-116060000D02*
X139600000Y-115100000D01*
X136300000Y-111900000D02*
X138440000Y-111900000D01*
X160700000Y-133350000D02*
X161150000Y-133800000D01*
X174929589Y-108769800D02*
X175122564Y-108962775D01*
X160700000Y-133110000D02*
X160700000Y-133350000D01*
X162050000Y-133112500D02*
X161837500Y-133112500D01*
X173979000Y-108769800D02*
X174929589Y-108769800D01*
X161837500Y-133112500D02*
X161150000Y-133800000D01*
D91*
X171500000Y-123620000D02*
X171500000Y-125780000D01*
X171500000Y-125780000D02*
X171480000Y-125800000D01*
D92*
X160650000Y-140540000D02*
X162390000Y-140540000D01*
X162390000Y-140540000D02*
X162525000Y-140405000D01*
X250300000Y-114800000D02*
X250300000Y-120850000D01*
X247100000Y-110050000D02*
X247100000Y-111600000D01*
X253900000Y-129700000D02*
X253900000Y-131650000D01*
X186433160Y-104633160D02*
X186333160Y-104633160D01*
X250300000Y-120850000D02*
X252850000Y-123400000D01*
X252850000Y-128650000D02*
X253900000Y-129700000D01*
X192302411Y-105221615D02*
X193630796Y-106550000D01*
X193630796Y-106550000D02*
X243600000Y-106550000D01*
X192302411Y-104224761D02*
X192302411Y-105221615D01*
X243600000Y-106550000D02*
X247100000Y-110050000D01*
X247100000Y-111600000D02*
X250300000Y-114800000D01*
X252850000Y-123400000D02*
X252850000Y-128650000D01*
X186333160Y-104633160D02*
X184410000Y-102710000D01*
X179100000Y-125800000D02*
X179100000Y-124600000D01*
X178500000Y-124000000D02*
X178500000Y-123410000D01*
X179100000Y-124600000D02*
X178500000Y-124000000D01*
X175204675Y-116190272D02*
X175204675Y-116054675D01*
X173884800Y-114734800D02*
X172002900Y-114734800D01*
X175204675Y-116054675D02*
X173884800Y-114734800D01*
X178500000Y-121400000D02*
X177650000Y-121400000D01*
X177650000Y-121400000D02*
X177500000Y-121250000D01*
X178500000Y-122390000D02*
X178500000Y-121400000D01*
X177830000Y-124930000D02*
X176500000Y-123600000D01*
X177830000Y-125800000D02*
X177830000Y-124930000D01*
X176500000Y-123600000D02*
X176500000Y-123410000D01*
X170900000Y-121200000D02*
X176300000Y-121200000D01*
X176300000Y-121200000D02*
X176500000Y-121400000D01*
X169820000Y-120120000D02*
X170900000Y-121200000D01*
X168100000Y-120120000D02*
X169820000Y-120120000D01*
X176500000Y-122390000D02*
X176500000Y-121400000D01*
X180370000Y-123940000D02*
X180400000Y-123910000D01*
X180370000Y-125800000D02*
X180370000Y-123940000D01*
X172002900Y-115369800D02*
X173619800Y-115369800D01*
X174600000Y-116350000D02*
X174600000Y-117000000D01*
X180890000Y-121910000D02*
X180400000Y-121910000D01*
X181500000Y-119850000D02*
X181500000Y-121300000D01*
X180760407Y-119110407D02*
X181500000Y-119850000D01*
X176710407Y-119110407D02*
X180760407Y-119110407D01*
X181500000Y-121300000D02*
X180890000Y-121910000D01*
X180400000Y-122890000D02*
X180400000Y-121910000D01*
X174600000Y-117000000D02*
X176710407Y-119110407D01*
X173619800Y-115369800D02*
X174600000Y-116350000D01*
X255375000Y-116062500D02*
X255375000Y-115774798D01*
X246400000Y-98800000D02*
X253000000Y-105400000D01*
X194398607Y-98800000D02*
X246400000Y-98800000D01*
X253000000Y-105400000D02*
X253000000Y-105700000D01*
X255375000Y-115774798D02*
X255914939Y-115234859D01*
X194377952Y-98820655D02*
X194398607Y-98800000D01*
X253000000Y-105700000D02*
X254100000Y-106800000D01*
X248200000Y-108950000D02*
X248200000Y-112100000D01*
X244550000Y-105300000D02*
X248200000Y-108950000D01*
X253745000Y-127185000D02*
X254510000Y-127950000D01*
X192984366Y-103419737D02*
X194864629Y-105300000D01*
X194864629Y-105300000D02*
X244550000Y-105300000D01*
X182300000Y-102069800D02*
X181021000Y-102069800D01*
X253745000Y-123145000D02*
X253745000Y-127185000D01*
X251000000Y-120400000D02*
X253745000Y-123145000D01*
X248200000Y-112100000D02*
X251000000Y-114900000D01*
X251000000Y-114900000D02*
X251000000Y-120400000D01*
X134250000Y-116000000D02*
X134250000Y-116300000D01*
X134250000Y-116300000D02*
X134900000Y-116950000D01*
X166810000Y-108690000D02*
X166800000Y-108700000D01*
X168100000Y-108690000D02*
X166810000Y-108690000D01*
X134800000Y-113050000D02*
X134250000Y-113600000D01*
X134800000Y-111900000D02*
X134800000Y-113050000D01*
X134250000Y-113600000D02*
X134250000Y-114450000D01*
D95*
X210275000Y-146050000D02*
X210250000Y-146075000D01*
X208332500Y-146075000D02*
X208300000Y-146042500D01*
X211540000Y-146050000D02*
X210275000Y-146050000D01*
X210250000Y-146075000D02*
X208332500Y-146075000D01*
D92*
X164540000Y-109960000D02*
X164450000Y-110050000D01*
X135800000Y-116000000D02*
X136750000Y-116000000D01*
X168100000Y-109960000D02*
X164540000Y-109960000D01*
X135800000Y-112798510D02*
X135800000Y-114450000D01*
X135300000Y-112298510D02*
X135800000Y-112798510D01*
X135300000Y-111900000D02*
X135300000Y-112298510D01*
X134800000Y-107000000D02*
X134800000Y-105660000D01*
X137100000Y-105375000D02*
X138600000Y-105375000D01*
X137100000Y-106200000D02*
X137100000Y-105375000D01*
X136300000Y-107000000D02*
X137100000Y-106200000D01*
X135800000Y-107000000D02*
X135800000Y-105660000D01*
X168100000Y-121390000D02*
X169310000Y-121390000D01*
X169310000Y-121390000D02*
X169400000Y-121300000D01*
X144775000Y-117700000D02*
X143675000Y-116600000D01*
X144900000Y-117700000D02*
X144775000Y-117700000D01*
X126930000Y-115000000D02*
X126930000Y-115130000D01*
X150361380Y-119088620D02*
X150600000Y-118850000D01*
X149344505Y-119088620D02*
X150361380Y-119088620D01*
X127150000Y-115350000D02*
X127650000Y-115350000D01*
X126930000Y-115130000D02*
X127150000Y-115350000D01*
X181171726Y-109601908D02*
X181171726Y-109571726D01*
X219810000Y-129300000D02*
X219610000Y-129100000D01*
X181030200Y-109430200D02*
X181050000Y-109450000D01*
X221258887Y-129800000D02*
X220834884Y-129375997D01*
X220724003Y-129300000D02*
X219810000Y-129300000D01*
X181171726Y-109571726D02*
X181050000Y-109450000D01*
X181050000Y-109450000D02*
X181050000Y-109480182D01*
X221850000Y-129800000D02*
X221258887Y-129800000D01*
X179821000Y-109430200D02*
X181030200Y-109430200D01*
X220800000Y-129375997D02*
X220724003Y-129300000D01*
X181050000Y-109480182D02*
X181171726Y-109601908D01*
X220834884Y-129375997D02*
X220800000Y-129375997D01*
X245758474Y-134347175D02*
X245500000Y-134088701D01*
X172634666Y-120265334D02*
X171365334Y-120265334D01*
X245500000Y-134088701D02*
X245500000Y-133450000D01*
X168310000Y-119060000D02*
X168100000Y-118850000D01*
X169700000Y-119060000D02*
X168310000Y-119060000D01*
X171365334Y-120265334D02*
X170160000Y-119060000D01*
X170160000Y-119060000D02*
X169700000Y-119060000D01*
X225800000Y-133250000D02*
X225800000Y-134061592D01*
X225800000Y-134061592D02*
X225889500Y-134151092D01*
X168830000Y-117580000D02*
X169290000Y-118040000D01*
X169290000Y-118040000D02*
X169700000Y-118040000D01*
X168100000Y-117580000D02*
X168830000Y-117580000D01*
X174340255Y-114074400D02*
X172002900Y-114074400D01*
X230177417Y-134397583D02*
X230350000Y-134225000D01*
X224238497Y-133311503D02*
X224238497Y-135138497D01*
X224238497Y-135138497D02*
X224630175Y-135530175D01*
X228452417Y-134397583D02*
X229557080Y-134397583D01*
X174479265Y-114213410D02*
X174340255Y-114074400D01*
X224300000Y-133250000D02*
X224238497Y-133311503D01*
X227319825Y-135530175D02*
X228452417Y-134397583D01*
X224630175Y-135530175D02*
X227319825Y-135530175D01*
X232600000Y-118400000D02*
X232600000Y-124900000D01*
X229557080Y-134397583D02*
X230177417Y-134397583D01*
D96*
X225937500Y-125762500D02*
X225700000Y-126000000D01*
X225700000Y-126000000D02*
X225700000Y-126200000D01*
X225937500Y-124950000D02*
X225937500Y-125762500D01*
D94*
X225300000Y-128350000D02*
X225300000Y-126600000D01*
X225300000Y-126600000D02*
X225700000Y-126200000D01*
D92*
X239476541Y-129666541D02*
X239310000Y-129500000D01*
X240625428Y-129666541D02*
X240130430Y-129666541D01*
X240958887Y-130000000D02*
X240625428Y-129666541D01*
X240130430Y-129666541D02*
X239476541Y-129666541D01*
X241550000Y-130000000D02*
X240958887Y-130000000D01*
D91*
X179415600Y-117325600D02*
X179490000Y-117400000D01*
X177844900Y-117325600D02*
X179415600Y-117325600D01*
D94*
X243000000Y-128550000D02*
X243000000Y-126900000D01*
X243000000Y-126900000D02*
X242362500Y-126262500D01*
X223300000Y-128350000D02*
X223300000Y-125387500D01*
X242362500Y-126262500D02*
X242362500Y-124900000D01*
D92*
X222500000Y-104200000D02*
X222450000Y-104250000D01*
X243815334Y-135346629D02*
X244368705Y-135900000D01*
X244368705Y-135900000D02*
X247375000Y-135900000D01*
X237250000Y-104200000D02*
X222500000Y-104200000D01*
X174623056Y-113426944D02*
X174610112Y-113414000D01*
X244000000Y-134730668D02*
X244000000Y-133450000D01*
X174610112Y-113414000D02*
X172002900Y-113414000D01*
X243815334Y-134915334D02*
X244000000Y-134730668D01*
X237300000Y-104250000D02*
X237250000Y-104200000D01*
X247375000Y-135900000D02*
X249100000Y-134175000D01*
X243815334Y-134915334D02*
X243815334Y-135346629D01*
X170550000Y-107350000D02*
X170550000Y-107181041D01*
X174365841Y-103365200D02*
X175179000Y-103365200D01*
X170550000Y-107181041D02*
X174365841Y-103365200D01*
X173963800Y-110050000D02*
X173979000Y-110065200D01*
X172002900Y-116665200D02*
X173084566Y-116665200D01*
X170110000Y-107790000D02*
X169800000Y-107790000D01*
X168100000Y-107420000D02*
X169430000Y-107420000D01*
X173084566Y-116665200D02*
X173175655Y-116756289D01*
X172900000Y-110050000D02*
X173963800Y-110050000D01*
X170550000Y-107350000D02*
X170110000Y-107790000D01*
X169430000Y-107420000D02*
X169800000Y-107790000D01*
X170060000Y-112675613D02*
X170060000Y-116211200D01*
X169800000Y-110910000D02*
X169984400Y-110725600D01*
X169480000Y-111230000D02*
X169800000Y-111550000D01*
X169984400Y-110725600D02*
X173979000Y-110725600D01*
X177600000Y-104800000D02*
X176825600Y-104025600D01*
X176825600Y-104025600D02*
X175179000Y-104025600D01*
X169480000Y-111230000D02*
X169800000Y-110910000D01*
X169800000Y-111550000D02*
X169800000Y-112415613D01*
X177600000Y-108200000D02*
X177600000Y-104800000D01*
X175074400Y-110725600D02*
X177600000Y-108200000D01*
X168100000Y-111230000D02*
X169480000Y-111230000D01*
X170060000Y-116211200D02*
X171174400Y-117325600D01*
X171174400Y-117325600D02*
X172002900Y-117325600D01*
X169800000Y-112415613D02*
X170060000Y-112675613D01*
X173979000Y-110725600D02*
X175074400Y-110725600D01*
X172750000Y-109000000D02*
X172550000Y-109000000D01*
X173740200Y-102730200D02*
X173400000Y-102390000D01*
X175179000Y-102730200D02*
X173740200Y-102730200D01*
X173180200Y-109430200D02*
X172750000Y-109000000D01*
X173979000Y-109430200D02*
X173180200Y-109430200D01*
X148100000Y-114800000D02*
X148100000Y-115525000D01*
X149130000Y-113770000D02*
X148100000Y-114800000D01*
X150600000Y-113770000D02*
X149130000Y-113770000D01*
D96*
X181021000Y-104686000D02*
X181021000Y-105739000D01*
X181021000Y-105739000D02*
X181010000Y-105750000D01*
D92*
X170650000Y-115530200D02*
X171150000Y-116030200D01*
X171150000Y-116030200D02*
X172002900Y-116030200D01*
X164000000Y-112700000D02*
X163550000Y-112700000D01*
X170650000Y-113050000D02*
X170650000Y-115530200D01*
X163550000Y-112700000D02*
X160810000Y-109960000D01*
X170650000Y-113050000D02*
X170650000Y-113040000D01*
X160810000Y-109960000D02*
X150600000Y-109960000D01*
X170650000Y-113040000D02*
X171390000Y-112300000D01*
X165300000Y-127387500D02*
X165300000Y-126748457D01*
X165300000Y-126748457D02*
X166600000Y-125448457D01*
X166600000Y-115800000D02*
X167360000Y-115040000D01*
X167360000Y-115040000D02*
X168100000Y-115040000D01*
X166600000Y-125448457D02*
X166600000Y-115800000D01*
X166000000Y-113650000D02*
X163000000Y-110650000D01*
X166000000Y-124800000D02*
X166000000Y-113650000D01*
X163000000Y-108500000D02*
X165350000Y-106150000D01*
X164650000Y-126150000D02*
X166000000Y-124800000D01*
X165350000Y-106150000D02*
X168100000Y-106150000D01*
X163000000Y-110650000D02*
X163000000Y-108500000D01*
X164650000Y-127387500D02*
X164650000Y-126150000D01*
X168130000Y-113800000D02*
X168100000Y-113770000D01*
X164000000Y-125850000D02*
X164100000Y-125750000D01*
X164000000Y-127387500D02*
X164000000Y-125850000D01*
X169200000Y-113800000D02*
X168130000Y-113800000D01*
X163300497Y-125750000D02*
X163350000Y-125799503D01*
X168110000Y-116300000D02*
X168100000Y-116310000D01*
X169200000Y-116300000D02*
X168110000Y-116300000D01*
X163350000Y-125799503D02*
X163350000Y-127387500D01*
X171500000Y-129300000D02*
X166200000Y-129300000D01*
X172750000Y-125800000D02*
X172750000Y-128050000D01*
X172750000Y-128050000D02*
X171500000Y-129300000D01*
X163350000Y-132150000D02*
X166200000Y-129300000D01*
X163350000Y-133112500D02*
X163350000Y-132150000D01*
X172100000Y-130200000D02*
X166100000Y-130200000D01*
X174020000Y-125800000D02*
X174020000Y-128280000D01*
X174020000Y-128280000D02*
X172100000Y-130200000D01*
X164000000Y-132300000D02*
X164000000Y-133112500D01*
X166100000Y-130200000D02*
X164000000Y-132300000D01*
X172800000Y-131200000D02*
X165923457Y-131200000D01*
X164650000Y-132473457D02*
X164650000Y-133112500D01*
X165923457Y-131200000D02*
X164650000Y-132473457D01*
X175100000Y-128900000D02*
X172800000Y-131200000D01*
X175290000Y-125800000D02*
X175100000Y-125990000D01*
X175100000Y-125990000D02*
X175100000Y-128900000D01*
X176050000Y-129600000D02*
X173650000Y-132000000D01*
X176560000Y-125800000D02*
X176550000Y-125810000D01*
X173650000Y-132000000D02*
X165773457Y-132000000D01*
X176550000Y-125810000D02*
X176550000Y-126650000D01*
X176050000Y-127150000D02*
X176050000Y-129600000D01*
X165773457Y-132000000D02*
X165300000Y-132473457D01*
X176550000Y-126650000D02*
X176050000Y-127150000D01*
X165300000Y-132473457D02*
X165300000Y-133112500D01*
X240790046Y-132500000D02*
X240645023Y-132645023D01*
X175200000Y-106700000D02*
X175200000Y-106740686D01*
X241550000Y-132500000D02*
X240790046Y-132500000D01*
X234950000Y-127450000D02*
X234900000Y-109250000D01*
X175240686Y-106700000D02*
X175200000Y-106700000D01*
X175235570Y-106705116D02*
X175240686Y-106700000D01*
X175126686Y-106814000D02*
X173979000Y-106814000D01*
X175200000Y-106740686D02*
X175126686Y-106814000D01*
X217800000Y-127550000D02*
X217800000Y-121550000D01*
X217800000Y-121550000D02*
X219550000Y-119800000D01*
X175209724Y-108134800D02*
X173979000Y-108134800D01*
X219550000Y-115000000D02*
X224700000Y-109850000D01*
X219550000Y-119800000D02*
X219550000Y-115000000D01*
X221850000Y-132300000D02*
X221024500Y-132300000D01*
X221024500Y-132300000D02*
X220900000Y-132424500D01*
X224700000Y-109850000D02*
X225400000Y-109150000D01*
X246525000Y-130425000D02*
X246450000Y-130500000D01*
X248876358Y-130282245D02*
X248733603Y-130425000D01*
X176400000Y-102100000D02*
X175209200Y-102100000D01*
X248733603Y-130425000D02*
X246525000Y-130425000D01*
X175209200Y-102100000D02*
X175179000Y-102069800D01*
X175739809Y-107474400D02*
X173979000Y-107474400D01*
X230450000Y-108750000D02*
X230450000Y-113000000D01*
X230450000Y-113000000D02*
X231500000Y-114050000D01*
X231500000Y-114050000D02*
X231500000Y-127298405D01*
X228538665Y-130259740D02*
X226790260Y-130259740D01*
X231500000Y-127298405D02*
X228538665Y-130259740D01*
X226790260Y-130259740D02*
X226750000Y-130300000D01*
X160140000Y-108690000D02*
X150600000Y-108690000D01*
X161400000Y-120100000D02*
X161400000Y-112800000D01*
X180700000Y-127350000D02*
X182745000Y-125305000D01*
X177428901Y-127350000D02*
X180700000Y-127350000D01*
X160150000Y-108700000D02*
X160140000Y-108690000D01*
X182745000Y-125305000D02*
X182745000Y-123470000D01*
X160755162Y-111255162D02*
X160700000Y-111200000D01*
X177414227Y-127335326D02*
X177428901Y-127350000D01*
X160755162Y-112155162D02*
X160755162Y-111255162D01*
X161400000Y-112800000D02*
X160755162Y-112155162D01*
X187200000Y-126600000D02*
X188700000Y-125100000D01*
X158275000Y-118925000D02*
X151850000Y-112500000D01*
X184400000Y-126600000D02*
X187200000Y-126600000D01*
X181350000Y-129650000D02*
X184400000Y-126600000D01*
X177349802Y-129913081D02*
X177612883Y-129650000D01*
X193940000Y-124510000D02*
X193940000Y-123470000D01*
X151850000Y-112500000D02*
X150600000Y-112500000D01*
X193350000Y-125100000D02*
X193940000Y-124510000D01*
X177612883Y-129650000D02*
X181350000Y-129650000D01*
X188700000Y-125100000D02*
X193350000Y-125100000D01*
X179200000Y-129010500D02*
X179360500Y-128850000D01*
X152200000Y-111230000D02*
X159900000Y-118930000D01*
X188345000Y-124105000D02*
X188345000Y-123470000D01*
X184450000Y-125650000D02*
X186800000Y-125650000D01*
X186800000Y-125650000D02*
X188345000Y-124105000D01*
X181250000Y-128850000D02*
X184450000Y-125650000D01*
X179360500Y-128850000D02*
X181250000Y-128850000D01*
X150600000Y-111230000D02*
X152200000Y-111230000D01*
X154905000Y-123945000D02*
X154900000Y-123950000D01*
X201850000Y-121650000D02*
X204775000Y-121650000D01*
X201350000Y-121150000D02*
X201850000Y-121650000D01*
X189500000Y-121150000D02*
X201350000Y-121150000D01*
X154905000Y-122640000D02*
X154905000Y-123945000D01*
X204775000Y-121650000D02*
X206595000Y-123470000D01*
X189150000Y-121500000D02*
X189500000Y-121150000D01*
X188950000Y-121500000D02*
X189150000Y-121500000D01*
X152800000Y-120250000D02*
X152800000Y-120200000D01*
X153650000Y-117900000D02*
X152050000Y-116300000D01*
X152050000Y-116300000D02*
X151120000Y-116300000D01*
X152800000Y-120200000D02*
X153650000Y-119350000D01*
X151120000Y-116300000D02*
X151110000Y-116310000D01*
X153650000Y-119350000D02*
X153650000Y-117900000D01*
X151110000Y-116310000D02*
X150600000Y-116310000D01*
X237995893Y-127957827D02*
X235592173Y-127957827D01*
X154200000Y-138200000D02*
X154200000Y-136150000D01*
X246997467Y-131500000D02*
X247245722Y-131251745D01*
X248776245Y-131251745D02*
X249200000Y-131675500D01*
X238020560Y-127933160D02*
X237995893Y-127957827D01*
X233500000Y-130050000D02*
X233350000Y-130200000D01*
X233200000Y-130350000D02*
X233500000Y-130350000D01*
X150700000Y-133650000D02*
X150700000Y-130700000D01*
X233350000Y-130200000D02*
X233500000Y-130350000D01*
X250204500Y-131675500D02*
X250400000Y-131480000D01*
X235592173Y-127957827D02*
X233500000Y-130050000D01*
X233850000Y-130700000D02*
X233500000Y-130350000D01*
X249200000Y-131675500D02*
X250204500Y-131675500D01*
X155250000Y-140100000D02*
X155250000Y-139250000D01*
X227535444Y-140300000D02*
X228550000Y-140300000D01*
X155250000Y-139250000D02*
X154200000Y-138200000D01*
X233850000Y-135000000D02*
X233850000Y-130700000D01*
X246450000Y-131500000D02*
X246997467Y-131500000D01*
X233500000Y-130350000D02*
X233500000Y-130050000D01*
X238316840Y-127933160D02*
X238020560Y-127933160D01*
X151700000Y-134650000D02*
X150700000Y-133650000D01*
X154200000Y-136150000D02*
X152700000Y-134650000D01*
X227450634Y-140215190D02*
X227535444Y-140300000D01*
X152700000Y-134650000D02*
X151700000Y-134650000D01*
X233350000Y-130200000D02*
X233200000Y-130350000D01*
X228550000Y-140300000D02*
X233850000Y-135000000D01*
X247245722Y-131251745D02*
X248776245Y-131251745D01*
X209725000Y-121100000D02*
X212095000Y-123470000D01*
X182500000Y-130850000D02*
X182650000Y-130700000D01*
X186950000Y-121500000D02*
X187950844Y-120499156D01*
X205650000Y-121100000D02*
X209725000Y-121100000D01*
X152690000Y-115040000D02*
X150600000Y-115040000D01*
X176750000Y-130900000D02*
X176800000Y-130850000D01*
X156250000Y-118600000D02*
X152690000Y-115040000D01*
X205049156Y-120499156D02*
X205650000Y-121100000D01*
X187950844Y-120499156D02*
X205049156Y-120499156D01*
X176800000Y-130850000D02*
X182500000Y-130850000D01*
X155400000Y-129100000D02*
X155400000Y-133950000D01*
X154300000Y-128000000D02*
X155400000Y-129100000D01*
X150600000Y-124300000D02*
X154300000Y-128000000D01*
X150600000Y-121390000D02*
X150600000Y-124300000D01*
X155400000Y-133950000D02*
X157350000Y-135900000D01*
X226600000Y-139400000D02*
X226550000Y-139400000D01*
X229150000Y-135300000D02*
X229150000Y-136850000D01*
X229150000Y-136850000D02*
X226600000Y-139400000D01*
X152000000Y-123300000D02*
X156750000Y-128050000D01*
X156750000Y-128050000D02*
X156750000Y-133400000D01*
X247331854Y-132000000D02*
X247490109Y-131841745D01*
X151530000Y-120120000D02*
X152000000Y-120590000D01*
X156750000Y-133400000D02*
X158400000Y-135050000D01*
X152000000Y-120590000D02*
X152000000Y-123300000D01*
X246450000Y-132000000D02*
X247331854Y-132000000D01*
X150600000Y-120120000D02*
X151530000Y-120120000D01*
X159250000Y-126650000D02*
X161850000Y-124050000D01*
X244500000Y-133450000D02*
X244500000Y-134265613D01*
X162950000Y-135400000D02*
X162800000Y-135250000D01*
X244500000Y-134265613D02*
X244410000Y-134355613D01*
X163500000Y-124050000D02*
X163795000Y-123755000D01*
X163795000Y-123755000D02*
X163795000Y-122640000D01*
X159250000Y-133850000D02*
X159250000Y-126650000D01*
X244410000Y-134355613D02*
X244410000Y-135106908D01*
X244410000Y-135106908D02*
X244588659Y-135285567D01*
X243100000Y-135300000D02*
X243100000Y-135553799D01*
X162800000Y-135250000D02*
X160650000Y-135250000D01*
X161850000Y-124050000D02*
X163500000Y-124050000D01*
X243100000Y-135553799D02*
X241210026Y-137443773D01*
X160650000Y-135250000D02*
X159250000Y-133850000D01*
X160090000Y-133574387D02*
X160090000Y-128810000D01*
X165065000Y-123570000D02*
X165065000Y-122640000D01*
X164200000Y-134650000D02*
X161165613Y-134650000D01*
X223706452Y-136743548D02*
X223500000Y-136950000D01*
X163885000Y-124750000D02*
X165065000Y-123570000D01*
X224800000Y-134804670D02*
X224800000Y-133250000D01*
X224828497Y-134833167D02*
X224800000Y-134804670D01*
X160600000Y-128300000D02*
X160600000Y-126550000D01*
X160090000Y-128810000D02*
X160600000Y-128300000D01*
X223706452Y-135392345D02*
X223706452Y-136743548D01*
X162400000Y-124750000D02*
X163885000Y-124750000D01*
X161165613Y-134650000D02*
X160090000Y-133574387D01*
X160600000Y-126550000D02*
X162400000Y-124750000D01*
X228614056Y-129252981D02*
X228711037Y-129252981D01*
X228067037Y-129800000D02*
X228614056Y-129252981D01*
X179821000Y-108769800D02*
X181470256Y-108769800D01*
X181692975Y-109032575D02*
X181430200Y-108769800D01*
X226750000Y-129800000D02*
X228067037Y-129800000D01*
X181733031Y-109032575D02*
X181692975Y-109032575D01*
X181470256Y-108769800D02*
X181733031Y-109032575D01*
X248400000Y-129600000D02*
X248000000Y-130000000D01*
X248000000Y-130000000D02*
X246450000Y-130000000D01*
X173065200Y-101434800D02*
X171000000Y-103500000D01*
X171000000Y-103500000D02*
X171000000Y-104080000D01*
X175179000Y-101434800D02*
X173065200Y-101434800D01*
X148080000Y-117095000D02*
X148080000Y-120460000D01*
X148100000Y-117075000D02*
X148080000Y-117095000D01*
X175179000Y-100114000D02*
X172114000Y-100114000D01*
X172114000Y-100114000D02*
X171000000Y-99000000D01*
X175179000Y-100774400D02*
X171765600Y-100774400D01*
X171765600Y-100774400D02*
X171000000Y-101540000D01*
D93*
X140977500Y-142056000D02*
X140977500Y-142577500D01*
D95*
X137750000Y-135600000D02*
X137750000Y-140950000D01*
D93*
X140977500Y-142056000D02*
X140977500Y-141400000D01*
X146412300Y-144850000D02*
X147312300Y-145750000D01*
X140977500Y-142577500D02*
X143250000Y-144850000D01*
D95*
X138406000Y-134944000D02*
X137750000Y-135600000D01*
X140977500Y-134944000D02*
X138406000Y-134944000D01*
D93*
X143250000Y-144850000D02*
X146412300Y-144850000D01*
D95*
X138856000Y-142056000D02*
X140977500Y-142056000D01*
X137750000Y-140950000D02*
X138856000Y-142056000D01*
X140977500Y-141040000D02*
X140977500Y-141400000D01*
X200660000Y-147060000D02*
X200500000Y-146900000D01*
X211100000Y-144075000D02*
X211125000Y-144050000D01*
X210125000Y-144075000D02*
X211100000Y-144075000D01*
X211125000Y-144050000D02*
X211375000Y-144050000D01*
X210125000Y-144075000D02*
X210100000Y-144075000D01*
X209402500Y-144772500D02*
X208300000Y-144772500D01*
X210100000Y-144075000D02*
X209402500Y-144772500D01*
X201300000Y-147060000D02*
X200660000Y-147060000D01*
X201300000Y-146040000D02*
X202897500Y-146040000D01*
X202897500Y-146040000D02*
X202900000Y-146042500D01*
D92*
X170590000Y-137190000D02*
X170210000Y-136810000D01*
X167475000Y-140405000D02*
X169429387Y-140405000D01*
X170590000Y-139244387D02*
X170590000Y-137190000D01*
X170210000Y-136810000D02*
X170210000Y-135100000D01*
X169429387Y-140405000D02*
X170590000Y-139244387D01*
X167605000Y-136595000D02*
X168800000Y-135400000D01*
X168800000Y-133900000D02*
X169400000Y-133300000D01*
X169400000Y-133300000D02*
X170800000Y-133300000D01*
X167475000Y-136595000D02*
X167605000Y-136595000D01*
X170800000Y-133300000D02*
X171480000Y-133980000D01*
X171480000Y-133980000D02*
X171480000Y-135100000D01*
X168800000Y-135400000D02*
X168800000Y-133900000D01*
X179100000Y-135100000D02*
X179100000Y-135850000D01*
X181437500Y-143200000D02*
X182750000Y-141887500D01*
X179100000Y-135850000D02*
X182750000Y-139500000D01*
X182750000Y-141887500D02*
X182750000Y-139500000D01*
X174250000Y-139500000D02*
X174250000Y-142187500D01*
X177830000Y-135100000D02*
X177830000Y-135920000D01*
X174250000Y-142187500D02*
X175262500Y-143200000D01*
X177830000Y-135920000D02*
X174250000Y-139500000D01*
D94*
X219100000Y-134200000D02*
X218725000Y-134200000D01*
X222150000Y-133250000D02*
X221629696Y-133770304D01*
X220778676Y-133770304D02*
X220749500Y-133741128D01*
X218725000Y-134200000D02*
X218000000Y-133475000D01*
X221629696Y-133770304D02*
X220778676Y-133770304D01*
X222800000Y-133250000D02*
X222150000Y-133250000D01*
X238400000Y-135100000D02*
X238400000Y-134575000D01*
X238400000Y-134575000D02*
X237800000Y-133975000D01*
X242500000Y-133450000D02*
X242500000Y-133894154D01*
X242500000Y-133894154D02*
X241755707Y-134638447D01*
D97*
X143933000Y-137992000D02*
X144200000Y-137725000D01*
X159435000Y-137865000D02*
X162525000Y-137865000D01*
X140977500Y-137992000D02*
X143933000Y-137992000D01*
X159400000Y-137900000D02*
X159435000Y-137865000D01*
X144225000Y-137700000D02*
X144200000Y-137725000D01*
X145300000Y-137700000D02*
X144225000Y-137700000D01*
X144225000Y-139400000D02*
X144200000Y-139425000D01*
X145300000Y-139400000D02*
X144225000Y-139400000D01*
X143783000Y-139008000D02*
X144200000Y-139425000D01*
X140977500Y-139008000D02*
X143783000Y-139008000D01*
X159400000Y-139100000D02*
X162490000Y-139100000D01*
X162490000Y-139100000D02*
X162525000Y-139135000D01*
G04 #@! TA.AperFunction,Conductor*
G36*
X202591604Y-132070485D02*
G01*
X202638078Y-132122657D01*
X202650000Y-132175709D01*
X202650000Y-136426500D01*
X202630315Y-136493539D01*
X202577511Y-136539294D01*
X202526502Y-136550499D01*
X190418715Y-136599519D01*
X190351596Y-136580106D01*
X190305628Y-136527488D01*
X190294353Y-136481418D01*
X190253679Y-135627269D01*
X190270153Y-135559369D01*
X190317779Y-135512721D01*
X191226964Y-135012669D01*
X191276198Y-134997770D01*
X193600000Y-134800000D01*
X194100000Y-134050000D01*
X194100000Y-132369796D01*
X194119685Y-132302758D01*
X194172489Y-132257003D01*
X194219724Y-132245871D01*
X197000000Y-132150000D01*
X199000000Y-132100000D01*
X202524305Y-132051721D01*
X202591604Y-132070485D01*
G37*
G04 #@! TD.AperFunction*
G04 #@! TA.AperFunction,Conductor*
G36*
X188703221Y-131999648D02*
G01*
X188745356Y-132007755D01*
X189250000Y-132200000D01*
X190801000Y-132200000D01*
X190868039Y-132219685D01*
X190913794Y-132272489D01*
X190925000Y-132324000D01*
X190925000Y-133864793D01*
X190906499Y-133929954D01*
X190437044Y-134690022D01*
X190385067Y-134736715D01*
X190329512Y-134748844D01*
X188919793Y-134725734D01*
X188853086Y-134704954D01*
X188841019Y-134695805D01*
X187140071Y-133234427D01*
X187102049Y-133175809D01*
X187097069Y-133147255D01*
X187051475Y-132326558D01*
X187059548Y-132275174D01*
X187143897Y-132055865D01*
X187186334Y-132000363D01*
X187252044Y-131976613D01*
X187261623Y-131976397D01*
X188703221Y-131999648D01*
G37*
G04 #@! TD.AperFunction*
G04 #@! TA.AperFunction,Conductor*
G36*
X206902078Y-146198931D02*
G01*
X206968944Y-146219197D01*
X207014238Y-146272397D01*
X207025000Y-146322926D01*
X207025000Y-146575000D01*
X207400000Y-146850000D01*
X210414804Y-147187658D01*
X210479234Y-147214681D01*
X210518827Y-147272250D01*
X210525000Y-147310887D01*
X210525000Y-147947994D01*
X210505315Y-148015033D01*
X210452511Y-148060788D01*
X210398031Y-148071958D01*
X206385032Y-147975839D01*
X206320589Y-147955950D01*
X206308306Y-147947994D01*
X205134453Y-147187657D01*
X204206588Y-146586653D01*
X204161022Y-146533686D01*
X204150000Y-146482578D01*
X204150000Y-146300082D01*
X204169685Y-146233043D01*
X204222489Y-146187288D01*
X204275075Y-146176087D01*
X206902078Y-146198931D01*
G37*
G04 #@! TD.AperFunction*
G04 #@! TA.AperFunction,Conductor*
G36*
X202124849Y-138461546D02*
G01*
X206978251Y-140716662D01*
X207030753Y-140762763D01*
X207050000Y-140829116D01*
X207050000Y-142276000D01*
X207030315Y-142343039D01*
X206977511Y-142388794D01*
X206926000Y-142400000D01*
X200544711Y-142400000D01*
X200477672Y-142380315D01*
X200431917Y-142327511D01*
X200425080Y-142308627D01*
X200416182Y-142276000D01*
X200300000Y-141850000D01*
X200299999Y-141850000D01*
X199400691Y-141850000D01*
X199399324Y-141849985D01*
X192648982Y-141701080D01*
X192582393Y-141679922D01*
X192564984Y-141665729D01*
X190287267Y-139436474D01*
X190253124Y-139375514D01*
X190250000Y-139347855D01*
X190250000Y-138574000D01*
X190269685Y-138506961D01*
X190322489Y-138461206D01*
X190374000Y-138450000D01*
X202072598Y-138450000D01*
X202124849Y-138461546D01*
G37*
G04 #@! TD.AperFunction*
G04 #@! TA.AperFunction,Conductor*
G36*
X212700754Y-132348880D02*
G01*
X212767611Y-132369168D01*
X212812889Y-132422382D01*
X212823627Y-132474245D01*
X212775266Y-136850851D01*
X212765690Y-136897282D01*
X210456834Y-142423801D01*
X210412828Y-142478071D01*
X210346467Y-142499934D01*
X210342418Y-142500000D01*
X207654764Y-142500000D01*
X207587725Y-142480315D01*
X207541970Y-142427511D01*
X207530892Y-142370369D01*
X207549410Y-141962974D01*
X207553264Y-141937432D01*
X208862394Y-136897282D01*
X210025664Y-132418691D01*
X210061569Y-132358756D01*
X210124180Y-132327745D01*
X210146797Y-132325872D01*
X212700754Y-132348880D01*
G37*
G04 #@! TD.AperFunction*
M02*
